<svg width="24" height="24" viewBox="0 0 24 24" fill="none" xmlns="http://www.w3.org/2000/svg">
<g clip-path="url(#clip0_5918_51750)">
<path d="M14.25 6.75C15.4926 6.75 16.5 5.74264 16.5 4.5C16.5 3.25736 15.4926 2.25 14.25 2.25C13.0074 2.25 12 3.25736 12 4.5C12 5.74264 13.0074 6.75 14.25 6.75Z" stroke="white" stroke-width="1.5" stroke-linecap="round" stroke-linejoin="round"/>
<path d="M14.25 21.7502V16.5002L10.2694 13.6567" stroke="white" stroke-width="1.5" stroke-linecap="round" stroke-linejoin="round"/>
<path d="M18 21.7498V13.4998C14.25 13.4998 14.4319 11.2188 12.75 9.7582C12.5652 9.59676 12.3615 9.45825 12.1434 9.3457L6.75 21.7498" stroke="white" stroke-width="1.5" stroke-linecap="round" stroke-linejoin="round"/>
<path d="M6.37551 7.12473L4.12524 12.375L6.74995 13.5L9.00022 8.24968L6.37551 7.12473Z" stroke="white" stroke-width="1.5" stroke-linecap="round" stroke-linejoin="round"/>
</g>
<defs>
<clipPath id="clip0_5918_51750">
<rect width="24" height="24" fill="white"/>
</clipPath>
</defs>
</svg>
