<svg width="416" height="102" viewBox="0 0 416 102" fill="none" xmlns="http://www.w3.org/2000/svg">
<g opacity="0.1" clip-path="url(#clip0_5918_52347)" filter="url(#filter0_d_5918_52347)">
<rect width="414.387" height="89.3775" transform="translate(1.16455 11.6672)" fill="#FAFAFA"/>
<line opacity="0.2" x1="283.833" y1="-18.4519" x2="132.964" y2="132.418" stroke="black" stroke-width="1.01565"/>
<line opacity="0.3" x1="415.1" y1="-18.4518" x2="264.23" y2="132.418" stroke="black" stroke-width="1.01565"/>
<line opacity="0.2" x1="350.058" y1="-18.4519" x2="199.188" y2="132.418" stroke="black" stroke-width="1.01565"/>
<line opacity="0.2" x1="481.324" y1="-18.4519" x2="330.454" y2="132.418" stroke="black" stroke-width="1.01565"/>
<line opacity="0.2" x1="316.945" y1="-18.4519" x2="166.076" y2="132.418" stroke="black" stroke-width="1.01565"/>
<line opacity="0.2" x1="448.212" y1="-18.4518" x2="297.342" y2="132.418" stroke="black" stroke-width="1.01565"/>
<line opacity="0.2" x1="383.17" y1="-18.4519" x2="232.3" y2="132.418" stroke="black" stroke-width="1.01565"/>
<line opacity="0.2" x1="514.436" y1="-18.4519" x2="363.567" y2="132.418" stroke="black" stroke-width="1.01565"/>
<line opacity="0.2" x1="300.39" y1="-18.4519" x2="149.52" y2="132.418" stroke="black" stroke-width="1.01565"/>
<line opacity="0.2" x1="431.656" y1="-18.4518" x2="280.786" y2="132.418" stroke="black" stroke-width="1.01565"/>
<line opacity="0.2" x1="366.614" y1="-18.4519" x2="215.744" y2="132.418" stroke="black" stroke-width="1.01565"/>
<line opacity="0.2" x1="497.88" y1="-18.4519" x2="347.011" y2="132.418" stroke="black" stroke-width="1.01565"/>
<line opacity="0.2" x1="333.502" y1="-18.4519" x2="182.632" y2="132.418" stroke="black" stroke-width="1.01565"/>
<line opacity="0.2" x1="464.768" y1="-18.4518" x2="313.899" y2="132.418" stroke="black" stroke-width="1.01565"/>
<line opacity="0.2" x1="399.726" y1="-18.4519" x2="248.857" y2="132.418" stroke="black" stroke-width="1.01565"/>
<line opacity="0.2" x1="530.993" y1="-18.4519" x2="380.123" y2="132.418" stroke="black" stroke-width="1.01565"/>
<line opacity="0.2" x1="292.505" y1="-18.4518" x2="141.636" y2="132.418" stroke="black" stroke-width="1.01565"/>
<line opacity="0.2" x1="423.772" y1="-18.4519" x2="272.903" y2="132.418" stroke="black" stroke-width="1.01565"/>
<line opacity="0.4" x1="358.73" y1="-18.4519" x2="207.861" y2="132.418" stroke="black" stroke-width="1.01565"/>
<line opacity="0.2" x1="489.997" y1="-18.4519" x2="339.127" y2="132.418" stroke="black" stroke-width="1.01565"/>
<line opacity="0.2" x1="325.618" y1="-18.4518" x2="174.748" y2="132.418" stroke="black" stroke-width="1.01565"/>
<line opacity="0.2" x1="456.884" y1="-18.4519" x2="306.015" y2="132.418" stroke="black" stroke-width="1.01565"/>
<line opacity="0.2" x1="391.842" y1="-18.4519" x2="240.973" y2="132.418" stroke="black" stroke-width="1.01565"/>
<line opacity="0.2" x1="523.109" y1="-18.4519" x2="372.239" y2="132.418" stroke="black" stroke-width="1.01565"/>
<line opacity="0.2" x1="309.061" y1="-18.4518" x2="158.192" y2="132.418" stroke="black" stroke-width="1.01565"/>
<line opacity="0.2" x1="440.328" y1="-18.4519" x2="289.458" y2="132.418" stroke="black" stroke-width="1.01565"/>
<line opacity="0.2" x1="375.286" y1="-18.4519" x2="224.416" y2="132.418" stroke="black" stroke-width="1.01565"/>
<line opacity="0.2" x1="506.553" y1="-18.4519" x2="355.683" y2="132.418" stroke="black" stroke-width="1.01565"/>
<line opacity="0.2" x1="342.174" y1="-18.4519" x2="191.304" y2="132.418" stroke="black" stroke-width="1.01565"/>
<line opacity="0.2" x1="473.44" y1="-18.4519" x2="322.57" y2="132.418" stroke="black" stroke-width="1.01565"/>
<line opacity="0.2" x1="408.399" y1="-18.4519" x2="257.529" y2="132.418" stroke="black" stroke-width="1.01565"/>
<line opacity="0.2" x1="539.665" y1="-18.4519" x2="388.795" y2="132.418" stroke="black" stroke-width="1.01565"/>
<line opacity="0.2" x1="18.791" y1="-18.4519" x2="-132.079" y2="132.418" stroke="black" stroke-width="1.01565"/>
<line opacity="0.2" x1="150.058" y1="-18.4519" x2="-0.811479" y2="132.418" stroke="black" stroke-width="1.01565"/>
<line opacity="0.2" x1="85.0158" y1="-18.4519" x2="-65.8537" y2="132.418" stroke="black" stroke-width="1.01565"/>
<line opacity="0.2" x1="216.282" y1="-18.4519" x2="65.4129" y2="132.418" stroke="black" stroke-width="1.01565"/>
<line opacity="0.2" x1="51.9038" y1="-18.4519" x2="-98.9658" y2="132.418" stroke="black" stroke-width="1.01565"/>
<line opacity="0.2" x1="183.17" y1="-18.4519" x2="32.3006" y2="132.418" stroke="black" stroke-width="1.01565"/>
<line opacity="0.2" x1="118.128" y1="-18.4519" x2="-32.7414" y2="132.418" stroke="black" stroke-width="1.01565"/>
<line opacity="0.2" x1="249.394" y1="-18.4518" x2="98.5249" y2="132.418" stroke="black" stroke-width="1.01565"/>
<line opacity="0.2" x1="35.3474" y1="-18.4519" x2="-115.522" y2="132.418" stroke="black" stroke-width="1.01565"/>
<line opacity="0.2" x1="166.614" y1="-18.4519" x2="15.7442" y2="132.418" stroke="black" stroke-width="1.01565"/>
<line opacity="0.2" x1="101.572" y1="-18.4519" x2="-49.2978" y2="132.418" stroke="black" stroke-width="1.01565"/>
<line opacity="0.2" x1="232.838" y1="-18.4518" x2="81.9686" y2="132.418" stroke="black" stroke-width="1.01565"/>
<line opacity="0.2" x1="68.4594" y1="-18.4519" x2="-82.4101" y2="132.418" stroke="black" stroke-width="1.01565"/>
<line opacity="0.2" x1="199.727" y1="-18.4519" x2="48.857" y2="132.418" stroke="black" stroke-width="1.01565"/>
<line opacity="0.2" x1="134.685" y1="-18.4519" x2="-16.185" y2="132.418" stroke="black" stroke-width="1.01565"/>
<line opacity="0.2" x1="265.951" y1="-18.4518" x2="115.081" y2="132.418" stroke="black" stroke-width="1.01565"/>
<line opacity="0.2" x1="27.4633" y1="-18.4519" x2="-123.406" y2="132.418" stroke="black" stroke-width="1.01565"/>
<line opacity="0.2" x1="158.73" y1="-18.4519" x2="7.8604" y2="132.418" stroke="black" stroke-width="1.01565"/>
<line opacity="0.2" x1="93.6877" y1="-18.4518" x2="-57.1818" y2="132.418" stroke="black" stroke-width="1.01565"/>
<line opacity="0.2" x1="224.954" y1="-18.4519" x2="74.0848" y2="132.418" stroke="black" stroke-width="1.01565"/>
<line opacity="0.2" x1="60.5756" y1="-18.4519" x2="-90.2939" y2="132.418" stroke="black" stroke-width="1.01565"/>
<line opacity="0.2" x1="191.842" y1="-18.4519" x2="40.9725" y2="132.418" stroke="black" stroke-width="1.01565"/>
<line opacity="0.2" x1="126.8" y1="-18.4518" x2="-24.0695" y2="132.418" stroke="black" stroke-width="1.01565"/>
<line opacity="0.2" x1="258.067" y1="-18.4519" x2="107.198" y2="132.418" stroke="black" stroke-width="1.01565"/>
<line opacity="0.2" x1="44.0197" y1="-18.4519" x2="-106.85" y2="132.418" stroke="black" stroke-width="1.01565"/>
<line opacity="0.2" x1="175.286" y1="-18.4519" x2="24.4168" y2="132.418" stroke="black" stroke-width="1.01565"/>
<line opacity="0.2" x1="110.244" y1="-18.4518" x2="-40.6254" y2="132.418" stroke="black" stroke-width="1.01565"/>
<line opacity="0.2" x1="241.511" y1="-18.4519" x2="90.6412" y2="132.418" stroke="black" stroke-width="1.01565"/>
<line opacity="0.2" x1="77.132" y1="-18.4519" x2="-73.7375" y2="132.418" stroke="black" stroke-width="1.01565"/>
<line opacity="0.2" x1="208.398" y1="-18.4519" x2="57.5289" y2="132.418" stroke="black" stroke-width="1.01565"/>
<line opacity="0.2" x1="143.356" y1="-18.4518" x2="-7.51314" y2="132.418" stroke="black" stroke-width="1.01565"/>
<line opacity="0.2" x1="274.623" y1="-18.4519" x2="123.753" y2="132.418" stroke="black" stroke-width="1.01565"/>
<line opacity="0.2" x1="283.115" y1="132.417" x2="132.246" y2="-18.4521" stroke="black" stroke-width="1.01565"/>
<line opacity="0.2" x1="414.382" y1="132.417" x2="263.512" y2="-18.4522" stroke="black" stroke-width="1.01565"/>
<line opacity="0.2" x1="349.34" y1="132.417" x2="198.47" y2="-18.4521" stroke="black" stroke-width="1.01565"/>
<line opacity="0.2" x1="480.606" y1="132.417" x2="329.737" y2="-18.4521" stroke="black" stroke-width="1.01565"/>
<line opacity="0.2" x1="316.228" y1="132.417" x2="165.358" y2="-18.4521" stroke="black" stroke-width="1.01565"/>
<line opacity="0.3" x1="447.494" y1="132.418" x2="296.624" y2="-18.452" stroke="black" stroke-width="1.01565"/>
<line opacity="0.2" x1="382.452" y1="132.417" x2="231.582" y2="-18.4521" stroke="black" stroke-width="1.01565"/>
<line opacity="0.2" x1="513.718" y1="132.417" x2="362.849" y2="-18.4521" stroke="black" stroke-width="1.01565"/>
<line opacity="0.2" x1="299.671" y1="132.417" x2="148.802" y2="-18.4521" stroke="black" stroke-width="1.01565"/>
<line opacity="0.2" x1="430.938" y1="132.418" x2="280.068" y2="-18.452" stroke="black" stroke-width="1.01565"/>
<line opacity="0.4" x1="365.896" y1="132.417" x2="215.027" y2="-18.4521" stroke="black" stroke-width="1.01565"/>
<line opacity="0.2" x1="497.162" y1="132.417" x2="346.292" y2="-18.4521" stroke="black" stroke-width="1.01565"/>
<line opacity="0.2" x1="332.783" y1="132.417" x2="181.914" y2="-18.4521" stroke="black" stroke-width="1.01565"/>
<line opacity="0.2" x1="464.05" y1="132.417" x2="313.18" y2="-18.4521" stroke="black" stroke-width="1.01565"/>
<line opacity="0.2" x1="399.008" y1="132.417" x2="248.139" y2="-18.4521" stroke="black" stroke-width="1.01565"/>
<line opacity="0.2" x1="530.275" y1="132.417" x2="379.405" y2="-18.4521" stroke="black" stroke-width="1.01565"/>
<line opacity="0.2" x1="291.787" y1="132.418" x2="140.918" y2="-18.452" stroke="black" stroke-width="1.01565"/>
<line opacity="0.2" x1="423.054" y1="132.417" x2="272.184" y2="-18.4521" stroke="black" stroke-width="1.01565"/>
<line opacity="0.2" x1="358.012" y1="132.417" x2="207.142" y2="-18.4521" stroke="black" stroke-width="1.01565"/>
<line opacity="0.2" x1="489.278" y1="132.417" x2="338.409" y2="-18.4521" stroke="black" stroke-width="1.01565"/>
<line opacity="0.4" x1="324.899" y1="132.417" x2="174.03" y2="-18.4521" stroke="black" stroke-width="1.01565"/>
<line opacity="0.2" x1="456.166" y1="132.417" x2="305.296" y2="-18.4521" stroke="black" stroke-width="1.01565"/>
<line opacity="0.2" x1="391.124" y1="132.417" x2="240.254" y2="-18.4521" stroke="black" stroke-width="1.01565"/>
<line opacity="0.2" x1="522.391" y1="132.417" x2="371.521" y2="-18.4521" stroke="black" stroke-width="1.01565"/>
<line opacity="0.2" x1="308.344" y1="132.418" x2="157.474" y2="-18.452" stroke="black" stroke-width="1.01565"/>
<line opacity="0.2" x1="439.61" y1="132.417" x2="288.741" y2="-18.4521" stroke="black" stroke-width="1.01565"/>
<line opacity="0.2" x1="374.568" y1="132.417" x2="223.699" y2="-18.4521" stroke="black" stroke-width="1.01565"/>
<line opacity="0.2" x1="505.835" y1="132.417" x2="354.965" y2="-18.4521" stroke="black" stroke-width="1.01565"/>
<line opacity="0.2" x1="341.456" y1="132.417" x2="190.586" y2="-18.4521" stroke="black" stroke-width="1.01565"/>
<line opacity="0.2" x1="472.722" y1="132.417" x2="321.853" y2="-18.4521" stroke="black" stroke-width="1.01565"/>
<line opacity="0.2" x1="407.68" y1="132.417" x2="256.811" y2="-18.4521" stroke="black" stroke-width="1.01565"/>
<line opacity="0.2" x1="538.947" y1="132.417" x2="388.077" y2="-18.4522" stroke="black" stroke-width="1.01565"/>
<line opacity="0.2" x1="18.073" y1="132.417" x2="-132.796" y2="-18.4521" stroke="black" stroke-width="1.01565"/>
<line opacity="0.2" x1="149.34" y1="132.417" x2="-1.5299" y2="-18.4521" stroke="black" stroke-width="1.01565"/>
<line opacity="0.2" x1="84.2974" y1="132.417" x2="-66.5721" y2="-18.4521" stroke="black" stroke-width="1.01565"/>
<line opacity="0.2" x1="215.564" y1="132.417" x2="64.6945" y2="-18.4522" stroke="black" stroke-width="1.01565"/>
<line opacity="0.2" x1="51.1853" y1="132.417" x2="-99.6842" y2="-18.4521" stroke="black" stroke-width="1.01565"/>
<line opacity="0.2" x1="182.452" y1="132.417" x2="31.5822" y2="-18.4521" stroke="black" stroke-width="1.01565"/>
<line opacity="0.1" x1="117.41" y1="132.417" x2="-33.4598" y2="-18.4521" stroke="black" stroke-width="1.01565"/>
<line opacity="0.2" x1="248.676" y1="132.417" x2="97.8065" y2="-18.4522" stroke="black" stroke-width="1.01565"/>
<line opacity="0.2" x1="34.6294" y1="132.417" x2="-116.24" y2="-18.4521" stroke="black" stroke-width="1.01565"/>
<line opacity="0.2" x1="165.896" y1="132.417" x2="15.0265" y2="-18.4521" stroke="black" stroke-width="1.01565"/>
<line opacity="0.2" x1="100.854" y1="132.417" x2="-50.0157" y2="-18.4521" stroke="black" stroke-width="1.01565"/>
<line opacity="0.2" x1="232.12" y1="132.417" x2="81.2509" y2="-18.4522" stroke="black" stroke-width="1.01565"/>
<line opacity="0.2" x1="67.7417" y1="132.417" x2="-83.1278" y2="-18.4521" stroke="black" stroke-width="1.01565"/>
<line opacity="0.2" x1="199.008" y1="132.417" x2="48.1386" y2="-18.4521" stroke="black" stroke-width="1.01565"/>
<line opacity="0.2" x1="133.966" y1="132.417" x2="-16.9034" y2="-18.4521" stroke="black" stroke-width="1.01565"/>
<line opacity="0.4" x1="265.232" y1="132.418" x2="114.363" y2="-18.452" stroke="black" stroke-width="1.01565"/>
<line opacity="0.2" x1="26.7449" y1="132.417" x2="-124.125" y2="-18.4522" stroke="black" stroke-width="1.01565"/>
<line opacity="0.2" x1="158.012" y1="132.417" x2="7.14246" y2="-18.4521" stroke="black" stroke-width="1.01565"/>
<line opacity="0.2" x1="92.97" y1="132.417" x2="-57.8995" y2="-18.4522" stroke="black" stroke-width="1.01565"/>
<line opacity="0.4" x1="224.236" y1="132.417" x2="73.3668" y2="-18.4521" stroke="black" stroke-width="1.01565"/>
<line opacity="0.2" x1="59.858" y1="132.417" x2="-91.0116" y2="-18.4521" stroke="black" stroke-width="1.01565"/>
<line opacity="0.2" x1="191.124" y1="132.417" x2="40.2548" y2="-18.4521" stroke="black" stroke-width="1.01565"/>
<line opacity="0.2" x1="126.082" y1="132.418" x2="-24.7872" y2="-18.452" stroke="black" stroke-width="1.01565"/>
<line opacity="0.2" x1="257.349" y1="132.417" x2="106.479" y2="-18.4521" stroke="black" stroke-width="1.01565"/>
<line opacity="0.2" x1="43.3013" y1="132.417" x2="-107.568" y2="-18.4521" stroke="black" stroke-width="1.01565"/>
<line opacity="0.2" x1="174.568" y1="132.417" x2="23.6984" y2="-18.4521" stroke="black" stroke-width="1.01565"/>
<line opacity="0.2" x1="109.526" y1="132.418" x2="-41.3439" y2="-18.452" stroke="black" stroke-width="1.01565"/>
<line opacity="0.2" x1="240.792" y1="132.417" x2="89.9227" y2="-18.4521" stroke="black" stroke-width="1.01565"/>
<line opacity="0.2" x1="76.4136" y1="132.417" x2="-74.4559" y2="-18.4522" stroke="black" stroke-width="1.01565"/>
<line opacity="0.2" x1="207.68" y1="132.417" x2="56.8104" y2="-18.4521" stroke="black" stroke-width="1.01565"/>
<line opacity="0.2" x1="142.639" y1="132.418" x2="-8.23083" y2="-18.452" stroke="black" stroke-width="1.01565"/>
<line opacity="0.2" x1="273.905" y1="132.417" x2="123.036" y2="-18.4521" stroke="black" stroke-width="1.01565"/>
</g>
<defs>
<filter id="filter0_d_5918_52347" x="-10.5027" y="3.14713e-05" width="437.721" height="112.712" filterUnits="userSpaceOnUse" color-interpolation-filters="sRGB">
<feFlood flood-opacity="0" result="BackgroundImageFix"/>
<feColorMatrix in="SourceAlpha" type="matrix" values="0 0 0 0 0 0 0 0 0 0 0 0 0 0 0 0 0 0 127 0" result="hardAlpha"/>
<feOffset/>
<feGaussianBlur stdDeviation="5.8336"/>
<feComposite in2="hardAlpha" operator="out"/>
<feColorMatrix type="matrix" values="0 0 0 0 0 0 0 0 0 0 0 0 0 0 0 0 0 0 0.4 0"/>
<feBlend mode="normal" in2="BackgroundImageFix" result="effect1_dropShadow_5918_52347"/>
<feBlend mode="normal" in="SourceGraphic" in2="effect1_dropShadow_5918_52347" result="shape"/>
</filter>
<clipPath id="clip0_5918_52347">
<rect width="414.387" height="89.3775" fill="white" transform="translate(1.16455 11.6672)"/>
</clipPath>
</defs>
</svg>
