<svg width="358" height="16" viewBox="0 0 358 16" fill="none" xmlns="http://www.w3.org/2000/svg">
<path d="M325.854 14.722C326.728 14.7329 323.808 14.7366 325.747 14.75C325.343 14.7536 324.936 14.7573 324.532 14.7609C324.429 14.7528 324.324 14.7447 324.222 14.7364C324.765 14.7315 325.308 14.7267 325.854 14.7219C325.854 14.722 325.854 14.722 325.854 14.722ZM326.595 14.6175C326.097 14.6408 324.516 14.6513 326.224 14.669C326.36 14.6607 326.499 14.6524 326.635 14.6442C327.228 14.6493 327.824 14.654 328.417 14.6584C328.63 14.655 328.843 14.6517 329.057 14.6485C329.328 14.6606 329.597 14.6724 329.869 14.6839C329.628 14.6829 329.383 14.6819 329.142 14.6808C328.189 14.6942 327.341 14.7004 326.047 14.7073C326.161 14.7102 326.275 14.713 326.388 14.7159C325.731 14.7129 325.075 14.7097 324.421 14.706C324.989 14.6982 325.624 14.6899 326.15 14.6832C325.308 14.6636 323.822 14.6793 323.049 14.6868C321.996 14.6967 322.234 14.6844 321.453 14.6915C321.328 14.6926 321.314 14.7021 321.067 14.703C319.823 14.7079 317.406 14.7095 318.82 14.6821C320.868 14.6797 322.614 14.6586 324.623 14.6605C324.092 14.6384 325.15 14.6284 326.595 14.6175ZM288.972 14.8048C289.593 14.7797 290.857 14.7857 291.713 14.7984C291.714 14.7984 291.715 14.7984 291.716 14.7984C291.905 14.8012 292.332 14.8291 291.716 14.8301C290.713 14.832 290.228 14.7858 289.702 14.82C289.466 14.8147 289.219 14.8101 288.972 14.8048ZM286.793 14.8146C286.178 14.8043 286.457 14.7655 287.227 14.7737C287.227 14.7737 287.227 14.7737 287.227 14.7736C287.548 14.7771 286.917 14.8082 288.07 14.7752C288.306 14.7976 288.537 14.8178 288.77 14.8391C288.488 14.8405 288.23 14.842 287.934 14.8434C288.134 14.8047 287.408 14.8247 286.793 14.8146ZM317.78 14.6966C317.683 14.7165 318.088 14.7153 318.778 14.7262C318.127 14.7279 317.476 14.7295 316.827 14.7311C317.146 14.7193 317.461 14.7078 317.78 14.6966ZM333.078 14.6572C333.079 14.6572 333.08 14.6572 333.081 14.6572C333.294 14.6547 333.508 14.6522 333.719 14.6498C333.846 14.6537 333.972 14.6575 334.1 14.6613C334.854 14.6551 335.611 14.6492 336.365 14.6437C336.274 14.6555 334.921 14.6575 334.175 14.6688C333.067 14.6688 332.533 14.6625 332.461 14.6512C332.666 14.6532 332.87 14.6552 333.078 14.6572ZM151.798 14.7225C151.545 14.7531 151.296 14.7838 151.044 14.8146C151.38 14.8282 151.712 14.8384 152.05 14.854C152.934 14.7211 153.017 14.8378 154.175 14.8282C157.725 14.7983 156.783 14.6027 159.989 14.8889C157.415 14.879 158.404 15.0138 156.853 15.1239C156.531 15.0434 158.069 14.8588 157.027 14.8225C155.231 14.9101 153.505 14.9941 151.513 15.0554C151.571 15.0696 151.629 15.0839 151.687 15.0981C152.003 15.0882 152.316 15.0784 152.632 15.0687C152.291 15.1077 151.958 15.1465 151.611 15.1864C152.049 15.098 150.933 15.1498 151.083 15.0489C151.149 15.0041 151.642 14.9412 151.933 14.8983C151.183 14.8762 150.412 14.856 149.653 14.8342C150.047 14.7978 150.44 14.7617 150.83 14.7258C151.152 14.7244 151.47 14.7234 151.792 14.7221C151.794 14.7223 151.796 14.7224 151.798 14.7225ZM19.1274 12.968C19.6688 12.1611 20.8702 10.9126 21.657 10.41C20.8132 11.2631 19.9713 12.1148 19.1274 12.968ZM332.388 14.6418C332.496 14.6438 332.601 14.6457 332.709 14.6476C332.232 14.6527 331.753 14.658 331.276 14.6636C331.185 14.6573 331.091 14.6509 330.997 14.6444C331.46 14.6436 331.926 14.6427 332.388 14.6418ZM301.899 14.7213C302.247 14.7196 302.278 14.72 302.712 14.7209C302.712 14.7209 302.711 14.7209 302.711 14.7209C302.883 14.7212 304.323 14.7255 304.163 14.7361C303.448 14.7382 302.685 14.7402 301.953 14.7422C301.931 14.7352 301.926 14.7283 301.899 14.7213ZM310.315 14.7066C310.316 14.7066 310.317 14.7066 310.318 14.7066C310.578 14.7074 310.825 14.7095 311.093 14.7093C310.126 14.726 309.973 14.7008 309.095 14.7103C308.217 14.7198 307.674 14.7368 306.929 14.7011C307.206 14.6948 307.504 14.6862 307.79 14.6793C309.036 14.6916 309.372 14.6769 310.372 14.6616C310.353 14.6766 310.334 14.6915 310.315 14.7066ZM167.602 14.9955C167.84 14.9258 168.106 14.9931 168.134 14.9938C168.133 14.9939 168.133 14.994 168.132 14.9941C170.243 14.9259 167.857 15.0329 169.85 15.0389C169.553 15.0567 169.262 15.0756 168.968 15.0937C168.514 15.0618 168.045 15.0252 167.602 14.9955ZM236.188 14.8528C236.207 14.8657 236.231 14.8785 236.25 14.8914C235.053 14.8912 234.748 14.9436 233.753 14.8992C234.565 14.8833 235.376 14.8679 236.188 14.8527C236.188 14.8527 236.188 14.8528 236.188 14.8528ZM295.865 14.6878C297.192 14.673 298.174 14.667 299.449 14.6837C299.45 14.6838 299.451 14.6838 299.452 14.6838C299.525 14.6848 299.17 14.6984 299.266 14.7016C299.529 14.6991 299.8 14.6956 300.066 14.6928C300.102 14.7031 300.136 14.7132 300.172 14.7234C299.424 14.7222 298.676 14.7209 297.925 14.7196C298.036 14.7256 298.149 14.7314 298.26 14.7374C297.623 14.7422 296.988 14.747 296.35 14.752C296.572 14.7335 296.793 14.7152 297.012 14.697C296.63 14.694 296.247 14.691 295.865 14.6878ZM216.257 14.732C216.468 14.7481 216.078 14.776 216.405 14.7897C216.732 14.8031 217.335 14.7718 217.194 14.8179C216.753 14.8248 216.291 14.8327 215.842 14.84C217.286 14.9206 218.727 14.8426 218.749 14.9438C217.363 14.9211 216.224 14.9356 214.883 14.968C214.938 14.885 216.28 14.8121 215.435 14.7362C215.706 14.7349 215.991 14.733 216.254 14.7321C216.255 14.7321 216.256 14.732 216.257 14.732ZM351.781 14.5561C352.602 14.5604 354.481 14.5695 355.518 14.5756C355.773 14.5774 356.622 14.583 356.618 14.5829C356.593 14.5833 355.555 14.5805 356.666 14.5842C356.293 14.5832 355.93 14.5822 355.559 14.5812C355.625 14.5821 355.692 14.583 355.755 14.5839C356.207 14.5846 356.659 14.5854 357.111 14.5862C357.133 14.5864 357.155 14.5865 357.177 14.5866C355.553 14.5839 356.512 14.586 355.67 14.586C356.445 14.5871 357.227 14.5878 358 14.588C357.554 14.5879 357.027 14.5877 356.634 14.5875C356.581 14.5883 357.52 14.588 357.681 14.5881C358.587 14.5879 353.974 14.5892 353.596 14.5933C354.333 14.5928 355.107 14.5921 355.86 14.5911C355.644 14.5917 355.425 14.5923 355.209 14.5929C353.499 14.5943 351.582 14.5951 349.59 14.5937C349.41 14.5941 349.229 14.5944 349.052 14.5947C349.105 14.5969 349.155 14.599 349.207 14.601C348.936 14.6017 348.661 14.6024 348.389 14.6031C349.19 14.5943 348.081 14.5963 346.743 14.5912C347.455 14.5879 348.333 14.5897 348.272 14.5845C345.828 14.5886 342.966 14.58 340.589 14.5868C339.999 14.5887 340.001 14.601 338.613 14.6009C338.66 14.5994 338.668 14.5968 338.699 14.5949C336.299 14.6019 334.843 14.6089 332.348 14.602C332.492 14.6082 332.634 14.6143 332.778 14.6203C333.307 14.6165 333.838 14.6129 334.364 14.6096C334.724 14.6187 334.192 14.6236 335.772 14.6211C337.066 14.6191 336.295 14.6164 336.647 14.6134C337.124 14.6094 337.542 14.6156 338.055 14.6112C338.451 14.608 338.022 14.6019 339.056 14.6027C338.64 14.6112 338.216 14.6205 337.798 14.6303C337.545 14.6288 337.295 14.6273 337.043 14.6257C337.298 14.6228 337.549 14.62 337.804 14.6173C336.906 14.6228 336.057 14.6285 335.129 14.6353C335.431 14.6206 334.472 14.6274 333.951 14.6302C333.139 14.6344 333.834 14.6227 333.302 14.6253C332.77 14.6278 332.196 14.6412 331.235 14.6405C331.75 14.6321 331.049 14.6267 331.185 14.6196C331.32 14.6124 332.338 14.6103 331.36 14.6035C329.482 14.6107 331.52 14.6352 330.251 14.6416C328.727 14.6505 328.365 14.6036 328.819 14.5934C329.176 14.5855 330.406 14.5871 330.767 14.5799C328.564 14.5653 328.545 14.5929 328.168 14.5988C326.799 14.6202 327.718 14.5641 326.097 14.5843C326.128 14.5734 326.152 14.5637 326.183 14.5533C325.903 14.555 325.717 14.5575 325.379 14.5588C326.376 14.581 325.56 14.5794 325.142 14.5794C324.482 14.5794 325.501 14.5902 325.326 14.5928C324.855 14.6002 324.11 14.5972 324.567 14.6068C324.362 14.6024 324.14 14.5978 323.929 14.5933C323.159 14.5984 321.348 14.6515 323.071 14.6389C322.911 14.6575 322.353 14.6498 321.918 14.6475C321.483 14.6453 321.491 14.6576 321.109 14.656C319.587 14.6495 320.583 14.6258 320.824 14.6092C318.815 14.6224 320.781 14.6282 317.886 14.6399C317.606 14.6552 318.944 14.6681 317.83 14.6789C317.625 14.6539 316.805 14.6366 315.206 14.629C315.051 14.6354 314.896 14.6419 314.741 14.6485C313.868 14.6242 314.314 14.596 312.698 14.63C313.566 14.5689 312.969 14.6084 311.523 14.5832C311.229 14.578 311.908 14.5654 311.498 14.5586C311.312 14.5555 310.86 14.5651 310.406 14.5572C310.185 14.5534 309.148 14.5272 308.43 14.5384C308.957 14.5707 307.593 14.5984 308.763 14.6245C306.601 14.6196 305.088 14.6356 307.51 14.5897C306.962 14.5798 306.413 14.5696 305.864 14.5591C305.481 14.567 305.096 14.575 304.71 14.5832C304.652 14.5547 304.711 14.5466 303.204 14.5507C303.858 14.5442 304.509 14.5379 305.165 14.5319C305.187 14.5262 305.279 14.5204 305.257 14.5148C304.453 14.5245 302.189 14.5268 301.64 14.5344C301.092 14.5419 302.151 14.545 301.993 14.5526C300.677 14.6162 300.782 14.5691 299.837 14.5799C299.283 14.5866 300.606 14.5939 300.31 14.5967C299.21 14.6075 298.7 14.572 297.725 14.5711C298.072 14.5919 298.415 14.6126 298.753 14.6329C297.731 14.6326 296.591 14.6331 295.64 14.6408C295.267 14.6438 295.549 14.6595 295.488 14.6606C295.186 14.6664 293.955 14.6769 293.825 14.6771C292.845 14.6787 292.817 14.6557 291.864 14.6553C292.238 14.653 292.59 14.6509 292.955 14.6487C293.122 14.6112 293.291 14.5741 293.457 14.5372C292.524 14.5337 291.59 14.5302 290.653 14.5266C291.337 14.5401 292.024 14.5532 292.709 14.5659C291.639 14.5957 290.569 14.6272 289.5 14.6601C288.943 14.6412 288.388 14.6218 287.831 14.602C286.318 14.6073 286.623 14.6904 285.905 14.6181C285.459 14.6244 285.013 14.6309 284.567 14.6374C284.631 14.6268 284.694 14.6161 284.758 14.6055C284.22 14.6122 283.683 14.6189 283.145 14.6259C283.71 14.6639 284.264 14.7029 284.824 14.7381C283.766 14.7485 283.746 14.7164 283.588 14.7086C283.17 14.6878 282.339 14.7181 282.006 14.6986C281.894 14.6917 282.931 14.6689 282.574 14.6445C282.504 14.6402 281.116 14.548 280.23 14.569C280.247 14.586 280.315 14.6069 280.351 14.6254C279.16 14.6368 278.552 14.5461 278.71 14.5206C278.076 14.5379 277.148 14.5389 277.018 14.5672C276.694 14.5679 276.372 14.5684 276.048 14.5691C276.386 14.4994 275.033 14.5107 274.945 14.5718C275.502 14.5735 276.059 14.5751 276.616 14.5767C276.195 14.65 277.888 14.6941 274.366 14.6274C273.692 14.5884 275.563 14.6323 275.014 14.6033C274.061 14.5863 273.166 14.6009 272.26 14.5729C271.132 14.5377 272.52 14.5039 269.893 14.5478C275.687 14.6612 269.098 14.6241 266.376 14.6636C265.628 14.5472 263.33 14.5054 260.165 14.5407C260.495 14.5758 261.49 14.558 262.064 14.5695C262.638 14.5809 262.017 14.6012 262.732 14.6169C263.446 14.6327 264.965 14.6531 265.688 14.6756C265.075 14.6946 262.05 14.7438 264.05 14.6872C262.557 14.6555 261.856 14.6206 260.005 14.6146C259.451 14.6694 259.492 14.7037 257.688 14.7075C258.755 14.6293 256.705 14.5762 257.157 14.4952C258.436 14.515 257.721 14.5924 258.461 14.6293C258.537 14.633 259.728 14.6133 260.005 14.6146C258.803 14.5464 258.387 14.5191 259.127 14.438C258.276 14.4439 257.747 14.4327 257.669 14.4724C257.492 14.4549 257.314 14.4373 257.139 14.4197C256.862 14.4196 256.613 14.4208 256.319 14.42C256.724 14.4815 255.94 14.4428 255.383 14.4699C254.826 14.4973 255.573 14.5463 254.044 14.5464C254.554 14.5612 255.02 14.5737 255.513 14.5873C254.527 14.603 253.537 14.6194 252.551 14.6361C253.244 14.6745 254.745 14.7291 254.704 14.7786C254.249 14.7606 252.693 14.7967 252.523 14.7986C251.863 14.8051 252.223 14.7722 252.173 14.7716C251.136 14.7577 250.283 14.7702 249.89 14.7211C249.111 14.7445 248.524 14.7325 247.698 14.7349C247.244 14.7362 247.332 14.7735 247.066 14.7668C245.298 14.7222 246.982 14.6694 243.572 14.7686C243.985 14.7949 244.392 14.8215 244.805 14.8474C244.42 14.8583 244.037 14.8694 243.652 14.8805C243.394 14.8763 243.138 14.872 242.881 14.8677C242.886 14.809 242.893 14.7501 242.898 14.6914C242.616 14.6885 242.332 14.6856 242.049 14.6826C242.534 14.6764 243.02 14.6702 243.505 14.6641C243.55 14.6538 243.591 14.6435 243.635 14.6333C242.915 14.6176 242.197 14.6016 241.476 14.5853C241.462 14.6059 241.449 14.6267 241.435 14.6474C239.811 14.6195 239.772 14.6008 238.229 14.66C237.04 14.6598 236.072 14.7507 235.385 14.7903C235.138 14.7785 234.891 14.7665 234.642 14.7546C234.484 14.773 234.324 14.7914 234.166 14.81C233.853 14.7851 233.536 14.7601 233.223 14.735C233.048 14.7933 232.958 14.8119 234.18 14.8298C233.761 14.9023 231.61 14.8762 230.734 14.853C230.07 14.8355 230.807 14.7724 230.724 14.7652C230.447 14.7401 229.352 14.7635 229.122 14.7596C228.149 14.7431 227.467 14.747 226.589 14.734C226.418 14.7314 225.94 14.6915 225.899 14.6902C225.583 14.6835 224.804 14.6642 224.715 14.6637C220.141 14.6358 225.028 14.8107 220.775 14.7977C220.902 14.8216 221.019 14.8452 221.144 14.869C220.823 14.8711 220.498 14.8732 220.177 14.8753C219.769 14.8559 220.262 14.8181 219.453 14.8494C219.506 14.8193 219.559 14.7893 219.614 14.7595C219.262 14.7761 218.923 14.7926 218.563 14.8095C217.997 14.706 215.934 14.6831 216.08 14.558C216.13 14.5153 217.593 14.4732 216.82 14.4273C216.192 14.4177 216.617 14.4688 216.361 14.4712C214.51 14.4884 214.617 14.4166 213.861 14.435C213.742 14.4658 213.616 14.4973 213.494 14.5286C213.209 14.5194 212.923 14.5101 212.635 14.5008C212.568 14.5217 212.499 14.5427 212.433 14.5637C212.701 14.5652 213.004 14.5666 213.251 14.5681C212.907 14.6486 209.748 14.6875 210.953 14.6168C211.443 14.5882 212.342 14.6005 211.774 14.5038C210.929 14.5172 209.97 14.5311 209.08 14.545C209.053 14.5239 209.027 14.5026 208.999 14.4814C207.8 14.4943 208.891 14.5801 208.888 14.6253C208.614 14.6266 208.337 14.6278 208.063 14.6292C207.947 14.6086 207.836 14.5869 207.714 14.5668C207.703 14.5997 207.55 14.6765 206.732 14.6483C206.207 14.6298 207.034 14.546 206.032 14.5575C206.107 14.6096 206.469 14.6724 205.353 14.69C205.242 14.6356 205.089 14.5856 205.003 14.5281C203.615 14.5805 202.983 14.4949 201.354 14.5565C200.32 14.5953 198.904 14.7393 198.236 14.5188C197.48 14.5127 197.72 14.5679 197.496 14.5803C196.441 14.6392 195.655 14.5335 195.458 14.527C194.204 14.4862 193.641 14.5231 192.619 14.4715C192.674 14.5138 192.704 14.5538 192.749 14.5949C193.685 14.5317 194.16 14.5352 195.473 14.5489C195.033 14.5571 194.592 14.5656 194.152 14.574C194.224 14.608 194.295 14.6419 194.364 14.6757C198.427 14.542 197.479 14.7489 194.073 14.7998C193.78 14.7372 193.475 14.6745 193.184 14.6111C191.217 14.7078 190.291 14.6251 188.066 14.6043C187.801 14.602 186.838 14.6399 186.424 14.6419C186.43 14.6422 186.437 14.6424 186.444 14.6427C186.187 14.705 186.536 14.7335 186.577 14.7889C186.353 14.7961 186.128 14.8034 185.904 14.8106C185.403 14.7688 185.579 14.7335 184.592 14.7445C184.725 14.7871 184.857 14.8295 184.99 14.8718C183.909 14.8752 183.202 14.8296 182.196 14.8513C182.365 14.8346 182.532 14.818 182.701 14.8015C180.511 14.7624 182.254 14.5053 180.599 14.6331C180.494 14.6108 180.391 14.5882 180.286 14.5658C180.968 14.5603 181.65 14.5551 182.328 14.5498C182.342 14.5185 182.357 14.4873 182.368 14.4559C181.639 14.4648 180.907 14.474 180.178 14.4831C180.71 14.4621 181.246 14.4413 181.778 14.4207C180.932 14.4048 180.087 14.3887 179.242 14.3724C180.139 14.4905 178.976 14.5038 179.195 14.6203C177.698 14.5242 176.523 14.3927 174.203 14.4746C173.743 14.4909 173.993 14.5752 172.688 14.4723C173.004 14.606 171.369 14.6694 171.579 14.7977C172.033 14.791 172.505 14.7866 172.945 14.7786C172.443 14.7351 172.36 14.613 173.122 14.5771C174.095 14.5316 175.514 14.615 175.456 14.482C175.843 14.4885 176.204 14.4924 176.581 14.4978C176.426 14.5305 176.274 14.5635 176.122 14.5963C177.194 14.5448 177.867 14.5621 178.383 14.6437C177.105 14.6629 175.831 14.6823 174.553 14.7021C174.741 14.7077 174.932 14.7133 175.12 14.7186C174.153 14.8047 175.151 14.8841 173.347 14.9055C173.358 14.8662 173.367 14.8269 173.378 14.7874C172.721 14.893 170.923 14.896 171.496 15.017C170.953 14.9807 170.842 14.957 170.535 15.0238C169.102 14.9341 168.182 14.8153 168.692 14.6728C168.16 14.6959 167.628 14.7193 167.098 14.7428C167.406 14.7817 167.714 14.8203 168.021 14.8588C167.096 14.8577 166.163 14.8566 165.241 14.8556C165.152 14.7386 167.022 14.8181 166.483 14.7146C166.375 14.6938 165.877 14.7389 165.746 14.7272C164.366 14.6002 166.532 14.6915 166.125 14.594C164.069 14.564 165.714 14.3987 162.882 14.5369C162.807 14.5026 162.727 14.4677 162.658 14.4336C161.675 14.4307 161.754 14.5084 160.909 14.5229C160.38 14.5322 159.716 14.3938 159.131 14.4875C159.027 14.505 160.01 14.6735 157.944 14.6669C156.34 14.6618 157.008 14.5408 156.141 14.4976C155.273 14.4536 153.289 14.6234 152.704 14.4295C153.159 14.4555 153.737 14.4696 154.242 14.4908C154.447 14.4534 154.646 14.4166 154.849 14.3796C153.696 14.4269 152.504 14.3684 151.728 14.4581C150.19 14.3182 148.47 14.4456 148.936 14.6045C149.442 14.5817 148.891 14.5128 149.594 14.5568C149.666 14.5936 149.742 14.6301 149.814 14.6668C148.617 14.6629 147.786 14.664 148.332 14.5512C148.146 14.5485 147.962 14.5457 147.776 14.543C147.743 14.6248 147.714 14.707 147.68 14.7889C147.459 14.7983 147.236 14.8077 147.014 14.8172C146.768 14.7994 146.521 14.7814 146.271 14.7632C146.607 14.6325 147.178 14.6288 145.288 14.5555C145.282 14.6007 145.274 14.6458 145.269 14.6911C143.686 14.6343 143.645 14.5235 141.658 14.5269C143.182 14.3684 144.016 14.65 144.01 14.3326C144.393 14.3539 144.778 14.3753 145.161 14.3964C145.219 14.3507 145.277 14.305 145.332 14.2594C143.279 14.2785 139.868 14.584 138.493 14.3782C138.327 14.4032 138.16 14.4249 137.991 14.4518C136.644 14.3257 136.063 14.6071 134.696 14.4437C134.556 14.4264 134.85 14.1607 133.072 14.1667C133.116 14.2016 133.139 14.2603 133.175 14.3044C132.79 14.2825 132.407 14.2595 132.025 14.2369C131.956 14.2692 131.883 14.3015 131.814 14.334C132.471 14.3474 133.126 14.3608 133.782 14.3739C133.237 14.3844 132.687 14.395 132.142 14.4056C132.854 14.459 133.175 14.4595 132.746 14.5439C132.128 14.5488 131.509 14.5541 130.891 14.5591C130.827 14.581 130.764 14.6031 130.7 14.6249C131 14.69 131.302 14.7534 131.601 14.8189C129.991 14.7674 128.591 14.7659 127.355 14.6364C127.145 14.6145 127.89 14.5282 126.455 14.606C126.432 14.5603 126.394 14.5231 126.369 14.4807C124.612 14.6084 124.035 14.5713 122.203 14.4761C123.389 14.5645 122.331 14.5069 122.029 14.554C121.822 14.5865 122.63 14.5817 122.538 14.6157C122.447 14.6492 121.397 14.7866 122.294 14.8023C124.495 14.5224 125.094 14.8539 127.921 14.7194C127.486 14.7548 127.048 14.7905 126.613 14.8264C126.817 14.8501 127.001 14.8716 127.222 14.8967C125.646 14.8452 126.413 14.8789 125.765 14.9223C125.116 14.9656 123.938 15.004 123.148 15.0173C122.899 15.0214 123.162 14.9585 122.6 14.9535C122.218 14.95 121.173 15.0451 120.931 14.9354C120.773 14.8634 122.452 14.6656 120.131 14.6668C119.694 14.5963 120.807 14.6181 120.831 14.6096C121.033 14.5261 119.606 14.4623 118.947 14.5264C118.893 14.532 119.414 14.5977 118.848 14.6235C117.504 14.6855 116.727 14.6104 115.857 14.5067C115.763 14.6276 114.632 14.7734 113.224 14.7293C113.152 14.7644 113.083 14.7998 113.011 14.8353C113.23 14.8165 113.449 14.798 113.667 14.7793C113.905 14.801 114.158 14.8168 114.391 14.8423C112.975 14.8737 112.775 15.0431 112.096 15.1066C109.773 15.3246 111.181 14.8706 111.6 14.7933C111.902 14.8244 112.194 14.8591 112.493 14.8915C112.46 14.8488 112.426 14.8057 112.396 14.7626C108.918 14.7662 111.866 14.4842 110.101 14.4035C109.646 14.6154 108.35 14.6376 106.698 14.5004C106.515 14.5015 106.332 14.5017 106.149 14.5029C106.118 14.5344 106.119 14.5826 106.069 14.6033C104.079 14.6407 103.725 14.3048 103.536 14.2726C102.7 14.13 102.048 14.325 101.801 14.3267C101.175 14.3302 100.817 14.2997 100.414 14.2827C100.257 14.2716 100.088 14.2202 99.9278 14.0745C99.891 14.0395 99.8527 14.0035 99.8126 13.9663C99.0322 13.2421 99.4981 13.805 99.2265 13.6188C99.0089 13.4692 98.4095 12.8815 98.1288 12.6718C98.2553 12.7402 98.392 12.8201 98.5182 12.8882C97.7784 12.0684 97.1807 11.3917 96.3058 10.4954C95.0918 9.71085 94.6068 8.49544 94.6551 9.13663C95.4733 9.99584 95.9086 10.4985 96.2827 11.0219C95.7224 10.4811 95.1618 9.9398 94.6014 9.39922C94.4732 9.20617 94.3908 9.06046 94.234 8.83726C93.8258 8.5467 93.0976 7.79403 92.6454 7.35678C92.5717 7.28562 92.495 7.23714 92.4295 7.20679C91.9337 6.99526 91.5682 7.24561 91.4279 7.43016C90.7846 8.21057 90.855 8.21178 89.4706 9.28597C90.4582 8.26288 90.5095 8.05822 91.2724 7.27463C91.3878 7.15595 91.5513 7.04888 91.7611 7.00139C91.605 6.99103 91.3652 7.08718 91.2159 7.21814C91.022 7.37549 90.9003 7.46611 91.071 7.19814C89.9837 8.32487 90.4169 8.04232 90.0527 8.53979C89.7386 8.96895 88.9939 9.72082 89.1113 9.75374C88.9935 9.78896 88.8943 9.80812 88.7767 9.8431C88.7588 9.86101 88.7409 9.87893 88.723 9.89684C88.3475 10.2916 87.6527 10.292 87.2764 9.89736C86.9474 9.5686 86.6184 9.23986 86.2893 8.91119C86.6387 9.17313 86.9878 9.43508 87.3365 9.69764C87.1221 9.45007 86.9073 9.20217 86.6929 8.95448C84.7938 7.32647 82.0073 4.03052 82.1446 4.86487C81.2828 4.02589 81.2202 3.87579 80.8243 3.34697C80.7467 3.32266 80.675 3.2953 80.5943 3.27405C80.0737 2.6976 79.552 2.37712 79.0939 1.86731C78.8745 1.62317 78.7545 1.4465 78.6637 1.33855C78.5698 1.22842 78.4903 1.20994 78.3967 1.29188C78.1228 1.0584 77.6438 1.03581 77.3006 1.30283C77.2926 1.30886 77.2847 1.3149 77.2767 1.32093C77.1254 1.54557 76.9739 1.76972 76.8246 1.99238C76.5116 2.26718 76.1979 2.54265 75.8847 2.81728C75.8053 3.05201 74.6167 4.17475 74.1601 4.73707C73.5925 5.13674 73.3394 4.85702 72.2484 6.04168C72.3442 6.0787 72.4394 6.11594 72.5351 6.15291C72.2608 6.39969 71.9858 6.64702 71.7094 6.89565C71.672 6.88957 71.6367 6.88141 71.5993 6.87532C71.7393 6.74887 71.8774 6.62416 72.0176 6.49791C71.8652 6.57678 71.7153 6.65338 71.5648 6.73016C71.2213 7.18212 70.8776 7.63489 70.5328 8.08943C71.113 7.59213 71.6931 7.09432 72.2727 6.59639C71.646 7.32182 71.1269 7.74384 70.5943 8.38701C69.9909 8.80625 70.1259 8.56364 70.2332 8.25558C70.0517 8.45411 69.8677 8.65462 69.6863 8.8532C69.711 8.62718 69.3293 8.88828 70.4492 7.78656C70.3441 7.83425 70.2388 7.88478 70.1346 7.92933C69.9567 8.11583 69.8141 8.2096 69.6251 8.42022C69.1098 8.99447 68.8694 9.58944 68.969 9.61455C69.0217 9.62705 69.4966 9.02761 69.521 9.09517C69.5799 9.26033 68.2985 10.4433 70.1869 8.77735C69.691 9.41079 69.5 9.50953 68.8961 10.0699C68.8623 10.1018 68.8259 10.1328 68.7864 10.1627C68.842 10.1546 68.8976 10.1428 68.9532 10.127C68.9938 10.1213 69.0341 10.1158 69.0744 10.1104C69.0501 10.1321 69.0259 10.1538 69.0016 10.1754C68.5928 10.5623 67.959 10.652 67.4773 10.419C67.7925 10.4155 67.4081 10.2528 67.2218 9.95205C66.9758 9.56408 66.6926 9.16027 67.4338 9.73996C67.5452 9.82211 67.7067 9.90187 67.913 9.90342C67.7503 9.88095 67.5997 9.80336 67.4878 9.68598C67.061 9.24552 66.635 8.80573 66.2093 8.36566C66.3507 8.46723 66.4919 8.56908 66.6332 8.67072C66.8887 8.94809 67.1429 9.22365 67.3988 9.50072C67.1221 9.15055 66.8448 8.79988 66.5684 8.44939C65.7836 7.75278 65.4237 7.53202 64.9984 7.27928C65.7968 8.20491 65.6015 7.83694 66.2896 8.4922C66.2116 8.5232 66.1925 8.60432 66.0766 8.60284C65.9098 8.27521 65.2462 7.64779 64.781 7.22123C64.5726 7.02755 64.3416 6.96829 64.2306 6.94701C63.9286 6.89334 63.7594 6.94951 63.6657 6.96338C63.5714 6.98273 63.5456 6.97863 63.5304 6.9644C63.5081 6.94997 63.4913 6.83962 63.1393 7.14004C63.1391 7.1403 63.1388 7.14055 63.1386 7.1408C62.601 7.67287 62.0372 8.37031 61.488 8.69482C61.5587 8.74979 61.6586 8.77982 61.7471 8.80563C60.9349 9.65907 61.0267 9.41855 60.9308 9.4951C60.8136 9.588 60.7018 9.67891 60.5945 9.76832C60.2071 10.0751 59.7185 9.99148 59.4513 9.72252C58.7746 9.05423 58.0702 8.45679 57.1039 7.50984C57.2838 7.72961 57.4678 7.94946 57.6509 8.16989C56.3281 7.11854 57.1691 7.87689 58.1556 8.95176C57.5153 8.29377 57.0032 7.88037 56.5183 7.48395C56.3375 7.34676 56.1178 7.30748 55.9132 7.35061C55.7874 7.37698 55.6541 7.4389 55.546 7.54822C54.8861 8.21105 54.0272 8.98004 53.6487 9.28384C54.1848 8.65689 54.7927 8.04738 55.4211 7.42328C55.7184 7.11362 56.2699 7.10726 56.5802 7.42207C56.6445 7.48478 56.7091 7.54741 56.7741 7.6099C56.7439 7.512 56.7119 7.41771 56.6804 7.32181C56.6533 7.23505 56.6127 7.14665 56.5557 7.05629C55.9368 6.85744 55.5264 7.09706 55.288 7.29024C55.1381 7.41698 55.0125 7.50677 54.922 7.58315C54.2294 8.16787 54.3683 8.26667 53.8543 8.52459C53.914 8.55295 53.9625 8.57849 54.0193 8.60394C53.5851 9.02622 53.1337 9.45311 52.6982 9.87202C52.3063 10.262 51.6466 10.2158 51.3069 9.86693C50.8426 9.42003 50.4048 9.03687 50.0134 8.77205C50.0425 8.58629 50.0869 8.4236 50.1065 8.22366C49.4677 7.74573 49.0729 7.18412 48.5842 6.73237C48.0972 6.28269 48.1878 6.54866 47.6036 6.03168C47.4955 5.93599 47.3384 5.66866 47.0471 5.45833C46.7535 5.2454 45.5141 4.61667 45.6689 4.23844C45.3447 3.91249 45.0366 3.59449 44.7266 3.2756C44.5828 3.12702 44.3916 3.02236 44.1841 2.98341C44.3915 3.0133 44.5911 3.10944 44.7462 3.256C45.0639 3.55347 45.3812 3.85081 45.6977 4.14697C45.4419 3.78727 45.1876 3.42902 44.9327 3.06958C44.8457 2.95661 44.7377 2.85491 44.6129 2.77226C44.4909 2.80285 44.3796 2.8519 44.2867 2.9112C43.8762 2.82956 43.48 2.9736 43.2286 3.23085C42.538 3.92904 41.8715 4.49662 41.1068 5.29453C40.9362 5.4727 41.4637 5.17729 40.6603 5.92149C39.8569 6.66609 39.0639 7.02184 37.8287 8.42385C37.7663 8.49471 37.544 9.05341 36.955 9.40888C36.821 9.4898 37.2345 8.99867 36.9529 9.21044C36.8596 9.28057 36.6733 9.44487 36.4596 9.63343C36.3152 9.75835 36.0991 9.8011 35.9469 9.75763C35.7924 9.71709 35.7184 9.62149 35.7253 9.57998C35.7075 9.61888 35.73 9.68363 35.7397 9.73416C35.6712 9.71181 35.6052 9.67669 35.5451 9.62871C35.4308 9.53002 35.3162 9.43095 35.2017 9.33179C35.2361 9.26214 35.2692 9.191 35.3033 9.12159C34.403 8.40015 33.752 8.01694 32.835 7.16721C32.4898 6.82902 31.8177 6.66403 31.2578 7.07353C31.7688 6.76335 32.4106 6.94528 32.6651 7.33713C32.7532 7.46127 32.8413 7.58529 32.9293 7.70916C33.1063 7.77909 33.2838 7.84896 33.4586 7.91709C34.0726 8.56786 34.6883 9.21988 35.303 9.87078C35.4048 9.97885 35.5317 10.0642 35.6722 10.1173C35.8624 10.093 36.0212 10.0119 36.132 9.90583C36.2825 9.88743 36.427 9.82204 36.5432 9.71697C36.5973 9.66703 36.6515 9.61704 36.7058 9.56693C36.7001 9.65924 36.6939 9.75176 36.6863 9.84608C37.0636 9.44758 37.4412 9.04841 37.8166 8.65196C37.5921 9.09179 37.1618 9.54831 36.7631 9.93693C36.4644 10.2331 36.0524 10.2658 35.8057 10.2202C35.5524 10.1771 35.4146 10.1008 35.409 10.2047C35.3262 10.1378 35.2548 10.061 35.1958 9.978C35.1053 9.84457 35.0149 9.71101 34.9246 9.57752C34.7437 9.60556 34.4191 9.22128 33.8106 8.58014C33.902 8.77484 34.0091 8.98366 34.0884 9.16697C33.7192 8.69812 33.0883 8.04362 32.5351 7.46714C32.3468 7.26468 32.0674 7.20097 31.8542 7.23207C31.5501 7.29981 31.8198 7.10629 31.7242 7.12174C31.5985 7.1441 31.453 7.21943 31.3401 7.34233C30.9363 7.7756 30.508 8.35962 30.3703 8.48114C29.7583 9.02139 29.1983 9.3829 28.6567 9.83047C28.3127 10.1079 27.7891 10.1815 27.3286 9.84516C27.2845 9.81124 27.2393 9.77731 27.193 9.74336C27.2333 9.78684 27.2714 9.82784 27.3073 9.86651C27.5435 10.1129 27.7712 10.1531 27.8935 10.1767C28.0214 10.196 28.0709 10.1929 28.0937 10.201C28.1418 10.207 28.0738 10.2735 28.3902 10.2459C28.4454 10.2395 28.6608 10.1676 28.8353 10.0091C29.1646 9.72499 29.5194 9.41428 28.8765 10.0503C28.7108 10.2153 28.419 10.4054 28.0063 10.4048C27.9302 10.4044 27.4977 10.3911 27.1571 10.0167C26.2484 8.99784 24.6105 7.09827 25.5566 7.83351C25.2861 7.6035 25.0394 7.40027 24.7984 7.20379C24.4879 6.94289 24.0637 6.88069 23.7079 7.02438C23.5011 7.02453 23.3167 7.09444 23.1804 7.18265C22.2252 7.75389 22.8784 7.67973 23.3567 7.53596C23.1598 7.73481 22.9735 7.92513 22.7698 8.12905C23.0043 7.49733 20.7847 9.69042 20.1376 10.5405C19.9206 10.8251 20.6858 10.1877 20.1366 10.7984C19.8465 11.0607 19.5151 11.356 19.2076 11.6321C19.758 11.3361 18.9773 12.2166 19.119 12.3351C18.4732 12.7513 17.8207 12.9111 17.9791 12.4859C17.5942 12.9786 17.2071 13.4739 16.823 13.9675C17.0578 13.7947 17.2949 13.6189 17.5295 13.446C17.177 13.7608 16.8168 14.1122 16.4645 14.4667C16.2332 14.701 15.9077 14.8358 15.5858 14.8375C14.2383 14.8537 13.0583 14.8759 12.7851 14.6223C12.5163 14.6252 12.2446 14.6276 11.9758 14.6305C11.8927 14.6971 11.8123 14.7638 11.7292 14.8305C10.5129 14.7735 9.29934 14.7156 8.08304 14.6574C9.16605 14.6154 9.42385 14.5203 10.5596 14.5976C10.1219 14.5207 9.6761 14.4432 9.24674 14.3658C7.5369 14.5726 7.30365 14.7109 4.72928 14.6489C4.61288 14.6463 2.66775 14.4694 2.60124 14.4518C2.29653 14.3727 2.75907 14.2583 2.62339 14.2183C2.2465 14.1066 -0.0437051 13.8208 0.00063531 13.7779C0.56044 13.2543 8.26589 13.2764 10.3499 13.2573C12.0982 13.2415 13.8433 13.2302 15.5858 13.2226C15.4899 13.2211 15.3939 13.2595 15.3251 13.3273C17.6557 10.9793 19.9888 8.64713 22.3233 6.32554C23.1985 5.41164 24.8032 5.41532 25.6732 6.32907C26.5326 7.19463 27.3906 8.06036 28.2476 8.92622C28.1144 8.7932 27.8837 8.79859 27.7585 8.93228C28.6257 8.0749 29.4931 7.21849 30.3606 6.36282C31.2179 5.47091 32.7847 5.47806 33.6316 6.37062C34.4876 7.23901 35.3429 8.10746 36.1979 8.97594C36.0895 8.87107 35.9078 8.87884 35.811 8.98475C38.024 6.80686 40.2372 4.63071 42.4502 2.45245C43.261 1.61007 44.7415 1.61755 45.5411 2.46112C47.7176 4.67145 49.8969 6.88154 52.0824 9.09135C52.0354 9.04863 51.9629 9.05374 51.9234 9.09719C52.7891 8.24011 53.6547 7.38196 54.5203 6.52256C55.2924 5.71705 56.7081 5.71972 57.476 6.5262C58.3347 7.38997 59.1948 8.25372 60.0563 9.11746C60.0508 9.11196 60.0395 9.1042 60.0287 9.10024C60.0119 9.09452 60.034 9.03615 60.022 9.03133C59.9749 9.01352 59.9247 9.07277 59.9336 9.10744C60.0807 8.98817 60.2006 8.89391 60.2655 8.83184C60.5989 8.51221 60.3554 8.62828 60.5948 8.39052C61.2373 7.75306 61.8728 7.12737 62.5048 6.50706C63.2912 5.69234 64.7179 5.70706 65.4841 6.51814C66.3358 7.38764 67.1844 8.25424 68.0466 9.12718C68.0182 9.10459 67.9809 9.10843 67.958 9.1318C68.1424 8.94806 68.3273 8.76342 68.5128 8.57772C68.6734 8.41691 68.5575 8.62917 68.832 8.33932C68.9734 8.18939 69.3564 7.66038 69.6853 7.33177C70.8341 6.18398 71.8258 5.24668 73.0401 4.03892C73.7042 3.37834 74.7076 2.39448 75.4497 1.6555C75.7775 1.32912 76.0865 0.956578 76.4097 0.633568C76.451 0.592366 76.4883 0.556159 76.5221 0.524338C76.8819 0.190987 77.0949 0.15808 77.181 0.136001C77.2736 0.120621 77.2757 0.142292 77.3622 0.114937C77.7825 -0.0044025 78.0335 -0.00410083 78.2792 0.0022151C78.5219 0.0189367 78.7827 0.0489875 79.1456 0.285068C79.2686 0.368159 79.3709 0.457015 79.4569 0.545325C79.8635 0.975034 79.9062 1.09753 80.5371 1.72528C81.0342 2.21969 82.2029 3.32037 82.8367 3.93676C84.2377 5.45946 86.0956 7.28566 87.4723 8.63666C87.7033 8.86332 87.8696 9.03702 87.9967 9.17708C87.9805 9.19596 87.984 9.25212 88.0141 9.24891C88.031 9.24604 88.0406 9.2394 88.0513 9.22508C88.9566 8.29324 89.6668 7.47125 90.5648 6.56703C90.6392 6.49231 90.7205 6.42251 90.8078 6.35918C91.6082 5.76281 92.7807 5.89472 93.4258 6.57642C94.4661 7.65166 95.4314 8.68784 96.4953 9.76502C96.7211 9.99356 96.7264 9.88391 96.9499 10.1062C97.7771 10.9289 98.8382 11.9777 99.5621 12.7235C99.9128 13.0846 100.153 13.3615 100.378 13.6238C100.374 13.6463 100.386 13.6764 100.414 13.687C100.626 13.6949 100.859 13.6981 101.134 13.6934C101.466 13.6877 101.563 13.5876 102.12 13.577C103.01 13.5604 103.985 13.6521 104.606 13.664C105.456 13.6801 104.717 13.5765 105.864 13.5945C105.911 13.5953 106.083 13.6677 106.329 13.6652C107.047 13.6581 106.976 13.6016 108.026 13.611C108.127 13.6123 109.519 13.6852 109.658 13.6859C110.472 13.6899 112.113 13.7192 112.595 13.7067C114.319 13.6626 112.962 13.5535 114.428 13.7855C115.073 13.7322 115.713 13.6785 116.398 13.6278C115.941 13.676 117.794 13.7546 117.925 13.7503C119.002 13.7168 118.36 13.6279 119.726 13.6476C117.922 13.8404 121.489 13.6795 122.284 13.6781C126.114 13.6688 129.595 13.7306 133.444 13.7435C134.733 13.7478 136.46 13.7151 137.823 13.7215C138.141 13.7228 137.9 13.7654 138.18 13.7674C138.459 13.7691 138.15 13.7191 138.468 13.723C140.449 13.7481 142.002 13.8435 143.817 13.7381C143.905 13.7547 143.903 13.7675 144.049 13.7858C145.534 13.6915 148.395 13.8368 149.47 13.858C151.152 13.8917 151.581 13.8276 152.803 13.8453C154.419 13.8691 156.845 14.0023 155.761 13.7917C156.87 13.7896 157.936 13.7922 159.056 13.8155C159.181 13.8181 159.095 13.8695 159.145 13.8708C159.46 13.8793 159.563 13.8335 159.777 13.8322C160.355 13.8287 159.411 13.8804 160.236 13.868C160.671 13.8613 160.918 13.8222 162.126 13.8261C169.409 13.8502 177.316 13.8947 184.781 13.9288C185.294 13.9312 184.957 13.8863 185.6 13.8917C187.833 13.9109 191.831 13.9968 193.757 13.9939C195.683 13.9913 195.249 13.9299 196.454 13.91C196.687 13.9061 196.496 13.9392 196.706 13.9405C198.122 13.9495 199.811 14.008 200.958 14.0197C201.717 14.0276 201.656 13.9758 202.182 13.9742C202.967 13.9721 203.774 14.0267 204.192 14.0298C206.159 14.0439 207.512 14.0085 209.349 14.0359C209.277 14.0249 209.23 14.0147 209.169 14.0038C211.344 14.0141 213.517 14.0243 215.692 14.0344C215.589 14.0246 215.49 14.0147 215.388 14.0047C217.94 14.0204 217.649 14.12 217.424 13.9058C217.61 13.8992 217.806 13.8915 217.984 13.8855C217.912 13.9949 219.456 14.0811 221.42 14.1148C221.564 14.1171 222.531 14.0173 222.426 14.139C222.678 14.11 222.828 14.09 223.042 14.0647C223.457 14.1031 223.878 14.1408 224.294 14.1784C224.518 14.1736 224.746 14.1691 224.97 14.1644C225.004 14.141 224.978 14.1166 225.05 14.0938C226.092 14.0943 228.229 14.1306 229.052 14.1305C231.097 14.1299 233.18 14.0789 234.77 14.1485C235.545 14.1448 234.776 14.0994 235.928 14.1093C236.058 14.1312 236.181 14.1521 236.316 14.1746C237.258 14.0827 237.455 14.1419 238.746 14.1658C239.619 14.182 240.19 14.1614 241.021 14.1688C241.232 14.1707 241.202 14.1974 241.346 14.1971C241.829 14.1958 243.206 14.1641 243.547 14.1645C246.634 14.1664 249.286 14.1808 252.226 14.2005C252.542 14.2026 252.132 14.1771 252.459 14.1793C252.985 14.183 252.676 14.2185 252.98 14.2213C253.831 14.2291 253.837 14.1907 255.023 14.1933C258.927 14.2023 263.417 14.2463 267.496 14.2627C267.623 14.2631 267.616 14.2436 267.754 14.244C268.657 14.2466 269.572 14.2758 270.392 14.2783C271.752 14.2826 272.775 14.2605 274.119 14.2658C276.746 14.2762 279.093 14.2974 281.795 14.3079C284.007 14.3165 285.927 14.3215 288.352 14.3306C298.944 14.3665 309.752 14.3773 320.416 14.4372C320.687 14.4387 320.577 14.4453 320.66 14.4453C321.447 14.4452 321.517 14.4364 321.797 14.4569C322.799 14.4566 323.116 14.4438 324.327 14.4498C324.972 14.453 324.49 14.4718 325.582 14.4653C326.568 14.4596 325.48 14.4448 328.411 14.4676C328.489 14.4683 328.871 14.4809 329.48 14.4803C330.093 14.4799 329.384 14.4692 330.858 14.4732C334.319 14.4833 338.701 14.5093 342.724 14.5239C342.976 14.5248 345.405 14.5323 345.885 14.5335C346.812 14.5355 346.618 14.5314 347.824 14.5368C348.755 14.541 349.523 14.5477 350.618 14.5523C350.745 14.5529 350.959 14.5516 351.781 14.5561ZM147.779 14.8598C147.552 14.9281 147.142 15.1807 145.768 15.1075C145.638 15.1004 146.341 14.9251 145.582 14.8986C146.324 14.8791 147.048 14.8722 147.779 14.8596C147.779 14.8597 147.779 14.8597 147.779 14.8598ZM357.737 14.5887C356.709 14.5912 355.677 14.5936 354.649 14.5957C355.359 14.5936 356.069 14.5918 356.776 14.5903C357.097 14.59 357.416 14.5894 357.737 14.5887ZM229.751 14.8339C229.752 14.8339 229.753 14.8339 229.754 14.8339C228.673 14.8557 227.591 14.8781 226.511 14.9009C226.624 14.8857 226.738 14.8705 226.852 14.8554C227.705 14.8303 228.559 14.8056 229.41 14.7814C229.523 14.7989 229.637 14.8164 229.751 14.8339ZM238.289 14.6739C238.98 14.6895 238.811 14.7167 239.19 14.7425C239.19 14.7425 239.19 14.7424 239.19 14.7424C239.291 14.7491 239.757 14.7544 239.938 14.7552C239.871 14.7385 239.785 14.722 239.713 14.7054C241.323 14.6648 244.472 14.7996 240.395 14.8661C240.456 14.8448 240.515 14.8237 240.576 14.8025C238.55 14.8127 236.291 14.7684 238.289 14.6739ZM131.49 14.998C129.761 15.1345 129.207 15.1658 127.109 15.0773C127.405 15.0382 127.701 14.9992 127.998 14.9604C128.344 14.9989 128.688 15.037 129.034 15.0752C129.035 15.0752 129.036 15.0752 129.037 15.0752C129.107 15.0342 129.176 14.9931 129.243 14.9522C129.991 14.9676 130.742 14.9829 131.49 14.998ZM304.485 14.6491C304.966 14.7112 304.827 14.6747 303.451 14.6916C302.974 14.6976 303.439 14.7079 303.142 14.7104C301.541 14.7246 301.413 14.6802 301.77 14.6567C302.676 14.654 303.592 14.6515 304.482 14.6491C304.483 14.6491 304.484 14.6491 304.485 14.6491ZM346.031 14.5988C346.032 14.5988 346.033 14.5988 346.034 14.5988C346.075 14.6021 345.43 14.604 346.158 14.6062C345.604 14.607 345.05 14.6078 344.493 14.6087C344.657 14.6081 344.823 14.6075 344.987 14.6069C344.843 14.6058 344.698 14.6047 344.554 14.6035C344.357 14.6082 344.174 14.6059 343.593 14.605C343.753 14.6099 343.913 14.6146 344.074 14.6192C343.398 14.6192 342.719 14.6191 342.043 14.6187C342.035 14.6173 342.027 14.6159 342.018 14.6145C341.763 14.6167 341.511 14.6191 341.256 14.6215C341.187 14.6198 341.12 14.6182 341.051 14.6165C340.744 14.6184 340.436 14.6203 340.128 14.6224C340.034 14.6179 340.712 14.6149 339.511 14.618C339.879 14.6125 340.247 14.6074 340.618 14.6025C342.422 14.6013 344.227 14.6001 346.031 14.5988ZM291.96 14.6873C293.947 14.6812 293.387 14.6938 292.927 14.7326C292.606 14.7177 292.281 14.7026 291.96 14.6873ZM189.593 14.754C189.016 14.8214 188.437 14.8888 187.847 14.9552C186.672 14.9959 185.497 14.8738 186.381 14.8237C187.445 14.7642 188.556 14.8274 189.593 14.754ZM162.831 14.8149C164.268 14.849 162.916 14.9423 162.591 14.9969C162.194 14.9114 161.639 14.9198 160.748 14.9112C161.585 14.904 162.593 14.809 162.831 14.8146C162.831 14.8147 162.831 14.8148 162.831 14.8149ZM212.728 14.796C213.304 14.7934 213.877 14.7767 214.392 14.7953C214.237 14.85 213.206 14.8022 213.943 14.8819C213.575 14.8841 213.206 14.8862 212.84 14.8885C213.073 14.8542 212.76 14.8296 212.729 14.7962C212.729 14.7961 212.728 14.7961 212.728 14.796ZM272.709 14.7544C271.578 14.7182 271.364 14.7344 270.225 14.764C270.064 14.732 271.422 14.6765 272.273 14.6645C272.417 14.6946 272.562 14.7246 272.709 14.7544ZM30.0863 9.38135C30.1419 9.15362 30.9183 8.31384 31.6176 7.61986C31.754 7.48242 31.9496 7.45325 32.081 7.4888C32.0162 7.50325 31.9578 7.53037 31.9108 7.56514C31.8259 7.58696 31.7522 7.63213 31.6942 7.69647C31.1583 8.2579 30.6214 8.82046 30.0863 9.38135ZM160.324 14.9057C160.474 14.9081 160.615 14.9099 160.748 14.9112C160.6 14.9125 160.457 14.9111 160.324 14.9057ZM100.16 14.4437C100.514 14.4267 99.7272 14.2002 100.414 14.3616C100.538 14.3647 100.697 14.369 100.9 14.3744C100.9 14.3743 100.9 14.3742 100.9 14.3741C102.031 14.4041 102.281 14.4119 103.328 14.4214C102.951 14.5646 100.826 14.6171 103.755 14.6461C103.794 14.6462 103.717 14.5608 104.185 14.5726C104.329 14.5762 104.792 14.6461 105.495 14.6661C105.722 14.6726 107.43 14.6932 105.102 14.6956C105.171 14.795 105.046 14.8959 105.052 14.9924C104.143 15.0222 103.445 14.8273 102.484 14.8328C101.47 14.8391 100.81 14.9425 100.414 14.9079C100.2 14.893 100.057 14.8082 99.9959 14.7044C100.124 14.7458 100.266 14.7685 100.414 14.7634C101.627 14.7155 103.342 14.7273 103.585 14.8685C104.746 14.869 105.08 14.7416 104.143 14.6787C100.539 14.7527 102.524 14.5396 100.414 14.5704C100.205 14.5738 99.9363 14.5102 99.707 14.2952C99.6838 14.2733 99.6602 14.251 99.6361 14.2284C99.5807 14.225 99.4506 14.1509 99.4418 14.1909C98.9931 13.6193 99.3952 13.9476 99.7508 14.2514C99.9138 14.3928 100.11 14.4439 100.16 14.4437ZM108.51 14.7555C107.817 14.8309 107.127 14.9076 106.437 14.9845C106.437 14.8613 106.817 14.7502 107.909 14.6808C108.109 14.7059 108.311 14.7308 108.51 14.7555ZM63.4342 7.50198C63.4216 7.63053 63.2869 7.87192 63.2052 8.06456C63.0787 8.12877 61.57 9.58034 60.9581 10.1319C60.7665 10.3073 60.6046 10.362 60.5862 10.3622C60.5613 10.3563 60.6925 10.3157 60.915 10.0888C60.9846 10.0132 61.0726 9.91894 61.1813 9.80403C61.4348 9.53636 63.1255 8.04765 63.4342 7.50198ZM280.559 14.708C279.972 14.6951 279.387 14.6818 278.802 14.6683C279.702 14.6584 280.603 14.6486 281.503 14.6392C281.188 14.6618 280.875 14.6848 280.559 14.708ZM180.029 14.6803C180.277 14.6819 179.453 14.7477 180.431 14.7367C179.702 14.7789 179.019 14.8151 178.307 14.8557C178.094 14.8249 177.878 14.7941 177.665 14.7631C177.499 14.7833 177.329 14.8034 177.163 14.8238C177.262 14.778 177.351 14.7334 177.457 14.687C178.656 14.7837 178.932 14.673 180.029 14.6803ZM215.71 14.5214C215.925 14.5992 214.188 14.6465 215.897 14.6582C215.573 14.7096 215.051 14.7371 214.051 14.7428C213.891 14.7232 213.73 14.7036 213.57 14.6838C213.548 14.7371 213.29 14.757 212.728 14.796C212.727 14.7959 212.727 14.7959 212.726 14.7958C211.206 14.8019 211.296 14.7839 210.931 14.6951C212.541 14.744 212.589 14.6627 213.686 14.615C214.44 14.5823 215.424 14.5969 215.71 14.5214ZM67.1596 10.0856C67.1458 10.0752 67.1325 10.0648 67.1195 10.0543C66.2623 9.39377 66.8613 10.1701 65.553 8.65647C65.6706 8.72313 65.7883 8.79045 65.9058 8.85718C66.3117 9.25482 66.7174 9.65277 67.1229 10.0509C67.135 10.0628 67.1472 10.0743 67.1596 10.0856ZM221.329 14.7809C221.198 14.6654 220.126 14.5742 219.943 14.7651C220.988 14.8024 220.478 14.6958 221.329 14.7809ZM163.321 14.5555C165.33 14.5639 164.95 14.7479 164.124 14.842C163.997 14.8084 163.869 14.7746 163.745 14.7411C163.393 14.7567 163.041 14.7725 162.689 14.7881C162.899 14.7104 163.11 14.6327 163.321 14.5555ZM256.746 14.6365C255.211 14.6992 258.404 14.6692 257.331 14.7083C256.475 14.7401 255.346 14.6791 255.773 14.6395C256.07 14.6382 256.4 14.6373 256.743 14.6365C256.744 14.6365 256.745 14.6365 256.746 14.6365ZM247.862 14.6599C248.114 14.731 247.751 14.7104 248.964 14.6965C249.31 14.6926 252.063 14.7159 250.907 14.6596C249.923 14.6602 248.884 14.6599 247.862 14.6599ZM140.099 14.7582C140.08 14.6963 142.2 14.5617 142.472 14.5954C142.472 14.5953 142.472 14.5952 142.472 14.5951C143.206 14.6858 140.97 14.7 141.94 14.8246C139.792 14.7159 139.15 14.9858 139.3 14.6303C140.565 14.6145 139.966 14.6876 140.099 14.7582ZM8.09928 14.753C8.0983 14.753 8.09731 14.753 8.09633 14.753C8.23867 14.7581 9.41151 14.914 9.26889 14.9682C7.85848 14.9232 8.10983 14.8191 6.79677 14.9906C6.72478 14.9358 6.66311 14.8826 6.58559 14.8274C7.10659 14.7945 7.39538 14.7286 8.09928 14.753ZM59.0919 9.78227C59.1396 9.82583 59.1906 9.87538 59.2443 9.92954C59.552 10.3084 60.3938 10.4159 60.8029 9.97667C60.8727 9.91049 60.9381 9.84682 60.9969 9.78679C60.9458 9.86269 60.8929 9.93805 60.8388 10.0126C60.4407 10.5802 59.4811 10.5595 59.0768 10.097C58.328 9.34842 58.0773 8.85429 59.0919 9.78227ZM326.599 14.6175C326.598 14.6175 326.596 14.6175 326.595 14.6175C326.595 14.6175 326.596 14.6175 326.596 14.6175C326.597 14.6175 326.598 14.6175 326.599 14.6175ZM89.2369 9.71226C89.175 9.74485 89.1355 9.75879 89.1147 9.75715C89.1137 9.75609 89.1126 9.75504 89.1116 9.75398C89.1509 9.74222 89.192 9.72893 89.2369 9.71226ZM135.693 14.7805C134.81 14.6932 137.752 14.5539 138.703 14.5872C138.636 14.6266 138.626 14.6623 138.471 14.7077C137.703 14.6055 135.84 14.7947 135.693 14.7805ZM202.754 14.7001C200.429 14.6994 203.455 14.4573 203.579 14.6493C203.575 14.653 202.814 14.6996 202.754 14.7001ZM154.029 14.7315C154.621 14.6353 153.431 14.6102 155.334 14.6264C155.445 14.6511 155.556 14.6758 155.667 14.7003C155.121 14.7106 154.575 14.7211 154.029 14.7315ZM187.522 14.3634C184.596 14.4034 181.797 14.4844 183.703 14.7106C183.925 14.7032 184.149 14.696 184.371 14.6887C184.404 14.5788 185.221 14.6387 186.418 14.6417C186.588 14.5986 187.252 14.5886 187.376 14.5522C187.617 14.482 186.855 14.4317 187.522 14.3634ZM311.068 14.5745C311.021 14.5796 310.975 14.5847 310.928 14.5897C310.465 14.5954 310.001 14.6013 309.538 14.6074C309.613 14.5974 309.688 14.5873 309.763 14.5773C310.197 14.5764 310.63 14.5754 311.065 14.5745C311.066 14.5745 311.067 14.5745 311.068 14.5745ZM111.362 14.4243C111.096 14.7178 112.025 14.6624 113.909 14.516C113.061 14.4858 112.21 14.4552 111.362 14.4243ZM234.546 14.4848C234.607 14.5266 234.667 14.5681 234.73 14.6097C235.731 14.5662 235.545 14.5194 235.066 14.4639C234.891 14.4708 234.72 14.4778 234.546 14.4848ZM248.956 14.4812C248.541 14.4731 248.753 14.5031 248.71 14.5024C247.659 14.486 247.511 14.4717 246.223 14.4934C246.065 14.5013 245.91 14.5096 245.752 14.5178C246.347 14.5974 246.78 14.5545 248.041 14.6004C247.813 14.5737 247.587 14.5469 247.36 14.5197C248.061 14.5258 248.759 14.5318 249.46 14.5377C249.543 14.5296 249.626 14.5216 249.709 14.5135C249.46 14.5029 249.203 14.491 248.956 14.4812ZM316.42 14.5888C317.102 14.59 317.786 14.5911 318.468 14.5921C318.493 14.5852 318.517 14.5783 318.542 14.5714C317.835 14.5769 317.126 14.5827 316.42 14.5888ZM98.1288 12.6718C98.0792 12.645 98.0305 12.6192 97.9857 12.5978C98.0032 12.5868 98.056 12.6174 98.1288 12.6718ZM6.30057 14.3897C5.52752 14.3429 4.41353 14.3727 3.56558 14.3624C3.63224 14.5302 5.78744 14.4845 6.54424 14.5855C6.66585 14.5556 6.62734 14.4095 6.30057 14.3897ZM166.1 14.5634C166.294 14.5215 166.488 14.48 166.679 14.4385C167.147 14.4433 167.617 14.4484 168.088 14.4532C168.102 14.4193 168.115 14.3851 168.129 14.3512C166.054 14.3929 166.532 14.2954 165.505 14.1957C165.704 14.3186 165.901 14.4411 166.1 14.5634ZM338.111 14.5659C336.612 14.5665 336.08 14.5715 336.925 14.5831C337.454 14.5807 337.986 14.5784 338.515 14.5763C338.38 14.5729 338.244 14.5694 338.111 14.5659ZM78.0663 0.852764C77.642 0.851407 77.3685 1.0244 77.1838 1.18599C76.7881 1.53434 76.5444 1.66361 75.9881 2.33586C76.4026 1.96772 76.8172 1.5997 77.2303 1.23255C77.3138 1.15764 77.408 1.09623 77.5086 1.05109C77.6639 0.939703 77.8616 0.867449 78.0663 0.852764ZM131.592 14.022C131.063 13.9634 130.074 14.2325 128.586 14.0285C128.231 14.0877 128.009 14.1448 127.704 14.2034C127.527 14.1388 127.325 14.0732 127.156 14.0088C127.155 14.0088 127.154 14.0088 127.153 14.0088C125.803 14.0272 126.679 14.1105 126.648 14.1788C126.634 14.2072 125.632 14.1579 125.945 14.2205C126.485 14.3277 128.505 14.2693 128.51 14.3976C127.801 14.355 126.415 14.3889 126.825 14.4755C127.274 14.5701 128.58 14.4128 129.411 14.4912C128.22 14.2856 130.68 14.3517 130.96 14.5075C132.404 14.3887 131.077 14.3393 129.597 14.3431C130.501 14.2241 129.171 14.2874 128.952 14.1868C129.883 14.128 133.08 14.1846 131.592 14.022ZM199.71 14.3457C198.712 14.3498 197.153 14.2987 196.47 14.3694C196.072 14.4108 197.635 14.4444 196.557 14.5092C197.529 14.5032 197.751 14.478 197.585 14.4207C197.807 14.4141 198.031 14.4077 198.253 14.4013C198.355 14.4125 198.46 14.4236 198.563 14.4347C198.679 14.4115 198.796 14.3885 198.91 14.3653C199.145 14.3703 199.383 14.3752 199.619 14.3802C199.646 14.3686 199.693 14.3585 199.71 14.3457ZM51.015 9.37232C51.1472 9.50327 51.2785 9.63338 51.4101 9.7637C51.4642 9.81717 51.525 9.86288 51.5912 9.89966C51.5828 9.86276 51.574 9.82267 51.5694 9.78406C51.5672 9.7546 51.567 9.72565 51.5683 9.69719C51.5787 9.74325 51.6805 9.88208 51.8945 9.94352C52.1033 10.0101 52.4097 9.95007 52.5913 9.76513C52.7464 9.61419 52.8815 9.46861 52.9687 9.34948C53.136 9.12138 52.5769 9.46194 53.397 8.60612C53.0625 8.94592 52.7447 9.27481 52.4287 9.60254C52.278 9.76623 52.0305 9.83662 51.8067 9.76877C51.8652 9.73947 51.9141 9.70136 51.9549 9.65918C51.9546 9.65909 51.9544 9.659 51.9541 9.65891C51.8422 9.63949 51.7445 9.58193 51.6748 9.499C51.6425 9.46401 51.6102 9.42906 51.5779 9.3942C51.3898 9.38633 51.2034 9.37996 51.015 9.37232ZM233.734 14.4011C232.789 14.4344 232.472 14.4526 232.918 14.5094C232.919 14.5094 232.92 14.5095 232.921 14.5095C233.273 14.4847 233.625 14.4601 233.977 14.4358C233.897 14.4243 233.817 14.4127 233.734 14.4011ZM92.3972 6.62503C92.0154 6.58498 91.821 6.69105 91.7459 6.73829C91.6708 6.79286 91.7037 6.80997 91.7983 6.81011C91.9798 6.80445 92.4794 6.80811 92.8453 7.15688C93.3994 7.65827 94.047 8.16214 93.8094 7.81865C93.7945 7.79697 93.3306 7.35239 92.9941 7.00815C92.7567 6.76342 92.4771 6.66487 92.3972 6.62503ZM162.952 14.4526C163.503 14.4503 164.056 14.4483 164.61 14.446C164.483 14.4052 164.352 14.3644 164.225 14.3234C163.801 14.3661 163.376 14.4093 162.952 14.4526ZM331.583 14.538C331.003 14.5247 329.513 14.5155 328.785 14.529C329.167 14.5315 329.55 14.534 329.932 14.5363C329.209 14.5367 328.494 14.5373 327.766 14.5378C327.727 14.5575 328.567 14.5472 329.83 14.554C330.026 14.5554 331.277 14.5783 331.709 14.5623C331.796 14.5592 330.465 14.5552 331.39 14.5466C330.986 14.5452 330.637 14.5449 330.254 14.5438C330.227 14.5394 330.199 14.535 330.169 14.5306C330.641 14.5332 331.111 14.5357 331.583 14.538ZM193.9 14.3452C192.53 14.3371 192.361 14.3802 192.075 14.4567C192.713 14.4485 193.35 14.4406 193.988 14.4326C193.957 14.4035 193.931 14.3745 193.9 14.3452ZM319.332 14.5091C318.582 14.5046 318.903 14.52 318.601 14.5223C317.459 14.5312 316.681 14.5191 315.553 14.5243C315.628 14.5214 315.696 14.5186 315.769 14.5157C315.768 14.5157 315.767 14.5157 315.766 14.5157C310.426 14.4923 313.231 14.5359 316.426 14.5334C316.501 14.5393 316.572 14.5452 316.647 14.551C318.077 14.5421 319.396 14.5348 319.332 14.5091ZM107.075 14.1689C107.014 14.1468 107.532 14.008 106.559 14.0715C105.789 14.2748 107.052 14.1754 107.369 14.2543C107.105 14.2735 106.836 14.2922 106.576 14.3116C108.15 14.3708 108.379 14.3228 107.806 14.1733C107.765 14.1632 107.136 14.1909 107.075 14.1689ZM98.04 11.8627C97.6658 11.9311 99.1684 13.2379 99.1856 13.1188C98.9948 12.9218 98.807 12.8081 98.6181 12.5856C98.4273 12.3611 98.426 12.2562 98.04 11.8627ZM153.644 14.2247C153.585 14.2235 153.001 14.1192 153.059 14.2001C153.782 14.3925 155.239 14.2713 154.984 14.2053C154.502 14.2076 154.181 14.2356 153.644 14.2244C153.644 14.2245 153.644 14.2246 153.644 14.2247ZM340.624 14.5502C340.597 14.5497 339.138 14.5426 338.95 14.5457C338.794 14.5494 338.717 14.5536 338.601 14.5577C339.405 14.555 341.031 14.5607 340.621 14.5502C340.622 14.5502 340.623 14.5502 340.624 14.5502Z" fill="#A1A1A1"/>
<path d="M325.854 14.722C326.728 14.7329 323.808 14.7366 325.747 14.75C325.343 14.7536 324.936 14.7573 324.532 14.7609C324.429 14.7528 324.324 14.7447 324.222 14.7364C324.765 14.7315 325.308 14.7267 325.854 14.7219C325.854 14.722 325.854 14.722 325.854 14.722ZM326.595 14.6175C326.097 14.6408 324.516 14.6513 326.224 14.669C326.36 14.6607 326.499 14.6524 326.635 14.6442C327.228 14.6493 327.824 14.654 328.417 14.6584C328.63 14.655 328.843 14.6517 329.057 14.6485C329.328 14.6606 329.597 14.6724 329.869 14.6839C329.628 14.6829 329.383 14.6819 329.142 14.6808C328.189 14.6942 327.341 14.7004 326.047 14.7073C326.161 14.7102 326.275 14.713 326.388 14.7159C325.731 14.7129 325.075 14.7097 324.421 14.706C324.989 14.6982 325.624 14.6899 326.15 14.6832C325.308 14.6636 323.822 14.6793 323.049 14.6868C321.996 14.6967 322.234 14.6844 321.453 14.6915C321.328 14.6926 321.314 14.7021 321.067 14.703C319.823 14.7079 317.406 14.7095 318.82 14.6821C320.868 14.6797 322.614 14.6586 324.623 14.6605C324.092 14.6384 325.15 14.6284 326.595 14.6175ZM288.972 14.8048C289.593 14.7797 290.857 14.7857 291.713 14.7984C291.714 14.7984 291.715 14.7984 291.716 14.7984C291.905 14.8012 292.332 14.8291 291.716 14.8301C290.713 14.832 290.228 14.7858 289.702 14.82C289.466 14.8147 289.219 14.8101 288.972 14.8048ZM286.793 14.8146C286.178 14.8043 286.457 14.7655 287.227 14.7737C287.227 14.7737 287.227 14.7737 287.227 14.7736C287.548 14.7771 286.917 14.8082 288.07 14.7752C288.306 14.7976 288.537 14.8178 288.77 14.8391C288.488 14.8405 288.23 14.842 287.934 14.8434C288.134 14.8047 287.408 14.8247 286.793 14.8146ZM317.78 14.6966C317.683 14.7165 318.088 14.7153 318.778 14.7262C318.127 14.7279 317.476 14.7295 316.827 14.7311C317.146 14.7193 317.461 14.7078 317.78 14.6966ZM333.078 14.6572C333.079 14.6572 333.08 14.6572 333.081 14.6572C333.294 14.6547 333.508 14.6522 333.719 14.6498C333.846 14.6537 333.972 14.6575 334.1 14.6613C334.854 14.6551 335.611 14.6492 336.365 14.6437C336.274 14.6555 334.921 14.6575 334.175 14.6688C333.067 14.6688 332.533 14.6625 332.461 14.6512C332.666 14.6532 332.87 14.6552 333.078 14.6572ZM151.798 14.7225C151.545 14.7531 151.296 14.7838 151.044 14.8146C151.38 14.8282 151.712 14.8384 152.05 14.854C152.934 14.7211 153.017 14.8378 154.175 14.8282C157.725 14.7983 156.783 14.6027 159.989 14.8889C157.415 14.879 158.404 15.0138 156.853 15.1239C156.531 15.0434 158.069 14.8588 157.027 14.8225C155.231 14.9101 153.505 14.9941 151.513 15.0554C151.571 15.0696 151.629 15.0839 151.687 15.0981C152.003 15.0882 152.316 15.0784 152.632 15.0687C152.291 15.1077 151.958 15.1465 151.611 15.1864C152.049 15.098 150.933 15.1498 151.083 15.0489C151.149 15.0041 151.642 14.9412 151.933 14.8983C151.183 14.8762 150.412 14.856 149.653 14.8342C150.047 14.7978 150.44 14.7617 150.83 14.7258C151.152 14.7244 151.47 14.7234 151.792 14.7221C151.794 14.7223 151.796 14.7224 151.798 14.7225ZM19.1274 12.968C19.6688 12.1611 20.8702 10.9126 21.657 10.41C20.8132 11.2631 19.9713 12.1148 19.1274 12.968ZM332.388 14.6418C332.496 14.6438 332.601 14.6457 332.709 14.6476C332.232 14.6527 331.753 14.658 331.276 14.6636C331.185 14.6573 331.091 14.6509 330.997 14.6444C331.46 14.6436 331.926 14.6427 332.388 14.6418ZM301.899 14.7213C302.247 14.7196 302.278 14.72 302.712 14.7209C302.712 14.7209 302.711 14.7209 302.711 14.7209C302.883 14.7212 304.323 14.7255 304.163 14.7361C303.448 14.7382 302.685 14.7402 301.953 14.7422C301.931 14.7352 301.926 14.7283 301.899 14.7213ZM310.315 14.7066C310.316 14.7066 310.317 14.7066 310.318 14.7066C310.578 14.7074 310.825 14.7095 311.093 14.7093C310.126 14.726 309.973 14.7008 309.095 14.7103C308.217 14.7198 307.674 14.7368 306.929 14.7011C307.206 14.6948 307.504 14.6862 307.79 14.6793C309.036 14.6916 309.372 14.6769 310.372 14.6616C310.353 14.6766 310.334 14.6915 310.315 14.7066ZM167.602 14.9955C167.84 14.9258 168.106 14.9931 168.134 14.9938C168.133 14.9939 168.133 14.994 168.132 14.9941C170.243 14.9259 167.857 15.0329 169.85 15.0389C169.553 15.0567 169.262 15.0756 168.968 15.0937C168.514 15.0618 168.045 15.0252 167.602 14.9955ZM236.188 14.8528C236.207 14.8657 236.231 14.8785 236.25 14.8914C235.053 14.8912 234.748 14.9436 233.753 14.8992C234.565 14.8833 235.376 14.8679 236.188 14.8527C236.188 14.8527 236.188 14.8528 236.188 14.8528ZM295.865 14.6878C297.192 14.673 298.174 14.667 299.449 14.6837C299.45 14.6838 299.451 14.6838 299.452 14.6838C299.525 14.6848 299.17 14.6984 299.266 14.7016C299.529 14.6991 299.8 14.6956 300.066 14.6928C300.102 14.7031 300.136 14.7132 300.172 14.7234C299.424 14.7222 298.676 14.7209 297.925 14.7196C298.036 14.7256 298.149 14.7314 298.26 14.7374C297.623 14.7422 296.988 14.747 296.35 14.752C296.572 14.7335 296.793 14.7152 297.012 14.697C296.63 14.694 296.247 14.691 295.865 14.6878ZM216.257 14.732C216.468 14.7481 216.078 14.776 216.405 14.7897C216.732 14.8031 217.335 14.7718 217.194 14.8179C216.753 14.8248 216.291 14.8327 215.842 14.84C217.286 14.9206 218.727 14.8426 218.749 14.9438C217.363 14.9211 216.224 14.9356 214.883 14.968C214.938 14.885 216.28 14.8121 215.435 14.7362C215.706 14.7349 215.991 14.733 216.254 14.7321C216.255 14.7321 216.256 14.732 216.257 14.732ZM351.781 14.5561C352.602 14.5604 354.481 14.5695 355.518 14.5756C355.773 14.5774 356.622 14.583 356.618 14.5829C356.593 14.5833 355.555 14.5805 356.666 14.5842C356.293 14.5832 355.93 14.5822 355.559 14.5812C355.625 14.5821 355.692 14.583 355.755 14.5839C356.207 14.5846 356.659 14.5854 357.111 14.5862C357.133 14.5864 357.155 14.5865 357.177 14.5866C355.553 14.5839 356.512 14.586 355.67 14.586C356.445 14.5871 357.227 14.5878 358 14.588C357.554 14.5879 357.027 14.5877 356.634 14.5875C356.581 14.5883 357.52 14.588 357.681 14.5881C358.587 14.5879 353.974 14.5892 353.596 14.5933C354.333 14.5928 355.107 14.5921 355.86 14.5911C355.644 14.5917 355.425 14.5923 355.209 14.5929C353.499 14.5943 351.582 14.5951 349.59 14.5937C349.41 14.5941 349.229 14.5944 349.052 14.5947C349.105 14.5969 349.155 14.599 349.207 14.601C348.936 14.6017 348.661 14.6024 348.389 14.6031C349.19 14.5943 348.081 14.5963 346.743 14.5912C347.455 14.5879 348.333 14.5897 348.272 14.5845C345.828 14.5886 342.966 14.58 340.589 14.5868C339.999 14.5887 340.001 14.601 338.613 14.6009C338.66 14.5994 338.668 14.5968 338.699 14.5949C336.299 14.6019 334.843 14.6089 332.348 14.602C332.492 14.6082 332.634 14.6143 332.778 14.6203C333.307 14.6165 333.838 14.6129 334.364 14.6096C334.724 14.6187 334.192 14.6236 335.772 14.6211C337.066 14.6191 336.295 14.6164 336.647 14.6134C337.124 14.6094 337.542 14.6156 338.055 14.6112C338.451 14.608 338.022 14.6019 339.056 14.6027C338.64 14.6112 338.216 14.6205 337.798 14.6303C337.545 14.6288 337.295 14.6273 337.043 14.6257C337.298 14.6228 337.549 14.62 337.804 14.6173C336.906 14.6228 336.057 14.6285 335.129 14.6353C335.431 14.6206 334.472 14.6274 333.951 14.6302C333.139 14.6344 333.834 14.6227 333.302 14.6253C332.77 14.6278 332.196 14.6412 331.235 14.6405C331.75 14.6321 331.049 14.6267 331.185 14.6196C331.32 14.6124 332.338 14.6103 331.36 14.6035C329.482 14.6107 331.52 14.6352 330.251 14.6416C328.727 14.6505 328.365 14.6036 328.819 14.5934C329.176 14.5855 330.406 14.5871 330.767 14.5799C328.564 14.5653 328.545 14.5929 328.168 14.5988C326.799 14.6202 327.718 14.5641 326.097 14.5843C326.128 14.5734 326.152 14.5637 326.183 14.5533C325.903 14.555 325.717 14.5575 325.379 14.5588C326.376 14.581 325.56 14.5794 325.142 14.5794C324.482 14.5794 325.501 14.5902 325.326 14.5928C324.855 14.6002 324.11 14.5972 324.567 14.6068C324.362 14.6024 324.14 14.5978 323.929 14.5933C323.159 14.5984 321.348 14.6515 323.071 14.6389C322.911 14.6575 322.353 14.6498 321.918 14.6475C321.483 14.6453 321.491 14.6576 321.109 14.656C319.587 14.6495 320.583 14.6258 320.824 14.6092C318.815 14.6224 320.781 14.6282 317.886 14.6399C317.606 14.6552 318.944 14.6681 317.83 14.6789C317.625 14.6539 316.805 14.6366 315.206 14.629C315.051 14.6354 314.896 14.6419 314.741 14.6485C313.868 14.6242 314.314 14.596 312.698 14.63C313.566 14.5689 312.969 14.6084 311.523 14.5832C311.229 14.578 311.908 14.5654 311.498 14.5586C311.312 14.5555 310.86 14.5651 310.406 14.5572C310.185 14.5534 309.148 14.5272 308.43 14.5384C308.957 14.5707 307.593 14.5984 308.763 14.6245C306.601 14.6196 305.088 14.6356 307.51 14.5897C306.962 14.5798 306.413 14.5696 305.864 14.5591C305.481 14.567 305.096 14.575 304.71 14.5832C304.652 14.5547 304.711 14.5466 303.204 14.5507C303.858 14.5442 304.509 14.5379 305.165 14.5319C305.187 14.5262 305.279 14.5204 305.257 14.5148C304.453 14.5245 302.189 14.5268 301.64 14.5344C301.092 14.5419 302.151 14.545 301.993 14.5526C300.677 14.6162 300.782 14.5691 299.837 14.5799C299.283 14.5866 300.606 14.5939 300.31 14.5967C299.21 14.6075 298.7 14.572 297.725 14.5711C298.072 14.5919 298.415 14.6126 298.753 14.6329C297.731 14.6326 296.591 14.6331 295.64 14.6408C295.267 14.6438 295.549 14.6595 295.488 14.6606C295.186 14.6664 293.955 14.6769 293.825 14.6771C292.845 14.6787 292.817 14.6557 291.864 14.6553C292.238 14.653 292.59 14.6509 292.955 14.6487C293.122 14.6112 293.291 14.5741 293.457 14.5372C292.524 14.5337 291.59 14.5302 290.653 14.5266C291.337 14.5401 292.024 14.5532 292.709 14.5659C291.639 14.5957 290.569 14.6272 289.5 14.6601C288.943 14.6412 288.388 14.6218 287.831 14.602C286.318 14.6073 286.623 14.6904 285.905 14.6181C285.459 14.6244 285.013 14.6309 284.567 14.6374C284.631 14.6268 284.694 14.6161 284.758 14.6055C284.22 14.6122 283.683 14.6189 283.145 14.6259C283.71 14.6639 284.264 14.7029 284.824 14.7381C283.766 14.7485 283.746 14.7164 283.588 14.7086C283.17 14.6878 282.339 14.7181 282.006 14.6986C281.894 14.6917 282.931 14.6689 282.574 14.6445C282.504 14.6402 281.116 14.548 280.23 14.569C280.247 14.586 280.315 14.6069 280.351 14.6254C279.16 14.6368 278.552 14.5461 278.71 14.5206C278.076 14.5379 277.148 14.5389 277.018 14.5672C276.694 14.5679 276.372 14.5684 276.048 14.5691C276.386 14.4994 275.033 14.5107 274.945 14.5718C275.502 14.5735 276.059 14.5751 276.616 14.5767C276.195 14.65 277.888 14.6941 274.366 14.6274C273.692 14.5884 275.563 14.6323 275.014 14.6033C274.061 14.5863 273.166 14.6009 272.26 14.5729C271.132 14.5377 272.52 14.5039 269.893 14.5478C275.687 14.6612 269.098 14.6241 266.376 14.6636C265.628 14.5472 263.33 14.5054 260.165 14.5407C260.495 14.5758 261.49 14.558 262.064 14.5695C262.638 14.5809 262.017 14.6012 262.732 14.6169C263.446 14.6327 264.965 14.6531 265.688 14.6756C265.075 14.6946 262.05 14.7438 264.05 14.6872C262.557 14.6555 261.856 14.6206 260.005 14.6146C259.451 14.6694 259.492 14.7037 257.688 14.7075C258.755 14.6293 256.705 14.5762 257.157 14.4952C258.436 14.515 257.721 14.5924 258.461 14.6293C258.537 14.633 259.728 14.6133 260.005 14.6146C258.803 14.5464 258.387 14.5191 259.127 14.438C258.276 14.4439 257.747 14.4327 257.669 14.4724C257.492 14.4549 257.314 14.4373 257.139 14.4197C256.862 14.4196 256.613 14.4208 256.319 14.42C256.724 14.4815 255.94 14.4428 255.383 14.4699C254.826 14.4973 255.573 14.5463 254.044 14.5464C254.554 14.5612 255.02 14.5737 255.513 14.5873C254.527 14.603 253.537 14.6194 252.551 14.6361C253.244 14.6745 254.745 14.7291 254.704 14.7786C254.249 14.7606 252.693 14.7967 252.523 14.7986C251.863 14.8051 252.223 14.7722 252.173 14.7716C251.136 14.7577 250.283 14.7702 249.89 14.7211C249.111 14.7445 248.524 14.7325 247.698 14.7349C247.244 14.7362 247.332 14.7735 247.066 14.7668C245.298 14.7222 246.982 14.6694 243.572 14.7686C243.985 14.7949 244.392 14.8215 244.805 14.8474C244.42 14.8583 244.037 14.8694 243.652 14.8805C243.394 14.8763 243.138 14.872 242.881 14.8677C242.886 14.809 242.893 14.7501 242.898 14.6914C242.616 14.6885 242.332 14.6856 242.049 14.6826C242.534 14.6764 243.02 14.6702 243.505 14.6641C243.55 14.6538 243.591 14.6435 243.635 14.6333C242.915 14.6176 242.197 14.6016 241.476 14.5853C241.462 14.6059 241.449 14.6267 241.435 14.6474C239.811 14.6195 239.772 14.6008 238.229 14.66C237.04 14.6598 236.072 14.7507 235.385 14.7903C235.138 14.7785 234.891 14.7665 234.642 14.7546C234.484 14.773 234.324 14.7914 234.166 14.81C233.853 14.7851 233.536 14.7601 233.223 14.735C233.048 14.7933 232.958 14.8119 234.18 14.8298C233.761 14.9023 231.61 14.8762 230.734 14.853C230.07 14.8355 230.807 14.7724 230.724 14.7652C230.447 14.7401 229.352 14.7635 229.122 14.7596C228.149 14.7431 227.467 14.747 226.589 14.734C226.418 14.7314 225.94 14.6915 225.899 14.6902C225.583 14.6835 224.804 14.6642 224.715 14.6637C220.141 14.6358 225.028 14.8107 220.775 14.7977C220.902 14.8216 221.019 14.8452 221.144 14.869C220.823 14.8711 220.498 14.8732 220.177 14.8753C219.769 14.8559 220.262 14.8181 219.453 14.8494C219.506 14.8193 219.559 14.7893 219.614 14.7595C219.262 14.7761 218.923 14.7926 218.563 14.8095C217.997 14.706 215.934 14.6831 216.08 14.558C216.13 14.5153 217.593 14.4732 216.82 14.4273C216.192 14.4177 216.617 14.4688 216.361 14.4712C214.51 14.4884 214.617 14.4166 213.861 14.435C213.742 14.4658 213.616 14.4973 213.494 14.5286C213.209 14.5194 212.923 14.5101 212.635 14.5008C212.568 14.5217 212.499 14.5427 212.433 14.5637C212.701 14.5652 213.004 14.5666 213.251 14.5681C212.907 14.6486 209.748 14.6875 210.953 14.6168C211.443 14.5882 212.342 14.6005 211.774 14.5038C210.929 14.5172 209.97 14.5311 209.08 14.545C209.053 14.5239 209.027 14.5026 208.999 14.4814C207.8 14.4943 208.891 14.5801 208.888 14.6253C208.614 14.6266 208.337 14.6278 208.063 14.6292C207.947 14.6086 207.836 14.5869 207.714 14.5668C207.703 14.5997 207.55 14.6765 206.732 14.6483C206.207 14.6298 207.034 14.546 206.032 14.5575C206.107 14.6096 206.469 14.6724 205.353 14.69C205.242 14.6356 205.089 14.5856 205.003 14.5281C203.615 14.5805 202.983 14.4949 201.354 14.5565C200.32 14.5953 198.904 14.7393 198.236 14.5188C197.48 14.5127 197.72 14.5679 197.496 14.5803C196.441 14.6392 195.655 14.5335 195.458 14.527C194.204 14.4862 193.641 14.5231 192.619 14.4715C192.674 14.5138 192.704 14.5538 192.749 14.5949C193.685 14.5317 194.16 14.5352 195.473 14.5489C195.033 14.5571 194.592 14.5656 194.152 14.574C194.224 14.608 194.295 14.6419 194.364 14.6757C198.427 14.542 197.479 14.7489 194.073 14.7998C193.78 14.7372 193.475 14.6745 193.184 14.6111C191.217 14.7078 190.291 14.6251 188.066 14.6043C187.801 14.602 186.838 14.6399 186.424 14.6419C186.43 14.6422 186.437 14.6424 186.444 14.6427C186.187 14.705 186.536 14.7335 186.577 14.7889C186.353 14.7961 186.128 14.8034 185.904 14.8106C185.403 14.7688 185.579 14.7335 184.592 14.7445C184.725 14.7871 184.857 14.8295 184.99 14.8718C183.909 14.8752 183.202 14.8296 182.196 14.8513C182.365 14.8346 182.532 14.818 182.701 14.8015C180.511 14.7624 182.254 14.5053 180.599 14.6331C180.494 14.6108 180.391 14.5882 180.286 14.5658C180.968 14.5603 181.65 14.5551 182.328 14.5498C182.342 14.5185 182.357 14.4873 182.368 14.4559C181.639 14.4648 180.907 14.474 180.178 14.4831C180.71 14.4621 181.246 14.4413 181.778 14.4207C180.932 14.4048 180.087 14.3887 179.242 14.3724C180.139 14.4905 178.976 14.5038 179.195 14.6203C177.698 14.5242 176.523 14.3927 174.203 14.4746C173.743 14.4909 173.993 14.5752 172.688 14.4723C173.004 14.606 171.369 14.6694 171.579 14.7977C172.033 14.791 172.505 14.7866 172.945 14.7786C172.443 14.7351 172.36 14.613 173.122 14.5771C174.095 14.5316 175.514 14.615 175.456 14.482C175.843 14.4885 176.204 14.4924 176.581 14.4978C176.426 14.5305 176.274 14.5635 176.122 14.5963C177.194 14.5448 177.867 14.5621 178.383 14.6437C177.105 14.6629 175.831 14.6823 174.553 14.7021C174.741 14.7077 174.932 14.7133 175.12 14.7186C174.153 14.8047 175.151 14.8841 173.347 14.9055C173.358 14.8662 173.367 14.8269 173.378 14.7874C172.721 14.893 170.923 14.896 171.496 15.017C170.953 14.9807 170.842 14.957 170.535 15.0238C169.102 14.9341 168.182 14.8153 168.692 14.6728C168.16 14.6959 167.628 14.7193 167.098 14.7428C167.406 14.7817 167.714 14.8203 168.021 14.8588C167.096 14.8577 166.163 14.8566 165.241 14.8556C165.152 14.7386 167.022 14.8181 166.483 14.7146C166.375 14.6938 165.877 14.7389 165.746 14.7272C164.366 14.6002 166.532 14.6915 166.125 14.594C164.069 14.564 165.714 14.3987 162.882 14.5369C162.807 14.5026 162.727 14.4677 162.658 14.4336C161.675 14.4307 161.754 14.5084 160.909 14.5229C160.38 14.5322 159.716 14.3938 159.131 14.4875C159.027 14.505 160.01 14.6735 157.944 14.6669C156.34 14.6618 157.008 14.5408 156.141 14.4976C155.273 14.4536 153.289 14.6234 152.704 14.4295C153.159 14.4555 153.737 14.4696 154.242 14.4908C154.447 14.4534 154.646 14.4166 154.849 14.3796C153.696 14.4269 152.504 14.3684 151.728 14.4581C150.19 14.3182 148.47 14.4456 148.936 14.6045C149.442 14.5817 148.891 14.5128 149.594 14.5568C149.666 14.5936 149.742 14.6301 149.814 14.6668C148.617 14.6629 147.786 14.664 148.332 14.5512C148.146 14.5485 147.962 14.5457 147.776 14.543C147.743 14.6248 147.714 14.707 147.68 14.7889C147.459 14.7983 147.236 14.8077 147.014 14.8172C146.768 14.7994 146.521 14.7814 146.271 14.7632C146.607 14.6325 147.178 14.6288 145.288 14.5555C145.282 14.6007 145.274 14.6458 145.269 14.6911C143.686 14.6343 143.645 14.5235 141.658 14.5269C143.182 14.3684 144.016 14.65 144.01 14.3326C144.393 14.3539 144.778 14.3753 145.161 14.3964C145.219 14.3507 145.277 14.305 145.332 14.2594C143.279 14.2785 139.868 14.584 138.493 14.3782C138.327 14.4032 138.16 14.4249 137.991 14.4518C136.644 14.3257 136.063 14.6071 134.696 14.4437C134.556 14.4264 134.85 14.1607 133.072 14.1667C133.116 14.2016 133.139 14.2603 133.175 14.3044C132.79 14.2825 132.407 14.2595 132.025 14.2369C131.956 14.2692 131.883 14.3015 131.814 14.334C132.471 14.3474 133.126 14.3608 133.782 14.3739C133.237 14.3844 132.687 14.395 132.142 14.4056C132.854 14.459 133.175 14.4595 132.746 14.5439C132.128 14.5488 131.509 14.5541 130.891 14.5591C130.827 14.581 130.764 14.6031 130.7 14.6249C131 14.69 131.302 14.7534 131.601 14.8189C129.991 14.7674 128.591 14.7659 127.355 14.6364C127.145 14.6145 127.89 14.5282 126.455 14.606C126.432 14.5603 126.394 14.5231 126.369 14.4807C124.612 14.6084 124.035 14.5713 122.203 14.4761C123.389 14.5645 122.331 14.5069 122.029 14.554C121.822 14.5865 122.63 14.5817 122.538 14.6157C122.447 14.6492 121.397 14.7866 122.294 14.8023C124.495 14.5224 125.094 14.8539 127.921 14.7194C127.486 14.7548 127.048 14.7905 126.613 14.8264C126.817 14.8501 127.001 14.8716 127.222 14.8967C125.646 14.8452 126.413 14.8789 125.765 14.9223C125.116 14.9656 123.938 15.004 123.148 15.0173C122.899 15.0214 123.162 14.9585 122.6 14.9535C122.218 14.95 121.173 15.0451 120.931 14.9354C120.773 14.8634 122.452 14.6656 120.131 14.6668C119.694 14.5963 120.807 14.6181 120.831 14.6096C121.033 14.5261 119.606 14.4623 118.947 14.5264C118.893 14.532 119.414 14.5977 118.848 14.6235C117.504 14.6855 116.727 14.6104 115.857 14.5067C115.763 14.6276 114.632 14.7734 113.224 14.7293C113.152 14.7644 113.083 14.7998 113.011 14.8353C113.23 14.8165 113.449 14.798 113.667 14.7793C113.905 14.801 114.158 14.8168 114.391 14.8423C112.975 14.8737 112.775 15.0431 112.096 15.1066C109.773 15.3246 111.181 14.8706 111.6 14.7933C111.902 14.8244 112.194 14.8591 112.493 14.8915C112.46 14.8488 112.426 14.8057 112.396 14.7626C108.918 14.7662 111.866 14.4842 110.101 14.4035C109.646 14.6154 108.35 14.6376 106.698 14.5004C106.515 14.5015 106.332 14.5017 106.149 14.5029C106.118 14.5344 106.119 14.5826 106.069 14.6033C104.079 14.6407 103.725 14.3048 103.536 14.2726C102.7 14.13 102.048 14.325 101.801 14.3267C101.175 14.3302 100.817 14.2997 100.414 14.2827C100.257 14.2716 100.088 14.2202 99.9278 14.0745C99.891 14.0395 99.8527 14.0035 99.8126 13.9663C99.0322 13.2421 99.4981 13.805 99.2265 13.6188C99.0089 13.4692 98.4095 12.8815 98.1288 12.6718C98.2553 12.7402 98.392 12.8201 98.5182 12.8882C97.7784 12.0684 97.1807 11.3917 96.3058 10.4954C95.0918 9.71085 94.6068 8.49544 94.6551 9.13663C95.4733 9.99584 95.9086 10.4985 96.2827 11.0219C95.7224 10.4811 95.1618 9.9398 94.6014 9.39922C94.4732 9.20617 94.3908 9.06046 94.234 8.83726C93.8258 8.5467 93.0976 7.79403 92.6454 7.35678C92.5717 7.28562 92.495 7.23714 92.4295 7.20679C91.9337 6.99526 91.5682 7.24561 91.4279 7.43016C90.7846 8.21057 90.855 8.21178 89.4706 9.28597C90.4582 8.26288 90.5095 8.05822 91.2724 7.27463C91.3878 7.15595 91.5513 7.04888 91.7611 7.00139C91.605 6.99103 91.3652 7.08718 91.2159 7.21814C91.022 7.37549 90.9003 7.46611 91.071 7.19814C89.9837 8.32487 90.4169 8.04232 90.0527 8.53979C89.7386 8.96895 88.9939 9.72082 89.1113 9.75374C88.9935 9.78896 88.8943 9.80812 88.7767 9.8431C88.7588 9.86101 88.7409 9.87893 88.723 9.89684C88.3475 10.2916 87.6527 10.292 87.2764 9.89736C86.9474 9.5686 86.6184 9.23986 86.2893 8.91119C86.6387 9.17313 86.9878 9.43508 87.3365 9.69764C87.1221 9.45007 86.9073 9.20217 86.6929 8.95448C84.7938 7.32647 82.0073 4.03052 82.1446 4.86487C81.2828 4.02589 81.2202 3.87579 80.8243 3.34697C80.7467 3.32266 80.675 3.2953 80.5943 3.27405C80.0737 2.6976 79.552 2.37712 79.0939 1.86731C78.8745 1.62317 78.7545 1.4465 78.6637 1.33855C78.5698 1.22842 78.4903 1.20994 78.3967 1.29188C78.1228 1.0584 77.6438 1.03581 77.3006 1.30283C77.2926 1.30886 77.2847 1.3149 77.2767 1.32093C77.1254 1.54557 76.9739 1.76972 76.8246 1.99238C76.5116 2.26718 76.1979 2.54265 75.8847 2.81728C75.8053 3.05201 74.6167 4.17475 74.1601 4.73707C73.5925 5.13674 73.3394 4.85702 72.2484 6.04168C72.3442 6.0787 72.4394 6.11594 72.5351 6.15291C72.2608 6.39969 71.9858 6.64702 71.7094 6.89565C71.672 6.88957 71.6367 6.88141 71.5993 6.87532C71.7393 6.74887 71.8774 6.62416 72.0176 6.49791C71.8652 6.57678 71.7153 6.65338 71.5648 6.73016C71.2213 7.18212 70.8776 7.63489 70.5328 8.08943C71.113 7.59213 71.6931 7.09432 72.2727 6.59639C71.646 7.32182 71.1269 7.74384 70.5943 8.38701C69.9909 8.80625 70.1259 8.56364 70.2332 8.25558C70.0517 8.45411 69.8677 8.65462 69.6863 8.8532C69.711 8.62718 69.3293 8.88828 70.4492 7.78656C70.3441 7.83425 70.2388 7.88478 70.1346 7.92933C69.9567 8.11583 69.8141 8.2096 69.6251 8.42022C69.1098 8.99447 68.8694 9.58944 68.969 9.61455C69.0217 9.62705 69.4966 9.02761 69.521 9.09517C69.5799 9.26033 68.2985 10.4433 70.1869 8.77735C69.691 9.41079 69.5 9.50953 68.8961 10.0699C68.8623 10.1018 68.8259 10.1328 68.7864 10.1627C68.842 10.1546 68.8976 10.1428 68.9532 10.127C68.9938 10.1213 69.0341 10.1158 69.0744 10.1104C69.0501 10.1321 69.0259 10.1538 69.0016 10.1754C68.5928 10.5623 67.959 10.652 67.4773 10.419C67.7925 10.4155 67.4081 10.2528 67.2218 9.95205C66.9758 9.56408 66.6926 9.16027 67.4338 9.73996C67.5452 9.82211 67.7067 9.90187 67.913 9.90342C67.7503 9.88095 67.5997 9.80336 67.4878 9.68598C67.061 9.24552 66.635 8.80573 66.2093 8.36566C66.3507 8.46723 66.4919 8.56908 66.6332 8.67072C66.8887 8.94809 67.1429 9.22365 67.3988 9.50072C67.1221 9.15055 66.8448 8.79988 66.5684 8.44939C65.7836 7.75278 65.4237 7.53202 64.9984 7.27928C65.7968 8.20491 65.6015 7.83694 66.2896 8.4922C66.2116 8.5232 66.1925 8.60432 66.0766 8.60284C65.9098 8.27521 65.2462 7.64779 64.781 7.22123C64.5726 7.02755 64.3416 6.96829 64.2306 6.94701C63.9286 6.89334 63.7594 6.94951 63.6657 6.96338C63.5714 6.98273 63.5456 6.97863 63.5304 6.9644C63.5081 6.94997 63.4913 6.83962 63.1393 7.14004C63.1391 7.1403 63.1388 7.14055 63.1386 7.1408C62.601 7.67287 62.0372 8.37031 61.488 8.69482C61.5587 8.74979 61.6586 8.77982 61.7471 8.80563C60.9349 9.65907 61.0267 9.41855 60.9308 9.4951C60.8136 9.588 60.7018 9.67891 60.5945 9.76832C60.2071 10.0751 59.7185 9.99148 59.4513 9.72252C58.7746 9.05423 58.0702 8.45679 57.1039 7.50984C57.2838 7.72961 57.4678 7.94946 57.6509 8.16989C56.3281 7.11854 57.1691 7.87689 58.1556 8.95176C57.5153 8.29377 57.0032 7.88037 56.5183 7.48395C56.3375 7.34676 56.1178 7.30748 55.9132 7.35061C55.7874 7.37698 55.6541 7.4389 55.546 7.54822C54.8861 8.21105 54.0272 8.98004 53.6487 9.28384C54.1848 8.65689 54.7927 8.04738 55.4211 7.42328C55.7184 7.11362 56.2699 7.10726 56.5802 7.42207C56.6445 7.48478 56.7091 7.54741 56.7741 7.6099C56.7439 7.512 56.7119 7.41771 56.6804 7.32181C56.6533 7.23505 56.6127 7.14665 56.5557 7.05629C55.9368 6.85744 55.5264 7.09706 55.288 7.29024C55.1381 7.41698 55.0125 7.50677 54.922 7.58315C54.2294 8.16787 54.3683 8.26667 53.8543 8.52459C53.914 8.55295 53.9625 8.57849 54.0193 8.60394C53.5851 9.02622 53.1337 9.45311 52.6982 9.87202C52.3063 10.262 51.6466 10.2158 51.3069 9.86693C50.8426 9.42003 50.4048 9.03687 50.0134 8.77205C50.0425 8.58629 50.0869 8.4236 50.1065 8.22366C49.4677 7.74573 49.0729 7.18412 48.5842 6.73237C48.0972 6.28269 48.1878 6.54866 47.6036 6.03168C47.4955 5.93599 47.3384 5.66866 47.0471 5.45833C46.7535 5.2454 45.5141 4.61667 45.6689 4.23844C45.3447 3.91249 45.0366 3.59449 44.7266 3.2756C44.5828 3.12702 44.3916 3.02236 44.1841 2.98341C44.3915 3.0133 44.5911 3.10944 44.7462 3.256C45.0639 3.55347 45.3812 3.85081 45.6977 4.14697C45.4419 3.78727 45.1876 3.42902 44.9327 3.06958C44.8457 2.95661 44.7377 2.85491 44.6129 2.77226C44.4909 2.80285 44.3796 2.8519 44.2867 2.9112C43.8762 2.82956 43.48 2.9736 43.2286 3.23085C42.538 3.92904 41.8715 4.49662 41.1068 5.29453C40.9362 5.4727 41.4637 5.17729 40.6603 5.92149C39.8569 6.66609 39.0639 7.02184 37.8287 8.42385C37.7663 8.49471 37.544 9.05341 36.955 9.40888C36.821 9.4898 37.2345 8.99867 36.9529 9.21044C36.8596 9.28057 36.6733 9.44487 36.4596 9.63343C36.3152 9.75835 36.0991 9.8011 35.9469 9.75763C35.7924 9.71709 35.7184 9.62149 35.7253 9.57998C35.7075 9.61888 35.73 9.68363 35.7397 9.73416C35.6712 9.71181 35.6052 9.67669 35.5451 9.62871C35.4308 9.53002 35.3162 9.43095 35.2017 9.33179C35.2361 9.26214 35.2692 9.191 35.3033 9.12159C34.403 8.40015 33.752 8.01694 32.835 7.16721C32.4898 6.82902 31.8177 6.66403 31.2578 7.07353C31.7688 6.76335 32.4106 6.94528 32.6651 7.33713C32.7532 7.46127 32.8413 7.58529 32.9293 7.70916C33.1063 7.77909 33.2838 7.84896 33.4586 7.91709C34.0726 8.56786 34.6883 9.21988 35.303 9.87078C35.4048 9.97885 35.5317 10.0642 35.6722 10.1173C35.8624 10.093 36.0212 10.0119 36.132 9.90583C36.2825 9.88743 36.427 9.82204 36.5432 9.71697C36.5973 9.66703 36.6515 9.61704 36.7058 9.56693C36.7001 9.65924 36.6939 9.75176 36.6863 9.84608C37.0636 9.44758 37.4412 9.04841 37.8166 8.65196C37.5921 9.09179 37.1618 9.54831 36.7631 9.93693C36.4644 10.2331 36.0524 10.2658 35.8057 10.2202C35.5524 10.1771 35.4146 10.1008 35.409 10.2047C35.3262 10.1378 35.2548 10.061 35.1958 9.978C35.1053 9.84457 35.0149 9.71101 34.9246 9.57752C34.7437 9.60556 34.4191 9.22128 33.8106 8.58014C33.902 8.77484 34.0091 8.98366 34.0884 9.16697C33.7192 8.69812 33.0883 8.04362 32.5351 7.46714C32.3468 7.26468 32.0674 7.20097 31.8542 7.23207C31.5501 7.29981 31.8198 7.10629 31.7242 7.12174C31.5985 7.1441 31.453 7.21943 31.3401 7.34233C30.9363 7.7756 30.508 8.35962 30.3703 8.48114C29.7583 9.02139 29.1983 9.3829 28.6567 9.83047C28.3127 10.1079 27.7891 10.1815 27.3286 9.84516C27.2845 9.81124 27.2393 9.77731 27.193 9.74336C27.2333 9.78684 27.2714 9.82784 27.3073 9.86651C27.5435 10.1129 27.7712 10.1531 27.8935 10.1767C28.0214 10.196 28.0709 10.1929 28.0937 10.201C28.1418 10.207 28.0738 10.2735 28.3902 10.2459C28.4454 10.2395 28.6608 10.1676 28.8353 10.0091C29.1646 9.72499 29.5194 9.41428 28.8765 10.0503C28.7108 10.2153 28.419 10.4054 28.0063 10.4048C27.9302 10.4044 27.4977 10.3911 27.1571 10.0167C26.2484 8.99784 24.6105 7.09827 25.5566 7.83351C25.2861 7.6035 25.0394 7.40027 24.7984 7.20379C24.4879 6.94289 24.0637 6.88069 23.7079 7.02438C23.5011 7.02453 23.3167 7.09444 23.1804 7.18265C22.2252 7.75389 22.8784 7.67973 23.3567 7.53596C23.1598 7.73481 22.9735 7.92513 22.7698 8.12905C23.0043 7.49733 20.7847 9.69042 20.1376 10.5405C19.9206 10.8251 20.6858 10.1877 20.1366 10.7984C19.8465 11.0607 19.5151 11.356 19.2076 11.6321C19.758 11.3361 18.9773 12.2166 19.119 12.3351C18.4732 12.7513 17.8207 12.9111 17.9791 12.4859C17.5942 12.9786 17.2071 13.4739 16.823 13.9675C17.0578 13.7947 17.2949 13.6189 17.5295 13.446C17.177 13.7608 16.8168 14.1122 16.4645 14.4667C16.2332 14.701 15.9077 14.8358 15.5858 14.8375C14.2383 14.8537 13.0583 14.8759 12.7851 14.6223C12.5163 14.6252 12.2446 14.6276 11.9758 14.6305C11.8927 14.6971 11.8123 14.7638 11.7292 14.8305C10.5129 14.7735 9.29934 14.7156 8.08304 14.6574C9.16605 14.6154 9.42385 14.5203 10.5596 14.5976C10.1219 14.5207 9.6761 14.4432 9.24674 14.3658C7.5369 14.5726 7.30365 14.7109 4.72928 14.6489C4.61288 14.6463 2.66775 14.4694 2.60124 14.4518C2.29653 14.3727 2.75907 14.2583 2.62339 14.2183C2.2465 14.1066 -0.0437051 13.8208 0.00063531 13.7779C0.56044 13.2543 8.26589 13.2764 10.3499 13.2573C12.0982 13.2415 13.8433 13.2302 15.5858 13.2226C15.4899 13.2211 15.3939 13.2595 15.3251 13.3273C17.6557 10.9793 19.9888 8.64713 22.3233 6.32554C23.1985 5.41164 24.8032 5.41532 25.6732 6.32907C26.5326 7.19463 27.3906 8.06036 28.2476 8.92622C28.1144 8.7932 27.8837 8.79859 27.7585 8.93228C28.6257 8.0749 29.4931 7.21849 30.3606 6.36282C31.2179 5.47091 32.7847 5.47806 33.6316 6.37062C34.4876 7.23901 35.3429 8.10746 36.1979 8.97594C36.0895 8.87107 35.9078 8.87884 35.811 8.98475C38.024 6.80686 40.2372 4.63071 42.4502 2.45245C43.261 1.61007 44.7415 1.61755 45.5411 2.46112C47.7176 4.67145 49.8969 6.88154 52.0824 9.09135C52.0354 9.04863 51.9629 9.05374 51.9234 9.09719C52.7891 8.24011 53.6547 7.38196 54.5203 6.52256C55.2924 5.71705 56.7081 5.71972 57.476 6.5262C58.3347 7.38997 59.1948 8.25372 60.0563 9.11746C60.0508 9.11196 60.0395 9.1042 60.0287 9.10024C60.0119 9.09452 60.034 9.03615 60.022 9.03133C59.9749 9.01352 59.9247 9.07277 59.9336 9.10744C60.0807 8.98817 60.2006 8.89391 60.2655 8.83184C60.5989 8.51221 60.3554 8.62828 60.5948 8.39052C61.2373 7.75306 61.8728 7.12737 62.5048 6.50706C63.2912 5.69234 64.7179 5.70706 65.4841 6.51814C66.3358 7.38764 67.1844 8.25424 68.0466 9.12718C68.0182 9.10459 67.9809 9.10843 67.958 9.1318C68.1424 8.94806 68.3273 8.76342 68.5128 8.57772C68.6734 8.41691 68.5575 8.62917 68.832 8.33932C68.9734 8.18939 69.3564 7.66038 69.6853 7.33177C70.8341 6.18398 71.8258 5.24668 73.0401 4.03892C73.7042 3.37834 74.7076 2.39448 75.4497 1.6555C75.7775 1.32912 76.0865 0.956578 76.4097 0.633568C76.451 0.592366 76.4883 0.556159 76.5221 0.524338C76.8819 0.190987 77.0949 0.15808 77.181 0.136001C77.2736 0.120621 77.2757 0.142292 77.3622 0.114937C77.7825 -0.0044025 78.0335 -0.00410083 78.2792 0.0022151C78.5219 0.0189367 78.7827 0.0489875 79.1456 0.285068C79.2686 0.368159 79.3709 0.457015 79.4569 0.545325C79.8635 0.975034 79.9062 1.09753 80.5371 1.72528C81.0342 2.21969 82.2029 3.32037 82.8367 3.93676C84.2377 5.45946 86.0956 7.28566 87.4723 8.63666C87.7033 8.86332 87.8696 9.03702 87.9967 9.17708C87.9805 9.19596 87.984 9.25212 88.0141 9.24891C88.031 9.24604 88.0406 9.2394 88.0513 9.22508C88.9566 8.29324 89.6668 7.47125 90.5648 6.56703C90.6392 6.49231 90.7205 6.42251 90.8078 6.35918C91.6082 5.76281 92.7807 5.89472 93.4258 6.57642C94.4661 7.65166 95.4314 8.68784 96.4953 9.76502C96.7211 9.99356 96.7264 9.88391 96.9499 10.1062C97.7771 10.9289 98.8382 11.9777 99.5621 12.7235C99.9128 13.0846 100.153 13.3615 100.378 13.6238C100.374 13.6463 100.386 13.6764 100.414 13.687C100.626 13.6949 100.859 13.6981 101.134 13.6934C101.466 13.6877 101.563 13.5876 102.12 13.577C103.01 13.5604 103.985 13.6521 104.606 13.664C105.456 13.6801 104.717 13.5765 105.864 13.5945C105.911 13.5953 106.083 13.6677 106.329 13.6652C107.047 13.6581 106.976 13.6016 108.026 13.611C108.127 13.6123 109.519 13.6852 109.658 13.6859C110.472 13.6899 112.113 13.7192 112.595 13.7067C114.319 13.6626 112.962 13.5535 114.428 13.7855C115.073 13.7322 115.713 13.6785 116.398 13.6278C115.941 13.676 117.794 13.7546 117.925 13.7503C119.002 13.7168 118.36 13.6279 119.726 13.6476C117.922 13.8404 121.489 13.6795 122.284 13.6781C126.114 13.6688 129.595 13.7306 133.444 13.7435C134.733 13.7478 136.46 13.7151 137.823 13.7215C138.141 13.7228 137.9 13.7654 138.18 13.7674C138.459 13.7691 138.15 13.7191 138.468 13.723C140.449 13.7481 142.002 13.8435 143.817 13.7381C143.905 13.7547 143.903 13.7675 144.049 13.7858C145.534 13.6915 148.395 13.8368 149.47 13.858C151.152 13.8917 151.581 13.8276 152.803 13.8453C154.419 13.8691 156.845 14.0023 155.761 13.7917C156.87 13.7896 157.936 13.7922 159.056 13.8155C159.181 13.8181 159.095 13.8695 159.145 13.8708C159.46 13.8793 159.563 13.8335 159.777 13.8322C160.355 13.8287 159.411 13.8804 160.236 13.868C160.671 13.8613 160.918 13.8222 162.126 13.8261C169.409 13.8502 177.316 13.8947 184.781 13.9288C185.294 13.9312 184.957 13.8863 185.6 13.8917C187.833 13.9109 191.831 13.9968 193.757 13.9939C195.683 13.9913 195.249 13.9299 196.454 13.91C196.687 13.9061 196.496 13.9392 196.706 13.9405C198.122 13.9495 199.811 14.008 200.958 14.0197C201.717 14.0276 201.656 13.9758 202.182 13.9742C202.967 13.9721 203.774 14.0267 204.192 14.0298C206.159 14.0439 207.512 14.0085 209.349 14.0359C209.277 14.0249 209.23 14.0147 209.169 14.0038C211.344 14.0141 213.517 14.0243 215.692 14.0344C215.589 14.0246 215.49 14.0147 215.388 14.0047C217.94 14.0204 217.649 14.12 217.424 13.9058C217.61 13.8992 217.806 13.8915 217.984 13.8855C217.912 13.9949 219.456 14.0811 221.42 14.1148C221.564 14.1171 222.531 14.0173 222.426 14.139C222.678 14.11 222.828 14.09 223.042 14.0647C223.457 14.1031 223.878 14.1408 224.294 14.1784C224.518 14.1736 224.746 14.1691 224.97 14.1644C225.004 14.141 224.978 14.1166 225.05 14.0938C226.092 14.0943 228.229 14.1306 229.052 14.1305C231.097 14.1299 233.18 14.0789 234.77 14.1485C235.545 14.1448 234.776 14.0994 235.928 14.1093C236.058 14.1312 236.181 14.1521 236.316 14.1746C237.258 14.0827 237.455 14.1419 238.746 14.1658C239.619 14.182 240.19 14.1614 241.021 14.1688C241.232 14.1707 241.202 14.1974 241.346 14.1971C241.829 14.1958 243.206 14.1641 243.547 14.1645C246.634 14.1664 249.286 14.1808 252.226 14.2005C252.542 14.2026 252.132 14.1771 252.459 14.1793C252.985 14.183 252.676 14.2185 252.98 14.2213C253.831 14.2291 253.837 14.1907 255.023 14.1933C258.927 14.2023 263.417 14.2463 267.496 14.2627C267.623 14.2631 267.616 14.2436 267.754 14.244C268.657 14.2466 269.572 14.2758 270.392 14.2783C271.752 14.2826 272.775 14.2605 274.119 14.2658C276.746 14.2762 279.093 14.2974 281.795 14.3079C284.007 14.3165 285.927 14.3215 288.352 14.3306C298.944 14.3665 309.752 14.3773 320.416 14.4372C320.687 14.4387 320.577 14.4453 320.66 14.4453C321.447 14.4452 321.517 14.4364 321.797 14.4569C322.799 14.4566 323.116 14.4438 324.327 14.4498C324.972 14.453 324.49 14.4718 325.582 14.4653C326.568 14.4596 325.48 14.4448 328.411 14.4676C328.489 14.4683 328.871 14.4809 329.48 14.4803C330.093 14.4799 329.384 14.4692 330.858 14.4732C334.319 14.4833 338.701 14.5093 342.724 14.5239C342.976 14.5248 345.405 14.5323 345.885 14.5335C346.812 14.5355 346.618 14.5314 347.824 14.5368C348.755 14.541 349.523 14.5477 350.618 14.5523C350.745 14.5529 350.959 14.5516 351.781 14.5561ZM147.779 14.8598C147.552 14.9281 147.142 15.1807 145.768 15.1075C145.638 15.1004 146.341 14.9251 145.582 14.8986C146.324 14.8791 147.048 14.8722 147.779 14.8596C147.779 14.8597 147.779 14.8597 147.779 14.8598ZM357.737 14.5887C356.709 14.5912 355.677 14.5936 354.649 14.5957C355.359 14.5936 356.069 14.5918 356.776 14.5903C357.097 14.59 357.416 14.5894 357.737 14.5887ZM229.751 14.8339C229.752 14.8339 229.753 14.8339 229.754 14.8339C228.673 14.8557 227.591 14.8781 226.511 14.9009C226.624 14.8857 226.738 14.8705 226.852 14.8554C227.705 14.8303 228.559 14.8056 229.41 14.7814C229.523 14.7989 229.637 14.8164 229.751 14.8339ZM238.289 14.6739C238.98 14.6895 238.811 14.7167 239.19 14.7425C239.19 14.7425 239.19 14.7424 239.19 14.7424C239.291 14.7491 239.757 14.7544 239.938 14.7552C239.871 14.7385 239.785 14.722 239.713 14.7054C241.323 14.6648 244.472 14.7996 240.395 14.8661C240.456 14.8448 240.515 14.8237 240.576 14.8025C238.55 14.8127 236.291 14.7684 238.289 14.6739ZM131.49 14.998C129.761 15.1345 129.207 15.1658 127.109 15.0773C127.405 15.0382 127.701 14.9992 127.998 14.9604C128.344 14.9989 128.688 15.037 129.034 15.0752C129.035 15.0752 129.036 15.0752 129.037 15.0752C129.107 15.0342 129.176 14.9931 129.243 14.9522C129.991 14.9676 130.742 14.9829 131.49 14.998ZM304.485 14.6491C304.966 14.7112 304.827 14.6747 303.451 14.6916C302.974 14.6976 303.439 14.7079 303.142 14.7104C301.541 14.7246 301.413 14.6802 301.77 14.6567C302.676 14.654 303.592 14.6515 304.482 14.6491C304.483 14.6491 304.484 14.6491 304.485 14.6491ZM346.031 14.5988C346.032 14.5988 346.033 14.5988 346.034 14.5988C346.075 14.6021 345.43 14.604 346.158 14.6062C345.604 14.607 345.05 14.6078 344.493 14.6087C344.657 14.6081 344.823 14.6075 344.987 14.6069C344.843 14.6058 344.698 14.6047 344.554 14.6035C344.357 14.6082 344.174 14.6059 343.593 14.605C343.753 14.6099 343.913 14.6146 344.074 14.6192C343.398 14.6192 342.719 14.6191 342.043 14.6187C342.035 14.6173 342.027 14.6159 342.018 14.6145C341.763 14.6167 341.511 14.6191 341.256 14.6215C341.187 14.6198 341.12 14.6182 341.051 14.6165C340.744 14.6184 340.436 14.6203 340.128 14.6224C340.034 14.6179 340.712 14.6149 339.511 14.618C339.879 14.6125 340.247 14.6074 340.618 14.6025C342.422 14.6013 344.227 14.6001 346.031 14.5988ZM291.96 14.6873C293.947 14.6812 293.387 14.6938 292.927 14.7326C292.606 14.7177 292.281 14.7026 291.96 14.6873ZM189.593 14.754C189.016 14.8214 188.437 14.8888 187.847 14.9552C186.672 14.9959 185.497 14.8738 186.381 14.8237C187.445 14.7642 188.556 14.8274 189.593 14.754ZM162.831 14.8149C164.268 14.849 162.916 14.9423 162.591 14.9969C162.194 14.9114 161.639 14.9198 160.748 14.9112C161.585 14.904 162.593 14.809 162.831 14.8146C162.831 14.8147 162.831 14.8148 162.831 14.8149ZM212.728 14.796C213.304 14.7934 213.877 14.7767 214.392 14.7953C214.237 14.85 213.206 14.8022 213.943 14.8819C213.575 14.8841 213.206 14.8862 212.84 14.8885C213.073 14.8542 212.76 14.8296 212.729 14.7962C212.729 14.7961 212.728 14.7961 212.728 14.796ZM272.709 14.7544C271.578 14.7182 271.364 14.7344 270.225 14.764C270.064 14.732 271.422 14.6765 272.273 14.6645C272.417 14.6946 272.562 14.7246 272.709 14.7544ZM30.0863 9.38135C30.1419 9.15362 30.9183 8.31384 31.6176 7.61986C31.754 7.48242 31.9496 7.45325 32.081 7.4888C32.0162 7.50325 31.9578 7.53037 31.9108 7.56514C31.8259 7.58696 31.7522 7.63213 31.6942 7.69647C31.1583 8.2579 30.6214 8.82046 30.0863 9.38135ZM160.324 14.9057C160.474 14.9081 160.615 14.9099 160.748 14.9112C160.6 14.9125 160.457 14.9111 160.324 14.9057ZM100.16 14.4437C100.514 14.4267 99.7272 14.2002 100.414 14.3616C100.538 14.3647 100.697 14.369 100.9 14.3744C100.9 14.3743 100.9 14.3742 100.9 14.3741C102.031 14.4041 102.281 14.4119 103.328 14.4214C102.951 14.5646 100.826 14.6171 103.755 14.6461C103.794 14.6462 103.717 14.5608 104.185 14.5726C104.329 14.5762 104.792 14.6461 105.495 14.6661C105.722 14.6726 107.43 14.6932 105.102 14.6956C105.171 14.795 105.046 14.8959 105.052 14.9924C104.143 15.0222 103.445 14.8273 102.484 14.8328C101.47 14.8391 100.81 14.9425 100.414 14.9079C100.2 14.893 100.057 14.8082 99.9959 14.7044C100.124 14.7458 100.266 14.7685 100.414 14.7634C101.627 14.7155 103.342 14.7273 103.585 14.8685C104.746 14.869 105.08 14.7416 104.143 14.6787C100.539 14.7527 102.524 14.5396 100.414 14.5704C100.205 14.5738 99.9363 14.5102 99.707 14.2952C99.6838 14.2733 99.6602 14.251 99.6361 14.2284C99.5807 14.225 99.4506 14.1509 99.4418 14.1909C98.9931 13.6193 99.3952 13.9476 99.7508 14.2514C99.9138 14.3928 100.11 14.4439 100.16 14.4437ZM108.51 14.7555C107.817 14.8309 107.127 14.9076 106.437 14.9845C106.437 14.8613 106.817 14.7502 107.909 14.6808C108.109 14.7059 108.311 14.7308 108.51 14.7555ZM63.4342 7.50198C63.4216 7.63053 63.2869 7.87192 63.2052 8.06456C63.0787 8.12877 61.57 9.58034 60.9581 10.1319C60.7665 10.3073 60.6046 10.362 60.5862 10.3622C60.5613 10.3563 60.6925 10.3157 60.915 10.0888C60.9846 10.0132 61.0726 9.91894 61.1813 9.80403C61.4348 9.53636 63.1255 8.04765 63.4342 7.50198ZM280.559 14.708C279.972 14.6951 279.387 14.6818 278.802 14.6683C279.702 14.6584 280.603 14.6486 281.503 14.6392C281.188 14.6618 280.875 14.6848 280.559 14.708ZM180.029 14.6803C180.277 14.6819 179.453 14.7477 180.431 14.7367C179.702 14.7789 179.019 14.8151 178.307 14.8557C178.094 14.8249 177.878 14.7941 177.665 14.7631C177.499 14.7833 177.329 14.8034 177.163 14.8238C177.262 14.778 177.351 14.7334 177.457 14.687C178.656 14.7837 178.932 14.673 180.029 14.6803ZM215.71 14.5214C215.925 14.5992 214.188 14.6465 215.897 14.6582C215.573 14.7096 215.051 14.7371 214.051 14.7428C213.891 14.7232 213.73 14.7036 213.57 14.6838C213.548 14.7371 213.29 14.757 212.728 14.796C212.727 14.7959 212.727 14.7959 212.726 14.7958C211.206 14.8019 211.296 14.7839 210.931 14.6951C212.541 14.744 212.589 14.6627 213.686 14.615C214.44 14.5823 215.424 14.5969 215.71 14.5214ZM67.1596 10.0856C67.1458 10.0752 67.1325 10.0648 67.1195 10.0543C66.2623 9.39377 66.8613 10.1701 65.553 8.65647C65.6706 8.72313 65.7883 8.79045 65.9058 8.85718C66.3117 9.25482 66.7174 9.65277 67.1229 10.0509C67.135 10.0628 67.1472 10.0743 67.1596 10.0856ZM221.329 14.7809C221.198 14.6654 220.126 14.5742 219.943 14.7651C220.988 14.8024 220.478 14.6958 221.329 14.7809ZM163.321 14.5555C165.33 14.5639 164.95 14.7479 164.124 14.842C163.997 14.8084 163.869 14.7746 163.745 14.7411C163.393 14.7567 163.041 14.7725 162.689 14.7881C162.899 14.7104 163.11 14.6327 163.321 14.5555ZM256.746 14.6365C255.211 14.6992 258.404 14.6692 257.331 14.7083C256.475 14.7401 255.346 14.6791 255.773 14.6395C256.07 14.6382 256.4 14.6373 256.743 14.6365C256.744 14.6365 256.745 14.6365 256.746 14.6365ZM247.862 14.6599C248.114 14.731 247.751 14.7104 248.964 14.6965C249.31 14.6926 252.063 14.7159 250.907 14.6596C249.923 14.6602 248.884 14.6599 247.862 14.6599ZM140.099 14.7582C140.08 14.6963 142.2 14.5617 142.472 14.5954C142.472 14.5953 142.472 14.5952 142.472 14.5951C143.206 14.6858 140.97 14.7 141.94 14.8246C139.792 14.7159 139.15 14.9858 139.3 14.6303C140.565 14.6145 139.966 14.6876 140.099 14.7582ZM8.09928 14.753C8.0983 14.753 8.09731 14.753 8.09633 14.753C8.23867 14.7581 9.41151 14.914 9.26889 14.9682C7.85848 14.9232 8.10983 14.8191 6.79677 14.9906C6.72478 14.9358 6.66311 14.8826 6.58559 14.8274C7.10659 14.7945 7.39538 14.7286 8.09928 14.753ZM59.0919 9.78227C59.1396 9.82583 59.1906 9.87538 59.2443 9.92954C59.552 10.3084 60.3938 10.4159 60.8029 9.97667C60.8727 9.91049 60.9381 9.84682 60.9969 9.78679C60.9458 9.86269 60.8929 9.93805 60.8388 10.0126C60.4407 10.5802 59.4811 10.5595 59.0768 10.097C58.328 9.34842 58.0773 8.85429 59.0919 9.78227ZM326.599 14.6175C326.598 14.6175 326.596 14.6175 326.595 14.6175C326.595 14.6175 326.596 14.6175 326.596 14.6175C326.597 14.6175 326.598 14.6175 326.599 14.6175ZM89.2369 9.71226C89.175 9.74485 89.1355 9.75879 89.1147 9.75715C89.1137 9.75609 89.1126 9.75504 89.1116 9.75398C89.1509 9.74222 89.192 9.72893 89.2369 9.71226ZM135.693 14.7805C134.81 14.6932 137.752 14.5539 138.703 14.5872C138.636 14.6266 138.626 14.6623 138.471 14.7077C137.703 14.6055 135.84 14.7947 135.693 14.7805ZM202.754 14.7001C200.429 14.6994 203.455 14.4573 203.579 14.6493C203.575 14.653 202.814 14.6996 202.754 14.7001ZM154.029 14.7315C154.621 14.6353 153.431 14.6102 155.334 14.6264C155.445 14.6511 155.556 14.6758 155.667 14.7003C155.121 14.7106 154.575 14.7211 154.029 14.7315ZM187.522 14.3634C184.596 14.4034 181.797 14.4844 183.703 14.7106C183.925 14.7032 184.149 14.696 184.371 14.6887C184.404 14.5788 185.221 14.6387 186.418 14.6417C186.588 14.5986 187.252 14.5886 187.376 14.5522C187.617 14.482 186.855 14.4317 187.522 14.3634ZM311.068 14.5745C311.021 14.5796 310.975 14.5847 310.928 14.5897C310.465 14.5954 310.001 14.6013 309.538 14.6074C309.613 14.5974 309.688 14.5873 309.763 14.5773C310.197 14.5764 310.63 14.5754 311.065 14.5745C311.066 14.5745 311.067 14.5745 311.068 14.5745ZM111.362 14.4243C111.096 14.7178 112.025 14.6624 113.909 14.516C113.061 14.4858 112.21 14.4552 111.362 14.4243ZM234.546 14.4848C234.607 14.5266 234.667 14.5681 234.73 14.6097C235.731 14.5662 235.545 14.5194 235.066 14.4639C234.891 14.4708 234.72 14.4778 234.546 14.4848ZM248.956 14.4812C248.541 14.4731 248.753 14.5031 248.71 14.5024C247.659 14.486 247.511 14.4717 246.223 14.4934C246.065 14.5013 245.91 14.5096 245.752 14.5178C246.347 14.5974 246.78 14.5545 248.041 14.6004C247.813 14.5737 247.587 14.5469 247.36 14.5197C248.061 14.5258 248.759 14.5318 249.46 14.5377C249.543 14.5296 249.626 14.5216 249.709 14.5135C249.46 14.5029 249.203 14.491 248.956 14.4812ZM316.42 14.5888C317.102 14.59 317.786 14.5911 318.468 14.5921C318.493 14.5852 318.517 14.5783 318.542 14.5714C317.835 14.5769 317.126 14.5827 316.42 14.5888ZM98.1288 12.6718C98.0792 12.645 98.0305 12.6192 97.9857 12.5978C98.0032 12.5868 98.056 12.6174 98.1288 12.6718ZM6.30057 14.3897C5.52752 14.3429 4.41353 14.3727 3.56558 14.3624C3.63224 14.5302 5.78744 14.4845 6.54424 14.5855C6.66585 14.5556 6.62734 14.4095 6.30057 14.3897ZM166.1 14.5634C166.294 14.5215 166.488 14.48 166.679 14.4385C167.147 14.4433 167.617 14.4484 168.088 14.4532C168.102 14.4193 168.115 14.3851 168.129 14.3512C166.054 14.3929 166.532 14.2954 165.505 14.1957C165.704 14.3186 165.901 14.4411 166.1 14.5634ZM338.111 14.5659C336.612 14.5665 336.08 14.5715 336.925 14.5831C337.454 14.5807 337.986 14.5784 338.515 14.5763C338.38 14.5729 338.244 14.5694 338.111 14.5659ZM78.0663 0.852764C77.642 0.851407 77.3685 1.0244 77.1838 1.18599C76.7881 1.53434 76.5444 1.66361 75.9881 2.33586C76.4026 1.96772 76.8172 1.5997 77.2303 1.23255C77.3138 1.15764 77.408 1.09623 77.5086 1.05109C77.6639 0.939703 77.8616 0.867449 78.0663 0.852764ZM131.592 14.022C131.063 13.9634 130.074 14.2325 128.586 14.0285C128.231 14.0877 128.009 14.1448 127.704 14.2034C127.527 14.1388 127.325 14.0732 127.156 14.0088C127.155 14.0088 127.154 14.0088 127.153 14.0088C125.803 14.0272 126.679 14.1105 126.648 14.1788C126.634 14.2072 125.632 14.1579 125.945 14.2205C126.485 14.3277 128.505 14.2693 128.51 14.3976C127.801 14.355 126.415 14.3889 126.825 14.4755C127.274 14.5701 128.58 14.4128 129.411 14.4912C128.22 14.2856 130.68 14.3517 130.96 14.5075C132.404 14.3887 131.077 14.3393 129.597 14.3431C130.501 14.2241 129.171 14.2874 128.952 14.1868C129.883 14.128 133.08 14.1846 131.592 14.022ZM199.71 14.3457C198.712 14.3498 197.153 14.2987 196.47 14.3694C196.072 14.4108 197.635 14.4444 196.557 14.5092C197.529 14.5032 197.751 14.478 197.585 14.4207C197.807 14.4141 198.031 14.4077 198.253 14.4013C198.355 14.4125 198.46 14.4236 198.563 14.4347C198.679 14.4115 198.796 14.3885 198.91 14.3653C199.145 14.3703 199.383 14.3752 199.619 14.3802C199.646 14.3686 199.693 14.3585 199.71 14.3457ZM51.015 9.37232C51.1472 9.50327 51.2785 9.63338 51.4101 9.7637C51.4642 9.81717 51.525 9.86288 51.5912 9.89966C51.5828 9.86276 51.574 9.82267 51.5694 9.78406C51.5672 9.7546 51.567 9.72565 51.5683 9.69719C51.5787 9.74325 51.6805 9.88208 51.8945 9.94352C52.1033 10.0101 52.4097 9.95007 52.5913 9.76513C52.7464 9.61419 52.8815 9.46861 52.9687 9.34948C53.136 9.12138 52.5769 9.46194 53.397 8.60612C53.0625 8.94592 52.7447 9.27481 52.4287 9.60254C52.278 9.76623 52.0305 9.83662 51.8067 9.76877C51.8652 9.73947 51.9141 9.70136 51.9549 9.65918C51.9546 9.65909 51.9544 9.659 51.9541 9.65891C51.8422 9.63949 51.7445 9.58193 51.6748 9.499C51.6425 9.46401 51.6102 9.42906 51.5779 9.3942C51.3898 9.38633 51.2034 9.37996 51.015 9.37232ZM233.734 14.4011C232.789 14.4344 232.472 14.4526 232.918 14.5094C232.919 14.5094 232.92 14.5095 232.921 14.5095C233.273 14.4847 233.625 14.4601 233.977 14.4358C233.897 14.4243 233.817 14.4127 233.734 14.4011ZM92.3972 6.62503C92.0154 6.58498 91.821 6.69105 91.7459 6.73829C91.6708 6.79286 91.7037 6.80997 91.7983 6.81011C91.9798 6.80445 92.4794 6.80811 92.8453 7.15688C93.3994 7.65827 94.047 8.16214 93.8094 7.81865C93.7945 7.79697 93.3306 7.35239 92.9941 7.00815C92.7567 6.76342 92.4771 6.66487 92.3972 6.62503ZM162.952 14.4526C163.503 14.4503 164.056 14.4483 164.61 14.446C164.483 14.4052 164.352 14.3644 164.225 14.3234C163.801 14.3661 163.376 14.4093 162.952 14.4526ZM331.583 14.538C331.003 14.5247 329.513 14.5155 328.785 14.529C329.167 14.5315 329.55 14.534 329.932 14.5363C329.209 14.5367 328.494 14.5373 327.766 14.5378C327.727 14.5575 328.567 14.5472 329.83 14.554C330.026 14.5554 331.277 14.5783 331.709 14.5623C331.796 14.5592 330.465 14.5552 331.39 14.5466C330.986 14.5452 330.637 14.5449 330.254 14.5438C330.227 14.5394 330.199 14.535 330.169 14.5306C330.641 14.5332 331.111 14.5357 331.583 14.538ZM193.9 14.3452C192.53 14.3371 192.361 14.3802 192.075 14.4567C192.713 14.4485 193.35 14.4406 193.988 14.4326C193.957 14.4035 193.931 14.3745 193.9 14.3452ZM319.332 14.5091C318.582 14.5046 318.903 14.52 318.601 14.5223C317.459 14.5312 316.681 14.5191 315.553 14.5243C315.628 14.5214 315.696 14.5186 315.769 14.5157C315.768 14.5157 315.767 14.5157 315.766 14.5157C310.426 14.4923 313.231 14.5359 316.426 14.5334C316.501 14.5393 316.572 14.5452 316.647 14.551C318.077 14.5421 319.396 14.5348 319.332 14.5091ZM107.075 14.1689C107.014 14.1468 107.532 14.008 106.559 14.0715C105.789 14.2748 107.052 14.1754 107.369 14.2543C107.105 14.2735 106.836 14.2922 106.576 14.3116C108.15 14.3708 108.379 14.3228 107.806 14.1733C107.765 14.1632 107.136 14.1909 107.075 14.1689ZM98.04 11.8627C97.6658 11.9311 99.1684 13.2379 99.1856 13.1188C98.9948 12.9218 98.807 12.8081 98.6181 12.5856C98.4273 12.3611 98.426 12.2562 98.04 11.8627ZM153.644 14.2247C153.585 14.2235 153.001 14.1192 153.059 14.2001C153.782 14.3925 155.239 14.2713 154.984 14.2053C154.502 14.2076 154.181 14.2356 153.644 14.2244C153.644 14.2245 153.644 14.2246 153.644 14.2247ZM340.624 14.5502C340.597 14.5497 339.138 14.5426 338.95 14.5457C338.794 14.5494 338.717 14.5536 338.601 14.5577C339.405 14.555 341.031 14.5607 340.621 14.5502C340.622 14.5502 340.623 14.5502 340.624 14.5502Z" fill="#3D3638"/>
</svg>
