<svg width="358" height="17" viewBox="0 0 358 17" fill="none" xmlns="http://www.w3.org/2000/svg" xmlns:xlink="http://www.w3.org/1999/xlink">
<path d="M354.253 11.1641V15.3564H345.868V11.1641L350.06 7.23389L354.253 11.1641Z" fill="#84CCE0"/>
<use xlink:href="#stroke0_6312_11905" transform="translate(354.879 15.1319) scale(0.0025795) rotate(111.569)"/>
<use xlink:href="#stroke0_6312_11905" transform="translate(354.791 14.6223) scale(0.0025795) rotate(95.2268)"/>
<use xlink:href="#stroke0_6312_11905" transform="translate(354.247 14.0061) scale(0.0025795) rotate(40.7658)"/>
<use xlink:href="#stroke0_6312_11905" transform="translate(354.743 13.8795) scale(0.0025795) rotate(88.7855)"/>
<use xlink:href="#stroke0_6312_11905" transform="translate(354.572 13.403) scale(0.0025795) rotate(69.9945)"/>
<use xlink:href="#stroke0_6312_11905" transform="translate(354.91 13.7459) scale(0.0025795) rotate(140.076)"/>
<use xlink:href="#stroke0_6312_11905" transform="translate(354.899 13.1421) scale(0.0025795) rotate(117.408)"/>
<use xlink:href="#stroke0_6312_11905" transform="translate(354.467 12.3294) scale(0.0025795) rotate(60.0999)"/>
<use xlink:href="#stroke0_6312_11905" transform="translate(354.137 11.9615) scale(0.0025795) rotate(31.3104)"/>
<use xlink:href="#stroke0_6312_11905" transform="translate(354.852 11.9847) scale(0.0025795) rotate(105.474)"/>
<use xlink:href="#stroke0_6312_11905" transform="translate(354.753 11.4935) scale(0.0025795) rotate(90.0719)"/>
<use xlink:href="#stroke0_6312_11905" transform="translate(354.885 11.7968) scale(0.0025795) rotate(149.441)"/>
<use xlink:href="#stroke0_6312_11905" transform="translate(354.89 11.4392) scale(0.0025795) rotate(148.066)"/>
<use xlink:href="#stroke0_6312_11905" transform="translate(354.025 10.3224) scale(0.0025795) rotate(37.9453)"/>
<use xlink:href="#stroke0_6312_11905" transform="translate(353.995 10.1123) scale(0.0025795) rotate(57.1315)"/>
<use xlink:href="#stroke0_6312_11905" transform="translate(354.007 10.0222) scale(0.0025795) rotate(83.0885)"/>
<use xlink:href="#stroke0_6312_11905" transform="translate(352.917 9.75006) scale(0.0025795) rotate(4.64892)"/>
<use xlink:href="#stroke0_6312_11905" transform="translate(353.152 9.39024) scale(0.0025795) rotate(48.8883)"/>
<use xlink:href="#stroke0_6312_11905" transform="translate(352.867 9.15226) scale(0.0025795) rotate(45.8156)"/>
<use xlink:href="#stroke0_6312_11905" transform="translate(352.236 9.00249) scale(0.0025795) rotate(11.7394)"/>
<use xlink:href="#stroke0_6312_11905" transform="translate(351.975 8.77485) scale(0.0025795) rotate(10.6129)"/>
<use xlink:href="#stroke0_6312_11905" transform="translate(351.942 8.45905) scale(0.0025795) rotate(30.6165)"/>
<use xlink:href="#stroke0_6312_11905" transform="translate(352.021 8.24612) scale(0.0025795) rotate(59.3473)"/>
<use xlink:href="#stroke0_6312_11905" transform="translate(351.452 7.98879) scale(0.0025795) rotate(31.5077)"/>
<use xlink:href="#stroke0_6312_11905" transform="translate(351.384 7.74851) scale(0.0025795) rotate(47.2513)"/>
<use xlink:href="#stroke0_6312_11905" transform="translate(351.141 7.51502) scale(0.0025795) rotate(47.8211)"/>
<use xlink:href="#stroke0_6312_11905" transform="translate(350.417 7.40885) scale(0.0025795) rotate(4.51775)"/>
<use xlink:href="#stroke0_6312_11905" transform="translate(350.324 7.08772) scale(0.0025795) rotate(19.9871)"/>
<use xlink:href="#stroke0_6312_11905" transform="translate(350.545 6.84887) scale(0.0025795) rotate(61.4564)"/>
<use xlink:href="#stroke0_6312_11905" transform="translate(350.335 6.63063) scale(0.0025795) rotate(65.1259)"/>
<use xlink:href="#stroke0_6312_11905" transform="translate(349.425 6.92485) scale(0.0025795) rotate(5.22357)"/>
<use xlink:href="#stroke0_6312_11905" transform="translate(348.902 7.65926) scale(0.0025795) rotate(-45.4677)"/>
<use xlink:href="#stroke0_6312_11905" transform="translate(349.028 7.33147) scale(0.0025795) rotate(15.61)"/>
<use xlink:href="#stroke0_6312_11905" transform="translate(348.614 7.67807) scale(0.0025795) rotate(-1.63006)"/>
<use xlink:href="#stroke0_6312_11905" transform="translate(348.224 8.09729) scale(0.0025795) rotate(-21.6944)"/>
<use xlink:href="#stroke0_6312_11905" transform="translate(347.993 8.97014) scale(0.0025795) rotate(-79.0775)"/>
<use xlink:href="#stroke0_6312_11905" transform="translate(347.656 8.9383) scale(0.0025795) rotate(-54.7783)"/>
<use xlink:href="#stroke0_6312_11905" transform="translate(347.714 8.53833) scale(0.0025795) rotate(9.22087)"/>
<use xlink:href="#stroke0_6312_11905" transform="translate(347.161 9.23137) scale(0.0025795) rotate(-39.6297)"/>
<use xlink:href="#stroke0_6312_11905" transform="translate(347.018 9.94523) scale(0.0025795) rotate(-82.9754)"/>
<use xlink:href="#stroke0_6312_11905" transform="translate(346.866 10.2935) scale(0.0025795) rotate(-95.9633)"/>
<use xlink:href="#stroke0_6312_11905" transform="translate(346.425 10.2097) scale(0.0025795) rotate(-63.5699)"/>
<use xlink:href="#stroke0_6312_11905" transform="translate(346.491 9.69391) scale(0.0025795) rotate(11.8278)"/>
<use xlink:href="#stroke0_6312_11905" transform="translate(345.939 10.2919) scale(0.0025795) rotate(-29.81)"/>
<use xlink:href="#stroke0_6312_11905" transform="translate(345.775 11.1251) scale(0.0025795) rotate(-83.8985)"/>
<use xlink:href="#stroke0_6312_11905" transform="translate(345.47 11.2663) scale(0.0025795) rotate(-74.5883)"/>
<use xlink:href="#stroke0_6312_11905" transform="translate(345.356 11.6558) scale(0.0025795) rotate(-88.3415)"/>
<use xlink:href="#stroke0_6312_11905" transform="translate(345.363 12.0069) scale(0.0025795) rotate(-89.3254)"/>
<use xlink:href="#stroke0_6312_11905" transform="translate(345.684 12.5555) scale(0.0025795) rotate(-122.603)"/>
<use xlink:href="#stroke0_6312_11905" transform="translate(345.938 12.9204) scale(0.0025795) rotate(-144.737)"/>
<use xlink:href="#stroke0_6312_11905" transform="translate(345.392 13.0655) scale(0.0025795) rotate(-92.9739)"/>
<use xlink:href="#stroke0_6312_11905" transform="translate(345.953 13.6036) scale(0.0025795) rotate(-146.053)"/>
<use xlink:href="#stroke0_6312_11905" transform="translate(345.701 13.9301) scale(0.0025795) rotate(-124.156)"/>
<use xlink:href="#stroke0_6312_11905" transform="translate(345.855 14.2938) scale(0.0025795) rotate(-137.553)"/>
<use xlink:href="#stroke0_6312_11905" transform="translate(345.831 14.6353) scale(0.0025795) rotate(-135.499)"/>
<use xlink:href="#stroke0_6312_11905" transform="translate(345.72 14.962) scale(0.0025795) rotate(-125.813)"/>
<use xlink:href="#stroke0_6312_11905" transform="translate(345.612 15.2701) scale(0.0025795) rotate(-116.108)"/>
<use xlink:href="#stroke0_6312_11905" transform="translate(345.271 15.2908) scale(0.0025795) rotate(-74.7989)"/>
<use xlink:href="#stroke0_6312_11905" transform="translate(345.203 15.3184) scale(0.0025795) rotate(-46.7937)"/>
<use xlink:href="#stroke0_6312_11905" transform="translate(346.834 15.5419) scale(0.0025795) rotate(147.477)"/>
<use xlink:href="#stroke0_6312_11905" transform="translate(347.138 15.6435) scale(0.0025795) rotate(156.848)"/>
<use xlink:href="#stroke0_6312_11905" transform="translate(346.738 16.0065) scale(0.0025795) rotate(-126.431)"/>
<use xlink:href="#stroke0_6312_11905" transform="translate(347.298 16.0174) scale(0.0025795) rotate(-145.271)"/>
<use xlink:href="#stroke0_6312_11905" transform="translate(347.362 15.9903) scale(0.0025795) rotate(-121.018)"/>
<use xlink:href="#stroke0_6312_11905" transform="translate(348.415 15.7867) scale(0.0025795) rotate(171.577)"/>
<use xlink:href="#stroke0_6312_11905" transform="translate(348.298 16.02) scale(0.0025795) rotate(-142.891)"/>
<use xlink:href="#stroke0_6312_11905" transform="translate(348.398 15.9927) scale(0.0025795) rotate(-121.723)"/>
<use xlink:href="#stroke0_6312_11905" transform="translate(349.6 15.3633) scale(0.0025795) rotate(131.884)"/>
<use xlink:href="#stroke0_6312_11905" transform="translate(349.761 15.8129) scale(0.0025795) rotate(174.606)"/>
<use xlink:href="#stroke0_6312_11905" transform="translate(349.489 16.009) scale(0.0025795) rotate(-127.448)"/>
<use xlink:href="#stroke0_6312_11905" transform="translate(349.772 15.9942) scale(0.0025795) rotate(-122.163)"/>
<use xlink:href="#stroke0_6312_11905" transform="translate(350.959 15.4729) scale(0.0025795) rotate(141.371)"/>
<use xlink:href="#stroke0_6312_11905" transform="translate(350.555 16.0155) scale(0.0025795) rotate(-130.824)"/>
<use xlink:href="#stroke0_6312_11905" transform="translate(351.652 15.2976) scale(0.0025795) rotate(126.216)"/>
<use xlink:href="#stroke0_6312_11905" transform="translate(351.28 16.0198) scale(0.0025795) rotate(-134.264)"/>
<use xlink:href="#stroke0_6312_11905" transform="translate(352.073 15.8893) scale(0.0025795) rotate(-175.504)"/>
<use xlink:href="#stroke0_6312_11905" transform="translate(351.928 16.0159) scale(0.0025795) rotate(-131.074)"/>
<use xlink:href="#stroke0_6312_11905" transform="translate(352.528 16.0001) scale(0.0025795) rotate(-153.393)"/>
<use xlink:href="#stroke0_6312_11905" transform="translate(353.258 15.7205) scale(0.0025795) rotate(164.459)"/>
<use xlink:href="#stroke0_6312_11905" transform="translate(353.392 15.9234) scale(0.0025795) rotate(-170.269)"/>
<use xlink:href="#stroke0_6312_11905" transform="translate(353.488 16.014) scale(0.0025795) rotate(-147.495)"/>
<use xlink:href="#stroke0_6312_11905" transform="translate(354.371 15.5293) scale(0.0025795) rotate(146.349)"/>
<use xlink:href="#stroke0_6312_11905" transform="translate(354.734 15.4171) scale(0.0025795) rotate(136.518)"/>
<use xlink:href="#stroke0_6312_11905" transform="translate(354.798 15.7373) scale(0.0025795) rotate(166.21)"/>
<path d="M334.929 16.3895C335.826 16.5013 332.832 16.4382 334.82 16.6023C334.406 16.6159 333.988 16.6299 333.574 16.6435C333.469 16.5798 333.361 16.5162 333.256 16.4524C333.813 16.4312 334.37 16.4101 334.929 16.3892C334.929 16.3893 334.929 16.3894 334.929 16.3895ZM335.69 15.5888C335.179 15.7706 333.558 15.8232 335.31 15.9875C335.449 15.9247 335.591 15.8621 335.731 15.7995C336.339 15.8468 336.951 15.8939 337.559 15.9403C337.777 15.9162 337.996 15.8922 338.214 15.8685C338.493 15.9753 338.769 16.0821 339.047 16.1885C338.8 16.1736 338.549 16.1584 338.302 16.1434C337.325 16.2335 336.455 16.2605 335.128 16.2814C335.244 16.3067 335.361 16.3318 335.478 16.357C334.804 16.3159 334.131 16.2743 333.46 16.2324C334.043 16.1874 334.694 16.1376 335.234 16.0962C334.37 15.9282 332.846 16.0262 332.053 16.0644C330.973 16.1164 331.217 16.0336 330.416 16.0701C330.288 16.0758 330.274 16.1404 330.021 16.1423C328.745 16.1512 326.266 16.1232 327.716 15.9673C329.816 15.9819 331.607 15.8576 333.668 15.8976C333.123 15.7263 334.208 15.6658 335.69 15.5888ZM297.105 16.2436C297.742 16.147 299.038 16.1821 299.916 16.2447C299.917 16.2447 299.918 16.2447 299.919 16.2447C300.113 16.2586 300.55 16.3818 299.919 16.3789C298.891 16.3738 298.393 16.1776 297.854 16.3134C297.612 16.2892 297.358 16.2677 297.105 16.2436ZM294.87 16.2619C294.239 16.2147 294.525 16.0631 295.315 16.102C295.315 16.1019 295.315 16.1018 295.315 16.1017C295.645 16.1179 294.998 16.2382 296.18 16.1148C296.422 16.2077 296.659 16.2921 296.898 16.3816C296.608 16.3841 296.344 16.3874 296.041 16.3897C296.245 16.2352 295.501 16.3086 294.87 16.2619ZM326.649 16.046C326.55 16.171 326.966 16.1692 327.673 16.2533C327.005 16.2513 326.337 16.2491 325.673 16.2471C325.999 16.1798 326.323 16.1129 326.649 16.046ZM342.338 16.0256C342.339 16.0255 342.34 16.0255 342.341 16.0255C342.56 16.0064 342.78 15.9873 342.996 15.9685C343.126 16.0101 343.256 16.0515 343.387 16.093C343.909 16.065 344.434 16.0371 344.958 16.0093C345.371 15.9982 345.776 15.8203 346.06 15.5341C346.06 15.6097 345.663 16.0546 344.958 16.0772C344.481 16.1035 343.88 16.1211 343.464 16.1711C342.327 16.1361 341.779 16.0629 341.705 15.954C341.916 15.9778 342.125 16.0019 342.338 16.0256ZM156.423 15.6246C156.165 15.6854 155.909 15.7463 155.651 15.8073C155.995 15.8347 156.336 15.8555 156.682 15.8871C157.589 15.6228 157.674 15.8558 158.862 15.8382C162.502 15.7836 161.536 15.3833 164.824 15.9694C162.185 15.945 163.199 16.2207 161.608 16.4389C161.278 16.2759 162.855 15.9054 161.786 15.8304C159.945 16.0052 158.174 16.1703 156.131 16.2875C156.191 16.316 156.25 16.3445 156.31 16.373C156.634 16.3542 156.955 16.3354 157.279 16.3167C156.929 16.3938 156.588 16.4704 156.232 16.5487C156.681 16.3739 155.537 16.4738 155.69 16.2736C155.758 16.1845 156.264 16.0603 156.563 15.9751C155.793 15.9301 155.003 15.8887 154.224 15.8445C154.628 15.7729 155.031 15.7015 155.431 15.6304C155.761 15.628 156.088 15.6262 156.417 15.6238C156.419 15.6241 156.421 15.6243 156.423 15.6246ZM19.8757 13.7864C20.3652 12.8932 21.5866 11.602 22.4672 11.1602C21.6026 12.036 20.7402 12.9105 19.8757 13.7864ZM341.631 15.8642C341.742 15.8847 341.849 15.9049 341.96 15.9253C341.471 15.9645 340.979 16.0037 340.491 16.0434C340.397 15.9837 340.301 15.9239 340.204 15.8643C340.679 15.8642 341.157 15.8643 341.631 15.8642ZM310.362 15.9986C310.72 15.9938 310.751 15.9959 311.197 16.0044C311.196 16.0044 311.196 16.0043 311.195 16.0042C311.372 16.0075 312.849 16.0429 312.684 16.0942C311.951 16.0969 311.169 16.098 310.418 16.0999C310.395 16.0661 310.39 16.0326 310.362 15.9986ZM318.993 16.009C318.994 16.0091 318.995 16.0092 318.996 16.0093C319.263 16.0163 319.516 16.0311 319.792 16.0332C318.8 16.1141 318.643 15.9735 317.742 16.0155C316.842 16.0577 316.285 16.1381 315.521 15.9445C315.805 15.9147 316.111 15.8723 316.404 15.8378C317.682 15.9134 318.027 15.8394 319.052 15.7619C319.033 15.8444 319.013 15.9264 318.993 16.009ZM172.632 16.2044C172.876 16.0599 173.149 16.2007 173.177 16.2023C173.177 16.2025 173.176 16.2027 173.176 16.2028C175.34 16.0656 172.894 16.2831 174.937 16.3011C174.633 16.3375 174.334 16.3761 174.033 16.4131C173.567 16.345 173.086 16.2675 172.632 16.2044ZM242.971 16.0781C242.991 16.1132 243.015 16.1484 243.035 16.1835C241.807 16.1779 241.494 16.3179 240.474 16.1935C241.306 16.1545 242.139 16.1159 242.971 16.0777C242.971 16.0778 242.971 16.078 242.971 16.0781ZM304.174 15.7995C305.535 15.7417 306.542 15.7166 307.849 15.8022C307.85 15.8023 307.852 15.8024 307.853 15.8025C307.928 15.8078 307.563 15.8688 307.662 15.8838C307.931 15.8743 308.21 15.86 308.483 15.8488C308.52 15.8969 308.555 15.9451 308.592 15.993C307.824 15.981 307.057 15.9688 306.286 15.9566C306.4 15.9848 306.517 16.0127 306.63 16.0409C305.977 16.057 305.326 16.0732 304.672 16.0895C304.899 16.0088 305.126 15.9283 305.35 15.8477C304.958 15.8316 304.566 15.816 304.174 15.7995ZM222.531 15.7125C222.747 15.7528 222.347 15.8212 222.683 15.8556C223.018 15.8896 223.636 15.8133 223.491 15.9276C223.04 15.9436 222.566 15.9619 222.106 15.9788C223.586 16.1823 225.063 15.9933 225.086 16.2463C223.665 16.184 222.497 16.2168 221.121 16.2909C221.178 16.0876 222.554 15.9107 221.688 15.7217C221.966 15.7188 222.258 15.7147 222.528 15.713C222.529 15.7128 222.53 15.7127 222.531 15.7125ZM355.104 12.5496C355.097 12.9652 355.104 13.6459 355.104 14.3564C355.105 14.2723 355.017 14.2122 354.958 14.235C355.121 14.2415 355.273 14.2497 355.412 14.2599C355.673 14.2796 356.544 14.5182 356.54 14.5489C356.514 14.653 355.45 14.6644 356.59 14.7354C356.207 14.7351 355.835 14.7381 355.454 14.739C355.522 14.8095 355.59 14.8798 355.655 14.95C356.119 14.9402 356.583 14.9304 357.046 14.9205C357.069 14.9437 357.091 14.9669 357.114 14.9901C355.448 14.988 356.432 15.0789 355.568 15.1618C356.363 15.2047 357.165 15.2471 357.958 15.2892C357.5 15.284 356.96 15.28 356.557 15.2738C356.503 15.3925 357.465 15.3642 357.63 15.3861C358.243 15.4674 356.398 15.4687 354.958 15.5102C354.52 15.5255 354.144 15.2741 353.958 15.0146C353.765 14.7528 353.727 14.5048 353.692 14.4253C353.697 15.0617 354.278 15.6624 354.958 15.6599C355.227 15.6662 355.496 15.6724 355.763 15.6786C355.541 15.7003 355.317 15.722 355.095 15.7438C355.049 15.7408 355.004 15.7378 354.958 15.7348C354.248 15.7195 353.622 15.0685 353.661 14.3564C353.697 13.5241 353.725 12.6582 353.754 11.7707C353.763 11.5636 353.686 11.3487 353.539 11.1894C353.384 11.0237 353.229 10.857 353.073 10.6892C352.939 10.5624 352.804 10.4353 352.672 10.3103C352.671 10.3876 352.668 10.4627 352.667 10.5399C352.465 10.3478 352.261 10.1533 352.059 9.96127C352.77 10.412 351.963 9.61086 351.071 8.5611C351.634 9.03168 352.243 9.69635 352.284 9.56772C351.764 9.08477 351.233 8.56513 350.698 8.03069C350.317 7.63039 349.605 7.62103 349.213 8.02652C348.207 9.02059 347.202 10.0109 346.34 10.9522C346.305 10.9899 346.274 11.0253 346.246 11.0591C346.075 11.2838 346.048 11.4613 346.074 11.7707C346.101 12.0101 346.119 12.3419 346.114 12.8699C346.097 12.8216 346.065 12.8133 346.042 12.7821C346.059 13.3501 346.076 13.8666 346.089 14.3564C346.115 14.9854 345.564 15.5287 344.958 15.522C343.932 15.5354 342.901 15.5286 341.59 15.4881C341.738 15.5472 341.883 15.6065 342.031 15.6654C342.574 15.6353 343.118 15.605 343.658 15.5753C344.016 15.6689 343.514 15.7126 344.958 15.7122C345.02 15.7122 345.084 15.708 345.151 15.6983C345.601 15.6244 345.81 15.4108 345.917 15.3019C346.024 15.1837 346.042 15.135 346.042 15.1246C346.039 15.1017 345.951 15.2071 346.065 15.0044C346.17 14.7957 346.227 14.5771 346.232 14.3564C346.241 14.0641 346.26 13.7723 346.233 13.4424C346.199 13.036 346.121 13.4757 346.14 12.4156C346.242 12.8419 346.348 13.2768 346.452 13.7059C346.433 13.9234 346.414 14.1394 346.395 14.3564C346.391 14.4154 346.384 14.4737 346.373 14.5316C346.376 14.4726 346.375 14.4143 346.371 14.3564C346.348 14.1372 346.324 13.9201 346.301 13.6999C346.313 13.9211 346.325 14.1393 346.337 14.3564C346.383 15.0833 345.757 15.8046 344.958 15.8227C344.788 15.8321 344.616 15.8417 344.442 15.8514C344.752 15.7016 343.768 15.759 343.234 15.7776C342.401 15.8067 343.114 15.7022 342.569 15.7202C342.023 15.7384 341.435 15.8555 340.448 15.8325C340.977 15.7641 340.258 15.7047 340.397 15.6422C340.536 15.5796 341.579 15.5653 340.577 15.4979C338.65 15.551 340.741 15.7868 339.44 15.8272C337.877 15.877 337.505 15.4862 337.971 15.4021C338.337 15.336 339.599 15.3493 339.968 15.2841C337.709 15.165 337.689 15.399 337.303 15.4453C335.899 15.6136 336.842 15.1652 335.179 15.3273C335.211 15.2431 335.236 15.1674 335.267 15.0867C334.98 15.1018 334.79 15.122 334.443 15.134C335.465 15.299 334.629 15.2914 334.199 15.2916C333.523 15.292 334.568 15.3725 334.389 15.3932C333.906 15.4487 333.141 15.4238 333.61 15.4963C333.4 15.4626 333.172 15.4287 332.956 15.3951C332.166 15.4367 330.308 15.7955 332.076 15.7213C331.911 15.8536 331.339 15.7911 330.893 15.7715C330.447 15.752 330.455 15.8366 330.063 15.8217C328.503 15.7616 329.524 15.6143 329.771 15.5007C327.71 15.5805 329.728 15.6307 326.758 15.6868C326.471 15.781 327.843 15.8783 326.701 15.9346C326.49 15.7723 325.649 15.6564 324.01 15.6032C323.85 15.6411 323.692 15.6794 323.532 15.7175C322.637 15.5667 323.095 15.407 321.438 15.5977C322.327 15.2482 321.716 15.4722 320.232 15.3296C319.931 15.3008 320.627 15.2283 320.207 15.1912C320.016 15.1744 319.553 15.2292 319.087 15.1864C318.86 15.1654 317.797 15.0282 317.061 15.0922C317.601 15.2641 316.202 15.4105 317.402 15.5521C315.185 15.5186 313.633 15.6015 316.117 15.3655C315.555 15.3134 314.991 15.2612 314.429 15.2087C314.036 15.2499 313.641 15.2908 313.246 15.332C313.186 15.189 313.246 15.1488 311.701 15.173C312.371 15.1395 313.039 15.1057 313.712 15.0723C313.735 15.0435 313.829 15.0136 313.806 14.9856C312.982 15.0394 310.66 15.0608 310.097 15.0988C309.534 15.1369 310.621 15.1483 310.459 15.1854C309.109 15.4927 309.216 15.2659 308.248 15.3186C307.679 15.35 309.037 15.3841 308.732 15.3975C307.605 15.4469 307.082 15.2819 306.082 15.2794C306.437 15.3736 306.789 15.4689 307.136 15.5633C306.087 15.5591 304.918 15.5589 303.943 15.5901C303.561 15.6023 303.85 15.6726 303.788 15.6774C303.477 15.7019 302.216 15.7419 302.082 15.7424C301.077 15.7443 301.048 15.6458 300.071 15.6413C300.454 15.6325 300.815 15.6247 301.19 15.6163C301.361 15.4564 301.534 15.2968 301.705 15.1372C300.747 15.1249 299.789 15.1127 298.829 15.1002C299.531 15.1545 300.235 15.2083 300.937 15.2619C299.84 15.3907 298.743 15.5212 297.646 15.6531C297.075 15.5735 296.506 15.4934 295.935 15.4128C294.383 15.4342 294.696 15.7635 293.96 15.4755C293.502 15.5 293.045 15.5247 292.588 15.5492C292.653 15.5078 292.718 15.4663 292.783 15.425C292.232 15.4505 291.68 15.476 291.129 15.5021C291.709 15.649 292.277 15.8028 292.851 15.9438C291.766 15.9777 291.745 15.8532 291.583 15.8223C291.154 15.7404 290.302 15.8531 289.961 15.777C289.846 15.7507 290.909 15.6672 290.543 15.5726C290.471 15.5547 289.048 15.2048 288.139 15.2852C288.156 15.3489 288.227 15.4271 288.264 15.4963C287.042 15.536 286.419 15.2018 286.581 15.108C285.93 15.1731 284.979 15.1782 284.845 15.2811C284.513 15.2836 284.183 15.2859 283.85 15.2883C284.197 15.037 282.81 15.0816 282.719 15.2989C283.29 15.3044 283.862 15.3101 284.433 15.3155C284.001 15.5803 285.737 15.74 282.125 15.4958C281.434 15.3573 283.353 15.5143 282.79 15.4108C281.812 15.3504 280.895 15.4013 279.965 15.3041C278.809 15.1823 280.232 15.0653 277.538 15.2194C283.48 15.6087 276.723 15.482 273.931 15.6068C273.164 15.2183 270.807 15.0906 267.561 15.2068C267.9 15.3175 268.921 15.2608 269.509 15.2971C270.097 15.3334 269.461 15.3986 270.194 15.4497C270.927 15.5007 272.484 15.5693 273.226 15.6453C272.597 15.7071 269.495 15.8573 271.546 15.6792C270.015 15.5724 269.296 15.4606 267.398 15.4405C266.829 15.6132 266.871 15.7209 265.021 15.728C266.116 15.4861 264.013 15.319 264.476 15.069C265.788 15.1282 265.055 15.3699 265.814 15.4856C265.891 15.4971 267.114 15.4362 267.398 15.4405C266.164 15.2245 265.738 15.1423 266.497 14.8853C265.624 14.9067 265.081 14.8734 265.002 14.9971C264.82 14.9432 264.637 14.8892 264.458 14.8352C264.174 14.8361 263.918 14.8407 263.618 14.8392C264.032 15.0271 263.228 14.9107 262.657 14.9952C262.086 15.08 262.852 15.2288 261.284 15.2303C261.807 15.2746 262.285 15.3125 262.791 15.3541C261.779 15.4025 260.764 15.4515 259.752 15.5007C260.463 15.6164 262.003 15.7858 261.961 15.937C261.495 15.8805 259.898 15.9839 259.724 15.9885C259.047 16.0053 259.416 15.9085 259.365 15.9062C258.302 15.8611 257.427 15.8953 257.023 15.7491C256.225 15.8163 255.622 15.7793 254.776 15.7841C254.31 15.7867 254.4 15.8952 254.127 15.875C252.314 15.74 254.042 15.5955 250.544 15.8694C250.967 15.9452 251.385 16.0226 251.809 16.0985C251.414 16.1281 251.021 16.1579 250.626 16.1877C250.362 16.1744 250.1 16.161 249.835 16.1477C249.841 15.9815 249.848 15.8151 249.853 15.649C249.564 15.6402 249.272 15.6316 248.983 15.6227C249.48 15.6059 249.979 15.5893 250.476 15.5726C250.521 15.5434 250.564 15.5142 250.609 15.485C249.87 15.4401 249.134 15.3945 248.395 15.3487C248.381 15.4067 248.367 15.4651 248.353 15.5232C246.687 15.4432 246.647 15.3929 245.064 15.5549C243.845 15.5535 242.852 15.8003 242.147 15.9054C241.895 15.8727 241.641 15.8395 241.386 15.8067C241.224 15.8561 241.06 15.9053 240.898 15.9549C240.577 15.8869 240.251 15.8187 239.93 15.7506C239.751 15.9068 239.659 15.9559 240.912 16.0083C240.482 16.2025 238.276 16.1223 237.378 16.0582C236.697 16.0096 237.453 15.8453 237.368 15.8257C237.083 15.7587 235.96 15.8181 235.724 15.8073C234.727 15.7617 234.028 15.7707 233.127 15.7352C232.952 15.7281 232.461 15.6239 232.42 15.6206C232.096 15.603 231.296 15.5525 231.205 15.551C226.514 15.4751 231.526 15.9285 227.164 15.8858C227.295 15.9464 227.415 16.0065 227.543 16.0669C227.213 16.0712 226.88 16.0753 226.551 16.0797C226.133 16.0296 226.638 15.9362 225.809 16.0123C225.863 15.9371 225.917 15.8619 225.974 15.7871C225.613 15.828 225.265 15.8687 224.895 15.9099C224.316 15.6497 222.199 15.5912 222.349 15.2822C222.401 15.177 223.901 15.0706 223.108 14.958C222.464 14.9353 222.9 15.061 222.637 15.0674C220.739 15.1119 220.849 14.9355 220.073 14.9818C219.951 15.0575 219.823 15.1347 219.698 15.2113C219.405 15.1889 219.111 15.1665 218.816 15.144C218.748 15.1951 218.677 15.2462 218.609 15.2973C218.884 15.3008 219.195 15.3043 219.448 15.3077C219.095 15.505 215.856 15.5962 217.091 15.4261C217.594 15.3571 218.515 15.3865 217.933 15.152C217.066 15.1853 216.083 15.2195 215.171 15.2533C215.142 15.2025 215.116 15.1515 215.087 15.1007C213.858 15.1329 214.976 15.3371 214.974 15.4458C214.692 15.4489 214.408 15.4517 214.127 15.4548C214.008 15.4055 213.895 15.3538 213.77 15.3059C213.758 15.3845 213.601 15.5674 212.762 15.4998C212.224 15.4557 213.072 15.2566 212.045 15.2841C212.121 15.4074 212.493 15.5571 211.348 15.5975C211.234 15.4688 211.077 15.3507 210.989 15.2151C209.565 15.3389 208.918 15.1385 207.247 15.2832C206.186 15.3745 204.734 15.7046 204.049 15.1973C203.274 15.1836 203.52 15.3102 203.291 15.3387C202.208 15.4736 201.402 15.2319 201.201 15.2174C199.914 15.1254 199.337 15.2094 198.288 15.0937C198.345 15.189 198.376 15.2792 198.421 15.3721C199.382 15.2294 199.868 15.2366 201.216 15.2674C200.764 15.2863 200.312 15.3057 199.86 15.3247C199.934 15.4017 200.007 15.4787 200.078 15.5553C204.245 15.2521 203.273 15.7271 199.78 15.8363C199.479 15.694 199.167 15.5519 198.868 15.4087C196.85 15.6259 195.901 15.4384 193.619 15.3927C193.347 15.3874 192.359 15.4711 191.935 15.4754C191.942 15.476 191.949 15.4766 191.956 15.4771C191.692 15.6145 192.049 15.6775 192.092 15.8C191.862 15.8156 191.632 15.8312 191.401 15.8469C190.887 15.7538 191.068 15.6766 190.057 15.6998C190.193 15.7932 190.328 15.8865 190.464 15.9798C189.356 15.9848 188.63 15.8838 187.598 15.9293C187.772 15.8935 187.943 15.8576 188.116 15.8218C185.871 15.7334 187.658 15.1776 185.961 15.4541C185.853 15.4057 185.748 15.3568 185.64 15.3083C186.339 15.2965 187.039 15.2851 187.735 15.2733C187.749 15.2051 187.764 15.1371 187.776 15.0688C187.028 15.0888 186.277 15.1095 185.53 15.1296C186.075 15.0839 186.624 15.0382 187.17 14.9928C186.303 14.9593 185.436 14.9256 184.569 14.8917C185.49 15.1453 184.297 15.1753 184.521 15.426C182.986 15.2181 181.781 14.9395 179.402 15.1157C178.93 15.1508 179.186 15.3287 177.848 15.1119C178.172 15.3947 176.495 15.528 176.711 15.7979C177.176 15.7844 177.66 15.7758 178.111 15.7594C177.597 15.6667 177.512 15.4094 178.293 15.3334C179.291 15.2366 180.746 15.4138 180.686 15.1307C181.084 15.1442 181.454 15.1522 181.84 15.1636C181.681 15.2335 181.525 15.304 181.369 15.3742C182.469 15.2642 183.159 15.3005 183.688 15.4761C182.378 15.5169 181.071 15.5577 179.761 15.5989C179.954 15.6108 180.149 15.6229 180.342 15.6344C179.35 15.8164 180.374 15.9868 178.523 16.0285C178.535 15.9453 178.544 15.8621 178.555 15.7785C177.882 16.0014 176.037 16.0036 176.626 16.2595C176.069 16.1817 175.955 16.1318 175.64 16.2712C174.17 16.0788 173.227 15.8306 173.75 15.5335C173.204 15.5815 172.658 15.6297 172.115 15.678C172.431 15.7592 172.747 15.8399 173.062 15.9207C172.113 15.9169 171.157 15.9131 170.21 15.9096C170.119 15.6677 172.037 15.8344 171.484 15.6191C171.373 15.5759 170.862 15.669 170.728 15.6447C169.313 15.3809 171.535 15.571 171.117 15.3688C169.008 15.3064 170.696 14.9659 167.791 15.2514C167.715 15.1812 167.632 15.1094 167.561 15.0395C166.553 15.0345 166.635 15.1937 165.768 15.2235C165.225 15.2423 164.544 14.9612 163.944 15.1521C163.838 15.1876 164.846 15.5306 162.727 15.5163C161.082 15.5051 161.767 15.2609 160.878 15.1741C159.988 15.0865 157.953 15.4271 157.353 15.0396C157.819 15.0913 158.413 15.1192 158.93 15.1614C159.14 15.0863 159.345 15.0122 159.552 14.9377C158.37 15.0337 157.148 14.9179 156.352 15.0975C154.775 14.8204 153.011 15.0752 153.488 15.3892C154.007 15.344 153.443 15.2075 154.164 15.2945C154.238 15.3674 154.315 15.44 154.389 15.5128C153.161 15.5044 152.309 15.5066 152.869 15.2837C152.678 15.2783 152.49 15.273 152.299 15.2676C152.265 15.4291 152.235 15.5912 152.201 15.7527C151.973 15.7711 151.745 15.7894 151.518 15.8078C151.265 15.7725 151.012 15.7368 150.756 15.7009C151.1 15.4442 151.686 15.4363 149.747 15.2926C149.742 15.3814 149.733 15.4698 149.728 15.5586C148.105 15.4464 148.062 15.2303 146.025 15.2377C147.588 14.9282 148.443 15.4774 148.437 14.8571C148.829 14.8983 149.225 14.9398 149.617 14.9808C149.677 14.8911 149.736 14.8014 149.793 14.7118C147.687 14.7544 144.189 15.3487 142.779 14.9516C142.608 14.9999 142.437 15.0419 142.264 15.094C140.883 14.8526 140.286 15.3929 138.885 15.0805C138.74 15.0475 139.043 14.5386 137.219 14.5535C137.264 14.62 137.288 14.7319 137.325 14.8158C136.93 14.7746 136.537 14.7314 136.145 14.689C136.074 14.7504 136 14.8119 135.929 14.8738C136.602 14.8984 137.274 14.9233 137.947 14.9477C137.388 14.9682 136.825 14.9889 136.265 15.0096C136.995 15.1107 137.324 15.1117 136.884 15.2724C136.25 15.2819 135.616 15.2921 134.982 15.3017C134.917 15.3431 134.852 15.385 134.787 15.4264C135.094 15.5498 135.404 15.6703 135.711 15.795C134.059 15.6957 132.624 15.6915 131.356 15.4474C131.14 15.4062 131.904 15.244 130.432 15.3903C130.41 15.3043 130.37 15.2345 130.345 15.155C128.543 15.3953 127.951 15.3245 126.072 15.1482C127.288 15.3123 126.203 15.2054 125.893 15.2932C125.681 15.3536 126.51 15.3447 126.416 15.408C126.322 15.4706 125.245 15.7254 126.166 15.7552C128.423 15.2347 129.037 15.8541 131.936 15.6039C131.49 15.6704 131.041 15.7373 130.594 15.8042C130.805 15.849 130.993 15.8897 131.22 15.9372C129.603 15.8383 130.389 15.9028 129.725 15.9832C129.06 16.0637 127.851 16.1335 127.041 16.1569C126.786 16.1642 127.055 16.0473 126.479 16.0373C126.087 16.0302 125.015 16.2053 124.768 16.0011C124.606 15.8678 126.328 15.5009 123.947 15.5025C123.499 15.3718 124.64 15.4123 124.665 15.3965C124.873 15.2414 123.409 15.1238 122.732 15.2426C122.678 15.2529 123.212 15.3743 122.631 15.4221C121.253 15.5363 120.457 15.3972 119.564 15.2071C119.467 15.4294 118.307 15.6963 116.864 15.6146C116.79 15.6787 116.719 15.7434 116.646 15.808C116.87 15.7739 117.094 15.7403 117.318 15.7062C117.562 15.7462 117.821 15.7752 118.06 15.8222C116.608 15.8784 116.403 16.1874 115.707 16.3019C113.324 16.694 114.768 15.8713 115.198 15.7304C115.507 15.7873 115.807 15.8507 116.114 15.9102C116.08 15.8322 116.045 15.7535 116.014 15.675C112.447 15.6794 115.471 15.1675 113.66 15.0213C113.194 15.4068 111.865 15.4455 110.171 15.1985C109.983 15.2003 109.795 15.2008 109.608 15.2031C109.576 15.2599 109.577 15.3466 109.526 15.384C107.485 15.4508 107.122 14.8483 106.928 14.7908C106.07 14.5363 105.402 14.8863 105.149 14.8893C104.083 14.9007 103.773 14.7437 102.759 14.8099C101.668 14.8816 102.414 15.0029 102.082 15.1105C101.816 15.196 100.955 15.211 100.599 15.3C100.74 15.2272 100.897 15.1559 101.038 15.0829C100.824 15.064 100.617 15.0451 100.414 15.0268C100.236 15.0031 100.084 14.9089 99.988 14.7826C99.6 14.327 99.1954 13.8695 98.6937 13.3474C97.29 12.7014 97.06 11.1875 96.8927 12.062C97.717 12.958 98.1386 13.4982 98.467 14.0903C97.8853 13.5428 97.3036 12.9945 96.7218 12.4471C96.6141 12.2253 96.5528 12.0526 96.4162 11.7995C95.8727 11.4991 94.9463 10.469 94.5264 10.1209C93.0962 8.93579 92.8889 9.01746 92.3862 8.38445C92.2989 8.26482 92.1054 7.97669 91.5842 8.09506C92.0109 7.83117 92.4043 7.96494 92.6385 8.13219C93.0922 8.47223 93.4271 8.6827 94.152 9.43729C94.0203 9.06246 93.3992 8.49093 93.9308 8.73105C93.1671 8.0131 93.0022 7.97571 92.8249 7.94579C92.7209 7.92471 92.6181 7.8981 92.3977 7.85881C92.0697 7.78099 91.5739 7.92647 91.4227 8.19335C91.2843 8.38429 91.2049 8.52816 91.2742 8.56287C91.1241 8.56967 90.9939 8.56094 90.844 8.56753C90.1417 9.2714 89.4387 9.97464 88.7362 10.6785C88.7026 10.7122 88.667 10.7433 88.6291 10.7722C88.6604 10.7346 88.6882 10.6957 88.7131 10.6553C88.9266 10.3065 89.1402 9.95785 89.3545 9.60968C89.0891 9.81808 88.8233 10.0269 88.5578 10.2352C88.52 10.2842 88.481 10.3335 88.441 10.3832C88.2771 10.6472 87.7847 10.7304 87.5003 10.4419C85.7772 8.76853 84.0712 6.70764 83.9937 7.57614C83.1023 6.72326 83.0679 6.53946 82.7069 5.9521C82.6093 5.94524 82.5207 5.9322 82.4179 5.93051C81.9029 5.32041 81.3 5.05951 80.8479 4.51902C80.3955 3.97883 80.4344 3.69358 80.0897 3.89354C79.8461 3.49412 79.5914 3.10962 79.3446 2.71738C79.0898 2.58661 78.8358 2.4554 78.5832 2.32645C78.5626 2.3008 78.5419 2.27513 78.5212 2.24947C78.3493 2.01047 77.999 1.87798 77.6665 1.97321C77.6397 2.03346 77.5472 2.10656 77.4561 2.22679C77.0778 2.69538 76.2873 3.45429 75.9591 3.91663C75.3218 4.2713 74.8885 3.81078 73.8009 5.05692C73.9422 5.13793 74.0826 5.21905 74.2239 5.30001C73.9335 5.5441 73.6426 5.78879 73.3501 6.0348C73.2977 6.01453 73.2475 5.99211 73.1951 5.97182C73.343 5.84648 73.4889 5.72291 73.6372 5.59792C73.4572 5.65503 73.2798 5.70994 73.1017 5.76493C72.7846 6.26367 72.4673 6.76323 72.1489 7.26456C72.7705 6.78118 73.3922 6.29733 74.0133 5.81336C73.4021 6.58889 72.8382 6.99017 72.3272 7.68493C71.6489 8.0555 71.7532 7.77253 71.7989 7.39219C71.6182 7.6013 71.4349 7.81224 71.2543 8.0214C71.2152 7.7252 70.7854 7.95464 71.9391 6.82987C71.813 6.86041 71.6875 6.89473 71.5615 6.92132C71.3819 7.11552 71.2202 7.19617 71.0334 7.41928C70.5245 8.02768 70.391 8.75091 70.5328 8.81629C70.6075 8.84988 71.0548 8.1954 71.1093 8.29404C71.2413 8.53504 69.8949 9.71598 71.9036 8.07949C71.4179 8.80361 71.1935 8.84944 70.4924 9.48272C70.6069 9.4928 70.7195 9.50394 70.8319 9.51598C70.4942 9.79704 70.1562 10.0785 69.8184 10.3594L69.1178 11.06C68.7973 10.7395 68.6757 10.6179 68.396 10.3382L69.2989 9.43519C68.9901 9.72922 68.6818 10.0227 68.3736 10.3158C68.2059 10.4737 67.9388 10.4917 67.7599 10.3759C67.8582 10.3771 67.9457 10.3463 68.0081 10.2982C68.1009 10.3127 68.2005 10.2921 68.2867 10.2289C68.3854 10.1421 68.4841 10.0551 68.5831 9.96802C68.4727 10.0434 68.3623 10.1188 68.2519 10.1942C68.1246 10.2352 68.0122 10.1836 67.9674 10.1125C67.924 10.1266 67.8773 10.1303 67.8253 10.1169C67.2906 9.72517 66.9521 9.57734 66.5656 9.41548C67.1956 10.2147 67.2207 10.086 67.5855 10.3567C67.6418 10.39 67.7098 10.4282 67.808 10.4573C67.7418 10.5679 67.7361 10.6934 67.6127 10.7856C67.5578 10.7099 67.4842 10.628 67.4147 10.5276C67.0042 9.97172 66.0806 9.23547 65.8508 9.02081C65.0036 8.22901 65.8304 8.68747 65.2864 8.13511C65.1817 8.02877 65.0691 7.92298 64.9537 7.81699C64.4057 7.28928 63.5248 7.39411 63.0237 7.79432C62.9352 7.85157 62.8451 7.90053 62.753 7.93901C62.864 8.03397 63.0064 8.10469 63.1323 8.16629C62.312 9.05423 62.3606 8.76199 62.2563 8.8346C61.4881 9.3637 60.9571 9.85723 60.4536 10.3958C60.2507 10.6344 59.8137 10.7387 59.4816 10.4607C59.1636 10.1793 58.8209 9.86925 58.4436 9.50402C58.6162 9.74131 58.7942 9.97755 58.9708 10.2148C57.6634 9.30898 58.2777 9.84848 59.1398 10.8024C59.2453 10.9173 59.3784 11.0183 59.5315 11.0905C59.3736 11.023 59.2365 10.9279 59.1238 10.8184C58.2865 10.0105 57.6051 9.64566 56.9234 9.06655C56.7312 8.90317 56.5165 8.69762 56.2972 8.47345C56.1522 8.306 55.8449 8.26539 55.6449 8.41558C55.366 8.64893 55.1201 8.84187 54.955 8.95837C55.1325 8.73116 55.3216 8.50905 55.5191 8.28978C55.7424 8.01038 56.237 7.98826 56.4999 8.27072C56.979 8.75383 57.4631 9.25292 57.9763 9.73569C57.9558 9.50303 57.9227 9.29016 57.9089 9.0428C57.235 8.7027 56.9291 8.31392 56.737 8.03368C56.6691 7.93625 56.5959 7.86022 56.5247 7.80927C56.1371 7.55135 55.8329 7.64719 55.6692 7.71115C55.4947 7.78901 55.3972 7.85153 55.1803 7.951C55.1299 7.97287 55.0714 7.99432 55.0021 8.01599C55.0894 8.07116 55.1611 8.11928 55.2437 8.16973C54.3743 9.0019 53.4244 9.83767 52.6859 10.6281C52.2864 11.0621 51.6141 11.0556 51.1765 10.7657C51.1452 10.7477 51.1141 10.7304 51.0831 10.7138C51.1754 10.4608 51.2811 10.2337 51.3651 9.96492C50.6628 9.52185 50.306 8.89776 49.7938 8.4455C49.2833 7.99535 49.3258 8.31855 48.7073 7.80779C48.5928 7.71321 48.4632 7.40752 48.1412 7.21508C47.8167 7.02013 46.3718 6.54905 46.6824 6.00937C46.2002 5.52307 45.7574 5.04916 45.2905 4.56764C45.7766 5.00582 46.2622 5.44501 46.7462 5.88133C46.4556 5.3843 46.1673 4.88972 45.8773 4.39209C45.7349 4.43396 45.5907 4.4774 45.4515 4.52015C45.2193 4.33226 45.0088 4.14551 44.8119 3.95874C44.3607 3.51869 43.6172 3.50728 43.1641 3.93477C42.7732 4.29162 42.373 4.65924 41.9541 5.10679C41.7813 5.29166 42.3869 5.05335 41.5465 5.8001C40.7061 6.54722 39.7723 6.79158 38.5521 8.27606C38.4906 8.35116 38.3548 9.01636 37.6869 9.31711C37.535 9.38565 37.9377 8.86053 37.6299 9.05873C37.3953 9.20983 36.6573 9.87454 36.2219 10.1641C36.1612 10.1783 36.1175 10.1561 36.0927 10.12C36.1245 10.1774 36.1837 10.222 36.2405 10.262C36.1741 10.3523 36.0534 10.4214 35.9128 10.427C35.9205 10.3112 35.9366 10.1963 35.962 10.0843C35.9277 10.1078 35.8814 10.1237 35.825 10.1172C34.8494 9.47818 34.0586 9.10055 32.8982 7.87242C32.7551 7.72222 32.5661 7.5951 32.3421 7.52218C32.5463 7.62392 32.7112 7.7771 32.8205 7.95014C33.0726 8.37821 33.3246 8.80595 33.5759 9.23203C33.7861 9.27504 33.997 9.31778 34.205 9.35893C34.5835 9.77244 34.9627 10.1864 35.3419 10.6003C35.658 10.9664 36.2913 11.0179 36.6799 10.6725C36.6824 10.6578 36.6845 10.6432 36.6864 10.6286C36.7142 10.4246 36.7407 10.2226 36.769 10.0184C36.9823 9.8299 37.1932 9.64294 37.4065 9.45438C37.4244 9.57273 37.4415 9.69117 37.4574 9.81158C37.8386 9.39707 38.2199 8.98175 38.5991 8.56934C38.2911 9.48848 37.1279 10.2931 36.7846 10.7268C36.664 10.8737 36.5887 10.964 36.6869 11.0402C36.3688 11.1531 36.0372 11.1206 35.7872 10.9929C35.7037 11.1069 35.4182 11.1047 35.1244 10.8178C34.9531 10.6453 34.7449 10.4073 34.4822 10.1227C34.548 10.3503 34.6304 10.592 34.6835 10.8081C34.1773 10.0764 33.0718 8.99251 32.4677 8.30297C32.4651 8.29983 32.4625 8.29673 32.4599 8.29366C32.2632 8.1007 32.587 8.13853 32.5304 8.06947C32.4188 7.94016 32.188 7.85415 31.9639 7.88992C31.7379 7.92068 31.5451 8.0655 31.4475 8.21812C31.2837 8.4433 31.1519 8.62696 31.0806 8.68585C30.1894 9.42271 29.336 9.74815 28.5908 10.533C28.4243 10.7087 28.1881 10.8579 27.8545 10.89C28.3759 10.9777 28.618 10.7337 28.7212 10.6634C28.9429 10.4862 28.7652 10.7031 29.143 10.5222C29.3184 10.4385 30.9161 9.02962 28.9925 10.8708C28.985 10.8779 28.9738 10.8882 28.9591 10.9014C28.8639 10.9901 28.6203 11.1828 28.2524 11.2303C27.8924 11.285 27.418 11.1493 27.1367 10.8055C26.27 9.73849 25.3149 8.46 26.1625 9.0382C25.6579 8.64349 25.2255 8.33541 24.7702 8.00042C24.658 7.91564 24.5305 7.8532 24.396 7.81803C24.0362 7.45066 23.5435 7.48651 23.3251 7.57996C23.0898 7.67804 23.0453 7.78967 23.0918 7.83663C23.1882 7.92508 23.6352 7.93953 23.8395 8.12201C23.7204 8.15273 23.6162 8.21472 23.5311 8.30176C23.4593 8.37473 23.3865 8.44838 23.3113 8.52372C23.4495 7.77364 21.1669 10.0165 20.5547 10.9398C20.3493 11.2488 21.1668 10.6278 20.6189 11.2696C20.3142 11.5314 19.9651 11.8249 19.6417 12.1001C20.2708 11.8611 19.4948 12.7889 19.7058 12.976C18.9849 13.3443 18.1919 13.3843 18.2872 12.8811C17.9196 13.4137 17.5498 13.9487 17.1832 14.4822C17.4395 14.3206 17.698 14.1557 17.9542 13.9939C17.4818 14.3927 17.0084 14.8643 16.5573 15.3279C16.3008 15.5917 15.9393 15.741 15.5858 15.7435C14.3753 15.7632 13.3648 15.7563 13.112 15.4086C12.8363 15.4129 12.5577 15.4166 12.282 15.4209C12.1967 15.522 12.1143 15.6233 12.0291 15.7245C10.7817 15.6375 9.5371 15.5494 8.2897 15.4614C9.40039 15.398 9.66479 15.2538 10.8296 15.371C10.3807 15.2545 9.92349 15.1371 9.48315 15.02C7.72959 15.3336 7.49038 15.5419 4.85019 15.4482C4.73082 15.4441 2.73596 15.1779 2.66775 15.1517C2.35524 15.0328 2.82961 14.8606 2.69046 14.8005C2.30394 14.6325 -0.0448226 14.2054 0.000651553 14.1412C0.574768 13.356 8.47723 13.3729 10.6145 13.3398C12.2742 13.3144 13.9312 13.2945 15.5858 13.2796C15.3034 13.2762 15.0212 13.3901 14.8195 13.5902C17.1397 11.2319 19.4667 8.89346 21.798 6.56868C22.947 5.36767 25.0546 5.37041 26.1997 6.57093C27.06 7.43566 27.9184 8.30097 28.7755 9.16673C28.3667 8.74566 27.6313 8.75125 27.2306 9.17285C28.0981 8.31565 28.966 7.45976 29.8342 6.60487C30.9668 5.42615 33.0363 5.43441 34.1568 6.61381C35.0118 7.48321 35.866 8.35288 36.7195 9.22274C36.3381 8.83395 35.6586 8.84344 35.2912 9.23345C37.5085 7.05929 39.7266 4.88806 41.9443 2.71499C43.0201 1.59755 44.983 1.60723 46.0445 2.72617C48.2164 4.94174 50.3909 7.15663 52.5725 9.36969C52.269 9.06035 51.7289 9.06685 51.435 9.37723C52.302 8.52132 53.1687 7.66421 54.035 6.80562C55.0607 5.73578 56.9399 5.73907 57.9606 6.81007C58.8188 7.67441 59.6787 8.53837 60.5404 9.40188C60.2563 9.10791 59.7438 9.10817 59.4602 9.40243C59.6353 9.22732 59.8103 9.05213 59.9854 8.87686C60.1451 8.71632 60.0029 8.71394 60.0683 8.64282C60.4757 8.20224 61.0055 7.89933 61.1673 7.74767C61.5127 7.42333 61.2243 7.50374 61.4697 7.2598C61.6409 7.08993 61.8117 6.92097 61.9822 6.75281C63.046 5.64732 64.9738 5.67048 66.0075 6.76317C66.8652 7.64087 67.7094 8.51226 68.5585 9.38377C68.2604 9.08512 67.7377 9.09495 67.4543 9.39654C68.1627 8.70146 68.8731 7.99816 69.589 7.27706C69.7532 7.11167 69.6655 7.36051 69.9414 7.05766C70.0834 6.90085 70.4283 6.31044 70.7648 5.97259C71.9401 4.79262 72.9722 3.84636 74.2164 2.60662C74.7163 2.10838 75.4065 1.43357 76.039 0.809624C76.6653 0.175163 77.5868 -0.086347 78.3605 0.0248251C78.9491 0.0992054 79.54 0.368175 79.9816 0.789035C80.1829 0.960643 80.3856 1.13047 80.5668 1.31097C81.0381 1.78029 80.8295 1.79681 80.8946 1.8764C81.1805 2.2255 81.3481 2.14581 81.6456 2.45123C82.1984 3.01974 82.1461 3.13245 82.8622 3.83909C83.3743 4.34396 84.599 5.44663 85.2568 6.07099C86.2039 7.1534 87.3902 8.35392 88.4997 9.44253C88.2272 9.15371 87.744 9.16674 87.4846 9.42679C87.6086 9.2983 87.7295 9.17279 87.8469 9.05092C88.6593 8.20745 88.849 8.24373 89.1873 7.90676C89.5326 7.56236 89.8418 7.23009 90.134 6.90467C91.117 5.84561 92.9095 5.81565 93.9374 6.83325C94.3228 7.17343 94.7078 7.52336 95.1022 7.91728C96.5857 9.39933 97.8016 10.8116 99.2269 12.2594C99.4581 12.4942 99.5058 12.3394 99.7362 12.5662C100.12 12.944 100.553 13.368 100.98 13.7903C100.832 13.6382 100.621 13.5522 100.414 13.5531C100.869 13.553 101.301 13.556 101.676 13.5644C102.864 13.591 103.302 13.7975 104.464 13.7594C104.805 13.7481 104.905 13.5691 105.476 13.5482C106.388 13.5155 107.388 13.6765 108.025 13.6961C108.897 13.7224 108.139 13.5384 109.315 13.5669C109.364 13.5682 109.54 13.6982 109.792 13.6928C110.528 13.6778 110.455 13.5759 111.533 13.5895C111.636 13.5913 113.064 13.7187 113.206 13.7196C114.042 13.7244 115.724 13.7725 116.218 13.7483C117.986 13.6621 116.595 13.4666 118.098 13.8867C118.76 13.7871 119.417 13.6865 120.118 13.5907C119.65 13.6809 121.551 13.8194 121.684 13.8112C122.789 13.7461 122.131 13.5839 123.532 13.6154C121.682 13.9782 125.34 13.6687 126.155 13.6627C130.083 13.6314 133.653 13.7349 137.601 13.7458C138.922 13.7493 140.693 13.6802 142.091 13.6871C142.417 13.6884 142.171 13.7715 142.458 13.7743C142.744 13.7765 142.426 13.6812 142.753 13.6874C144.785 13.7277 146.377 13.9085 148.239 13.6955C148.329 13.7276 148.326 13.7526 148.477 13.7879C150 13.5973 152.934 13.871 154.036 13.9097C155.761 13.9707 156.202 13.8414 157.455 13.872C159.112 13.9129 161.599 14.1728 160.488 13.7526C161.625 13.7436 162.719 13.7441 163.867 13.7866C163.995 13.7915 163.907 13.8963 163.958 13.8986C164.282 13.9147 164.388 13.8211 164.606 13.8175C165.2 13.808 164.231 13.9172 165.077 13.8886C165.524 13.8732 165.777 13.7923 167.016 13.795C174.485 13.8128 182.594 13.8703 190.25 13.9098C190.776 13.9124 190.43 13.8156 191.089 13.8242C193.38 13.8543 197.481 14.027 199.456 14.0117C201.431 13.9967 200.985 13.859 202.221 13.8068C202.46 13.7967 202.264 13.8733 202.48 13.8753C203.933 13.8879 205.664 14.0139 206.841 14.0356C207.619 14.0502 207.556 13.9298 208.096 13.9232C208.901 13.9138 209.728 14.0375 210.157 14.0427C212.175 14.0662 213.562 13.9746 215.446 14.0301C215.373 14.0039 215.324 13.9797 215.261 13.954C217.492 13.9662 219.72 13.9783 221.951 13.9904C221.846 13.9667 221.744 13.9429 221.639 13.9188C224.257 13.9415 223.958 14.1913 223.728 13.6601C223.918 13.6423 224.12 13.6215 224.302 13.6052C224.228 13.878 225.811 14.0834 227.826 14.1582C227.974 14.1637 228.965 13.9042 228.857 14.2144C229.116 14.1392 229.27 14.0874 229.489 14.0215C229.915 14.1169 230.347 14.2108 230.773 14.3052C231.003 14.2919 231.237 14.2791 231.467 14.2659C231.501 14.2056 231.475 14.1427 231.549 14.0837C232.617 14.0783 234.809 14.1598 235.653 14.1549C237.751 14.142 239.886 13.9903 241.517 14.1678C242.312 14.1529 241.523 14.0349 242.705 14.0537C242.838 14.1124 242.964 14.1686 243.103 14.229C244.069 13.9723 244.271 14.1315 245.595 14.1896C246.49 14.2291 247.076 14.168 247.928 14.1831C248.144 14.187 248.114 14.2621 248.262 14.2601C248.757 14.2537 250.169 14.1552 250.518 14.1537C253.684 14.1373 256.404 14.1585 259.419 14.1954C259.743 14.1992 259.323 14.1258 259.659 14.1301C260.198 14.1367 259.881 14.246 260.193 14.2524C261.065 14.2696 261.072 14.1536 262.288 14.1518C266.292 14.1465 270.896 14.2479 275.079 14.2686C275.21 14.269 275.202 14.2038 275.345 14.2037C276.271 14.2038 277.208 14.2947 278.05 14.2963C279.445 14.2994 280.494 14.2128 281.872 14.218C284.566 14.2279 286.974 14.2816 289.745 14.2933C292.013 14.303 293.982 14.3014 296.469 14.3102C307.332 14.3448 318.416 14.206 329.353 14.3413C329.631 14.3448 329.518 14.3925 329.603 14.3907C330.41 14.3727 330.482 14.3084 330.769 14.4448C331.797 14.4215 332.122 14.3215 333.363 14.3334C334.025 14.3397 333.531 14.4937 334.651 14.4173C335.662 14.3484 334.546 14.2598 337.553 14.3575C337.632 14.3602 338.024 14.4552 338.649 14.433C339.277 14.4111 338.55 14.3416 340.062 14.3274C341.559 14.3135 343.223 14.323 344.958 14.3377C344.946 14.3434 344.949 14.3532 344.953 14.3564C344.961 13.5002 344.969 12.6346 344.974 11.7707C344.974 11.2502 345.19 10.7356 345.559 10.3718C346.116 9.82006 346.669 9.2699 347.211 8.72624C347.318 8.61852 347.962 7.95618 348.542 7.35523C349.411 6.44688 350.71 6.79956 351.011 7.03391C351.169 7.12581 351.297 7.2274 351.402 7.32647C351.914 7.78456 351.912 7.70516 352.71 8.49019C353.313 9.08383 353.777 9.63131 354.432 10.296C354.608 10.4731 354.758 10.6872 354.867 10.9306C354.922 11.074 355.057 11.2681 355.086 11.7707C355.1 11.9448 355.11 12.1906 355.104 12.5496ZM152.302 15.8928C152.069 16.0274 151.649 16.5242 150.239 16.3765C150.106 16.3624 150.827 16.0193 150.049 15.966C150.81 15.9288 151.552 15.9163 152.302 15.8923C152.302 15.8925 152.302 15.8927 152.302 15.8928ZM357.688 15.898C356.779 15.8888 355.867 15.8796 354.958 15.8702C354.739 15.869 354.517 15.8189 354.319 15.7242C354.521 15.8115 354.742 15.8526 354.958 15.8456C355.54 15.819 356.122 15.7925 356.702 15.7661C357.032 15.8102 357.358 15.8543 357.688 15.898ZM236.37 16.0045C236.371 16.0045 236.372 16.0045 236.373 16.0045C235.264 16.0585 234.155 16.113 233.047 16.1679C233.163 16.129 233.28 16.09 233.396 16.0512C234.272 15.9887 235.147 15.9267 236.02 15.8651C236.136 15.9116 236.253 15.9581 236.37 16.0045ZM245.127 15.5931C245.834 15.6371 245.661 15.7121 246.05 15.7845C246.05 15.7844 246.05 15.7842 246.05 15.7841C246.153 15.803 246.632 15.8189 246.817 15.8215C246.749 15.7749 246.66 15.7289 246.587 15.6825C248.238 15.5695 251.467 15.9624 247.286 16.132C247.349 16.073 247.409 16.0142 247.471 15.9553C245.393 15.9758 243.077 15.8494 245.127 15.5931ZM135.597 16.135C133.823 16.391 133.255 16.4474 131.103 16.2766C131.407 16.2036 131.711 16.1308 132.015 16.0581C132.37 16.1313 132.723 16.2038 133.078 16.2766C133.079 16.2766 133.08 16.2766 133.081 16.2766C133.152 16.1992 133.224 16.1218 133.292 16.0445C134.059 16.0748 134.83 16.105 135.597 16.135ZM313.014 15.6625C313.508 15.9765 313.366 15.7936 311.954 15.8671C311.465 15.8927 311.941 15.9471 311.637 15.9569C309.995 16.0109 309.864 15.798 310.23 15.6867C311.16 15.6782 312.099 15.6703 313.011 15.6625C313.012 15.6625 313.013 15.6625 313.014 15.6625ZM350.466 8.16023C350.467 8.16074 350.467 8.16126 350.468 8.16177C350.444 8.21499 350.084 7.99504 350.419 8.30934C350.427 8.31912 350.436 8.32923 350.445 8.33969C350.435 8.33036 350.426 8.32104 350.417 8.31171C350.179 8.06214 349.738 8.06163 349.499 8.31259C349.477 8.33533 349.454 8.35807 349.431 8.38082C349.453 8.35732 349.475 8.33373 349.497 8.31008C349.557 8.24294 349.631 8.18822 349.713 8.15049C349.621 8.1644 349.528 8.19891 349.442 8.25517C349.433 8.26202 349.423 8.26888 349.414 8.27573C349.325 8.4722 349.162 8.57382 348.722 8.97819C348.896 8.91902 349.069 8.86036 349.243 8.80098C348.737 9.27513 348.229 9.75087 347.722 10.2247C347.701 10.2162 347.681 10.2077 347.66 10.1992C347.494 10.4029 347.33 10.6051 347.165 10.8089C347.097 10.8418 347.031 10.873 346.964 10.9058C346.827 11.0597 346.691 11.2138 346.555 11.3679C346.515 11.4171 346.485 11.4721 346.464 11.5295C346.427 11.5406 346.443 11.4626 346.44 11.4451C346.45 11.4302 346.353 11.4619 346.336 11.7707C346.337 11.8251 346.338 11.8844 346.338 11.9491C346.329 11.8896 346.319 11.8301 346.309 11.7707C346.265 11.6016 346.293 11.396 346.408 11.2211C346.442 11.1739 346.476 11.1268 346.51 11.0796C347.471 10.122 348.432 9.16447 349.394 8.20693C349.67 7.91943 350.168 7.89928 350.466 8.16023ZM300.169 15.777C302.207 15.7606 301.633 15.8128 301.161 15.9758C300.832 15.9098 300.499 15.8435 300.169 15.777ZM195.185 15.7268C194.594 15.8763 194 16.0251 193.395 16.1707C192.19 16.257 190.984 15.9851 191.891 15.8764C192.982 15.7465 194.122 15.8887 195.185 15.7268ZM167.738 15.8223C169.213 15.8943 167.826 16.0844 167.493 16.1955C167.085 16.0192 166.516 16.0355 165.603 16.0163C166.461 16.0033 167.495 15.8099 167.738 15.8218C167.738 15.8219 167.738 15.8221 167.738 15.8223ZM218.911 15.8632C219.502 15.8582 220.09 15.8184 220.618 15.8652C220.459 15.9991 219.402 15.8791 220.158 16.0763C219.78 16.0804 219.402 16.0844 219.027 16.0889C219.265 16.006 218.944 15.945 218.913 15.8637C218.912 15.8635 218.912 15.8634 218.911 15.8632ZM280.426 15.9372C279.266 15.8054 279.046 15.8625 277.878 15.958C277.714 15.8484 279.107 15.663 279.979 15.6224C280.127 15.7274 280.275 15.8324 280.426 15.9372ZM30.9522 9.77196C30.9603 9.57826 31.3391 9.09576 31.8107 8.58134C31.892 8.45164 32.1232 8.46623 32.1903 8.58032C32.2713 8.66845 32.3461 8.75214 32.4129 8.82932C32.3099 8.77528 32.2064 8.7213 32.1031 8.66761C32.0995 8.66873 32.096 8.66998 32.0925 8.67134C32.0307 8.63534 31.9552 8.66795 31.9414 8.71207C31.6114 9.06557 31.2815 9.41909 30.9522 9.77196ZM165.168 16.0042C165.321 16.0095 165.466 16.0134 165.603 16.0163C165.451 16.0185 165.304 16.0156 165.168 16.0042ZM103.43 15.1653C103.916 14.9637 102.471 14.8948 104.225 14.9752C104.225 14.975 104.225 14.9749 104.225 14.9747C105.384 15.0275 105.64 15.0414 106.715 15.0577C106.328 15.315 104.149 15.4081 107.152 15.4607C107.192 15.4609 107.113 15.3077 107.593 15.3287C107.741 15.3352 108.215 15.4608 108.937 15.497C109.17 15.5086 110.921 15.5465 108.534 15.5499C108.605 15.7288 108.477 15.9101 108.482 16.0838C107.55 16.1358 106.834 15.7853 105.848 15.7946C104.385 15.8093 103.64 16.1684 103.359 15.6988C104.589 15.5825 106.703 15.5795 106.978 15.8595C108.169 15.8616 108.511 15.6324 107.551 15.5192C103.438 15.6655 106.422 15.1774 102.821 15.3618C102.778 15.4272 102.63 15.4976 102.653 15.5591C101.554 15.329 103.256 15.2373 103.43 15.1653ZM112.029 15.6596C111.319 15.7958 110.611 15.9336 109.903 16.0714C109.903 15.8492 110.293 15.6494 111.413 15.5242C111.617 15.5696 111.825 15.6149 112.029 15.6596ZM64.7119 8.64107C64.5869 8.65822 64.3992 8.60408 64.2158 8.55485C64.1801 8.56501 64.148 8.58089 64.1204 8.60141C64.1486 8.57123 63.9803 8.40384 63.7739 8.54453C62.7456 9.4706 61.5189 10.5954 62.6844 9.32265C62.7975 9.1992 63.2125 8.8442 63.6611 8.43172C63.8684 8.2508 64.1772 8.29821 64.353 8.41768C64.4884 8.52342 64.6108 8.6021 64.7119 8.64107ZM288.477 15.8064C287.875 15.7554 287.274 15.704 286.675 15.6524C287.598 15.6185 288.522 15.584 289.445 15.55C289.121 15.6352 288.801 15.7207 288.477 15.8064ZM185.377 15.5559C185.631 15.5596 184.786 15.701 185.789 15.6781C185.041 15.7686 184.341 15.8458 183.611 15.9318C183.392 15.8652 183.171 15.7988 182.952 15.732C182.781 15.7751 182.607 15.8181 182.437 15.8614C182.539 15.7635 182.63 15.668 182.738 15.5686C183.969 15.7771 184.251 15.5397 185.377 15.5559ZM221.969 15.192C222.191 15.3844 220.409 15.4997 222.162 15.5298C221.829 15.6564 221.294 15.7234 220.269 15.7358C220.104 15.6873 219.939 15.6392 219.775 15.5906C219.752 15.7209 219.488 15.7694 218.911 15.8632C218.911 15.8631 218.91 15.8629 218.91 15.8628C217.35 15.8743 217.443 15.8306 217.068 15.6153C218.72 15.7357 218.769 15.5389 219.894 15.4224C220.667 15.3424 221.677 15.3785 221.969 15.192ZM69.4373 10.4817C69.2106 10.8214 69.1669 10.9755 69.1411 11.0834C69.0738 11.2203 69.0418 11.3238 68.7433 11.4826C68.4845 11.6018 67.6922 11.9033 66.8832 11.0911C67.0769 11.1971 67.2859 11.2578 67.4851 11.271C67.9997 11.4692 68.6186 11.3308 68.9949 10.9371C69.1423 10.7853 69.2898 10.6335 69.4373 10.4817ZM227.732 15.8447C227.599 15.5515 226.499 15.3221 226.311 15.8019C227.383 15.898 226.86 15.6277 227.732 15.8447ZM168.241 15.2897C170.302 15.3061 169.912 15.6873 169.065 15.8798C168.934 15.8103 168.804 15.7407 168.676 15.6715C168.315 15.7034 167.954 15.7354 167.593 15.7671C167.809 15.6078 168.025 15.4484 168.241 15.2897ZM264.055 15.5062C262.481 15.697 265.755 15.6102 264.655 15.7293C263.777 15.825 262.619 15.6349 263.057 15.5143C263.361 15.5108 263.7 15.5083 264.052 15.5062C264.053 15.5062 264.054 15.5062 264.055 15.5062ZM254.944 15.5658C255.202 15.7736 254.83 15.7132 256.074 15.6747C256.429 15.6639 259.252 15.7387 258.067 15.569C257.058 15.5696 255.992 15.5673 254.944 15.5658ZM144.425 15.686C144.406 15.5666 146.58 15.3056 146.859 15.3708C146.859 15.3707 146.859 15.3705 146.859 15.3703C147.612 15.5473 145.319 15.5737 146.314 15.8167C144.111 15.6037 143.452 16.1254 143.606 15.4381C144.903 15.4078 144.289 15.5493 144.425 15.686ZM8.30636 15.606C8.30535 15.606 8.30434 15.606 8.30333 15.606C8.44931 15.6136 9.65214 15.8499 9.50587 15.9319C8.05939 15.863 8.31717 15.706 6.97054 15.9643C6.89671 15.8816 6.83346 15.8012 6.75396 15.7178C7.28828 15.6683 7.58446 15.5688 8.30636 15.606ZM60.8673 10.6562C61.2164 10.2537 62.0124 9.67811 62.4337 9.24326C62.0516 9.9699 61.491 10.6059 61.0536 10.9958C60.5791 11.4217 60.1022 11.3301 60.0667 11.2665C59.9974 11.1714 60.3462 11.2069 60.7966 10.7388C60.8191 10.7121 60.8427 10.6846 60.8673 10.6562ZM335.694 15.5885C335.693 15.5886 335.691 15.5887 335.69 15.5888C335.69 15.5886 335.691 15.5885 335.691 15.5883C335.692 15.5884 335.693 15.5884 335.694 15.5885ZM91.4329 8.55023C91.3589 8.57321 91.3094 8.57843 91.2801 8.56879C91.2783 8.56696 91.2764 8.56513 91.2746 8.5633C91.3247 8.56101 91.3767 8.55726 91.4329 8.55023ZM139.907 15.7255C139.002 15.558 142.018 15.2912 142.994 15.3549C142.926 15.431 142.915 15.4999 142.756 15.5873C141.969 15.3903 140.058 15.7533 139.907 15.7255ZM208.682 15.6186C206.298 15.6157 209.401 15.0504 209.529 15.5003C209.524 15.509 208.744 15.6178 208.682 15.6186ZM158.712 15.6441C159.319 15.4516 158.098 15.4008 160.051 15.4337C160.164 15.4833 160.278 15.5331 160.391 15.5827C159.832 15.603 159.271 15.6236 158.712 15.6441ZM193.061 14.8589C190.06 14.9535 187.19 15.13 189.145 15.6245C189.372 15.6085 189.602 15.593 189.829 15.5771C189.863 15.3362 190.702 15.4676 191.929 15.475C192.103 15.3798 192.784 15.3578 192.911 15.2772C193.158 15.1216 192.377 15.0112 193.061 14.8589ZM319.766 15.2811C319.717 15.3093 319.67 15.3378 319.622 15.3658C319.147 15.3977 318.671 15.4296 318.197 15.4619C318.273 15.4073 318.35 15.3528 318.427 15.2983C318.873 15.2925 319.317 15.2867 319.763 15.2809C319.764 15.281 319.765 15.281 319.766 15.2811ZM114.954 15.0584C114.681 15.5925 115.634 15.4928 117.566 15.2248C116.697 15.1696 115.824 15.1142 114.954 15.0584ZM241.287 15.0777C241.35 15.1903 241.411 15.3026 241.477 15.4152C242.503 15.2978 242.312 15.1697 241.82 15.0203C241.641 15.0394 241.466 15.0586 241.287 15.0777ZM256.066 15.0429C255.64 15.02 255.858 15.1075 255.813 15.1057C254.736 15.0591 254.584 15.0184 253.263 15.0836C253.101 15.1065 252.941 15.1307 252.779 15.1545C253.39 15.3832 253.834 15.2589 255.127 15.3925C254.894 15.3147 254.662 15.2366 254.429 15.1581C255.148 15.175 255.864 15.1915 256.582 15.2082C256.668 15.1843 256.753 15.1607 256.838 15.1369C256.583 15.106 256.319 15.0712 256.066 15.0429ZM325.255 15.3614C325.954 15.3685 326.656 15.3758 327.355 15.3829C327.381 15.3384 327.405 15.2937 327.431 15.2494C326.706 15.2864 325.979 15.3238 325.255 15.3614ZM100.599 15.3C100.544 15.3286 100.49 15.3573 100.442 15.3866C100.446 15.3509 100.507 15.3231 100.599 15.3ZM6.46166 15.0572C5.66884 14.9867 4.52637 15.0321 3.65674 15.0169C3.7251 15.2694 5.9354 15.2002 6.71155 15.3526C6.83627 15.3075 6.79678 15.0869 6.46166 15.0572ZM171.092 15.3054C171.291 15.2187 171.489 15.1325 171.685 15.046C172.166 15.0557 172.647 15.0659 173.13 15.0755C173.144 15.0048 173.158 14.9335 173.173 14.8629C171.044 14.9525 171.535 14.749 170.481 14.5449C170.686 14.7986 170.887 15.052 171.092 15.3054ZM345.694 13.3849C345.701 13.7748 345.71 14.101 345.721 14.3564C345.733 14.6484 345.616 14.8078 345.621 14.8569C345.611 14.9018 345.743 14.868 345.875 14.5854C345.889 14.5097 345.894 14.4327 345.89 14.3564C345.865 13.8946 345.84 13.4311 345.816 12.9699C345.775 13.1091 345.735 13.2485 345.694 13.3849ZM80.167 3.16087C79.436 2.53249 79.3812 2.22653 78.972 1.79864C78.7857 1.60459 78.4613 1.42008 78.0368 1.45609C78.368 1.48851 78.6754 1.65322 78.8778 1.89283C79.1463 2.21922 79.4145 2.54528 79.6822 2.87032C79.8426 2.96611 80.0066 3.065 80.167 3.16087ZM135.701 14.2813C135.159 14.172 134.144 14.6832 132.618 14.3008C132.254 14.4134 132.026 14.5213 131.714 14.6321C131.532 14.5108 131.325 14.3878 131.152 14.2671C131.151 14.2671 131.15 14.2671 131.149 14.2671C129.765 14.3048 130.662 14.4591 130.631 14.5877C130.616 14.6411 129.589 14.5501 129.91 14.667C130.464 14.8674 132.535 14.7552 132.541 14.9973C131.813 14.9175 130.392 14.9825 130.813 15.145C131.273 15.3229 132.612 15.026 133.464 15.1735C132.243 14.7861 134.766 14.9082 135.053 15.2037C136.534 14.9775 135.173 14.8844 133.655 14.8933C134.582 14.6672 133.218 14.7884 132.993 14.5989C133.949 14.4863 137.227 14.5873 135.701 14.2813ZM205.561 14.7959C204.537 14.8071 202.939 14.6938 202.238 14.8567C201.83 14.9519 203.432 15.027 202.327 15.1761C203.324 15.1619 203.552 15.1037 203.381 14.9725C203.609 14.957 203.839 14.9419 204.066 14.9268C204.171 14.9525 204.279 14.9778 204.384 15.0034C204.503 14.9497 204.623 14.8965 204.74 14.8429C204.981 14.8538 205.226 14.8647 205.467 14.8759C205.495 14.849 205.544 14.8256 205.561 14.7959ZM52.1994 10.6523C52.3208 10.6172 52.4306 10.551 52.5186 10.4609C52.5975 10.3808 52.6763 10.3006 52.7554 10.22C52.7013 10.2102 52.6417 10.2033 52.5834 10.1959C52.5393 10.1881 52.4951 10.1804 52.451 10.1727C52.6603 10.1491 53.7716 9.34604 54.0763 8.84436C54.2298 8.59234 53.5923 8.87755 54.4221 7.98856C53.8076 8.61966 53.2539 9.21993 52.6635 9.83901C52.6655 9.73246 52.6648 9.62751 52.6668 9.521C52.6663 9.52128 52.6659 9.52156 52.6655 9.52184C52.4744 9.6912 52.281 9.862 52.0894 10.0316C52.0851 10.0334 52.081 10.0347 52.0771 10.0358C52.196 10.2041 52.2454 10.4257 52.1994 10.6523ZM240.454 14.8538C239.485 14.9458 239.161 14.9944 239.618 15.1459C239.619 15.146 239.62 15.146 239.621 15.1461C239.982 15.0793 240.343 15.0128 240.704 14.9464C240.622 14.9156 240.54 14.8847 240.454 14.8538ZM95.0255 9.31131C93.0002 8.42266 96.6282 11.3569 96.1968 10.5388C96.1776 10.5018 95.0991 9.51103 95.0255 9.31131ZM167.863 15.0784C168.428 15.0732 168.995 15.0685 169.563 15.0634C169.433 14.9792 169.299 14.8953 169.168 14.811C168.733 14.8997 168.297 14.9891 167.863 15.0784ZM340.806 14.8977C340.21 14.7827 338.682 14.737 337.936 14.861C338.328 14.8764 338.72 14.8918 339.112 14.9071C338.371 14.9202 337.638 14.9349 336.891 14.9474C336.851 15.1087 337.712 15.0162 339.008 15.0619C339.209 15.0696 340.492 15.2682 340.934 15.1197C341.024 15.0893 339.659 15.0669 340.607 14.9791C340.193 14.9715 339.835 14.9725 339.443 14.968C339.414 14.9299 339.386 14.8918 339.355 14.8537C339.84 14.8684 340.321 14.8831 340.806 14.8977ZM199.603 14.8065C198.197 14.7911 198.023 14.8885 197.731 15.0611C198.384 15.042 199.038 15.0233 199.692 15.0044C199.661 14.9386 199.634 14.8728 199.603 14.8065ZM328.241 14.8378C327.472 14.8171 327.801 14.9136 327.491 14.9314C326.321 14.9984 325.522 14.9284 324.365 14.9701C324.442 14.9515 324.513 14.9341 324.587 14.9161C324.586 14.9161 324.585 14.9161 324.584 14.9161C319.107 14.8249 321.984 15.0519 325.261 15.0193C325.337 15.0553 325.411 15.0914 325.488 15.1271C326.954 15.0655 328.307 15.0073 328.241 14.8378ZM110.557 14.5998C110.495 14.56 111.026 14.3086 110.029 14.4249C109.239 14.7926 110.534 14.6115 110.859 14.7536C110.589 14.7886 110.312 14.8227 110.045 14.8578C111.66 14.9635 111.895 14.8763 111.307 14.6067C111.265 14.5885 110.62 14.6395 110.557 14.5998ZM100.395 14.3936C100.286 14.5649 100.284 14.6942 100.414 14.7293C100.951 14.7788 101.736 14.6416 101.69 14.5339C101.408 14.5266 101.19 14.62 100.891 14.5781C100.703 14.5518 100.602 14.4912 100.414 14.4474C100.403 14.4212 100.402 14.4001 100.395 14.3936ZM158.316 14.6286C158.257 14.6264 157.657 14.4188 157.717 14.5806C158.459 14.9642 159.953 14.7198 159.692 14.5871C159.197 14.5928 158.868 14.6495 158.316 14.6281C158.316 14.6283 158.316 14.6284 158.316 14.6286ZM346.017 10.5778C346.011 10.5807 345.961 10.6259 345.884 10.6974C345.673 10.8837 345.414 11.3136 345.419 11.7707C345.414 12.1161 345.415 12.4414 345.434 12.5246C345.484 12.6837 345.537 12.7627 345.588 12.882C345.571 12.5775 345.566 12.1577 345.559 11.7707C345.549 11.3352 345.765 10.9606 345.951 10.7639C346.096 10.5966 346.146 10.5111 346.014 10.5799C346.015 10.5792 346.016 10.5785 346.017 10.5778Z" fill="#3D3638"/>
<defs>
<g id="stroke0_6312_11905" data-figma-scatter-ref="stroke0_6312_11905_ref" data-figma-scatter="f0.39_w0_aj61_sj0_r179_s13211233861374555054_sw1">
<path d="M84.7266 363.422C85.6806 360.935 87.8912 361.8 90.5372 365.694C94.3747 371.342 94.2353 381.473 90.2676 385.274C85.0886 390.236 83.0529 386.967 87.1719 380.302C88.5848 378.016 88.9575 376.506 88.3135 375.684C86.6635 373.578 84.1397 364.95 84.7266 363.422ZM112.562 370.346C116.788 367.256 129.072 372.294 129.072 377.117C129.072 380.962 115.972 378.178 112.11 373.512C110.811 371.942 110.861 371.59 112.562 370.346ZM130.128 343.893C134.104 341.339 135.466 344.775 133.602 352.65C132.904 355.602 133.098 355.947 136.21 357.263C140.454 359.059 143.359 362.273 142.875 364.638C142.407 366.926 138.563 366.646 132.112 363.856C124.693 360.648 124.572 360.525 124.572 356.116C124.572 352.747 123.981 351.471 121.263 348.989C117.013 345.107 117.922 343.547 124.013 344.268C126.581 344.573 129.333 344.404 130.128 343.893ZM179.522 352.071C182.311 349.877 184.982 350.181 184.982 352.692C184.982 355.514 178.891 363.923 176.847 363.924C172.72 363.924 174.504 356.018 179.522 352.071ZM109.589 344.912C111.467 338.993 118.551 349.307 117.409 356.299C116.696 360.667 114.411 362.145 112.472 359.493C110.682 357.045 108.784 347.447 109.589 344.912ZM54.4366 345.962C58.8225 345.962 65.2746 358.18 61.628 359.579C58.569 360.753 52.0725 352.537 52.0723 347.494C52.0723 346.55 52.9797 345.962 54.4366 345.962ZM234.648 349.839C236.468 346.896 243.072 351.858 243.072 356.166C243.072 359.249 238.992 357.984 236.374 354.089C235.127 352.234 234.351 350.322 234.648 349.839ZM161.649 345.591C163.813 343.426 167.25 348.431 166.802 353.095C166.402 357.251 163.791 357.994 162.16 354.416C160.875 351.594 160.589 346.651 161.649 345.591ZM69.4922 339.712C71.4662 336.715 74.7898 336.061 75.7207 338.487C76.6931 341.025 71.6628 351.461 69.4668 351.462C66.8958 351.462 66.9132 343.628 69.4922 339.712ZM201.615 328.477C203.09 324.635 213.095 329.25 216.118 334.07C218.025 333.665 218.982 334.388 218.982 336.236C218.982 341.696 205.356 348.944 203.615 344.409C203.067 342.982 205.992 339.725 209.994 337.057C205.02 334.252 200.979 330.133 201.615 328.477ZM254.648 331.212C256.53 327.694 259.717 326.873 260.775 329.632C261.895 332.549 257.875 342.462 255.572 342.462C252.796 342.461 252.24 335.708 254.648 331.212ZM206.739 82.6289C209.384 79.984 212.798 83.8781 216.08 93.2871C217.524 97.4227 218.491 98.6683 220.902 99.4882C222.561 100.052 224.742 101.251 225.747 102.153C226.751 103.055 229.373 104.115 231.572 104.508C233.772 104.901 236.197 105.72 236.959 106.328C237.817 107.011 241.882 107.314 247.61 107.121C257.657 106.783 260.606 107.665 264.95 112.315C269.124 116.785 265.712 119.686 260.072 116.462C258.697 115.676 255.322 115.011 252.572 114.984C249.195 114.952 246.211 114.159 243.374 112.537C238.11 109.527 235.986 110.924 238.093 116.01C239.162 118.591 239.757 118.97 241.971 118.483C246.804 117.422 251.064 122.31 251.104 128.962C251.13 133.442 250.995 136.868 250.685 139.261C251.188 139.068 251.698 138.902 252.213 138.767C255.301 137.955 256.753 139.791 255.467 142.879C254.29 145.703 254.539 146.325 256.882 146.411C259.813 146.519 260.169 148.067 258.075 150.697C259.5 151.143 259.953 152.694 259.047 154.868C259.018 154.938 258.99 155.008 258.963 155.075C261.125 156.513 262.132 157.662 262.156 158.738C264.131 159.675 262.569 162.489 257.67 166.6C254.32 169.41 251.646 171.034 249.841 171.445C249.372 180.502 247.146 183.919 244.115 180.227C242.865 178.704 241.606 178.226 239.769 178.577C237.792 178.955 236.329 177.273 235.575 174.687C234.508 174.588 233.314 174.474 231.976 174.344C223.161 173.487 218.937 179.115 227.438 180.389C230.257 180.812 232.334 181.557 233.622 182.396C234.932 180.353 237.22 181.682 238.648 186.96C240.412 193.474 237.265 200.282 234.352 196.257C233.608 195.23 232.846 191.893 232.658 188.841C232.607 188.008 232.601 187.243 232.632 186.546C231.632 186.808 230.334 186.962 228.727 186.962C225.139 186.962 222.898 187.467 222.072 188.462C221.387 189.287 220.235 189.962 219.51 189.962C214.69 189.962 218.385 195.429 224.275 197.017C226.82 197.702 228.546 198.908 229.277 200.513C230.191 202.519 231.119 202.962 234.404 202.962C236.699 202.962 239.182 203.656 240.207 204.583C242.331 206.506 245.306 205.736 244.443 203.487C243.694 201.535 245.758 198.962 248.072 198.962C249.038 198.962 250.516 197.95 251.357 196.712C255.317 190.884 259.601 200.173 256.196 207.206C256.091 207.423 255.992 207.633 255.896 207.836C256.647 208.511 257.347 209.271 257.95 210.103C260.044 212.989 260.188 213.73 258.847 214.701C258.512 214.943 258.046 215.039 257.488 215.019C262.823 217.532 266.991 224.288 263.546 225.61C262.614 225.968 260.354 224.947 258.071 223.414C256.381 226.82 246.271 223.007 243.121 218.518C242.478 219.833 242.048 221.498 241.931 223.462C241.573 229.462 241.573 229.462 246.708 229.13C251.462 228.823 252.108 229.064 255.425 232.38C259.436 236.391 259.416 236.384 262.255 234.864C265.916 232.905 267.595 235.774 265.597 240.57C263.867 244.721 257.446 251.961 255.492 251.962C252.598 251.962 252.127 254.565 254.247 258.848C256.609 263.623 255.332 266.766 251.61 265.338C249.557 264.549 243.656 252.336 242.678 246.85C241.874 242.341 244.405 239.328 246.541 242.25C249.507 246.305 253.092 242.813 250.787 238.112C249.373 235.227 248.481 235.129 242.791 237.229C237.279 239.264 236.548 240.28 238.024 243.846C239.576 247.594 238.772 248.962 235.014 248.962C232.388 248.962 232.072 249.296 232.072 252.08C232.072 254.115 231.036 256.379 229.087 258.598C227.445 260.468 225.811 263.227 225.456 264.729C225.101 266.232 223.922 268.441 222.837 269.638C220.63 272.071 221.197 273.962 224.132 273.962C226.112 273.962 226.433 273.188 226.111 269.212C225.958 267.32 226.427 266.962 229.051 266.962C230.768 266.962 233.522 266.264 235.172 265.411C240.11 262.857 247.072 268.08 247.072 274.337C247.072 275.716 247.522 277.122 248.072 277.462C251.669 279.685 247.034 289.082 243.321 287.095C240.428 285.547 240.622 285.45 237.152 290.168C234.669 293.545 234.178 295.006 234.661 297.581C236.068 305.08 230.74 308.074 228.473 301.058C227.137 296.925 224.657 294.962 220.774 294.962C218.527 294.962 217.998 295.324 218.466 296.544C218.8 297.414 219.072 298.968 219.072 299.997C219.072 301.234 220.514 302.513 223.322 303.77C228.384 306.034 231.541 309.299 230.726 311.425C229.504 314.607 220.766 312.406 214.846 307.424C210.641 303.886 207.714 304.465 207.072 308.962C205.866 317.407 199.037 311.767 198.723 302.066C198.577 297.584 198.652 297.462 201.572 297.462C203.222 297.462 205.922 296.513 207.572 295.354C211.47 292.616 213.233 292.061 215.072 292.992C219.357 295.162 224.648 287.071 221.16 283.682C218.948 281.533 217.688 280.885 217.369 281.732C217.107 282.431 215.615 283.665 214.054 284.472C212.492 285.279 210.928 286.845 210.576 287.951C209.602 291.022 206.354 290.408 204.488 286.799C202.28 282.531 196.753 276.962 194.722 276.962C192.824 276.962 192.59 278.078 194.158 279.646C197.994 283.482 193.85 286.177 186.822 284.417C185.054 283.974 184.072 284.127 184.072 284.845C184.072 286.866 188.025 289.962 190.604 289.962C196.969 289.962 193.967 295.763 187.126 296.682C182.951 297.242 182.911 297.285 183.535 300.612C184.101 303.626 183.876 304.086 181.39 305.031C179.864 305.612 177.42 307.517 175.961 309.265C175.928 309.305 175.893 309.344 175.86 309.383C178.412 311.116 182.982 317.749 182.982 320.193C182.982 322.705 180.311 323.008 177.522 320.813C176.35 319.892 175.356 318.753 174.571 317.551C174.571 317.555 174.572 317.559 174.572 317.562C174.572 319.214 173.792 319.464 168.572 319.481C167.135 319.486 165.875 319.565 164.793 319.716C164.796 319.741 164.799 319.766 164.802 319.791C165.118 323.088 163.493 326.551 161.749 327.536C161.853 327.676 161.96 327.818 162.072 327.962C163.148 329.337 164.039 331.25 164.051 332.212C164.103 336.358 154.609 332.371 151.37 326.887C150.419 325.277 148.724 323.676 147.606 323.33C146.488 322.983 144.379 321.859 142.919 320.831C141.459 319.803 139.434 318.959 138.419 318.956C137.404 318.952 135.284 318.277 133.709 317.456C129.735 315.384 129.365 315.468 123.103 319.86C114.903 325.612 109.405 326.871 106.673 323.622C103.491 319.837 96.4944 316.666 94.125 317.934C91.082 319.563 88.2653 319.145 87.5723 316.962C87.2233 315.862 86.5996 314.962 86.1866 314.962C83.2776 314.962 78.2192 308.138 77.6622 303.462C76.4182 293.023 76.3427 293.488 79.3223 293.145C87.323 292.224 73.887 268.886 65.751 269.572C56.6621 270.34 47.3589 263.351 55.8575 262.139C60.9293 261.416 62.3526 253.962 57.418 253.962C56.07 253.962 53.8918 252.79 52.5518 251.345C49.5969 248.157 46.4378 248.714 47.5635 252.224C49.7095 258.917 49.4346 260.94 46.2247 262.059C44.5358 262.648 42.8982 263.938 42.584 264.926C42.271 265.915 40.7899 266.995 39.293 267.325C37.7041 267.677 35.7356 269.281 34.5596 271.183C30.7147 277.401 26.0501 274.873 29.5108 268.447C32.5477 262.808 29.3459 257.595 25.169 261.375C22.1941 264.067 20.0689 262.755 20.0948 258.243C20.1198 253.924 23.3945 245.963 25.1465 245.962C26.0125 245.962 25.997 245.575 25.0831 244.474C24.0021 243.172 23.4767 243.25 20.875 245.103C16.5261 248.199 14.0489 245.844 16.5557 240.995C18.1046 237.999 18.1045 237.655 16.5577 235.945C12.8147 231.81 17.5807 228.141 26.8536 228.018C32.1423 227.949 33.6194 230.291 30.0899 233.148C27.894 234.927 27.8442 235.237 29.1221 239.11C30.318 242.734 30.2846 243.334 28.8292 244.398C25.3942 246.909 27.8521 255.012 32.5411 256.635C37.9657 258.513 39.4642 257.766 38.7774 253.53C38.3614 250.968 38.6985 249.705 40.1495 248.393C41.3084 247.343 42.0723 245.338 42.0723 243.344C42.0723 241.525 42.9164 237.882 43.9483 235.249C47.7282 225.603 47.7558 223.558 44.0792 225.459C39.4692 227.843 37.9022 226.882 38.6612 222.134C39.6091 216.206 34.376 215.28 32.544 221.052C31.692 223.738 29.2417 223.427 27.8907 220.462C27.0277 218.567 25.9904 217.962 23.6084 217.962C17.7777 217.961 9.82747 206.374 13.0176 202.528C13.7326 201.667 14.9792 200.962 15.7881 200.962C16.5964 200.962 18.4182 200.048 19.837 198.933C23.3228 196.191 24.9154 197.743 23.2735 202.284C21.6987 206.637 21.7571 208.021 23.6709 211.858C25.5339 215.591 27.158 215.477 28.211 211.539C29.095 208.233 31.8386 204.962 33.7276 204.962C36.3184 204.962 35.0397 202.975 31.4961 201.494C23.8622 198.305 30.0697 194.321 38.3936 197.067C41.8283 198.201 42.3858 198.154 43.2247 196.656C44.8466 193.756 46.6414 194.771 49.0723 199.962C50.3603 202.712 51.9581 204.962 52.6211 204.962C54.7489 204.962 56.5473 207.887 55.2305 209.204C51.205 213.23 54.4757 224.483 59.4024 223.56C65.1453 222.482 67.9553 217.126 65.1543 212.594C63.9154 210.59 63.0723 207.535 63.0723 205.051C63.0723 200.875 63.0727 200.875 59.3702 201.169C55.9342 201.441 55.4924 201.152 53.2754 197.178C49.6856 190.744 51.3838 189.325 58.7647 192.589C67.1976 196.319 68.5277 195.324 62.8389 189.542C58.51 185.142 57.8247 184.794 54.8389 185.469C53.0429 185.875 48.1707 186.342 44.0127 186.507C38.4609 186.726 35.4809 187.379 32.7959 188.963C27.7291 191.952 24.1098 187.666 28.5723 183.962C30.6302 182.254 30.4579 181.095 27.8282 178.964C25.0882 176.746 29.7969 168.756 34.2139 168.125C35.5119 167.94 37.554 166.59 38.753 165.125C40.6799 162.772 41.1791 162.611 43.0401 163.743C44.7888 164.808 45.5162 164.765 47.3321 163.493C48.5341 162.651 50.993 161.962 52.7959 161.962C55.2427 161.962 56.0778 161.519 56.0909 160.212C56.1169 157.667 63.1549 152.225 67.4659 151.416C71.2246 150.711 74.0721 148.698 74.0723 146.746C74.0722 146.027 71.5917 145.861 66.5469 146.243C58.0339 146.886 56.8861 146.103 55.5381 138.723C54.5632 133.388 57.1897 132.549 61.1817 136.92C63.0555 138.972 64.7043 139.932 65.6963 139.553C66.5554 139.223 68.3421 138.682 69.6661 138.349C72.2356 137.703 72.9127 135.498 70.792 134.684C68.8301 133.931 65.9658 123.75 66.6924 120.112C66.9347 118.9 66.9289 117.73 66.7012 116.804C66.4014 117.01 66.0258 117.142 65.5684 117.182C63.7811 117.336 58.33 111.31 56.8565 107.932C53.1126 113.224 47.0723 115.788 47.0723 111.397C47.0728 109.311 50.5953 104.104 53.9581 101.217C58.7066 97.1402 61.0731 99.033 58.7911 104.435C59.6819 104.489 60.7565 104.87 61.879 105.605C64.2254 107.143 66.0152 109.495 66.9366 111.68C68.2352 111.421 70.1791 111.41 72.7784 111.647C76.5152 111.988 79.7126 112.62 79.8848 113.051C80.0568 113.482 83.2172 113.581 86.9092 113.272C93.1105 112.752 93.8566 112.909 96.7403 115.336C100.258 118.296 101.116 118.437 105.64 116.802C108.449 115.786 109.192 115.911 111.596 117.802C113.107 118.99 114.776 119.962 115.307 119.962C115.837 119.962 117.531 121.312 119.072 122.962C120.684 124.688 122.873 125.948 124.224 125.929C126.573 125.895 126.572 125.895 124.072 123.908C117.722 118.862 116.94 117.922 117.252 115.724C117.536 113.721 118.057 113.498 121.809 113.778C126.045 114.094 126.045 114.094 127.308 109.373C129.222 102.215 136.516 99.6121 141.071 104.461C143.07 106.589 143.653 106.762 144.996 105.632C153.019 98.8832 160.302 98.356 157.961 104.693C157.051 107.155 158.223 108.136 163.572 109.387C165.222 109.772 168.234 111.408 170.264 113.024C172.295 114.639 174.705 115.962 175.62 115.962C176.535 115.962 178.621 117.087 180.255 118.462C184.129 121.722 187.067 121.622 190.425 118.117C192.832 115.604 192.97 115.122 191.611 113.994C189.72 112.425 189.619 109.582 191.402 108.103C192.188 107.449 192.551 105.766 192.289 103.98C191.79 100.579 193.801 99.9698 198.484 102.103C203.522 104.398 207.067 100.438 203.008 97.0488C199.463 94.0888 199.639 92.4578 203.67 90.9248C205.549 90.2108 206.072 89.2788 206.072 86.6533C206.072 84.8067 206.372 82.9954 206.739 82.6289ZM38.7393 319.629C40.9943 317.373 43.4182 319.745 45.0342 325.788C46.1841 330.089 45.3435 332.962 42.9356 332.962C40.1627 332.961 36.6299 321.738 38.7393 319.629ZM281.533 316.027C283.862 312.258 289.062 318.943 289.068 325.712C289.071 329.278 288.755 329.962 287.099 329.962C284.006 329.962 279.655 319.067 281.533 316.027ZM69.3223 323.182C75.7043 320.105 87.3176 323.838 82.6319 327.461C79.0519 330.229 67.0723 328.827 67.0723 325.64C67.0725 324.885 68.0856 323.779 69.3223 323.182ZM186.062 310.212C188.27 306.59 189.241 306.255 191.085 308.476C193.607 311.515 190.34 323.962 187.019 323.962C183.529 323.962 182.929 315.35 186.062 310.212ZM254.844 301.893C260.797 298.117 262.077 298.813 262.057 305.819C262.026 315.804 254.496 324.731 253.078 316.462C252.676 314.119 251.979 313.394 249.902 313.154C244.232 312.497 246.587 307.128 254.844 301.893ZM154.939 296.289C155.096 289.337 150.202 285.906 146.339 290.259C142.703 294.355 139.191 295.811 135.606 294.711C130.365 293.102 127.072 294.383 127.072 298.031C127.072 301.837 125.108 305.648 121.261 309.304C117.354 313.018 114.482 312.557 114.814 308.269C115.046 305.246 114.913 305.139 110.314 304.663C107.706 304.393 104.672 304.012 103.572 303.816C100.002 303.183 100.265 309.251 103.922 311.853C105.55 313.013 107.226 313.961 107.648 313.962C108.069 313.962 109.193 314.666 110.144 315.525C112.542 317.695 118.106 316.512 122.714 312.85C126.764 309.631 129.215 309.224 131.072 311.462C131.863 312.415 134.073 312.962 137.13 312.962C139.777 312.962 143.17 313.429 144.671 313.999C149.959 316.01 149.595 313.26 144.212 310.532C138.666 307.722 137.053 304.736 139.058 300.991C140.337 298.6 143.883 298.828 149.413 301.655C153.753 303.873 154.79 302.866 154.939 296.289ZM169.655 310.703C164.846 308.409 163.859 308.496 161.077 311.458C158.138 314.586 159.121 315.707 163.433 314.148C166.736 312.954 171.456 313.874 173.528 315.659C172.913 314.307 172.577 312.971 172.56 311.852C171.884 311.765 171.027 311.357 169.655 310.703ZM65.5362 303.021C66.8164 300.951 70.0701 302.012 73.2989 305.552C77.4786 310.135 78.3645 312.475 76.5049 314.019C73.4409 316.561 63.3932 306.488 65.5362 303.021ZM52.1856 299.545C54.4226 296.701 57.3486 296.44 57.8497 299.04C58.2744 301.25 54.2931 305.961 52 305.962C49.4171 305.962 49.5037 302.954 52.1856 299.545ZM167.244 288.617C165.382 286.932 162.067 286.351 162.081 287.712C162.1 289.536 168.738 301.387 170.274 302.338C173.032 304.045 173.459 302.321 171.187 298.646C170.024 296.765 169.072 294.111 169.072 292.749C169.072 291.387 168.25 289.527 167.244 288.617ZM281.051 293.658C285.743 286.26 290.022 287.689 287.006 295.646C284.615 301.957 278.073 305.627 278.072 300.658C278.072 299.39 279.413 296.24 281.051 293.658ZM316.848 293.569C319.752 292.045 322.634 293.154 321.41 295.325C319.149 299.334 314.796 301.353 312.774 299.331C311.714 298.269 313.968 295.081 316.848 293.569ZM108.072 291.207C108.072 289.038 106.197 288.947 104.728 291.044C101.478 295.684 106.306 300.998 111.047 297.999C112.296 297.209 112.182 296.707 110.297 294.7C109.074 293.398 108.073 291.826 108.072 291.207ZM37.0215 275.962C39.5575 275.962 39.9333 284.831 37.5723 288.962C36.7864 290.337 36.1275 292.419 36.1075 293.59C36.0435 297.477 33.5448 298.478 29.0088 296.433C24.7279 294.503 23.999 291.781 27.584 291.116C30.7308 290.532 32.0723 288.945 32.0723 285.807C32.0724 284.207 32.7246 281.337 33.5215 279.43C34.5075 277.071 35.6267 275.962 37.0215 275.962ZM94.0723 294.52C94.0722 292.764 93.4722 292.506 92.6153 293.893C92.2983 294.405 92.4977 295.106 93.0567 295.452C93.6156 295.797 94.0723 295.377 94.0723 294.52ZM57.4786 273.347C58.9807 269.432 66.5353 276.646 68.0723 283.464C69.0983 288.012 68.4705 289.962 65.9795 289.962C62.6265 289.961 56.0416 277.092 57.4786 273.347ZM310.472 272.364C311.837 268.808 318.297 273.044 321.177 279.383C323.428 284.341 323.547 286.565 321.6 287.312C318.169 288.629 308.972 276.275 310.472 272.364ZM143.873 269.162C142.464 267.753 142.286 267.754 139.262 269.21C137.937 269.847 136.704 271.559 136.371 273.22C136.008 275.037 134.9 276.456 133.406 277.024C132.094 277.523 130.74 278.726 130.395 279.697C130.05 280.668 129.117 282.221 128.322 283.148C124.468 287.644 130.251 288.144 134.849 283.712C138.221 280.462 138.221 280.462 140.144 282.82C143.435 286.855 145.072 284.985 145.072 277.192C145.072 273.213 144.572 269.862 143.873 269.162ZM237.861 277.418C236.384 275.94 231.333 275.944 230.105 277.424C228.047 279.904 231.224 286.224 234.305 285.779C236.341 285.486 239.202 278.758 237.861 277.418ZM92.6729 271.727C88.5169 268.952 84.8238 272.095 85.2618 278.036C85.6868 283.807 87.8728 285.076 91.8887 281.884C96.4306 278.274 96.7278 274.434 92.6729 271.727ZM157.109 273.564C152.71 269.783 150.992 270.767 151.461 276.799C151.949 283.071 151.425 282.81 160.489 281.287C166.635 280.255 167.335 278.516 162.429 276.466C160.348 275.597 157.954 274.29 157.109 273.564ZM288.038 267.519C291.242 262.335 294.086 262.664 294.032 268.212C293.977 273.82 290.251 281.462 287.572 281.462C284.672 281.461 284.972 272.479 288.038 267.519ZM179.739 274.962C175.539 274.962 174.829 277.074 178.473 278.735C181.17 279.963 182.072 279.477 182.072 276.795C182.072 275.541 181.335 274.962 179.739 274.962ZM217.072 271.453C217.072 268.344 214.573 266.752 212.788 268.724C210.58 271.164 210.618 272.648 212.92 273.88C214.86 274.918 217.072 273.625 217.072 271.453ZM109.059 268.212C109.076 266.704 104.457 266.531 103.546 268.006C102.836 269.155 105.606 273.961 106.979 273.962C107.83 273.962 109.033 270.635 109.059 268.212ZM164.697 260.103C154.989 260.752 152.032 262.778 155.594 266.341C158.686 269.432 162.64 268.416 164.843 263.962C166.822 259.962 166.821 259.961 164.697 260.103ZM187.466 256.544C186.172 253.171 181.299 254.901 179.73 259.29C179.073 261.125 183.76 266.962 185.889 266.962C187.828 266.962 188.856 260.167 187.466 256.544ZM303.492 254.696C303.275 252.194 305.91 251.66 308.879 253.605C314.219 257.104 316.68 264.825 312.568 265.182C310.532 265.357 303.737 257.508 303.492 254.696ZM267.052 248.525C268.488 244.175 270.876 244.063 272.884 248.253C274.507 251.639 273.546 261.323 271.411 263.096C267.754 266.132 264.657 255.781 267.052 248.525ZM268.196 241.241C267.952 238.42 270.173 238.038 274.835 240.1C280.158 242.454 284.712 246.317 284.213 248.054C283.873 249.238 282.705 249.731 281.144 249.722C282.32 251.287 283.412 253.509 284.128 256.168C285.58 261.559 285.052 263.462 282.108 263.462C279.042 263.461 274.409 253.744 275.467 249.53C275.574 249.102 275.709 248.737 275.867 248.433C272.094 246.825 268.432 243.958 268.196 241.241ZM213.322 252.138C208.496 249.671 205.048 249.891 204.041 252.73C203.508 254.232 202.621 256.243 202.072 257.198C198.894 262.72 202.72 263.416 208.964 258.452C211.379 256.533 213.741 254.962 214.214 254.962C215.73 254.962 215.13 253.062 213.322 252.138ZM321.64 253.524C320.79 248.917 323.781 243.634 326.124 245.604C327.273 246.568 327.414 251.517 326.378 254.439C325.062 258.145 322.398 257.63 321.64 253.524ZM140.228 238.558C135.02 235.339 126.339 238.754 121.898 245.769C119.206 250.022 120.061 254.512 123.368 253.491C124.581 253.117 126.923 252.484 128.572 252.086C131.572 251.361 131.572 251.361 128.822 249.547C123.38 245.955 126.418 242.962 135.507 242.962C140.864 242.962 143.449 240.549 140.228 238.558ZM98.0723 248.962C97.5225 248.962 97.0723 249.412 97.0723 249.962C97.0723 250.512 97.5225 250.962 98.0723 250.962C98.6223 250.962 99.0723 250.512 99.0723 249.962C99.0723 249.412 98.6223 248.962 98.0723 248.962ZM68.0723 248.497C68.0723 246.346 64.8842 244.929 62.7422 246.128C61.3372 246.914 61.2097 247.422 62.1397 248.543C63.7057 250.43 68.072 250.396 68.0723 248.497ZM53.8887 237.712C54.2287 234.763 52.4385 233.996 50.2725 236.162C48.151 238.284 48.7998 241.14 51.3223 240.782C52.9332 240.553 53.6627 239.681 53.8887 237.712ZM277.492 229.696C277.275 227.194 279.91 226.66 282.879 228.605C288.219 232.104 290.68 239.825 286.568 240.182C284.532 240.357 277.737 232.508 277.492 229.696ZM82.1094 224.506C80.0005 221.965 78.7693 222.696 79.4473 226.087C79.7913 227.806 80.0723 230.731 80.0723 232.587C80.0724 238.377 86.9934 236.763 89.0635 230.489C90.5065 226.117 89.6677 224.672 86.1368 225.448C84.2908 225.853 82.9714 225.545 82.1094 224.506ZM222.244 230.617C220.289 228.848 218.073 228.418 218.072 229.807C218.072 231.008 221.505 233.961 222.901 233.962C224.617 233.962 224.332 232.506 222.244 230.617ZM295.64 228.524C294.79 223.917 297.781 218.634 300.124 220.604C301.273 221.568 301.414 226.517 300.378 229.439C299.062 233.145 296.398 232.63 295.64 228.524ZM320.166 220.677C319.843 216.259 327.976 218.623 331.95 224.103C334.044 226.989 334.188 227.73 332.847 228.701C330.341 230.514 320.427 224.241 320.166 220.677ZM200.169 227.577C198.583 225.666 196.728 225.428 197.322 227.212C197.55 227.9 198.587 228.626 199.624 228.827C201.255 229.143 201.329 228.975 200.169 227.577ZM160.132 224.962C159.614 224.962 158.912 225.412 158.572 225.962C158.233 226.512 158.657 226.962 159.514 226.962C160.371 226.962 161.072 226.512 161.072 225.962C161.072 225.412 160.65 224.962 160.132 224.962ZM237.546 216.918C236.61 215.403 232.069 215.808 231.435 217.462C230.715 219.337 227.353 219.337 224.072 217.462C220.409 215.367 218.883 215.605 219.253 218.212C219.687 221.266 229.149 226.41 232.695 225.52C235.28 224.871 238.706 218.796 237.546 216.918ZM212.014 202.962C207.956 202.962 204.463 206.849 207.072 208.462C208.992 209.648 208.046 212.405 204.458 216.08C199.523 221.133 201.181 224.37 206.282 219.643C207.659 218.367 210.167 216.751 211.857 216.051C215.628 214.489 216.009 213.572 215.341 207.645C214.852 203.309 214.606 202.962 212.014 202.962ZM91.8594 218.824C91.5214 217.808 91.2853 217.808 90.6553 218.828C89.8217 220.177 90.6609 221.707 91.6768 220.69C92.0085 220.358 92.0913 219.519 91.8594 218.824ZM277.545 208.767C280.894 205.638 285.255 209.988 285.255 212.462C285.255 215.319 280.404 214.907 277.721 214.587C273.993 214.141 273.932 212.142 277.545 208.767ZM306.658 202.841C306.121 194.097 310.425 192.745 312.648 200.96C314.412 207.474 311.265 214.282 308.352 210.257C307.608 209.23 306.846 205.893 306.658 202.841ZM242.018 190.047C245.178 181.876 249.653 182.444 248.246 190.837C247.131 197.493 241.43 202.366 240.461 197.493C240.214 196.249 240.914 192.899 242.018 190.047ZM289.766 186.278C295.943 183.937 300 186.962 298.5 190.462C297 193.962 288.52 193.778 285.781 193.778C280.512 193.778 283.589 188.619 289.766 186.278ZM277.11 182.982C279.662 180.922 282.705 181.448 281.928 183.815C280.492 188.188 276.617 191.016 274.239 189.428C272.992 188.593 274.581 185.027 277.11 182.982ZM206.155 172.712C205.249 168.284 203.193 168.377 199.213 173.024C194.907 178.052 194.824 179.875 198.784 182.408C200.803 183.699 202.01 185.297 202.034 186.712C202.06 188.18 202.682 188.957 203.822 188.947C206.32 188.925 208.265 187.48 207.986 185.855C207.855 185.088 208.096 183.219 208.522 181.699C209.022 179.913 208.858 178.407 208.057 177.442C207.376 176.621 206.519 174.493 206.155 172.712ZM335.603 181.776C337.061 178.839 340.045 178.048 340.327 180.523C340.847 185.096 338.506 189.284 335.683 188.832C334.2 188.594 334.156 184.69 335.603 181.776ZM0.822315 165.522C2.28752 164.014 14.2035 165.648 16.1846 167.63C19.0436 170.489 12.0068 180.698 5.21685 183.543C-0.740068 186.038 -1.78844 182.579 3.07231 176.462C4.72229 174.386 6.07231 172.499 6.07231 172.271C6.07077 172.043 4.72135 171.386 3.07231 170.811C0.200712 169.81 -0.878545 167.274 0.822315 165.522ZM158.072 180.962C158.072 178.688 155.565 178.237 154.749 180.364C154.121 182 154.859 182.962 156.739 182.962C157.472 182.962 158.072 182.062 158.072 180.962ZM266.724 163.427C267.369 159.673 274.532 162.569 278.592 168.225C281.766 172.649 282.316 174.808 280.552 175.92C277.443 177.879 266.015 167.554 266.724 163.427ZM318.003 168.339C317.024 164.658 324.74 164.302 330.79 167.747C335.521 170.443 336.922 172.176 335.783 173.923C333.776 177.001 319.081 172.386 318.003 168.339ZM261.603 167.776C263.061 164.839 266.045 164.048 266.327 166.523C266.847 171.096 264.506 175.284 261.683 174.832C260.2 174.594 260.156 170.69 261.603 167.776ZM216.87 166.956C215.182 163.99 214.027 163.34 212.739 164.629C211.484 165.884 212.073 168.693 214.146 171.327C216.643 174.502 220.072 174.869 220.072 171.962C220.072 170.862 219.735 169.959 219.322 169.956C218.909 169.951 217.806 168.601 216.87 166.956ZM202.232 134.533C197.419 134.299 196.357 135.103 198.564 137.31C200.912 139.659 199.588 143.606 194.989 147.962C194.118 148.787 192.623 152.083 191.665 155.287C189.759 161.662 187.168 164.962 184.072 164.962C181.982 164.962 181.666 165.737 182.68 168.38C183.619 170.826 189.072 170.491 189.072 167.988C189.072 166.845 190.232 165.414 191.825 164.59C196.38 162.235 198.578 159.276 197.099 157.493C195.299 155.324 196.59 152.962 199.577 152.962C200.988 152.962 203.205 152.266 204.502 151.416C205.738 150.607 207.234 150.302 208.611 150.423C209.243 148.264 211.216 145.737 213.828 143.753C213.277 143.73 212.644 143.741 211.898 143.774C205.946 144.042 204.256 142.857 205.984 139.626C207.923 136.004 207.01 134.765 202.232 134.533ZM229.019 148.862C227.81 146.605 225.546 146.378 224.73 148.417C228.59 148.693 227.46 151.742 221.67 156.6C221.157 157.03 220.659 157.43 220.179 157.805C220.21 157.859 220.244 157.912 220.275 157.968C221.212 159.615 222.787 160.963 223.775 160.966C224.764 160.968 226.959 161.816 228.655 162.85C230.351 163.884 233.059 165.02 234.672 165.374C234.947 165.435 235.246 165.531 235.563 165.656C235.883 164.365 236.344 163.108 236.96 161.958C238.467 159.143 240.801 159.328 242.188 162.372C243.373 164.973 243.995 165.353 245.423 164.041C244.167 163.032 244.137 161.357 244.946 159.516C243.898 159.292 243.449 158.275 243.697 156.442C243.87 155.169 243.713 154.197 243.165 153.366C242.741 153.737 242.112 153.962 241.282 153.962C237.748 153.962 230.031 150.752 229.019 148.862ZM181.065 159.458C179.845 158.703 178.636 161.446 179.543 162.914C180.602 164.627 182.072 164.106 182.072 162.02C182.072 160.953 181.619 159.8 181.065 159.458ZM118.896 161.295C118.41 158.786 116.072 158.442 116.072 160.879C116.072 162.107 116.719 162.962 117.646 162.962C118.577 162.962 119.088 162.282 118.896 161.295ZM90.0723 154.462C90.0723 152.94 87.9573 152.411 86.7393 153.629C85.4717 154.896 86.0808 155.962 88.0723 155.962C89.1832 155.962 90.0723 155.295 90.0723 154.462ZM38.3223 149.431C43.4433 147.172 54.5722 147.868 54.5723 150.449C54.5719 152.945 50.1592 155.151 43.9776 155.745C35.8049 156.53 31.9608 152.239 38.3223 149.431ZM280.026 133.048C281.533 130.233 283.868 130.418 285.255 133.462C286.524 136.247 287.148 136.487 288.806 134.829C291.761 131.874 293.303 134.738 292.913 142.455C292.453 151.572 290.223 155.019 287.183 151.316C285.933 149.794 284.674 149.316 282.836 149.667C278.156 150.562 276.355 139.908 280.026 133.048ZM243.939 136.536C242.161 132.728 240.679 132.335 239.323 135.311C237.717 138.836 238.736 145.047 241.213 147.899C242.028 145.765 244.038 143.359 246.612 141.496C245.834 140.346 244.945 138.691 243.939 136.536ZM103.733 128.962C97.9907 125.32 98.2172 125.316 94.8223 129.127C91.9507 132.35 91.3797 134.416 93.0723 135.462C93.6223 135.802 94.0723 137.193 94.0723 138.552C94.0723 140.043 94.7675 141.231 95.8223 141.543C96.7853 141.828 99.2708 142.959 101.347 144.055C104.943 145.955 107.072 145.911 107.072 143.937C107.073 143.439 108.387 141.106 109.992 138.752C112.87 134.531 112.739 131.962 109.646 131.962C108.995 131.962 106.335 130.612 103.733 128.962ZM224.712 125.962C223.817 125.962 223.506 126.778 223.806 128.345C224.056 129.655 223.769 131.032 223.167 131.404C221.489 132.441 221.865 135.464 223.901 137.307C226.319 139.496 226.872 139.398 227.253 136.712C227.484 135.087 228.354 134.372 230.382 134.14C234.791 133.633 233.898 128.589 229.322 128.148C227.535 127.975 226.072 127.413 226.072 126.898C226.072 126.383 225.46 125.962 224.712 125.962ZM173.322 133.13C164.392 133.988 163.956 134.115 164.271 135.775C164.879 138.975 175.072 138.729 175.072 135.514C175.072 133.686 174.575 133.01 173.322 133.13ZM26.3477 124.686C28.5112 119.05 44.3073 124.127 47.0303 131.334C49.2503 137.209 45.4815 138.56 40.7715 133.577C38.3765 131.043 36.4706 130.057 33.1846 129.654C28.4067 129.067 25.4827 126.942 26.3477 124.686ZM182.322 129.1C180.366 128.049 180.072 128.132 180.072 129.736C180.072 133.507 182.288 135.094 186.369 134.246C190.826 133.32 191.311 131.696 187.373 130.886C185.833 130.569 183.56 129.765 182.322 129.1ZM170.746 120.028C161.543 116.529 156.358 118.773 157.536 125.745C158.516 131.546 160.512 132.944 163.105 129.647C164.5 127.875 166.278 126.983 168.849 126.77C173.637 126.373 174.971 121.634 170.746 120.028ZM90.1465 120.636C85.3295 115.819 74.0726 120.403 74.0723 127.182C74.0723 131.055 79.6253 132.218 82.5723 128.962C83.5672 127.862 85.1603 126.962 86.1124 126.962C88.5253 126.962 91.6195 122.109 90.1465 120.636ZM145.244 110.617C142.92 108.514 142.147 108.533 141.447 110.712C138.609 119.543 135.249 121.307 133.931 114.659C133.394 111.952 131.619 112.532 131.247 115.535C131.049 117.127 131.696 119.019 132.88 120.315C133.957 121.495 135.593 123.953 136.515 125.776C138.187 129.081 147.287 129.848 150.424 126.947C151.586 125.872 150.276 120.375 148.509 118.909C147.719 118.253 147.072 116.492 147.072 114.995C147.072 113.497 146.25 111.527 145.244 110.617ZM210.716 114.475C210.083 112.824 204.563 112.359 203.625 113.878C202.411 115.842 204.888 119.822 206.984 119.274C209.692 118.566 211.429 116.333 210.716 114.475ZM306.09 112.946C309.439 109.817 314.072 108.911 314.072 111.385C314.072 114.242 308.949 119.086 306.266 118.766C302.538 118.32 302.477 116.321 306.09 112.946ZM110.632 105.849C112.542 102.155 114.468 102.554 114.882 106.729C115.093 108.856 114.527 110.507 113.095 111.939C109.287 115.747 107.63 111.653 110.632 105.849ZM99.7393 77.6289C101.291 76.0759 103.158 77.2073 105 80.8193C106.2 83.1711 108.172 85.1751 110.054 85.9541C115.958 88.4001 118.294 92.9343 115.072 95.6933C113.972 96.6352 113.073 97.9434 113.072 98.6015C113.072 99.2585 111.418 100.622 109.396 101.63C106.381 103.132 105.472 104.329 104.347 108.275C102.665 114.178 99.7743 114.565 99.2403 108.958C98.8203 104.544 97.5048 102.962 94.251 102.962C92.246 102.962 91.9401 103.229 92.8731 104.162C96.6326 107.922 93.3142 110.708 87.6524 108.546C80.6358 105.866 79.0499 100.032 85.3223 99.9765C87.5622 99.9575 87.5248 99.3517 85.087 96.2519C81.344 91.494 86.5467 90.3896 95.1905 94.1074C101.709 96.9123 102.912 95.875 100.693 89.3632C99.0245 84.4646 98.5636 78.8044 99.7393 77.6289ZM146.739 68.6289C148.055 67.3119 150.06 68.0119 153.42 70.9619C155.299 72.6118 157.51 73.9619 158.333 73.9619C159.155 73.9621 160.348 74.5897 160.985 75.3564C161.621 76.1233 163.59 76.9854 165.357 77.2714C167.125 77.5584 170.597 78.1167 173.072 78.5126C175.547 78.9076 178.058 79.6131 178.652 80.0791C179.301 80.587 181.078 79.9341 183.098 78.4443C186.501 75.9325 191.45 75.1459 192.56 76.9404C193.756 78.8763 191.08 81.6864 186.37 83.4394C179.821 85.8764 179.315 86.5272 181.865 89.2421C185.461 93.0691 186.573 97.5476 184.656 100.475C183.639 102.027 183.268 103.892 183.663 105.465C184.967 110.659 179.151 115.17 176.018 111.395C175.302 110.534 173.427 109.163 171.852 108.348C168.318 106.52 165.082 101.407 165.077 97.6455C165.072 94.2037 163.447 90.962 161.729 90.9619C159.138 90.9617 156.795 88.1885 156.178 84.3906C155.734 81.6641 154.974 80.3743 153.662 80.121C152.23 79.846 151.939 80.1723 152.443 81.4873C153.444 84.094 151.29 86.0468 148.209 85.3271C145.819 84.7691 146.015 85.1691 150.322 89.621C154.321 93.7538 156.672 98.9613 154.541 98.9619C152.416 98.9619 146.044 95.2691 142.443 91.9501C136.929 86.8673 135.869 86.9399 132.953 92.6054C128.879 100.522 123.173 101.607 124.549 94.2011C126.454 83.9532 131.085 78.7928 136.205 81.2148C143.494 84.6616 145.477 84.6424 143.667 81.1435C141.533 77.0168 141.659 74.883 144.072 74.2519C145.313 73.9269 146.072 72.8876 146.072 71.5117C146.072 70.293 146.372 68.9952 146.739 68.6289ZM74.6397 105.524C73.7903 100.917 76.7811 95.6337 79.1241 97.6035C80.2725 98.5682 80.414 103.517 79.378 106.439C78.0624 110.145 75.3975 109.63 74.6397 105.524ZM267.062 88.2119C269.256 84.6139 270.243 84.257 272.033 86.414C273.395 88.0561 271.713 97.7052 269.55 100.663C265.52 106.174 263.197 94.5509 267.062 88.2119ZM21.1963 93.2412C20.9515 90.4199 23.1734 90.038 27.835 92.0996C33.1581 94.454 37.7119 98.3168 37.2129 100.054C35.8715 104.722 21.6684 98.6807 21.1963 93.2412ZM180.072 97.5683C180.072 96.0667 177.646 94.723 176.679 95.6884C175.974 96.3934 177.947 98.9614 179.194 98.9619C179.677 98.9618 180.072 98.3343 180.072 97.5683ZM260.707 73.9785C266.487 70.3138 267.327 70.9501 266.459 78.3378C265.457 86.8588 259.046 92.8724 250.893 92.9394C248.887 92.9554 248.132 93.5262 247.893 95.2021C247.387 98.7468 244.55 98.4694 242.186 94.6445C238.079 87.9986 240.03 83.0757 245.244 86.9296C248.889 89.6244 250.941 88.3098 254.045 81.2929C255.374 78.2879 257.373 76.0935 260.707 73.9785ZM292.79 80.9257C297.686 77.822 299.072 77.8679 299.072 81.1386C299.072 83.8525 291.899 90.961 289.159 90.9619C283.889 90.9619 285.951 85.2627 292.79 80.9257ZM68.5254 77.0527C70.2013 73.8109 71.8986 73.1879 73.8174 75.1064C74.6784 75.9674 76.1067 75.9317 79.5596 74.9658C84.6286 73.5468 89.0723 74.6748 89.0723 77.3818C89.0723 79.5078 87.3542 80.2931 80.0723 81.4931C74.6222 82.392 73.5229 82.9078 73.2627 84.6904C72.8988 87.1832 70.5752 89.3893 69.2041 88.5429C67.2782 87.3529 66.8595 80.2737 68.5254 77.0527ZM168.566 65.9707C169.716 64.1107 172.162 64.9356 175.129 68.1845C178.377 71.7395 178.836 73.7319 176.607 74.5869C173.414 75.8113 166.84 68.7666 168.566 65.9707ZM135.446 65.1025C141.305 63.7865 141.694 63.801 143 65.374C144.536 67.2261 138.744 71.8162 133.87 72.6074C125.754 73.9244 127.219 66.9516 135.446 65.1025ZM122.756 55.3242C126.961 48.9053 129.799 57.2686 126.188 65.4345C124.112 70.1283 120.663 71.6637 119.428 68.4443C118.669 66.4673 120.7 58.4613 122.756 55.3242ZM232.273 55.1621C234.819 52.6152 236.558 54.6322 237.402 61.1162C238.331 68.2549 234.576 70.0447 232.136 63.6269C230.736 59.9451 230.789 56.6462 232.273 55.1621ZM206.655 42.1953C209.317 38.1323 211.53 39.7192 211.883 45.9492C212.138 50.4407 212.69 51.8666 214.977 53.9384C218.852 57.4504 220.408 61.4387 218.515 63.0097C217.338 63.9867 216.424 63.5049 213.592 60.413C210.3 56.8191 210.015 56.7051 208.265 58.289C207.248 59.2089 205.841 59.9618 205.138 59.9619C204.436 59.9619 202.976 61.0869 201.894 62.4619C199.854 65.0548 196.684 65.7598 195.522 63.8789C195.153 63.2839 192.877 61.9499 190.463 60.915C185.534 58.8021 184.774 56.4059 188.572 54.9619C189.947 54.4389 191.072 53.3025 191.072 52.4365C191.073 46.1567 197.097 42.723 198.923 47.9619C200.288 51.8768 202.591 51.7838 203.995 47.7568C204.609 45.994 205.806 43.4914 206.655 42.1953ZM125.427 41.6367C129.829 40.7407 131.457 41.5613 134.731 46.3212C139.905 53.8461 137.405 57.7098 131.726 50.9619C129.695 48.5479 128.419 47.9619 125.196 47.9619C118.999 47.9616 119.184 42.9076 125.427 41.6367ZM100.739 46.6289C101.838 45.53 110.789 45.8761 113.525 47.123C118.261 49.28 115.927 52.9618 109.822 52.9619C103.528 52.9617 98.154 49.2148 100.739 46.6289ZM270.146 20.7851C271.026 18.6601 271.934 17.9431 273.465 18.1611C276.158 18.5455 277.075 28.2098 274.724 31.4248C271.575 35.7306 267.693 26.7071 270.146 20.7851ZM105.702 16.9912C109.513 12.4622 112.484 12.8529 111.821 17.7959C111.206 22.3808 106.662 29.9617 104.528 29.9619C100.893 29.9613 101.628 21.833 105.702 16.9912ZM184.611 18.1093C187.401 15.9145 190.072 16.2188 190.072 18.7304C190.072 21.5524 183.981 29.9617 181.937 29.9619C177.81 29.9616 179.593 22.0563 184.611 18.1093ZM166.739 11.6289C168.903 9.46401 172.34 14.4688 171.892 19.1328C171.492 23.2886 168.882 24.0317 167.251 20.4541C165.966 17.6323 165.679 12.6894 166.739 11.6289ZM217.36 1.71186C221.826 -0.744958 224.072 -0.557173 224.072 2.27436C224.072 7.73417 210.447 14.9812 208.706 10.4472C208.058 8.76025 212.261 4.51786 217.36 1.71186Z" fill="#84CDE1"/>
</g>
<path id="stroke0_6312_11905_ref" d="M354.253 15.3564V11.1641L350.06 7.23389L345.868 11.1641V15.3564H354.253Z"/>
</defs>
</svg>
