<svg width="496" height="30" viewBox="0 0 496 30" fill="none" xmlns="http://www.w3.org/2000/svg">
<path d="M449.502 28.5961C450.767 28.6071 446.544 28.6108 449.348 28.6242C448.763 28.6277 448.175 28.6314 447.59 28.6351C447.442 28.627 447.29 28.6188 447.142 28.6106C447.927 28.6056 448.713 28.6008 449.502 28.5961C449.502 28.5961 449.502 28.5961 449.502 28.5961ZM450.574 28.4917C449.854 28.5149 447.568 28.5255 450.038 28.5432C450.234 28.5348 450.435 28.5265 450.632 28.5184C451.489 28.5235 452.352 28.5282 453.21 28.5325C453.518 28.5292 453.826 28.5259 454.135 28.5227C454.527 28.5348 454.917 28.5466 455.309 28.558C454.961 28.557 454.607 28.556 454.258 28.5549C452.88 28.5683 451.653 28.5746 449.782 28.5815C449.946 28.5844 450.111 28.5872 450.275 28.59C449.325 28.5871 448.376 28.5838 447.43 28.5802C448.251 28.5724 449.17 28.564 449.931 28.5573C448.713 28.5377 446.564 28.5534 445.446 28.5609C443.923 28.5709 444.267 28.5585 443.137 28.5656C442.956 28.5668 442.936 28.5762 442.579 28.5772C440.78 28.582 437.284 28.5836 439.328 28.5562C442.29 28.5539 444.817 28.5328 447.723 28.5347C446.954 28.5126 448.485 28.5026 450.574 28.4917ZM396.159 28.679C397.057 28.6538 398.885 28.6599 400.124 28.6725C400.125 28.6725 400.126 28.6725 400.128 28.6725C400.4 28.6754 401.018 28.7032 400.128 28.7043C398.677 28.7061 397.976 28.6599 397.214 28.6941C396.874 28.6888 396.516 28.6842 396.159 28.679ZM393.007 28.6888C392.117 28.6784 392.521 28.6396 393.635 28.6479C393.635 28.6479 393.635 28.6478 393.635 28.6478C394.1 28.6512 393.187 28.6823 394.854 28.6493C395.195 28.6718 395.53 28.692 395.867 28.7132C395.458 28.7146 395.086 28.7162 394.658 28.7176C394.946 28.6789 393.896 28.6989 393.007 28.6888ZM437.825 28.5707C437.685 28.5906 438.271 28.5894 439.269 28.6004C438.327 28.602 437.385 28.6036 436.447 28.6052C436.908 28.5934 437.364 28.582 437.825 28.5707ZM459.951 28.5313C459.952 28.5313 459.954 28.5313 459.955 28.5313C460.264 28.5288 460.573 28.5263 460.878 28.5239C461.062 28.5279 461.244 28.5317 461.429 28.5355C462.519 28.5292 463.615 28.5234 464.705 28.5179C464.573 28.5296 462.616 28.5317 461.538 28.543C459.935 28.543 459.162 28.5367 459.058 28.5253C459.354 28.5274 459.65 28.5294 459.951 28.5313ZM198.289 26.9415C198.01 26.7053 197.733 26.4724 197.454 26.2364C197.787 26.5888 198.12 26.9361 198.454 27.2928C199.002 27.7368 199.249 27.9879 199.558 28.3182C199.74 28.5085 200.015 28.6865 200.414 28.6971C200.634 28.7016 200.889 28.704 201.197 28.7023C206.331 28.6724 204.969 28.4769 209.606 28.763C205.883 28.7531 207.314 28.888 205.069 28.998C204.604 28.9175 206.828 28.733 205.321 28.6967C203.686 28.7518 202.091 28.8055 200.414 28.8531C200.053 28.8618 199.684 28.7211 199.415 28.461C198.879 27.9524 198.33 27.4296 197.762 26.8854C197.812 26.955 197.861 27.0242 197.91 27.0938C198.24 27.4099 198.568 27.7234 198.898 28.0396C198.521 27.7186 198.153 27.4053 197.771 27.0792C198.281 27.4645 197.103 26.3599 197.327 26.4413C197.427 26.4776 197.976 26.9375 198.304 27.2047C197.551 26.4212 196.778 25.6193 196.017 24.8274C196.445 25.2041 196.873 25.5805 197.298 25.9545C197.627 26.2822 197.954 26.6075 198.283 26.9352C198.285 26.9373 198.287 26.9394 198.289 26.9415ZM27.9345 29.5281C28.8728 29.4003 30.333 29.344 31.5858 29.3845C32.115 29.3952 32.6205 29.1812 32.9739 28.8502C33.1884 28.6655 33.3911 28.5016 33.5743 28.3668C33.3943 28.5482 33.2144 28.7295 33.0345 28.9108C32.6567 29.2927 32.1235 29.5148 31.5858 29.5139C30.3688 29.5186 29.1525 29.5234 27.9345 29.5281ZM458.953 28.5159C459.109 28.5179 459.261 28.5198 459.417 28.5217C458.727 28.5269 458.034 28.5322 457.345 28.5378C457.213 28.5314 457.077 28.525 456.941 28.5186C457.61 28.5177 458.284 28.5168 458.953 28.5159ZM414.855 28.5954C415.359 28.5937 415.404 28.5941 416.032 28.595C416.031 28.595 416.031 28.595 416.03 28.595C416.279 28.5954 418.362 28.5997 418.129 28.6102C417.095 28.6124 415.992 28.6143 414.934 28.6163C414.902 28.6094 414.895 28.6024 414.855 28.5954ZM427.028 28.5807C427.029 28.5807 427.03 28.5807 427.032 28.5808C427.408 28.5815 427.765 28.5836 428.153 28.5834C426.755 28.6002 426.534 28.575 425.263 28.5844C423.993 28.594 423.208 28.611 422.13 28.5752C422.531 28.569 422.962 28.5604 423.375 28.5534C425.179 28.5658 425.664 28.5511 427.111 28.5358C427.083 28.5508 427.056 28.5657 427.028 28.5807ZM220.617 28.8696C220.961 28.7999 221.346 28.8673 221.386 28.868C221.385 28.8681 221.384 28.8681 221.383 28.8682C224.436 28.8 220.986 28.9071 223.867 28.9131C223.439 28.9309 223.017 28.9497 222.592 28.9679C221.935 28.936 221.258 28.8994 220.617 28.8696ZM319.815 28.727C319.843 28.7398 319.877 28.7527 319.905 28.7655C318.173 28.7653 317.732 28.8178 316.293 28.7733C317.467 28.7575 318.641 28.742 319.815 28.7268C319.815 28.7269 319.815 28.7269 319.815 28.727ZM406.128 28.5619C408.048 28.5472 409.468 28.5411 411.312 28.5579C411.313 28.5579 411.314 28.5579 411.316 28.5579C411.422 28.559 410.908 28.5726 411.047 28.5757C411.427 28.5732 411.82 28.5698 412.204 28.567C412.256 28.5772 412.306 28.5874 412.358 28.5975C411.276 28.5963 410.193 28.5951 409.107 28.5937C409.268 28.5997 409.432 28.6056 409.592 28.6115C408.67 28.6163 407.752 28.6212 406.83 28.6262C407.151 28.6076 407.471 28.5893 407.787 28.5711C407.234 28.5681 406.681 28.5651 406.128 28.5619ZM290.989 28.6061C291.293 28.6222 290.729 28.6502 291.202 28.6638C291.675 28.6772 292.547 28.646 292.343 28.6921C291.706 28.699 291.037 28.7069 290.389 28.7142C292.477 28.7947 294.56 28.7167 294.592 28.8179C292.588 28.7952 290.94 28.8098 289 28.8422C289.08 28.7592 291.021 28.6863 289.799 28.6104C290.192 28.609 290.604 28.6072 290.984 28.6063C290.986 28.6062 290.987 28.6062 290.989 28.6061ZM487.002 28.4303C488.189 28.4346 490.907 28.4436 492.406 28.4498C492.775 28.4515 494.003 28.4571 493.997 28.4571C493.961 28.4575 492.461 28.4547 494.068 28.4584C493.527 28.4573 493.002 28.4563 492.466 28.4553C492.562 28.4563 492.658 28.4572 492.75 28.458C493.403 28.4587 494.057 28.4595 494.711 28.4604C494.743 28.4605 494.775 28.4607 494.807 28.4608C492.458 28.4581 493.845 28.4602 492.626 28.4601C493.748 28.4612 494.878 28.4619 495.996 28.4622C495.351 28.462 494.59 28.4618 494.021 28.4616C493.945 28.4624 495.302 28.4622 495.535 28.4622C496.846 28.4621 490.173 28.4634 489.627 28.4675C490.693 28.467 491.812 28.4662 492.902 28.4653C492.589 28.4658 492.272 28.4664 491.96 28.4671C489.487 28.4684 486.714 28.4692 483.832 28.4679C483.572 28.4682 483.311 28.4685 483.055 28.4689C483.131 28.471 483.203 28.4731 483.279 28.4752C482.886 28.4758 482.489 28.4765 482.096 28.4772C483.254 28.4685 481.65 28.4704 479.714 28.4653C480.744 28.462 482.015 28.4638 481.927 28.4587C478.392 28.4627 474.253 28.4541 470.814 28.461C469.96 28.4629 469.963 28.4752 467.956 28.475C468.024 28.4736 468.036 28.4709 468.08 28.469C464.609 28.4761 462.503 28.4831 458.896 28.4761C459.104 28.4823 459.309 28.4884 459.517 28.4944C460.283 28.4907 461.05 28.4871 461.811 28.4837C462.332 28.4928 461.562 28.4977 463.847 28.4953C465.718 28.4933 464.604 28.4906 465.113 28.4875C465.802 28.4836 466.407 28.4897 467.149 28.4854C467.722 28.4822 467.102 28.476 468.597 28.4768C467.996 28.4853 467.382 28.4947 466.777 28.5044C466.412 28.503 466.05 28.5014 465.686 28.4998C466.054 28.4969 466.417 28.4942 466.786 28.4915C465.487 28.497 464.26 28.5027 462.917 28.5095C463.354 28.4947 461.967 28.5016 461.213 28.5043C460.039 28.5085 461.045 28.4969 460.275 28.4995C459.506 28.5019 458.676 28.5153 457.285 28.5146C458.03 28.5063 457.017 28.5008 457.212 28.4937C457.409 28.4866 458.88 28.4844 457.467 28.4777C454.749 28.4849 457.698 28.5094 455.863 28.5157C453.658 28.5246 453.134 28.4778 453.791 28.4676C454.308 28.4597 456.087 28.4613 456.608 28.4541C453.422 28.4395 453.394 28.467 452.849 28.4729C450.869 28.4943 452.199 28.4383 449.854 28.4584C449.898 28.4476 449.934 28.4378 449.978 28.4275C449.573 28.4292 449.305 28.4316 448.816 28.4329C450.257 28.4551 449.078 28.4536 448.472 28.4536C447.518 28.4535 448.992 28.4643 448.739 28.467C448.058 28.4744 446.98 28.4714 447.641 28.4809C447.345 28.4765 447.023 28.472 446.719 28.4674C445.604 28.4726 442.985 28.5257 445.478 28.513C445.245 28.5317 444.439 28.5239 443.81 28.5217C443.18 28.5195 443.192 28.5317 442.639 28.5302C440.439 28.5237 441.878 28.5 442.227 28.4834C439.321 28.4965 442.166 28.5024 437.978 28.5141C437.574 28.5294 439.509 28.5422 437.897 28.5531C437.601 28.528 436.414 28.5107 434.102 28.5031C433.877 28.5095 433.653 28.5161 433.429 28.5226C432.166 28.4984 432.812 28.4701 430.475 28.5042C431.73 28.443 430.867 28.4826 428.775 28.4574C428.35 28.4522 429.332 28.4395 428.738 28.4328C428.47 28.4296 427.817 28.4393 427.16 28.4313C426.839 28.4275 425.34 28.4013 424.302 28.4126C425.064 28.4449 423.091 28.4726 424.783 28.4987C421.656 28.4938 419.468 28.5097 422.972 28.4639C422.178 28.454 421.384 28.4438 420.59 28.4333C420.037 28.4411 419.479 28.4491 418.922 28.4573C418.838 28.4288 418.922 28.4208 416.743 28.4248C417.689 28.4184 418.63 28.412 419.58 28.406C419.612 28.4003 419.744 28.3945 419.712 28.389C418.549 28.3986 415.275 28.401 414.481 28.4085C413.688 28.4161 415.22 28.4191 414.992 28.4267C413.088 28.4903 413.239 28.4432 411.873 28.4541C411.072 28.4608 412.986 28.468 412.557 28.4709C410.967 28.4817 410.229 28.4461 408.819 28.4452C409.32 28.466 409.817 28.4867 410.306 28.507C408.827 28.5067 407.178 28.5073 405.803 28.5149C405.263 28.5179 405.671 28.5336 405.583 28.5347C405.146 28.5405 403.366 28.551 403.178 28.5513C401.76 28.5528 401.719 28.5298 400.341 28.5295C400.882 28.5271 401.391 28.525 401.92 28.5228C402.16 28.4854 402.406 28.4482 402.646 28.4113C401.296 28.4079 399.945 28.4044 398.59 28.4007C399.58 28.4142 400.573 28.4273 401.563 28.44C400.016 28.4699 398.469 28.5013 396.922 28.5342C396.116 28.5153 395.314 28.496 394.508 28.4761C392.32 28.4814 392.761 28.5646 391.723 28.4922C391.078 28.4986 390.433 28.505 389.788 28.5115C389.88 28.5009 389.971 28.4903 390.063 28.4797C389.286 28.4863 388.509 28.493 387.731 28.5C388.549 28.538 389.35 28.5771 390.16 28.6122C388.629 28.6227 388.6 28.5905 388.372 28.5827C387.766 28.562 386.565 28.5923 386.084 28.5727C385.922 28.5659 387.421 28.5431 386.904 28.5187C386.803 28.5144 384.796 28.4222 383.515 28.4431C383.539 28.4602 383.638 28.481 383.69 28.4995C381.967 28.5109 381.088 28.4202 381.317 28.3947C380.399 28.412 379.057 28.413 378.869 28.4414C378.4 28.442 377.935 28.4426 377.466 28.4432C377.954 28.3736 375.998 28.3848 375.87 28.446C376.676 28.4476 377.482 28.4493 378.288 28.4508C377.679 28.5241 380.127 28.5682 375.033 28.5015C374.059 28.4626 376.764 28.5064 375.971 28.4774C374.592 28.4605 373.298 28.4751 371.987 28.4471C370.356 28.4119 372.363 28.378 368.563 28.422C376.944 28.5354 367.414 28.4982 363.478 28.5377C362.395 28.4214 359.071 28.3796 354.494 28.4149C354.971 28.4499 356.411 28.4322 357.241 28.4437C358.07 28.455 357.173 28.4753 358.206 28.4911C359.24 28.5068 361.436 28.5273 362.482 28.5498C361.596 28.5687 357.221 28.6179 360.114 28.5613C357.954 28.5296 356.94 28.4948 354.263 28.4888C353.462 28.5436 353.521 28.5779 350.912 28.5817C352.455 28.5035 349.49 28.4503 350.143 28.3693C351.993 28.3892 350.959 28.4665 352.029 28.5035C352.139 28.5071 353.863 28.4874 354.263 28.4888C352.524 28.4206 351.922 28.3933 352.992 28.3121C351.762 28.3181 350.996 28.3068 350.884 28.3465C350.628 28.3291 350.37 28.3115 350.117 28.2938C349.717 28.2938 349.357 28.295 348.932 28.2942C349.517 28.3556 348.383 28.317 347.578 28.3441C346.772 28.3715 347.853 28.4205 345.641 28.4206C346.378 28.4353 347.052 28.4478 347.766 28.4614C346.339 28.4772 344.908 28.4935 343.481 28.5102C344.483 28.5487 346.655 28.6033 346.595 28.6528C345.938 28.6347 343.687 28.6708 343.441 28.6727C342.487 28.6792 343.006 28.6464 342.934 28.6457C341.436 28.6318 340.201 28.6444 339.632 28.5952C338.506 28.6186 337.657 28.6067 336.462 28.609C335.805 28.6103 335.933 28.6476 335.548 28.6409C332.991 28.5963 335.427 28.5435 330.495 28.6427C331.092 28.669 331.681 28.6956 332.278 28.7215C331.721 28.7324 331.167 28.7435 330.61 28.7547C330.237 28.7504 329.868 28.7461 329.495 28.7418C329.503 28.6831 329.513 28.6243 329.521 28.5655C329.112 28.5626 328.701 28.5597 328.293 28.5567C328.994 28.5505 329.697 28.5444 330.399 28.5383C330.463 28.528 330.522 28.5177 330.587 28.5074C329.544 28.4918 328.506 28.4757 327.464 28.4594C327.444 28.4801 327.424 28.5009 327.404 28.5216C325.055 28.4936 324.999 28.4749 322.767 28.5342C321.047 28.534 319.647 28.6248 318.653 28.6645C318.297 28.6527 317.939 28.6407 317.579 28.6287C317.35 28.6472 317.12 28.6656 316.891 28.6841C316.438 28.6593 315.979 28.6342 315.526 28.6091C315.274 28.6674 315.143 28.686 316.91 28.7039C316.305 28.7765 313.194 28.7503 311.927 28.7271C310.966 28.7096 312.032 28.6466 311.912 28.6393C311.511 28.6143 309.927 28.6377 309.595 28.6338C308.188 28.6172 307.202 28.6211 305.932 28.6081C305.684 28.6055 304.993 28.5656 304.934 28.5643C304.477 28.5577 303.349 28.5384 303.221 28.5378C296.605 28.51 303.675 28.6849 297.523 28.6719C297.707 28.6957 297.876 28.7194 298.057 28.7431C297.592 28.7452 297.122 28.7473 296.658 28.7494C296.068 28.7301 296.781 28.6923 295.611 28.7235C295.687 28.6935 295.764 28.6635 295.844 28.6337C295.335 28.6502 294.844 28.6668 294.323 28.6836C293.505 28.5802 290.52 28.5573 290.732 28.4321C290.805 28.3894 292.921 28.3473 291.803 28.3015C290.894 28.2919 291.509 28.3429 291.138 28.3454C288.461 28.3626 288.616 28.2908 287.522 28.3091C287.35 28.34 287.169 28.3715 286.992 28.4028C286.58 28.3936 286.166 28.3843 285.749 28.3749C285.653 28.3959 285.553 28.4169 285.457 28.4379C285.846 28.4393 286.283 28.4408 286.64 28.4422C286.143 28.5227 281.575 28.5617 283.317 28.4909C284.026 28.4624 285.325 28.4746 284.504 28.3779C283.282 28.3913 281.895 28.4053 280.608 28.4192C280.568 28.398 280.531 28.3768 280.491 28.3555C278.757 28.3685 280.334 28.4542 280.331 28.4994C279.934 28.5008 279.533 28.502 279.137 28.5033C278.968 28.4827 278.809 28.4611 278.632 28.441C278.616 28.4739 278.394 28.5506 277.212 28.5225C276.452 28.504 277.649 28.4202 276.2 28.4316C276.308 28.4837 276.832 28.5466 275.217 28.5641C275.057 28.5097 274.835 28.4597 274.711 28.4023C272.703 28.4547 271.79 28.369 269.433 28.4307C267.938 28.4694 265.89 28.6135 264.924 28.393C263.831 28.3868 264.178 28.442 263.854 28.4544C262.327 28.5134 261.191 28.4076 260.906 28.4011C259.092 28.3603 258.278 28.3972 256.799 28.3456C256.879 28.3879 256.923 28.4279 256.987 28.4691C258.342 28.4059 259.028 28.4094 260.928 28.423C260.291 28.4313 259.653 28.4398 259.016 28.4481C259.12 28.4821 259.224 28.5161 259.324 28.5498C265.2 28.4162 263.829 28.623 258.903 28.6739C258.478 28.6114 258.038 28.5487 257.617 28.4853C254.771 28.5819 253.432 28.4992 250.214 28.4785C249.831 28.4761 248.438 28.514 247.839 28.5161C247.849 28.5163 247.859 28.5166 247.869 28.5168C247.496 28.5792 248.001 28.6076 248.061 28.6631C247.736 28.6703 247.412 28.6775 247.087 28.6848C246.362 28.6429 246.617 28.6076 245.19 28.6187C245.383 28.6612 245.573 28.7036 245.765 28.746C244.202 28.7493 243.179 28.7037 241.724 28.7254C241.968 28.7088 242.21 28.6922 242.454 28.6757C239.288 28.6365 241.808 28.3795 239.415 28.5073C239.263 28.4849 239.114 28.4623 238.962 28.4399C239.948 28.4345 240.934 28.4293 241.916 28.424C241.936 28.3926 241.958 28.3614 241.974 28.3301C240.92 28.3389 239.86 28.3482 238.806 28.3572C239.576 28.3363 240.35 28.3154 241.119 28.2948C239.897 28.279 238.674 28.2629 237.452 28.2466C238.75 28.3646 237.067 28.378 237.384 28.4945C235.219 28.3983 233.519 28.2668 230.164 28.3487C229.499 28.3651 229.86 28.4493 227.973 28.3464C228.43 28.4801 226.065 28.5435 226.369 28.6718C227.026 28.6651 227.707 28.6607 228.344 28.6528C227.619 28.6092 227.499 28.4871 228.601 28.4512C230.008 28.4057 232.059 28.4891 231.975 28.3562C232.536 28.3627 233.058 28.3665 233.603 28.3719C233.379 28.4046 233.159 28.4376 232.939 28.4705C234.489 28.419 235.463 28.4362 236.209 28.5178C234.361 28.537 232.518 28.5565 230.67 28.5763C230.943 28.5818 231.218 28.5874 231.491 28.5928C230.092 28.6788 231.535 28.7583 228.925 28.7796C228.941 28.7403 228.954 28.701 228.97 28.6615C228.02 28.7672 225.419 28.7702 226.249 28.8911C225.464 28.8549 225.303 28.8311 224.859 28.898C222.786 28.8082 221.455 28.6895 222.193 28.547C221.424 28.5701 220.654 28.5934 219.888 28.6169C220.333 28.6558 220.778 28.6944 221.223 28.733C219.884 28.7318 218.536 28.7307 217.201 28.7298C217.073 28.6128 219.778 28.6923 218.998 28.5888C218.841 28.568 218.121 28.6131 217.932 28.6014C215.936 28.4743 219.069 28.5656 218.481 28.4681C215.507 28.4381 217.887 28.2729 213.79 28.411C213.682 28.3768 213.566 28.3418 213.466 28.3077C212.044 28.3049 212.159 28.3826 210.937 28.3971C210.171 28.4063 209.21 28.268 208.365 28.3616C208.214 28.3792 209.636 28.5476 206.648 28.5411C204.328 28.5359 205.294 28.4149 204.04 28.3717C203.194 28.3424 201.613 28.4092 200.414 28.3972C200.142 28.3955 199.906 28.2639 199.771 28.1055C199.619 27.9326 199.499 27.7815 199.424 27.6616C199.543 27.7906 199.672 27.9281 199.806 28.0704C199.954 28.2306 200.179 28.3372 200.414 28.3424C200.712 28.3496 201.011 28.3568 201.293 28.3649C201.59 28.3276 201.878 28.2907 202.171 28.2538C201.583 28.2704 200.987 28.274 200.414 28.2755C200.196 28.277 199.985 28.1857 199.838 28.0386C199.307 27.5118 198.819 27.0359 198.405 26.6836C196.931 25.0116 195.082 23.3425 195.446 23.9311C195.979 24.4327 195.465 23.8207 196.153 24.5709C196.201 24.6706 196.252 24.7741 196.3 24.8738C195.079 23.6466 194.227 22.7971 194.866 23.2756C194.678 23.0838 194.491 22.8938 194.303 22.7019C194.212 22.7258 194.123 22.7537 194.031 22.7776C193.798 22.5576 193.564 22.3365 193.33 22.1165C193.091 21.8518 192.851 21.5864 192.609 21.3187C193.044 21.5691 193.631 22.1507 191.75 20.1659C191.712 20.1922 191.672 20.2158 191.634 20.2421C190.056 18.5837 190.092 18.4626 188.058 16.4333C189.728 17.88 190.382 18.9319 190.601 18.7019C190.977 19.108 191.356 19.5175 191.732 19.9235C191.824 19.9507 191.915 19.9774 192.004 20.0018C189.891 17.9153 186.187 14.6431 184.926 13.0915C184.9 13.0705 184.874 13.0493 184.848 13.0281C184.659 12.8668 184.42 12.7686 184.18 12.7544C183.793 12.6687 183.409 12.8109 183.173 13.0494C182.222 13.9899 181.734 14.7147 180.489 15.7689C180.333 15.9008 180.447 15.4112 178.632 17.2343C178.702 17.2137 178.767 17.2317 178.835 17.226C178.426 17.6043 178.018 17.9798 177.611 18.3548C177.563 18.4485 177.511 18.5456 177.464 18.6395C178.145 17.9772 178.824 17.3168 179.505 16.6544C178.954 17.2199 178.4 17.7891 177.849 18.3548C178.615 17.6644 178.944 17.3363 178.565 17.8349C177.939 18.4677 177.312 19.1017 176.687 19.7346C176.684 19.7372 176.681 19.7398 176.679 19.7424C176.63 19.8205 176.569 19.8939 176.496 19.9588C176.59 19.9241 176.68 19.8745 176.763 19.8114C177.038 19.6076 177.314 19.4023 177.589 19.1998C177.339 19.4386 177.095 19.6734 176.856 19.9041C176.384 20.3793 175.573 20.3323 175.164 19.8844C174.273 18.96 173.461 18.1039 172.746 17.2763C172.546 17.0454 173.369 17.7462 171.846 16.3336C171.856 16.2785 171.843 16.2128 171.847 16.1574C169.96 14.4508 169.396 13.8342 167.59 11.8935C168.74 13.169 167.699 12.0459 167.356 11.7703C167.122 11.5816 167.951 12.4045 167.834 12.335C167.716 12.2652 166.546 11.2888 167.453 12.2178C169.901 14.2703 170.28 15.1177 173.266 17.9135C172.796 17.4936 172.322 17.0706 171.852 16.651C172.045 16.8773 172.217 17.0802 172.426 17.3245C170.85 15.6757 171.61 16.4837 170.917 15.8519C170.223 15.2193 168.991 14.0411 168.174 13.2428C167.916 12.9912 168.229 13.2151 167.658 12.6374C167.27 12.2438 166.134 11.2422 165.964 10.9178C165.854 10.7054 167.711 12.2826 165.336 9.90936C164.939 9.41264 166.062 10.5663 166.092 10.5848C166.358 10.7327 164.944 9.228 164.224 8.5988C164.165 8.54812 164.651 9.12723 164.054 8.56627C162.635 7.23549 161.895 6.38851 161.078 5.42525C160.896 5.41435 159.636 4.36076 158.228 2.88977C158.129 2.84093 158.034 2.7958 157.935 2.7472C158.172 2.95746 158.409 3.16787 158.646 3.3782C158.874 3.63733 159.121 3.90669 159.341 4.16283C157.871 2.73708 157.546 2.65211 156.807 2.00268C156.62 1.83822 156.456 1.69209 156.314 1.56261C156.093 1.40124 155.931 1.46495 155.862 1.4585C155.79 1.46211 155.77 1.42789 155.808 1.36156C155.845 1.29731 155.959 1.21233 156.112 1.19193C156.263 1.16753 156.434 1.21942 156.528 1.28284C156.539 1.29408 156.549 1.30553 156.559 1.31737C156.832 1.63309 157.095 1.94231 157.365 2.25685C157.362 2.19262 157.358 2.12765 157.357 2.06603C157.054 1.7631 156.799 1.50645 156.587 1.28923C156.137 0.872441 155.706 1.05888 155.558 1.11484C155.39 1.1922 155.359 1.20198 155.363 1.15114C155.367 1.06381 155.622 0.780281 155.189 1.06513C155.081 1.1522 154.924 1.29087 154.699 1.50174C154.385 2.11642 153.074 3.45804 151.288 5.05011C151.102 5.23788 150.914 5.42576 150.728 5.61372C150.719 5.6671 150.754 5.70069 150.718 5.76626C148.709 7.82767 148.109 7.95265 147.893 8.1226C146.937 8.87763 146.408 9.68199 146.157 9.93547C145.098 11.0024 144.727 11.2489 143.741 12.2864C142.681 13.4026 143.474 12.7071 143.186 13.0808C142.954 13.3803 142.102 14.2447 141.782 14.6348C141.894 14.4648 142.022 14.2798 142.134 14.1103C140.966 15.198 140.005 16.0802 138.713 17.3503C137.845 18.5206 136.797 19.2964 136.532 19.5804C136.455 19.6587 136.456 19.707 136.636 19.684C136.651 19.6807 136.666 19.6769 136.683 19.6727C137.917 18.4801 138.629 17.8356 139.352 17.2612C138.566 18.0672 137.778 18.8736 136.992 19.6798C136.919 19.7348 136.852 19.7848 136.785 19.8333C136.594 19.9743 136.378 20.0592 136.091 20.0547C135.869 20.105 135.515 20.0561 135.248 19.8001C134.57 19.1621 133.738 18.3066 133.327 17.9258C130.694 15.4859 131.358 16.3919 129.244 13.8747C130.933 15.5231 131.028 15.4226 132.67 17.0912C132.382 16.6645 131.527 15.8375 132.155 16.2982C130.534 14.7168 130.976 15.3097 130.287 14.7532C129.692 14.2732 128.606 13.1945 128.592 13.3308C128.587 13.3201 128.582 13.3095 128.577 13.2991C128.533 13.1796 128.477 13.0744 128.367 12.97C128.013 12.8232 127.577 12.9108 127.309 13.1855C126.548 13.9471 125.787 14.7086 125.026 15.4703C125.424 14.9845 125.822 14.499 126.221 14.0138C125.871 14.3314 125.52 14.6494 125.169 14.9669C123.873 16.4064 121.936 18.2666 120.579 19.6266C120.204 20.0036 119.642 19.885 119.402 19.6457C118.891 19.1813 118.613 19.0044 118.716 19.3102C117.474 18.0916 117.364 17.8941 116.762 17.1589C116.662 17.1118 116.568 17.0624 116.465 17.0184C115.699 16.1971 114.989 15.6887 114.315 14.9628C113.641 14.2372 113.563 13.9678 113.3 14.0265C113.083 13.7596 112.863 13.4956 112.644 13.2323C112.473 13.02 112.193 12.8848 111.896 12.8886C111.674 12.9421 111.485 13.0723 111.362 13.2389C111.267 13.3646 111.171 13.49 111.076 13.6151C110.632 14.021 110.187 14.428 109.742 14.8338C109.593 15.1386 107.888 16.7772 107.204 17.5669C106.421 18.1824 106.174 17.8968 104.575 19.5893C104.684 19.6132 104.792 19.6375 104.901 19.6614C104.851 19.7075 104.802 19.7536 104.752 19.7998C104.391 20.1484 103.791 20.1722 103.416 19.8745C103.407 19.8306 103.405 19.7897 103.402 19.7473C103.586 19.9184 103.842 20.0095 104.101 19.9913C103.872 19.9635 103.679 19.8517 103.556 19.7052C103.511 19.6819 103.468 19.6538 103.427 19.6213C102.846 19.141 102.265 18.6603 101.682 18.1781C102.185 18.7376 102.688 19.2972 103.191 19.8565C103.46 20.1569 103.905 20.3005 104.316 20.2045C103.881 20.3448 103.414 20.2033 103.13 19.9182C102.504 19.3081 101.99 18.7649 101.332 18.187C100.684 17.3553 101.011 17.5746 101.412 17.7746C101.128 17.5083 100.842 17.2386 100.559 16.9723C100.841 17.0529 100.436 16.5278 102.034 18.1435C101.952 18.0044 101.867 17.8643 101.789 17.7268C101.521 17.4676 101.374 17.2723 101.075 16.9941C100.257 16.2356 99.4758 15.8089 99.4673 15.9251C99.4638 15.9867 100.303 16.7013 100.226 16.7162C100.037 16.7513 98.304 14.9199 100.763 17.6015C99.8382 16.8203 99.7012 16.5762 98.7805 15.6151C98.8166 15.7262 98.8509 15.835 98.8843 15.9432C98.4649 15.4901 98.0449 15.0363 97.6256 14.5831C98.4252 14.9964 95.2822 11.7057 98.3462 14.4333C97.4997 13.5683 96.6562 12.7062 95.813 11.8435C96.0086 11.9993 96.204 12.1554 96.3995 12.3112C96.774 12.7075 97.1464 13.1013 97.5212 13.4973C97.1046 13.0072 96.6871 12.5164 96.2709 12.026C95.1555 10.9988 94.666 10.6485 94.0894 10.2444C95.2725 11.5548 94.9515 11.0611 95.9394 12.0162C95.851 12.0367 95.8457 12.1317 95.7036 12.104C95.3146 11.489 93.5954 9.93313 93.21 9.55907C92.0377 8.42011 93.0557 9.21459 92.2853 8.43883C91.5144 7.66227 90.5349 6.8166 90.0152 6.07222C89.9638 6.14635 89.9493 6.2619 89.9375 6.3644C88.7123 5.18047 89.027 5.34641 88.912 5.21203C88.8737 5.16704 88.8356 5.12257 88.7978 5.0786C88.371 4.57493 87.5625 4.59463 87.1439 5.02022C85.8019 6.28727 84.8402 7.41511 83.0914 9.18869C83.4004 8.91956 83.7104 8.64547 84.0209 8.37221C82.4397 10.2249 83.555 9.02694 85.0899 7.58047C83.6794 8.9645 82.9952 9.88074 82.0443 10.9025C81.0935 11.924 79.3437 13.5567 78.6787 14.1279C80.0168 12.6374 81.5914 11.1613 83.1402 9.56975C82.8965 9.68304 82.6677 9.80125 82.4117 9.91354C81.5939 11.0058 80.9488 11.4674 80.6158 11.7635C79.6381 12.6333 79.786 12.7232 79.0997 13.1533C79.1664 13.1747 79.22 13.1951 79.2838 13.2136C77.3585 15.1029 75.2215 17.0807 74.1454 18.4874C73.9247 18.4933 73.7356 18.4753 73.4954 18.4959C73.17 18.8932 72.8351 19.2346 72.5051 19.553C72.2164 19.8309 71.7603 19.7793 71.5139 19.5341C71.4986 19.5194 71.4833 19.5048 71.4679 19.4903C70.7719 18.8315 70.9421 19.1771 70.1122 18.4144C69.9586 18.2732 69.7068 17.9112 69.3035 17.5889C68.8968 17.2629 67.2405 16.2173 67.3455 15.7892C66.6638 15.1049 66.0272 14.4488 65.363 13.7754C66.0299 14.4121 66.6965 15.0496 67.3604 15.6837C66.8697 15.0635 66.3826 14.4466 65.8925 13.8258C65.7638 13.8128 65.6338 13.8007 65.5086 13.7899C65.2501 13.5545 65.0072 13.3258 64.775 13.1014C64.3442 12.6722 63.6212 12.6964 63.2231 13.0994C62.4899 13.8093 61.7566 14.4941 60.9284 15.3471C60.68 15.6031 61.391 15.1241 60.2423 16.2136C59.1596 17.2409 58.1654 17.8438 56.5278 19.5758C56.4534 19.6561 56.3602 19.7235 56.2505 19.7687C56.2165 19.7815 56.1296 19.8489 55.9662 19.8759C55.8075 19.9036 55.5588 19.8717 55.3643 19.6837C55.1926 19.5179 55.0156 19.321 54.8525 19.0905C54.7236 18.9085 55.4166 19.5239 55.0947 19.1322C54.7726 18.7402 53.209 17.117 53.1677 16.9088C53.1552 16.9553 53.2241 17.0854 53.2422 17.1636C52.9564 16.9055 52.6677 16.6446 52.3792 16.3834C52.4057 16.3059 52.4303 16.2263 52.4565 16.149C51.1406 15.0195 50.238 14.4001 48.8313 13.0451C48.4529 12.6544 47.6797 12.5439 47.165 13.0414C47.0929 13.1102 47.0192 13.1802 46.9437 13.2515C47.0241 13.1881 47.1044 13.1246 47.1848 13.0612C47.6598 12.6597 48.3799 12.7753 48.6846 13.1918C48.8691 13.4253 49.0535 13.6586 49.2376 13.8915C49.4696 14.0166 49.7023 14.1416 49.9314 14.264C50.9782 15.3538 52.0283 16.4462 53.0756 17.5357C53.3115 17.6512 53.5441 17.7639 53.7798 17.8796C54.0552 18.1709 54.3281 18.4592 54.6036 18.7504C54.4894 18.7229 54.3748 18.6946 54.2578 18.6643C54.6189 19.012 54.9803 19.3599 55.3409 19.707C55.5367 19.8974 55.8159 19.9902 56.0811 19.9599C55.8477 20.0433 55.5137 19.9989 55.2656 19.7824C54.0469 18.7455 52.8081 17.1768 52.7513 17.4793C52.5325 17.194 52.3136 16.9079 52.0951 16.6222C51.8801 16.6161 51.3972 16.0736 50.5099 15.1536C50.6651 15.4121 50.8427 15.6914 50.9806 15.9334C50.3863 15.2325 49.3792 14.2058 48.5375 13.3389C48.3084 13.0954 47.9505 13.0555 47.705 13.15C47.3059 13.3559 47.6399 13.0315 47.5144 13.0918C47.4551 13.122 47.3952 13.1634 47.3395 13.2159C46.6879 13.8324 45.8032 14.9416 45.5702 15.1554C44.051 16.5497 42.8468 17.2387 41.4264 18.9982C43.1093 17.3991 42.1989 18.2742 42.8768 17.7844C43.0891 17.6311 45.2695 15.5715 42.5887 18.2001C42.2749 18.5087 37.2795 23.1472 38.7251 21.426C37.9892 22.2489 37.4298 22.9099 36.7624 23.671C34.6509 25.0513 35.5987 24.7906 36.2948 24.4721C36.0095 24.7593 35.7392 25.0336 35.4445 25.3285C35.8043 24.6343 33.5937 26.7735 32.2985 28.1749C32.0948 28.3968 31.8171 28.4986 31.5858 28.5142C31.5384 28.5179 31.4931 28.5218 31.4502 28.5258C31.1844 28.5506 31.4414 28.5869 31.5858 28.622C31.6861 28.6409 31.7475 28.6581 31.5858 28.6817C31.5132 28.6914 31.3872 28.7001 31.1853 28.7075C30.6204 28.6879 29.9796 28.6623 29.3826 28.6401C30.2483 28.82 28.5493 28.8906 28.5731 29.0746C27.487 28.9122 26.6562 28.5638 27.2531 28.3752C26.3555 28.4514 25.4531 28.5279 24.5555 28.6053C24.9723 28.6492 25.3945 28.6925 25.8114 28.7361C22.8774 28.6206 19.1048 28.8897 18.4916 28.4965C18.1028 28.4993 17.7099 28.5018 17.3211 28.5046C17.2008 28.5712 17.0846 28.638 16.9644 28.7047C15.2052 28.6477 13.45 28.5897 11.6908 28.5316C13.2572 28.4896 13.6301 28.3944 15.2727 28.4718C14.6397 28.3949 13.9949 28.3173 13.3739 28.2399C10.9009 28.4467 10.5635 28.585 6.84013 28.523C6.67179 28.5204 3.85847 28.3435 3.76227 28.326C3.32156 28.2469 3.99055 28.1325 3.79431 28.0925C3.2492 27.9808 -0.0632123 27.6949 0.000918873 27.652C0.810585 27.1284 11.9553 27.1505 14.9694 27.1314C20.5278 27.0968 26.0643 27.0835 31.5858 27.0842C31.4866 27.0839 31.3884 27.1247 31.3187 27.195C36.3345 22.183 41.349 17.204 46.3622 12.2385C47.2177 11.3468 48.7841 11.3517 49.6324 12.2439C51.8178 14.4511 54.0008 16.658 56.1831 18.8649C56.0834 18.7673 55.9147 18.7728 55.8232 18.8711C58.0308 16.6882 60.2384 14.5059 62.4461 12.3224C63.258 11.4769 64.7437 11.4821 65.5478 12.3285C67.7302 14.5347 69.9138 16.7411 72.1002 18.9478C72.0443 18.895 71.9543 18.8994 71.9048 18.9528C76.6449 14.2546 81.3866 9.54242 86.1332 4.80271C86.359 4.57686 86.2161 4.63111 86.3108 4.5332C86.3677 4.47439 86.4253 4.41643 86.4831 4.3595C87.5127 3.31753 89.0583 3.87208 89.4579 4.41845C89.5031 4.46957 89.5423 4.51272 89.5748 4.54622C90.0402 5.02544 89.8438 4.70164 90.1881 5.04753C93.7436 8.62285 97.0636 12.032 100.634 15.5984C100.866 15.8307 100.581 15.6416 100.997 16.0421C101.212 16.2484 101.944 16.835 102.419 17.3106C102.996 17.8871 103.536 18.4348 104.07 18.9776C104.028 18.9426 103.969 18.9515 103.94 18.9878C104.593 18.3462 105.263 17.6872 105.99 16.9629C106.95 16.0067 108.397 14.5793 109.47 13.5098C109.826 13.1545 110.175 12.7695 110.525 12.4017C110.766 12.1539 111.077 11.9665 111.405 11.8702C112.374 11.6363 112.754 11.9718 112.897 12.0392C113.046 12.143 113.01 12.1536 113.129 12.2351C113.237 12.3131 113.328 12.3931 113.405 12.471C113.739 12.8077 113.887 12.8393 114.265 13.2222C115.05 14.0184 115.044 14.1097 116.049 15.1112C116.767 15.8269 118.442 17.434 119.355 18.3294C119.57 18.5575 119.793 18.7907 120.02 19.0278C120 19.0252 119.995 19.0397 119.997 19.045C121.714 17.3648 123.519 15.5385 124.954 14.0845C126.006 13.019 126.247 12.8844 126.638 12.5143C126.714 12.4406 126.8 12.368 126.899 12.2987C127.676 11.7461 128.76 11.8889 129.368 12.5088C130.613 13.7154 131.724 14.7274 132.976 15.9816C134.033 17.0409 135.015 18.0538 135.988 19.0596C135.986 19.0722 136.009 19.088 136.029 19.0772C136.635 18.4896 137.243 17.8958 137.862 17.2816C138.192 16.9544 138.059 16.9724 138.381 16.6494C139.572 15.454 141.092 13.922 142.165 12.8701C143.362 11.6977 143.881 11.3433 145.027 10.1704C145.362 9.82647 145.391 9.65612 145.953 9.07913C146.851 8.15777 147.913 7.22515 148.557 6.59878C149.438 5.74005 148.608 6.42345 149.794 5.26283C149.843 5.21517 150.07 5.09086 150.32 4.83708C151.049 4.09802 150.936 4.13089 152.017 3.06343C152.121 2.96123 153.597 1.58854 153.739 1.44743C153.988 1.19999 154.314 0.879191 154.661 0.537419C155.356 -0.201611 156.688 -0.158942 157.33 0.5459C157.752 0.972308 158.115 1.33728 158.307 1.5233C160.102 3.25495 158.791 1.78995 160.126 3.45331C160.824 4.07579 161.517 4.69256 162.252 5.35654C161.751 4.92358 163.591 6.87468 163.727 7.00483C164.853 8.08307 164.259 7.36384 165.643 8.77484C163.661 7.06608 167.423 10.5998 168.237 11.4123C170.896 14.0618 173.367 16.5712 175.907 19.1412C175.951 19.1942 176.047 19.2002 176.1 19.1475C176.958 18.2977 177.827 17.4364 178.713 16.5545C179.882 15.3913 181.381 13.8567 182.68 12.556C182.993 12.2396 183.422 12.049 183.843 12.0165C184.271 11.9969 184.32 12.0574 184.356 12.0672C184.39 12.0918 184.423 12.0791 184.763 12.2231C185.362 12.5815 184.812 12.1444 185.319 12.5575C185.332 12.5708 185.347 12.5858 185.364 12.6025C187.372 14.6466 188.893 16.3018 190.823 18.0836C190.902 18.1857 190.89 18.1919 191.027 18.3545C192.613 19.807 195.435 22.8353 196.52 23.9499C198.216 25.6937 198.701 26.0877 199.938 27.3497C200.033 27.4463 200.13 27.546 200.229 27.6477C200.273 27.6978 200.341 27.733 200.414 27.7377C202.553 27.7774 204.804 27.8423 203.491 27.6659C205.094 27.6637 206.637 27.6664 208.256 27.6896C208.436 27.6923 208.312 27.7437 208.384 27.7449C208.841 27.7535 208.99 27.7076 209.298 27.7063C210.135 27.7028 208.77 27.7545 209.963 27.7421C210.592 27.7354 210.949 27.6963 212.697 27.7002C223.23 27.7243 234.666 27.7688 245.464 27.803C246.205 27.8053 245.717 27.7605 246.647 27.7659C249.878 27.785 255.66 27.871 258.446 27.868C261.231 27.8655 260.603 27.804 262.346 27.7841C262.683 27.7803 262.407 27.8133 262.711 27.8147C264.759 27.8237 267.201 27.8821 268.861 27.8938C269.958 27.9017 269.87 27.8499 270.631 27.8484C271.766 27.8462 272.933 27.9008 273.538 27.9039C276.384 27.918 278.34 27.8827 280.997 27.9101C280.893 27.899 280.824 27.8888 280.736 27.878C283.882 27.8882 287.025 27.8984 290.171 27.9086C290.022 27.8987 289.879 27.8888 289.731 27.8788C293.422 27.8945 293.001 27.9941 292.676 27.78C292.945 27.7733 293.229 27.7656 293.486 27.7596C293.381 27.869 295.614 27.9552 298.456 27.9889C298.664 27.9913 300.063 27.8915 299.911 28.0132C300.275 27.9842 300.493 27.9642 300.801 27.9389C301.402 27.9773 302.011 28.0149 302.612 28.0525C302.937 28.0478 303.266 28.0432 303.591 28.0385C303.639 28.0152 303.602 27.9907 303.706 27.968C305.213 27.9684 308.304 28.0047 309.494 28.0046C312.452 28.0041 315.464 27.9531 317.765 28.0227C318.885 28.019 317.772 27.9736 319.439 27.9835C319.628 28.0054 319.805 28.0263 320.001 28.0487C321.363 27.9569 321.648 28.016 323.515 28.0399C324.777 28.0562 325.604 28.0355 326.806 28.043C327.111 28.0448 327.067 28.0716 327.276 28.0712C327.974 28.0699 329.966 28.0383 330.458 28.0387C334.923 28.0406 338.759 28.055 343.011 28.0746C343.468 28.0767 342.876 28.0512 343.349 28.0535C344.11 28.0571 343.662 28.0926 344.103 28.0955C345.332 28.1032 345.342 28.0649 347.057 28.0675C352.704 28.0764 359.197 28.1204 365.097 28.1368C365.281 28.1373 365.27 28.1178 365.47 28.1181C366.777 28.1207 368.099 28.1499 369.285 28.1525C371.253 28.1568 372.732 28.1346 374.676 28.14C378.476 28.1503 381.871 28.1716 385.779 28.182C388.977 28.1907 391.755 28.1956 395.262 28.2047C410.582 28.2407 426.214 28.2514 441.637 28.3114C442.03 28.3128 441.87 28.3195 441.99 28.3195C443.128 28.3194 443.23 28.3105 443.634 28.331C445.084 28.3308 445.542 28.318 447.293 28.324C448.227 28.3272 447.53 28.346 449.109 28.3395C450.535 28.3338 448.961 28.319 453.201 28.3418C453.313 28.3424 453.866 28.3551 454.748 28.3544C455.633 28.354 454.608 28.3434 456.74 28.3473C461.746 28.3574 468.083 28.3835 473.902 28.3981C474.267 28.3989 477.78 28.4065 478.473 28.4076C479.815 28.4097 479.535 28.4056 481.278 28.4109C482.625 28.4152 483.736 28.4218 485.319 28.4265C485.503 28.427 485.812 28.4257 487.002 28.4303ZM194.082 22.929C193.802 22.7448 193.204 22.5041 191.85 21.0471C191.722 20.9089 192.565 21.504 191.808 20.709C192.581 21.4548 193.325 22.1896 194.083 22.9288C194.083 22.9289 194.082 22.9289 194.082 22.929ZM495.616 28.4628C494.129 28.4653 492.637 28.4677 491.15 28.4699C492.176 28.4678 493.204 28.4659 494.226 28.4644C494.691 28.4641 495.151 28.4636 495.616 28.4628ZM310.505 28.7081C310.506 28.7081 310.508 28.708 310.509 28.708C308.946 28.7299 307.382 28.7522 305.818 28.775C305.983 28.7599 306.148 28.7447 306.312 28.7296C307.546 28.7044 308.781 28.6797 310.011 28.6555C310.176 28.6731 310.34 28.6906 310.505 28.7081ZM322.855 28.548C323.853 28.5636 323.608 28.5908 324.157 28.6167C324.157 28.6166 324.157 28.6166 324.157 28.6165C324.302 28.6233 324.977 28.6286 325.238 28.6293C325.142 28.6126 325.018 28.5961 324.914 28.5795C327.242 28.5389 331.796 28.6738 325.9 28.7402C325.989 28.719 326.073 28.6978 326.161 28.6766C323.231 28.6869 319.965 28.6426 322.855 28.548ZM177.602 19.4397C177.396 19.67 177.207 19.8807 177.029 20.0773C176.43 20.7221 175.444 20.6483 174.924 20.1242C174.148 19.3916 173.436 18.6651 172.182 17.3359C172.512 17.6113 172.843 17.8868 173.174 18.1624C173.501 18.544 173.825 18.9226 174.153 19.3039C174.154 19.3049 174.155 19.3059 174.156 19.3069C174.256 19.3488 174.356 19.3908 174.453 19.4298C174.644 19.6267 174.835 19.8237 175.027 20.0208C175.527 20.5568 176.468 20.5706 176.989 20.0365C177.193 19.8374 177.398 19.6385 177.602 19.4397ZM418.595 28.5233C419.292 28.5854 419.091 28.5489 417.1 28.5657C416.41 28.5717 417.082 28.582 416.653 28.5845C414.337 28.5987 414.152 28.5544 414.669 28.5308C415.98 28.5282 417.304 28.5257 418.591 28.5233C418.592 28.5233 418.594 28.5233 418.595 28.5233ZM478.685 28.4729C478.686 28.4729 478.688 28.4729 478.689 28.4729C478.749 28.4762 477.816 28.4781 478.869 28.4803C478.067 28.4812 477.266 28.482 476.461 28.4828C476.697 28.4822 476.939 28.4816 477.175 28.481C476.966 28.48 476.757 28.4788 476.549 28.4777C476.264 28.4823 476 28.4801 475.158 28.4792C475.391 28.4841 475.622 28.4888 475.855 28.4933C474.877 28.4934 473.896 28.4932 472.918 28.4928C472.906 28.4914 472.894 28.49 472.882 28.4886C472.513 28.4909 472.148 28.4932 471.779 28.4956C471.679 28.494 471.583 28.4923 471.483 28.4906C471.038 28.4925 470.592 28.4945 470.148 28.4965C470.012 28.4921 470.992 28.489 469.255 28.4921C469.788 28.4867 470.32 28.4815 470.857 28.4766C473.466 28.4755 476.076 28.4743 478.685 28.4729ZM400.48 28.5615C403.354 28.5554 402.545 28.5679 401.879 28.6067C401.415 28.5919 400.945 28.5768 400.48 28.5615ZM252.423 28.6282C251.589 28.6956 250.752 28.763 249.898 28.8294C248.198 28.87 246.498 28.7479 247.777 28.6978C249.316 28.6383 250.924 28.7015 252.423 28.6282ZM213.715 28.689C215.795 28.7231 213.838 28.8164 213.369 28.8711C212.794 28.7856 211.992 28.794 210.704 28.7854C211.914 28.7782 213.372 28.6831 213.715 28.6888C213.715 28.6889 213.715 28.689 213.715 28.689ZM285.884 28.6702C286.717 28.6676 287.546 28.6509 288.291 28.6695C288.066 28.7242 286.576 28.6764 287.642 28.7561C287.109 28.7582 286.575 28.7603 286.046 28.7626C286.382 28.7284 285.93 28.7037 285.886 28.6703C285.885 28.6703 285.885 28.6702 285.884 28.6702ZM372.636 28.6285C371.001 28.5923 370.691 28.6085 369.044 28.6381C368.812 28.6061 370.776 28.5507 372.006 28.5386C372.215 28.5687 372.424 28.5987 372.636 28.6285ZM45.022 16.3199C45.154 15.9965 46.5442 14.5494 47.6198 13.4961C47.7495 13.3699 47.9242 13.3354 48.0573 13.3598C47.9655 13.3741 47.8838 13.4136 47.8241 13.4663C47.7733 13.4902 47.7281 13.5234 47.689 13.5653C46.8005 14.4827 45.9096 15.4029 45.022 16.3199ZM210.091 28.7798C210.306 28.7823 210.511 28.7841 210.704 28.7854C210.489 28.7866 210.282 28.7853 210.091 28.7798ZM144.552 11.7586C144.956 11.1943 143.489 12.6066 145.27 10.8905C145.269 10.8904 145.269 10.8904 145.269 10.8903C146.447 9.75516 146.708 9.50543 147.786 8.44076C147.501 8.92771 145.365 11.1382 148.381 8.16319C148.421 8.12382 148.282 8.14198 148.769 7.67167C148.919 7.52653 149.441 7.10313 150.174 6.39816C150.411 6.17033 152.172 4.4385 149.794 6.82074C149.935 6.82022 149.878 7.01939 149.952 7.08202C149.044 8.03231 148.192 8.60871 147.213 9.59561C145.759 11.0614 145.159 11.947 144.693 12.0414C145.873 10.7676 147.98 8.65878 148.365 8.49414C149.552 7.30709 149.803 6.87604 148.801 7.78901C144.759 11.9484 147.541 8.7798 144.023 12.4438C144.006 12.5122 143.886 12.6879 143.933 12.6898C142.746 13.6945 144.407 11.96 144.552 11.7586ZM153.322 3.37728C152.666 4.13918 152.014 4.89959 151.363 5.65973C151.276 5.57258 151.587 5.1049 152.654 3.93918C152.876 3.753 153.1 3.56374 153.322 3.37728ZM91.9086 8.71889C91.7486 8.67484 91.4232 8.45621 91.1694 8.31329C91.0742 8.16265 89.3867 6.4238 88.4463 5.43004C88.2218 5.18848 87.9421 5.22003 87.9121 5.20882C87.893 5.20564 87.9239 5.18731 88.0259 5.18203C88.1242 5.18025 88.3134 5.19176 88.5068 5.36953C88.5337 5.39527 88.5614 5.42191 88.59 5.44944C88.974 5.81934 91.1722 8.2195 91.9086 8.71889ZM383.991 28.5822C383.141 28.5692 382.295 28.556 381.449 28.5424C382.751 28.5326 384.054 28.5227 385.356 28.5133C384.9 28.536 384.447 28.5589 383.991 28.5822ZM238.59 28.5545C238.949 28.5561 237.757 28.6219 239.171 28.6108C238.117 28.653 237.13 28.6892 236.1 28.7299C235.791 28.699 235.479 28.6683 235.171 28.6372C234.93 28.6574 234.685 28.6776 234.445 28.6979C234.589 28.6522 234.717 28.6075 234.87 28.5611C236.605 28.6578 237.003 28.5472 238.59 28.5545ZM290.196 28.3955C290.508 28.4733 287.995 28.5206 290.468 28.5324C289.999 28.5837 289.245 28.6113 287.798 28.617C287.565 28.5973 287.334 28.5777 287.101 28.5579C287.069 28.6112 286.697 28.6312 285.884 28.6702C285.883 28.6701 285.883 28.67 285.882 28.67C283.682 28.676 283.814 28.658 283.285 28.5692C285.613 28.6181 285.683 28.5368 287.27 28.4891C288.36 28.4564 289.784 28.471 290.196 28.3955ZM97.3486 14.1502C96.0844 13.0855 97.0372 14.2227 95.0752 12.0527C95.2338 12.1605 95.3928 12.2691 95.5514 12.377C96.1507 12.9678 96.7498 13.5589 97.3486 14.1502ZM298.324 28.6551C298.135 28.5396 296.585 28.4483 296.32 28.6393C297.831 28.6765 297.093 28.5699 298.324 28.6551ZM214.425 28.4297C217.33 28.438 216.781 28.622 215.587 28.7161C215.402 28.6825 215.218 28.6488 215.038 28.6152C214.529 28.6309 214.019 28.6466 213.51 28.6622C213.815 28.5845 214.12 28.5069 214.425 28.4297ZM349.549 28.5106C347.329 28.5733 351.946 28.5433 350.395 28.5824C349.157 28.6142 347.524 28.5533 348.142 28.5136C348.571 28.5124 349.048 28.5115 349.545 28.5106C349.546 28.5106 349.548 28.5106 349.549 28.5106ZM336.7 28.534C337.064 28.6051 336.539 28.5846 338.293 28.5706C338.794 28.5668 342.775 28.5901 341.104 28.5337C339.681 28.5344 338.178 28.534 336.7 28.534ZM186.299 15.0019C186.324 14.9393 188.587 17.0119 188.841 17.3139C188.841 17.3139 188.841 17.3138 188.842 17.3137C189.528 18.1289 187.232 15.8523 188.136 16.9323C186.016 14.659 185.168 14.1927 185.572 14.0944C186.877 15.3771 186.213 14.8162 186.299 15.0019ZM11.7143 28.6272C11.7129 28.6272 11.7115 28.6272 11.71 28.6272C11.9159 28.6323 13.6122 28.7881 13.4059 28.8423C11.366 28.7973 11.7296 28.6932 9.83042 28.8647C9.72631 28.8099 9.6371 28.7568 9.52498 28.7015C10.2785 28.6686 10.6962 28.6027 11.7143 28.6272ZM86.3147 6.24981C86.5729 5.97504 86.963 5.61096 87.3631 5.2395C87.729 4.88694 88.318 4.97798 88.5744 5.23411C88.2047 4.98658 87.7157 5.08415 87.4876 5.36399C86.0215 6.99191 84.6416 8.02971 86.3147 6.24981ZM450.58 28.4916C450.578 28.4916 450.576 28.4917 450.574 28.4917C450.575 28.4917 450.575 28.4916 450.576 28.4916C450.578 28.4916 450.579 28.4916 450.58 28.4916ZM128.67 13.4937C128.617 13.4107 128.591 13.3593 128.588 13.3342C128.589 13.3332 128.59 13.3321 128.591 13.3311C128.615 13.3818 128.64 13.435 128.67 13.4937ZM181.747 14.9876C181.097 15.5545 182.205 14.3289 183.303 13.1791C183.699 12.7404 184.422 12.8323 184.711 13.1653C184.818 13.2727 184.913 13.37 184.993 13.4538C184.897 13.4137 184.861 13.4283 184.67 13.3018C184.656 13.2849 184.642 13.2675 184.627 13.2498C184.423 12.9539 183.74 12.8176 183.363 13.2398C182.606 14.0369 181.849 14.8984 181.747 14.9876ZM271.458 28.5742C268.095 28.5735 272.472 28.3314 272.652 28.5234C272.645 28.5271 271.545 28.5738 271.458 28.5742ZM200.985 28.6056C201.842 28.5095 200.12 28.4844 202.874 28.5006C203.034 28.5252 203.194 28.5499 203.354 28.5745C202.565 28.5847 201.775 28.5952 200.985 28.6056ZM249.428 28.2375C245.196 28.2775 241.148 28.3585 243.905 28.5848C244.225 28.5773 244.55 28.5702 244.87 28.5628C244.918 28.4529 246.1 28.5128 247.83 28.5159C248.077 28.4727 249.037 28.4628 249.217 28.4264C249.565 28.3562 248.462 28.3059 249.428 28.2375ZM428.117 28.4486C428.049 28.4537 427.982 28.4588 427.914 28.4638C427.245 28.4696 426.574 28.4755 425.904 28.4816C426.012 28.4715 426.121 28.4615 426.229 28.4515C426.858 28.4505 427.484 28.4495 428.113 28.4486C428.114 28.4486 428.116 28.4486 428.117 28.4486ZM156.436 0.797089C156.213 0.864509 156.397 0.913976 156.678 1.19793C157.071 1.62907 157.9 2.38022 159.079 3.43975C158.326 2.64804 157.57 1.85332 156.816 1.06064C156.709 0.949208 156.579 0.8584 156.436 0.797089ZM317.44 28.359C317.528 28.4007 317.615 28.4423 317.707 28.4839C319.154 28.4404 318.885 28.3936 318.192 28.3381C317.94 28.345 317.692 28.352 317.44 28.359ZM338.282 28.3553C337.682 28.3472 337.988 28.3772 337.926 28.3766C336.407 28.3601 336.193 28.3458 334.329 28.3676C334.1 28.3755 333.876 28.3838 333.647 28.392C334.509 28.4715 335.135 28.4286 336.958 28.4745C336.629 28.4479 336.302 28.421 335.973 28.3939C336.987 28.4 337.997 28.4059 339.011 28.4118C339.131 28.4037 339.251 28.3957 339.372 28.3877C339.011 28.3771 338.639 28.3651 338.282 28.3553ZM435.858 28.463C436.844 28.4641 437.834 28.4652 438.82 28.4663C438.856 28.4594 438.891 28.4524 438.927 28.4456C437.905 28.4511 436.879 28.4569 435.858 28.463ZM141.782 14.6348C141.739 14.7014 141.696 14.7668 141.66 14.8264C141.65 14.8075 141.7 14.736 141.782 14.6348ZM9.11275 28.2639C7.99466 28.217 6.38346 28.2469 5.15703 28.2366C5.25344 28.4044 8.37059 28.3587 9.46518 28.4596C9.64107 28.4298 9.58537 28.2836 9.11275 28.2639ZM218.444 28.4375C218.725 28.3957 219.005 28.3542 219.282 28.3126C219.959 28.3175 220.638 28.3226 221.319 28.3274C221.339 28.2935 221.359 28.2593 221.379 28.2254C218.378 28.2671 219.07 28.1696 217.584 28.0699C217.872 28.1927 218.156 28.3152 218.444 28.4375ZM467.23 28.44C465.061 28.4406 464.292 28.4456 465.515 28.4573C466.28 28.4548 467.05 28.4525 467.815 28.4505C467.619 28.4471 467.422 28.4436 467.23 28.44ZM113.077 13.3253C112.98 13.2341 112.891 13.1487 112.808 13.0683C112.155 12.5051 111.522 12.7128 111.153 13.0289C110.838 13.3066 110.512 13.6116 109.976 14.2219C110.387 13.843 110.799 13.4641 111.209 13.0858C111.528 12.7826 112.021 12.7084 112.401 12.8838C112.538 12.9238 112.671 12.9941 112.787 13.0898C112.884 13.1687 112.981 13.2475 113.077 13.3253ZM177.016 18.6454C176.82 18.814 176.596 19.0623 176.322 19.3702C176.216 19.5316 175.875 19.6474 175.634 19.4141C175.26 19.0451 174.855 18.6146 174.434 18.1046C174.029 17.7838 173.762 17.5969 173.408 17.3266C173.273 17.0995 173.113 16.8471 172.986 16.6287C172.985 16.6277 172.984 16.6267 172.983 16.6257C171.589 15.2584 172.425 16.2122 172.346 16.2294C172.311 16.2348 171.322 15.1755 171.598 15.5399C172.074 16.1684 174.181 18.1922 174.096 18.2886C173.4 17.5329 171.96 16.1401 172.317 16.6204C172.71 17.1464 174.156 18.3703 174.951 19.276C174.353 18.5161 174.855 18.9756 175.448 19.6003C175.607 19.7763 175.865 19.8771 176.1 19.8649C176.336 19.8577 176.527 19.7501 176.633 19.6812C176.665 19.66 176.692 19.6444 176.713 19.6351C177.654 18.5801 177.324 18.8427 176.544 19.5915C176.312 19.8368 175.783 19.9104 175.466 19.5817C175.393 19.5088 175.32 19.4354 175.246 19.3616C175.352 19.4502 175.432 19.5149 175.489 19.5592C175.618 19.6399 175.596 19.6059 175.521 19.5265C175.312 19.2942 174.786 18.7652 174.696 18.5911C174.913 18.7898 175.236 19.1026 175.595 19.4533C175.8 19.6692 176.204 19.6609 176.396 19.4438C177.295 18.5269 177.935 17.8557 177.016 18.6454ZM267.056 28.2198C265.612 28.2239 263.358 28.1728 262.37 28.2435C261.794 28.285 264.054 28.3185 262.496 28.3833C263.902 28.3773 264.223 28.3521 263.982 28.2949C264.303 28.2883 264.627 28.2818 264.948 28.2754C265.096 28.2866 265.248 28.2977 265.396 28.3089C265.565 28.2856 265.734 28.2626 265.898 28.2395C266.239 28.2444 266.583 28.2493 266.923 28.2544C266.963 28.2427 267.032 28.2326 267.056 28.2198ZM75.1032 17.1283C75.3856 16.8441 75.6654 16.5626 75.9476 16.2781C75.8965 16.2895 75.8387 16.306 75.7825 16.3215C75.7407 16.331 75.6989 16.3406 75.6571 16.3502C75.8791 16.2437 77.3247 14.9895 77.8324 14.36C78.0879 14.0436 77.3281 14.585 78.5222 13.3551C77.6486 14.2383 76.8491 15.0661 76.0048 15.9276C76.0489 15.8186 76.0897 15.7124 76.1338 15.6035C76.1333 15.6039 76.1327 15.6044 76.1322 15.6048C75.8412 15.8805 75.5465 16.1592 75.2555 16.4349C75.2039 16.6667 75.1545 16.8962 75.1032 17.1283ZM316.265 28.2753C314.898 28.3086 314.441 28.3268 315.086 28.3835C315.088 28.3836 315.089 28.3836 315.09 28.3836C315.599 28.3588 316.109 28.3343 316.618 28.3099C316.501 28.2984 316.385 28.2868 316.265 28.2753ZM133.483 17.3324C131.103 15.6023 135.928 20.0323 135.157 19.0409C135.123 18.9961 133.639 17.5613 133.483 17.3324ZM213.891 28.3268C214.688 28.3245 215.488 28.3224 216.289 28.3201C216.105 28.2793 215.916 28.2385 215.732 28.1975C215.119 28.2403 214.504 28.2835 213.891 28.3268ZM457.789 28.4122C456.95 28.3988 454.795 28.3897 453.742 28.4031C454.295 28.4056 454.848 28.4081 455.401 28.4105C454.356 28.4108 453.321 28.4114 452.268 28.4119C452.212 28.4317 453.426 28.4214 455.254 28.4282C455.537 28.4296 457.346 28.4524 457.971 28.4365C458.096 28.4334 456.172 28.4293 457.509 28.4208C456.924 28.4194 456.42 28.419 455.867 28.418C455.827 28.4136 455.787 28.4092 455.743 28.4048C456.427 28.4073 457.106 28.4098 457.789 28.4122ZM258.653 28.2193C256.671 28.2113 256.426 28.2543 256.013 28.3309C256.935 28.3227 257.857 28.3147 258.779 28.3067C258.735 28.2777 258.697 28.2486 258.653 28.2193ZM440.07 28.3832C438.984 28.3787 439.449 28.3941 439.012 28.3964C437.361 28.4053 436.235 28.3932 434.604 28.3985C434.712 28.3955 434.811 28.3927 434.916 28.3899C434.914 28.3899 434.913 28.3899 434.911 28.3899C427.188 28.3664 431.245 28.4101 435.866 28.4076C435.974 28.4135 436.078 28.4194 436.186 28.4252C438.255 28.4163 440.162 28.409 440.07 28.3832ZM151.439 4.43055C151.361 4.47724 151.793 3.84919 150.843 4.88876C150.199 5.82024 151.421 4.45805 151.8 4.19036C151.544 4.47319 151.282 4.76181 151.029 5.04191C152.681 3.47399 152.882 3.20505 152.19 3.68603C152.141 3.72079 151.517 4.38364 151.439 4.43055ZM140.773 14.924C140.773 15.3665 142.707 13.2369 142.565 13.2424C142.281 13.5198 142.1 13.7749 141.786 14.0555C141.469 14.339 141.34 14.3641 140.773 14.924ZM200.428 28.0988C200.425 28.0987 200.42 28.0985 200.414 28.0982C200.333 28.11 200.062 27.948 200.002 27.8748C199.968 27.8467 199.948 27.8387 199.948 27.8619C199.957 27.8748 199.966 27.8877 199.976 27.9008C200.046 28.0289 200.213 28.1479 200.414 28.1609C201.455 28.2143 202.653 28.1307 202.367 28.0794C201.67 28.0818 201.205 28.1097 200.428 28.0985C200.428 28.0986 200.428 28.0987 200.428 28.0988ZM470.865 28.4244C470.825 28.4238 468.715 28.4167 468.443 28.4198C468.219 28.4235 468.107 28.4277 467.939 28.4318C469.101 28.4292 471.454 28.4349 470.861 28.4244C470.862 28.4244 470.864 28.4244 470.865 28.4244Z" fill="#A1A1A1"/>
<path d="M449.502 28.5961C450.767 28.6071 446.544 28.6108 449.348 28.6242C448.763 28.6277 448.175 28.6314 447.59 28.6351C447.442 28.627 447.29 28.6188 447.142 28.6106C447.927 28.6056 448.713 28.6008 449.502 28.5961C449.502 28.5961 449.502 28.5961 449.502 28.5961ZM450.574 28.4917C449.854 28.5149 447.568 28.5255 450.038 28.5432C450.234 28.5348 450.435 28.5265 450.632 28.5184C451.489 28.5235 452.352 28.5282 453.21 28.5325C453.518 28.5292 453.826 28.5259 454.135 28.5227C454.527 28.5348 454.917 28.5466 455.309 28.558C454.961 28.557 454.607 28.556 454.258 28.5549C452.88 28.5683 451.653 28.5746 449.782 28.5815C449.946 28.5844 450.111 28.5872 450.275 28.59C449.325 28.5871 448.376 28.5838 447.43 28.5802C448.251 28.5724 449.17 28.564 449.931 28.5573C448.713 28.5377 446.564 28.5534 445.446 28.5609C443.923 28.5709 444.267 28.5585 443.137 28.5656C442.956 28.5668 442.936 28.5762 442.579 28.5772C440.78 28.582 437.284 28.5836 439.328 28.5562C442.29 28.5539 444.817 28.5328 447.723 28.5347C446.954 28.5126 448.485 28.5026 450.574 28.4917ZM396.159 28.679C397.057 28.6538 398.885 28.6599 400.124 28.6725C400.125 28.6725 400.126 28.6725 400.128 28.6725C400.4 28.6754 401.018 28.7032 400.128 28.7043C398.677 28.7061 397.976 28.6599 397.214 28.6941C396.874 28.6888 396.516 28.6842 396.159 28.679ZM393.007 28.6888C392.117 28.6784 392.521 28.6396 393.635 28.6479C393.635 28.6479 393.635 28.6478 393.635 28.6478C394.1 28.6512 393.187 28.6823 394.854 28.6493C395.195 28.6718 395.53 28.692 395.867 28.7132C395.458 28.7146 395.086 28.7162 394.658 28.7176C394.946 28.6789 393.896 28.6989 393.007 28.6888ZM437.825 28.5707C437.685 28.5906 438.271 28.5894 439.269 28.6004C438.327 28.602 437.385 28.6036 436.447 28.6052C436.908 28.5934 437.364 28.582 437.825 28.5707ZM459.951 28.5313C459.952 28.5313 459.954 28.5313 459.955 28.5313C460.264 28.5288 460.573 28.5263 460.878 28.5239C461.062 28.5279 461.244 28.5317 461.429 28.5355C462.519 28.5292 463.615 28.5234 464.705 28.5179C464.573 28.5296 462.616 28.5317 461.538 28.543C459.935 28.543 459.162 28.5367 459.058 28.5253C459.354 28.5274 459.65 28.5294 459.951 28.5313ZM198.289 26.9415C198.01 26.7053 197.733 26.4724 197.454 26.2364C197.787 26.5888 198.12 26.9361 198.454 27.2928C199.002 27.7368 199.249 27.9879 199.558 28.3182C199.74 28.5085 200.015 28.6865 200.414 28.6971C200.634 28.7016 200.889 28.704 201.197 28.7023C206.331 28.6724 204.969 28.4769 209.606 28.763C205.883 28.7531 207.314 28.888 205.069 28.998C204.604 28.9175 206.828 28.733 205.321 28.6967C203.686 28.7518 202.091 28.8055 200.414 28.8531C200.053 28.8618 199.684 28.7211 199.415 28.461C198.879 27.9524 198.33 27.4296 197.762 26.8854C197.812 26.955 197.861 27.0242 197.91 27.0938C198.24 27.4099 198.568 27.7234 198.898 28.0396C198.521 27.7186 198.153 27.4053 197.771 27.0792C198.281 27.4645 197.103 26.3599 197.327 26.4413C197.427 26.4776 197.976 26.9375 198.304 27.2047C197.551 26.4212 196.778 25.6193 196.017 24.8274C196.445 25.2041 196.873 25.5805 197.298 25.9545C197.627 26.2822 197.954 26.6075 198.283 26.9352C198.285 26.9373 198.287 26.9394 198.289 26.9415ZM27.9345 29.5281C28.8728 29.4003 30.333 29.344 31.5858 29.3845C32.115 29.3952 32.6205 29.1812 32.9739 28.8502C33.1884 28.6655 33.3911 28.5016 33.5743 28.3668C33.3943 28.5482 33.2144 28.7295 33.0345 28.9108C32.6567 29.2927 32.1235 29.5148 31.5858 29.5139C30.3688 29.5186 29.1525 29.5234 27.9345 29.5281ZM458.953 28.5159C459.109 28.5179 459.261 28.5198 459.417 28.5217C458.727 28.5269 458.034 28.5322 457.345 28.5378C457.213 28.5314 457.077 28.525 456.941 28.5186C457.61 28.5177 458.284 28.5168 458.953 28.5159ZM414.855 28.5954C415.359 28.5937 415.404 28.5941 416.032 28.595C416.031 28.595 416.031 28.595 416.03 28.595C416.279 28.5954 418.362 28.5997 418.129 28.6102C417.095 28.6124 415.992 28.6143 414.934 28.6163C414.902 28.6094 414.895 28.6024 414.855 28.5954ZM427.028 28.5807C427.029 28.5807 427.03 28.5807 427.032 28.5808C427.408 28.5815 427.765 28.5836 428.153 28.5834C426.755 28.6002 426.534 28.575 425.263 28.5844C423.993 28.594 423.208 28.611 422.13 28.5752C422.531 28.569 422.962 28.5604 423.375 28.5534C425.179 28.5658 425.664 28.5511 427.111 28.5358C427.083 28.5508 427.056 28.5657 427.028 28.5807ZM220.617 28.8696C220.961 28.7999 221.346 28.8673 221.386 28.868C221.385 28.8681 221.384 28.8681 221.383 28.8682C224.436 28.8 220.986 28.9071 223.867 28.9131C223.439 28.9309 223.017 28.9497 222.592 28.9679C221.935 28.936 221.258 28.8994 220.617 28.8696ZM319.815 28.727C319.843 28.7398 319.877 28.7527 319.905 28.7655C318.173 28.7653 317.732 28.8178 316.293 28.7733C317.467 28.7575 318.641 28.742 319.815 28.7268C319.815 28.7269 319.815 28.7269 319.815 28.727ZM406.128 28.5619C408.048 28.5472 409.468 28.5411 411.312 28.5579C411.313 28.5579 411.314 28.5579 411.316 28.5579C411.422 28.559 410.908 28.5726 411.047 28.5757C411.427 28.5732 411.82 28.5698 412.204 28.567C412.256 28.5772 412.306 28.5874 412.358 28.5975C411.276 28.5963 410.193 28.5951 409.107 28.5937C409.268 28.5997 409.432 28.6056 409.592 28.6115C408.67 28.6163 407.752 28.6212 406.83 28.6262C407.151 28.6076 407.471 28.5893 407.787 28.5711C407.234 28.5681 406.681 28.5651 406.128 28.5619ZM290.989 28.6061C291.293 28.6222 290.729 28.6502 291.202 28.6638C291.675 28.6772 292.547 28.646 292.343 28.6921C291.706 28.699 291.037 28.7069 290.389 28.7142C292.477 28.7947 294.56 28.7167 294.592 28.8179C292.588 28.7952 290.94 28.8098 289 28.8422C289.08 28.7592 291.021 28.6863 289.799 28.6104C290.192 28.609 290.604 28.6072 290.984 28.6063C290.986 28.6062 290.987 28.6062 290.989 28.6061ZM487.002 28.4303C488.189 28.4346 490.907 28.4436 492.406 28.4498C492.775 28.4515 494.003 28.4571 493.997 28.4571C493.961 28.4575 492.461 28.4547 494.068 28.4584C493.527 28.4573 493.002 28.4563 492.466 28.4553C492.562 28.4563 492.658 28.4572 492.75 28.458C493.403 28.4587 494.057 28.4595 494.711 28.4604C494.743 28.4605 494.775 28.4607 494.807 28.4608C492.458 28.4581 493.845 28.4602 492.626 28.4601C493.748 28.4612 494.878 28.4619 495.996 28.4622C495.351 28.462 494.59 28.4618 494.021 28.4616C493.945 28.4624 495.302 28.4622 495.535 28.4622C496.846 28.4621 490.173 28.4634 489.627 28.4675C490.693 28.467 491.812 28.4662 492.902 28.4653C492.589 28.4658 492.272 28.4664 491.96 28.4671C489.487 28.4684 486.714 28.4692 483.832 28.4679C483.572 28.4682 483.311 28.4685 483.055 28.4689C483.131 28.471 483.203 28.4731 483.279 28.4752C482.886 28.4758 482.489 28.4765 482.096 28.4772C483.254 28.4685 481.65 28.4704 479.714 28.4653C480.744 28.462 482.015 28.4638 481.927 28.4587C478.392 28.4627 474.253 28.4541 470.814 28.461C469.96 28.4629 469.963 28.4752 467.956 28.475C468.024 28.4736 468.036 28.4709 468.08 28.469C464.609 28.4761 462.503 28.4831 458.896 28.4761C459.104 28.4823 459.309 28.4884 459.517 28.4944C460.283 28.4907 461.05 28.4871 461.811 28.4837C462.332 28.4928 461.562 28.4977 463.847 28.4953C465.718 28.4933 464.604 28.4906 465.113 28.4875C465.802 28.4836 466.407 28.4897 467.149 28.4854C467.722 28.4822 467.102 28.476 468.597 28.4768C467.996 28.4853 467.382 28.4947 466.777 28.5044C466.412 28.503 466.05 28.5014 465.686 28.4998C466.054 28.4969 466.417 28.4942 466.786 28.4915C465.487 28.497 464.26 28.5027 462.917 28.5095C463.354 28.4947 461.967 28.5016 461.213 28.5043C460.039 28.5085 461.045 28.4969 460.275 28.4995C459.506 28.5019 458.676 28.5153 457.285 28.5146C458.03 28.5063 457.017 28.5008 457.212 28.4937C457.409 28.4866 458.88 28.4844 457.467 28.4777C454.749 28.4849 457.698 28.5094 455.863 28.5157C453.658 28.5246 453.134 28.4778 453.791 28.4676C454.308 28.4597 456.087 28.4613 456.608 28.4541C453.422 28.4395 453.394 28.467 452.849 28.4729C450.869 28.4943 452.199 28.4383 449.854 28.4584C449.898 28.4476 449.934 28.4378 449.978 28.4275C449.573 28.4292 449.305 28.4316 448.816 28.4329C450.257 28.4551 449.078 28.4536 448.472 28.4536C447.518 28.4535 448.992 28.4643 448.739 28.467C448.058 28.4744 446.98 28.4714 447.641 28.4809C447.345 28.4765 447.023 28.472 446.719 28.4674C445.604 28.4726 442.985 28.5257 445.478 28.513C445.245 28.5317 444.439 28.5239 443.81 28.5217C443.18 28.5195 443.192 28.5317 442.639 28.5302C440.439 28.5237 441.878 28.5 442.227 28.4834C439.321 28.4965 442.166 28.5024 437.978 28.5141C437.574 28.5294 439.509 28.5422 437.897 28.5531C437.601 28.528 436.414 28.5107 434.102 28.5031C433.877 28.5095 433.653 28.5161 433.429 28.5226C432.166 28.4984 432.812 28.4701 430.475 28.5042C431.73 28.443 430.867 28.4826 428.775 28.4574C428.35 28.4522 429.332 28.4395 428.738 28.4328C428.47 28.4296 427.817 28.4393 427.16 28.4313C426.839 28.4275 425.34 28.4013 424.302 28.4126C425.064 28.4449 423.091 28.4726 424.783 28.4987C421.656 28.4938 419.468 28.5097 422.972 28.4639C422.178 28.454 421.384 28.4438 420.59 28.4333C420.037 28.4411 419.479 28.4491 418.922 28.4573C418.838 28.4288 418.922 28.4208 416.743 28.4248C417.689 28.4184 418.63 28.412 419.58 28.406C419.612 28.4003 419.744 28.3945 419.712 28.389C418.549 28.3986 415.275 28.401 414.481 28.4085C413.688 28.4161 415.22 28.4191 414.992 28.4267C413.088 28.4903 413.239 28.4432 411.873 28.4541C411.072 28.4608 412.986 28.468 412.557 28.4709C410.967 28.4817 410.229 28.4461 408.819 28.4452C409.32 28.466 409.817 28.4867 410.306 28.507C408.827 28.5067 407.178 28.5073 405.803 28.5149C405.263 28.5179 405.671 28.5336 405.583 28.5347C405.146 28.5405 403.366 28.551 403.178 28.5513C401.76 28.5528 401.719 28.5298 400.341 28.5295C400.882 28.5271 401.391 28.525 401.92 28.5228C402.16 28.4854 402.406 28.4482 402.646 28.4113C401.296 28.4079 399.945 28.4044 398.59 28.4007C399.58 28.4142 400.573 28.4273 401.563 28.44C400.016 28.4699 398.469 28.5013 396.922 28.5342C396.116 28.5153 395.314 28.496 394.508 28.4761C392.32 28.4814 392.761 28.5646 391.723 28.4922C391.078 28.4986 390.433 28.505 389.788 28.5115C389.88 28.5009 389.971 28.4903 390.063 28.4797C389.286 28.4863 388.509 28.493 387.731 28.5C388.549 28.538 389.35 28.5771 390.16 28.6122C388.629 28.6227 388.6 28.5905 388.372 28.5827C387.766 28.562 386.565 28.5923 386.084 28.5727C385.922 28.5659 387.421 28.5431 386.904 28.5187C386.803 28.5144 384.796 28.4222 383.515 28.4431C383.539 28.4602 383.638 28.481 383.69 28.4995C381.967 28.5109 381.088 28.4202 381.317 28.3947C380.399 28.412 379.057 28.413 378.869 28.4414C378.4 28.442 377.935 28.4426 377.466 28.4432C377.954 28.3736 375.998 28.3848 375.87 28.446C376.676 28.4476 377.482 28.4493 378.288 28.4508C377.679 28.5241 380.127 28.5682 375.033 28.5015C374.059 28.4626 376.764 28.5064 375.971 28.4774C374.592 28.4605 373.298 28.4751 371.987 28.4471C370.356 28.4119 372.363 28.378 368.563 28.422C376.944 28.5354 367.414 28.4982 363.478 28.5377C362.395 28.4214 359.071 28.3796 354.494 28.4149C354.971 28.4499 356.411 28.4322 357.241 28.4437C358.07 28.455 357.173 28.4753 358.206 28.4911C359.24 28.5068 361.436 28.5273 362.482 28.5498C361.596 28.5687 357.221 28.6179 360.114 28.5613C357.954 28.5296 356.94 28.4948 354.263 28.4888C353.462 28.5436 353.521 28.5779 350.912 28.5817C352.455 28.5035 349.49 28.4503 350.143 28.3693C351.993 28.3892 350.959 28.4665 352.029 28.5035C352.139 28.5071 353.863 28.4874 354.263 28.4888C352.524 28.4206 351.922 28.3933 352.992 28.3121C351.762 28.3181 350.996 28.3068 350.884 28.3465C350.628 28.3291 350.37 28.3115 350.117 28.2938C349.717 28.2938 349.357 28.295 348.932 28.2942C349.517 28.3556 348.383 28.317 347.578 28.3441C346.772 28.3715 347.853 28.4205 345.641 28.4206C346.378 28.4353 347.052 28.4478 347.766 28.4614C346.339 28.4772 344.908 28.4935 343.481 28.5102C344.483 28.5487 346.655 28.6033 346.595 28.6528C345.938 28.6347 343.687 28.6708 343.441 28.6727C342.487 28.6792 343.006 28.6464 342.934 28.6457C341.436 28.6318 340.201 28.6444 339.632 28.5952C338.506 28.6186 337.657 28.6067 336.462 28.609C335.805 28.6103 335.933 28.6476 335.548 28.6409C332.991 28.5963 335.427 28.5435 330.495 28.6427C331.092 28.669 331.681 28.6956 332.278 28.7215C331.721 28.7324 331.167 28.7435 330.61 28.7547C330.237 28.7504 329.868 28.7461 329.495 28.7418C329.503 28.6831 329.513 28.6243 329.521 28.5655C329.112 28.5626 328.701 28.5597 328.293 28.5567C328.994 28.5505 329.697 28.5444 330.399 28.5383C330.463 28.528 330.522 28.5177 330.587 28.5074C329.544 28.4918 328.506 28.4757 327.464 28.4594C327.444 28.4801 327.424 28.5009 327.404 28.5216C325.055 28.4936 324.999 28.4749 322.767 28.5342C321.047 28.534 319.647 28.6248 318.653 28.6645C318.297 28.6527 317.939 28.6407 317.579 28.6287C317.35 28.6472 317.12 28.6656 316.891 28.6841C316.438 28.6593 315.979 28.6342 315.526 28.6091C315.274 28.6674 315.143 28.686 316.91 28.7039C316.305 28.7765 313.194 28.7503 311.927 28.7271C310.966 28.7096 312.032 28.6466 311.912 28.6393C311.511 28.6143 309.927 28.6377 309.595 28.6338C308.188 28.6172 307.202 28.6211 305.932 28.6081C305.684 28.6055 304.993 28.5656 304.934 28.5643C304.477 28.5577 303.349 28.5384 303.221 28.5378C296.605 28.51 303.675 28.6849 297.523 28.6719C297.707 28.6957 297.876 28.7194 298.057 28.7431C297.592 28.7452 297.122 28.7473 296.658 28.7494C296.068 28.7301 296.781 28.6923 295.611 28.7235C295.687 28.6935 295.764 28.6635 295.844 28.6337C295.335 28.6502 294.844 28.6668 294.323 28.6836C293.505 28.5802 290.52 28.5573 290.732 28.4321C290.805 28.3894 292.921 28.3473 291.803 28.3015C290.894 28.2919 291.509 28.3429 291.138 28.3454C288.461 28.3626 288.616 28.2908 287.522 28.3091C287.35 28.34 287.169 28.3715 286.992 28.4028C286.58 28.3936 286.166 28.3843 285.749 28.3749C285.653 28.3959 285.553 28.4169 285.457 28.4379C285.846 28.4393 286.283 28.4408 286.64 28.4422C286.143 28.5227 281.575 28.5617 283.317 28.4909C284.026 28.4624 285.325 28.4746 284.504 28.3779C283.282 28.3913 281.895 28.4053 280.608 28.4192C280.568 28.398 280.531 28.3768 280.491 28.3555C278.757 28.3685 280.334 28.4542 280.331 28.4994C279.934 28.5008 279.533 28.502 279.137 28.5033C278.968 28.4827 278.809 28.4611 278.632 28.441C278.616 28.4739 278.394 28.5506 277.212 28.5225C276.452 28.504 277.649 28.4202 276.2 28.4316C276.308 28.4837 276.832 28.5466 275.217 28.5641C275.057 28.5097 274.835 28.4597 274.711 28.4023C272.703 28.4547 271.79 28.369 269.433 28.4307C267.938 28.4694 265.89 28.6135 264.924 28.393C263.831 28.3868 264.178 28.442 263.854 28.4544C262.327 28.5134 261.191 28.4076 260.906 28.4011C259.092 28.3603 258.278 28.3972 256.799 28.3456C256.879 28.3879 256.923 28.4279 256.987 28.4691C258.342 28.4059 259.028 28.4094 260.928 28.423C260.291 28.4313 259.653 28.4398 259.016 28.4481C259.12 28.4821 259.224 28.5161 259.324 28.5498C265.2 28.4162 263.829 28.623 258.903 28.6739C258.478 28.6114 258.038 28.5487 257.617 28.4853C254.771 28.5819 253.432 28.4992 250.214 28.4785C249.831 28.4761 248.438 28.514 247.839 28.5161C247.849 28.5163 247.859 28.5166 247.869 28.5168C247.496 28.5792 248.001 28.6076 248.061 28.6631C247.736 28.6703 247.412 28.6775 247.087 28.6848C246.362 28.6429 246.617 28.6076 245.19 28.6187C245.383 28.6612 245.573 28.7036 245.765 28.746C244.202 28.7493 243.179 28.7037 241.724 28.7254C241.968 28.7088 242.21 28.6922 242.454 28.6757C239.288 28.6365 241.808 28.3795 239.415 28.5073C239.263 28.4849 239.114 28.4623 238.962 28.4399C239.948 28.4345 240.934 28.4293 241.916 28.424C241.936 28.3926 241.958 28.3614 241.974 28.3301C240.92 28.3389 239.86 28.3482 238.806 28.3572C239.576 28.3363 240.35 28.3154 241.119 28.2948C239.897 28.279 238.674 28.2629 237.452 28.2466C238.75 28.3646 237.067 28.378 237.384 28.4945C235.219 28.3983 233.519 28.2668 230.164 28.3487C229.499 28.3651 229.86 28.4493 227.973 28.3464C228.43 28.4801 226.065 28.5435 226.369 28.6718C227.026 28.6651 227.707 28.6607 228.344 28.6528C227.619 28.6092 227.499 28.4871 228.601 28.4512C230.008 28.4057 232.059 28.4891 231.975 28.3562C232.536 28.3627 233.058 28.3665 233.603 28.3719C233.379 28.4046 233.159 28.4376 232.939 28.4705C234.489 28.419 235.463 28.4362 236.209 28.5178C234.361 28.537 232.518 28.5565 230.67 28.5763C230.943 28.5818 231.218 28.5874 231.491 28.5928C230.092 28.6788 231.535 28.7583 228.925 28.7796C228.941 28.7403 228.954 28.701 228.97 28.6615C228.02 28.7672 225.419 28.7702 226.249 28.8911C225.464 28.8549 225.303 28.8311 224.859 28.898C222.786 28.8082 221.455 28.6895 222.193 28.547C221.424 28.5701 220.654 28.5934 219.888 28.6169C220.333 28.6558 220.778 28.6944 221.223 28.733C219.884 28.7318 218.536 28.7307 217.201 28.7298C217.073 28.6128 219.778 28.6923 218.998 28.5888C218.841 28.568 218.121 28.6131 217.932 28.6014C215.936 28.4743 219.069 28.5656 218.481 28.4681C215.507 28.4381 217.887 28.2729 213.79 28.411C213.682 28.3768 213.566 28.3418 213.466 28.3077C212.044 28.3049 212.159 28.3826 210.937 28.3971C210.171 28.4063 209.21 28.268 208.365 28.3616C208.214 28.3792 209.636 28.5476 206.648 28.5411C204.328 28.5359 205.294 28.4149 204.04 28.3717C203.194 28.3424 201.613 28.4092 200.414 28.3972C200.142 28.3955 199.906 28.2639 199.771 28.1055C199.619 27.9326 199.499 27.7815 199.424 27.6616C199.543 27.7906 199.672 27.9281 199.806 28.0704C199.954 28.2306 200.179 28.3372 200.414 28.3424C200.712 28.3496 201.011 28.3568 201.293 28.3649C201.59 28.3276 201.878 28.2907 202.171 28.2538C201.583 28.2704 200.987 28.274 200.414 28.2755C200.196 28.277 199.985 28.1857 199.838 28.0386C199.307 27.5118 198.819 27.0359 198.405 26.6836C196.931 25.0116 195.082 23.3425 195.446 23.9311C195.979 24.4327 195.465 23.8207 196.153 24.5709C196.201 24.6706 196.252 24.7741 196.3 24.8738C195.079 23.6466 194.227 22.7971 194.866 23.2756C194.678 23.0838 194.491 22.8938 194.303 22.7019C194.212 22.7258 194.123 22.7537 194.031 22.7776C193.798 22.5576 193.564 22.3365 193.33 22.1165C193.091 21.8518 192.851 21.5864 192.609 21.3187C193.044 21.5691 193.631 22.1507 191.75 20.1659C191.712 20.1922 191.672 20.2158 191.634 20.2421C190.056 18.5837 190.092 18.4626 188.058 16.4333C189.728 17.88 190.382 18.9319 190.601 18.7019C190.977 19.108 191.356 19.5175 191.732 19.9235C191.824 19.9507 191.915 19.9774 192.004 20.0018C189.891 17.9153 186.187 14.6431 184.926 13.0915C184.9 13.0705 184.874 13.0493 184.848 13.0281C184.659 12.8668 184.42 12.7686 184.18 12.7544C183.793 12.6687 183.409 12.8109 183.173 13.0494C182.222 13.9899 181.734 14.7147 180.489 15.7689C180.333 15.9008 180.447 15.4112 178.632 17.2343C178.702 17.2137 178.767 17.2317 178.835 17.226C178.426 17.6043 178.018 17.9798 177.611 18.3548C177.563 18.4485 177.511 18.5456 177.464 18.6395C178.145 17.9772 178.824 17.3168 179.505 16.6544C178.954 17.2199 178.4 17.7891 177.849 18.3548C178.615 17.6644 178.944 17.3363 178.565 17.8349C177.939 18.4677 177.312 19.1017 176.687 19.7346C176.684 19.7372 176.681 19.7398 176.679 19.7424C176.63 19.8205 176.569 19.8939 176.496 19.9588C176.59 19.9241 176.68 19.8745 176.763 19.8114C177.038 19.6076 177.314 19.4023 177.589 19.1998C177.339 19.4386 177.095 19.6734 176.856 19.9041C176.384 20.3793 175.573 20.3323 175.164 19.8844C174.273 18.96 173.461 18.1039 172.746 17.2763C172.546 17.0454 173.369 17.7462 171.846 16.3336C171.856 16.2785 171.843 16.2128 171.847 16.1574C169.96 14.4508 169.396 13.8342 167.59 11.8935C168.74 13.169 167.699 12.0459 167.356 11.7703C167.122 11.5816 167.951 12.4045 167.834 12.335C167.716 12.2652 166.546 11.2888 167.453 12.2178C169.901 14.2703 170.28 15.1177 173.266 17.9135C172.796 17.4936 172.322 17.0706 171.852 16.651C172.045 16.8773 172.217 17.0802 172.426 17.3245C170.85 15.6757 171.61 16.4837 170.917 15.8519C170.223 15.2193 168.991 14.0411 168.174 13.2428C167.916 12.9912 168.229 13.2151 167.658 12.6374C167.27 12.2438 166.134 11.2422 165.964 10.9178C165.854 10.7054 167.711 12.2826 165.336 9.90936C164.939 9.41264 166.062 10.5663 166.092 10.5848C166.358 10.7327 164.944 9.228 164.224 8.5988C164.165 8.54812 164.651 9.12723 164.054 8.56627C162.635 7.23549 161.895 6.38851 161.078 5.42525C160.896 5.41435 159.636 4.36076 158.228 2.88977C158.129 2.84093 158.034 2.7958 157.935 2.7472C158.172 2.95746 158.409 3.16787 158.646 3.3782C158.874 3.63733 159.121 3.90669 159.341 4.16283C157.871 2.73708 157.546 2.65211 156.807 2.00268C156.62 1.83822 156.456 1.69209 156.314 1.56261C156.093 1.40124 155.931 1.46495 155.862 1.4585C155.79 1.46211 155.77 1.42789 155.808 1.36156C155.845 1.29731 155.959 1.21233 156.112 1.19193C156.263 1.16753 156.434 1.21942 156.528 1.28284C156.539 1.29408 156.549 1.30553 156.559 1.31737C156.832 1.63309 157.095 1.94231 157.365 2.25685C157.362 2.19262 157.358 2.12765 157.357 2.06603C157.054 1.7631 156.799 1.50645 156.587 1.28923C156.137 0.872441 155.706 1.05888 155.558 1.11484C155.39 1.1922 155.359 1.20198 155.363 1.15114C155.367 1.06381 155.622 0.780281 155.189 1.06513C155.081 1.1522 154.924 1.29087 154.699 1.50174C154.385 2.11642 153.074 3.45804 151.288 5.05011C151.102 5.23788 150.914 5.42576 150.728 5.61372C150.719 5.6671 150.754 5.70069 150.718 5.76626C148.709 7.82767 148.109 7.95265 147.893 8.1226C146.937 8.87763 146.408 9.68199 146.157 9.93547C145.098 11.0024 144.727 11.2489 143.741 12.2864C142.681 13.4026 143.474 12.7071 143.186 13.0808C142.954 13.3803 142.102 14.2447 141.782 14.6348C141.894 14.4648 142.022 14.2798 142.134 14.1103C140.966 15.198 140.005 16.0802 138.713 17.3503C137.845 18.5206 136.797 19.2964 136.532 19.5804C136.455 19.6587 136.456 19.707 136.636 19.684C136.651 19.6807 136.666 19.6769 136.683 19.6727C137.917 18.4801 138.629 17.8356 139.352 17.2612C138.566 18.0672 137.778 18.8736 136.992 19.6798C136.919 19.7348 136.852 19.7848 136.785 19.8333C136.594 19.9743 136.378 20.0592 136.091 20.0547C135.869 20.105 135.515 20.0561 135.248 19.8001C134.57 19.1621 133.738 18.3066 133.327 17.9258C130.694 15.4859 131.358 16.3919 129.244 13.8747C130.933 15.5231 131.028 15.4226 132.67 17.0912C132.382 16.6645 131.527 15.8375 132.155 16.2982C130.534 14.7168 130.976 15.3097 130.287 14.7532C129.692 14.2732 128.606 13.1945 128.592 13.3308C128.587 13.3201 128.582 13.3095 128.577 13.2991C128.533 13.1796 128.477 13.0744 128.367 12.97C128.013 12.8232 127.577 12.9108 127.309 13.1855C126.548 13.9471 125.787 14.7086 125.026 15.4703C125.424 14.9845 125.822 14.499 126.221 14.0138C125.871 14.3314 125.52 14.6494 125.169 14.9669C123.873 16.4064 121.936 18.2666 120.579 19.6266C120.204 20.0036 119.642 19.885 119.402 19.6457C118.891 19.1813 118.613 19.0044 118.716 19.3102C117.474 18.0916 117.364 17.8941 116.762 17.1589C116.662 17.1118 116.568 17.0624 116.465 17.0184C115.699 16.1971 114.989 15.6887 114.315 14.9628C113.641 14.2372 113.563 13.9678 113.3 14.0265C113.083 13.7596 112.863 13.4956 112.644 13.2323C112.473 13.02 112.193 12.8848 111.896 12.8886C111.674 12.9421 111.485 13.0723 111.362 13.2389C111.267 13.3646 111.171 13.49 111.076 13.6151C110.632 14.021 110.187 14.428 109.742 14.8338C109.593 15.1386 107.888 16.7772 107.204 17.5669C106.421 18.1824 106.174 17.8968 104.575 19.5893C104.684 19.6132 104.792 19.6375 104.901 19.6614C104.851 19.7075 104.802 19.7536 104.752 19.7998C104.391 20.1484 103.791 20.1722 103.416 19.8745C103.407 19.8306 103.405 19.7897 103.402 19.7473C103.586 19.9184 103.842 20.0095 104.101 19.9913C103.872 19.9635 103.679 19.8517 103.556 19.7052C103.511 19.6819 103.468 19.6538 103.427 19.6213C102.846 19.141 102.265 18.6603 101.682 18.1781C102.185 18.7376 102.688 19.2972 103.191 19.8565C103.46 20.1569 103.905 20.3005 104.316 20.2045C103.881 20.3448 103.414 20.2033 103.13 19.9182C102.504 19.3081 101.99 18.7649 101.332 18.187C100.684 17.3553 101.011 17.5746 101.412 17.7746C101.128 17.5083 100.842 17.2386 100.559 16.9723C100.841 17.0529 100.436 16.5278 102.034 18.1435C101.952 18.0044 101.867 17.8643 101.789 17.7268C101.521 17.4676 101.374 17.2723 101.075 16.9941C100.257 16.2356 99.4758 15.8089 99.4673 15.9251C99.4638 15.9867 100.303 16.7013 100.226 16.7162C100.037 16.7513 98.304 14.9199 100.763 17.6015C99.8382 16.8203 99.7012 16.5762 98.7805 15.6151C98.8166 15.7262 98.8509 15.835 98.8843 15.9432C98.4649 15.4901 98.0449 15.0363 97.6256 14.5831C98.4252 14.9964 95.2822 11.7057 98.3462 14.4333C97.4997 13.5683 96.6562 12.7062 95.813 11.8435C96.0086 11.9993 96.204 12.1554 96.3995 12.3112C96.774 12.7075 97.1464 13.1013 97.5212 13.4973C97.1046 13.0072 96.6871 12.5164 96.2709 12.026C95.1555 10.9988 94.666 10.6485 94.0894 10.2444C95.2725 11.5548 94.9515 11.0611 95.9394 12.0162C95.851 12.0367 95.8457 12.1317 95.7036 12.104C95.3146 11.489 93.5954 9.93313 93.21 9.55907C92.0377 8.42011 93.0557 9.21459 92.2853 8.43883C91.5144 7.66227 90.5349 6.8166 90.0152 6.07222C89.9638 6.14635 89.9493 6.2619 89.9375 6.3644C88.7123 5.18047 89.027 5.34641 88.912 5.21203C88.8737 5.16704 88.8356 5.12257 88.7978 5.0786C88.371 4.57493 87.5625 4.59463 87.1439 5.02022C85.8019 6.28727 84.8402 7.41511 83.0914 9.18869C83.4004 8.91956 83.7104 8.64547 84.0209 8.37221C82.4397 10.2249 83.555 9.02694 85.0899 7.58047C83.6794 8.9645 82.9952 9.88074 82.0443 10.9025C81.0935 11.924 79.3437 13.5567 78.6787 14.1279C80.0168 12.6374 81.5914 11.1613 83.1402 9.56975C82.8965 9.68304 82.6677 9.80125 82.4117 9.91354C81.5939 11.0058 80.9488 11.4674 80.6158 11.7635C79.6381 12.6333 79.786 12.7232 79.0997 13.1533C79.1664 13.1747 79.22 13.1951 79.2838 13.2136C77.3585 15.1029 75.2215 17.0807 74.1454 18.4874C73.9247 18.4933 73.7356 18.4753 73.4954 18.4959C73.17 18.8932 72.8351 19.2346 72.5051 19.553C72.2164 19.8309 71.7603 19.7793 71.5139 19.5341C71.4986 19.5194 71.4833 19.5048 71.4679 19.4903C70.7719 18.8315 70.9421 19.1771 70.1122 18.4144C69.9586 18.2732 69.7068 17.9112 69.3035 17.5889C68.8968 17.2629 67.2405 16.2173 67.3455 15.7892C66.6638 15.1049 66.0272 14.4488 65.363 13.7754C66.0299 14.4121 66.6965 15.0496 67.3604 15.6837C66.8697 15.0635 66.3826 14.4466 65.8925 13.8258C65.7638 13.8128 65.6338 13.8007 65.5086 13.7899C65.2501 13.5545 65.0072 13.3258 64.775 13.1014C64.3442 12.6722 63.6212 12.6964 63.2231 13.0994C62.4899 13.8093 61.7566 14.4941 60.9284 15.3471C60.68 15.6031 61.391 15.1241 60.2423 16.2136C59.1596 17.2409 58.1654 17.8438 56.5278 19.5758C56.4534 19.6561 56.3602 19.7235 56.2505 19.7687C56.2165 19.7815 56.1296 19.8489 55.9662 19.8759C55.8075 19.9036 55.5588 19.8717 55.3643 19.6837C55.1926 19.5179 55.0156 19.321 54.8525 19.0905C54.7236 18.9085 55.4166 19.5239 55.0947 19.1322C54.7726 18.7402 53.209 17.117 53.1677 16.9088C53.1552 16.9553 53.2241 17.0854 53.2422 17.1636C52.9564 16.9055 52.6677 16.6446 52.3792 16.3834C52.4057 16.3059 52.4303 16.2263 52.4565 16.149C51.1406 15.0195 50.238 14.4001 48.8313 13.0451C48.4529 12.6544 47.6797 12.5439 47.165 13.0414C47.0929 13.1102 47.0192 13.1802 46.9437 13.2515C47.0241 13.1881 47.1044 13.1246 47.1848 13.0612C47.6598 12.6597 48.3799 12.7753 48.6846 13.1918C48.8691 13.4253 49.0535 13.6586 49.2376 13.8915C49.4696 14.0166 49.7023 14.1416 49.9314 14.264C50.9782 15.3538 52.0283 16.4462 53.0756 17.5357C53.3115 17.6512 53.5441 17.7639 53.7798 17.8796C54.0552 18.1709 54.3281 18.4592 54.6036 18.7504C54.4894 18.7229 54.3748 18.6946 54.2578 18.6643C54.6189 19.012 54.9803 19.3599 55.3409 19.707C55.5367 19.8974 55.8159 19.9902 56.0811 19.9599C55.8477 20.0433 55.5137 19.9989 55.2656 19.7824C54.0469 18.7455 52.8081 17.1768 52.7513 17.4793C52.5325 17.194 52.3136 16.9079 52.0951 16.6222C51.8801 16.6161 51.3972 16.0736 50.5099 15.1536C50.6651 15.4121 50.8427 15.6914 50.9806 15.9334C50.3863 15.2325 49.3792 14.2058 48.5375 13.3389C48.3084 13.0954 47.9505 13.0555 47.705 13.15C47.3059 13.3559 47.6399 13.0315 47.5144 13.0918C47.4551 13.122 47.3952 13.1634 47.3395 13.2159C46.6879 13.8324 45.8032 14.9416 45.5702 15.1554C44.051 16.5497 42.8468 17.2387 41.4264 18.9982C43.1093 17.3991 42.1989 18.2742 42.8768 17.7844C43.0891 17.6311 45.2695 15.5715 42.5887 18.2001C42.2749 18.5087 37.2795 23.1472 38.7251 21.426C37.9892 22.2489 37.4298 22.9099 36.7624 23.671C34.6509 25.0513 35.5987 24.7906 36.2948 24.4721C36.0095 24.7593 35.7392 25.0336 35.4445 25.3285C35.8043 24.6343 33.5937 26.7735 32.2985 28.1749C32.0948 28.3968 31.8171 28.4986 31.5858 28.5142C31.5384 28.5179 31.4931 28.5218 31.4502 28.5258C31.1844 28.5506 31.4414 28.5869 31.5858 28.622C31.6861 28.6409 31.7475 28.6581 31.5858 28.6817C31.5132 28.6914 31.3872 28.7001 31.1853 28.7075C30.6204 28.6879 29.9796 28.6623 29.3826 28.6401C30.2483 28.82 28.5493 28.8906 28.5731 29.0746C27.487 28.9122 26.6562 28.5638 27.2531 28.3752C26.3555 28.4514 25.4531 28.5279 24.5555 28.6053C24.9723 28.6492 25.3945 28.6925 25.8114 28.7361C22.8774 28.6206 19.1048 28.8897 18.4916 28.4965C18.1028 28.4993 17.7099 28.5018 17.3211 28.5046C17.2008 28.5712 17.0846 28.638 16.9644 28.7047C15.2052 28.6477 13.45 28.5897 11.6908 28.5316C13.2572 28.4896 13.6301 28.3944 15.2727 28.4718C14.6397 28.3949 13.9949 28.3173 13.3739 28.2399C10.9009 28.4467 10.5635 28.585 6.84013 28.523C6.67179 28.5204 3.85847 28.3435 3.76227 28.326C3.32156 28.2469 3.99055 28.1325 3.79431 28.0925C3.2492 27.9808 -0.0632123 27.6949 0.000918873 27.652C0.810585 27.1284 11.9553 27.1505 14.9694 27.1314C20.5278 27.0968 26.0643 27.0835 31.5858 27.0842C31.4866 27.0839 31.3884 27.1247 31.3187 27.195C36.3345 22.183 41.349 17.204 46.3622 12.2385C47.2177 11.3468 48.7841 11.3517 49.6324 12.2439C51.8178 14.4511 54.0008 16.658 56.1831 18.8649C56.0834 18.7673 55.9147 18.7728 55.8232 18.8711C58.0308 16.6882 60.2384 14.5059 62.4461 12.3224C63.258 11.4769 64.7437 11.4821 65.5478 12.3285C67.7302 14.5347 69.9138 16.7411 72.1002 18.9478C72.0443 18.895 71.9543 18.8994 71.9048 18.9528C76.6449 14.2546 81.3866 9.54242 86.1332 4.80271C86.359 4.57686 86.2161 4.63111 86.3108 4.5332C86.3677 4.47439 86.4253 4.41643 86.4831 4.3595C87.5127 3.31753 89.0583 3.87208 89.4579 4.41845C89.5031 4.46957 89.5423 4.51272 89.5748 4.54622C90.0402 5.02544 89.8438 4.70164 90.1881 5.04753C93.7436 8.62285 97.0636 12.032 100.634 15.5984C100.866 15.8307 100.581 15.6416 100.997 16.0421C101.212 16.2484 101.944 16.835 102.419 17.3106C102.996 17.8871 103.536 18.4348 104.07 18.9776C104.028 18.9426 103.969 18.9515 103.94 18.9878C104.593 18.3462 105.263 17.6872 105.99 16.9629C106.95 16.0067 108.397 14.5793 109.47 13.5098C109.826 13.1545 110.175 12.7695 110.525 12.4017C110.766 12.1539 111.077 11.9665 111.405 11.8702C112.374 11.6363 112.754 11.9718 112.897 12.0392C113.046 12.143 113.01 12.1536 113.129 12.2351C113.237 12.3131 113.328 12.3931 113.405 12.471C113.739 12.8077 113.887 12.8393 114.265 13.2222C115.05 14.0184 115.044 14.1097 116.049 15.1112C116.767 15.8269 118.442 17.434 119.355 18.3294C119.57 18.5575 119.793 18.7907 120.02 19.0278C120 19.0252 119.995 19.0397 119.997 19.045C121.714 17.3648 123.519 15.5385 124.954 14.0845C126.006 13.019 126.247 12.8844 126.638 12.5143C126.714 12.4406 126.8 12.368 126.899 12.2987C127.676 11.7461 128.76 11.8889 129.368 12.5088C130.613 13.7154 131.724 14.7274 132.976 15.9816C134.033 17.0409 135.015 18.0538 135.988 19.0596C135.986 19.0722 136.009 19.088 136.029 19.0772C136.635 18.4896 137.243 17.8958 137.862 17.2816C138.192 16.9544 138.059 16.9724 138.381 16.6494C139.572 15.454 141.092 13.922 142.165 12.8701C143.362 11.6977 143.881 11.3433 145.027 10.1704C145.362 9.82647 145.391 9.65612 145.953 9.07913C146.851 8.15777 147.913 7.22515 148.557 6.59878C149.438 5.74005 148.608 6.42345 149.794 5.26283C149.843 5.21517 150.07 5.09086 150.32 4.83708C151.049 4.09802 150.936 4.13089 152.017 3.06343C152.121 2.96123 153.597 1.58854 153.739 1.44743C153.988 1.19999 154.314 0.879191 154.661 0.537419C155.356 -0.201611 156.688 -0.158942 157.33 0.5459C157.752 0.972308 158.115 1.33728 158.307 1.5233C160.102 3.25495 158.791 1.78995 160.126 3.45331C160.824 4.07579 161.517 4.69256 162.252 5.35654C161.751 4.92358 163.591 6.87468 163.727 7.00483C164.853 8.08307 164.259 7.36384 165.643 8.77484C163.661 7.06608 167.423 10.5998 168.237 11.4123C170.896 14.0618 173.367 16.5712 175.907 19.1412C175.951 19.1942 176.047 19.2002 176.1 19.1475C176.958 18.2977 177.827 17.4364 178.713 16.5545C179.882 15.3913 181.381 13.8567 182.68 12.556C182.993 12.2396 183.422 12.049 183.843 12.0165C184.271 11.9969 184.32 12.0574 184.356 12.0672C184.39 12.0918 184.423 12.0791 184.763 12.2231C185.362 12.5815 184.812 12.1444 185.319 12.5575C185.332 12.5708 185.347 12.5858 185.364 12.6025C187.372 14.6466 188.893 16.3018 190.823 18.0836C190.902 18.1857 190.89 18.1919 191.027 18.3545C192.613 19.807 195.435 22.8353 196.52 23.9499C198.216 25.6937 198.701 26.0877 199.938 27.3497C200.033 27.4463 200.13 27.546 200.229 27.6477C200.273 27.6978 200.341 27.733 200.414 27.7377C202.553 27.7774 204.804 27.8423 203.491 27.6659C205.094 27.6637 206.637 27.6664 208.256 27.6896C208.436 27.6923 208.312 27.7437 208.384 27.7449C208.841 27.7535 208.99 27.7076 209.298 27.7063C210.135 27.7028 208.77 27.7545 209.963 27.7421C210.592 27.7354 210.949 27.6963 212.697 27.7002C223.23 27.7243 234.666 27.7688 245.464 27.803C246.205 27.8053 245.717 27.7605 246.647 27.7659C249.878 27.785 255.66 27.871 258.446 27.868C261.231 27.8655 260.603 27.804 262.346 27.7841C262.683 27.7803 262.407 27.8133 262.711 27.8147C264.759 27.8237 267.201 27.8821 268.861 27.8938C269.958 27.9017 269.87 27.8499 270.631 27.8484C271.766 27.8462 272.933 27.9008 273.538 27.9039C276.384 27.918 278.34 27.8827 280.997 27.9101C280.893 27.899 280.824 27.8888 280.736 27.878C283.882 27.8882 287.025 27.8984 290.171 27.9086C290.022 27.8987 289.879 27.8888 289.731 27.8788C293.422 27.8945 293.001 27.9941 292.676 27.78C292.945 27.7733 293.229 27.7656 293.486 27.7596C293.381 27.869 295.614 27.9552 298.456 27.9889C298.664 27.9913 300.063 27.8915 299.911 28.0132C300.275 27.9842 300.493 27.9642 300.801 27.9389C301.402 27.9773 302.011 28.0149 302.612 28.0525C302.937 28.0478 303.266 28.0432 303.591 28.0385C303.639 28.0152 303.602 27.9907 303.706 27.968C305.213 27.9684 308.304 28.0047 309.494 28.0046C312.452 28.0041 315.464 27.9531 317.765 28.0227C318.885 28.019 317.772 27.9736 319.439 27.9835C319.628 28.0054 319.805 28.0263 320.001 28.0487C321.363 27.9569 321.648 28.016 323.515 28.0399C324.777 28.0562 325.604 28.0355 326.806 28.043C327.111 28.0448 327.067 28.0716 327.276 28.0712C327.974 28.0699 329.966 28.0383 330.458 28.0387C334.923 28.0406 338.759 28.055 343.011 28.0746C343.468 28.0767 342.876 28.0512 343.349 28.0535C344.11 28.0571 343.662 28.0926 344.103 28.0955C345.332 28.1032 345.342 28.0649 347.057 28.0675C352.704 28.0764 359.197 28.1204 365.097 28.1368C365.281 28.1373 365.27 28.1178 365.47 28.1181C366.777 28.1207 368.099 28.1499 369.285 28.1525C371.253 28.1568 372.732 28.1346 374.676 28.14C378.476 28.1503 381.871 28.1716 385.779 28.182C388.977 28.1907 391.755 28.1956 395.262 28.2047C410.582 28.2407 426.214 28.2514 441.637 28.3114C442.03 28.3128 441.87 28.3195 441.99 28.3195C443.128 28.3194 443.23 28.3105 443.634 28.331C445.084 28.3308 445.542 28.318 447.293 28.324C448.227 28.3272 447.53 28.346 449.109 28.3395C450.535 28.3338 448.961 28.319 453.201 28.3418C453.313 28.3424 453.866 28.3551 454.748 28.3544C455.633 28.354 454.608 28.3434 456.74 28.3473C461.746 28.3574 468.083 28.3835 473.902 28.3981C474.267 28.3989 477.78 28.4065 478.473 28.4076C479.815 28.4097 479.535 28.4056 481.278 28.4109C482.625 28.4152 483.736 28.4218 485.319 28.4265C485.503 28.427 485.812 28.4257 487.002 28.4303ZM194.082 22.929C193.802 22.7448 193.204 22.5041 191.85 21.0471C191.722 20.9089 192.565 21.504 191.808 20.709C192.581 21.4548 193.325 22.1896 194.083 22.9288C194.083 22.9289 194.082 22.9289 194.082 22.929ZM495.616 28.4628C494.129 28.4653 492.637 28.4677 491.15 28.4699C492.176 28.4678 493.204 28.4659 494.226 28.4644C494.691 28.4641 495.151 28.4636 495.616 28.4628ZM310.505 28.7081C310.506 28.7081 310.508 28.708 310.509 28.708C308.946 28.7299 307.382 28.7522 305.818 28.775C305.983 28.7599 306.148 28.7447 306.312 28.7296C307.546 28.7044 308.781 28.6797 310.011 28.6555C310.176 28.6731 310.34 28.6906 310.505 28.7081ZM322.855 28.548C323.853 28.5636 323.608 28.5908 324.157 28.6167C324.157 28.6166 324.157 28.6166 324.157 28.6165C324.302 28.6233 324.977 28.6286 325.238 28.6293C325.142 28.6126 325.018 28.5961 324.914 28.5795C327.242 28.5389 331.796 28.6738 325.9 28.7402C325.989 28.719 326.073 28.6978 326.161 28.6766C323.231 28.6869 319.965 28.6426 322.855 28.548ZM177.602 19.4397C177.396 19.67 177.207 19.8807 177.029 20.0773C176.43 20.7221 175.444 20.6483 174.924 20.1242C174.148 19.3916 173.436 18.6651 172.182 17.3359C172.512 17.6113 172.843 17.8868 173.174 18.1624C173.501 18.544 173.825 18.9226 174.153 19.3039C174.154 19.3049 174.155 19.3059 174.156 19.3069C174.256 19.3488 174.356 19.3908 174.453 19.4298C174.644 19.6267 174.835 19.8237 175.027 20.0208C175.527 20.5568 176.468 20.5706 176.989 20.0365C177.193 19.8374 177.398 19.6385 177.602 19.4397ZM418.595 28.5233C419.292 28.5854 419.091 28.5489 417.1 28.5657C416.41 28.5717 417.082 28.582 416.653 28.5845C414.337 28.5987 414.152 28.5544 414.669 28.5308C415.98 28.5282 417.304 28.5257 418.591 28.5233C418.592 28.5233 418.594 28.5233 418.595 28.5233ZM478.685 28.4729C478.686 28.4729 478.688 28.4729 478.689 28.4729C478.749 28.4762 477.816 28.4781 478.869 28.4803C478.067 28.4812 477.266 28.482 476.461 28.4828C476.697 28.4822 476.939 28.4816 477.175 28.481C476.966 28.48 476.757 28.4788 476.549 28.4777C476.264 28.4823 476 28.4801 475.158 28.4792C475.391 28.4841 475.622 28.4888 475.855 28.4933C474.877 28.4934 473.896 28.4932 472.918 28.4928C472.906 28.4914 472.894 28.49 472.882 28.4886C472.513 28.4909 472.148 28.4932 471.779 28.4956C471.679 28.494 471.583 28.4923 471.483 28.4906C471.038 28.4925 470.592 28.4945 470.148 28.4965C470.012 28.4921 470.992 28.489 469.255 28.4921C469.788 28.4867 470.32 28.4815 470.857 28.4766C473.466 28.4755 476.076 28.4743 478.685 28.4729ZM400.48 28.5615C403.354 28.5554 402.545 28.5679 401.879 28.6067C401.415 28.5919 400.945 28.5768 400.48 28.5615ZM252.423 28.6282C251.589 28.6956 250.752 28.763 249.898 28.8294C248.198 28.87 246.498 28.7479 247.777 28.6978C249.316 28.6383 250.924 28.7015 252.423 28.6282ZM213.715 28.689C215.795 28.7231 213.838 28.8164 213.369 28.8711C212.794 28.7856 211.992 28.794 210.704 28.7854C211.914 28.7782 213.372 28.6831 213.715 28.6888C213.715 28.6889 213.715 28.689 213.715 28.689ZM285.884 28.6702C286.717 28.6676 287.546 28.6509 288.291 28.6695C288.066 28.7242 286.576 28.6764 287.642 28.7561C287.109 28.7582 286.575 28.7603 286.046 28.7626C286.382 28.7284 285.93 28.7037 285.886 28.6703C285.885 28.6703 285.885 28.6702 285.884 28.6702ZM372.636 28.6285C371.001 28.5923 370.691 28.6085 369.044 28.6381C368.812 28.6061 370.776 28.5507 372.006 28.5386C372.215 28.5687 372.424 28.5987 372.636 28.6285ZM45.022 16.3199C45.154 15.9965 46.5442 14.5494 47.6198 13.4961C47.7495 13.3699 47.9242 13.3354 48.0573 13.3598C47.9655 13.3741 47.8838 13.4136 47.8241 13.4663C47.7733 13.4902 47.7281 13.5234 47.689 13.5653C46.8005 14.4827 45.9096 15.4029 45.022 16.3199ZM210.091 28.7798C210.306 28.7823 210.511 28.7841 210.704 28.7854C210.489 28.7866 210.282 28.7853 210.091 28.7798ZM144.552 11.7586C144.956 11.1943 143.489 12.6066 145.27 10.8905C145.269 10.8904 145.269 10.8904 145.269 10.8903C146.447 9.75516 146.708 9.50543 147.786 8.44076C147.501 8.92771 145.365 11.1382 148.381 8.16319C148.421 8.12382 148.282 8.14198 148.769 7.67167C148.919 7.52653 149.441 7.10313 150.174 6.39816C150.411 6.17033 152.172 4.4385 149.794 6.82074C149.935 6.82022 149.878 7.01939 149.952 7.08202C149.044 8.03231 148.192 8.60871 147.213 9.59561C145.759 11.0614 145.159 11.947 144.693 12.0414C145.873 10.7676 147.98 8.65878 148.365 8.49414C149.552 7.30709 149.803 6.87604 148.801 7.78901C144.759 11.9484 147.541 8.7798 144.023 12.4438C144.006 12.5122 143.886 12.6879 143.933 12.6898C142.746 13.6945 144.407 11.96 144.552 11.7586ZM153.322 3.37728C152.666 4.13918 152.014 4.89959 151.363 5.65973C151.276 5.57258 151.587 5.1049 152.654 3.93918C152.876 3.753 153.1 3.56374 153.322 3.37728ZM91.9086 8.71889C91.7486 8.67484 91.4232 8.45621 91.1694 8.31329C91.0742 8.16265 89.3867 6.4238 88.4463 5.43004C88.2218 5.18848 87.9421 5.22003 87.9121 5.20882C87.893 5.20564 87.9239 5.18731 88.0259 5.18203C88.1242 5.18025 88.3134 5.19176 88.5068 5.36953C88.5337 5.39527 88.5614 5.42191 88.59 5.44944C88.974 5.81934 91.1722 8.2195 91.9086 8.71889ZM383.991 28.5822C383.141 28.5692 382.295 28.556 381.449 28.5424C382.751 28.5326 384.054 28.5227 385.356 28.5133C384.9 28.536 384.447 28.5589 383.991 28.5822ZM238.59 28.5545C238.949 28.5561 237.757 28.6219 239.171 28.6108C238.117 28.653 237.13 28.6892 236.1 28.7299C235.791 28.699 235.479 28.6683 235.171 28.6372C234.93 28.6574 234.685 28.6776 234.445 28.6979C234.589 28.6522 234.717 28.6075 234.87 28.5611C236.605 28.6578 237.003 28.5472 238.59 28.5545ZM290.196 28.3955C290.508 28.4733 287.995 28.5206 290.468 28.5324C289.999 28.5837 289.245 28.6113 287.798 28.617C287.565 28.5973 287.334 28.5777 287.101 28.5579C287.069 28.6112 286.697 28.6312 285.884 28.6702C285.883 28.6701 285.883 28.67 285.882 28.67C283.682 28.676 283.814 28.658 283.285 28.5692C285.613 28.6181 285.683 28.5368 287.27 28.4891C288.36 28.4564 289.784 28.471 290.196 28.3955ZM97.3486 14.1502C96.0844 13.0855 97.0372 14.2227 95.0752 12.0527C95.2338 12.1605 95.3928 12.2691 95.5514 12.377C96.1507 12.9678 96.7498 13.5589 97.3486 14.1502ZM298.324 28.6551C298.135 28.5396 296.585 28.4483 296.32 28.6393C297.831 28.6765 297.093 28.5699 298.324 28.6551ZM214.425 28.4297C217.33 28.438 216.781 28.622 215.587 28.7161C215.402 28.6825 215.218 28.6488 215.038 28.6152C214.529 28.6309 214.019 28.6466 213.51 28.6622C213.815 28.5845 214.12 28.5069 214.425 28.4297ZM349.549 28.5106C347.329 28.5733 351.946 28.5433 350.395 28.5824C349.157 28.6142 347.524 28.5533 348.142 28.5136C348.571 28.5124 349.048 28.5115 349.545 28.5106C349.546 28.5106 349.548 28.5106 349.549 28.5106ZM336.7 28.534C337.064 28.6051 336.539 28.5846 338.293 28.5706C338.794 28.5668 342.775 28.5901 341.104 28.5337C339.681 28.5344 338.178 28.534 336.7 28.534ZM186.299 15.0019C186.324 14.9393 188.587 17.0119 188.841 17.3139C188.841 17.3139 188.841 17.3138 188.842 17.3137C189.528 18.1289 187.232 15.8523 188.136 16.9323C186.016 14.659 185.168 14.1927 185.572 14.0944C186.877 15.3771 186.213 14.8162 186.299 15.0019ZM11.7143 28.6272C11.7129 28.6272 11.7115 28.6272 11.71 28.6272C11.9159 28.6323 13.6122 28.7881 13.4059 28.8423C11.366 28.7973 11.7296 28.6932 9.83042 28.8647C9.72631 28.8099 9.6371 28.7568 9.52498 28.7015C10.2785 28.6686 10.6962 28.6027 11.7143 28.6272ZM86.3147 6.24981C86.5729 5.97504 86.963 5.61096 87.3631 5.2395C87.729 4.88694 88.318 4.97798 88.5744 5.23411C88.2047 4.98658 87.7157 5.08415 87.4876 5.36399C86.0215 6.99191 84.6416 8.02971 86.3147 6.24981ZM450.58 28.4916C450.578 28.4916 450.576 28.4917 450.574 28.4917C450.575 28.4917 450.575 28.4916 450.576 28.4916C450.578 28.4916 450.579 28.4916 450.58 28.4916ZM128.67 13.4937C128.617 13.4107 128.591 13.3593 128.588 13.3342C128.589 13.3332 128.59 13.3321 128.591 13.3311C128.615 13.3818 128.64 13.435 128.67 13.4937ZM181.747 14.9876C181.097 15.5545 182.205 14.3289 183.303 13.1791C183.699 12.7404 184.422 12.8323 184.711 13.1653C184.818 13.2727 184.913 13.37 184.993 13.4538C184.897 13.4137 184.861 13.4283 184.67 13.3018C184.656 13.2849 184.642 13.2675 184.627 13.2498C184.423 12.9539 183.74 12.8176 183.363 13.2398C182.606 14.0369 181.849 14.8984 181.747 14.9876ZM271.458 28.5742C268.095 28.5735 272.472 28.3314 272.652 28.5234C272.645 28.5271 271.545 28.5738 271.458 28.5742ZM200.985 28.6056C201.842 28.5095 200.12 28.4844 202.874 28.5006C203.034 28.5252 203.194 28.5499 203.354 28.5745C202.565 28.5847 201.775 28.5952 200.985 28.6056ZM249.428 28.2375C245.196 28.2775 241.148 28.3585 243.905 28.5848C244.225 28.5773 244.55 28.5702 244.87 28.5628C244.918 28.4529 246.1 28.5128 247.83 28.5159C248.077 28.4727 249.037 28.4628 249.217 28.4264C249.565 28.3562 248.462 28.3059 249.428 28.2375ZM428.117 28.4486C428.049 28.4537 427.982 28.4588 427.914 28.4638C427.245 28.4696 426.574 28.4755 425.904 28.4816C426.012 28.4715 426.121 28.4615 426.229 28.4515C426.858 28.4505 427.484 28.4495 428.113 28.4486C428.114 28.4486 428.116 28.4486 428.117 28.4486ZM156.436 0.797089C156.213 0.864509 156.397 0.913976 156.678 1.19793C157.071 1.62907 157.9 2.38022 159.079 3.43975C158.326 2.64804 157.57 1.85332 156.816 1.06064C156.709 0.949208 156.579 0.8584 156.436 0.797089ZM317.44 28.359C317.528 28.4007 317.615 28.4423 317.707 28.4839C319.154 28.4404 318.885 28.3936 318.192 28.3381C317.94 28.345 317.692 28.352 317.44 28.359ZM338.282 28.3553C337.682 28.3472 337.988 28.3772 337.926 28.3766C336.407 28.3601 336.193 28.3458 334.329 28.3676C334.1 28.3755 333.876 28.3838 333.647 28.392C334.509 28.4715 335.135 28.4286 336.958 28.4745C336.629 28.4479 336.302 28.421 335.973 28.3939C336.987 28.4 337.997 28.4059 339.011 28.4118C339.131 28.4037 339.251 28.3957 339.372 28.3877C339.011 28.3771 338.639 28.3651 338.282 28.3553ZM435.858 28.463C436.844 28.4641 437.834 28.4652 438.82 28.4663C438.856 28.4594 438.891 28.4524 438.927 28.4456C437.905 28.4511 436.879 28.4569 435.858 28.463ZM141.782 14.6348C141.739 14.7014 141.696 14.7668 141.66 14.8264C141.65 14.8075 141.7 14.736 141.782 14.6348ZM9.11275 28.2639C7.99466 28.217 6.38346 28.2469 5.15703 28.2366C5.25344 28.4044 8.37059 28.3587 9.46518 28.4596C9.64107 28.4298 9.58537 28.2836 9.11275 28.2639ZM218.444 28.4375C218.725 28.3957 219.005 28.3542 219.282 28.3126C219.959 28.3175 220.638 28.3226 221.319 28.3274C221.339 28.2935 221.359 28.2593 221.379 28.2254C218.378 28.2671 219.07 28.1696 217.584 28.0699C217.872 28.1927 218.156 28.3152 218.444 28.4375ZM467.23 28.44C465.061 28.4406 464.292 28.4456 465.515 28.4573C466.28 28.4548 467.05 28.4525 467.815 28.4505C467.619 28.4471 467.422 28.4436 467.23 28.44ZM113.077 13.3253C112.98 13.2341 112.891 13.1487 112.808 13.0683C112.155 12.5051 111.522 12.7128 111.153 13.0289C110.838 13.3066 110.512 13.6116 109.976 14.2219C110.387 13.843 110.799 13.4641 111.209 13.0858C111.528 12.7826 112.021 12.7084 112.401 12.8838C112.538 12.9238 112.671 12.9941 112.787 13.0898C112.884 13.1687 112.981 13.2475 113.077 13.3253ZM177.016 18.6454C176.82 18.814 176.596 19.0623 176.322 19.3702C176.216 19.5316 175.875 19.6474 175.634 19.4141C175.26 19.0451 174.855 18.6146 174.434 18.1046C174.029 17.7838 173.762 17.5969 173.408 17.3266C173.273 17.0995 173.113 16.8471 172.986 16.6287C172.985 16.6277 172.984 16.6267 172.983 16.6257C171.589 15.2584 172.425 16.2122 172.346 16.2294C172.311 16.2348 171.322 15.1755 171.598 15.5399C172.074 16.1684 174.181 18.1922 174.096 18.2886C173.4 17.5329 171.96 16.1401 172.317 16.6204C172.71 17.1464 174.156 18.3703 174.951 19.276C174.353 18.5161 174.855 18.9756 175.448 19.6003C175.607 19.7763 175.865 19.8771 176.1 19.8649C176.336 19.8577 176.527 19.7501 176.633 19.6812C176.665 19.66 176.692 19.6444 176.713 19.6351C177.654 18.5801 177.324 18.8427 176.544 19.5915C176.312 19.8368 175.783 19.9104 175.466 19.5817C175.393 19.5088 175.32 19.4354 175.246 19.3616C175.352 19.4502 175.432 19.5149 175.489 19.5592C175.618 19.6399 175.596 19.6059 175.521 19.5265C175.312 19.2942 174.786 18.7652 174.696 18.5911C174.913 18.7898 175.236 19.1026 175.595 19.4533C175.8 19.6692 176.204 19.6609 176.396 19.4438C177.295 18.5269 177.935 17.8557 177.016 18.6454ZM267.056 28.2198C265.612 28.2239 263.358 28.1728 262.37 28.2435C261.794 28.285 264.054 28.3185 262.496 28.3833C263.902 28.3773 264.223 28.3521 263.982 28.2949C264.303 28.2883 264.627 28.2818 264.948 28.2754C265.096 28.2866 265.248 28.2977 265.396 28.3089C265.565 28.2856 265.734 28.2626 265.898 28.2395C266.239 28.2444 266.583 28.2493 266.923 28.2544C266.963 28.2427 267.032 28.2326 267.056 28.2198ZM75.1032 17.1283C75.3856 16.8441 75.6654 16.5626 75.9476 16.2781C75.8965 16.2895 75.8387 16.306 75.7825 16.3215C75.7407 16.331 75.6989 16.3406 75.6571 16.3502C75.8791 16.2437 77.3247 14.9895 77.8324 14.36C78.0879 14.0436 77.3281 14.585 78.5222 13.3551C77.6486 14.2383 76.8491 15.0661 76.0048 15.9276C76.0489 15.8186 76.0897 15.7124 76.1338 15.6035C76.1333 15.6039 76.1327 15.6044 76.1322 15.6048C75.8412 15.8805 75.5465 16.1592 75.2555 16.4349C75.2039 16.6667 75.1545 16.8962 75.1032 17.1283ZM316.265 28.2753C314.898 28.3086 314.441 28.3268 315.086 28.3835C315.088 28.3836 315.089 28.3836 315.09 28.3836C315.599 28.3588 316.109 28.3343 316.618 28.3099C316.501 28.2984 316.385 28.2868 316.265 28.2753ZM133.483 17.3324C131.103 15.6023 135.928 20.0323 135.157 19.0409C135.123 18.9961 133.639 17.5613 133.483 17.3324ZM213.891 28.3268C214.688 28.3245 215.488 28.3224 216.289 28.3201C216.105 28.2793 215.916 28.2385 215.732 28.1975C215.119 28.2403 214.504 28.2835 213.891 28.3268ZM457.789 28.4122C456.95 28.3988 454.795 28.3897 453.742 28.4031C454.295 28.4056 454.848 28.4081 455.401 28.4105C454.356 28.4108 453.321 28.4114 452.268 28.4119C452.212 28.4317 453.426 28.4214 455.254 28.4282C455.537 28.4296 457.346 28.4524 457.971 28.4365C458.096 28.4334 456.172 28.4293 457.509 28.4208C456.924 28.4194 456.42 28.419 455.867 28.418C455.827 28.4136 455.787 28.4092 455.743 28.4048C456.427 28.4073 457.106 28.4098 457.789 28.4122ZM258.653 28.2193C256.671 28.2113 256.426 28.2543 256.013 28.3309C256.935 28.3227 257.857 28.3147 258.779 28.3067C258.735 28.2777 258.697 28.2486 258.653 28.2193ZM440.07 28.3832C438.984 28.3787 439.449 28.3941 439.012 28.3964C437.361 28.4053 436.235 28.3932 434.604 28.3985C434.712 28.3955 434.811 28.3927 434.916 28.3899C434.914 28.3899 434.913 28.3899 434.911 28.3899C427.188 28.3664 431.245 28.4101 435.866 28.4076C435.974 28.4135 436.078 28.4194 436.186 28.4252C438.255 28.4163 440.162 28.409 440.07 28.3832ZM151.439 4.43055C151.361 4.47724 151.793 3.84919 150.843 4.88876C150.199 5.82024 151.421 4.45805 151.8 4.19036C151.544 4.47319 151.282 4.76181 151.029 5.04191C152.681 3.47399 152.882 3.20505 152.19 3.68603C152.141 3.72079 151.517 4.38364 151.439 4.43055ZM140.773 14.924C140.773 15.3665 142.707 13.2369 142.565 13.2424C142.281 13.5198 142.1 13.7749 141.786 14.0555C141.469 14.339 141.34 14.3641 140.773 14.924ZM200.428 28.0988C200.425 28.0987 200.42 28.0985 200.414 28.0982C200.333 28.11 200.062 27.948 200.002 27.8748C199.968 27.8467 199.948 27.8387 199.948 27.8619C199.957 27.8748 199.966 27.8877 199.976 27.9008C200.046 28.0289 200.213 28.1479 200.414 28.1609C201.455 28.2143 202.653 28.1307 202.367 28.0794C201.67 28.0818 201.205 28.1097 200.428 28.0985C200.428 28.0986 200.428 28.0987 200.428 28.0988ZM470.865 28.4244C470.825 28.4238 468.715 28.4167 468.443 28.4198C468.219 28.4235 468.107 28.4277 467.939 28.4318C469.101 28.4292 471.454 28.4349 470.861 28.4244C470.862 28.4244 470.864 28.4244 470.865 28.4244Z" fill="#3D3638"/>
</svg>
