<svg width="26" height="26" viewBox="0 0 26 26" fill="none" xmlns="http://www.w3.org/2000/svg">
<g clip-path="url(#clip0_5918_51611)">
<path d="M9.34375 12.5312C9.60263 12.5312 9.8125 12.7411 9.8125 13C9.8125 13.2589 9.60263 13.4688 9.34375 13.4688C9.08487 13.4688 8.875 13.2589 8.875 13C8.875 12.7411 9.08487 12.5312 9.34375 12.5312Z" fill="white" stroke="white" stroke-width="1.5"/>
<path d="M16.6562 12.5312C16.9151 12.5312 17.125 12.7411 17.125 13C17.125 13.2589 16.9151 13.4688 16.6562 13.4688C16.3974 13.4688 16.1875 13.2589 16.1875 13C16.1875 12.7411 16.3974 12.5312 16.6562 12.5312Z" fill="white" stroke="white" stroke-width="1.5"/>
<path d="M15.8438 17.0625C14.9903 17.5935 14.0052 17.875 13 17.875C11.9948 17.875 11.0097 17.5935 10.1562 17.0625" stroke="white" stroke-width="1.5" stroke-linecap="round" stroke-linejoin="round"/>
<path d="M13 22.75C18.3848 22.75 22.75 18.3848 22.75 13C22.75 7.61522 18.3848 3.25 13 3.25C7.61522 3.25 3.25 7.61522 3.25 13C3.25 18.3848 7.61522 22.75 13 22.75Z" stroke="white" stroke-width="1.5" stroke-linecap="round" stroke-linejoin="round"/>
<path d="M13 3.25C11.375 5.28125 11.375 7.3125 11.375 7.3125C11.375 7.74348 11.5462 8.1568 11.851 8.46155C12.1557 8.76629 12.569 8.9375 13 8.9375C13.431 8.9375 13.8443 8.76629 14.149 8.46155C14.4538 8.1568 14.625 7.74348 14.625 7.3125" stroke="white" stroke-width="1.5" stroke-linecap="round" stroke-linejoin="round"/>
</g>
<defs>
<clipPath id="clip0_5918_51611">
<rect width="26" height="26" rx="13" fill="white"/>
</clipPath>
</defs>
</svg>
