<svg width="24" height="24" viewBox="0 0 24 24" fill="none" xmlns="http://www.w3.org/2000/svg">
<g clip-path="url(#clip0_5918_51574)">
<path d="M4.5 9.375H19.5" stroke="white" stroke-width="1.5" stroke-linecap="round" stroke-linejoin="round"/>
<path d="M19.5 16.875H4.5V6C4.5 5.40326 4.73705 4.83097 5.15901 4.40901C5.58097 3.98705 6.15326 3.75 6.75 3.75H17.25C17.8467 3.75 18.419 3.98705 18.841 4.40901C19.2629 4.83097 19.5 5.40326 19.5 6V16.875Z" stroke="white" stroke-width="1.5" stroke-linecap="round" stroke-linejoin="round"/>
<path d="M19.5 16.875V19.5C19.5 19.6989 19.421 19.8897 19.2803 20.0303C19.1397 20.171 18.9489 20.25 18.75 20.25H16.125C15.9261 20.25 15.7353 20.171 15.5947 20.0303C15.454 19.8897 15.375 19.6989 15.375 19.5V16.875" stroke="white" stroke-width="1.5" stroke-linecap="round" stroke-linejoin="round"/>
<path d="M8.625 16.875V19.5C8.625 19.6989 8.54598 19.8897 8.40533 20.0303C8.26468 20.171 8.07391 20.25 7.875 20.25H5.25C5.05109 20.25 4.86032 20.171 4.71967 20.0303C4.57902 19.8897 4.5 19.6989 4.5 19.5V16.875" stroke="white" stroke-width="1.5" stroke-linecap="round" stroke-linejoin="round"/>
<path d="M8.625 14.625C9.45343 14.625 10.125 13.9534 10.125 13.125C10.125 12.2966 9.45343 11.625 8.625 11.625C7.79657 11.625 7.125 12.2966 7.125 13.125C7.125 13.9534 7.79657 14.625 8.625 14.625Z" fill="white"/>
<path d="M15.375 14.625C16.2034 14.625 16.875 13.9534 16.875 13.125C16.875 12.2966 16.2034 11.625 15.375 11.625C14.5466 11.625 13.875 12.2966 13.875 13.125C13.875 13.9534 14.5466 14.625 15.375 14.625Z" fill="white"/>
<path d="M22.875 7.5V9.75" stroke="white" stroke-width="1.5" stroke-linecap="round" stroke-linejoin="round"/>
<path d="M1.125 7.5V9.75" stroke="white" stroke-width="1.5" stroke-linecap="round" stroke-linejoin="round"/>
</g>
<defs>
<clipPath id="clip0_5918_51574">
<rect width="24" height="24" fill="white"/>
</clipPath>
</defs>
</svg>
