<svg width="203" height="62" viewBox="0 0 203 62" fill="none" xmlns="http://www.w3.org/2000/svg">
<path d="M202.5 0.5V61.5H0.5V0.5H202.5Z" stroke="white"/>
<path d="M177.187 26.3578C177.504 26.8632 176.185 25.4331 176.957 26.4842C176.756 26.3048 176.552 26.1246 176.351 25.9454C176.356 25.8439 176.361 25.7413 176.367 25.6396C176.64 25.8782 176.914 26.1172 177.188 26.3575C177.188 26.3576 177.188 26.3577 177.187 26.3578ZM178.211 26.0453C177.825 25.9593 177.04 25.2546 177.701 26.1997C177.818 26.212 177.936 26.2259 178.052 26.2385C178.29 26.5588 178.529 26.8802 178.768 27.1992C178.888 27.2803 179.008 27.3615 179.128 27.4431C179.166 27.6593 179.203 27.874 179.242 28.0892C179.141 27.9631 179.039 27.8352 178.938 27.7089C178.416 27.332 177.995 26.9537 177.37 26.3595C177.402 26.4342 177.434 26.5087 177.466 26.5833C177.192 26.239 176.919 25.8943 176.648 25.5502C176.953 25.7812 177.293 26.0401 177.575 26.2548C177.322 25.7169 176.543 25.0945 176.148 24.7608C175.61 24.306 175.792 24.3491 175.395 24.0099C175.331 23.9557 175.269 24.0035 175.152 23.8884C174.561 23.3074 173.452 22.1394 174.25 22.6759C175.197 23.6582 176.121 24.3812 177.027 25.3668C176.924 24.972 177.471 25.4232 178.211 26.0453ZM159.397 24.4444C159.407 24.4498 159.417 24.4555 159.428 24.4614C159.997 25.0449 161.629 25.3344 162.485 24.4473C162.54 24.4026 162.593 24.3602 162.645 24.3205C162.645 24.32 162.646 24.3196 162.646 24.3191C162.747 24.2419 163.06 24.1505 162.771 24.4415C162.72 24.4925 162.67 24.5387 162.621 24.581C161.635 25.4076 160.877 25.1137 160.208 25.0755C159.907 24.9386 159.625 24.7279 159.416 24.4726C159.41 24.4632 159.404 24.4538 159.397 24.4444ZM158.36 23.428C158.116 23.0929 158.389 23.0855 158.713 23.4867C158.713 23.4866 158.713 23.4865 158.713 23.4864C158.849 23.6538 158.441 23.4651 159.096 23.8983C159.119 24.0954 159.148 24.2827 159.174 24.4751C159.039 24.3436 158.915 24.2247 158.775 24.0865C159.013 24.039 158.604 23.7625 158.36 23.428ZM173.694 22.2506C173.54 22.3115 173.732 22.5018 173.982 22.8996C173.679 22.5901 173.375 22.2801 173.073 21.9717C173.281 22.0647 173.487 22.1568 173.694 22.2506ZM180.882 29.4746C180.883 29.4751 180.883 29.4755 180.883 29.476C180.999 29.5615 181.115 29.6474 181.229 29.732C181.255 29.8258 181.28 29.9186 181.306 30.0122C181.694 30.3353 182.083 30.661 182.469 30.9851C182.324 31.0425 181.702 30.3892 181.278 30.1104C180.786 29.5586 180.596 29.2469 180.651 29.1247C180.728 29.241 180.804 29.3572 180.882 29.4746ZM94.9144 18.8301C94.8548 19.0069 94.7968 19.1823 94.7373 19.3592C94.92 19.2257 95.0951 19.0872 95.2832 18.9563C95.4433 18.2885 95.7048 18.4675 96.2288 17.9009C96.4083 17.7068 96.5574 17.5352 96.6835 17.3822C96.8835 17.0916 97.2247 17.0598 97.3914 17.2374C97.6216 17.4829 97.8353 17.851 98.2041 18.6736C97.2994 17.7133 97.2064 17.9246 96.7874 17.8301C96.7546 17.894 96.7454 17.9935 96.8304 18.0926C96.9021 18.0006 96.8673 17.7991 96.962 17.6585C97.0414 17.5162 97.2017 17.434 97.1104 17.3253C96.9399 17.3387 96.8501 17.475 96.8701 17.5653C96.4223 18.2277 95.9557 18.8897 95.4146 19.5869C95.4689 19.5859 95.5233 19.5852 95.5776 19.5843C95.7074 19.4168 95.8359 19.2504 95.9657 19.083C95.8801 19.3171 95.7975 19.547 95.7103 19.7847C95.7481 19.4132 95.3217 20.0362 95.2004 19.7778C95.1465 19.6628 95.2583 19.3123 95.3128 19.0942C94.919 19.4086 94.5198 19.7356 94.1231 20.0548C94.2386 19.8011 94.354 19.5475 94.4684 19.2952C94.6161 19.1403 94.7633 18.9871 94.9109 18.8322C94.9121 18.8315 94.9133 18.8308 94.9144 18.8301ZM18.095 32.8226C18.4273 32.259 19.2264 31.4264 19.81 31.1482C19.2384 31.7071 18.6676 32.2647 18.095 32.8226ZM180.692 29.0179C180.725 29.0856 180.758 29.1514 180.791 29.219C180.536 29.025 180.279 28.8299 180.022 28.6366C180.029 28.5449 180.035 28.4521 180.04 28.359C180.257 28.5781 180.475 28.7989 180.692 29.0179ZM167.155 19.2406C167.313 19.07 167.329 19.0572 167.539 18.8578C167.538 18.8579 167.538 18.8581 167.538 18.8583C167.621 18.7791 168.323 18.1238 168.294 18.2459C167.964 18.5894 167.611 18.9542 167.272 19.3049C167.232 19.2853 167.199 19.2577 167.155 19.2406ZM170.231 18.6823C170.231 18.6829 170.232 18.6835 170.232 18.684C170.348 18.8134 170.45 18.9431 170.574 19.0723C170.049 18.6847 170.103 18.4896 169.654 18.11C169.412 17.9058 169.206 17.7574 169.04 17.5822C169.022 17.5628 169.045 17.5225 169.005 17.4002C169.058 17.3699 169.141 17.343 169.228 17.3623C169.232 17.3698 169.237 17.3772 169.241 17.3847C169.729 17.998 169.955 18.0975 170.478 18.494C170.395 18.5568 170.313 18.6195 170.231 18.6823ZM101.525 22.5201C101.775 22.4962 101.763 22.7566 101.774 22.7712C101.774 22.7712 101.773 22.7711 101.773 22.771C102.89 23.6453 101.567 22.7165 102.478 23.6821C102.305 23.5757 102.131 23.4736 101.959 23.369C101.813 23.0879 101.67 22.7911 101.525 22.5201ZM135.997 10.4839C136.041 10.5087 136.087 10.5316 136.13 10.5563C135.567 11.1205 135.562 11.4011 134.976 11.754C135.316 11.33 135.656 10.9067 135.997 10.4835C135.997 10.4837 135.997 10.4838 135.997 10.4839ZM164.164 21.9373C164.729 21.2527 165.164 20.7628 165.836 20.2324C165.836 20.2321 165.837 20.2317 165.837 20.2313C165.876 20.201 165.767 20.4251 165.825 20.393C165.939 20.2591 166.052 20.1168 166.166 19.9801C166.226 20.0062 166.286 20.033 166.347 20.0587C165.988 20.4046 165.628 20.7506 165.268 21.0975C165.345 21.07 165.424 21.041 165.501 21.0135C165.219 21.3319 164.939 21.6492 164.658 21.9679C164.686 21.7893 164.715 21.6112 164.743 21.4342C164.55 21.6018 164.358 21.7701 164.164 21.9373ZM126.34 19.6075C126.478 19.5464 126.363 19.7982 126.55 19.6761C126.736 19.5535 126.942 19.193 126.989 19.371C126.8 19.5958 126.602 19.8334 126.409 20.0631C127.284 19.5741 127.769 18.706 128.03 18.9408C127.322 19.5392 126.823 20.1126 126.27 20.8221C126.095 20.5986 126.546 19.7892 125.965 20.0075C126.089 19.8757 126.218 19.7361 126.339 19.6094C126.339 19.6087 126.339 19.6081 126.34 19.6075ZM192.424 31.3398C192.97 31.3598 194.222 31.3309 194.913 31.4193C195.083 31.4416 195.648 31.6889 195.646 31.7196C195.629 31.8243 194.938 31.8313 195.678 31.9081C195.429 31.9062 195.187 31.9076 194.94 31.907C194.985 31.979 195.029 32.0507 195.071 32.1221C195.372 32.1134 195.673 32.1049 195.974 32.0963C195.989 32.1197 196.004 32.1431 196.018 32.1665C194.937 32.1603 195.575 32.2544 195.014 32.3372C195.531 32.3819 196.051 32.4253 196.566 32.4678C196.269 32.4623 195.919 32.4581 195.656 32.4515C195.621 32.5715 196.247 32.5427 196.354 32.5647C196.957 32.688 193.884 32.6289 193.633 32.8108C194.124 32.8287 194.639 32.8455 195.141 32.862C194.997 32.8845 194.851 32.9072 194.707 32.93C193.568 32.8148 192.291 32.7748 190.964 32.6977C190.844 32.7033 190.724 32.7091 190.606 32.7146C190.641 32.7732 190.674 32.8315 190.709 32.8899C190.528 32.8978 190.345 32.9057 190.164 32.9137C190.698 32.7167 189.959 32.7238 189.068 32.6041C189.542 32.5343 190.127 32.5761 190.087 32.4485C188.598 32.5379 186.878 32.4252 185.383 32.4927C185.249 32.4992 185.114 32.4788 184.987 32.4342C184.837 32.3785 184.739 32.3493 184.619 32.2854C184.459 32.2015 184.261 32.0821 183.888 31.6902C183.924 31.6987 183.954 31.6775 183.987 31.6737C182.804 30.5943 182.083 29.9434 180.983 28.695C181.001 28.8112 181.019 28.9263 181.038 29.0422C181.31 29.269 181.583 29.4962 181.853 29.7224C181.942 29.9706 181.658 29.7529 182.4 30.4993C183.007 31.1109 182.68 30.7127 182.868 30.8567C183.123 31.0517 183.257 31.31 183.532 31.5185C183.745 31.6802 183.607 31.415 184.075 31.9209C183.799 31.8035 183.516 31.6857 183.236 31.5698C183.136 31.4326 183.037 31.2959 182.937 31.1582C183.079 31.257 183.219 31.3542 183.36 31.4532C182.9 31.0672 182.464 30.7032 181.986 30.306C182.249 30.3295 181.753 29.9204 181.494 29.6885C181.09 29.3272 181.501 29.5728 181.238 29.335C180.974 29.0973 180.609 28.92 180.178 28.4458C180.475 28.6346 180.196 28.254 180.312 28.2674C180.427 28.281 180.914 28.7524 180.513 28.2337C179.591 27.3848 180.349 28.5442 179.722 27.9755C178.966 27.2944 179.124 26.8011 179.406 26.9479C179.628 27.0637 180.191 27.6595 180.413 27.7777C179.485 26.6322 179.281 26.8148 179.066 26.6739C178.286 26.1623 179.092 26.2293 178.199 25.5923C178.285 25.537 178.36 25.486 178.442 25.4336C178.299 25.3129 178.196 25.2413 178.028 25.0903C178.353 25.7017 177.979 25.3071 177.784 25.1082C177.476 24.7949 177.883 25.3463 177.784 25.2804C177.517 25.1027 177.19 24.728 177.342 25.0056C177.275 24.8801 177.2 24.7462 177.13 24.618C176.736 24.2859 175.582 23.7283 176.451 24.4836C176.263 24.5182 176.055 24.2016 175.869 23.9788C175.682 23.756 175.613 23.8312 175.447 23.6373C174.787 22.8653 175.38 23.2122 175.59 23.231C174.583 22.3444 175.459 23.3206 174.057 21.9944C173.844 21.9422 174.385 22.6592 173.815 22.1793C173.86 21.9436 173.577 21.4555 172.877 20.6505C172.771 20.6094 172.665 20.569 172.559 20.5281C172.284 19.9839 172.633 20.0572 171.71 19.4551C172.424 19.5642 171.947 19.4753 171.399 18.6637C171.288 18.4988 171.668 18.7587 171.51 18.5313C171.438 18.4282 171.179 18.2612 171.006 18.0078C170.921 17.8841 170.56 17.2704 170.169 16.9848C170.261 17.386 169.493 16.8663 169.913 17.5462C169.772 17.395 169.636 17.2521 169.51 17.1212C169.202 16.8086 168.831 16.9027 168.765 16.8983C168.725 16.8985 168.735 16.8694 168.836 16.8192C168.934 16.7764 169.146 16.6939 169.477 16.8121C169.205 16.565 168.75 16.4711 168.343 16.6458C168.269 16.7104 168.205 16.7831 168.152 16.8608C168.055 17.0099 167.958 17.1594 167.861 17.309C167.704 17.2099 167.695 17.1465 167.014 17.8837C167.289 17.5433 167.562 17.2041 167.839 16.8629C167.823 16.8269 167.839 16.7571 167.803 16.7427C167.476 17.1718 166.438 18.2659 166.216 18.5604C165.994 18.855 166.5 18.3618 166.46 18.47C166.125 19.3698 165.967 19.1178 165.575 19.6138C165.345 19.9055 165.993 19.3069 165.867 19.4598C165.399 20.027 165.011 20.1214 164.553 20.5824C164.801 20.5026 165.049 20.425 165.293 20.3491C164.812 20.8319 164.281 21.3741 163.867 21.8547C163.704 22.0433 163.9 21.9727 163.876 22.0061C163.758 22.1721 163.222 22.7943 163.162 22.8568C162.707 23.3254 162.602 23.249 162.154 23.6983C162.32 23.5124 162.477 23.3378 162.64 23.1562C162.569 22.9316 162.5 22.7057 162.43 22.4816C162.103 22.7976 161.776 23.1136 161.448 23.43C161.364 23.5092 161.263 23.5645 161.155 23.5921C161.269 23.5854 161.388 23.5474 161.495 23.4754C161.729 23.3007 161.962 23.1256 162.196 22.9509C162.042 23.2042 161.889 23.4579 161.736 23.712C161.495 24.1166 160.904 24.3739 160.326 24.1876C160.208 24.0935 160.111 23.9827 160.036 23.8641C159.904 23.623 159.773 23.3819 159.641 23.1399C158.915 22.4404 158.748 22.8888 158.683 22.2822C158.452 22.093 158.221 21.9038 157.99 21.7145C158.058 21.7065 158.127 21.6982 158.195 21.6903C157.921 21.4583 157.646 21.2265 157.37 20.9952C157.495 21.3998 157.609 21.8052 157.738 22.201C157.212 21.7304 157.319 21.6055 157.275 21.502C157.157 21.2275 156.662 20.9375 156.579 20.7091C156.551 20.6313 157.114 21.0463 157.037 20.7889C157.021 20.7393 156.704 19.7545 156.215 19.4079C156.162 19.4751 156.12 19.5803 156.071 19.6619C155.478 19.1328 155.512 18.5324 155.675 18.52C155.317 18.2788 154.88 17.8423 154.721 17.8766C154.567 17.7247 154.415 17.5739 154.261 17.422C154.659 17.3475 153.986 16.7457 153.737 16.9073C153.991 17.1773 154.246 17.4478 154.501 17.7178C154.052 17.7652 154.689 18.7193 153.278 16.8168C153.097 16.3667 153.819 17.403 153.662 17.0451C153.275 16.5354 152.809 16.1577 152.479 15.6354C152.07 14.9847 152.83 15.5341 151.457 14.4299C153.786 17.5518 150.834 14.2995 149.443 13.1245C149.468 12.4012 148.521 11.1861 146.932 9.79155C146.978 10.0538 147.498 10.4733 147.73 10.7807C147.962 11.0879 147.61 10.8548 147.894 11.2431C148.178 11.6314 148.82 12.4181 149.084 12.834C148.738 12.6013 147.181 11.3068 148.287 12.0879C147.693 11.2771 147.474 10.8373 146.63 9.93841C146.204 9.83961 146.118 9.96183 145.269 9.11148C146.003 9.38757 145.209 8.25364 145.663 8.22919C146.202 8.89419 145.633 8.78503 145.866 9.24715C145.89 9.29417 146.505 9.80263 146.63 9.93841C146.279 9.16078 146.165 8.88417 146.76 8.99107C146.343 8.60666 146.128 8.32309 145.972 8.40425C145.942 8.26846 145.911 8.13203 145.882 7.99735C145.752 7.86646 145.632 7.75224 145.496 7.61119C145.502 7.98319 145.25 7.49903 144.908 7.3149C144.565 7.1311 144.769 7.62898 144.054 6.90291C144.248 7.18787 144.429 7.44582 144.618 7.72019C144.111 7.2974 143.601 6.87396 143.093 6.4522C143.303 6.89254 143.839 7.76827 143.672 7.89347C143.515 7.62354 142.687 6.98315 142.603 6.90668C142.279 6.60951 142.541 6.68735 142.52 6.66148C142.081 6.12587 141.649 5.75329 141.608 5.42587C141.476 5.33205 141.363 5.23741 141.257 5.14005C141.154 5.0593 141.035 4.98935 140.875 5.02465C140.752 5.06498 140.85 5.19423 140.793 5.19577C140.775 5.19834 140.756 5.20224 140.739 5.20712C139.972 5.73784 140.491 4.97698 139.235 6.76978C139.502 6.6465 139.768 6.52724 140.035 6.404C139.885 6.61579 139.735 6.82676 139.585 7.03877C139.452 7.1486 139.32 7.2572 139.186 7.36696C139.026 7.20411 138.865 7.04039 138.704 6.87756C138.564 7.00349 138.423 7.13019 138.283 7.25607C138.492 7.00924 138.703 6.76195 138.912 6.51526C138.904 6.46603 138.895 6.41821 138.887 6.36901C138.507 6.66834 138.127 6.96574 137.746 7.2641C137.796 7.32667 137.847 7.38956 137.898 7.45215C137.062 8.14718 136.994 8.11693 136.434 9.00737C135.878 9.57139 135.669 10.2704 135.453 10.699C135.305 10.7846 135.157 10.87 135.009 10.9568C134.984 11.0797 134.958 11.2033 134.933 11.3263C134.72 11.4095 134.505 11.4944 134.292 11.5775C134.364 11.8116 134.371 11.9022 134.992 11.3718C134.988 11.7588 133.906 12.7044 133.435 13.0588C133.077 13.3277 133.258 12.8179 133.2 12.8384C133.005 12.9054 132.553 13.4838 132.435 13.5826C131.936 14.001 131.627 14.3337 131.182 14.7171C131.095 14.7915 130.769 14.9178 130.747 14.934C130.582 15.0671 130.169 15.3889 130.126 15.4296C127.917 17.531 130.645 15.6467 128.619 17.6278C128.738 17.6259 128.852 17.6285 128.97 17.6278C128.824 17.7848 128.677 17.9432 128.531 18.1002C128.292 18.2453 128.429 17.9203 128.127 18.3788C128.077 18.2809 128.028 18.1828 127.98 18.0839C127.856 18.291 127.738 18.4917 127.61 18.7029C127.089 18.7193 126.069 19.6438 125.832 19.2744C125.751 19.1486 126.328 18.3497 125.856 18.6081C125.541 18.8848 125.863 18.8046 125.75 18.9326C124.931 19.856 124.806 19.6337 124.499 20.0383C124.518 20.1684 124.536 20.3028 124.555 20.4351C124.4 20.549 124.244 20.6633 124.088 20.7785C124.107 20.8596 124.125 20.9422 124.145 21.0234C124.274 20.8989 124.418 20.7584 124.537 20.6444C124.571 20.9993 123.188 22.5893 123.582 21.8517C123.742 21.5517 124.191 21.1531 123.694 21.1956C123.333 21.6298 122.919 22.1189 122.537 22.5746C122.474 22.5385 122.412 22.5014 122.349 22.4653C121.821 23.0665 122.532 22.746 122.638 22.8525C122.513 22.9859 122.387 23.1203 122.262 23.2537C122.159 23.2611 122.056 23.2635 121.952 23.275C122.015 23.3459 122.106 23.5445 121.833 23.8077C121.784 23.8557 121.721 23.9024 121.645 23.9407C121.45 24.028 121.465 23.9124 121.44 23.8475C121.411 23.7715 121.375 23.7711 121.087 23.8458C121.119 23.9284 121.215 24.0049 121.204 24.089C121.194 24.1584 121.044 24.3281 120.551 24.2226C120.51 24.0232 120.484 23.8251 120.545 23.6415C120.477 23.6189 120.416 23.5849 120.363 23.5437C119.767 23.0606 119.611 22.6004 118.793 22.0252C118.22 21.6222 117.235 21.268 117.423 20.4601C117.084 20.0874 117.071 20.3238 116.938 20.2449C116.313 19.8733 116.184 19.2664 116.107 19.1589C115.612 18.4735 115.267 18.2871 114.903 17.6895C114.836 17.8078 114.761 17.9091 114.69 18.0198C115.268 18.3275 115.482 18.56 116.065 19.2142C115.841 19.023 115.616 18.8322 115.392 18.6411C115.349 18.7497 115.307 18.858 115.264 18.9648C117.458 20.6037 116.548 20.6123 114.852 19.0977C114.855 18.8207 114.853 18.5388 114.858 18.2622C114.248 17.8708 113.895 17.5103 113.543 17.0882C113.336 16.8069 112.778 16.568 112.287 16.9935C112.273 17.0073 112.258 17.0212 112.243 17.0353C112.114 17.1561 111.747 17.6947 111.558 17.8957C111.561 17.8929 111.565 17.8902 111.569 17.8874C111.583 18.142 111.808 18.0368 111.947 18.1349C111.858 18.2565 111.768 18.3782 111.679 18.5C111.354 18.6487 111.36 18.4907 110.923 18.9818C111.076 19.0083 111.229 19.0357 111.382 19.0621C110.883 19.5804 110.454 19.8195 110.029 20.3412C110.072 20.2265 110.115 20.1127 110.159 19.9981C109.051 20.9536 109.321 19.5924 108.819 20.6441C108.723 20.6478 108.627 20.6496 108.53 20.6532C108.837 20.3177 109.144 19.9825 109.449 19.6485C109.389 19.5764 109.329 19.504 109.268 19.4333C108.947 19.799 108.626 20.1672 108.306 20.5331C108.509 20.2362 108.714 19.9379 108.918 19.6413C108.491 20.0111 108.064 20.3809 107.637 20.7505C108.303 20.5666 107.789 21.1488 108.136 21.2849C107.235 21.797 106.415 22.09 105.505 23.3616C105.485 23.3904 105.47 23.4166 105.46 23.441C105.437 23.514 105.452 23.5798 105.386 23.6418C105.328 23.6959 105.135 23.7747 104.88 23.6161C104.921 23.7662 104.837 23.8912 104.641 23.9458C104.448 24.0052 104.174 23.9485 103.986 23.9141C103.888 23.9144 103.81 23.9431 103.772 24.0259C103.79 24.0414 103.807 24.057 103.824 24.0727C104.146 24.3849 104.617 24.5458 105.034 24.5018C104.769 24.447 104.666 24.2848 104.702 24.177C104.737 24.0619 104.889 23.9974 105.121 23.9101C105.301 23.8415 105.483 23.7438 105.623 23.6013C105.972 23.248 106.316 22.95 106.104 22.7803C106.298 22.6087 106.474 22.4448 106.661 22.2765C106.657 22.4172 106.655 22.5568 106.652 22.6963C107.045 22.0815 107.394 21.7958 107.806 21.719C107.25 22.3653 106.695 23.0102 106.139 23.6566C106.238 23.5786 106.339 23.4994 106.438 23.421C106.213 23.9418 106.6 23.8241 106.298 24.2642C106.166 24.4254 105.942 24.639 105.553 24.7774C105.532 24.6653 105.505 24.5544 105.479 24.443C105.312 24.6034 104.957 24.7323 104.575 24.7006C104.191 24.6776 103.812 24.4867 103.576 24.3163C103.397 24.2316 103.278 24.2286 103.285 24.4265C103.108 24.0938 103.105 23.9936 102.826 23.98C102.345 23.1146 102.157 22.4408 102.683 22.4008C102.388 22.1935 102.093 21.9861 101.799 21.7803C101.864 22.0037 101.93 22.2269 101.995 22.4501C101.567 22.006 101.136 21.5587 100.709 21.1163C100.902 20.8446 101.613 21.8925 101.569 21.4314C101.561 21.339 101.238 21.1905 101.201 21.1052C100.812 20.1986 101.639 21.4092 101.645 21.0239C100.746 19.9869 101.843 20.4465 100.245 19.3708C100.278 19.2687 100.31 19.1626 100.345 19.0635C99.8907 18.5915 99.7745 18.78 99.3514 18.4065C99.0864 18.1726 99.0468 17.5915 98.5903 17.4939C98.5077 17.4778 98.6363 18.2692 97.6863 17.2729C97.6263 17.2101 97.5749 17.1529 97.5308 17.1006C97.3276 16.8712 97.2348 16.7942 97.1824 16.6799C97.1225 16.5805 97.0844 16.4406 96.7479 16.4307C96.5453 16.4303 96.2678 16.5545 96.0766 16.7866C95.6832 17.272 95.2424 17.9122 94.7784 17.8504C95.0396 17.6827 95.3362 17.4337 95.6118 17.2335C95.6355 17.0654 95.6575 16.9007 95.6805 16.7345C95.235 17.3732 94.5687 17.8315 94.3786 18.3691C93.3968 18.8411 92.8382 19.8983 93.3542 19.9701C93.5474 19.6872 93.1603 19.8214 93.5713 19.5685C93.6744 19.6024 93.779 19.6341 93.882 19.668C93.3153 20.2292 92.9295 20.6265 92.9719 20.1587C92.8802 20.242 92.7894 20.3245 92.6976 20.4078C92.8358 20.5743 92.9763 20.7397 93.1144 20.9063C93.0284 21.0288 92.9418 21.1516 92.8558 21.2741C92.7072 21.3583 92.5579 21.4424 92.4074 21.5274C92.3201 21.1287 92.5788 20.8496 91.5607 21.6144C91.6423 21.6997 91.7225 21.7859 91.8042 21.8712C90.9592 22.5188 90.735 22.3378 89.8155 23.2896C90.2334 22.2772 91.1424 22.3909 90.552 21.8168C90.7692 21.673 90.9884 21.5282 91.2055 21.3844C91.1475 21.2732 91.0892 21.1622 91.0301 21.0524C90.5081 21.6337 89.9478 22.59 89.3752 23.3582C89.2803 23.5202 89.0837 23.6158 88.9085 23.5966C88.7322 23.5813 88.6003 23.4614 88.5783 23.3325C88.5532 23.2768 88.5331 23.2211 88.5186 23.1656C88.3955 23.1313 88.278 23.0909 88.1501 23.0586C87.7483 22.196 86.969 22.4178 86.6247 21.4806C86.5898 21.3834 87.2052 21.0548 86.3598 20.2246C86.3182 20.3068 86.2242 20.4205 86.1625 20.5147C86.0212 20.294 85.8827 20.0724 85.7436 19.8521C85.6538 19.8756 85.5624 19.8974 85.4722 19.9214C85.7559 20.2558 86.0385 20.5898 86.3224 20.9242C86.0483 20.6839 85.7725 20.4419 85.4983 20.2017C85.7362 20.6327 85.8851 20.7863 85.5343 20.73C85.237 20.445 84.9388 20.1601 84.6415 19.8751C84.5731 19.8827 84.5045 19.8911 84.4362 19.8988C84.4605 20.1541 84.4889 20.4084 84.5118 20.6652C83.8542 19.8079 83.2057 19.1379 82.8563 18.3273C82.7965 18.1895 83.2947 18.3958 82.4892 17.8469C82.5587 17.758 82.6056 17.676 82.6678 17.5917C81.6246 16.9757 81.4217 16.6361 80.7294 15.6058C81.1314 16.3183 80.7362 15.7184 80.5142 15.6544C80.3618 15.6107 80.7469 15.9867 80.6458 16.0007C80.5452 16.0141 79.8206 15.7454 80.2114 16.1996C81.7187 16.774 81.4247 17.622 82.9745 18.7392C82.7098 18.5929 82.4433 18.4454 82.1784 18.2993C82.2323 18.4377 82.28 18.5621 82.339 18.7109C81.6964 17.8701 81.9937 18.294 81.6173 18.0588C81.2405 17.8233 80.6271 17.3254 80.2377 16.9703C80.1151 16.8585 80.3454 16.8774 80.0932 16.6008C79.9216 16.4124 79.2735 16.073 79.3494 15.7734C79.3985 15.5777 80.52 16.0441 79.4359 14.9414C79.3525 14.6155 79.8344 15.1814 79.8601 15.1785C80.0976 15.1343 79.5397 14.3498 79.1226 14.1436C79.0882 14.1275 79.2195 14.4847 78.9114 14.2585C78.1795 13.7223 77.9454 13.2276 77.7133 12.6432C77.4656 12.7983 76.6941 12.4998 76.1125 11.7567C76.0204 11.7798 75.9295 11.8051 75.8369 11.8286C75.9699 11.9021 76.1024 11.976 76.2354 12.0496C76.31 12.1988 76.4012 12.3449 76.4667 12.4979C75.7556 11.8744 75.3805 12.0556 74.9604 11.8343C73.5228 11.0767 74.9259 11.014 75.2498 11.0872C75.3388 11.2818 75.4171 11.4775 75.5023 11.6733C75.5579 11.5876 75.6139 11.5012 75.6713 11.4165C74.0459 9.76566 75.8863 10.7112 75.1954 9.74174C74.7275 9.84812 74.2067 9.46283 73.7297 8.75253C73.6249 8.60018 73.4749 8.45277 73.2732 8.34457C73.1313 8.30928 72.983 8.29854 72.8387 8.31677C72.8226 8.39082 72.8362 8.49954 72.8117 8.5511C72.5773 8.60517 72.4008 8.70326 72.2522 8.8061C71.6072 9.25645 71.1187 9.02234 71.0055 9.05415C70.387 9.22821 70.398 9.84726 70.2856 9.9672C69.8116 10.4719 69.5305 10.4778 69.1289 11.007C68.6974 11.5765 69.1446 11.3364 69.0899 11.5848C69.0453 11.7833 68.6672 12.1957 68.5848 12.4384C68.5842 12.3092 68.592 12.174 68.591 12.0447C67.9879 12.4821 67.481 12.8257 66.8749 13.3998C66.691 14.5382 65.3273 14.3223 66.2059 14.7293C66.8039 14.2092 67.1875 13.9666 67.6492 13.8275C67.3072 14.2185 66.9644 14.6092 66.6224 15.0002C66.445 15.0381 66.3001 15.0465 66.1019 15.1028C65.9823 15.5284 65.2879 16.1059 65.0854 16.4014C64.1373 17.7858 64.7547 17.6756 63.2627 18.3244C63.9815 17.5068 63.7686 17.3004 64.5528 16.5596C64.2388 16.5774 63.8864 16.999 63.9535 16.5683C63.2676 17.3563 63.6655 17.2745 63.5249 17.7052C63.4036 18.0766 62.9168 18.5866 63.1057 18.7161C62.9667 18.6807 62.842 18.6364 62.7032 18.601C62.231 19.084 61.758 19.5662 61.2858 20.0492C61.395 19.7529 61.5039 19.4566 61.6136 19.1608C61.4262 19.2818 61.2388 19.4032 61.0514 19.5243C60.1754 20.9923 57.6411 22.5194 58.685 22.9025C58.188 23.4516 58.0128 23.4785 57.6406 23.6186C57.6108 23.6292 57.5799 23.6386 57.5475 23.6469C57.5636 23.734 57.5639 23.8138 57.5634 23.9151C57.0816 24.1341 56.4618 24.3137 56.0585 23.8426C56.0553 23.8381 56.052 23.8336 56.0488 23.8291C55.7828 23.4515 55.8983 23.1795 55.5243 23.4535C55.4114 23.1505 55.2838 22.8644 55.1656 22.5692C54.9671 22.5158 54.7697 22.4617 54.573 22.4092C54.4811 22.2693 54.389 22.1292 54.2969 21.9892C54.2337 21.8932 54.1706 21.7972 54.1076 21.7013C53.8476 21.749 53.1526 20.9058 52.7116 20.6661C52.561 20.1756 53.0999 19.6644 52.2539 18.9929C52.1419 19.1415 52.03 19.2895 51.9181 19.4381C51.7736 19.236 51.6287 19.0336 51.4828 18.8302C51.5153 18.7776 51.5492 18.7264 51.5817 18.6739C51.6564 18.7764 51.7299 18.8777 51.8041 18.9808C51.8003 18.8319 51.7978 18.6849 51.7952 18.5374C51.4253 18.3755 51.0551 18.2131 50.6842 18.0496C50.9585 18.4915 51.2326 18.9338 51.5066 19.3761C50.9644 19.0158 50.7502 18.605 50.2554 18.3146C50.0991 17.7931 50.3276 17.8181 50.6609 17.7651C50.5188 17.6538 50.3758 17.5404 50.2336 17.4291C50.5125 17.3209 50.4171 16.9903 51.1348 17.7522C51.1404 17.6459 51.1423 17.5412 51.1513 17.4341C51.0222 17.3204 50.9914 17.1946 50.8378 17.0816C50.4187 16.7738 49.7989 16.8308 49.703 16.9741C49.653 17.0496 50.1283 17.2921 50.0247 17.3654C49.7715 17.5436 49.0573 16.6183 50.0098 18.0291C49.5793 17.8164 49.5121 17.6496 49.2906 17.3363C49.2724 17.298 49.2452 17.2577 49.2016 17.2217C49.1734 17.3222 49.1313 17.4162 49.0774 17.5029C49.0651 17.4335 48.9974 17.3574 48.8931 17.3315C48.9064 17.1717 48.8611 17.0392 48.708 16.971C48.561 16.8978 48.3435 16.9314 48.2147 16.9221C48.1529 16.9136 48.112 16.8831 48.1049 16.8144C48.109 16.7121 48.2132 16.3216 48.925 16.1518C48.5395 16.1492 48.1473 16.3061 47.8664 16.5804C47.6475 16.7858 47.4288 16.991 47.2098 17.1959C47.2518 17.0768 47.2941 16.958 47.336 16.8388C47.4807 16.7206 47.6247 16.6028 47.7689 16.4847C47.8497 16.4125 47.9376 16.3478 48.0309 16.2926C47.9297 16.3359 47.8312 16.3903 47.7382 16.4546C47.5231 16.566 47.308 16.6778 47.0931 16.7893C46.6919 17.3732 46.6331 17.6987 46.5728 18.0869C47.26 17.6235 46.9117 17.6535 47.3218 17.1694C47.4099 17.2868 47.5257 17.3595 47.5958 17.5058C47.1524 17.5287 46.562 18.4438 46.3992 18.6305C45.904 19.1991 46.1075 18.5718 45.7509 18.9274C45.3943 19.2835 45.1024 19.8298 44.6081 19.9216C44.729 20.0298 44.8717 20.1237 44.9977 20.206C44.4863 20.8033 44.4595 20.5578 44.385 20.5985C43.1887 21.2402 42.9424 21.9836 41.934 23.0709C42.1008 22.9708 42.2657 22.8661 42.4319 22.7629C41.89 23.7979 42.3434 23.1873 43.1044 22.5738C42.5486 23.0983 42.3465 23.5863 42.0646 24.0346C41.9737 24.1582 41.8576 24.271 41.7181 24.361C41.2515 24.7077 40.2812 24.6185 39.8469 24.0503C39.6261 23.7661 39.4427 23.496 39.3527 23.3312C39.5878 23.493 39.808 23.6789 40.0215 23.879C40.5 24.3657 41.3992 24.4156 41.9055 23.8785C42.0182 23.7623 42.1298 23.6437 42.2387 23.5214C42.0416 23.491 41.8647 23.4757 41.6541 23.4371C41.6393 23.4896 41.6231 23.5386 41.6058 23.5844C41.5169 23.847 41.2725 23.9525 41.1038 23.9477C40.9276 23.9463 40.8135 23.8647 40.7382 23.8247C40.5142 23.6971 40.4189 23.6325 40.3306 23.5757C40.227 23.4993 40.1648 23.4409 40.1466 23.1889C40.0811 23.2739 40.0248 23.3442 39.9643 23.4243C39.1269 22.5055 38.318 21.4218 37.4783 21.113C37.6047 20.8855 37.7371 20.6776 37.8588 20.4392C37.3553 20.1962 37.1753 19.7418 36.8325 19.4575C36.4913 19.1742 36.4675 19.4328 36.0493 19.1166C35.972 19.0579 35.9198 18.8291 35.6891 18.7244C35.4553 18.6196 34.3598 18.4617 34.7054 17.9752C34.3958 17.6558 34.116 17.3404 33.8177 17.0228C34.1386 17.3028 34.459 17.5834 34.7791 17.8615C34.6268 17.5041 34.4748 17.1495 34.3204 16.7942C34.1984 16.8493 34.0747 16.9058 33.9554 16.9608C33.9008 16.9204 33.8484 16.8796 33.7978 16.8386C33.2835 16.4142 32.5878 16.4026 32.1182 16.8274C31.9135 17.0138 31.7058 17.2119 31.4963 17.4479C31.387 17.5709 31.8302 17.4628 31.276 17.9402C30.7207 18.4168 30.029 18.4962 29.284 19.5055C29.2469 19.557 29.2255 20.0514 28.7518 20.2098C28.6444 20.2463 28.887 19.8874 28.6765 20.0065C28.4659 20.1257 27.7045 20.8325 27.5353 20.7802C27.583 20.8116 27.6696 20.8058 27.7323 20.8233C27.6283 20.9695 27.5229 21.1168 27.417 21.2637C27.3352 21.2067 27.2525 21.1506 27.1711 21.0941C26.6288 21.9896 26.5197 22.6203 25.3805 23.6177C25.774 23.4091 26.1701 23.2028 26.5662 22.9993C26.5782 22.848 26.5894 22.6958 26.5993 22.5452C27.1137 22.0751 27.6302 21.6043 28.1464 21.1359C28.1443 20.9736 28.1408 20.8125 28.138 20.6495C28.2773 20.5277 28.4152 20.4069 28.5547 20.2852C28.5827 20.3773 28.6099 20.4692 28.6363 20.5624C28.8773 20.2869 29.1182 20.0106 29.3575 19.7361C29.1967 20.6153 27.8807 21.183 28.242 21.4034C28.0811 21.4756 27.9201 21.548 27.7595 21.6205C27.8501 21.8103 27.5746 22.0077 27.1395 22.4054C27.3026 22.3767 27.4751 22.3375 27.6319 22.3181C27.1314 22.6287 26.4268 23.3594 25.9735 23.7448C25.7745 23.9142 25.8593 23.6332 25.7933 23.6769C25.4554 23.9014 25.0922 24.6078 24.9667 24.7071C24.2189 25.3026 23.4814 25.4428 22.959 26.3809C23.757 25.6666 23.3287 26.0609 23.7081 25.9005C23.8267 25.85 24.8733 24.9425 23.6232 26.1383C23.473 26.2749 21.0671 28.3097 21.6352 27.4221C21.331 27.8349 21.11 28.175 20.8357 28.5575C19.6458 28.9831 20.2905 29.0643 20.7271 29.0298C20.5968 29.1631 20.474 29.2911 20.3388 29.4275C20.4108 28.9265 18.947 30.4021 18.554 31.0045C18.4216 31.2056 18.9509 30.7994 18.5967 31.2173C18.3993 31.3881 18.1734 31.58 17.9646 31.7603C18.3704 31.5998 17.866 32.2012 17.9983 32.3156C17.8335 32.401 17.6643 32.4615 17.5176 32.4904C17.1773 32.596 17.0284 32.4463 17.0985 32.2671C16.9639 32.4172 16.7672 32.5289 16.5439 32.5651C16.3457 32.5986 16.1475 32.6316 15.9498 32.6642C16.1418 32.7045 16.3363 32.7451 16.5283 32.7867C15.177 32.6764 13.4395 32.8883 13.1571 32.5632C12.978 32.5654 12.7971 32.5671 12.618 32.5692C12.5626 32.6228 12.5091 32.6761 12.4537 32.7291C11.6435 32.6777 10.8351 32.6295 10.0249 32.5856C10.7463 32.5569 10.9181 32.483 11.6746 32.5425C11.3831 32.4827 11.0861 32.4243 10.8001 32.3681C9.66113 32.5301 9.50575 32.6205 7.7909 32.5752C7.71337 32.5716 6.41768 32.4599 6.37337 32.4511C6.1704 32.4036 6.47851 32.331 6.38813 32.307C6.13707 32.2369 4.61151 32.101 4.64105 32.0793C5.01395 31.7852 10.1467 31.5715 11.5349 31.5065C13.2086 31.4226 14.878 31.344 16.5439 31.2727C16.4744 31.261 16.3955 31.2792 16.3327 31.3278C21.1411 25.9956 26.026 20.8242 30.9695 15.7003C31.9973 14.595 33.9269 14.5862 34.9676 15.6908C37.1735 17.9026 39.3761 20.1211 41.5934 22.3365C41.2698 21.9854 40.6616 21.9744 40.322 22.3247C41.0171 21.5999 41.7116 20.8733 42.4053 20.1443C42.5063 20.0374 42.3818 20.0051 42.4218 19.9566C42.6718 19.6563 43.0623 19.5037 43.1676 19.4052C43.3919 19.1944 43.1584 19.2026 43.3144 19.0408C44.4841 17.83 45.6434 16.7056 46.8028 15.5367C47.9114 14.3566 49.9877 14.3322 51.1274 15.534C51.199 15.6053 51.2709 15.6765 51.3431 15.7478C51.4509 15.8541 51.2475 15.8371 51.4512 16.0098C51.5568 16.0984 52.0042 16.2612 52.2241 16.4793C52.9919 17.2414 53.5832 17.9342 54.3856 18.7452C54.8237 19.1877 55.4656 19.8656 55.956 20.3612C55.957 20.3622 55.958 20.3632 55.959 20.3642C56.1758 20.5832 56.4675 20.7467 56.6829 20.9618C56.9885 21.2671 56.7912 21.3372 56.8293 21.3929C56.9968 21.6371 57.1738 21.52 57.3642 21.7211C57.5613 21.9299 57.6237 22.0588 57.721 22.2113C57.5991 22.1343 57.4459 22.0294 57.1613 21.9619C56.9477 21.9054 56.5157 21.913 56.1953 22.2004C56.4564 21.8873 56.7279 21.5584 56.9265 21.3327C58.0066 20.4631 59.1768 19.1803 60.0393 18.2265C60.5497 17.6619 60.738 17.7479 60.9549 17.5263C61.718 16.7442 62.1221 15.979 62.8359 15.2416C63.7834 14.2631 64.7468 13.5173 65.6805 12.5847C65.8319 12.4335 65.6706 12.3441 65.8146 12.1913C66.3478 11.6256 67.0218 10.8947 67.5255 10.419C68.0865 9.8887 68.4697 9.86598 68.9619 9.29122C69.106 9.12259 68.9907 8.91854 69.2303 8.63401C69.6136 8.18002 70.2111 7.85616 70.517 7.57704C70.7148 7.39602 70.7055 7.34309 70.6995 7.28247C70.7785 7.19109 70.7619 6.8347 72.0174 6.38078C72.12 6.35337 72.5098 6.39882 73.0102 6.39892C74.1604 6.49304 74.4081 6.5265 75.2723 7.23888C75.342 7.29966 75.4235 7.37802 75.5232 7.48366C75.5689 7.53287 76.1061 8.30535 76.1702 8.37172C76.5478 8.76155 77.2726 9.5811 77.5207 9.78775C78.407 10.5268 77.95 9.70876 78.253 10.7795C78.6464 10.9959 79.0385 11.2087 79.447 11.4464C79.1504 11.3113 79.8919 12.3135 79.9604 12.3678C80.5249 12.8193 80.3733 12.3691 80.9846 13.0441C79.8054 12.5176 81.7611 13.927 82.1396 14.2979C83.9632 16.0825 85.4981 17.8252 87.2903 19.6588C87.8904 20.2725 88.7641 21.0268 89.396 21.679C89.5436 21.8307 89.353 21.7937 89.4813 21.9288C89.6099 22.063 89.5546 21.8284 89.698 21.9849C89.7383 22.0291 89.778 22.0732 89.817 22.1171C89.3007 21.6335 88.5393 21.7797 88.1918 22.1969C88.6314 21.7959 89.0295 21.3776 89.361 20.8287C89.4325 20.8163 89.4549 20.8409 89.5564 20.804C90.0661 19.9179 91.6561 18.8084 92.1934 18.3322C93.0339 17.5874 93.1104 17.2616 93.7079 16.7077C94.0868 16.3567 94.6008 15.9647 94.9333 15.6648C95.4269 15.1823 95.9493 15.0017 96.1475 14.8963C96.3511 14.8051 96.2632 14.6928 95.6571 14.7853C96.8424 14.2231 98.3318 14.5084 99.2185 15.4446C99.439 15.6779 99.6553 15.9174 99.8684 16.1695C99.9221 16.2331 99.7811 16.2913 99.8022 16.3172C99.9344 16.4822 100.073 16.4425 100.176 16.5403C100.456 16.8056 99.909 16.4611 100.322 16.8253C100.541 17.0171 100.734 17.0578 101.297 17.6333C102.74 19.1105 104.228 20.6486 105.728 22.2044C105.327 21.7862 104.599 21.794 104.21 22.2147C105.903 20.5219 107.605 18.8252 109.258 17.1717C109.499 16.9301 109.247 16.9978 109.555 16.6998C109.897 16.3688 110.337 15.9662 110.807 15.5411C111.924 14.3792 114.014 14.4342 115.052 15.6078C115.6 16.2331 116.118 16.8109 116.499 17.1865C117.413 18.0867 117.346 17.7474 117.96 18.2693C118.079 18.3701 117.914 18.3535 118.011 18.4554C118.66 19.1401 119.324 20.064 119.838 20.63C120.178 21.0046 120.268 20.8592 120.521 21.1029C120.896 21.4663 121.151 21.9696 121.341 22.1735C121.409 22.2465 121.477 22.3172 121.543 22.3859C121.202 22.0458 120.669 22.063 120.359 22.361C120.696 21.9956 121.036 21.6377 121.454 21.2611C121.395 21.2699 121.349 21.269 121.295 21.273C122.322 20.2501 123.347 19.2287 124.373 18.206C124.302 18.2318 124.232 18.2558 124.161 18.2812C125.374 17.0896 125.485 17.4705 124.855 17.0619C124.924 16.9564 124.995 16.8427 125.062 16.7426C125.298 17.0414 126.221 16.5066 127.212 15.6452C127.285 15.582 127.479 14.8707 127.737 15.2216C127.78 15.0288 127.799 14.9071 127.833 14.7418C128.122 14.6367 128.411 14.5277 128.698 14.4216C128.79 14.3021 128.883 14.1815 128.975 14.062C128.931 13.9877 128.857 13.9389 128.832 13.8474C129.313 13.347 130.391 12.4104 130.77 12.0144C131.712 11.0299 132.535 9.8938 133.453 9.30984C133.8 8.92732 133.324 9.17871 133.881 8.64946C133.999 8.6444 134.112 8.64061 134.235 8.63452C134.422 7.93885 134.671 7.99936 135.33 7.44236C135.777 7.06587 135.984 6.73539 136.387 6.35517C136.489 6.25887 136.549 6.34556 136.614 6.27519C136.833 6.03979 137.38 5.29069 137.537 5.12747C138.064 4.57991 138.569 4.0656 139.066 3.56605C140.064 2.51165 141.884 2.53929 142.846 3.58074C143.299 4.05964 143.751 4.54335 144.217 5.04572C144.361 5.19983 144.242 4.93441 144.39 5.09422C144.628 5.3512 144.378 5.3085 144.513 5.45979C144.892 5.88112 145.009 5.77302 145.562 6.33623C147.386 8.19114 149.377 10.4268 151.255 12.3904C151.314 12.4516 151.374 12.3863 151.438 12.4522C151.858 12.8829 152.196 13.4045 152.576 13.7969C153.206 14.4484 153.765 14.8544 154.385 15.5003C155.598 16.7624 156.638 17.932 157.884 19.2316C158.903 20.2956 159.797 21.2104 160.916 22.3755C161.019 22.4828 161.122 22.5902 161.225 22.6974C161.084 22.5569 160.841 22.5634 160.71 22.7053C162.9 20.4951 165.083 18.2454 167.284 16.0086C168.153 15.0806 169.775 15.0829 170.641 16.0114C172.586 18.0085 174.514 20.0213 176.399 22.0564C176.522 22.1892 176.43 22.1766 176.47 22.2147C176.85 22.5758 176.938 22.5554 176.951 22.8041C177.436 23.2638 177.668 23.3314 178.219 23.9209C178.512 24.235 178.158 24.1327 178.729 24.5913C179.244 25.0058 178.815 24.412 180.091 25.896C180.124 25.9354 180.222 26.1962 180.523 26.4696C180.825 26.7449 180.555 26.3487 181.249 27.0432C182.518 28.314 183.98 29.9167 185.449 31.4702C185.428 31.4561 185.404 31.4519 185.383 31.4556C185.722 31.4603 186.058 31.4637 186.391 31.4655C186.559 31.4661 188.177 31.4394 188.496 31.4217C189.114 31.3866 188.985 31.3149 189.788 31.3126C190.408 31.3112 190.92 31.3973 191.649 31.3947C191.734 31.3943 191.876 31.3191 192.424 31.3398ZM93.294 20.9902C93.316 21.2239 93.5967 21.882 92.8138 22.3961C92.7396 22.4448 92.7422 21.7913 92.3371 22.1019C92.6487 21.7147 92.9746 21.3595 93.2935 20.9897C93.2936 20.9898 93.2938 20.99 93.294 20.9902ZM196.391 33.0776C195.706 33.0709 195.019 33.0639 194.334 33.0562C194.807 33.0195 195.28 32.9836 195.751 32.9482C195.965 32.9918 196.177 33.035 196.391 33.0776ZM132.923 13.4745C132.923 13.474 132.924 13.4736 132.924 13.4731C132.473 14.0394 132.023 14.6066 131.573 15.1738C131.588 15.0821 131.602 14.9901 131.617 14.8984C131.953 14.432 132.29 13.9659 132.626 13.5017C132.725 13.4928 132.824 13.4836 132.923 13.4745ZM136.5 9.01555C136.865 8.72989 136.86 8.88265 137.108 8.77206C137.108 8.77193 137.108 8.77179 137.108 8.77166C137.173 8.74221 137.407 8.53566 137.493 8.45238C137.416 8.43898 137.331 8.43538 137.252 8.42491C137.892 7.5502 139.746 6.4312 138.012 8.53444C137.983 8.44841 137.952 8.36401 137.922 8.27806C136.998 9.26165 135.82 10.2135 136.5 9.01555ZM84.1425 20.9243C83.098 20.3353 82.7883 20.1218 81.9706 18.9663C82.1763 19.041 82.382 19.1157 82.5877 19.1905C82.6809 19.4222 82.7736 19.6523 82.8669 19.8839C82.8674 19.8844 82.8679 19.8849 82.8683 19.8853C82.9726 19.8476 83.0772 19.8099 83.1802 19.7709C83.5004 20.1549 83.8221 20.5404 84.1425 20.9243ZM168.054 17.7095C168.562 17.7583 168.332 17.6623 167.758 18.3836C167.559 18.6335 167.825 18.4605 167.696 18.6106C167 19.4223 166.746 19.293 166.812 19.0234C167.226 18.5843 167.645 18.1414 168.053 17.7109C168.053 17.7104 168.054 17.7099 168.054 17.7095ZM188.593 32.757C188.594 32.757 188.595 32.757 188.595 32.757C188.623 32.8275 188.193 32.8488 188.678 32.9134C188.309 32.9152 187.94 32.9166 187.569 32.9184C187.678 32.9111 187.789 32.9041 187.898 32.8969C187.802 32.8729 187.706 32.8484 187.61 32.8241C187.479 32.9072 187.357 32.86 186.969 32.8338C187.076 32.9223 187.183 33.0105 187.29 33.0982C186.84 33.0754 186.388 33.052 185.937 33.0282C185.932 33.0055 185.926 32.9828 185.921 32.96C185.751 32.9901 185.583 33.0207 185.413 33.0512C185.403 33.0454 185.393 33.0395 185.383 33.0337C185.33 33.0125 185.279 32.9887 185.23 32.962C184.935 32.953 184.637 32.8492 184.391 32.6623C184.373 32.5763 184.696 32.8152 184.371 32.5286C184.319 32.4761 184.241 32.4002 184.129 32.2919C184.231 32.3497 184.333 32.4076 184.435 32.4657C184.585 32.5653 184.751 32.6295 184.915 32.6575C185.063 32.7195 185.223 32.7518 185.383 32.752C186.453 32.7537 187.523 32.7555 188.593 32.757ZM162.325 23.7764C163.235 22.8153 163.023 23.1291 162.96 23.4967C162.749 23.5897 162.536 23.684 162.325 23.7764ZM113.043 17.1728C112.856 17.3161 112.849 17.5529 112.973 17.6663C112.95 17.7402 112.927 17.8141 112.904 17.8881C112.44 18.5293 111.624 18.8263 111.931 18.3017C112.133 17.955 112.424 17.6809 112.698 17.3964C112.786 17.3079 112.878 17.2502 113.043 17.1728ZM99.6702 19.8866C100.271 20.6389 99.4568 20.1754 99.1987 20.1261C99.1835 19.7698 98.9092 19.5214 98.5127 19.0792C98.9149 19.4651 99.5713 19.7619 99.6707 19.8862C99.6705 19.8863 99.6704 19.8865 99.6702 19.8866ZM124.842 21.4317C125.106 21.153 125.334 20.8419 125.62 20.6424C125.68 20.8461 125.081 21.2197 125.62 21.0605C125.452 21.2397 125.284 21.419 125.117 21.5972C125.144 21.4063 124.938 21.4958 124.843 21.4314C124.843 21.4315 124.842 21.4316 124.842 21.4317ZM152.082 16.4442C151.68 15.7834 151.526 15.7352 150.902 15.2845C150.932 15.1048 151.744 15.5751 152.18 15.9412C152.147 16.1085 152.114 16.276 152.082 16.4442ZM24.9532 25.4753C24.9391 25.2081 25.8618 24.2442 26.3743 23.8184C26.3405 23.8958 26.3066 23.9735 26.273 24.0511C25.8344 24.5259 25.3933 25.0019 24.9532 25.4753ZM98.3268 18.8661C98.3912 18.942 98.4533 19.013 98.5127 19.0792C98.4414 19.0107 98.3775 18.9398 98.3268 18.8661ZM69.7517 11.0076C69.7921 10.6051 69.0742 11.2148 69.9429 10.4716C69.9428 10.4715 69.9426 10.4713 69.9424 10.4711C70.5167 9.97944 70.6456 9.87299 71.1485 9.38886C71.2043 9.79548 70.2959 10.8874 71.7101 9.5416C71.7283 9.52346 71.5546 9.42468 71.7918 9.2207C71.8508 9.16999 72.0759 9.08947 72.3499 8.90197C72.4084 8.86444 72.4719 8.82967 72.5404 8.79891C72.5937 8.76276 72.8492 8.69653 72.937 8.71989C72.9806 8.72687 72.981 8.73117 72.8989 8.74148C72.8217 8.7574 72.6356 8.7682 72.4243 8.975C72.4226 8.97678 72.4208 8.97857 72.4191 8.98037C72.4319 8.98864 72.4443 8.99732 72.4563 9.00637C72.5142 9.05342 72.565 9.10804 72.6155 9.16259C72.704 9.26831 72.7806 9.38508 72.877 9.4766C72.499 9.95364 71.8572 9.97552 71.4166 10.4403C70.7633 11.1311 70.7451 11.7911 70.1968 11.5091C70.6532 10.837 71.612 9.85469 71.9897 9.97443C72.5341 9.42512 72.483 9.06388 71.9441 9.40872C70.2036 11.4432 71.1234 9.6308 69.6506 11.4624C69.6897 11.5395 69.6853 11.6699 69.7505 11.7134C69.0447 12.021 69.7374 11.1513 69.7517 11.0076ZM73.8741 9.5539C73.6568 9.45234 73.4395 9.35131 73.2222 9.25053C73.0957 9.24939 73.0033 9.3231 72.9724 9.40966C72.9819 9.18822 73.0702 8.87043 73.4754 9.00212C73.551 9.04338 73.6312 9.0917 73.7165 9.14761C73.7684 9.28274 73.8217 9.41923 73.8741 9.5539ZM46.3417 19.5512C46.4032 19.7047 46.3779 19.928 46.3898 20.1208C46.1998 20.1309 43.7794 22.4113 44.878 21.1208C45.037 20.9329 46.2794 20.0538 46.3417 19.5512ZM155.875 20.0492C155.649 19.7228 155.424 19.3971 155.2 19.0712C155.653 19.4671 156.106 19.863 156.558 20.2592C156.33 20.1884 156.103 20.1193 155.875 20.0492ZM108.652 21.0127C108.772 20.8983 108.525 21.4256 108.959 20.9389C108.708 21.3721 108.464 21.7703 108.216 22.1911C108.051 22.2287 107.886 22.2676 107.721 22.305C107.685 22.4254 107.648 22.547 107.613 22.6674C107.564 22.5264 107.512 22.3928 107.464 22.2477C108.228 21.8769 108.125 21.5189 108.652 21.0127ZM125.57 19.3631C125.86 19.4471 125.164 20.3852 125.991 19.6016C125.965 19.8786 125.788 20.1914 125.333 20.679C125.211 20.7084 125.088 20.7379 124.965 20.7671C125.084 20.904 125.012 21.0735 124.842 21.4317C124.842 21.4318 124.841 21.4319 124.841 21.432C124.143 22.1662 124.142 22.0806 123.758 22.0458C124.629 21.397 124.457 21.1832 124.853 20.5486C125.126 20.1126 125.621 19.6797 125.57 19.3631ZM48.7306 17.1656C48.6683 17.2705 48.6869 17.3519 48.7089 17.4071C48.6943 17.6634 48.8497 17.6296 47.9888 18.2015C48.0016 18.0925 48.015 17.9836 48.0277 17.8745C48.2121 17.6768 48.3967 17.4793 48.5814 17.282C48.6244 17.2343 48.6744 17.1952 48.7306 17.1656ZM128.836 17.3245C128.486 17.1021 127.759 17.3892 128.148 17.9416C128.73 17.5382 128.225 17.5186 128.836 17.3245ZM100.413 19.6155C101.334 20.586 100.789 20.7673 100.218 20.5567C100.225 20.4302 100.233 20.3036 100.242 20.1787C100.047 20.0415 99.852 19.9044 99.6574 19.7669C99.9092 19.7164 100.161 19.6657 100.413 19.6155ZM145.046 8.45181C144.143 7.90452 145.718 9.33889 145.101 8.94299C144.608 8.62762 144.267 7.90952 144.583 7.997C144.725 8.13461 144.882 8.28913 145.044 8.45041C145.045 8.45087 145.045 8.45134 145.046 8.45181ZM140.888 4.71935C140.959 4.85652 140.941 4.90895 140.974 4.91703C141.003 4.93293 141.087 4.86898 141.294 4.97164C141.309 4.98016 141.336 5.00037 141.366 5.03278C141.715 5.3981 142.583 6.35411 142.259 5.73645C142.002 5.47481 141.737 5.20399 141.47 4.93068C141.322 4.77612 141.102 4.69661 140.888 4.71935ZM89.126 24.3811C89.1087 24.3112 89.568 24.1335 89.7811 23.7565C89.9786 23.4119 90.2237 23.0618 90.321 23.0262C90.3208 23.026 90.3207 23.0259 90.3205 23.0257C90.8307 22.841 89.812 23.928 90.4946 23.6927C90.3254 23.8084 90.1837 23.9234 90.0636 24.0337C89.4946 24.5574 88.9058 24.5766 88.6199 24.5146C88.3191 24.4351 88.3035 24.2939 88.5132 23.9669C88.9561 24.1136 89.0908 24.0563 89.118 24.1335C89.1491 24.1948 89.0564 24.2977 89.126 24.3811ZM10.0357 32.6552C10.0351 32.6552 10.0344 32.6552 10.0338 32.6552C10.1286 32.6584 10.9099 32.78 10.8148 32.8207C9.87534 32.7757 10.0428 32.7061 9.16811 32.8176C9.12016 32.7785 9.07907 32.7409 9.02744 32.702C9.37449 32.6817 9.56686 32.6353 10.0357 32.6552ZM43.5932 21.8874C43.8055 21.6121 44.3697 21.2832 44.6382 20.9957C44.2316 22.3502 42.7428 22.9848 43.5932 21.8874ZM178.213 26.0471C178.213 26.0465 178.212 26.0459 178.211 26.0453C178.211 26.0454 178.212 26.0455 178.212 26.0456C178.212 26.0461 178.213 26.0466 178.213 26.0471ZM63.2511 18.7485C63.1884 18.7493 63.1434 18.7404 63.113 18.7233C63.1108 18.7211 63.1085 18.7189 63.1063 18.7166C63.1526 18.7284 63.2004 18.7394 63.2511 18.7485ZM86.4842 22.5488C86.2298 21.9745 87.8525 23.1273 88.2364 23.6382C88.1338 23.6769 88.064 23.7357 87.9093 23.7428C87.7368 23.1957 86.5265 22.6444 86.4842 22.5488ZM119.115 23.0155C118.033 21.9071 120.003 22.7987 119.617 23.2935C119.606 23.2997 119.144 23.0433 119.115 23.0155ZM95.9747 17.7881C96.0647 17.3361 95.4899 17.8208 96.3219 17.0274C96.3396 17.0107 96.3583 16.9943 96.3786 16.9781C96.4723 16.9852 96.5595 17.0079 96.636 17.0426C96.5774 17.0825 96.5262 17.1308 96.4831 17.1855C96.3136 17.3864 96.1442 17.5873 95.9747 17.7881ZM111.465 16.78C110.194 18.2632 109.061 19.7634 110.434 19.3321C110.522 19.2114 110.612 19.0898 110.699 18.9692C110.479 18.722 110.989 18.4597 111.554 17.898C111.541 17.7254 111.829 17.3889 111.808 17.2521C111.767 16.9878 111.303 17.2442 111.465 16.78ZM171.23 18.4051C171.183 18.4073 171.136 18.4101 171.089 18.4121C170.845 18.2199 170.6 18.0273 170.355 17.8356C170.439 17.8234 170.522 17.8113 170.606 17.7992C170.814 18.0009 171.021 18.2017 171.229 18.4035C171.229 18.404 171.229 18.4045 171.23 18.4051ZM75.7505 10.374C75.1407 10.7243 75.6639 11.0778 76.788 11.7333C76.4427 11.2808 76.0957 10.8266 75.7505 10.374ZM134.245 10.297C134.385 10.377 134.523 10.4572 134.664 10.5358C135.015 9.94654 134.802 9.91099 134.431 9.99438C134.368 10.0957 134.308 10.1956 134.245 10.297ZM141.799 4.2665C141.477 4.02802 141.592 4.24834 141.559 4.22243C140.876 3.90073 140.471 3.95482 139.957 4.44001C139.882 4.52689 139.798 4.62875 139.7 4.75214C139.649 4.84933 139.6 4.94643 139.55 5.04436C139.844 5.00766 139.993 4.88092 140.21 4.68818C140.366 4.54655 140.637 4.39854 140.976 4.47745C140.834 4.36858 140.642 4.29154 140.421 4.27627C140.907 4.06487 141.497 4.20186 141.828 4.57933C141.865 4.62016 141.901 4.661 141.937 4.70186C141.999 4.71845 142.061 4.73535 142.123 4.75197C142.067 4.65478 142.011 4.55435 141.954 4.45599C141.909 4.38863 141.857 4.32467 141.799 4.2665ZM173.655 21.0195C173.967 21.3497 174.28 21.6816 174.592 22.0117C174.643 21.9857 174.693 21.959 174.743 21.9331C174.381 21.6285 174.018 21.3232 173.655 21.0195ZM68.5848 12.4384C68.5851 12.4891 68.5861 12.5393 68.5903 12.5871C68.5607 12.5538 68.5634 12.5014 68.5848 12.4384ZM8.83758 32.3979C8.32263 32.3689 7.58058 32.3945 7.01574 32.3915C7.06014 32.4976 8.49577 32.4636 8.99989 32.5333C9.0809 32.5125 9.05525 32.41 8.83758 32.3979ZM101.694 20.9517C101.869 20.9616 102.043 20.9719 102.216 20.9806C102.425 21.2124 102.634 21.4451 102.845 21.6781C102.92 21.6175 102.995 21.5562 103.07 21.4957C102.014 20.5948 102.435 20.6287 102.152 19.9472C102 20.2827 101.847 20.6163 101.694 20.9517ZM183.991 31.1211C183.271 30.4279 182.98 30.2179 183.271 30.7211C183.541 30.9497 183.812 31.1802 184.082 31.4095C184.051 31.3131 184.02 31.2164 183.991 31.1211ZM55.8004 22.7608C55.1496 22.2592 55.4059 21.9594 54.7379 21.5565C54.7199 21.5456 54.7013 21.5347 54.6819 21.5237C54.6939 21.5411 54.7059 21.5586 54.7179 21.5761C54.9572 21.9248 55.196 22.2739 55.4341 22.6213C55.5554 22.6672 55.6791 22.7149 55.8004 22.7608ZM85.9224 19.2728C85.7768 18.9217 84.8374 18.9202 84.4979 17.8646C84.2272 17.7993 84.0228 17.7924 83.7773 17.7489C83.8072 17.554 83.8275 17.3461 83.8605 17.1559C83.8601 17.1554 83.8596 17.155 83.8591 17.1545C83.1927 16.5489 83.4588 17.1045 83.325 17.2072C83.2688 17.2491 82.885 16.6909 82.9229 16.9458C82.9894 17.3849 84.037 18.2414 83.8141 18.4652C83.5571 18.0554 82.8496 17.4567 82.89 17.7995C82.9341 18.1751 83.8198 18.5245 84.0706 19.0543C83.8752 18.1342 84.9109 19.4143 84.7654 19.8183C85.6506 20.297 85.1182 19.581 84.4186 18.8864C85.0515 19.1085 84.3173 18.588 84.3915 18.3108C84.9319 18.6499 86.3322 20.2593 85.9224 19.2728ZM118.506 20.7725C118.029 20.309 117.413 19.4586 116.934 19.2913C116.655 19.1941 117.31 20.0095 116.66 19.6414C117.128 20.0898 117.289 20.139 117.34 19.9332C117.459 20.0235 117.579 20.1156 117.697 20.2063C117.719 20.2798 117.744 20.3543 117.766 20.4277C117.873 20.4311 117.98 20.4353 118.086 20.4375C118.185 20.5599 118.286 20.6836 118.385 20.8064C118.424 20.7935 118.469 20.7932 118.506 20.7725ZM38.3412 21.3234C38.4723 21.4533 38.6022 21.5819 38.7338 21.7113C38.7529 21.6641 38.7706 21.6128 38.7885 21.5626C38.8038 21.5241 38.8191 21.4856 38.8344 21.4472C38.8133 21.6177 39.2686 22.4028 39.6325 22.5646C39.8157 22.6458 39.7033 22.1624 40.2912 22.6914C39.8791 22.2943 39.4809 21.9426 39.0744 21.5631C39.1643 21.5448 39.2534 21.5244 39.3433 21.506C39.3432 21.5057 39.343 21.5054 39.3429 21.5051C39.2252 21.362 39.1065 21.2168 38.9887 21.0739C38.7721 21.1571 38.5571 21.2408 38.3412 21.3234ZM133.645 10.4664C133.295 11.0046 133.195 11.2021 133.553 11.1367C133.554 11.1363 133.554 11.1359 133.555 11.1355C133.653 10.9035 133.752 10.6717 133.85 10.4402C133.782 10.4486 133.714 10.4568 133.645 10.4664ZM64.1718 15.7048C63.9422 17.3545 65.6196 14.7778 64.9766 14.9509C64.9474 14.9585 64.3379 15.6919 64.1718 15.7048ZM100.444 19.2399C100.707 19.4971 100.969 19.7553 101.233 20.0138C101.255 19.8734 101.275 19.7319 101.297 19.5914C101.013 19.4741 100.729 19.3569 100.444 19.2399ZM181.113 27.8529C180.938 27.4829 180.285 26.7336 179.843 26.488C180.008 26.6831 180.173 26.8781 180.338 27.073C179.991 26.7388 179.646 26.41 179.297 26.073C179.143 26.1873 179.612 26.5113 180.162 27.1509C180.246 27.2506 180.664 28.0076 180.988 28.0927C181.054 28.1096 180.453 27.4572 180.956 27.8267C180.774 27.6277 180.611 27.4621 180.437 27.2763C180.456 27.232 180.475 27.1878 180.492 27.1421C180.7 27.3796 180.906 27.6156 181.113 27.8529ZM115.784 18.0217C115.159 17.3554 114.985 17.3689 114.682 17.3997C114.998 17.6843 115.314 17.9693 115.63 18.254C115.681 18.1761 115.733 18.1 115.784 18.0217ZM175.467 21.9595C175.136 21.584 175.202 21.8193 175.046 21.6905C174.457 21.2035 174.155 20.7727 173.594 20.271C173.645 20.2907 173.692 20.3085 173.742 20.3273C173.741 20.3269 173.741 20.3264 173.74 20.3259C171.336 17.7018 172.44 19.2356 173.957 20.729C173.96 20.7956 173.962 20.8607 173.966 20.927C174.686 21.5548 175.35 22.1337 175.467 21.9595ZM73.9235 7.79646C73.8999 7.75347 74.0795 7.75123 74.1177 7.69714C74.1542 7.66245 74.0448 7.43335 73.3282 7.35532C72.7575 7.53317 72.9697 7.60598 73.2722 7.66559C73.5885 7.72411 74.0373 7.96386 74.111 8.16399C73.8478 7.99571 73.5401 7.90383 73.2541 7.89887C73.6632 8.0077 73.9237 8.22643 74.0897 8.39933C74.4155 8.74624 74.5171 8.66949 74.4991 8.28325C74.4978 8.26729 74.4286 8.20748 74.3533 8.14059C74.1827 7.97283 73.9491 7.8404 73.9235 7.79646ZM67.4857 11.9525C67.8785 12.5397 68.5837 11.3778 68.397 11.2618C68.2629 11.3861 68.2469 11.5694 68.0742 11.6713C67.9001 11.7746 67.7497 11.6971 67.4857 11.9525ZM94.8229 17.0176C94.7937 17.0432 94.3228 17.1268 94.5045 17.2509C95.2085 17.2667 95.6539 16.3437 95.4079 16.3401C95.1888 16.575 95.0933 16.7813 94.8224 17.0171C94.8226 17.0173 94.8228 17.0174 94.8229 17.0176ZM185.217 31.9371C185.216 31.9323 185.146 31.8914 185.092 31.8207C184.899 31.6047 184.66 31.3484 184.589 31.3166C184.478 31.2814 184.399 31.2866 184.304 31.2716C184.502 31.4388 184.774 31.7133 184.992 31.9189C185.131 32.037 185.255 32.027 185.217 31.9368C185.217 31.9369 185.217 31.937 185.217 31.9371Z" fill="white"/>
<path d="M14.64 41.1488C14 40.7968 13.328 40.5088 12.624 40.2848C11.92 40.0448 11.256 39.9248 10.632 39.9248C9.832 39.9248 9.2 40.0928 8.736 40.4288C8.272 40.7648 8.04 41.2528 8.04 41.8928C8.04 42.3408 8.208 42.7408 8.544 43.0928C8.88 43.4288 9.312 43.7248 9.84 43.9808C10.384 44.2368 10.944 44.4768 11.52 44.7008C12.224 44.9568 12.896 45.2848 13.536 45.6848C14.192 46.0688 14.728 46.5968 15.144 47.2688C15.576 47.9408 15.792 48.8368 15.792 49.9568C15.792 50.8528 15.56 51.6848 15.096 52.4528C14.632 53.2048 13.952 53.8128 13.056 54.2768C12.176 54.7408 11.104 54.9728 9.84 54.9728C8.784 54.9728 7.736 54.8128 6.696 54.4928C5.672 54.1728 4.736 53.7088 3.888 53.1008L5.28 50.6288C5.872 51.0768 6.56 51.4528 7.344 51.7568C8.144 52.0448 8.88 52.1888 9.552 52.1888C10 52.1888 10.448 52.1168 10.896 51.9728C11.36 51.8288 11.744 51.5968 12.048 51.2768C12.352 50.9568 12.504 50.5168 12.504 49.9568C12.504 49.5408 12.376 49.1728 12.12 48.8528C11.864 48.5328 11.52 48.2448 11.088 47.9888C10.672 47.7328 10.216 47.5168 9.72 47.3408C9.176 47.1328 8.616 46.9008 8.04 46.6448C7.464 46.3728 6.928 46.0448 6.432 45.6608C5.936 45.2768 5.536 44.8048 5.232 44.2448C4.928 43.6688 4.776 42.9648 4.776 42.1328C4.776 41.1408 5 40.2848 5.448 39.5648C5.896 38.8288 6.528 38.2448 7.344 37.8128C8.16 37.3808 9.104 37.1488 10.176 37.1168C11.504 37.1168 12.608 37.2768 13.488 37.5968C14.368 37.9008 15.152 38.2768 15.84 38.7248L14.64 41.1488ZM17.9682 44.4368H21.0162V54.7808H17.9682V44.4368ZM17.8962 40.7648C17.8962 40.3168 18.0722 39.9488 18.4242 39.6608C18.7922 39.3568 19.1842 39.2048 19.6002 39.2048C20.0162 39.2048 20.3922 39.3568 20.7282 39.6608C21.0802 39.9488 21.2562 40.3168 21.2562 40.7648C21.2562 41.2288 21.0802 41.6048 20.7282 41.8928C20.3922 42.1808 20.0162 42.3248 19.6002 42.3248C19.1842 42.3248 18.7922 42.1808 18.4242 41.8928C18.0722 41.6048 17.8962 41.2288 17.8962 40.7648ZM28.817 55.0448C27.585 55.0448 26.529 54.8128 25.649 54.3488C24.785 53.8688 24.121 53.2128 23.657 52.3808C23.209 51.5488 22.985 50.5968 22.985 49.5248C22.985 48.4848 23.249 47.5488 23.777 46.7168C24.305 45.8848 25.009 45.2208 25.889 44.7248C26.785 44.2288 27.785 43.9808 28.889 43.9808C30.329 43.9808 31.521 44.4048 32.465 45.2528C33.409 46.0848 34.025 47.2848 34.313 48.8528L26.153 51.5168L25.457 49.8368L31.601 47.7008L30.953 48.0368C30.809 47.5888 30.553 47.1968 30.185 46.8608C29.833 46.5248 29.321 46.3568 28.649 46.3568C27.849 46.3568 27.201 46.6288 26.705 47.1728C26.225 47.7168 25.985 48.4368 25.985 49.3328C25.985 50.3248 26.257 51.0928 26.801 51.6368C27.361 52.1808 28.057 52.4528 28.889 52.4528C29.273 52.4528 29.641 52.3888 29.993 52.2608C30.361 52.1168 30.721 51.9328 31.073 51.7088L32.417 53.9888C31.873 54.3088 31.281 54.5648 30.641 54.7568C30.017 54.9488 29.409 55.0448 28.817 55.0448ZM42.7277 55.0448C41.8317 55.0448 41.0717 54.8848 40.4477 54.5648C39.8237 54.2448 39.2957 53.8288 38.8637 53.3168L39.1037 52.5968V54.7808H36.0557V35.9408H39.1037V46.3808L39.0797 45.3728C39.4797 44.9568 40.0317 44.6208 40.7357 44.3648C41.4397 44.0928 42.2397 43.9568 43.1357 43.9568C44.0477 43.9568 44.8717 44.1728 45.6077 44.6048C46.3597 45.0368 46.9597 45.6608 47.4077 46.4768C47.8717 47.2768 48.1037 48.2528 48.1037 49.4048C48.1037 50.5728 47.8477 51.5808 47.3357 52.4288C46.8397 53.2768 46.1837 53.9248 45.3677 54.3728C44.5517 54.8208 43.6717 55.0448 42.7277 55.0448ZM42.0557 52.4768C42.5997 52.4768 43.0957 52.3488 43.5437 52.0928C43.9917 51.8208 44.3437 51.4528 44.5997 50.9888C44.8717 50.5088 45.0077 49.9728 45.0077 49.3808C45.0077 48.8048 44.8717 48.2928 44.5997 47.8448C44.3277 47.3808 43.9677 47.0208 43.5197 46.7648C43.0877 46.4928 42.5997 46.3568 42.0557 46.3568C41.3517 46.3568 40.7357 46.5328 40.2077 46.8848C39.6797 47.2208 39.3117 47.6688 39.1037 48.2288V50.6528C39.3757 51.2288 39.7517 51.6768 40.2317 51.9968C40.7277 52.3168 41.3357 52.4768 42.0557 52.4768ZM55.0373 55.0448C53.8053 55.0448 52.7493 54.8128 51.8693 54.3488C51.0053 53.8688 50.3413 53.2128 49.8773 52.3808C49.4293 51.5488 49.2053 50.5968 49.2053 49.5248C49.2053 48.4848 49.4693 47.5488 49.9973 46.7168C50.5253 45.8848 51.2293 45.2208 52.1093 44.7248C53.0053 44.2288 54.0053 43.9808 55.1093 43.9808C56.5493 43.9808 57.7413 44.4048 58.6853 45.2528C59.6293 46.0848 60.2453 47.2848 60.5333 48.8528L52.3733 51.5168L51.6773 49.8368L57.8213 47.7008L57.1733 48.0368C57.0293 47.5888 56.7733 47.1968 56.4053 46.8608C56.0533 46.5248 55.5413 46.3568 54.8693 46.3568C54.0693 46.3568 53.4213 46.6288 52.9253 47.1728C52.4453 47.7168 52.2053 48.4368 52.2053 49.3328C52.2053 50.3248 52.4773 51.0928 53.0213 51.6368C53.5813 52.1808 54.2773 52.4528 55.1093 52.4528C55.4933 52.4528 55.8613 52.3888 56.2133 52.2608C56.5813 52.1168 56.9413 51.9328 57.2933 51.7088L58.6373 53.9888C58.0933 54.3088 57.5013 54.5648 56.8613 54.7568C56.2373 54.9488 55.6293 55.0448 55.0373 55.0448ZM65.036 44.4368L65.3 46.4768L65.228 46.2368C65.58 45.5648 66.1 45.0208 66.788 44.6048C67.476 44.1888 68.3 43.9808 69.26 43.9808C70.236 43.9808 71.044 44.2688 71.684 44.8448C72.34 45.4208 72.676 46.1648 72.692 47.0768V54.7808H69.644V48.1808C69.628 47.7008 69.492 47.3168 69.236 47.0288C68.996 46.7248 68.588 46.5728 68.012 46.5728C67.212 46.5728 66.564 46.9328 66.068 47.6528C65.572 48.3728 65.324 49.2928 65.324 50.4128V54.7808H62.276V44.4368H65.036ZM94.7906 53.0768C94.5666 53.3008 94.2306 53.5248 93.7826 53.7488C93.3506 53.9728 92.8466 54.1808 92.2706 54.3728C91.7106 54.5488 91.1346 54.6928 90.5426 54.8048C89.9506 54.9168 89.3906 54.9728 88.8626 54.9728C86.9746 54.9728 85.3346 54.6048 83.9426 53.8688C82.5506 53.1328 81.4786 52.1248 80.7266 50.8448C79.9746 49.5648 79.5986 48.1008 79.5986 46.4528C79.5986 44.8848 79.8386 43.5088 80.3186 42.3248C80.7986 41.1408 81.4546 40.1568 82.2866 39.3728C83.1346 38.5888 84.0946 38.0048 85.1666 37.6208C86.2546 37.2208 87.3986 37.0208 88.5986 37.0208C89.7026 37.0208 90.7186 37.1408 91.6466 37.3808C92.5746 37.6208 93.3666 37.9248 94.0226 38.2928L92.9906 41.2448C92.6866 41.0688 92.2946 40.9008 91.8146 40.7408C91.3346 40.5808 90.8466 40.4528 90.3506 40.3568C89.8546 40.2448 89.4066 40.1888 89.0066 40.1888C87.7266 40.1888 86.6226 40.4208 85.6946 40.8848C84.7666 41.3328 84.0626 42.0048 83.5826 42.9008C83.1026 43.7968 82.8626 44.8848 82.8626 46.1648C82.8626 47.3168 83.1186 48.3168 83.6306 49.1648C84.1426 50.0128 84.8546 50.6688 85.7666 51.1328C86.6946 51.5968 87.7506 51.8288 88.9346 51.8288C89.4626 51.8288 89.9586 51.7888 90.4226 51.7088C90.8866 51.6128 91.2786 51.4768 91.5986 51.3008V48.8048H88.4306V45.7568H94.7906V53.0768ZM97.5135 44.4368H100.562V54.7808H97.5135V44.4368ZM97.4415 40.7648C97.4415 40.3168 97.6175 39.9488 97.9695 39.6608C98.3375 39.3568 98.7295 39.2048 99.1455 39.2048C99.5615 39.2048 99.9375 39.3568 100.274 39.6608C100.626 39.9488 100.802 40.3168 100.802 40.7648C100.802 41.2288 100.626 41.6048 100.274 41.8928C99.9375 42.1808 99.5615 42.3248 99.1455 42.3248C98.7295 42.3248 98.3375 42.1808 97.9695 41.8928C97.6175 41.6048 97.4415 41.2288 97.4415 40.7648ZM109.73 55.0448C109.074 55.0448 108.434 54.9168 107.81 54.6608C107.186 54.3888 106.674 54.0128 106.274 53.5328L106.394 52.6448V59.7488H103.346V44.2208H105.962L106.394 46.4048L106.154 45.7088C106.666 45.1968 107.266 44.7808 107.954 44.4608C108.658 44.1248 109.45 43.9568 110.33 43.9568C111.306 43.9568 112.17 44.1888 112.922 44.6528C113.69 45.1008 114.29 45.7488 114.722 46.5968C115.17 47.4288 115.394 48.4208 115.394 49.5728C115.394 50.7248 115.146 51.7168 114.65 52.5488C114.17 53.3648 113.506 53.9888 112.658 54.4208C111.81 54.8368 110.834 55.0448 109.73 55.0448ZM109.13 52.6448C109.706 52.6448 110.226 52.5168 110.69 52.2608C111.17 52.0048 111.554 51.6528 111.842 51.2048C112.146 50.7408 112.298 50.2128 112.298 49.6208C112.298 49.0128 112.162 48.4768 111.89 48.0128C111.634 47.5488 111.282 47.1888 110.834 46.9328C110.386 46.6608 109.89 46.5248 109.346 46.5248C108.626 46.5248 108.018 46.6928 107.522 47.0288C107.042 47.3488 106.666 47.8048 106.394 48.3968V50.7008C106.554 51.2928 106.882 51.7648 107.378 52.1168C107.874 52.4688 108.458 52.6448 109.13 52.6448ZM118.272 54.7808V47.1248H116.52V44.4128H118.272V40.6208C118.272 39.2288 118.648 38.1088 119.4 37.2608C120.152 36.4128 121.248 35.9888 122.688 35.9888C123.104 35.9888 123.568 36.0528 124.08 36.1808C124.592 36.3088 125.04 36.5088 125.424 36.7808L124.152 38.9888C123.992 38.7968 123.808 38.6688 123.6 38.6048C123.392 38.5248 123.2 38.4848 123.024 38.4848C122.512 38.4848 122.096 38.6608 121.776 39.0128C121.472 39.3488 121.32 39.9088 121.32 40.6928V44.4128H124.488V47.1248H121.32V54.7808H118.272ZM130.903 55.0448C129.671 55.0448 128.615 54.8128 127.735 54.3488C126.871 53.8688 126.207 53.2128 125.743 52.3808C125.295 51.5488 125.071 50.5968 125.071 49.5248C125.071 48.4848 125.335 47.5488 125.863 46.7168C126.391 45.8848 127.095 45.2208 127.975 44.7248C128.871 44.2288 129.871 43.9808 130.975 43.9808C132.415 43.9808 133.607 44.4048 134.551 45.2528C135.495 46.0848 136.111 47.2848 136.399 48.8528L128.239 51.5168L127.543 49.8368L133.687 47.7008L133.039 48.0368C132.895 47.5888 132.639 47.1968 132.271 46.8608C131.919 46.5248 131.407 46.3568 130.735 46.3568C129.935 46.3568 129.287 46.6288 128.791 47.1728C128.311 47.7168 128.071 48.4368 128.071 49.3328C128.071 50.3248 128.343 51.0928 128.887 51.6368C129.447 52.1808 130.143 52.4528 130.975 52.4528C131.359 52.4528 131.727 52.3888 132.079 52.2608C132.447 52.1168 132.807 51.9328 133.159 51.7088L134.503 53.9888C133.959 54.3088 133.367 54.5648 132.727 54.7568C132.103 54.9488 131.495 55.0448 130.903 55.0448ZM138.142 35.9408H141.19V54.7808H138.142V35.9408ZM154.153 37.2128C155.977 37.2128 157.417 37.5808 158.473 38.3168C159.529 39.0528 160.057 40.1568 160.057 41.6288C160.057 42.6688 159.809 43.5488 159.313 44.2688C158.817 44.9728 158.129 45.5088 157.249 45.8768C156.385 46.2448 155.385 46.4368 154.249 46.4528L153.745 44.7488C155.121 44.7648 156.345 44.9728 157.417 45.3728C158.489 45.7728 159.337 46.3408 159.961 47.0768C160.601 47.7968 160.921 48.6608 160.921 49.6688C160.921 50.5968 160.745 51.3888 160.393 52.0448C160.057 52.7008 159.601 53.2288 159.025 53.6288C158.465 54.0288 157.817 54.3248 157.081 54.5168C156.361 54.6928 155.617 54.7808 154.849 54.7808H149.185V37.2128H154.153ZM154.585 44.5328C155.353 44.5328 155.913 44.3088 156.265 43.8608C156.617 43.4128 156.793 42.8928 156.793 42.3008C156.793 41.6128 156.569 41.1008 156.121 40.7648C155.673 40.4288 155.073 40.2608 154.321 40.2608H152.329V44.5328H154.585ZM154.705 51.8528C155.521 51.8528 156.217 51.6768 156.793 51.3248C157.369 50.9728 157.657 50.4208 157.657 49.6688C157.657 49.1248 157.497 48.7008 157.177 48.3968C156.873 48.0928 156.473 47.8848 155.977 47.7728C155.497 47.6448 155.001 47.5808 154.489 47.5808H152.329V51.8528H154.705ZM163.137 35.9408H166.185V54.7808H163.137V35.9408ZM168.97 44.4368H172.018V54.7808H168.97V44.4368ZM168.898 40.7648C168.898 40.3168 169.074 39.9488 169.426 39.6608C169.794 39.3568 170.186 39.2048 170.602 39.2048C171.018 39.2048 171.394 39.3568 171.73 39.6608C172.082 39.9488 172.258 40.3168 172.258 40.7648C172.258 41.2288 172.082 41.6048 171.73 41.8928C171.394 42.1808 171.018 42.3248 170.602 42.3248C170.186 42.3248 169.794 42.1808 169.426 41.8928C169.074 41.6048 168.898 41.2288 168.898 40.7648ZM183.491 53.8448C183.027 54.2128 182.459 54.5088 181.787 54.7328C181.115 54.9408 180.443 55.0448 179.771 55.0448C178.619 55.0448 177.603 54.8288 176.723 54.3968C175.859 53.9648 175.187 53.3408 174.707 52.5248C174.227 51.7088 173.987 50.7328 173.987 49.5968C173.987 48.4608 174.243 47.4928 174.755 46.6928C175.267 45.8768 175.939 45.2528 176.771 44.8208C177.619 44.3888 178.515 44.1728 179.459 44.1728C180.371 44.1728 181.163 44.3008 181.835 44.5568C182.507 44.7968 183.083 45.1168 183.563 45.5168L182.075 47.4848C181.835 47.2928 181.515 47.1088 181.115 46.9328C180.715 46.7408 180.259 46.6448 179.747 46.6448C179.235 46.6448 178.771 46.7728 178.355 47.0288C177.955 47.2848 177.635 47.6368 177.395 48.0848C177.155 48.5328 177.035 49.0368 177.035 49.5968C177.035 50.1408 177.155 50.6448 177.395 51.1088C177.651 51.5568 178.003 51.9168 178.451 52.1888C178.915 52.4448 179.443 52.5728 180.035 52.5728C180.419 52.5728 180.771 52.5168 181.091 52.4048C181.427 52.2928 181.715 52.1328 181.955 51.9248L183.491 53.8448ZM185.346 54.7808V35.9408H188.394V54.7808H185.346ZM190.986 47.7968L195.69 54.7808H192.138L188.994 49.5248L190.986 47.7968ZM187.482 51.8048L187.17 48.9008L193.434 44.1968L195.282 45.8288L187.482 51.8048Z" fill="white"/>
</svg>
