<svg width="12" height="12" viewBox="0 0 12 12" fill="none" xmlns="http://www.w3.org/2000/svg">
<path d="M6.42703 1.75033C6.24312 1.41656 5.75688 1.41656 5.57297 1.75033C5.47279 1.93216 5.37668 2.11642 5.28474 2.30301C4.99525 2.89057 4.74723 3.50116 4.54439 4.13119C4.47501 4.3467 4.26884 4.49638 4.03288 4.50264C3.47605 4.51742 2.92023 4.56324 2.36907 4.64103C2.21166 4.66324 2.05508 4.68797 1.89939 4.71518C1.51226 4.78281 1.36699 5.2242 1.6419 5.4932C1.70461 5.55456 1.76785 5.61541 1.83161 5.67574C2.30844 6.12687 2.81459 6.54891 3.34702 6.93893C3.53065 7.07344 3.60614 7.30422 3.53596 7.51485C3.31607 8.17478 3.14589 8.85648 3.02972 9.55579C3.00642 9.69604 2.98529 9.837 2.96637 9.97863C2.91597 10.356 3.32024 10.6224 3.67115 10.4425C3.79641 10.3783 3.92056 10.3123 4.04356 10.2446C4.60793 9.93397 5.14825 9.58679 5.66112 9.20638C5.86018 9.05873 6.13982 9.05873 6.33888 9.20638C6.85175 9.58679 7.39207 9.93397 7.95644 10.2446C8.07944 10.3123 8.20359 10.3783 8.32885 10.4425C8.67976 10.6224 9.08403 10.356 9.03363 9.97863C9.01471 9.837 8.99358 9.69604 8.97028 9.55579C8.85411 8.85648 8.68393 8.17478 8.46404 7.51485C8.39386 7.30422 8.46935 7.07344 8.65298 6.93893C9.18541 6.54891 9.69156 6.12687 10.1684 5.67574C10.2322 5.61541 10.2954 5.55456 10.3581 5.4932C10.633 5.2242 10.4877 4.78281 10.1006 4.71518C9.94492 4.68797 9.78834 4.66324 9.63093 4.64103C9.07977 4.56324 8.52395 4.51742 7.96712 4.50264C7.73116 4.49638 7.52499 4.3467 7.45561 4.13119C7.25277 3.50116 7.00475 2.89057 6.71526 2.30301C6.62332 2.11642 6.52721 1.93216 6.42703 1.75033Z" fill="#3D3638" stroke="#3D3638" stroke-width="1.5" stroke-linecap="round" stroke-linejoin="round"/>
</svg>
