<svg width="24" height="24" viewBox="0 0 24 24" fill="none" xmlns="http://www.w3.org/2000/svg">
<g clip-path="url(#clip0_5918_51563)">
<path d="M9 19.5L6.75 22.5" stroke="white" stroke-width="1.5" stroke-linecap="round" stroke-linejoin="round"/>
<path d="M15 19.5L17.25 22.5" stroke="white" stroke-width="1.5" stroke-linecap="round" stroke-linejoin="round"/>
<path d="M4.5 12H19.5" stroke="white" stroke-width="1.5" stroke-linecap="round" stroke-linejoin="round"/>
<path d="M17.25 3H6.75C5.50736 3 4.5 4.00736 4.5 5.25V17.25C4.5 18.4926 5.50736 19.5 6.75 19.5H17.25C18.4926 19.5 19.5 18.4926 19.5 17.25V5.25C19.5 4.00736 18.4926 3 17.25 3Z" stroke="white" stroke-width="1.5" stroke-linecap="round" stroke-linejoin="round"/>
<path d="M8.25 17.25C9.07843 17.25 9.75 16.5784 9.75 15.75C9.75 14.9216 9.07843 14.25 8.25 14.25C7.42157 14.25 6.75 14.9216 6.75 15.75C6.75 16.5784 7.42157 17.25 8.25 17.25Z" fill="white"/>
<path d="M15.75 17.25C16.5784 17.25 17.25 16.5784 17.25 15.75C17.25 14.9216 16.5784 14.25 15.75 14.25C14.9216 14.25 14.25 14.9216 14.25 15.75C14.25 16.5784 14.9216 17.25 15.75 17.25Z" fill="white"/>
</g>
<defs>
<clipPath id="clip0_5918_51563">
<rect width="24" height="24" fill="white"/>
</clipPath>
</defs>
</svg>
