<svg width="24" height="24" viewBox="0 0 24 24" fill="none" xmlns="http://www.w3.org/2000/svg">
<g clip-path="url(#clip0_5918_51771)">
<path d="M6.57281 3H17.4272C17.5918 2.99999 17.7519 3.05414 17.8827 3.1541C18.0134 3.25406 18.1077 3.39428 18.1509 3.55313L20.25 11.25L18.1509 18.9469C18.1077 19.1057 18.0134 19.2459 17.8827 19.3459C17.7519 19.4459 17.5918 19.5 17.4272 19.5H6.57281C6.40819 19.5 6.24814 19.4459 6.11735 19.3459C5.98655 19.2459 5.89228 19.1057 5.84906 18.9469L3.75 11.25L5.84906 3.55313C5.89228 3.39428 5.98655 3.25406 6.11735 3.1541C6.24814 3.05414 6.40819 2.99999 6.57281 3Z" stroke="white" stroke-width="1.5" stroke-linecap="round" stroke-linejoin="round"/>
<path d="M12 19.5V12.75" stroke="white" stroke-width="1.5" stroke-linecap="round" stroke-linejoin="round"/>
<path d="M3.75 11.25L12 12.75L20.25 11.25" stroke="white" stroke-width="1.5" stroke-linecap="round" stroke-linejoin="round"/>
<path d="M9 8.25H15" stroke="white" stroke-width="1.5" stroke-linecap="round" stroke-linejoin="round"/>
<path d="M9 19.5L6.75 22.5" stroke="white" stroke-width="1.5" stroke-linecap="round" stroke-linejoin="round"/>
<path d="M15 19.5L17.25 22.5" stroke="white" stroke-width="1.5" stroke-linecap="round" stroke-linejoin="round"/>
</g>
<defs>
<clipPath id="clip0_5918_51771">
<rect width="24" height="24" fill="white"/>
</clipPath>
</defs>
</svg>
