<svg width="529" height="3" viewBox="0 0 529 3" fill="none" xmlns="http://www.w3.org/2000/svg">
<path d="M484.587 1.51092C485.781 1.52189 481.795 1.52555 484.442 1.53898C483.89 1.54253 483.334 1.5462 482.783 1.54986C482.643 1.54176 482.499 1.53362 482.359 1.52537C483.1 1.52042 483.842 1.51559 484.587 1.51088C484.587 1.51089 484.587 1.51091 484.587 1.51092ZM485.599 1.40647C484.92 1.4297 482.762 1.44025 485.093 1.45796C485.278 1.44959 485.468 1.44133 485.653 1.43317C486.463 1.43825 487.277 1.44296 488.087 1.44731C488.378 1.44396 488.668 1.44066 488.959 1.43747C489.33 1.44959 489.698 1.46139 490.068 1.47283C489.739 1.47184 489.405 1.47079 489.076 1.46972C487.775 1.4831 486.617 1.48936 484.851 1.49627C485.006 1.49916 485.162 1.50198 485.317 1.5048C484.42 1.50188 483.524 1.4986 482.631 1.49497C483.407 1.48715 484.274 1.47881 484.992 1.4721C483.842 1.45254 481.814 1.46824 480.759 1.47573C479.321 1.48567 479.646 1.47332 478.579 1.48044C478.409 1.48158 478.39 1.49101 478.053 1.49195C476.355 1.49681 473.055 1.49841 474.985 1.471C477.781 1.46867 480.165 1.44755 482.908 1.44947C482.182 1.42735 483.627 1.41739 485.599 1.40647ZM434.241 1.59375C435.088 1.56864 436.813 1.57466 437.982 1.58731C437.983 1.58731 437.985 1.58731 437.986 1.5873C438.243 1.59017 438.826 1.61802 437.986 1.61907C436.617 1.62089 435.955 1.57472 435.236 1.6089C434.915 1.60364 434.577 1.59903 434.241 1.59375ZM431.265 1.60356C430.425 1.59322 430.806 1.5544 431.858 1.56268C431.858 1.56265 431.858 1.56262 431.858 1.56259C432.297 1.566 431.435 1.59713 433.009 1.56413C433.33 1.58659 433.647 1.60676 433.964 1.62804C433.579 1.62944 433.228 1.63098 432.823 1.63236C433.095 1.59365 432.105 1.61369 431.265 1.60356ZM473.566 1.48552C473.434 1.50543 473.987 1.50423 474.928 1.51515C474.04 1.51682 473.151 1.51841 472.265 1.52C472.7 1.50824 473.131 1.49678 473.566 1.48552ZM494.449 1.44611C494.45 1.44611 494.452 1.44611 494.453 1.4461C494.744 1.44359 495.036 1.44112 495.324 1.43874C495.498 1.44265 495.67 1.44648 495.844 1.45025C496.873 1.44403 497.907 1.43817 498.936 1.43266C498.811 1.4444 496.964 1.44647 495.947 1.45779C494.434 1.45777 493.705 1.45147 493.606 1.44009C493.886 1.44215 494.165 1.44418 494.449 1.44611ZM246.983 1.51146C246.639 1.54205 246.299 1.57276 245.955 1.60357C246.412 1.61713 246.866 1.62735 247.328 1.64299C248.534 1.51 248.648 1.62673 250.229 1.61711C255.075 1.58724 253.789 1.39168 258.165 1.67781C254.652 1.66791 256.002 1.80278 253.884 1.9128C253.445 1.83231 255.544 1.64777 254.121 1.61147C251.67 1.69907 249.313 1.78308 246.594 1.84434C246.673 1.85856 246.752 1.87282 246.832 1.88701C247.263 1.87719 247.691 1.86735 248.122 1.85761C247.657 1.89662 247.202 1.93547 246.729 1.97531C247.327 1.88697 245.803 1.93869 246.007 1.83788C246.098 1.793 246.771 1.73012 247.168 1.68719C246.143 1.66519 245.092 1.64491 244.056 1.62309C244.593 1.58677 245.129 1.55062 245.663 1.5147C246.101 1.51338 246.536 1.51239 246.975 1.51107C246.978 1.5112 246.98 1.51133 246.983 1.51146ZM26.3655 2.44285C27.6668 2.25511 30.0317 2.22174 31.2763 2.42278C29.6383 2.42934 28.0035 2.43623 26.3655 2.44285ZM493.507 1.43074C493.655 1.4327 493.798 1.43462 493.945 1.43653C493.294 1.44165 492.64 1.44698 491.989 1.45256C491.865 1.44622 491.737 1.43982 491.608 1.43338C492.24 1.4325 492.876 1.43163 493.507 1.43074ZM451.886 1.5102C452.362 1.50854 452.404 1.50893 452.997 1.50984C452.996 1.50983 452.996 1.50982 452.995 1.50981C453.23 1.51018 455.196 1.51445 454.977 1.52503C454.001 1.52717 452.96 1.52909 451.961 1.5311C451.931 1.52415 451.924 1.51721 451.886 1.5102ZM463.375 1.4955C463.376 1.49552 463.378 1.49554 463.379 1.49556C463.734 1.49629 464.071 1.49844 464.437 1.49824C463.118 1.51499 462.909 1.48977 461.71 1.49922C460.511 1.50875 459.77 1.52575 458.752 1.49001C459.131 1.48377 459.538 1.47518 459.928 1.46822C461.63 1.48058 462.088 1.46586 463.454 1.45055C463.427 1.46555 463.402 1.48047 463.375 1.4955ZM268.558 1.78439C268.883 1.71472 269.246 1.78206 269.283 1.78277C269.283 1.78285 269.282 1.78294 269.281 1.78302C272.163 1.71481 268.906 1.82187 271.626 1.82787C271.221 1.84568 270.823 1.86451 270.422 1.88267C269.802 1.85075 269.163 1.81418 268.558 1.78439ZM362.184 1.64177C362.211 1.65462 362.243 1.66749 362.269 1.68033C360.635 1.68014 360.218 1.73258 358.86 1.68812C359.968 1.67227 361.076 1.65679 362.184 1.64162C362.184 1.64167 362.184 1.64172 362.184 1.64177ZM443.649 1.47669C445.461 1.46195 446.801 1.45589 448.542 1.47267C448.543 1.4727 448.544 1.47272 448.546 1.47274C448.646 1.47376 448.161 1.48738 448.292 1.49049C448.651 1.48804 449.021 1.48455 449.384 1.48178C449.434 1.49199 449.48 1.50219 449.53 1.5123C448.508 1.51114 447.486 1.50988 446.461 1.5085C446.613 1.51449 446.768 1.52038 446.919 1.5263C446.049 1.53109 445.182 1.53596 444.312 1.54095C444.615 1.52244 444.917 1.50411 445.215 1.48593C444.694 1.48289 444.171 1.47993 443.649 1.47669ZM334.977 1.5209C335.265 1.53702 334.732 1.56497 335.179 1.57861C335.625 1.59201 336.448 1.56075 336.255 1.60688C335.654 1.61376 335.023 1.62166 334.411 1.62899C336.382 1.70952 338.348 1.63152 338.378 1.73272C336.487 1.71001 334.931 1.72459 333.1 1.75695C333.176 1.67398 335.007 1.60106 333.854 1.52515C334.225 1.5238 334.614 1.52195 334.973 1.52108C334.974 1.52102 334.976 1.52096 334.977 1.5209ZM519.981 1.34507C521.101 1.34935 523.666 1.35842 525.081 1.36458C525.429 1.36632 526.589 1.3719 526.583 1.37186C526.549 1.37228 525.133 1.36945 526.65 1.37317C526.139 1.37211 525.644 1.37112 525.138 1.3701C525.228 1.37107 525.319 1.37197 525.406 1.3728C526.022 1.37353 526.64 1.37432 527.256 1.37518C527.287 1.37532 527.317 1.37545 527.347 1.37557C525.13 1.37289 526.439 1.37497 525.289 1.37489C526.348 1.37603 527.415 1.37671 528.47 1.37695C527.861 1.37681 527.142 1.37662 526.605 1.37644C526.533 1.37722 527.815 1.37696 528.035 1.377C529.272 1.37685 522.974 1.37816 522.459 1.38226C523.465 1.38176 524.52 1.38101 525.549 1.38009C525.254 1.38061 524.955 1.38121 524.66 1.38186C522.326 1.3832 519.709 1.38401 516.989 1.38269C516.744 1.383 516.497 1.38333 516.255 1.38365C516.327 1.3858 516.395 1.38791 516.467 1.38999C516.096 1.39064 515.721 1.39133 515.35 1.39203C516.443 1.38328 514.93 1.38523 513.102 1.38012C514.075 1.37682 515.274 1.37861 515.191 1.37347C511.855 1.3775 507.948 1.36889 504.702 1.37578C503.896 1.37768 503.899 1.38996 502.005 1.38983C502.069 1.38835 502.08 1.38573 502.122 1.38382C498.846 1.39089 496.858 1.39788 493.453 1.39092C493.65 1.39712 493.843 1.40324 494.04 1.40923C494.762 1.40548 495.486 1.40187 496.205 1.39851C496.697 1.40764 495.97 1.41254 498.126 1.41008C499.893 1.40808 498.841 1.40537 499.321 1.40234C499.972 1.39837 500.543 1.40451 501.243 1.40018C501.784 1.39696 501.198 1.39079 502.609 1.39164C502.042 1.40014 501.463 1.40948 500.892 1.41919C500.548 1.41775 500.206 1.41621 499.862 1.4146C500.21 1.41172 500.552 1.40897 500.9 1.40626C499.674 1.41177 498.516 1.41745 497.249 1.42428C497.661 1.40951 496.352 1.41637 495.64 1.41911C494.532 1.42334 495.482 1.41167 494.755 1.41425C494.029 1.41674 493.246 1.43013 491.933 1.42942C492.636 1.42107 491.68 1.41564 491.864 1.4085C492.05 1.40137 493.438 1.39924 492.104 1.39248C489.54 1.39968 492.323 1.42418 490.59 1.43054C488.51 1.43944 488.015 1.39256 488.635 1.38239C489.123 1.37448 490.802 1.37608 491.294 1.36885C488.287 1.35429 488.26 1.38184 487.746 1.38774C485.877 1.40909 487.132 1.35306 484.92 1.3732C484.961 1.36236 484.995 1.35263 485.036 1.34229C484.655 1.34396 484.401 1.34643 483.94 1.34773C485.3 1.3699 484.187 1.36836 483.615 1.36838C482.715 1.36833 484.106 1.37912 483.867 1.38178C483.224 1.38916 482.207 1.38617 482.831 1.39573C482.551 1.3913 482.248 1.38678 481.96 1.38223C480.908 1.38735 478.436 1.44047 480.789 1.42782C480.569 1.44648 479.808 1.43873 479.214 1.43649C478.621 1.43428 478.632 1.44652 478.11 1.44496C476.033 1.43849 477.391 1.41479 477.721 1.39818C474.978 1.4113 477.663 1.41715 473.711 1.42885C473.329 1.44418 475.155 1.45704 473.634 1.46788C473.354 1.44282 472.234 1.42552 470.052 1.4179C469.84 1.42432 469.629 1.43086 469.417 1.43742C468.225 1.41317 468.834 1.38491 466.629 1.41896C467.813 1.35782 466.999 1.39736 465.024 1.37219C464.623 1.36697 465.55 1.35431 464.99 1.34755C464.736 1.34443 464.12 1.35408 463.5 1.34611C463.197 1.34233 461.783 1.31613 460.803 1.32739C461.521 1.35965 459.66 1.38738 461.256 1.41345C458.305 1.40858 456.24 1.42452 459.547 1.37869C458.798 1.36877 458.048 1.35857 457.299 1.34807C456.777 1.35594 456.25 1.36392 455.725 1.37209C455.645 1.34363 455.725 1.33558 453.668 1.33961C454.561 1.33315 455.449 1.32681 456.345 1.32079C456.376 1.31511 456.5 1.30931 456.47 1.30376C455.373 1.31341 452.282 1.31577 451.533 1.3233C450.784 1.33085 452.231 1.33393 452.015 1.34151C450.219 1.4051 450.361 1.35804 449.072 1.36886C448.315 1.37558 450.122 1.38284 449.717 1.38566C448.216 1.39645 447.52 1.36094 446.189 1.36002C446.662 1.3808 447.131 1.40154 447.592 1.4218C446.196 1.42152 444.64 1.42205 443.343 1.4297C442.833 1.43271 443.218 1.44842 443.135 1.44954C442.722 1.45532 441.043 1.4658 440.865 1.46608C439.526 1.46762 439.488 1.44464 438.188 1.44428C438.698 1.44192 439.178 1.43981 439.678 1.43759C439.904 1.40016 440.136 1.36302 440.363 1.32609C439.088 1.32267 437.813 1.31918 436.535 1.31552C437.469 1.32903 438.407 1.34209 439.341 1.35482C437.881 1.38469 436.42 1.41611 434.96 1.44902C434.2 1.43013 433.443 1.41076 432.682 1.39091C430.617 1.39623 431.033 1.47935 430.053 1.40702C429.445 1.41337 428.836 1.41984 428.227 1.42634C428.314 1.4157 428.4 1.40506 428.487 1.39448C427.753 1.40111 427.02 1.40783 426.286 1.41483C427.057 1.45281 427.814 1.49189 428.578 1.52704C427.133 1.53745 427.106 1.50534 426.89 1.49752C426.319 1.47675 425.185 1.50709 424.731 1.48753C424.578 1.48068 425.993 1.45789 425.505 1.43348C425.41 1.42917 423.515 1.33697 422.306 1.3579C422.329 1.37495 422.422 1.39584 422.471 1.41433C420.845 1.42569 420.016 1.33501 420.232 1.30952C419.365 1.32681 418.099 1.32781 417.921 1.35619C417.479 1.3568 417.04 1.35738 416.597 1.35801C417.058 1.28837 415.212 1.29963 415.091 1.36079C415.851 1.36241 416.613 1.36408 417.373 1.36563C416.798 1.43894 419.109 1.48302 414.301 1.41632C413.382 1.37737 415.935 1.4212 415.186 1.3922C413.885 1.37528 412.663 1.38986 411.426 1.36189C409.887 1.32665 411.781 1.29284 408.194 1.33675C416.105 1.45019 407.11 1.41304 403.395 1.45249C402.373 1.33619 399.236 1.29436 394.915 1.32966C395.366 1.36471 396.725 1.34698 397.508 1.35847C398.291 1.36979 397.444 1.39012 398.419 1.40587C399.395 1.42161 401.467 1.44206 402.455 1.46459C401.618 1.48353 397.489 1.53271 400.219 1.4761C398.181 1.44439 397.224 1.40958 394.698 1.40355C393.941 1.45839 393.997 1.49267 391.535 1.49647C392.991 1.41829 390.193 1.36509 390.809 1.28413C392.555 1.30397 391.579 1.38132 392.589 1.41828C392.693 1.4219 394.32 1.4022 394.698 1.40355C393.056 1.33538 392.488 1.30805 393.498 1.2269C392.337 1.23285 391.614 1.2216 391.508 1.26132C391.266 1.24385 391.023 1.22627 390.785 1.20862C390.407 1.20859 390.066 1.20979 389.666 1.20898C390.218 1.2704 389.148 1.23177 388.388 1.25888C387.627 1.28625 388.648 1.33529 386.559 1.33535C387.255 1.35011 387.892 1.36261 388.565 1.3762C387.219 1.39198 385.868 1.40831 384.521 1.42499C385.467 1.46348 387.516 1.51806 387.46 1.56758C386.84 1.54953 384.715 1.58563 384.483 1.5875C383.583 1.59403 384.073 1.56119 384.005 1.5605C382.591 1.54659 381.425 1.55916 380.888 1.50999C379.826 1.53344 379.024 1.52149 377.897 1.52382C377.276 1.52511 377.397 1.56239 377.034 1.55572C374.62 1.51111 376.92 1.45829 372.264 1.55753C372.828 1.58379 373.384 1.61039 373.948 1.63631C373.422 1.64724 372.899 1.65832 372.373 1.66946C372.021 1.66523 371.673 1.66092 371.321 1.65662C371.328 1.59789 371.337 1.53905 371.345 1.48034C370.959 1.4774 370.572 1.47452 370.186 1.47153C370.848 1.4653 371.511 1.45916 372.173 1.45308C372.234 1.44278 372.29 1.43248 372.351 1.4222C371.367 1.40659 370.387 1.39053 369.404 1.37419C369.385 1.39486 369.366 1.41569 369.347 1.43638C367.13 1.40843 367.078 1.38974 364.97 1.44896C363.348 1.44878 362.026 1.53963 361.088 1.57926C360.751 1.56748 360.414 1.55546 360.074 1.54354C359.858 1.56195 359.64 1.58036 359.425 1.59892C358.997 1.57406 358.564 1.54901 358.136 1.52389C357.898 1.58222 357.775 1.60083 359.443 1.61873C358.872 1.69129 355.935 1.66509 354.74 1.64191C353.833 1.62441 354.839 1.56138 354.725 1.55412C354.347 1.52905 352.852 1.55246 352.538 1.54855C351.21 1.53201 350.28 1.53594 349.081 1.52292C348.847 1.52034 348.195 1.48039 348.139 1.47912C347.708 1.47248 346.644 1.45318 346.523 1.45263C340.278 1.42477 346.95 1.59965 341.144 1.58666C341.318 1.61052 341.478 1.63417 341.648 1.6579C341.209 1.66003 340.766 1.66209 340.328 1.66424C339.771 1.64487 340.444 1.60709 339.34 1.63831C339.412 1.60829 339.484 1.57828 339.559 1.54847C339.079 1.56504 338.616 1.58158 338.124 1.5984C337.352 1.49496 334.535 1.47209 334.735 1.34692C334.803 1.30423 336.801 1.26209 335.745 1.21629C334.888 1.20667 335.468 1.25774 335.118 1.26016C332.591 1.27735 332.738 1.20556 331.705 1.22392C331.543 1.25476 331.372 1.28627 331.205 1.31758C330.816 1.30835 330.425 1.29906 330.032 1.28972C329.941 1.31067 329.847 1.33166 329.756 1.35266C330.123 1.35411 330.536 1.35557 330.873 1.357C330.403 1.43753 326.092 1.47648 327.736 1.40574C328.405 1.37716 329.632 1.38942 328.857 1.29271C327.703 1.30613 326.394 1.32006 325.18 1.33398C325.142 1.31279 325.107 1.29156 325.069 1.27034C323.432 1.28328 324.921 1.36901 324.918 1.41423C324.543 1.41557 324.165 1.41676 323.791 1.41812C323.632 1.39749 323.481 1.37585 323.315 1.35576C323.3 1.38867 323.09 1.46544 321.974 1.43728C321.257 1.41876 322.387 1.33497 321.019 1.34642C321.121 1.39851 321.615 1.46137 320.091 1.47893C319.94 1.42451 319.731 1.37453 319.614 1.31708C317.719 1.36945 316.856 1.28382 314.632 1.34548C313.221 1.38422 311.288 1.52827 310.377 1.30778C309.344 1.30162 309.672 1.35683 309.367 1.3692C307.925 1.42817 306.853 1.32244 306.585 1.3159C304.872 1.27511 304.104 1.31202 302.708 1.2604C302.784 1.3027 302.825 1.3427 302.885 1.38387C304.164 1.32065 304.812 1.32418 306.605 1.33784C306.003 1.34608 305.402 1.35457 304.8 1.36294C304.899 1.39693 304.996 1.43088 305.091 1.4646C310.637 1.33097 309.343 1.53781 304.694 1.58871C304.293 1.52617 303.877 1.46346 303.48 1.40007C300.794 1.49673 299.53 1.414 296.493 1.39329C296.132 1.39091 294.816 1.42881 294.251 1.43088C294.26 1.43113 294.27 1.43138 294.279 1.43163C293.928 1.49395 294.404 1.52241 294.461 1.57785C294.154 1.58508 293.848 1.5923 293.541 1.59958C292.857 1.5577 293.098 1.52242 291.751 1.53348C291.933 1.57601 292.112 1.61844 292.293 1.66077C290.818 1.66413 289.853 1.61849 288.479 1.64019C288.71 1.62358 288.938 1.60698 289.169 1.59046C286.18 1.5513 288.559 1.29426 286.3 1.42208C286.156 1.39973 286.016 1.37713 285.873 1.3547C286.803 1.34927 287.734 1.34408 288.661 1.33878C288.68 1.30742 288.7 1.27621 288.715 1.24487C287.72 1.25371 286.72 1.26296 285.726 1.27204C286.452 1.25106 287.182 1.23024 287.909 1.20964C286.755 1.19376 285.601 1.17766 284.447 1.16135C285.673 1.27942 284.084 1.29278 284.383 1.40925C282.34 1.31312 280.735 1.18163 277.569 1.26353C276.941 1.27987 277.282 1.3641 275.501 1.26119C275.932 1.39494 273.7 1.45834 273.987 1.58661C274.607 1.57992 275.25 1.57554 275.851 1.56757C275.167 1.52402 275.053 1.40194 276.093 1.36604C277.421 1.3205 279.358 1.40391 279.278 1.27098C279.808 1.27745 280.3 1.28131 280.815 1.28673C280.603 1.31942 280.396 1.3524 280.188 1.38526C281.651 1.33377 282.571 1.35104 283.274 1.43261C281.53 1.45183 279.79 1.47125 278.047 1.49106C278.304 1.49663 278.564 1.50222 278.821 1.50755C277.501 1.59362 278.862 1.67308 276.4 1.69443C276.415 1.65513 276.427 1.61581 276.442 1.57632C275.545 1.68199 273.091 1.68496 273.874 1.80593C273.132 1.76969 272.981 1.74593 272.561 1.81275C270.605 1.72304 269.349 1.60429 270.045 1.46176C269.319 1.48487 268.593 1.5082 267.87 1.5317C268.29 1.57063 268.71 1.6092 269.13 1.64776C267.867 1.64664 266.594 1.64553 265.334 1.64455C265.213 1.52757 267.766 1.60708 267.03 1.50357C266.882 1.48275 266.202 1.52786 266.024 1.51618C264.14 1.3891 267.097 1.48039 266.542 1.38293C263.735 1.35289 265.981 1.18766 262.115 1.32582C262.013 1.29159 261.903 1.25662 261.808 1.22253C260.466 1.21965 260.575 1.29739 259.421 1.31188C258.699 1.32109 257.792 1.18276 256.994 1.27643C256.852 1.29396 258.194 1.4624 255.373 1.45585C253.184 1.45069 254.095 1.32972 252.912 1.2865C251.728 1.24253 249.019 1.41234 248.221 1.21841C248.841 1.24444 249.631 1.25859 250.319 1.27974C250.599 1.24236 250.872 1.2055 251.148 1.16857C249.574 1.21585 247.947 1.1573 246.888 1.24706C244.789 1.10714 242.44 1.2345 243.076 1.39349C243.767 1.37065 243.015 1.30172 243.975 1.34573C244.074 1.38251 244.177 1.41907 244.276 1.45578C242.641 1.45182 241.506 1.45298 242.252 1.34012C241.998 1.33739 241.747 1.33467 241.494 1.33193C241.448 1.41375 241.408 1.49591 241.362 1.57781C241.06 1.58724 240.756 1.59663 240.453 1.60612C240.117 1.58835 239.78 1.57031 239.439 1.55218C239.897 1.42141 240.677 1.41774 238.097 1.34441C238.089 1.38968 238.078 1.43476 238.07 1.48004C235.91 1.42323 235.853 1.3124 233.141 1.31589C235.222 1.15737 236.36 1.4389 236.353 1.12156C236.875 1.14284 237.401 1.16429 237.923 1.18534C238.003 1.13965 238.081 1.09393 238.157 1.0483C235.354 1.06742 230.698 1.37296 228.821 1.16716C228.594 1.19211 228.367 1.21382 228.136 1.24077C226.297 1.11468 225.503 1.39605 223.638 1.23267C223.446 1.21534 223.849 0.949603 221.421 0.955597C221.481 0.99056 221.513 1.04929 221.562 1.09331C221.036 1.07144 220.513 1.04846 219.991 1.02588C219.897 1.05814 219.798 1.09042 219.703 1.12298C220.6 1.13629 221.494 1.1497 222.39 1.1628C221.645 1.1733 220.896 1.18389 220.151 1.19456C221.123 1.24799 221.561 1.24847 220.975 1.33283C220.132 1.33777 219.287 1.34306 218.443 1.34808C218.356 1.3699 218.27 1.39199 218.183 1.41385C218.592 1.47893 219.004 1.54233 219.413 1.60787C217.215 1.55629 215.304 1.55482 213.617 1.4253C213.329 1.40339 214.346 1.31714 212.387 1.39497C212.357 1.34919 212.304 1.312 212.27 1.26965C209.872 1.39737 209.084 1.36023 206.583 1.26505C208.202 1.35341 206.758 1.29579 206.345 1.34294C206.063 1.37544 207.166 1.37067 207.041 1.40463C206.916 1.43819 205.483 1.57553 206.708 1.5912C209.712 1.31137 210.53 1.6428 214.389 1.50832C213.795 1.54375 213.197 1.57946 212.603 1.61529C212.883 1.63906 213.133 1.66058 213.436 1.68568C211.283 1.6341 212.33 1.66785 211.446 1.71121C210.561 1.75457 208.952 1.79293 207.874 1.80621C207.534 1.81036 207.892 1.74744 207.126 1.74249C206.604 1.73891 205.177 1.83408 204.848 1.7243C204.632 1.65235 206.924 1.45452 203.755 1.45577C203.158 1.38526 204.678 1.40703 204.711 1.39855C204.987 1.31507 203.039 1.25123 202.138 1.31536C202.065 1.32095 202.776 1.38661 202.003 1.41246C200.168 1.47443 199.109 1.39931 197.921 1.29563C197.792 1.41649 196.248 1.56238 194.326 1.51825C194.228 1.55335 194.134 1.58878 194.036 1.6242C194.334 1.60541 194.633 1.58692 194.931 1.56823C195.257 1.58999 195.601 1.60571 195.919 1.63126C193.986 1.66262 193.713 1.83208 192.786 1.89557C189.615 2.11353 191.537 1.65956 192.109 1.58228C192.521 1.61338 192.92 1.64802 193.328 1.68046C193.283 1.63771 193.237 1.59462 193.195 1.55157C188.448 1.55511 192.472 1.27313 190.063 1.19239C189.442 1.40438 187.672 1.42653 185.418 1.28938C185.168 1.29039 184.918 1.29061 184.668 1.29189C184.626 1.32337 184.627 1.37151 184.559 1.39227C181.843 1.42966 181.359 1.09375 181.102 1.06154C179.959 0.918976 179.07 1.11395 178.733 1.11561C177.314 1.12151 176.902 1.03331 175.552 1.06987C174.099 1.1096 175.093 1.17818 174.651 1.23858C174.296 1.28663 173.15 1.29494 172.677 1.34513C172.865 1.30407 173.074 1.26386 173.262 1.22278C171.756 1.16622 170.526 1.11041 168.817 1.09524C166.887 1.39888 165.246 0.882455 165.912 1.30165C167.531 1.33065 168.436 1.37832 169.302 1.48387C168.24 1.49769 167.176 1.51127 166.113 1.52533C165.803 1.47948 165.583 1.43468 165.216 1.38776C164.422 1.48572 162.58 1.44416 161.857 1.47322C158.472 1.60997 159.519 1.78161 156.429 1.49613C158.656 1.46734 158.653 1.32885 160.862 1.34815C160.385 1.24965 159.262 1.26949 159.989 1.15148C157.852 1.17937 158.542 1.28587 157.711 1.38011C156.993 1.46148 155.549 1.46652 155.63 1.57285C155.483 1.51447 155.368 1.45788 155.221 1.39944C153.837 1.40011 152.452 1.40023 151.068 1.40091C151.658 1.33909 152.248 1.27746 152.838 1.21651C152.392 1.1931 151.945 1.16969 151.5 1.14611C148.095 1.33785 142.224 0.977589 143.162 1.47047C141.52 1.4866 141.315 1.42477 140.422 1.33078C140.324 1.36845 140.228 1.3998 140.13 1.44179C139.071 1.40232 138.258 1.54463 137.323 1.50803C136.389 1.47161 136.157 1.33635 136.021 1.56358C135.416 1.4987 134.814 1.44458 134.213 1.38377C133.85 1.43562 133.487 1.48701 133.128 1.53884C132.561 1.51182 131.992 1.4848 131.425 1.45755C131.121 1.56735 128.89 1.5208 127.907 1.59556C126.973 1.47682 126.999 1.10003 124.802 1.16631C124.859 1.26023 124.915 1.35383 124.972 1.44767C124.469 1.42817 123.964 1.40865 123.458 1.389C123.427 1.35826 123.401 1.32751 123.371 1.29675C123.628 1.30632 123.882 1.31582 124.139 1.32566C123.916 1.27369 123.697 1.22188 123.478 1.16974C122.71 1.24642 121.941 1.32355 121.17 1.40111C122.21 1.45974 123.25 1.51796 124.29 1.57569C122.985 1.64551 122.077 1.57689 120.942 1.65509C119.955 1.52481 120.319 1.44874 120.72 1.30677C120.353 1.31884 119.982 1.33052 119.615 1.34266C119.857 1.20026 119.237 1.11501 121.381 1.12786C121.234 1.0873 121.083 1.04858 120.94 1.00635C120.588 1.01242 120.36 0.977919 119.974 0.993202C118.922 1.0349 118.116 1.28564 118.188 1.37381C118.227 1.4199 119.264 1.33181 119.222 1.39688C119.12 1.55529 116.741 1.48568 120.172 1.64298C119.033 1.74458 118.779 1.66889 117.523 1.64034C117.621 1.69335 117.716 1.74599 117.811 1.79893C117.229 1.7751 116.646 1.75124 116.063 1.72719C116.873 1.4541 112.579 1.34966 116.444 1.1117C115.302 1.0987 114.164 1.08554 113.025 1.07169C113.26 1.04356 113.494 1.01576 113.729 0.987718C114.243 1.00314 114.754 1.01827 115.269 1.03326C114.664 0.981305 114.058 0.929431 113.452 0.877029C112.023 0.939365 111.462 1.03779 110.808 1.15978C112.472 1.24977 111.928 1.12766 113.225 1.10445C113.179 1.18147 113.239 1.25235 113.126 1.33328C112.456 1.17348 110.27 1.28895 109.763 1.29695C108.221 1.32058 109.43 1.16255 108.398 1.15872C107.366 1.15473 106.148 1.24935 105.304 1.09045C105.319 1.17928 105.387 1.27118 105.447 1.35202C103.839 1.38117 104.16 1.27599 103.994 1.26232C101.338 1.03685 99.897 1.22526 96.8592 1.24823C97.245 1.2764 97.6348 1.30178 98.0244 1.32812C95.7327 1.5201 97.2765 1.46163 99.2662 1.52415C97.4012 1.50543 96.3331 1.66956 95.0166 1.71964C93.7003 1.76961 91.4428 1.68679 90.6178 1.62057C92.5056 1.51273 94.5416 1.58236 96.6374 1.55218C96.3992 1.45995 96.1676 1.38178 95.9218 1.28012C94.6471 1.47419 93.9084 1.34448 93.4885 1.31836C92.2556 1.24205 92.2943 1.41016 91.5492 1.22909C91.5795 1.29136 91.6016 1.34371 91.6318 1.40186C89.086 1.3764 86.3399 1.26383 84.6829 1.49758C84.5316 1.34571 84.4174 1.19928 84.2434 1.04398C83.1654 1.15779 82.2422 1.03981 81.3344 1.06596C80.4302 1.09233 80.7744 1.21634 79.7115 1.26385C79.5148 1.27262 79.1051 1.19468 78.6209 1.25194C78.132 1.30899 76.3287 1.74081 76.1131 1.36387C75.2014 1.36208 74.3387 1.34822 73.446 1.34173C74.316 1.32041 75.1863 1.29988 76.0526 1.27881C75.3112 1.18723 74.5744 1.09547 73.833 1.00299C73.7384 1.08482 73.6436 1.16819 73.5528 1.24906C71.5554 1.34858 70.1059 1.21376 68.0896 1.24497C67.7529 1.25032 68.5472 1.41439 67.0534 1.37256C65.5592 1.33101 64.4503 1.02181 61.9046 1.13974C61.776 1.14574 61.0222 1.38362 60.1104 1.21845C59.903 1.18092 60.7762 1.12602 60.2999 1.07664C59.8233 1.02724 57.6965 0.985064 57.53 0.867099C57.5527 0.908801 57.6854 0.952104 57.7498 0.994546C57.3867 1.01416 57.0199 1.03383 56.6531 1.05316C56.619 0.979595 56.5823 0.905906 56.5483 0.832681C54.4601 1.00121 53.3809 1.28253 50.2867 1.18817C51.1568 1.29676 52.0271 1.40519 52.8933 1.51259C53.1317 1.4369 53.3704 1.36081 53.605 1.28535C55.0309 1.31575 56.4609 1.34566 57.8869 1.37552C58.1214 1.29037 58.3518 1.20559 58.5864 1.12069C58.9646 1.13193 59.3391 1.14281 59.7173 1.154C59.6228 1.21528 59.5274 1.27626 59.4291 1.33761C60.1779 1.32261 60.9277 1.30736 61.6728 1.29251C60.1559 1.6535 57.4367 1.26132 57.6328 1.56497C57.2963 1.51792 56.9594 1.47044 56.6229 1.42282C56.4753 1.57058 55.791 1.52841 54.5847 1.50533C54.8609 1.57838 55.1659 1.65029 55.4193 1.72384C54.2466 1.62165 52.1663 1.63262 50.952 1.59322C50.4187 1.57587 50.9514 1.46719 50.7927 1.4545C49.9794 1.38782 48.4248 1.57797 48.0994 1.56322C46.155 1.47493 44.8915 1.11067 42.7692 1.35034C44.9596 1.40967 43.768 1.38467 44.5473 1.51766C44.7913 1.55943 47.621 1.64483 44.0776 1.60797C43.6622 1.60427 37.2327 1.35186 39.3462 1.15697C38.3058 1.21857 37.4913 1.29036 36.5379 1.35659C34.2076 0.83957 35.0141 1.32542 35.6912 1.59239C35.3092 1.59372 34.9457 1.59659 34.5522 1.59677C35.3883 1.31583 31.1289 1.2971 29.6837 1.44064C29.1995 1.48847 30.5534 1.57887 29.4337 1.62233C28.9006 1.60267 28.2957 1.57708 27.7323 1.55493C28.5494 1.73484 26.9458 1.80537 26.9682 1.98935C25.9431 1.82701 25.159 1.47862 25.7224 1.28996C24.8751 1.36619 24.0235 1.44273 23.1762 1.52014C23.5697 1.56396 23.9682 1.60729 24.3616 1.65091C21.5924 1.53543 18.0318 1.80446 17.4529 1.41128C17.086 1.41411 16.7151 1.41656 16.3482 1.4194C16.2347 1.486 16.125 1.55277 16.0115 1.61946C14.3512 1.56246 12.6945 1.5045 11.0342 1.44637C12.5126 1.40436 12.8645 1.30921 14.4149 1.38655C13.8174 1.30968 13.2089 1.23212 12.6227 1.15472C10.2886 1.36154 9.97021 1.49981 6.45594 1.43782C6.29705 1.43519 3.64175 1.25829 3.55096 1.24077C3.13499 1.16167 3.76641 1.04725 3.58119 1.00728C3.0667 0.895582 -0.0596619 0.609726 0.000867262 0.566791C0.765057 0.0432435 11.2838 0.065341 14.1286 0.0462424C43.6363 -0.137605 72.4941 0.286318 101.816 0.297746C102.118 0.29771 101.986 0.235045 102.115 0.232717C102.913 0.219283 103.697 0.31819 103.992 0.322857C104.622 0.332637 104.275 0.2425 104.736 0.243666C109.495 0.257633 113.986 0.32075 118.748 0.318052C119.059 0.317887 118.742 0.38606 119.287 0.375205C119.568 0.369162 120.448 0.265907 121.083 0.266121C123.3 0.266813 125.162 0.305341 127.5 0.309921C128.778 0.312401 130.697 0.326243 132.126 0.328458C132.758 0.32944 133.415 0.284489 134.039 0.284687C134.925 0.285001 134.744 0.378805 134.88 0.385016C135.478 0.412065 135.56 0.308917 136.128 0.312945C137.183 0.32075 137.24 0.389576 138.579 0.387134C139.536 0.385209 141.727 0.337132 142.934 0.324812C145.756 0.410878 149.312 0.388416 151.945 0.370277C153.504 0.359496 153.648 0.452037 154.284 0.453277C156.523 0.456804 158.222 0.344759 160.325 0.347104C163.117 0.350231 165.59 0.432592 168.294 0.444769C168.733 0.446741 168.632 0.36543 169.062 0.364572C170.655 0.361424 172.692 0.352705 174.11 0.368151C175.691 0.385278 176.275 0.50192 177.822 0.482386C178.275 0.476594 178.408 0.376555 179.168 0.36593C180.383 0.34936 181.714 0.441026 182.561 0.452931C183.723 0.469033 182.713 0.365391 184.279 0.383425C184.343 0.384205 184.578 0.456679 184.914 0.454137C185.894 0.44707 185.796 0.390498 187.23 0.399984C187.368 0.401209 189.269 0.47412 189.458 0.474799C190.57 0.478875 192.809 0.508152 193.468 0.495683C195.821 0.451498 193.968 0.342445 195.969 0.574457C196.851 0.521121 197.725 0.467451 198.659 0.416706C198.035 0.464957 200.565 0.543505 200.743 0.539197C202.214 0.505787 201.338 0.416861 203.203 0.436547C200.74 0.629346 205.608 0.468439 206.694 0.467006C211.922 0.457715 216.674 0.519548 221.929 0.532462C223.688 0.536712 226.045 0.504056 227.906 0.510468C228.34 0.511772 228.012 0.554384 228.394 0.556372C228.775 0.558065 228.352 0.508069 228.787 0.5119C231.492 0.537027 233.611 0.632483 236.089 0.527034C236.209 0.543607 236.206 0.556417 236.405 0.574772C238.433 0.480482 242.338 0.625753 243.806 0.64691C246.102 0.680683 246.688 0.616538 248.356 0.634251C250.561 0.658011 253.873 0.791238 252.394 0.58068C253.907 0.578542 255.363 0.581147 256.891 0.604442C257.061 0.607071 256.944 0.658464 257.012 0.659711C257.443 0.668256 257.584 0.622408 257.875 0.621115C258.665 0.617599 257.376 0.669324 258.502 0.656913C259.096 0.650235 259.433 0.611101 261.083 0.615005C271.024 0.639126 281.818 0.68363 292.009 0.717771C292.709 0.720093 292.248 0.675289 293.126 0.680659C296.175 0.699824 301.633 0.785782 304.262 0.782794C306.891 0.78028 306.298 0.718822 307.943 0.698927C308.261 0.695068 308.001 0.728119 308.288 0.729484C310.221 0.738457 312.526 0.796937 314.092 0.808645C315.128 0.816527 315.045 0.764738 315.763 0.763159C316.834 0.761023 317.936 0.815621 318.507 0.8187C321.192 0.832837 323.039 0.79746 325.547 0.824856C325.448 0.8138 325.384 0.803625 325.301 0.792745C328.27 0.803034 331.236 0.81324 334.205 0.823375C334.065 0.813541 333.93 0.80362 333.79 0.793593C337.274 0.809326 336.876 0.908908 336.57 0.694747C336.823 0.688132 337.092 0.680412 337.334 0.674418C337.236 0.783831 339.343 0.870032 342.025 0.90371C342.222 0.90606 343.542 0.806271 343.398 0.927969C343.742 0.898952 343.947 0.878971 344.238 0.853668C344.806 0.892069 345.381 0.929715 345.948 0.967293C346.254 0.962549 346.565 0.958031 346.871 0.953342C346.917 0.929981 346.882 0.905519 346.98 0.882751C348.402 0.883217 351.319 0.919524 352.443 0.91942C355.235 0.918859 358.078 0.867846 360.249 0.937456C361.307 0.933784 360.256 0.888363 361.83 0.898245C362.007 0.920157 362.174 0.941089 362.36 0.963535C363.645 0.871689 363.914 0.930793 365.676 0.954718C366.868 0.97099 367.648 0.950335 368.783 0.957759C369.07 0.959644 369.03 0.986387 369.226 0.985994C369.885 0.984721 371.765 0.953059 372.23 0.953456C376.444 0.95538 380.064 0.969766 384.078 0.989438C384.509 0.99151 383.95 0.965991 384.396 0.968263C385.114 0.971893 384.692 1.00741 385.108 1.01028C386.268 1.018 386.277 0.979656 387.896 0.982282C393.226 0.991216 399.354 1.03519 404.923 1.0516C405.097 1.05206 405.086 1.03256 405.275 1.0329C406.508 1.03549 407.756 1.06474 408.876 1.06726C410.733 1.07157 412.129 1.0494 413.964 1.05478C417.55 1.0651 420.755 1.08636 424.443 1.09681C427.462 1.10548 430.084 1.11044 433.394 1.11951C447.853 1.15547 462.607 1.16622 477.164 1.22615C477.535 1.22761 477.384 1.23428 477.497 1.23429C478.571 1.23419 478.667 1.2253 479.049 1.24583C480.418 1.24556 480.85 1.23275 482.502 1.23879C483.383 1.24197 482.726 1.26078 484.216 1.25426C485.562 1.24856 484.077 1.23378 488.079 1.25655C488.184 1.2572 488.706 1.26985 489.538 1.26923C490.374 1.26882 489.406 1.25815 491.419 1.26211C496.144 1.2722 502.124 1.29827 507.617 1.31287C507.961 1.31372 511.277 1.32127 511.931 1.32244C513.198 1.32445 512.933 1.32037 514.578 1.32571C515.849 1.32997 516.898 1.3366 518.392 1.34128C518.566 1.34182 518.858 1.34051 519.981 1.34507ZM241.498 1.64877C241.187 1.71702 240.628 1.96963 238.752 1.89643C238.574 1.88933 239.534 1.71406 238.498 1.68751C239.512 1.66804 240.499 1.66115 241.498 1.64851C241.498 1.64859 241.498 1.64868 241.498 1.64877ZM528.111 1.37761C526.708 1.38014 525.299 1.38251 523.896 1.38468C524.864 1.38256 525.834 1.38074 526.799 1.37924C527.238 1.37889 527.672 1.37835 528.111 1.37761ZM353.397 1.62285C353.398 1.62285 353.4 1.62284 353.401 1.62284C351.926 1.64466 350.449 1.66702 348.974 1.68984C349.129 1.67466 349.285 1.65947 349.44 1.64437C350.605 1.61921 351.77 1.59454 352.931 1.57031C353.086 1.58787 353.242 1.60538 353.397 1.62285ZM365.053 1.46282C365.995 1.47842 365.765 1.50562 366.283 1.53147C366.283 1.53142 366.283 1.53137 366.283 1.53132C366.42 1.53805 367.057 1.54337 367.303 1.54413C367.212 1.52743 367.095 1.51094 366.996 1.49432C369.194 1.4537 373.493 1.58858 367.928 1.65502C368.011 1.63375 368.091 1.61263 368.174 1.59143C365.408 1.60165 362.325 1.55736 365.053 1.46282ZM219.262 1.78696C216.901 1.92342 216.144 1.95473 213.28 1.86624C213.685 1.82712 214.089 1.78816 214.494 1.74934C214.967 1.78788 215.436 1.82599 215.909 1.86418C215.91 1.86418 215.912 1.86417 215.913 1.86417C216.008 1.82314 216.103 1.78207 216.193 1.74112C217.215 1.75656 218.24 1.77185 219.262 1.78696ZM455.416 1.43808C456.074 1.50016 455.884 1.46368 454.005 1.48054C453.354 1.4865 453.988 1.49681 453.584 1.49933C451.398 1.51353 451.223 1.46915 451.711 1.44562C452.948 1.44295 454.198 1.44048 455.412 1.43809C455.413 1.43809 455.415 1.43808 455.416 1.43808ZM512.131 1.3877C512.132 1.3877 512.134 1.3877 512.135 1.3877C512.192 1.39102 511.31 1.39291 512.304 1.39511C511.548 1.39595 510.792 1.39677 510.032 1.3976C510.255 1.39699 510.483 1.39641 510.706 1.39582C510.509 1.39475 510.312 1.39362 510.115 1.39247C509.846 1.39713 509.597 1.39489 508.802 1.39397C509.022 1.39885 509.24 1.40357 509.46 1.40811C508.537 1.40816 507.611 1.408 506.688 1.40763C506.676 1.40623 506.665 1.40483 506.653 1.40342C506.306 1.40566 505.961 1.40799 505.613 1.4104C505.519 1.40876 505.428 1.40712 505.333 1.40544C504.913 1.40732 504.493 1.40927 504.073 1.41131C503.945 1.40687 504.87 1.4038 503.23 1.40691C503.733 1.40145 504.236 1.3963 504.742 1.39142C507.205 1.39029 509.668 1.38906 512.131 1.3877ZM438.319 1.47625C441.031 1.47016 440.267 1.48269 439.639 1.52154C439.201 1.50667 438.758 1.49158 438.319 1.47625ZM298.577 1.54299C297.79 1.61037 297 1.67777 296.194 1.74418C294.59 1.78483 292.986 1.66273 294.192 1.6126C295.645 1.5531 297.162 1.61634 298.577 1.54299ZM262.044 1.60383C264.007 1.63792 262.16 1.73124 261.718 1.78587C261.175 1.70037 260.418 1.70878 259.202 1.70017C260.343 1.69298 261.72 1.5979 262.044 1.60359C262.044 1.60367 262.044 1.60375 262.044 1.60383ZM330.159 1.58495C330.946 1.58236 331.728 1.56566 332.431 1.58428C332.219 1.63898 330.812 1.59118 331.818 1.67087C331.315 1.67301 330.811 1.67511 330.312 1.67742C330.63 1.64316 330.203 1.6185 330.161 1.58513C330.16 1.58507 330.16 1.58501 330.159 1.58495ZM412.039 1.54333C410.495 1.50709 410.203 1.52333 408.648 1.55294C408.429 1.52092 410.283 1.46546 411.444 1.45342C411.641 1.48354 411.838 1.51353 412.039 1.54333ZM46.9564 1.99898C47.327 1.83392 50.0612 1.81045 51.4197 1.85724C51.2579 1.88156 51.0956 1.90623 50.9338 1.93097C49.6098 1.95345 48.2804 1.97614 46.9564 1.99898ZM258.623 1.69463C258.827 1.69709 259.02 1.69887 259.202 1.70017C258.999 1.70141 258.804 1.70008 258.623 1.69463ZM176.445 1.26969C177.092 1.15673 175.169 1.11753 177.503 1.16333C177.503 1.16322 177.503 1.16312 177.503 1.16301C179.047 1.19305 179.387 1.20089 180.817 1.21032C180.303 1.35356 177.402 1.40601 181.4 1.43506C181.453 1.43518 181.348 1.34977 181.987 1.36149C182.184 1.36515 182.815 1.43505 183.775 1.45504C184.085 1.4615 186.416 1.48217 183.239 1.48451C183.333 1.58397 183.163 1.6848 183.17 1.78138C181.93 1.81115 180.976 1.61628 179.664 1.62178C177.716 1.63045 176.725 1.83252 176.35 1.56912C177.988 1.50341 180.801 1.50157 181.168 1.65746C182.753 1.6579 183.208 1.5305 181.93 1.46763C176.456 1.5501 180.428 1.27665 175.634 1.37995C175.578 1.41669 175.381 1.4563 175.411 1.49086C173.948 1.36157 176.214 1.30996 176.445 1.26969ZM187.891 1.54442C186.946 1.61985 186.003 1.69651 185.061 1.77346C185.061 1.65025 185.58 1.53912 187.071 1.46975C187.343 1.49479 187.619 1.51976 187.891 1.54442ZM108.334 1.62313C108.198 1.70514 107.835 1.78059 107.57 1.85904C107.282 1.79064 100.473 1.72917 103.937 1.65787C104.44 1.64791 107.509 1.79068 108.334 1.62313ZM422.756 1.49696C421.954 1.48404 421.155 1.47078 420.357 1.45723C421.585 1.44735 422.815 1.43754 424.044 1.42811C423.613 1.45078 423.186 1.47374 422.756 1.49696ZM285.522 1.46925C285.861 1.47085 284.736 1.53667 286.07 1.52559C285.075 1.5678 284.144 1.60402 283.171 1.64465C282.88 1.61384 282.586 1.58305 282.294 1.55202C282.067 1.57223 281.836 1.59239 281.609 1.61272C281.745 1.56695 281.866 1.52233 282.01 1.47594C283.648 1.57261 284.024 1.46195 285.522 1.46925ZM334.229 1.31032C334.524 1.38812 332.152 1.43543 334.485 1.44716C334.043 1.49851 333.331 1.52605 331.965 1.53176C331.746 1.5121 331.527 1.49251 331.308 1.47271C331.278 1.526 330.926 1.54597 330.159 1.58495C330.158 1.58489 330.158 1.58483 330.157 1.58476C328.081 1.59083 328.205 1.57284 327.706 1.48402C329.904 1.5329 329.969 1.45161 331.467 1.40393C332.496 1.3712 333.84 1.38581 334.229 1.31032ZM115.589 1.61697C114.035 1.75805 115.43 1.88841 112.672 1.74141C112.85 1.70542 113.029 1.66979 113.207 1.63389C114.001 1.62787 114.795 1.62228 115.589 1.61697ZM341.9 1.56987C341.722 1.45439 340.259 1.36314 340.009 1.55407C341.435 1.59132 340.739 1.48472 341.9 1.56987ZM262.713 1.34447C265.456 1.35282 264.937 1.53683 263.81 1.63094C263.636 1.59731 263.462 1.56356 263.292 1.53001C262.812 1.54565 262.331 1.56142 261.851 1.57702C262.138 1.49932 262.426 1.42167 262.713 1.34447ZM390.249 1.42544C388.153 1.48811 392.511 1.45811 391.047 1.49722C389.878 1.52902 388.337 1.46807 388.92 1.42842C389.325 1.42718 389.775 1.42626 390.244 1.42544C390.246 1.42544 390.247 1.42544 390.249 1.42544ZM378.121 1.4488C378.465 1.51993 377.969 1.49935 379.624 1.48542C380.097 1.48155 383.855 1.50486 382.277 1.4485C380.935 1.44916 379.516 1.44884 378.121 1.4488ZM231.013 1.54712C230.987 1.48525 233.881 1.35068 234.252 1.38435C234.252 1.38426 234.252 1.38417 234.252 1.38408C235.255 1.47473 232.203 1.48892 233.526 1.61354C230.595 1.50479 229.718 1.77471 229.922 1.41921C231.649 1.40344 230.831 1.47655 231.013 1.54712ZM11.0563 1.54197C11.055 1.54198 11.0536 1.54198 11.0523 1.54198C11.2466 1.54707 12.8477 1.70292 12.653 1.75711C10.7276 1.71214 11.0707 1.60802 9.27827 1.77951C9.18 1.72472 9.09581 1.67155 8.98999 1.61631C9.7012 1.5834 10.0954 1.51752 11.0563 1.54197ZM100.972 1.44931C101.679 1.42618 102.97 1.52137 103.776 1.51535C101.211 1.88292 98.1461 1.54252 100.972 1.44931ZM485.605 1.40643C485.603 1.40644 485.601 1.40646 485.599 1.40647C485.599 1.40645 485.6 1.40643 485.601 1.40641C485.602 1.40641 485.604 1.40642 485.605 1.40643ZM155.791 1.63234C155.7 1.61159 155.649 1.59354 155.63 1.57768C155.63 1.57618 155.63 1.57469 155.63 1.5732C155.679 1.59266 155.732 1.61234 155.791 1.63234ZM224.999 1.56949C223.794 1.48211 227.809 1.34287 229.108 1.37618C229.017 1.41557 229.003 1.45126 228.791 1.49662C227.743 1.39448 225.2 1.58366 224.999 1.56949ZM316.543 1.48899C313.369 1.48834 317.5 1.24621 317.67 1.43824C317.664 1.4419 316.625 1.48856 316.543 1.48899ZM250.029 1.52042C250.838 1.42426 249.213 1.39919 251.811 1.41535C251.962 1.44001 252.114 1.4647 252.265 1.48929C251.52 1.49954 250.774 1.51001 250.029 1.52042ZM295.751 1.15231C291.756 1.19234 287.936 1.27333 290.538 1.49955C290.84 1.49213 291.147 1.48498 291.449 1.47762C291.494 1.3677 292.61 1.42764 294.243 1.43067C294.476 1.38749 295.381 1.37755 295.551 1.34117C295.88 1.27098 294.839 1.22069 295.751 1.15231ZM464.403 1.36344C464.339 1.3685 464.276 1.37359 464.212 1.37863C463.58 1.38438 462.946 1.39028 462.315 1.39637C462.417 1.3863 462.519 1.37627 462.621 1.36629C463.215 1.3653 463.806 1.36434 464.399 1.36341C464.4 1.36342 464.402 1.36343 464.403 1.36344ZM191.784 1.21324C191.421 1.50677 192.689 1.45136 195.262 1.30498C194.104 1.27471 192.942 1.24413 191.784 1.21324ZM359.943 1.27375C360.026 1.3155 360.108 1.35705 360.195 1.39867C361.56 1.35517 361.307 1.30835 360.652 1.25287C360.414 1.25978 360.181 1.26678 359.943 1.27375ZM379.614 1.27012C379.048 1.26201 379.337 1.29202 379.278 1.29138C377.844 1.27492 377.642 1.26062 375.883 1.28239C375.667 1.29026 375.455 1.29858 375.24 1.30676C376.053 1.38632 376.643 1.3434 378.364 1.38932C378.054 1.36266 377.745 1.33579 377.435 1.30868C378.392 1.31479 379.345 1.32071 380.302 1.3266C380.415 1.31852 380.529 1.31053 380.642 1.30248C380.302 1.29189 379.951 1.27992 379.614 1.27012ZM471.709 1.37775C472.64 1.37889 473.574 1.38002 474.505 1.38105C474.539 1.37416 474.572 1.36723 474.606 1.36037C473.641 1.36585 472.673 1.37165 471.709 1.37775ZM172.677 1.34513C172.603 1.36124 172.531 1.37746 172.467 1.39396C172.474 1.37385 172.554 1.35816 172.677 1.34513ZM8.60091 1.17868C7.54562 1.13182 6.02491 1.16165 4.86737 1.15138C4.95837 1.31916 7.90043 1.27345 8.93354 1.37441C9.09955 1.34455 9.04698 1.19841 8.60091 1.17868ZM266.507 1.35232C266.772 1.31048 267.037 1.26898 267.298 1.2274C267.937 1.23226 268.578 1.23735 269.221 1.24215C269.24 1.20825 269.258 1.17406 269.277 1.14017C266.444 1.18185 267.098 1.08439 265.695 0.984671C265.967 1.10753 266.235 1.23001 266.507 1.35232ZM501.319 1.35481C499.273 1.35543 498.547 1.36042 499.7 1.37208C500.423 1.36961 501.149 1.36734 501.872 1.36526C501.686 1.36185 501.501 1.35836 501.319 1.35481ZM135.404 1.22559C133.692 1.28287 133.663 1.07473 131.989 1.19021C132.886 1.22913 133.782 1.26823 134.674 1.30663C134.916 1.27963 135.163 1.25249 135.404 1.22559ZM219.401 0.810906C218.678 0.752371 217.328 1.02149 215.296 0.817422C214.812 0.87666 214.509 0.933732 214.093 0.992304C213.851 0.927736 213.576 0.862138 213.345 0.797777C213.343 0.797774 213.342 0.797772 213.341 0.797769C211.498 0.816151 212.693 0.89945 212.651 0.967781C212.632 0.996187 211.264 0.946871 211.692 1.00941C212.429 1.11661 215.186 1.05821 215.193 1.18656C214.225 1.14393 212.334 1.17781 212.893 1.26447C213.506 1.35908 215.288 1.20174 216.423 1.28014C214.797 1.07458 218.156 1.14068 218.538 1.2964C220.509 1.17764 218.697 1.12824 216.677 1.13201C217.91 1.01303 216.095 1.07632 215.796 0.975756C217.068 0.916946 221.432 0.973571 219.401 0.810906ZM312.388 1.13463C311.026 1.1387 308.898 1.08764 307.965 1.1583C307.422 1.19977 309.555 1.23334 308.084 1.29809C309.412 1.29214 309.714 1.26693 309.488 1.20968C309.79 1.20305 310.096 1.19662 310.399 1.19022C310.539 1.20144 310.682 1.21249 310.822 1.22367C310.981 1.20042 311.141 1.17742 311.296 1.15427C311.617 1.15919 311.942 1.1641 312.263 1.16915C312.301 1.15752 312.366 1.14744 312.388 1.13463ZM86.2291 1.2138C86.6073 1.21256 86.9818 1.21132 87.36 1.20974C87.3184 1.1817 87.2687 1.1525 87.2209 1.12367C87.1867 1.10089 87.1524 1.0781 87.1181 1.05531C87.3373 1.13702 89.1391 1.27232 89.8981 1.18619C90.2797 1.14315 89.4113 0.988648 91.0291 0.963383C89.8567 0.970151 88.7706 0.990166 87.6322 1.00233C87.7343 0.956485 87.8324 0.91018 87.9346 0.864402C87.9339 0.864334 87.9333 0.864265 87.9326 0.864196C87.5544 0.853407 87.1717 0.842089 86.7936 0.831245C86.6044 0.958679 86.4183 1.08604 86.2291 1.2138ZM358.834 1.19009C357.544 1.22336 357.112 1.24157 357.721 1.29834C357.722 1.29837 357.724 1.2984 357.725 1.29842C358.206 1.27364 358.686 1.24907 359.167 1.22471C359.057 1.21321 358.947 1.20164 358.834 1.19009ZM161.565 0.943798C158.823 1.40297 164.999 1.12376 163.823 0.967688C163.77 0.960435 161.822 0.994954 161.565 0.943798ZM262.209 1.24158C262.962 1.23925 263.717 1.23721 264.473 1.23493C264.299 1.19409 264.121 1.15332 263.947 1.11232C263.368 1.15505 262.788 1.19828 262.209 1.24158ZM492.409 1.32698C491.616 1.31363 489.583 1.30446 488.589 1.31791C489.111 1.32044 489.633 1.32289 490.155 1.32528C489.168 1.32559 488.192 1.32623 487.198 1.3267C487.145 1.34646 488.291 1.33615 490.016 1.34298C490.283 1.34436 491.99 1.36724 492.58 1.35128C492.699 1.34815 490.882 1.34411 492.145 1.33558C491.593 1.33418 491.116 1.3338 490.594 1.33275C490.557 1.32837 490.519 1.32398 490.477 1.31957C491.123 1.32212 491.764 1.3246 492.409 1.32698ZM304.458 1.13412C302.587 1.12609 302.356 1.16911 301.966 1.24568C302.836 1.23749 303.707 1.22953 304.577 1.22154C304.535 1.19248 304.499 1.16339 304.458 1.13412ZM475.684 1.29801C474.66 1.29351 475.099 1.3089 474.687 1.3112C473.128 1.32011 472.065 1.308 470.526 1.31328C470.628 1.31031 470.722 1.30754 470.82 1.30469C470.819 1.30468 470.817 1.30468 470.816 1.30468C463.526 1.2812 467.355 1.32487 471.717 1.32235C471.819 1.32828 471.917 1.33417 472.019 1.33999C473.971 1.33109 475.772 1.32377 475.684 1.29801ZM185.932 0.957849C185.849 0.935703 186.556 0.796965 185.228 0.860424C184.177 1.06371 185.901 0.964333 186.333 1.04321C185.974 1.06243 185.606 1.08116 185.251 1.1005C187.399 1.15978 187.713 1.11172 186.93 0.962225C186.874 0.952144 186.015 0.979872 185.932 0.957849ZM171.81 0.835783C171.515 1.14879 174.227 1.01028 174.129 0.913943C173.754 0.909579 173.463 0.961998 173.066 0.938167C172.665 0.914295 172.563 0.841159 171.81 0.835783ZM249.503 1.01359C249.423 1.01247 248.625 0.908113 248.705 0.989031C249.692 1.18141 251.681 1.06026 251.333 0.994213C250.675 0.996545 250.237 1.02453 249.503 1.01333C249.503 1.01342 249.503 1.01351 249.503 1.01359ZM504.75 1.33918C504.713 1.33862 502.721 1.3315 502.464 1.33462C502.253 1.33831 502.147 1.34254 501.989 1.34661C503.086 1.34399 505.306 1.34966 504.746 1.33917C504.748 1.33917 504.749 1.33917 504.75 1.33918Z" fill="#A1A1A1"/>
<path d="M484.587 1.51092C485.781 1.52189 481.795 1.52555 484.442 1.53898C483.89 1.54253 483.334 1.5462 482.783 1.54986C482.643 1.54176 482.499 1.53362 482.359 1.52537C483.1 1.52042 483.842 1.51559 484.587 1.51088C484.587 1.51089 484.587 1.51091 484.587 1.51092ZM485.599 1.40647C484.92 1.4297 482.762 1.44025 485.093 1.45796C485.278 1.44959 485.468 1.44133 485.653 1.43317C486.463 1.43825 487.277 1.44296 488.087 1.44731C488.378 1.44396 488.668 1.44066 488.959 1.43747C489.33 1.44959 489.698 1.46139 490.068 1.47283C489.739 1.47184 489.405 1.47079 489.076 1.46972C487.775 1.4831 486.617 1.48936 484.851 1.49627C485.006 1.49916 485.162 1.50198 485.317 1.5048C484.42 1.50188 483.524 1.4986 482.631 1.49497C483.407 1.48715 484.274 1.47881 484.992 1.4721C483.842 1.45254 481.814 1.46824 480.759 1.47573C479.321 1.48567 479.646 1.47332 478.579 1.48044C478.409 1.48158 478.39 1.49101 478.053 1.49195C476.355 1.49681 473.055 1.49841 474.985 1.471C477.781 1.46867 480.165 1.44755 482.908 1.44947C482.182 1.42735 483.627 1.41739 485.599 1.40647ZM434.241 1.59375C435.088 1.56864 436.813 1.57466 437.982 1.58731C437.983 1.58731 437.985 1.58731 437.986 1.5873C438.243 1.59017 438.826 1.61802 437.986 1.61907C436.617 1.62089 435.955 1.57472 435.236 1.6089C434.915 1.60364 434.577 1.59903 434.241 1.59375ZM431.265 1.60356C430.425 1.59322 430.806 1.5544 431.858 1.56268C431.858 1.56265 431.858 1.56262 431.858 1.56259C432.297 1.566 431.435 1.59713 433.009 1.56413C433.33 1.58659 433.647 1.60676 433.964 1.62804C433.579 1.62944 433.228 1.63098 432.823 1.63236C433.095 1.59365 432.105 1.61369 431.265 1.60356ZM473.566 1.48552C473.434 1.50543 473.987 1.50423 474.928 1.51515C474.04 1.51682 473.151 1.51841 472.265 1.52C472.7 1.50824 473.131 1.49678 473.566 1.48552ZM494.449 1.44611C494.45 1.44611 494.452 1.44611 494.453 1.4461C494.744 1.44359 495.036 1.44112 495.324 1.43874C495.498 1.44265 495.67 1.44648 495.844 1.45025C496.873 1.44403 497.907 1.43817 498.936 1.43266C498.811 1.4444 496.964 1.44647 495.947 1.45779C494.434 1.45777 493.705 1.45147 493.606 1.44009C493.886 1.44215 494.165 1.44418 494.449 1.44611ZM246.983 1.51146C246.639 1.54205 246.299 1.57276 245.955 1.60357C246.412 1.61713 246.866 1.62735 247.328 1.64299C248.534 1.51 248.648 1.62673 250.229 1.61711C255.075 1.58724 253.789 1.39168 258.165 1.67781C254.652 1.66791 256.002 1.80278 253.884 1.9128C253.445 1.83231 255.544 1.64777 254.121 1.61147C251.67 1.69907 249.313 1.78308 246.594 1.84434C246.673 1.85856 246.752 1.87282 246.832 1.88701C247.263 1.87719 247.691 1.86735 248.122 1.85761C247.657 1.89662 247.202 1.93547 246.729 1.97531C247.327 1.88697 245.803 1.93869 246.007 1.83788C246.098 1.793 246.771 1.73012 247.168 1.68719C246.143 1.66519 245.092 1.64491 244.056 1.62309C244.593 1.58677 245.129 1.55062 245.663 1.5147C246.101 1.51338 246.536 1.51239 246.975 1.51107C246.978 1.5112 246.98 1.51133 246.983 1.51146ZM26.3655 2.44285C27.6668 2.25511 30.0317 2.22174 31.2763 2.42278C29.6383 2.42934 28.0035 2.43623 26.3655 2.44285ZM493.507 1.43074C493.655 1.4327 493.798 1.43462 493.945 1.43653C493.294 1.44165 492.64 1.44698 491.989 1.45256C491.865 1.44622 491.737 1.43982 491.608 1.43338C492.24 1.4325 492.876 1.43163 493.507 1.43074ZM451.886 1.5102C452.362 1.50854 452.404 1.50893 452.997 1.50984C452.996 1.50983 452.996 1.50982 452.995 1.50981C453.23 1.51018 455.196 1.51445 454.977 1.52503C454.001 1.52717 452.96 1.52909 451.961 1.5311C451.931 1.52415 451.924 1.51721 451.886 1.5102ZM463.375 1.4955C463.376 1.49552 463.378 1.49554 463.379 1.49556C463.734 1.49629 464.071 1.49844 464.437 1.49824C463.118 1.51499 462.909 1.48977 461.71 1.49922C460.511 1.50875 459.77 1.52575 458.752 1.49001C459.131 1.48377 459.538 1.47518 459.928 1.46822C461.63 1.48058 462.088 1.46586 463.454 1.45055C463.427 1.46555 463.402 1.48047 463.375 1.4955ZM268.558 1.78439C268.883 1.71472 269.246 1.78206 269.283 1.78277C269.283 1.78285 269.282 1.78294 269.281 1.78302C272.163 1.71481 268.906 1.82187 271.626 1.82787C271.221 1.84568 270.823 1.86451 270.422 1.88267C269.802 1.85075 269.163 1.81418 268.558 1.78439ZM362.184 1.64177C362.211 1.65462 362.243 1.66749 362.269 1.68033C360.635 1.68014 360.218 1.73258 358.86 1.68812C359.968 1.67227 361.076 1.65679 362.184 1.64162C362.184 1.64167 362.184 1.64172 362.184 1.64177ZM443.649 1.47669C445.461 1.46195 446.801 1.45589 448.542 1.47267C448.543 1.4727 448.544 1.47272 448.546 1.47274C448.646 1.47376 448.161 1.48738 448.292 1.49049C448.651 1.48804 449.021 1.48455 449.384 1.48178C449.434 1.49199 449.48 1.50219 449.53 1.5123C448.508 1.51114 447.486 1.50988 446.461 1.5085C446.613 1.51449 446.768 1.52038 446.919 1.5263C446.049 1.53109 445.182 1.53596 444.312 1.54095C444.615 1.52244 444.917 1.50411 445.215 1.48593C444.694 1.48289 444.171 1.47993 443.649 1.47669ZM334.977 1.5209C335.265 1.53702 334.732 1.56497 335.179 1.57861C335.625 1.59201 336.448 1.56075 336.255 1.60688C335.654 1.61376 335.023 1.62166 334.411 1.62899C336.382 1.70952 338.348 1.63152 338.378 1.73272C336.487 1.71001 334.931 1.72459 333.1 1.75695C333.176 1.67398 335.007 1.60106 333.854 1.52515C334.225 1.5238 334.614 1.52195 334.973 1.52108C334.974 1.52102 334.976 1.52096 334.977 1.5209ZM519.981 1.34507C521.101 1.34935 523.666 1.35842 525.081 1.36458C525.429 1.36632 526.589 1.3719 526.583 1.37186C526.549 1.37228 525.133 1.36945 526.65 1.37317C526.139 1.37211 525.644 1.37112 525.138 1.3701C525.228 1.37107 525.319 1.37197 525.406 1.3728C526.022 1.37353 526.64 1.37432 527.256 1.37518C527.287 1.37532 527.317 1.37545 527.347 1.37557C525.13 1.37289 526.439 1.37497 525.289 1.37489C526.348 1.37603 527.415 1.37671 528.47 1.37695C527.861 1.37681 527.142 1.37662 526.605 1.37644C526.533 1.37722 527.815 1.37696 528.035 1.377C529.272 1.37685 522.974 1.37816 522.459 1.38226C523.465 1.38176 524.52 1.38101 525.549 1.38009C525.254 1.38061 524.955 1.38121 524.66 1.38186C522.326 1.3832 519.709 1.38401 516.989 1.38269C516.744 1.383 516.497 1.38333 516.255 1.38365C516.327 1.3858 516.395 1.38791 516.467 1.38999C516.096 1.39064 515.721 1.39133 515.35 1.39203C516.443 1.38328 514.93 1.38523 513.102 1.38012C514.075 1.37682 515.274 1.37861 515.191 1.37347C511.855 1.3775 507.948 1.36889 504.702 1.37578C503.896 1.37768 503.899 1.38996 502.005 1.38983C502.069 1.38835 502.08 1.38573 502.122 1.38382C498.846 1.39089 496.858 1.39788 493.453 1.39092C493.65 1.39712 493.843 1.40324 494.04 1.40923C494.762 1.40548 495.486 1.40187 496.205 1.39851C496.697 1.40764 495.97 1.41254 498.126 1.41008C499.893 1.40808 498.841 1.40537 499.321 1.40234C499.972 1.39837 500.543 1.40451 501.243 1.40018C501.784 1.39696 501.198 1.39079 502.609 1.39164C502.042 1.40014 501.463 1.40948 500.892 1.41919C500.548 1.41775 500.206 1.41621 499.862 1.4146C500.21 1.41172 500.552 1.40897 500.9 1.40626C499.674 1.41177 498.516 1.41745 497.249 1.42428C497.661 1.40951 496.352 1.41637 495.64 1.41911C494.532 1.42334 495.482 1.41167 494.755 1.41425C494.029 1.41674 493.246 1.43013 491.933 1.42942C492.636 1.42107 491.68 1.41564 491.864 1.4085C492.05 1.40137 493.438 1.39924 492.104 1.39248C489.54 1.39968 492.323 1.42418 490.59 1.43054C488.51 1.43944 488.015 1.39256 488.635 1.38239C489.123 1.37448 490.802 1.37608 491.294 1.36885C488.287 1.35429 488.26 1.38184 487.746 1.38774C485.877 1.40909 487.132 1.35306 484.92 1.3732C484.961 1.36236 484.995 1.35263 485.036 1.34229C484.655 1.34396 484.401 1.34643 483.94 1.34773C485.3 1.3699 484.187 1.36836 483.615 1.36838C482.715 1.36833 484.106 1.37912 483.867 1.38178C483.224 1.38916 482.207 1.38617 482.831 1.39573C482.551 1.3913 482.248 1.38678 481.96 1.38223C480.908 1.38735 478.436 1.44047 480.789 1.42782C480.569 1.44648 479.808 1.43873 479.214 1.43649C478.621 1.43428 478.632 1.44652 478.11 1.44496C476.033 1.43849 477.391 1.41479 477.721 1.39818C474.978 1.4113 477.663 1.41715 473.711 1.42885C473.329 1.44418 475.155 1.45704 473.634 1.46788C473.354 1.44282 472.234 1.42552 470.052 1.4179C469.84 1.42432 469.629 1.43086 469.417 1.43742C468.225 1.41317 468.834 1.38491 466.629 1.41896C467.813 1.35782 466.999 1.39736 465.024 1.37219C464.623 1.36697 465.55 1.35431 464.99 1.34755C464.736 1.34443 464.12 1.35408 463.5 1.34611C463.197 1.34233 461.783 1.31613 460.803 1.32739C461.521 1.35965 459.66 1.38738 461.256 1.41345C458.305 1.40858 456.24 1.42452 459.547 1.37869C458.798 1.36877 458.048 1.35857 457.299 1.34807C456.777 1.35594 456.25 1.36392 455.725 1.37209C455.645 1.34363 455.725 1.33558 453.668 1.33961C454.561 1.33315 455.449 1.32681 456.345 1.32079C456.376 1.31511 456.5 1.30931 456.47 1.30376C455.373 1.31341 452.282 1.31577 451.533 1.3233C450.784 1.33085 452.231 1.33393 452.015 1.34151C450.219 1.4051 450.361 1.35804 449.072 1.36886C448.315 1.37558 450.122 1.38284 449.717 1.38566C448.216 1.39645 447.52 1.36094 446.189 1.36002C446.662 1.3808 447.131 1.40154 447.592 1.4218C446.196 1.42152 444.64 1.42205 443.343 1.4297C442.833 1.43271 443.218 1.44842 443.135 1.44954C442.722 1.45532 441.043 1.4658 440.865 1.46608C439.526 1.46762 439.488 1.44464 438.188 1.44428C438.698 1.44192 439.178 1.43981 439.678 1.43759C439.904 1.40016 440.136 1.36302 440.363 1.32609C439.088 1.32267 437.813 1.31918 436.535 1.31552C437.469 1.32903 438.407 1.34209 439.341 1.35482C437.881 1.38469 436.42 1.41611 434.96 1.44902C434.2 1.43013 433.443 1.41076 432.682 1.39091C430.617 1.39623 431.033 1.47935 430.053 1.40702C429.445 1.41337 428.836 1.41984 428.227 1.42634C428.314 1.4157 428.4 1.40506 428.487 1.39448C427.753 1.40111 427.02 1.40783 426.286 1.41483C427.057 1.45281 427.814 1.49189 428.578 1.52704C427.133 1.53745 427.106 1.50534 426.89 1.49752C426.319 1.47675 425.185 1.50709 424.731 1.48753C424.578 1.48068 425.993 1.45789 425.505 1.43348C425.41 1.42917 423.515 1.33697 422.306 1.3579C422.329 1.37495 422.422 1.39584 422.471 1.41433C420.845 1.42569 420.016 1.33501 420.232 1.30952C419.365 1.32681 418.099 1.32781 417.921 1.35619C417.479 1.3568 417.04 1.35738 416.597 1.35801C417.058 1.28837 415.212 1.29963 415.091 1.36079C415.851 1.36241 416.613 1.36408 417.373 1.36563C416.798 1.43894 419.109 1.48302 414.301 1.41632C413.382 1.37737 415.935 1.4212 415.186 1.3922C413.885 1.37528 412.663 1.38986 411.426 1.36189C409.887 1.32665 411.781 1.29284 408.194 1.33675C416.105 1.45019 407.11 1.41304 403.395 1.45249C402.373 1.33619 399.236 1.29436 394.915 1.32966C395.366 1.36471 396.725 1.34698 397.508 1.35847C398.291 1.36979 397.444 1.39012 398.419 1.40587C399.395 1.42161 401.467 1.44206 402.455 1.46459C401.618 1.48353 397.489 1.53271 400.219 1.4761C398.181 1.44439 397.224 1.40958 394.698 1.40355C393.941 1.45839 393.997 1.49267 391.535 1.49647C392.991 1.41829 390.193 1.36509 390.809 1.28413C392.555 1.30397 391.579 1.38132 392.589 1.41828C392.693 1.4219 394.32 1.4022 394.698 1.40355C393.056 1.33538 392.488 1.30805 393.498 1.2269C392.337 1.23285 391.614 1.2216 391.508 1.26132C391.266 1.24385 391.023 1.22627 390.785 1.20862C390.407 1.20859 390.066 1.20979 389.666 1.20898C390.218 1.2704 389.148 1.23177 388.388 1.25888C387.627 1.28625 388.648 1.33529 386.559 1.33535C387.255 1.35011 387.892 1.36261 388.565 1.3762C387.219 1.39198 385.868 1.40831 384.521 1.42499C385.467 1.46348 387.516 1.51806 387.46 1.56758C386.84 1.54953 384.715 1.58563 384.483 1.5875C383.583 1.59403 384.073 1.56119 384.005 1.5605C382.591 1.54659 381.425 1.55916 380.888 1.50999C379.826 1.53344 379.024 1.52149 377.897 1.52382C377.276 1.52511 377.397 1.56239 377.034 1.55572C374.62 1.51111 376.92 1.45829 372.264 1.55753C372.828 1.58379 373.384 1.61039 373.948 1.63631C373.422 1.64724 372.899 1.65832 372.373 1.66946C372.021 1.66523 371.673 1.66092 371.321 1.65662C371.328 1.59789 371.337 1.53905 371.345 1.48034C370.959 1.4774 370.572 1.47452 370.186 1.47153C370.848 1.4653 371.511 1.45916 372.173 1.45308C372.234 1.44278 372.29 1.43248 372.351 1.4222C371.367 1.40659 370.387 1.39053 369.404 1.37419C369.385 1.39486 369.366 1.41569 369.347 1.43638C367.13 1.40843 367.078 1.38974 364.97 1.44896C363.348 1.44878 362.026 1.53963 361.088 1.57926C360.751 1.56748 360.414 1.55546 360.074 1.54354C359.858 1.56195 359.64 1.58036 359.425 1.59892C358.997 1.57406 358.564 1.54901 358.136 1.52389C357.898 1.58222 357.775 1.60083 359.443 1.61873C358.872 1.69129 355.935 1.66509 354.74 1.64191C353.833 1.62441 354.839 1.56138 354.725 1.55412C354.347 1.52905 352.852 1.55246 352.538 1.54855C351.21 1.53201 350.28 1.53594 349.081 1.52292C348.847 1.52034 348.195 1.48039 348.139 1.47912C347.708 1.47248 346.644 1.45318 346.523 1.45263C340.278 1.42477 346.95 1.59965 341.144 1.58666C341.318 1.61052 341.478 1.63417 341.648 1.6579C341.209 1.66003 340.766 1.66209 340.328 1.66424C339.771 1.64487 340.444 1.60709 339.34 1.63831C339.412 1.60829 339.484 1.57828 339.559 1.54847C339.079 1.56504 338.616 1.58158 338.124 1.5984C337.352 1.49496 334.535 1.47209 334.735 1.34692C334.803 1.30423 336.801 1.26209 335.745 1.21629C334.888 1.20667 335.468 1.25774 335.118 1.26016C332.591 1.27735 332.738 1.20556 331.705 1.22392C331.543 1.25476 331.372 1.28627 331.205 1.31758C330.816 1.30835 330.425 1.29906 330.032 1.28972C329.941 1.31067 329.847 1.33166 329.756 1.35266C330.123 1.35411 330.536 1.35557 330.873 1.357C330.403 1.43753 326.092 1.47648 327.736 1.40574C328.405 1.37716 329.632 1.38942 328.857 1.29271C327.703 1.30613 326.394 1.32006 325.18 1.33398C325.142 1.31279 325.107 1.29156 325.069 1.27034C323.432 1.28328 324.921 1.36901 324.918 1.41423C324.543 1.41557 324.165 1.41676 323.791 1.41812C323.632 1.39749 323.481 1.37585 323.315 1.35576C323.3 1.38867 323.09 1.46544 321.974 1.43728C321.257 1.41876 322.387 1.33497 321.019 1.34642C321.121 1.39851 321.615 1.46137 320.091 1.47893C319.94 1.42451 319.731 1.37453 319.614 1.31708C317.719 1.36945 316.856 1.28382 314.632 1.34548C313.221 1.38422 311.288 1.52827 310.377 1.30778C309.344 1.30162 309.672 1.35683 309.367 1.3692C307.925 1.42817 306.853 1.32244 306.585 1.3159C304.872 1.27511 304.104 1.31202 302.708 1.2604C302.784 1.3027 302.825 1.3427 302.885 1.38387C304.164 1.32065 304.812 1.32418 306.605 1.33784C306.003 1.34608 305.402 1.35457 304.8 1.36294C304.899 1.39693 304.996 1.43088 305.091 1.4646C310.637 1.33097 309.343 1.53781 304.694 1.58871C304.293 1.52617 303.877 1.46346 303.48 1.40007C300.794 1.49673 299.53 1.414 296.493 1.39329C296.132 1.39091 294.816 1.42881 294.251 1.43088C294.26 1.43113 294.27 1.43138 294.279 1.43163C293.928 1.49395 294.404 1.52241 294.461 1.57785C294.154 1.58508 293.848 1.5923 293.541 1.59958C292.857 1.5577 293.098 1.52242 291.751 1.53348C291.933 1.57601 292.112 1.61844 292.293 1.66077C290.818 1.66413 289.853 1.61849 288.479 1.64019C288.71 1.62358 288.938 1.60698 289.169 1.59046C286.18 1.5513 288.559 1.29426 286.3 1.42208C286.156 1.39973 286.016 1.37713 285.873 1.3547C286.803 1.34927 287.734 1.34408 288.661 1.33878C288.68 1.30742 288.7 1.27621 288.715 1.24487C287.72 1.25371 286.72 1.26296 285.726 1.27204C286.452 1.25106 287.182 1.23024 287.909 1.20964C286.755 1.19376 285.601 1.17766 284.447 1.16135C285.673 1.27942 284.084 1.29278 284.383 1.40925C282.34 1.31312 280.735 1.18163 277.569 1.26353C276.941 1.27987 277.282 1.3641 275.501 1.26119C275.932 1.39494 273.7 1.45834 273.987 1.58661C274.607 1.57992 275.25 1.57554 275.851 1.56757C275.167 1.52402 275.053 1.40194 276.093 1.36604C277.421 1.3205 279.358 1.40391 279.278 1.27098C279.808 1.27745 280.3 1.28131 280.815 1.28673C280.603 1.31942 280.396 1.3524 280.188 1.38526C281.651 1.33377 282.571 1.35104 283.274 1.43261C281.53 1.45183 279.79 1.47125 278.047 1.49106C278.304 1.49663 278.564 1.50222 278.821 1.50755C277.501 1.59362 278.862 1.67308 276.4 1.69443C276.415 1.65513 276.427 1.61581 276.442 1.57632C275.545 1.68199 273.091 1.68496 273.874 1.80593C273.132 1.76969 272.981 1.74593 272.561 1.81275C270.605 1.72304 269.349 1.60429 270.045 1.46176C269.319 1.48487 268.593 1.5082 267.87 1.5317C268.29 1.57063 268.71 1.6092 269.13 1.64776C267.867 1.64664 266.594 1.64553 265.334 1.64455C265.213 1.52757 267.766 1.60708 267.03 1.50357C266.882 1.48275 266.202 1.52786 266.024 1.51618C264.14 1.3891 267.097 1.48039 266.542 1.38293C263.735 1.35289 265.981 1.18766 262.115 1.32582C262.013 1.29159 261.903 1.25662 261.808 1.22253C260.466 1.21965 260.575 1.29739 259.421 1.31188C258.699 1.32109 257.792 1.18276 256.994 1.27643C256.852 1.29396 258.194 1.4624 255.373 1.45585C253.184 1.45069 254.095 1.32972 252.912 1.2865C251.728 1.24253 249.019 1.41234 248.221 1.21841C248.841 1.24444 249.631 1.25859 250.319 1.27974C250.599 1.24236 250.872 1.2055 251.148 1.16857C249.574 1.21585 247.947 1.1573 246.888 1.24706C244.789 1.10714 242.44 1.2345 243.076 1.39349C243.767 1.37065 243.015 1.30172 243.975 1.34573C244.074 1.38251 244.177 1.41907 244.276 1.45578C242.641 1.45182 241.506 1.45298 242.252 1.34012C241.998 1.33739 241.747 1.33467 241.494 1.33193C241.448 1.41375 241.408 1.49591 241.362 1.57781C241.06 1.58724 240.756 1.59663 240.453 1.60612C240.117 1.58835 239.78 1.57031 239.439 1.55218C239.897 1.42141 240.677 1.41774 238.097 1.34441C238.089 1.38968 238.078 1.43476 238.07 1.48004C235.91 1.42323 235.853 1.3124 233.141 1.31589C235.222 1.15737 236.36 1.4389 236.353 1.12156C236.875 1.14284 237.401 1.16429 237.923 1.18534C238.003 1.13965 238.081 1.09393 238.157 1.0483C235.354 1.06742 230.698 1.37296 228.821 1.16716C228.594 1.19211 228.367 1.21382 228.136 1.24077C226.297 1.11468 225.503 1.39605 223.638 1.23267C223.446 1.21534 223.849 0.949603 221.421 0.955597C221.481 0.99056 221.513 1.04929 221.562 1.09331C221.036 1.07144 220.513 1.04846 219.991 1.02588C219.897 1.05814 219.798 1.09042 219.703 1.12298C220.6 1.13629 221.494 1.1497 222.39 1.1628C221.645 1.1733 220.896 1.18389 220.151 1.19456C221.123 1.24799 221.561 1.24847 220.975 1.33283C220.132 1.33777 219.287 1.34306 218.443 1.34808C218.356 1.3699 218.27 1.39199 218.183 1.41385C218.592 1.47893 219.004 1.54233 219.413 1.60787C217.215 1.55629 215.304 1.55482 213.617 1.4253C213.329 1.40339 214.346 1.31714 212.387 1.39497C212.357 1.34919 212.304 1.312 212.27 1.26965C209.872 1.39737 209.084 1.36023 206.583 1.26505C208.202 1.35341 206.758 1.29579 206.345 1.34294C206.063 1.37544 207.166 1.37067 207.041 1.40463C206.916 1.43819 205.483 1.57553 206.708 1.5912C209.712 1.31137 210.53 1.6428 214.389 1.50832C213.795 1.54375 213.197 1.57946 212.603 1.61529C212.883 1.63906 213.133 1.66058 213.436 1.68568C211.283 1.6341 212.33 1.66785 211.446 1.71121C210.561 1.75457 208.952 1.79293 207.874 1.80621C207.534 1.81036 207.892 1.74744 207.126 1.74249C206.604 1.73891 205.177 1.83408 204.848 1.7243C204.632 1.65235 206.924 1.45452 203.755 1.45577C203.158 1.38526 204.678 1.40703 204.711 1.39855C204.987 1.31507 203.039 1.25123 202.138 1.31536C202.065 1.32095 202.776 1.38661 202.003 1.41246C200.168 1.47443 199.109 1.39931 197.921 1.29563C197.792 1.41649 196.248 1.56238 194.326 1.51825C194.228 1.55335 194.134 1.58878 194.036 1.6242C194.334 1.60541 194.633 1.58692 194.931 1.56823C195.257 1.58999 195.601 1.60571 195.919 1.63126C193.986 1.66262 193.713 1.83208 192.786 1.89557C189.615 2.11353 191.537 1.65956 192.109 1.58228C192.521 1.61338 192.92 1.64802 193.328 1.68046C193.283 1.63771 193.237 1.59462 193.195 1.55157C188.448 1.55511 192.472 1.27313 190.063 1.19239C189.442 1.40438 187.672 1.42653 185.418 1.28938C185.168 1.29039 184.918 1.29061 184.668 1.29189C184.626 1.32337 184.627 1.37151 184.559 1.39227C181.843 1.42966 181.359 1.09375 181.102 1.06154C179.959 0.918976 179.07 1.11395 178.733 1.11561C177.314 1.12151 176.902 1.03331 175.552 1.06987C174.099 1.1096 175.093 1.17818 174.651 1.23858C174.296 1.28663 173.15 1.29494 172.677 1.34513C172.865 1.30407 173.074 1.26386 173.262 1.22278C171.756 1.16622 170.526 1.11041 168.817 1.09524C166.887 1.39888 165.246 0.882455 165.912 1.30165C167.531 1.33065 168.436 1.37832 169.302 1.48387C168.24 1.49769 167.176 1.51127 166.113 1.52533C165.803 1.47948 165.583 1.43468 165.216 1.38776C164.422 1.48572 162.58 1.44416 161.857 1.47322C158.472 1.60997 159.519 1.78161 156.429 1.49613C158.656 1.46734 158.653 1.32885 160.862 1.34815C160.385 1.24965 159.262 1.26949 159.989 1.15148C157.852 1.17937 158.542 1.28587 157.711 1.38011C156.993 1.46148 155.549 1.46652 155.63 1.57285C155.483 1.51447 155.368 1.45788 155.221 1.39944C153.837 1.40011 152.452 1.40023 151.068 1.40091C151.658 1.33909 152.248 1.27746 152.838 1.21651C152.392 1.1931 151.945 1.16969 151.5 1.14611C148.095 1.33785 142.224 0.977589 143.162 1.47047C141.52 1.4866 141.315 1.42477 140.422 1.33078C140.324 1.36845 140.228 1.3998 140.13 1.44179C139.071 1.40232 138.258 1.54463 137.323 1.50803C136.389 1.47161 136.157 1.33635 136.021 1.56358C135.416 1.4987 134.814 1.44458 134.213 1.38377C133.85 1.43562 133.487 1.48701 133.128 1.53884C132.561 1.51182 131.992 1.4848 131.425 1.45755C131.121 1.56735 128.89 1.5208 127.907 1.59556C126.973 1.47682 126.999 1.10003 124.802 1.16631C124.859 1.26023 124.915 1.35383 124.972 1.44767C124.469 1.42817 123.964 1.40865 123.458 1.389C123.427 1.35826 123.401 1.32751 123.371 1.29675C123.628 1.30632 123.882 1.31582 124.139 1.32566C123.916 1.27369 123.697 1.22188 123.478 1.16974C122.71 1.24642 121.941 1.32355 121.17 1.40111C122.21 1.45974 123.25 1.51796 124.29 1.57569C122.985 1.64551 122.077 1.57689 120.942 1.65509C119.955 1.52481 120.319 1.44874 120.72 1.30677C120.353 1.31884 119.982 1.33052 119.615 1.34266C119.857 1.20026 119.237 1.11501 121.381 1.12786C121.234 1.0873 121.083 1.04858 120.94 1.00635C120.588 1.01242 120.36 0.977919 119.974 0.993202C118.922 1.0349 118.116 1.28564 118.188 1.37381C118.227 1.4199 119.264 1.33181 119.222 1.39688C119.12 1.55529 116.741 1.48568 120.172 1.64298C119.033 1.74458 118.779 1.66889 117.523 1.64034C117.621 1.69335 117.716 1.74599 117.811 1.79893C117.229 1.7751 116.646 1.75124 116.063 1.72719C116.873 1.4541 112.579 1.34966 116.444 1.1117C115.302 1.0987 114.164 1.08554 113.025 1.07169C113.26 1.04356 113.494 1.01576 113.729 0.987718C114.243 1.00314 114.754 1.01827 115.269 1.03326C114.664 0.981305 114.058 0.929431 113.452 0.877029C112.023 0.939365 111.462 1.03779 110.808 1.15978C112.472 1.24977 111.928 1.12766 113.225 1.10445C113.179 1.18147 113.239 1.25235 113.126 1.33328C112.456 1.17348 110.27 1.28895 109.763 1.29695C108.221 1.32058 109.43 1.16255 108.398 1.15872C107.366 1.15473 106.148 1.24935 105.304 1.09045C105.319 1.17928 105.387 1.27118 105.447 1.35202C103.839 1.38117 104.16 1.27599 103.994 1.26232C101.338 1.03685 99.897 1.22526 96.8592 1.24823C97.245 1.2764 97.6348 1.30178 98.0244 1.32812C95.7327 1.5201 97.2765 1.46163 99.2662 1.52415C97.4012 1.50543 96.3331 1.66956 95.0166 1.71964C93.7003 1.76961 91.4428 1.68679 90.6178 1.62057C92.5056 1.51273 94.5416 1.58236 96.6374 1.55218C96.3992 1.45995 96.1676 1.38178 95.9218 1.28012C94.6471 1.47419 93.9084 1.34448 93.4885 1.31836C92.2556 1.24205 92.2943 1.41016 91.5492 1.22909C91.5795 1.29136 91.6016 1.34371 91.6318 1.40186C89.086 1.3764 86.3399 1.26383 84.6829 1.49758C84.5316 1.34571 84.4174 1.19928 84.2434 1.04398C83.1654 1.15779 82.2422 1.03981 81.3344 1.06596C80.4302 1.09233 80.7744 1.21634 79.7115 1.26385C79.5148 1.27262 79.1051 1.19468 78.6209 1.25194C78.132 1.30899 76.3287 1.74081 76.1131 1.36387C75.2014 1.36208 74.3387 1.34822 73.446 1.34173C74.316 1.32041 75.1863 1.29988 76.0526 1.27881C75.3112 1.18723 74.5744 1.09547 73.833 1.00299C73.7384 1.08482 73.6436 1.16819 73.5528 1.24906C71.5554 1.34858 70.1059 1.21376 68.0896 1.24497C67.7529 1.25032 68.5472 1.41439 67.0534 1.37256C65.5592 1.33101 64.4503 1.02181 61.9046 1.13974C61.776 1.14574 61.0222 1.38362 60.1104 1.21845C59.903 1.18092 60.7762 1.12602 60.2999 1.07664C59.8233 1.02724 57.6965 0.985064 57.53 0.867099C57.5527 0.908801 57.6854 0.952104 57.7498 0.994546C57.3867 1.01416 57.0199 1.03383 56.6531 1.05316C56.619 0.979595 56.5823 0.905906 56.5483 0.832681C54.4601 1.00121 53.3809 1.28253 50.2867 1.18817C51.1568 1.29676 52.0271 1.40519 52.8933 1.51259C53.1317 1.4369 53.3704 1.36081 53.605 1.28535C55.0309 1.31575 56.4609 1.34566 57.8869 1.37552C58.1214 1.29037 58.3518 1.20559 58.5864 1.12069C58.9646 1.13193 59.3391 1.14281 59.7173 1.154C59.6228 1.21528 59.5274 1.27626 59.4291 1.33761C60.1779 1.32261 60.9277 1.30736 61.6728 1.29251C60.1559 1.6535 57.4367 1.26132 57.6328 1.56497C57.2963 1.51792 56.9594 1.47044 56.6229 1.42282C56.4753 1.57058 55.791 1.52841 54.5847 1.50533C54.8609 1.57838 55.1659 1.65029 55.4193 1.72384C54.2466 1.62165 52.1663 1.63262 50.952 1.59322C50.4187 1.57587 50.9514 1.46719 50.7927 1.4545C49.9794 1.38782 48.4248 1.57797 48.0994 1.56322C46.155 1.47493 44.8915 1.11067 42.7692 1.35034C44.9596 1.40967 43.768 1.38467 44.5473 1.51766C44.7913 1.55943 47.621 1.64483 44.0776 1.60797C43.6622 1.60427 37.2327 1.35186 39.3462 1.15697C38.3058 1.21857 37.4913 1.29036 36.5379 1.35659C34.2076 0.83957 35.0141 1.32542 35.6912 1.59239C35.3092 1.59372 34.9457 1.59659 34.5522 1.59677C35.3883 1.31583 31.1289 1.2971 29.6837 1.44064C29.1995 1.48847 30.5534 1.57887 29.4337 1.62233C28.9006 1.60267 28.2957 1.57708 27.7323 1.55493C28.5494 1.73484 26.9458 1.80537 26.9682 1.98935C25.9431 1.82701 25.159 1.47862 25.7224 1.28996C24.8751 1.36619 24.0235 1.44273 23.1762 1.52014C23.5697 1.56396 23.9682 1.60729 24.3616 1.65091C21.5924 1.53543 18.0318 1.80446 17.4529 1.41128C17.086 1.41411 16.7151 1.41656 16.3482 1.4194C16.2347 1.486 16.125 1.55277 16.0115 1.61946C14.3512 1.56246 12.6945 1.5045 11.0342 1.44637C12.5126 1.40436 12.8645 1.30921 14.4149 1.38655C13.8174 1.30968 13.2089 1.23212 12.6227 1.15472C10.2886 1.36154 9.97021 1.49981 6.45594 1.43782C6.29705 1.43519 3.64175 1.25829 3.55096 1.24077C3.13499 1.16167 3.76641 1.04725 3.58119 1.00728C3.0667 0.895582 -0.0596619 0.609726 0.000867262 0.566791C0.765057 0.0432435 11.2838 0.065341 14.1286 0.0462424C43.6363 -0.137605 72.4941 0.286318 101.816 0.297746C102.118 0.29771 101.986 0.235045 102.115 0.232717C102.913 0.219283 103.697 0.31819 103.992 0.322857C104.622 0.332637 104.275 0.2425 104.736 0.243666C109.495 0.257633 113.986 0.32075 118.748 0.318052C119.059 0.317887 118.742 0.38606 119.287 0.375205C119.568 0.369162 120.448 0.265907 121.083 0.266121C123.3 0.266813 125.162 0.305341 127.5 0.309921C128.778 0.312401 130.697 0.326243 132.126 0.328458C132.758 0.32944 133.415 0.284489 134.039 0.284687C134.925 0.285001 134.744 0.378805 134.88 0.385016C135.478 0.412065 135.56 0.308917 136.128 0.312945C137.183 0.32075 137.24 0.389576 138.579 0.387134C139.536 0.385209 141.727 0.337132 142.934 0.324812C145.756 0.410878 149.312 0.388416 151.945 0.370277C153.504 0.359496 153.648 0.452037 154.284 0.453277C156.523 0.456804 158.222 0.344759 160.325 0.347104C163.117 0.350231 165.59 0.432592 168.294 0.444769C168.733 0.446741 168.632 0.36543 169.062 0.364572C170.655 0.361424 172.692 0.352705 174.11 0.368151C175.691 0.385278 176.275 0.50192 177.822 0.482386C178.275 0.476594 178.408 0.376555 179.168 0.36593C180.383 0.34936 181.714 0.441026 182.561 0.452931C183.723 0.469033 182.713 0.365391 184.279 0.383425C184.343 0.384205 184.578 0.456679 184.914 0.454137C185.894 0.44707 185.796 0.390498 187.23 0.399984C187.368 0.401209 189.269 0.47412 189.458 0.474799C190.57 0.478875 192.809 0.508152 193.468 0.495683C195.821 0.451498 193.968 0.342445 195.969 0.574457C196.851 0.521121 197.725 0.467451 198.659 0.416706C198.035 0.464957 200.565 0.543505 200.743 0.539197C202.214 0.505787 201.338 0.416861 203.203 0.436547C200.74 0.629346 205.608 0.468439 206.694 0.467006C211.922 0.457715 216.674 0.519548 221.929 0.532462C223.688 0.536712 226.045 0.504056 227.906 0.510468C228.34 0.511772 228.012 0.554384 228.394 0.556372C228.775 0.558065 228.352 0.508069 228.787 0.5119C231.492 0.537027 233.611 0.632483 236.089 0.527034C236.209 0.543607 236.206 0.556417 236.405 0.574772C238.433 0.480482 242.338 0.625753 243.806 0.64691C246.102 0.680683 246.688 0.616538 248.356 0.634251C250.561 0.658011 253.873 0.791238 252.394 0.58068C253.907 0.578542 255.363 0.581147 256.891 0.604442C257.061 0.607071 256.944 0.658464 257.012 0.659711C257.443 0.668256 257.584 0.622408 257.875 0.621115C258.665 0.617599 257.376 0.669324 258.502 0.656913C259.096 0.650235 259.433 0.611101 261.083 0.615005C271.024 0.639126 281.818 0.68363 292.009 0.717771C292.709 0.720093 292.248 0.675289 293.126 0.680659C296.175 0.699824 301.633 0.785782 304.262 0.782794C306.891 0.78028 306.298 0.718822 307.943 0.698927C308.261 0.695068 308.001 0.728119 308.288 0.729484C310.221 0.738457 312.526 0.796937 314.092 0.808645C315.128 0.816527 315.045 0.764738 315.763 0.763159C316.834 0.761023 317.936 0.815621 318.507 0.8187C321.192 0.832837 323.039 0.79746 325.547 0.824856C325.448 0.8138 325.384 0.803625 325.301 0.792745C328.27 0.803034 331.236 0.81324 334.205 0.823375C334.065 0.813541 333.93 0.80362 333.79 0.793593C337.274 0.809326 336.876 0.908908 336.57 0.694747C336.823 0.688132 337.092 0.680412 337.334 0.674418C337.236 0.783831 339.343 0.870032 342.025 0.90371C342.222 0.90606 343.542 0.806271 343.398 0.927969C343.742 0.898952 343.947 0.878971 344.238 0.853668C344.806 0.892069 345.381 0.929715 345.948 0.967293C346.254 0.962549 346.565 0.958031 346.871 0.953342C346.917 0.929981 346.882 0.905519 346.98 0.882751C348.402 0.883217 351.319 0.919524 352.443 0.91942C355.235 0.918859 358.078 0.867846 360.249 0.937456C361.307 0.933784 360.256 0.888363 361.83 0.898245C362.007 0.920157 362.174 0.941089 362.36 0.963535C363.645 0.871689 363.914 0.930793 365.676 0.954718C366.868 0.97099 367.648 0.950335 368.783 0.957759C369.07 0.959644 369.03 0.986387 369.226 0.985994C369.885 0.984721 371.765 0.953059 372.23 0.953456C376.444 0.95538 380.064 0.969766 384.078 0.989438C384.509 0.99151 383.95 0.965991 384.396 0.968263C385.114 0.971893 384.692 1.00741 385.108 1.01028C386.268 1.018 386.277 0.979656 387.896 0.982282C393.226 0.991216 399.354 1.03519 404.923 1.0516C405.097 1.05206 405.086 1.03256 405.275 1.0329C406.508 1.03549 407.756 1.06474 408.876 1.06726C410.733 1.07157 412.129 1.0494 413.964 1.05478C417.55 1.0651 420.755 1.08636 424.443 1.09681C427.462 1.10548 430.084 1.11044 433.394 1.11951C447.853 1.15547 462.607 1.16622 477.164 1.22615C477.535 1.22761 477.384 1.23428 477.497 1.23429C478.571 1.23419 478.667 1.2253 479.049 1.24583C480.418 1.24556 480.85 1.23275 482.502 1.23879C483.383 1.24197 482.726 1.26078 484.216 1.25426C485.562 1.24856 484.077 1.23378 488.079 1.25655C488.184 1.2572 488.706 1.26985 489.538 1.26923C490.374 1.26882 489.406 1.25815 491.419 1.26211C496.144 1.2722 502.124 1.29827 507.617 1.31287C507.961 1.31372 511.277 1.32127 511.931 1.32244C513.198 1.32445 512.933 1.32037 514.578 1.32571C515.849 1.32997 516.898 1.3366 518.392 1.34128C518.566 1.34182 518.858 1.34051 519.981 1.34507ZM241.498 1.64877C241.187 1.71702 240.628 1.96963 238.752 1.89643C238.574 1.88933 239.534 1.71406 238.498 1.68751C239.512 1.66804 240.499 1.66115 241.498 1.64851C241.498 1.64859 241.498 1.64868 241.498 1.64877ZM528.111 1.37761C526.708 1.38014 525.299 1.38251 523.896 1.38468C524.864 1.38256 525.834 1.38074 526.799 1.37924C527.238 1.37889 527.672 1.37835 528.111 1.37761ZM353.397 1.62285C353.398 1.62285 353.4 1.62284 353.401 1.62284C351.926 1.64466 350.449 1.66702 348.974 1.68984C349.129 1.67466 349.285 1.65947 349.44 1.64437C350.605 1.61921 351.77 1.59454 352.931 1.57031C353.086 1.58787 353.242 1.60538 353.397 1.62285ZM365.053 1.46282C365.995 1.47842 365.765 1.50562 366.283 1.53147C366.283 1.53142 366.283 1.53137 366.283 1.53132C366.42 1.53805 367.057 1.54337 367.303 1.54413C367.212 1.52743 367.095 1.51094 366.996 1.49432C369.194 1.4537 373.493 1.58858 367.928 1.65502C368.011 1.63375 368.091 1.61263 368.174 1.59143C365.408 1.60165 362.325 1.55736 365.053 1.46282ZM219.262 1.78696C216.901 1.92342 216.144 1.95473 213.28 1.86624C213.685 1.82712 214.089 1.78816 214.494 1.74934C214.967 1.78788 215.436 1.82599 215.909 1.86418C215.91 1.86418 215.912 1.86417 215.913 1.86417C216.008 1.82314 216.103 1.78207 216.193 1.74112C217.215 1.75656 218.24 1.77185 219.262 1.78696ZM455.416 1.43808C456.074 1.50016 455.884 1.46368 454.005 1.48054C453.354 1.4865 453.988 1.49681 453.584 1.49933C451.398 1.51353 451.223 1.46915 451.711 1.44562C452.948 1.44295 454.198 1.44048 455.412 1.43809C455.413 1.43809 455.415 1.43808 455.416 1.43808ZM512.131 1.3877C512.132 1.3877 512.134 1.3877 512.135 1.3877C512.192 1.39102 511.31 1.39291 512.304 1.39511C511.548 1.39595 510.792 1.39677 510.032 1.3976C510.255 1.39699 510.483 1.39641 510.706 1.39582C510.509 1.39475 510.312 1.39362 510.115 1.39247C509.846 1.39713 509.597 1.39489 508.802 1.39397C509.022 1.39885 509.24 1.40357 509.46 1.40811C508.537 1.40816 507.611 1.408 506.688 1.40763C506.676 1.40623 506.665 1.40483 506.653 1.40342C506.306 1.40566 505.961 1.40799 505.613 1.4104C505.519 1.40876 505.428 1.40712 505.333 1.40544C504.913 1.40732 504.493 1.40927 504.073 1.41131C503.945 1.40687 504.87 1.4038 503.23 1.40691C503.733 1.40145 504.236 1.3963 504.742 1.39142C507.205 1.39029 509.668 1.38906 512.131 1.3877ZM438.319 1.47625C441.031 1.47016 440.267 1.48269 439.639 1.52154C439.201 1.50667 438.758 1.49158 438.319 1.47625ZM298.577 1.54299C297.79 1.61037 297 1.67777 296.194 1.74418C294.59 1.78483 292.986 1.66273 294.192 1.6126C295.645 1.5531 297.162 1.61634 298.577 1.54299ZM262.044 1.60383C264.007 1.63792 262.16 1.73124 261.718 1.78587C261.175 1.70037 260.418 1.70878 259.202 1.70017C260.343 1.69298 261.72 1.5979 262.044 1.60359C262.044 1.60367 262.044 1.60375 262.044 1.60383ZM330.159 1.58495C330.946 1.58236 331.728 1.56566 332.431 1.58428C332.219 1.63898 330.812 1.59118 331.818 1.67087C331.315 1.67301 330.811 1.67511 330.312 1.67742C330.63 1.64316 330.203 1.6185 330.161 1.58513C330.16 1.58507 330.16 1.58501 330.159 1.58495ZM412.039 1.54333C410.495 1.50709 410.203 1.52333 408.648 1.55294C408.429 1.52092 410.283 1.46546 411.444 1.45342C411.641 1.48354 411.838 1.51353 412.039 1.54333ZM46.9564 1.99898C47.327 1.83392 50.0612 1.81045 51.4197 1.85724C51.2579 1.88156 51.0956 1.90623 50.9338 1.93097C49.6098 1.95345 48.2804 1.97614 46.9564 1.99898ZM258.623 1.69463C258.827 1.69709 259.02 1.69887 259.202 1.70017C258.999 1.70141 258.804 1.70008 258.623 1.69463ZM176.445 1.26969C177.092 1.15673 175.169 1.11753 177.503 1.16333C177.503 1.16322 177.503 1.16312 177.503 1.16301C179.047 1.19305 179.387 1.20089 180.817 1.21032C180.303 1.35356 177.402 1.40601 181.4 1.43506C181.453 1.43518 181.348 1.34977 181.987 1.36149C182.184 1.36515 182.815 1.43505 183.775 1.45504C184.085 1.4615 186.416 1.48217 183.239 1.48451C183.333 1.58397 183.163 1.6848 183.17 1.78138C181.93 1.81115 180.976 1.61628 179.664 1.62178C177.716 1.63045 176.725 1.83252 176.35 1.56912C177.988 1.50341 180.801 1.50157 181.168 1.65746C182.753 1.6579 183.208 1.5305 181.93 1.46763C176.456 1.5501 180.428 1.27665 175.634 1.37995C175.578 1.41669 175.381 1.4563 175.411 1.49086C173.948 1.36157 176.214 1.30996 176.445 1.26969ZM187.891 1.54442C186.946 1.61985 186.003 1.69651 185.061 1.77346C185.061 1.65025 185.58 1.53912 187.071 1.46975C187.343 1.49479 187.619 1.51976 187.891 1.54442ZM108.334 1.62313C108.198 1.70514 107.835 1.78059 107.57 1.85904C107.282 1.79064 100.473 1.72917 103.937 1.65787C104.44 1.64791 107.509 1.79068 108.334 1.62313ZM422.756 1.49696C421.954 1.48404 421.155 1.47078 420.357 1.45723C421.585 1.44735 422.815 1.43754 424.044 1.42811C423.613 1.45078 423.186 1.47374 422.756 1.49696ZM285.522 1.46925C285.861 1.47085 284.736 1.53667 286.07 1.52559C285.075 1.5678 284.144 1.60402 283.171 1.64465C282.88 1.61384 282.586 1.58305 282.294 1.55202C282.067 1.57223 281.836 1.59239 281.609 1.61272C281.745 1.56695 281.866 1.52233 282.01 1.47594C283.648 1.57261 284.024 1.46195 285.522 1.46925ZM334.229 1.31032C334.524 1.38812 332.152 1.43543 334.485 1.44716C334.043 1.49851 333.331 1.52605 331.965 1.53176C331.746 1.5121 331.527 1.49251 331.308 1.47271C331.278 1.526 330.926 1.54597 330.159 1.58495C330.158 1.58489 330.158 1.58483 330.157 1.58476C328.081 1.59083 328.205 1.57284 327.706 1.48402C329.904 1.5329 329.969 1.45161 331.467 1.40393C332.496 1.3712 333.84 1.38581 334.229 1.31032ZM115.589 1.61697C114.035 1.75805 115.43 1.88841 112.672 1.74141C112.85 1.70542 113.029 1.66979 113.207 1.63389C114.001 1.62787 114.795 1.62228 115.589 1.61697ZM341.9 1.56987C341.722 1.45439 340.259 1.36314 340.009 1.55407C341.435 1.59132 340.739 1.48472 341.9 1.56987ZM262.713 1.34447C265.456 1.35282 264.937 1.53683 263.81 1.63094C263.636 1.59731 263.462 1.56356 263.292 1.53001C262.812 1.54565 262.331 1.56142 261.851 1.57702C262.138 1.49932 262.426 1.42167 262.713 1.34447ZM390.249 1.42544C388.153 1.48811 392.511 1.45811 391.047 1.49722C389.878 1.52902 388.337 1.46807 388.92 1.42842C389.325 1.42718 389.775 1.42626 390.244 1.42544C390.246 1.42544 390.247 1.42544 390.249 1.42544ZM378.121 1.4488C378.465 1.51993 377.969 1.49935 379.624 1.48542C380.097 1.48155 383.855 1.50486 382.277 1.4485C380.935 1.44916 379.516 1.44884 378.121 1.4488ZM231.013 1.54712C230.987 1.48525 233.881 1.35068 234.252 1.38435C234.252 1.38426 234.252 1.38417 234.252 1.38408C235.255 1.47473 232.203 1.48892 233.526 1.61354C230.595 1.50479 229.718 1.77471 229.922 1.41921C231.649 1.40344 230.831 1.47655 231.013 1.54712ZM11.0563 1.54197C11.055 1.54198 11.0536 1.54198 11.0523 1.54198C11.2466 1.54707 12.8477 1.70292 12.653 1.75711C10.7276 1.71214 11.0707 1.60802 9.27827 1.77951C9.18 1.72472 9.09581 1.67155 8.98999 1.61631C9.7012 1.5834 10.0954 1.51752 11.0563 1.54197ZM100.972 1.44931C101.679 1.42618 102.97 1.52137 103.776 1.51535C101.211 1.88292 98.1461 1.54252 100.972 1.44931ZM485.605 1.40643C485.603 1.40644 485.601 1.40646 485.599 1.40647C485.599 1.40645 485.6 1.40643 485.601 1.40641C485.602 1.40641 485.604 1.40642 485.605 1.40643ZM155.791 1.63234C155.7 1.61159 155.649 1.59354 155.63 1.57768C155.63 1.57618 155.63 1.57469 155.63 1.5732C155.679 1.59266 155.732 1.61234 155.791 1.63234ZM224.999 1.56949C223.794 1.48211 227.809 1.34287 229.108 1.37618C229.017 1.41557 229.003 1.45126 228.791 1.49662C227.743 1.39448 225.2 1.58366 224.999 1.56949ZM316.543 1.48899C313.369 1.48834 317.5 1.24621 317.67 1.43824C317.664 1.4419 316.625 1.48856 316.543 1.48899ZM250.029 1.52042C250.838 1.42426 249.213 1.39919 251.811 1.41535C251.962 1.44001 252.114 1.4647 252.265 1.48929C251.52 1.49954 250.774 1.51001 250.029 1.52042ZM295.751 1.15231C291.756 1.19234 287.936 1.27333 290.538 1.49955C290.84 1.49213 291.147 1.48498 291.449 1.47762C291.494 1.3677 292.61 1.42764 294.243 1.43067C294.476 1.38749 295.381 1.37755 295.551 1.34117C295.88 1.27098 294.839 1.22069 295.751 1.15231ZM464.403 1.36344C464.339 1.3685 464.276 1.37359 464.212 1.37863C463.58 1.38438 462.946 1.39028 462.315 1.39637C462.417 1.3863 462.519 1.37627 462.621 1.36629C463.215 1.3653 463.806 1.36434 464.399 1.36341C464.4 1.36342 464.402 1.36343 464.403 1.36344ZM191.784 1.21324C191.421 1.50677 192.689 1.45136 195.262 1.30498C194.104 1.27471 192.942 1.24413 191.784 1.21324ZM359.943 1.27375C360.026 1.3155 360.108 1.35705 360.195 1.39867C361.56 1.35517 361.307 1.30835 360.652 1.25287C360.414 1.25978 360.181 1.26678 359.943 1.27375ZM379.614 1.27012C379.048 1.26201 379.337 1.29202 379.278 1.29138C377.844 1.27492 377.642 1.26062 375.883 1.28239C375.667 1.29026 375.455 1.29858 375.24 1.30676C376.053 1.38632 376.643 1.3434 378.364 1.38932C378.054 1.36266 377.745 1.33579 377.435 1.30868C378.392 1.31479 379.345 1.32071 380.302 1.3266C380.415 1.31852 380.529 1.31053 380.642 1.30248C380.302 1.29189 379.951 1.27992 379.614 1.27012ZM471.709 1.37775C472.64 1.37889 473.574 1.38002 474.505 1.38105C474.539 1.37416 474.572 1.36723 474.606 1.36037C473.641 1.36585 472.673 1.37165 471.709 1.37775ZM172.677 1.34513C172.603 1.36124 172.531 1.37746 172.467 1.39396C172.474 1.37385 172.554 1.35816 172.677 1.34513ZM8.60091 1.17868C7.54562 1.13182 6.02491 1.16165 4.86737 1.15138C4.95837 1.31916 7.90043 1.27345 8.93354 1.37441C9.09955 1.34455 9.04698 1.19841 8.60091 1.17868ZM266.507 1.35232C266.772 1.31048 267.037 1.26898 267.298 1.2274C267.937 1.23226 268.578 1.23735 269.221 1.24215C269.24 1.20825 269.258 1.17406 269.277 1.14017C266.444 1.18185 267.098 1.08439 265.695 0.984671C265.967 1.10753 266.235 1.23001 266.507 1.35232ZM501.319 1.35481C499.273 1.35543 498.547 1.36042 499.7 1.37208C500.423 1.36961 501.149 1.36734 501.872 1.36526C501.686 1.36185 501.501 1.35836 501.319 1.35481ZM135.404 1.22559C133.692 1.28287 133.663 1.07473 131.989 1.19021C132.886 1.22913 133.782 1.26823 134.674 1.30663C134.916 1.27963 135.163 1.25249 135.404 1.22559ZM219.401 0.810906C218.678 0.752371 217.328 1.02149 215.296 0.817422C214.812 0.87666 214.509 0.933732 214.093 0.992304C213.851 0.927736 213.576 0.862138 213.345 0.797777C213.343 0.797774 213.342 0.797772 213.341 0.797769C211.498 0.816151 212.693 0.89945 212.651 0.967781C212.632 0.996187 211.264 0.946871 211.692 1.00941C212.429 1.11661 215.186 1.05821 215.193 1.18656C214.225 1.14393 212.334 1.17781 212.893 1.26447C213.506 1.35908 215.288 1.20174 216.423 1.28014C214.797 1.07458 218.156 1.14068 218.538 1.2964C220.509 1.17764 218.697 1.12824 216.677 1.13201C217.91 1.01303 216.095 1.07632 215.796 0.975756C217.068 0.916946 221.432 0.973571 219.401 0.810906ZM312.388 1.13463C311.026 1.1387 308.898 1.08764 307.965 1.1583C307.422 1.19977 309.555 1.23334 308.084 1.29809C309.412 1.29214 309.714 1.26693 309.488 1.20968C309.79 1.20305 310.096 1.19662 310.399 1.19022C310.539 1.20144 310.682 1.21249 310.822 1.22367C310.981 1.20042 311.141 1.17742 311.296 1.15427C311.617 1.15919 311.942 1.1641 312.263 1.16915C312.301 1.15752 312.366 1.14744 312.388 1.13463ZM86.2291 1.2138C86.6073 1.21256 86.9818 1.21132 87.36 1.20974C87.3184 1.1817 87.2687 1.1525 87.2209 1.12367C87.1867 1.10089 87.1524 1.0781 87.1181 1.05531C87.3373 1.13702 89.1391 1.27232 89.8981 1.18619C90.2797 1.14315 89.4113 0.988648 91.0291 0.963383C89.8567 0.970151 88.7706 0.990166 87.6322 1.00233C87.7343 0.956485 87.8324 0.91018 87.9346 0.864402C87.9339 0.864334 87.9333 0.864265 87.9326 0.864196C87.5544 0.853407 87.1717 0.842089 86.7936 0.831245C86.6044 0.958679 86.4183 1.08604 86.2291 1.2138ZM358.834 1.19009C357.544 1.22336 357.112 1.24157 357.721 1.29834C357.722 1.29837 357.724 1.2984 357.725 1.29842C358.206 1.27364 358.686 1.24907 359.167 1.22471C359.057 1.21321 358.947 1.20164 358.834 1.19009ZM161.565 0.943798C158.823 1.40297 164.999 1.12376 163.823 0.967688C163.77 0.960435 161.822 0.994954 161.565 0.943798ZM262.209 1.24158C262.962 1.23925 263.717 1.23721 264.473 1.23493C264.299 1.19409 264.121 1.15332 263.947 1.11232C263.368 1.15505 262.788 1.19828 262.209 1.24158ZM492.409 1.32698C491.616 1.31363 489.583 1.30446 488.589 1.31791C489.111 1.32044 489.633 1.32289 490.155 1.32528C489.168 1.32559 488.192 1.32623 487.198 1.3267C487.145 1.34646 488.291 1.33615 490.016 1.34298C490.283 1.34436 491.99 1.36724 492.58 1.35128C492.699 1.34815 490.882 1.34411 492.145 1.33558C491.593 1.33418 491.116 1.3338 490.594 1.33275C490.557 1.32837 490.519 1.32398 490.477 1.31957C491.123 1.32212 491.764 1.3246 492.409 1.32698ZM304.458 1.13412C302.587 1.12609 302.356 1.16911 301.966 1.24568C302.836 1.23749 303.707 1.22953 304.577 1.22154C304.535 1.19248 304.499 1.16339 304.458 1.13412ZM475.684 1.29801C474.66 1.29351 475.099 1.3089 474.687 1.3112C473.128 1.32011 472.065 1.308 470.526 1.31328C470.628 1.31031 470.722 1.30754 470.82 1.30469C470.819 1.30468 470.817 1.30468 470.816 1.30468C463.526 1.2812 467.355 1.32487 471.717 1.32235C471.819 1.32828 471.917 1.33417 472.019 1.33999C473.971 1.33109 475.772 1.32377 475.684 1.29801ZM185.932 0.957849C185.849 0.935703 186.556 0.796965 185.228 0.860424C184.177 1.06371 185.901 0.964333 186.333 1.04321C185.974 1.06243 185.606 1.08116 185.251 1.1005C187.399 1.15978 187.713 1.11172 186.93 0.962225C186.874 0.952144 186.015 0.979872 185.932 0.957849ZM171.81 0.835783C171.515 1.14879 174.227 1.01028 174.129 0.913943C173.754 0.909579 173.463 0.961998 173.066 0.938167C172.665 0.914295 172.563 0.841159 171.81 0.835783ZM249.503 1.01359C249.423 1.01247 248.625 0.908113 248.705 0.989031C249.692 1.18141 251.681 1.06026 251.333 0.994213C250.675 0.996545 250.237 1.02453 249.503 1.01333C249.503 1.01342 249.503 1.01351 249.503 1.01359ZM504.75 1.33918C504.713 1.33862 502.721 1.3315 502.464 1.33462C502.253 1.33831 502.147 1.34254 501.989 1.34661C503.086 1.34399 505.306 1.34966 504.746 1.33917C504.748 1.33917 504.749 1.33917 504.75 1.33918Z" fill="#3D3638"/>
</svg>
