<svg width="358" height="17" viewBox="0 0 358 17" fill="none" xmlns="http://www.w3.org/2000/svg">
<path d="M334.929 16.3896C335.826 16.5013 332.832 16.4382 334.82 16.6024C334.406 16.6159 333.988 16.6299 333.574 16.6436C333.469 16.5799 333.361 16.5163 333.256 16.4524C333.813 16.4313 334.37 16.4102 334.929 16.3893C334.929 16.3894 334.929 16.3895 334.929 16.3896ZM335.69 15.5888C335.179 15.7707 333.558 15.8232 335.31 15.9876C335.449 15.9248 335.591 15.8621 335.731 15.7995C336.339 15.8469 336.95 15.8939 337.559 15.9404C337.777 15.9163 337.996 15.8922 338.214 15.8685C338.493 15.9753 338.769 16.0821 339.047 16.1885C338.8 16.1736 338.549 16.1584 338.302 16.1435C337.325 16.2335 336.455 16.2606 335.128 16.2815C335.244 16.3068 335.361 16.3318 335.478 16.3571C334.804 16.3159 334.131 16.2743 333.46 16.2325C334.043 16.1875 334.694 16.1377 335.234 16.0963C334.37 15.9282 332.846 16.0263 332.053 16.0645C330.973 16.1164 331.217 16.0337 330.416 16.0702C330.288 16.0759 330.274 16.1405 330.021 16.1423C328.745 16.1513 326.266 16.1232 327.716 15.9674C329.816 15.982 331.607 15.8576 333.668 15.8976C333.123 15.7264 334.208 15.6658 335.69 15.5888ZM297.105 16.2437C297.742 16.147 299.038 16.1822 299.916 16.2448C299.917 16.2448 299.918 16.2448 299.919 16.2448C300.113 16.2586 300.55 16.3819 299.919 16.3789C298.891 16.3738 298.393 16.1776 297.854 16.3135C297.612 16.2892 297.358 16.2677 297.105 16.2437ZM294.87 16.2619C294.239 16.2147 294.525 16.0631 295.315 16.1021C295.315 16.102 295.315 16.1018 295.315 16.1017C295.645 16.118 294.998 16.2382 296.18 16.1148C296.421 16.2078 296.659 16.2922 296.898 16.3817C296.608 16.3842 296.344 16.3875 296.041 16.3897C296.245 16.2352 295.501 16.3086 294.87 16.2619ZM326.649 16.0461C326.55 16.1711 326.966 16.1693 327.673 16.2533C327.005 16.2514 326.337 16.2492 325.673 16.2472C325.999 16.1798 326.323 16.113 326.649 16.0461ZM342.338 16.0256C342.339 16.0256 342.34 16.0256 342.341 16.0256C342.56 16.0065 342.78 15.9873 342.996 15.9686C343.126 16.0102 343.256 16.0516 343.387 16.0931C343.909 16.065 344.434 16.0372 344.958 16.0094C345.371 15.9983 345.776 15.8203 346.06 15.5342C346.06 15.6097 345.663 16.0546 344.958 16.0773C344.481 16.1036 343.88 16.1212 343.464 16.1711C342.327 16.1362 341.779 16.063 341.705 15.9541C341.916 15.9779 342.125 16.0019 342.338 16.0256ZM156.423 15.6247C156.165 15.6854 155.909 15.7464 155.651 15.8074C155.995 15.8348 156.336 15.8556 156.682 15.8872C157.589 15.6228 157.674 15.8558 158.862 15.8382C162.502 15.7837 161.536 15.3834 164.824 15.9694C162.185 15.945 163.199 16.2208 161.608 16.439C161.278 16.276 162.855 15.9055 161.786 15.8305C159.945 16.0053 158.174 16.1703 156.131 16.2876C156.191 16.3161 156.25 16.3446 156.31 16.373C156.634 16.3543 156.955 16.3355 157.279 16.3168C156.929 16.3939 156.588 16.4705 156.232 16.5488C156.681 16.374 155.537 16.4739 155.69 16.2737C155.758 16.1846 156.264 16.0604 156.563 15.9752C155.793 15.9301 155.003 15.8887 154.224 15.8445C154.628 15.773 155.031 15.7016 155.431 15.6304C155.761 15.628 156.088 15.6263 156.417 15.6239C156.419 15.6241 156.421 15.6244 156.423 15.6247ZM19.8757 13.7864C20.3652 12.8932 21.5866 11.602 22.4672 11.1602C21.6026 12.0361 20.7402 12.9105 19.8757 13.7864ZM341.631 15.8643C341.742 15.8847 341.849 15.9049 341.96 15.9253C341.471 15.9646 340.979 16.0038 340.491 16.0435C340.397 15.9838 340.301 15.924 340.204 15.8644C340.679 15.8643 341.157 15.8644 341.631 15.8643ZM310.362 15.9986C310.72 15.9938 310.751 15.996 311.197 16.0045C311.196 16.0044 311.196 16.0044 311.195 16.0043C311.372 16.0075 312.849 16.0429 312.684 16.0942C311.951 16.0969 311.169 16.0981 310.418 16.0999C310.395 16.0662 310.39 16.0327 310.362 15.9986ZM318.993 16.009C318.994 16.0091 318.995 16.0092 318.996 16.0094C319.263 16.0163 319.516 16.0311 319.792 16.0333C318.8 16.1141 318.643 15.9736 317.742 16.0155C316.842 16.0578 316.285 16.1382 315.521 15.9446C315.805 15.9147 316.111 15.8724 316.404 15.8379C317.682 15.9135 318.027 15.8394 319.052 15.762C319.033 15.8445 319.013 15.9265 318.993 16.009ZM172.632 16.2045C172.876 16.06 173.149 16.2008 173.177 16.2024C173.177 16.2026 173.176 16.2027 173.176 16.2029C175.34 16.0656 172.894 16.2831 174.937 16.3011C174.633 16.3376 174.334 16.3761 174.033 16.4132C173.567 16.3451 173.086 16.2675 172.632 16.2045ZM242.971 16.0782C242.991 16.1133 243.015 16.1484 243.035 16.1835C241.807 16.178 241.494 16.3179 240.474 16.1936C241.306 16.1545 242.139 16.116 242.971 16.0778C242.971 16.0779 242.971 16.078 242.971 16.0782ZM304.174 15.7995C305.535 15.7417 306.542 15.7167 307.849 15.8022C307.85 15.8024 307.852 15.8025 307.853 15.8026C307.928 15.8078 307.563 15.8688 307.662 15.8839C307.931 15.8744 308.21 15.86 308.483 15.8488C308.519 15.897 308.555 15.9452 308.592 15.993C307.824 15.981 307.057 15.9689 306.286 15.9567C306.4 15.9849 306.517 16.0128 306.63 16.0409C305.977 16.0571 305.326 16.0732 304.672 16.0895C304.899 16.0089 305.126 15.9284 305.351 15.8478C304.958 15.8316 304.566 15.8161 304.174 15.7995ZM222.531 15.7126C222.747 15.7529 222.347 15.8212 222.683 15.8557C223.018 15.8896 223.636 15.8134 223.491 15.9276C223.04 15.9436 222.566 15.962 222.106 15.9789C223.586 16.1824 225.063 15.9934 225.086 16.2464C223.665 16.1841 222.497 16.2168 221.121 16.2909C221.178 16.0876 222.554 15.9108 221.688 15.7218C221.966 15.7189 222.258 15.7148 222.528 15.713C222.529 15.7129 222.53 15.7127 222.531 15.7126ZM355.104 12.5497C355.097 12.9652 355.104 13.6459 355.104 14.3565C355.105 14.2723 355.017 14.2123 354.958 14.235C355.121 14.2416 355.273 14.2497 355.412 14.26C355.673 14.2796 356.544 14.5183 356.54 14.549C356.514 14.653 355.45 14.6645 356.59 14.7355C356.207 14.7352 355.835 14.7381 355.454 14.7391C355.522 14.8096 355.59 14.8799 355.655 14.95C356.119 14.9402 356.583 14.9305 357.046 14.9205C357.069 14.9437 357.091 14.967 357.114 14.9901C355.448 14.9881 356.432 15.079 355.568 15.1618C356.363 15.2048 357.165 15.2471 357.958 15.2893C357.5 15.284 356.96 15.28 356.557 15.2738C356.503 15.3926 357.465 15.3642 357.63 15.3861C358.243 15.4675 356.398 15.4687 354.958 15.5103C354.52 15.5256 354.144 15.2742 353.958 15.0147C353.765 14.7528 353.727 14.5048 353.692 14.4254C353.697 15.0617 354.278 15.6625 354.958 15.66C355.227 15.6662 355.496 15.6724 355.763 15.6786C355.541 15.7003 355.317 15.7221 355.095 15.7439C355.049 15.7408 355.004 15.7378 354.958 15.7349C354.248 15.7196 353.622 15.0686 353.661 14.3565C353.697 13.5242 353.725 12.6583 353.754 11.7707C353.763 11.5637 353.686 11.3487 353.539 11.1895C353.384 11.0237 353.229 10.857 353.073 10.6893C352.939 10.5624 352.804 10.4354 352.672 10.3104C352.671 10.3877 352.668 10.4627 352.667 10.54C352.465 10.3479 352.261 10.1534 352.059 9.96133C352.77 10.4121 351.963 9.61092 351.071 8.56116C351.634 9.03174 352.243 9.69641 352.284 9.56778C351.764 9.08483 351.233 8.56519 350.698 8.03076C350.317 7.63045 349.605 7.62109 349.213 8.02659C348.207 9.02065 347.202 10.011 346.34 10.9522C346.305 10.99 346.274 11.0254 346.246 11.0591C346.075 11.2839 346.048 11.4613 346.074 11.7707C346.101 12.0102 346.119 12.342 346.114 12.87C346.097 12.8217 346.065 12.8134 346.041 12.7821C346.059 13.3502 346.076 13.8666 346.089 14.3565C346.115 14.9855 345.564 15.5288 344.958 15.5221C343.932 15.5354 342.901 15.5287 341.59 15.4882C341.738 15.5473 341.883 15.6065 342.031 15.6654C342.574 15.6354 343.118 15.605 343.658 15.5753C344.016 15.6689 343.514 15.7126 344.958 15.7123C345.02 15.7123 345.084 15.7081 345.151 15.6984C345.601 15.6245 345.81 15.4108 345.917 15.302C346.024 15.1837 346.042 15.1351 346.042 15.1246C346.039 15.1018 345.951 15.2072 346.065 15.0045C346.17 14.7958 346.227 14.5772 346.232 14.3565C346.241 14.0641 346.26 13.7724 346.233 13.4425C346.199 13.0361 346.121 13.4757 346.14 12.4156C346.242 12.8419 346.348 13.2768 346.452 13.706C346.433 13.9234 346.414 14.1395 346.395 14.3565C346.391 14.4154 346.384 14.4737 346.373 14.5317C346.376 14.4727 346.375 14.4144 346.371 14.3565C346.347 14.1373 346.324 13.9202 346.301 13.6999C346.313 13.9211 346.325 14.1394 346.337 14.3565C346.383 15.0834 345.757 15.8047 344.958 15.8227C344.788 15.8322 344.616 15.8417 344.442 15.8515C344.752 15.7017 343.768 15.7591 343.234 15.7777C342.401 15.8068 343.114 15.7023 342.569 15.7203C342.023 15.7384 341.435 15.8556 340.448 15.8325C340.977 15.7642 340.258 15.7048 340.397 15.6422C340.536 15.5797 341.579 15.5653 340.577 15.498C338.65 15.5511 340.741 15.7868 339.44 15.8273C337.877 15.8771 337.505 15.4863 337.971 15.4022C338.337 15.3361 339.599 15.3494 339.968 15.2842C337.709 15.165 337.689 15.3991 337.303 15.4454C335.899 15.6137 336.842 15.1653 335.179 15.3274C335.211 15.2432 335.236 15.1675 335.267 15.0868C334.98 15.1018 334.79 15.1221 334.443 15.134C335.465 15.2991 334.629 15.2914 334.199 15.2917C333.523 15.2921 334.568 15.3726 334.389 15.3932C333.906 15.4487 333.141 15.4239 333.61 15.4964C333.4 15.4627 333.172 15.4288 332.956 15.3951C332.166 15.4368 330.308 15.7956 332.076 15.7213C331.911 15.8536 331.339 15.7912 330.893 15.7716C330.447 15.7521 330.455 15.8367 330.063 15.8217C328.503 15.7616 329.524 15.6143 329.771 15.5007C327.71 15.5806 329.728 15.6307 326.758 15.6869C326.471 15.7811 327.843 15.8784 326.701 15.9347C326.49 15.7724 325.649 15.6565 324.01 15.6033C323.85 15.6412 323.692 15.6795 323.532 15.7176C322.637 15.5667 323.095 15.4071 321.438 15.5978C322.327 15.2483 321.716 15.4723 320.232 15.3297C319.931 15.3008 320.627 15.2283 320.207 15.1913C320.016 15.1745 319.553 15.2293 319.087 15.1865C318.86 15.1655 317.797 15.0282 317.061 15.0923C317.601 15.2641 316.202 15.4106 317.402 15.5521C315.185 15.5187 313.633 15.6016 316.117 15.3656C315.555 15.3135 314.991 15.2612 314.429 15.2088C314.036 15.2499 313.641 15.2909 313.246 15.3321C313.186 15.189 313.246 15.1489 311.701 15.1731C312.371 15.1396 313.039 15.1057 313.712 15.0724C313.735 15.0436 313.829 15.0137 313.806 14.9857C312.982 15.0394 310.66 15.0609 310.097 15.0989C309.534 15.137 310.621 15.1483 310.459 15.1855C309.109 15.4928 309.216 15.266 308.248 15.3186C307.679 15.3501 309.037 15.3842 308.732 15.3975C307.605 15.4469 307.082 15.282 306.082 15.2794C306.437 15.3736 306.789 15.469 307.136 15.5634C306.087 15.5592 304.918 15.559 303.943 15.5902C303.561 15.6023 303.85 15.6727 303.788 15.6774C303.477 15.7019 302.216 15.742 302.082 15.7425C301.077 15.7444 301.048 15.6459 300.071 15.6413C300.454 15.6326 300.815 15.6247 301.19 15.6164C301.361 15.4565 301.534 15.2969 301.705 15.1372C300.747 15.1249 299.789 15.1128 298.829 15.1003C299.531 15.1546 300.235 15.2083 300.937 15.2619C299.84 15.3908 298.743 15.5213 297.646 15.6532C297.075 15.5735 296.506 15.4934 295.935 15.4129C294.383 15.4342 294.696 15.7636 293.96 15.4755C293.502 15.5001 293.045 15.5248 292.588 15.5492C292.653 15.5078 292.718 15.4664 292.783 15.425C292.232 15.4506 291.68 15.4761 291.129 15.5022C291.709 15.6491 292.277 15.8029 292.851 15.9438C291.766 15.9778 291.745 15.8533 291.583 15.8224C291.154 15.7405 290.302 15.8531 289.961 15.777C289.846 15.7508 290.909 15.6673 290.543 15.5727C290.471 15.5548 289.048 15.2048 288.139 15.2853C288.156 15.349 288.227 15.4271 288.264 15.4964C287.042 15.536 286.419 15.2018 286.581 15.1081C285.93 15.1732 284.979 15.1782 284.845 15.2812C284.513 15.2836 284.183 15.286 283.85 15.2884C284.197 15.0371 282.81 15.0817 282.719 15.299C283.29 15.3045 283.862 15.3102 284.433 15.3156C284.001 15.5804 285.737 15.7401 282.125 15.4959C281.434 15.3574 283.353 15.5144 282.79 15.4108C281.812 15.3505 280.895 15.4014 279.965 15.3041C278.809 15.1824 280.232 15.0654 277.538 15.2194C283.48 15.6087 276.723 15.4821 273.931 15.6069C273.164 15.2184 270.807 15.0907 267.561 15.2069C267.9 15.3175 268.921 15.2608 269.509 15.2972C270.097 15.3334 269.461 15.3986 270.194 15.4497C270.927 15.5008 272.484 15.5693 273.226 15.6454C272.597 15.7072 269.495 15.8573 271.546 15.6792C270.015 15.5725 269.296 15.4606 267.398 15.4405C266.829 15.6133 266.871 15.7209 265.021 15.728C266.116 15.4861 264.013 15.3191 264.476 15.0691C265.788 15.1282 265.055 15.37 265.814 15.4857C265.891 15.4972 267.114 15.4363 267.398 15.4405C266.164 15.2246 265.738 15.1424 266.497 14.8854C265.624 14.9068 265.081 14.8735 265.002 14.9971C264.82 14.9433 264.637 14.8893 264.458 14.8353C264.174 14.8362 263.918 14.8408 263.618 14.8393C264.032 15.0272 263.228 14.9108 262.657 14.9953C262.086 15.0801 262.852 15.2289 261.284 15.2304C261.807 15.2747 262.285 15.3126 262.791 15.3542C261.779 15.4025 260.764 15.4516 259.752 15.5007C260.463 15.6164 262.003 15.7859 261.961 15.9371C261.495 15.8806 259.898 15.984 259.724 15.9886C259.047 16.0054 259.416 15.9085 259.365 15.9063C258.302 15.8611 257.427 15.8954 257.023 15.7492C256.225 15.8164 255.622 15.7794 254.776 15.7841C254.31 15.7867 254.4 15.8952 254.127 15.875C252.314 15.7401 254.042 15.5955 250.544 15.8694C250.967 15.9453 251.385 16.0226 251.809 16.0986C251.414 16.1282 251.021 16.158 250.626 16.1878C250.362 16.1745 250.1 16.1611 249.835 16.1477C249.841 15.9816 249.848 15.8151 249.853 15.649C249.564 15.6402 249.272 15.6316 248.983 15.6228C249.48 15.606 249.979 15.5893 250.476 15.5727C250.521 15.5435 250.564 15.5143 250.609 15.4851C249.87 15.4402 249.134 15.3946 248.395 15.3488C248.381 15.4068 248.367 15.4652 248.353 15.5232C246.687 15.4432 246.647 15.393 245.064 15.5549C243.845 15.5536 242.852 15.8003 242.147 15.9055C241.895 15.8728 241.641 15.8396 241.386 15.8067C241.224 15.8561 241.06 15.9054 240.898 15.9549C240.577 15.8869 240.251 15.8187 239.93 15.7507C239.751 15.9069 239.659 15.956 240.912 16.0084C240.482 16.2026 238.276 16.1224 237.378 16.0583C236.697 16.0097 237.453 15.8453 237.368 15.8257C237.083 15.7587 235.96 15.8182 235.724 15.8073C234.727 15.7618 234.028 15.7707 233.127 15.7352C232.952 15.7282 232.461 15.624 232.42 15.6207C232.096 15.6031 231.296 15.5525 231.205 15.5511C226.514 15.4752 231.526 15.9286 227.164 15.8859C227.295 15.9464 227.415 16.0065 227.543 16.0669C227.213 16.0713 226.88 16.0754 226.551 16.0797C226.133 16.0297 226.638 15.9362 225.809 16.0123C225.863 15.9371 225.917 15.8619 225.974 15.7872C225.613 15.8281 225.265 15.8688 224.895 15.9099C224.316 15.6497 222.199 15.5912 222.349 15.2823C222.401 15.177 223.901 15.0706 223.108 14.9581C222.464 14.9353 222.9 15.0611 222.637 15.0674C220.739 15.112 220.849 14.9355 220.073 14.9818C219.951 15.0575 219.823 15.1348 219.698 15.2114C219.405 15.189 219.111 15.1665 218.816 15.144C218.748 15.1951 218.677 15.2463 218.609 15.2974C218.884 15.3009 219.195 15.3043 219.448 15.3078C219.095 15.505 215.856 15.5962 217.091 15.4261C217.594 15.3572 218.515 15.3866 217.933 15.1521C217.066 15.1854 216.083 15.2196 215.171 15.2534C215.142 15.2025 215.116 15.1516 215.087 15.1008C213.858 15.1329 214.976 15.3371 214.974 15.4459C214.692 15.449 214.408 15.4518 214.127 15.4549C214.008 15.4055 213.895 15.3538 213.77 15.3059C213.758 15.3845 213.601 15.5675 212.762 15.4999C212.224 15.4557 213.072 15.2567 212.045 15.2841C212.121 15.4075 212.493 15.5571 211.348 15.5976C211.234 15.4688 211.077 15.3507 210.989 15.2151C209.565 15.3389 208.918 15.1386 207.247 15.2832C206.186 15.3745 204.734 15.7047 204.049 15.1974C203.274 15.1837 203.52 15.3103 203.291 15.3387C202.208 15.4736 201.402 15.232 201.201 15.2175C199.914 15.1255 199.337 15.2094 198.288 15.0938C198.345 15.1891 198.376 15.2793 198.421 15.3721C199.382 15.2295 199.868 15.2367 201.216 15.2674C200.764 15.2863 200.312 15.3057 199.86 15.3247C199.934 15.4018 200.007 15.4788 200.078 15.5553C204.245 15.2521 203.273 15.7271 199.78 15.8363C199.479 15.6941 199.167 15.552 198.868 15.4087C196.85 15.626 195.901 15.4385 193.619 15.3927C193.347 15.3875 192.359 15.4712 191.935 15.4755C191.942 15.4761 191.949 15.4766 191.956 15.4772C191.692 15.6145 192.049 15.6775 192.092 15.8C191.862 15.8157 191.632 15.8313 191.401 15.8469C190.887 15.7539 191.068 15.6766 190.057 15.6998C190.193 15.7932 190.328 15.8866 190.464 15.9798C189.356 15.9848 188.63 15.8839 187.598 15.9293C187.772 15.8935 187.943 15.8576 188.116 15.8219C185.871 15.7335 187.658 15.1777 185.961 15.4542C185.853 15.4058 185.748 15.3569 185.64 15.3084C186.339 15.2965 187.039 15.2851 187.735 15.2734C187.749 15.2051 187.764 15.1372 187.776 15.0689C187.028 15.0888 186.277 15.1095 185.53 15.1297C186.075 15.0839 186.624 15.0383 187.17 14.9929C186.303 14.9594 185.436 14.9257 184.569 14.8917C185.49 15.1454 184.297 15.1754 184.521 15.4261C182.986 15.2182 181.781 14.9396 179.402 15.1158C178.93 15.1509 179.186 15.3288 177.848 15.1119C178.172 15.3947 176.495 15.528 176.711 15.798C177.176 15.7845 177.66 15.7758 178.111 15.7595C177.597 15.6668 177.512 15.4095 178.293 15.3334C179.291 15.2367 180.746 15.4139 180.686 15.1307C181.084 15.1442 181.454 15.1523 181.84 15.1636C181.681 15.2336 181.525 15.3041 181.369 15.3742C182.469 15.2643 183.159 15.3005 183.688 15.4762C182.378 15.517 181.071 15.5578 179.761 15.5989C179.954 15.6109 180.149 15.6229 180.342 15.6344C179.35 15.8164 180.374 15.9869 178.523 16.0285C178.535 15.9454 178.544 15.8621 178.555 15.7786C177.882 16.0015 176.037 16.0036 176.626 16.2595C176.069 16.1818 175.955 16.1318 175.64 16.2713C174.17 16.0789 173.227 15.8307 173.75 15.5336C173.204 15.5815 172.658 15.6298 172.115 15.6781C172.431 15.7593 172.747 15.8399 173.062 15.9208C172.113 15.9169 171.157 15.9132 170.21 15.9097C170.119 15.6678 172.037 15.8344 171.484 15.6192C171.373 15.5759 170.862 15.669 170.728 15.6447C169.313 15.381 171.535 15.5711 171.117 15.3689C169.008 15.3065 170.696 14.966 167.791 15.2515C167.715 15.1812 167.632 15.1095 167.561 15.0396C166.553 15.0346 166.635 15.1937 165.768 15.2236C165.225 15.2424 164.544 14.9613 163.944 15.1522C163.838 15.1876 164.846 15.5306 162.727 15.5164C161.082 15.5052 161.767 15.261 160.878 15.1741C159.988 15.0866 157.953 15.4271 157.353 15.0397C157.819 15.0913 158.413 15.1193 158.93 15.1615C159.14 15.0864 159.345 15.0122 159.552 14.9378C158.37 15.0338 157.148 14.918 156.352 15.0976C154.775 14.8204 153.011 15.0753 153.488 15.3892C154.007 15.3441 153.443 15.2075 154.164 15.2946C154.238 15.3675 154.315 15.44 154.389 15.5129C153.161 15.5045 152.309 15.5066 152.869 15.2837C152.678 15.2784 152.49 15.273 152.299 15.2677C152.265 15.4291 152.235 15.5912 152.201 15.7528C151.973 15.7712 151.745 15.7894 151.518 15.8079C151.265 15.7726 151.012 15.7368 150.756 15.701C151.1 15.4443 151.686 15.4364 149.747 15.2927C149.742 15.3815 149.733 15.4699 149.728 15.5587C148.105 15.4465 148.062 15.2303 146.025 15.2378C147.588 14.9283 148.443 15.4774 148.437 14.8572C148.829 14.8983 149.225 14.9399 149.617 14.9808C149.677 14.8912 149.736 14.8014 149.793 14.7119C147.687 14.7545 144.189 15.3487 142.779 14.9517C142.608 15 142.437 15.042 142.264 15.094C140.883 14.8526 140.286 15.393 138.885 15.0805C138.74 15.0476 139.043 14.5386 137.219 14.5536C137.264 14.6201 137.288 14.732 137.325 14.8159C136.93 14.7746 136.537 14.7314 136.145 14.6891C136.074 14.7505 136 14.8119 135.929 14.8739C136.602 14.8985 137.274 14.9234 137.947 14.9477C137.388 14.9683 136.825 14.989 136.265 15.0097C136.995 15.1107 137.324 15.1117 136.884 15.2725C136.25 15.282 135.616 15.2922 134.982 15.3018C134.917 15.3431 134.852 15.385 134.787 15.4264C135.094 15.5499 135.404 15.6703 135.711 15.7951C134.059 15.6957 132.624 15.6916 131.356 15.4475C131.14 15.4062 131.904 15.2441 130.432 15.3903C130.41 15.3044 130.37 15.2345 130.345 15.155C128.543 15.3954 127.951 15.3246 126.072 15.1482C127.288 15.3124 126.203 15.2055 125.893 15.2932C125.681 15.3537 126.51 15.3448 126.416 15.4081C126.322 15.4707 125.246 15.7255 126.166 15.7553C128.423 15.2347 129.037 15.8542 131.936 15.604C131.49 15.6705 131.041 15.7374 130.594 15.8043C130.805 15.8491 130.993 15.8898 131.22 15.9373C129.603 15.8384 130.389 15.9028 129.725 15.9833C129.06 16.0638 127.851 16.1336 127.041 16.1569C126.786 16.1643 127.055 16.0474 126.479 16.0373C126.087 16.0303 125.015 16.2053 124.768 16.0012C124.606 15.8679 126.328 15.5009 123.947 15.5025C123.499 15.3718 124.64 15.4123 124.665 15.3966C124.873 15.2415 123.409 15.1239 122.732 15.2426C122.678 15.253 123.212 15.3744 122.631 15.4221C121.253 15.5363 120.457 15.3972 119.564 15.2071C119.467 15.4294 118.307 15.6963 116.864 15.6147C116.79 15.6788 116.719 15.7434 116.646 15.8081C116.87 15.774 117.094 15.7403 117.318 15.7063C117.562 15.7463 117.821 15.7752 118.06 15.8222C116.608 15.8784 116.403 16.1875 115.707 16.302C113.324 16.694 114.768 15.8713 115.198 15.7305C115.507 15.7873 115.807 15.8507 116.114 15.9103C116.08 15.8322 116.045 15.7536 116.014 15.675C112.447 15.6795 115.471 15.1676 113.66 15.0214C113.194 15.4068 111.865 15.4456 110.171 15.1985C109.983 15.2004 109.795 15.2008 109.608 15.2032C109.576 15.26 109.577 15.3467 109.526 15.3841C107.485 15.4508 107.122 14.8483 106.928 14.7909C106.07 14.5364 105.402 14.8864 105.149 14.8894C104.083 14.9007 103.773 14.7438 102.759 14.81C101.668 14.8817 102.414 15.0029 102.082 15.1105C101.816 15.1961 100.955 15.2111 100.599 15.3001C100.74 15.2273 100.897 15.1559 101.038 15.0829C100.824 15.064 100.617 15.0452 100.414 15.0269C100.236 15.0032 100.084 14.9089 99.988 14.7827C99.6 14.327 99.1954 13.8696 98.6937 13.3474C97.29 12.7015 97.06 11.1876 96.8927 12.062C97.717 12.958 98.1386 13.4983 98.467 14.0904C97.8853 13.5428 97.3036 12.9945 96.7218 12.4471C96.6141 12.2253 96.5528 12.0527 96.4162 11.7996C95.8727 11.4992 94.9463 10.4691 94.5264 10.121C93.0962 8.93585 92.8889 9.01752 92.3862 8.38451C92.2989 8.26488 92.1054 7.97675 91.5842 8.09512C92.0109 7.83123 92.4043 7.965 92.6385 8.13225C93.0922 8.4723 93.4272 8.68276 94.152 9.43735C94.0204 9.06252 93.3992 8.49099 93.9308 8.73111C93.1671 8.01316 93.0022 7.97578 92.8249 7.94585C92.7209 7.92477 92.6181 7.89816 92.3977 7.85887C92.0697 7.78105 91.5739 7.92653 91.4227 8.19341C91.2843 8.38435 91.2049 8.52822 91.2742 8.56294C91.1241 8.56974 90.9939 8.56101 90.844 8.5676C90.1417 9.27146 89.4387 9.9747 88.7362 10.6785C88.7026 10.7122 88.667 10.7434 88.6291 10.7723C88.6604 10.7347 88.6882 10.6958 88.7131 10.6554C88.9266 10.3065 89.1402 9.95791 89.3545 9.60974C89.0891 9.81814 88.8233 10.0269 88.5578 10.2352C88.52 10.2842 88.481 10.3336 88.441 10.3833C88.2771 10.6472 87.7847 10.7305 87.5003 10.442C85.7772 8.76859 84.0712 6.7077 83.9937 7.5762C83.1023 6.72332 83.0679 6.53952 82.7069 5.95216C82.6093 5.9453 82.5207 5.93226 82.4179 5.93057C81.9029 5.32047 81.3 5.05957 80.8479 4.51908C80.3955 3.97889 80.4344 3.69364 80.0897 3.8936C79.8461 3.49418 79.5914 3.10968 79.3446 2.71744C79.0898 2.58667 78.8358 2.45546 78.5832 2.32652C78.5626 2.30086 78.5419 2.27519 78.5212 2.24953C78.3493 2.01053 77.999 1.87804 77.6665 1.97327C77.6397 2.03352 77.5472 2.10662 77.4561 2.22685C77.0778 2.69544 76.2873 3.45435 75.9591 3.9167C75.3218 4.27136 74.8885 3.81084 73.8009 5.05698C73.9422 5.13799 74.0827 5.21911 74.2239 5.30007C73.9335 5.54416 73.6426 5.78885 73.3501 6.03486C73.2977 6.01459 73.2475 5.99217 73.195 5.97188C73.343 5.84654 73.4889 5.72297 73.6372 5.59798C73.4572 5.6551 73.2798 5.71 73.1017 5.76499C72.7846 6.26373 72.4673 6.76329 72.1489 7.26462C72.7705 6.78124 73.3922 6.29739 74.0133 5.81342C73.4021 6.58895 72.8382 6.99023 72.3272 7.68499C71.6489 8.05556 71.7532 7.77259 71.7988 7.39225C71.6182 7.60136 71.4349 7.8123 71.2543 8.02146C71.2152 7.72527 70.7854 7.9547 71.9391 6.82993C71.813 6.86047 71.6875 6.89479 71.5615 6.92139C71.3819 7.11558 71.2202 7.19623 71.0334 7.41934C70.5245 8.02774 70.391 8.75097 70.5328 8.81635C70.6075 8.84994 71.0548 8.19546 71.1093 8.2941C71.2413 8.5351 69.8949 9.71604 71.9036 8.07955C71.4179 8.80367 71.1935 8.84951 70.4924 9.48278C70.6069 9.49286 70.7195 9.504 70.8319 9.51605C70.4942 9.7971 70.1562 10.0786 69.8184 10.3595L69.1178 11.0601C68.7973 10.7396 68.6757 10.618 68.3959 10.3382L69.2989 9.43525C68.9901 9.72928 68.6818 10.0228 68.3736 10.3159C68.2059 10.4738 67.9388 10.4918 67.7599 10.3759C67.8582 10.3772 67.9457 10.3463 68.0081 10.2983C68.1009 10.3127 68.2005 10.2921 68.2867 10.229C68.3854 10.1421 68.4841 10.0552 68.5831 9.96809C68.4727 10.0434 68.3623 10.1188 68.2519 10.1942C68.1246 10.2352 68.0122 10.1836 67.9674 10.1125C67.924 10.1266 67.8772 10.1303 67.8253 10.117C67.2906 9.72523 66.9521 9.5774 66.5656 9.41555C67.1956 10.2147 67.2207 10.0861 67.5855 10.3568C67.6418 10.3901 67.7098 10.4282 67.808 10.4574C67.7418 10.5679 67.7361 10.6934 67.6127 10.7857C67.5578 10.7099 67.4842 10.6281 67.4147 10.5276C67.0042 9.97178 66.0806 9.23553 65.8508 9.02087C65.0036 8.22907 65.8304 8.68753 65.2864 8.13517C65.1817 8.02883 65.0691 7.92304 64.9537 7.81705C64.4057 7.28934 63.5248 7.39417 63.0237 7.79438C62.9352 7.85163 62.8451 7.90059 62.753 7.93907C62.864 8.03403 63.0064 8.10475 63.1323 8.16635C62.312 9.05429 62.3606 8.76205 62.2563 8.83466C61.4881 9.36377 60.9571 9.85729 60.4536 10.3959C60.2507 10.6345 59.8137 10.7387 59.4816 10.4607C59.1636 10.1794 58.8209 9.86931 58.4436 9.50408C58.6162 9.74138 58.7942 9.97761 58.9708 10.2149C57.6634 9.30904 58.2777 9.84855 59.1398 10.8024C59.2453 10.9174 59.3784 11.0183 59.5315 11.0906C59.3736 11.0231 59.2365 10.928 59.1238 10.8184C58.2865 10.0105 57.6051 9.64572 56.9234 9.06661C56.7312 8.90323 56.5165 8.69768 56.2972 8.47352C56.1522 8.30606 55.8449 8.26545 55.6449 8.41565C55.366 8.64899 55.1201 8.84193 54.955 8.95843C55.1325 8.73123 55.3216 8.50912 55.5191 8.28985C55.7424 8.01044 56.237 7.98832 56.4999 8.27078C56.979 8.75389 57.4631 9.25299 57.9763 9.73575C57.9558 9.50309 57.9227 9.29023 57.9089 9.04287C57.235 8.70276 56.9291 8.31398 56.737 8.03374C56.6691 7.93631 56.5959 7.86028 56.5247 7.80933C56.1371 7.55141 55.8329 7.64725 55.6692 7.71121C55.4947 7.78907 55.3972 7.85159 55.1803 7.95107C55.1299 7.97293 55.0714 7.99438 55.0021 8.01605C55.0894 8.07122 55.1611 8.11934 55.2437 8.16979C54.3743 9.00196 53.4244 9.83773 52.6859 10.6282C52.2864 11.0622 51.6141 11.0557 51.1765 10.7658C51.1452 10.7478 51.1141 10.7305 51.0831 10.7138C51.1754 10.4608 51.2811 10.2338 51.3651 9.96498C50.6628 9.52191 50.306 8.89782 49.7938 8.44556C49.2833 7.99541 49.3258 8.31861 48.7073 7.80785C48.5928 7.71327 48.4633 7.40758 48.1412 7.21514C47.8167 7.02019 46.3718 6.54911 46.6824 6.00943C46.2002 5.52313 45.7574 5.04922 45.2905 4.5677C45.7766 5.00588 46.2622 5.44507 46.7462 5.8814C46.4555 5.38436 46.1673 4.88978 45.8772 4.39215C45.7349 4.43403 45.5907 4.47746 45.4515 4.52021C45.2193 4.33232 45.0088 4.14557 44.8119 3.9588C44.3607 3.51875 43.6172 3.50734 43.1641 3.93483C42.7732 4.29168 42.373 4.6593 41.9541 5.10685C41.7813 5.29172 42.3869 5.05341 41.5465 5.80016C40.7061 6.54729 39.7723 6.79164 38.5521 8.27612C38.4906 8.35122 38.3548 9.01642 37.6869 9.31717C37.535 9.38571 37.9377 8.86059 37.6299 9.05879C37.3953 9.20989 36.6573 9.8746 36.2219 10.1642C36.1612 10.1784 36.1175 10.1561 36.0927 10.12C36.1245 10.1775 36.1837 10.222 36.2405 10.2621C36.1741 10.3523 36.0534 10.4214 35.9128 10.427C35.9205 10.3113 35.9366 10.1963 35.962 10.0844C35.9277 10.1079 35.8814 10.1238 35.825 10.1173C34.8494 9.47824 34.0586 9.10061 32.8982 7.87248C32.7551 7.72228 32.5661 7.59516 32.3421 7.52224C32.5463 7.62398 32.7112 7.77717 32.8205 7.9502C33.0726 8.37827 33.3246 8.80601 33.5759 9.2321C33.7861 9.2751 33.997 9.31784 34.205 9.35899C34.5835 9.7725 34.9627 10.1865 35.3419 10.6004C35.658 10.9664 36.2913 11.0179 36.6799 10.6726C36.6824 10.6579 36.6845 10.6432 36.6864 10.6287C36.7142 10.4247 36.7407 10.2226 36.769 10.0185C36.9823 9.82996 37.1932 9.643 37.4065 9.45444C37.4244 9.57279 37.4415 9.69123 37.4574 9.81164C37.8386 9.39713 38.2199 8.98181 38.5991 8.5694C38.2911 9.48854 37.1279 10.2931 36.7846 10.7269C36.664 10.8738 36.5887 10.9641 36.6869 11.0403C36.3688 11.1532 36.0372 11.1206 35.7872 10.993C35.7037 11.1069 35.4182 11.1048 35.1244 10.8179C34.9531 10.6453 34.7449 10.4074 34.4822 10.1228C34.548 10.3504 34.6304 10.592 34.6835 10.8082C34.1773 10.0765 33.0718 8.99257 32.4677 8.30303C32.4651 8.29989 32.4625 8.29679 32.4599 8.29372C32.2632 8.10076 32.587 8.13859 32.5304 8.06953C32.4188 7.94022 32.188 7.85421 31.9639 7.88998C31.7379 7.92074 31.5451 8.06556 31.4475 8.21818C31.2837 8.44336 31.1519 8.62702 31.0806 8.68591C30.1894 9.42277 29.336 9.74821 28.5908 10.5331C28.4243 10.7087 28.1881 10.858 27.8545 10.89C28.3759 10.9778 28.618 10.7337 28.7212 10.6635C28.9429 10.4862 28.7652 10.7032 29.143 10.5223C29.3184 10.4385 30.9161 9.02968 28.9925 10.8708C28.985 10.8779 28.9738 10.8882 28.9591 10.9014C28.8639 10.9901 28.6203 11.1829 28.2524 11.2304C27.8924 11.285 27.418 11.1493 27.1367 10.8056C26.27 9.73855 25.3149 8.46006 26.1625 9.03826C25.6579 8.64355 25.2255 8.33547 24.7702 8.00048C24.658 7.9157 24.5305 7.85326 24.396 7.81809C24.0362 7.45073 23.5435 7.48657 23.3251 7.58002C23.0898 7.6781 23.0453 7.78973 23.0918 7.83669C23.1882 7.92514 23.6352 7.93959 23.8395 8.12208C23.7204 8.15279 23.6162 8.21478 23.5311 8.30182C23.4593 8.37479 23.3865 8.44844 23.3113 8.52378C23.4495 7.7737 21.1669 10.0166 20.5547 10.9399C20.3493 11.2489 21.1668 10.6279 20.6189 11.2696C20.3142 11.5315 19.9651 11.825 19.6417 12.1002C20.2708 11.8611 19.4948 12.7889 19.7058 12.976C18.9849 13.3443 18.1919 13.3844 18.2872 12.8812C17.9196 13.4137 17.5498 13.9488 17.1832 14.4823C17.4395 14.3206 17.698 14.1558 17.9542 13.9939C17.4818 14.3928 17.0084 14.8644 16.5573 15.328C16.3008 15.5918 15.9393 15.7411 15.5858 15.7435C14.3753 15.7633 13.3648 15.7563 13.112 15.4087C12.8363 15.4129 12.5577 15.4166 12.282 15.4209C12.1967 15.522 12.1143 15.6234 12.0291 15.7245C10.7817 15.6376 9.5371 15.5495 8.2897 15.4615C9.40039 15.3981 9.66479 15.2539 10.8296 15.371C10.3807 15.2545 9.92349 15.1371 9.48315 15.0201C7.72959 15.3337 7.49038 15.542 4.85019 15.4482C4.73082 15.4441 2.73596 15.1779 2.66775 15.1517C2.35524 15.0328 2.82961 14.8606 2.69046 14.8006C2.30394 14.6325 -0.0448226 14.2055 0.000651553 14.1413C0.574769 13.3561 8.47723 13.3729 10.6145 13.3399C12.2742 13.3144 13.9312 13.2946 15.5858 13.2796C15.3034 13.2763 15.0212 13.3902 14.8195 13.5903C17.1397 11.2319 19.4667 8.89352 21.798 6.56874C22.947 5.36773 25.0546 5.37047 26.1997 6.57099C27.06 7.43573 27.9184 8.30103 28.7755 9.16679C28.3667 8.74572 27.6313 8.75131 27.2306 9.17291C28.0981 8.31571 28.966 7.45982 29.8342 6.60493C30.9668 5.42621 33.0363 5.43447 34.1568 6.61387C35.0118 7.48327 35.866 8.35294 36.7195 9.2228C36.3381 8.83401 35.6586 8.84351 35.2912 9.23352C37.5085 7.05935 39.7266 4.88812 41.9443 2.71505C43.0201 1.59761 44.983 1.60729 46.0445 2.72623C48.2164 4.9418 50.3909 7.15669 52.5725 9.36975C52.269 9.06041 51.7289 9.06691 51.435 9.37729C52.302 8.52139 53.1687 7.66427 54.035 6.80568C55.0607 5.73584 56.9399 5.73913 57.9606 6.81013C58.8188 7.67447 59.6787 8.53843 60.5404 9.40194C60.2563 9.10797 59.7438 9.10824 59.4602 9.40249C59.6353 9.22738 59.8103 9.05219 59.9854 8.87692C60.1451 8.71638 60.0029 8.714 60.0683 8.64288C60.4757 8.2023 61.0055 7.89939 61.1673 7.74774C61.5127 7.42339 61.2243 7.50381 61.4697 7.25986C61.6409 7.08999 61.8117 6.92104 61.9821 6.75287C63.046 5.64738 64.9738 5.67054 66.0075 6.76323C66.8652 7.64093 67.7094 8.51232 68.5585 9.38383C68.2604 9.08518 67.7377 9.09501 67.4543 9.3966C68.1627 8.70152 68.8731 7.99822 69.589 7.27713C69.7532 7.11173 69.6655 7.36057 69.9414 7.05772C70.0834 6.90091 70.4283 6.3105 70.7648 5.97265C71.9401 4.79268 72.9722 3.84642 74.2164 2.60668C74.7163 2.10844 75.4065 1.43363 76.039 0.809685C76.6653 0.175224 77.5868 -0.0862859 78.3605 0.0248862C78.9491 0.0992664 79.54 0.368236 79.9816 0.789096C80.1829 0.960704 80.3856 1.13053 80.5668 1.31103C81.0381 1.78035 80.8295 1.79687 80.8946 1.87646C81.1805 2.22556 81.3481 2.14587 81.6456 2.4513C82.1985 3.0198 82.1461 3.13251 82.8622 3.83915C83.3743 4.34402 84.599 5.44669 85.2568 6.07105C86.2039 7.15346 87.3902 8.35398 88.4997 9.44259C88.2272 9.15377 87.744 9.1668 87.4846 9.42685C87.6086 9.29836 87.7295 9.17286 87.8469 9.05098C88.6593 8.20751 88.849 8.24379 89.1873 7.90683C89.5326 7.56242 89.8418 7.23015 90.134 6.90473C91.117 5.84568 92.9095 5.81571 93.9374 6.83331C94.3228 7.17349 94.7078 7.52342 95.1022 7.91734C96.5857 9.39939 97.8016 10.8117 99.2269 12.2595C99.4581 12.4942 99.5058 12.3395 99.7362 12.5663C100.12 12.9441 100.553 13.3681 100.98 13.7904C100.832 13.6382 100.621 13.5522 100.414 13.5532C100.869 13.5531 101.301 13.5561 101.676 13.5645C102.864 13.591 103.302 13.7976 104.464 13.7595C104.805 13.7482 104.905 13.5692 105.476 13.5483C106.388 13.5155 107.388 13.6766 108.025 13.6962C108.897 13.7224 108.139 13.5385 109.315 13.567C109.364 13.5682 109.54 13.6982 109.792 13.6929C110.528 13.6779 110.455 13.576 111.533 13.5895C111.636 13.5913 113.064 13.7188 113.206 13.7197C114.042 13.7244 115.724 13.7726 116.218 13.7483C117.986 13.6622 116.595 13.4666 118.098 13.8867C118.76 13.7871 119.417 13.6865 120.118 13.5908C119.65 13.681 121.551 13.8195 121.684 13.8112C122.789 13.7461 122.131 13.5839 123.532 13.6154C121.682 13.9783 125.34 13.6688 126.155 13.6628C130.083 13.6315 133.653 13.7349 137.601 13.7459C138.922 13.7494 140.693 13.6803 142.091 13.6872C142.417 13.6885 142.171 13.7715 142.458 13.7743C142.744 13.7765 142.426 13.6813 142.753 13.6874C144.785 13.7278 146.377 13.9085 148.239 13.6956C148.329 13.7276 148.326 13.7527 148.477 13.788C150 13.5974 152.934 13.871 154.036 13.9097C155.761 13.9707 156.202 13.8415 157.455 13.872C159.112 13.913 161.599 14.1728 160.488 13.7526C161.625 13.7436 162.719 13.7441 163.867 13.7867C163.995 13.7915 163.907 13.8963 163.958 13.8987C164.282 13.9148 164.388 13.8211 164.606 13.8176C165.2 13.808 164.231 13.9172 165.077 13.8886C165.524 13.8733 165.777 13.7924 167.016 13.7951C174.485 13.8128 182.594 13.8704 190.25 13.9098C190.776 13.9125 190.43 13.8157 191.089 13.8242C193.38 13.8543 197.481 14.0271 199.456 14.0117C201.431 13.9968 200.985 13.8591 202.221 13.8069C202.46 13.7968 202.264 13.8734 202.48 13.8754C203.933 13.888 205.664 14.014 206.841 14.0357C207.619 14.0502 207.556 13.9299 208.096 13.9233C208.901 13.9138 209.728 14.0376 210.157 14.0428C212.175 14.0663 213.562 13.9747 215.446 14.0301C215.373 14.004 215.324 13.9798 215.261 13.954C217.492 13.9662 219.72 13.9784 221.951 13.9904C221.846 13.9668 221.744 13.9429 221.639 13.9189C224.257 13.9415 223.958 14.1914 223.728 13.6602C223.918 13.6423 224.12 13.6216 224.302 13.6053C224.228 13.878 225.811 14.0834 227.826 14.1583C227.974 14.1638 228.965 13.9043 228.857 14.2144C229.116 14.1392 229.27 14.0875 229.489 14.0216C229.915 14.1169 230.347 14.2109 230.773 14.3053C231.003 14.292 231.237 14.2792 231.467 14.2659C231.501 14.2056 231.475 14.1428 231.549 14.0837C232.617 14.0783 234.809 14.1599 235.653 14.1549C237.751 14.142 239.886 13.9903 241.517 14.1678C242.312 14.153 241.523 14.035 242.705 14.0538C242.838 14.1125 242.964 14.1687 243.103 14.2291C244.069 13.9724 244.271 14.1316 245.595 14.1896C246.49 14.2291 247.076 14.1681 247.928 14.1832C248.144 14.187 248.114 14.2622 248.262 14.2602C248.757 14.2538 250.169 14.1552 250.518 14.1537C253.684 14.1374 256.404 14.1586 259.419 14.1954C259.743 14.1992 259.323 14.1259 259.659 14.1301C260.198 14.1368 259.881 14.246 260.193 14.2525C261.065 14.2697 261.072 14.1536 262.288 14.1519C266.292 14.1466 270.896 14.2479 275.08 14.2687C275.21 14.2691 275.202 14.2039 275.345 14.2038C276.271 14.2039 277.208 14.2947 278.05 14.2964C279.445 14.2995 280.494 14.2128 281.872 14.2181C284.567 14.228 286.974 14.2817 289.745 14.2933C292.013 14.3031 293.982 14.3015 296.469 14.3102C307.332 14.3449 318.416 14.206 329.353 14.3414C329.631 14.3449 329.518 14.3926 329.603 14.3908C330.41 14.3728 330.482 14.3085 330.769 14.4448C331.797 14.4215 332.122 14.3215 333.363 14.3335C334.025 14.3398 333.531 14.4938 334.651 14.4173C335.662 14.3484 334.546 14.2598 337.553 14.3575C337.632 14.3603 338.024 14.4552 338.649 14.433C339.277 14.4112 338.55 14.3417 340.062 14.3275C341.559 14.3135 343.223 14.3231 344.958 14.3377C344.946 14.3435 344.949 14.3533 344.953 14.3565C344.961 13.5003 344.969 12.6346 344.974 11.7707C344.974 11.2503 345.19 10.7356 345.559 10.3718C346.116 9.82012 346.669 9.26996 347.211 8.7263C347.318 8.61858 347.962 7.95624 348.542 7.35529C349.411 6.44694 350.71 6.79962 351.011 7.03397C351.169 7.12587 351.297 7.22746 351.402 7.32653C351.914 7.78462 351.912 7.70523 352.71 8.49026C353.313 9.08389 353.777 9.63138 354.432 10.296C354.608 10.4731 354.758 10.6873 354.867 10.9307C354.922 11.0741 355.057 11.2682 355.086 11.7707C355.1 11.9448 355.11 12.1907 355.104 12.5497ZM152.302 15.8929C152.069 16.0275 151.649 16.5242 150.239 16.3765C150.106 16.3624 150.827 16.0193 150.049 15.966C150.81 15.9289 151.552 15.9163 152.302 15.8924C152.302 15.8926 152.302 15.8927 152.302 15.8929ZM357.688 15.8981C356.779 15.8889 355.867 15.8797 354.958 15.8703C354.739 15.8691 354.517 15.819 354.319 15.7243C354.521 15.8116 354.742 15.8527 354.958 15.8457C355.54 15.8191 356.122 15.7926 356.702 15.7661C357.032 15.8103 357.358 15.8543 357.688 15.8981ZM236.37 16.0045C236.371 16.0045 236.372 16.0045 236.373 16.0045C235.264 16.0585 234.155 16.1131 233.047 16.168C233.163 16.1291 233.28 16.0901 233.396 16.0512C234.272 15.9888 235.147 15.9268 236.02 15.8652C236.136 15.9117 236.253 15.9581 236.37 16.0045ZM245.127 15.5932C245.834 15.6372 245.661 15.7121 246.05 15.7846C246.05 15.7844 246.05 15.7843 246.05 15.7842C246.153 15.803 246.632 15.819 246.817 15.8216C246.749 15.775 246.66 15.7289 246.587 15.6826C248.238 15.5695 251.467 15.9624 247.286 16.1321C247.349 16.073 247.409 16.0143 247.471 15.9553C245.393 15.9758 243.077 15.8495 245.127 15.5932ZM135.597 16.1351C133.823 16.3911 133.255 16.4474 131.103 16.2767C131.407 16.2037 131.711 16.1309 132.015 16.0582C132.37 16.1313 132.723 16.2038 133.078 16.2767C133.079 16.2767 133.08 16.2767 133.081 16.2767C133.152 16.1993 133.224 16.1218 133.292 16.0446C134.059 16.0749 134.83 16.1051 135.597 16.1351ZM313.014 15.6626C313.508 15.9765 313.366 15.7937 311.954 15.8672C311.465 15.8928 311.941 15.9472 311.637 15.957C309.995 16.011 309.864 15.798 310.23 15.6868C311.16 15.6782 312.099 15.6704 313.011 15.6626C313.012 15.6626 313.013 15.6626 313.014 15.6626ZM350.466 8.16029C350.467 8.1608 350.467 8.16132 350.468 8.16183C350.444 8.21505 350.084 7.9951 350.419 8.3094C350.427 8.31918 350.436 8.32929 350.445 8.33975C350.435 8.33043 350.426 8.3211 350.416 8.31177C350.179 8.0622 349.738 8.06169 349.499 8.31265C349.477 8.33539 349.454 8.35813 349.431 8.38088C349.453 8.35738 349.475 8.33379 349.497 8.31014C349.557 8.243 349.631 8.18828 349.713 8.15055C349.621 8.16446 349.528 8.19897 349.442 8.25523C349.433 8.26208 349.423 8.26894 349.414 8.27579C349.325 8.47227 349.162 8.57388 348.722 8.97825C348.896 8.91909 349.069 8.86042 349.243 8.80104C348.737 9.2752 348.229 9.75093 347.722 10.2248C347.701 10.2163 347.681 10.2078 347.66 10.1992C347.494 10.403 347.33 10.6051 347.165 10.809C347.097 10.8419 347.031 10.873 346.964 10.9058C346.827 11.0597 346.691 11.2138 346.555 11.3679C346.515 11.4172 346.485 11.4721 346.464 11.5295C346.427 11.5407 346.443 11.4627 346.44 11.4452C346.45 11.4303 346.353 11.4619 346.336 11.7707C346.337 11.8251 346.338 11.8845 346.338 11.9491C346.329 11.8897 346.319 11.8302 346.309 11.7707C346.265 11.6017 346.293 11.3961 346.408 11.2211C346.442 11.174 346.476 11.1268 346.51 11.0796C347.471 10.1221 348.432 9.16453 349.394 8.20699C349.67 7.91949 350.168 7.89934 350.466 8.16029ZM300.169 15.777C302.207 15.7606 301.633 15.8128 301.161 15.9759C300.832 15.9098 300.499 15.8435 300.169 15.777ZM195.185 15.7269C194.594 15.8764 194 16.0251 193.395 16.1708C192.19 16.2571 190.984 15.9851 191.891 15.8764C192.982 15.7466 194.122 15.8888 195.185 15.7269ZM167.738 15.8223C169.213 15.8944 167.826 16.0845 167.493 16.1956C167.085 16.0192 166.516 16.0356 165.603 16.0163C166.461 16.0034 167.495 15.81 167.738 15.8218C167.738 15.822 167.738 15.8222 167.738 15.8223ZM218.911 15.8633C219.502 15.8583 220.09 15.8185 220.618 15.8653C220.459 15.9992 219.402 15.8792 220.158 16.0763C219.78 16.0804 219.402 16.0845 219.027 16.0889C219.265 16.0061 218.944 15.945 218.913 15.8637C218.912 15.8636 218.912 15.8634 218.911 15.8633ZM280.426 15.9373C279.266 15.8055 279.046 15.8626 277.878 15.9581C277.714 15.8484 279.107 15.6631 279.979 15.6224C280.127 15.7275 280.275 15.8325 280.426 15.9373ZM30.9522 9.77202C30.9603 9.57832 31.3391 9.09583 31.8107 8.5814C31.892 8.4517 32.1232 8.46629 32.1903 8.58038C32.2713 8.66851 32.3461 8.7522 32.4129 8.82938C32.3099 8.77534 32.2064 8.72137 32.103 8.66767C32.0995 8.66879 32.096 8.67004 32.0925 8.6714C32.0307 8.6354 31.9552 8.66801 31.9414 8.71213C31.6114 9.06563 31.2815 9.41915 30.9522 9.77202ZM165.168 16.0043C165.321 16.0096 165.466 16.0134 165.603 16.0163C165.451 16.0186 165.304 16.0156 165.168 16.0043ZM103.43 15.1654C103.916 14.9638 102.471 14.8949 104.225 14.9753C104.225 14.9751 104.225 14.9749 104.225 14.9747C105.384 15.0276 105.64 15.0415 106.715 15.0578C106.328 15.315 104.149 15.4081 107.152 15.4607C107.192 15.461 107.113 15.3078 107.593 15.3287C107.741 15.3353 108.215 15.4609 108.937 15.4971C109.17 15.5087 110.921 15.5466 108.534 15.5499C108.605 15.7289 108.477 15.9102 108.482 16.0838C107.55 16.1359 106.834 15.7854 105.848 15.7947C104.385 15.8093 103.64 16.1684 103.359 15.6989C104.589 15.5826 106.703 15.5796 106.978 15.8596C108.169 15.8616 108.511 15.6325 107.551 15.5193C103.438 15.6655 106.422 15.1774 102.821 15.3618C102.778 15.4272 102.63 15.4977 102.653 15.5592C101.554 15.329 103.256 15.2373 103.43 15.1654ZM112.029 15.6597C111.319 15.7958 110.611 15.9336 109.903 16.0715C109.903 15.8493 110.293 15.6494 111.413 15.5243C111.617 15.5697 111.825 15.6149 112.029 15.6597ZM64.7119 8.64113C64.5869 8.65828 64.3992 8.60414 64.2158 8.55491C64.1801 8.56507 64.148 8.58095 64.1204 8.60147C64.1486 8.57129 63.9803 8.4039 63.7739 8.54459C62.7456 9.47066 61.5189 10.5954 62.6844 9.32271C62.7975 9.19926 63.2125 8.84426 63.6611 8.43178C63.8684 8.25087 64.1772 8.29827 64.353 8.41774C64.4884 8.52348 64.6108 8.60216 64.7119 8.64113ZM288.477 15.8065C287.875 15.7555 287.274 15.7041 286.675 15.6525C287.598 15.6186 288.522 15.5841 289.445 15.5501C289.121 15.6353 288.801 15.7208 288.477 15.8065ZM185.377 15.556C185.631 15.5596 184.786 15.7011 185.789 15.6781C185.041 15.7687 184.341 15.8458 183.611 15.9319C183.392 15.8653 183.171 15.7988 182.952 15.732C182.781 15.7752 182.607 15.8182 182.437 15.8614C182.539 15.7636 182.63 15.6681 182.738 15.5687C183.969 15.7771 184.251 15.5398 185.377 15.556ZM221.969 15.1921C222.191 15.3844 220.409 15.4998 222.162 15.5299C221.829 15.6565 221.294 15.7235 220.269 15.7358C220.104 15.6874 219.939 15.6392 219.775 15.5907C219.752 15.7209 219.488 15.7695 218.911 15.8633C218.911 15.8631 218.91 15.863 218.91 15.8628C217.35 15.8743 217.443 15.8307 217.068 15.6154C218.72 15.7357 218.769 15.5389 219.894 15.4225C220.667 15.3425 221.677 15.3785 221.969 15.1921ZM69.4373 10.4818C69.2106 10.8215 69.1669 10.9756 69.1411 11.0834C69.0738 11.2203 69.0418 11.3238 68.7433 11.4826C68.4845 11.6018 67.6922 11.9034 66.8832 11.0911C67.0769 11.1971 67.2859 11.2579 67.4851 11.2711C67.9997 11.4693 68.6186 11.3309 68.9949 10.9372C69.1423 10.7854 69.2898 10.6336 69.4373 10.4818ZM227.732 15.8448C227.599 15.5516 226.499 15.3221 226.311 15.8019C227.383 15.8981 226.86 15.6278 227.732 15.8448ZM168.241 15.2897C170.302 15.3062 169.912 15.6873 169.065 15.8799C168.934 15.8104 168.804 15.7407 168.676 15.6716C168.315 15.7035 167.954 15.7355 167.593 15.7671C167.809 15.6079 168.025 15.4485 168.241 15.2897ZM264.055 15.5062C262.481 15.697 265.755 15.6103 264.655 15.7294C263.777 15.8251 262.619 15.6349 263.057 15.5144C263.361 15.5109 263.7 15.5084 264.052 15.5062C264.053 15.5062 264.054 15.5062 264.055 15.5062ZM254.944 15.5659C255.202 15.7737 254.83 15.7133 256.074 15.6748C256.429 15.664 259.252 15.7388 258.067 15.5691C257.058 15.5697 255.992 15.5673 254.944 15.5659ZM144.425 15.6861C144.406 15.5667 146.58 15.3056 146.859 15.3709C146.859 15.3707 146.859 15.3706 146.859 15.3704C147.612 15.5473 145.319 15.5737 146.314 15.8168C144.111 15.6037 143.452 16.1254 143.606 15.4382C144.903 15.4079 144.289 15.5494 144.425 15.6861ZM8.30636 15.606C8.30535 15.606 8.30434 15.606 8.30333 15.606C8.44931 15.6137 9.65214 15.85 9.50587 15.932C8.05939 15.863 8.31717 15.7061 6.97054 15.9644C6.89671 15.8816 6.83346 15.8013 6.75396 15.7179C7.28828 15.6684 7.58446 15.5689 8.30636 15.606ZM60.8673 10.6563C61.2164 10.2538 62.0124 9.67817 62.4337 9.24332C62.0516 9.96996 61.491 10.6059 61.0536 10.9958C60.5791 11.4218 60.1022 11.3302 60.0667 11.2666C59.9974 11.1715 60.3462 11.2069 60.7966 10.7388C60.8191 10.7122 60.8427 10.6847 60.8673 10.6563ZM335.694 15.5885C335.693 15.5886 335.691 15.5887 335.69 15.5888C335.69 15.5887 335.691 15.5885 335.691 15.5884C335.692 15.5884 335.693 15.5885 335.694 15.5885ZM91.4329 8.55029C91.3589 8.57327 91.3094 8.57849 91.2801 8.56885C91.2783 8.56702 91.2764 8.56519 91.2746 8.56336C91.3247 8.56107 91.3767 8.55733 91.4329 8.55029ZM139.907 15.7256C139.002 15.558 142.018 15.2913 142.994 15.355C142.926 15.431 142.915 15.5 142.756 15.5874C141.969 15.3904 140.058 15.7533 139.907 15.7256ZM208.682 15.6187C206.298 15.6158 209.401 15.0505 209.529 15.5004C209.524 15.5091 208.744 15.6178 208.682 15.6187ZM158.712 15.6442C159.319 15.4516 158.098 15.4009 160.051 15.4338C160.164 15.4834 160.278 15.5331 160.391 15.5827C159.832 15.603 159.272 15.6237 158.712 15.6442ZM193.061 14.859C190.06 14.9535 187.19 15.1301 189.145 15.6246C189.372 15.6086 189.602 15.5931 189.829 15.5771C189.863 15.3363 190.702 15.4677 191.929 15.475C192.103 15.3799 192.784 15.3579 192.911 15.2773C193.158 15.1216 192.377 15.0113 193.061 14.859ZM319.766 15.2811C319.718 15.3094 319.67 15.3378 319.622 15.3658C319.147 15.3978 318.671 15.4297 318.197 15.462C318.273 15.4074 318.35 15.3529 318.427 15.2984C318.873 15.2925 319.317 15.2867 319.763 15.281C319.764 15.281 319.765 15.2811 319.766 15.2811ZM114.954 15.0585C114.681 15.5925 115.634 15.4929 117.566 15.2248C116.697 15.1697 115.823 15.1142 114.954 15.0585ZM241.287 15.0777C241.35 15.1904 241.411 15.3027 241.477 15.4152C242.503 15.2978 242.312 15.1697 241.82 15.0204C241.641 15.0394 241.466 15.0586 241.287 15.0777ZM256.066 15.043C255.64 15.0201 255.858 15.1076 255.813 15.1058C254.736 15.0591 254.584 15.0185 253.263 15.0836C253.101 15.1066 252.941 15.1308 252.779 15.1545C253.39 15.3832 253.834 15.259 255.127 15.3926C254.894 15.3147 254.662 15.2366 254.429 15.1581C255.148 15.175 255.864 15.1916 256.582 15.2083C256.668 15.1844 256.753 15.1608 256.838 15.1369C256.583 15.106 256.319 15.0713 256.066 15.043ZM325.255 15.3614C325.954 15.3686 326.656 15.3759 327.355 15.3829C327.381 15.3385 327.405 15.2938 327.431 15.2494C326.706 15.2864 325.979 15.3238 325.255 15.3614ZM100.599 15.3001C100.544 15.3287 100.49 15.3574 100.442 15.3866C100.446 15.351 100.507 15.3232 100.599 15.3001ZM6.46166 15.0573C5.66884 14.9868 4.52637 15.0322 3.65674 15.017C3.7251 15.2695 5.9354 15.2003 6.71155 15.3527C6.83627 15.3076 6.79678 15.0869 6.46166 15.0573ZM171.092 15.3054C171.291 15.2187 171.489 15.1326 171.685 15.0461C172.166 15.0558 172.647 15.0659 173.13 15.0756C173.144 15.0049 173.158 14.9336 173.173 14.8629C171.044 14.9525 171.535 14.749 170.481 14.545C170.686 14.7987 170.887 15.052 171.092 15.3054ZM345.694 13.3849C345.701 13.7749 345.71 14.101 345.721 14.3565C345.733 14.6485 345.616 14.8079 345.621 14.857C345.611 14.9018 345.743 14.8681 345.875 14.5855C345.889 14.5098 345.894 14.4327 345.89 14.3565C345.865 13.8946 345.84 13.4311 345.816 12.9699C345.775 13.1092 345.735 13.2485 345.694 13.3849ZM80.167 3.16093C79.436 2.53255 79.3812 2.22659 78.972 1.7987C78.7856 1.60465 78.4613 1.42014 78.0368 1.45615C78.368 1.48857 78.6754 1.65328 78.8778 1.89289C79.1463 2.21928 79.4145 2.54534 79.6822 2.87038C79.8426 2.96617 80.0066 3.06506 80.167 3.16093ZM135.701 14.2814C135.159 14.1721 134.144 14.6833 132.618 14.3008C132.254 14.4134 132.026 14.5214 131.714 14.6322C131.532 14.5109 131.325 14.3878 131.152 14.2672C131.151 14.2672 131.15 14.2672 131.149 14.2672C129.765 14.3049 130.662 14.4592 130.631 14.5878C130.616 14.6411 129.589 14.5502 129.91 14.667C130.464 14.8674 132.535 14.7552 132.541 14.9974C131.813 14.9176 130.392 14.9826 130.813 15.1451C131.273 15.323 132.612 15.026 133.464 15.1735C132.243 14.7862 134.766 14.9083 135.053 15.2037C136.534 14.9776 135.173 14.8845 133.655 14.8933C134.582 14.6672 133.218 14.7885 132.993 14.599C133.949 14.4863 137.227 14.5873 135.701 14.2814ZM205.561 14.796C204.537 14.8072 202.939 14.6938 202.238 14.8567C201.83 14.9519 203.432 15.027 202.327 15.1762C203.324 15.162 203.552 15.1038 203.381 14.9726C203.609 14.9571 203.839 14.942 204.066 14.9269C204.171 14.9525 204.279 14.9778 204.384 15.0034C204.503 14.9497 204.623 14.8965 204.74 14.8429C204.981 14.8538 205.226 14.8647 205.467 14.876C205.495 14.849 205.544 14.8256 205.561 14.796ZM52.1994 10.6524C52.3208 10.6172 52.4306 10.5511 52.5186 10.4609C52.5975 10.3808 52.6763 10.3007 52.7554 10.2201C52.7013 10.2103 52.6417 10.2034 52.5834 10.1959C52.5393 10.1882 52.4951 10.1805 52.451 10.1727C52.6603 10.1492 53.7716 9.3461 54.0763 8.84442C54.2298 8.59241 53.5923 8.87762 54.4221 7.98862C53.8076 8.61972 53.2539 9.21999 52.6635 9.83907C52.6655 9.73252 52.6648 9.62757 52.6668 9.52107C52.6663 9.52134 52.6659 9.52162 52.6655 9.5219C52.4744 9.69126 52.281 9.86207 52.0894 10.0317C52.0851 10.0335 52.081 10.0348 52.0771 10.0358C52.196 10.2042 52.2454 10.4258 52.1994 10.6524ZM240.454 14.8539C239.485 14.9458 239.161 14.9945 239.618 15.146C239.619 15.146 239.62 15.1461 239.621 15.1462C239.982 15.0794 240.343 15.0128 240.704 14.9465C240.622 14.9157 240.54 14.8847 240.454 14.8539ZM95.0255 9.31137C93.0002 8.42272 96.6282 11.357 96.1968 10.5389C96.1776 10.5018 95.0991 9.51109 95.0255 9.31137ZM167.863 15.0785C168.428 15.0732 168.995 15.0686 169.563 15.0634C169.433 14.9793 169.299 14.8953 169.168 14.811C168.733 14.8998 168.297 14.9892 167.863 15.0785ZM340.806 14.8977C340.21 14.7828 338.682 14.7371 337.936 14.8611C338.328 14.8765 338.72 14.8919 339.113 14.9071C338.371 14.9202 337.638 14.9349 336.891 14.9475C336.851 15.1087 337.712 15.0163 339.008 15.062C339.209 15.0697 340.492 15.2683 340.934 15.1198C341.024 15.0894 339.659 15.0669 340.607 14.9791C340.193 14.9715 339.835 14.9726 339.443 14.9681C339.414 14.93 339.386 14.8918 339.355 14.8537C339.84 14.8684 340.321 14.8832 340.806 14.8977ZM199.603 14.8066C198.197 14.7912 198.023 14.8886 197.731 15.0612C198.384 15.0421 199.038 15.0234 199.692 15.0045C199.661 14.9387 199.634 14.8728 199.603 14.8066ZM328.241 14.8379C327.472 14.8172 327.801 14.9137 327.491 14.9314C326.321 14.9984 325.522 14.9285 324.365 14.9702C324.442 14.9516 324.513 14.9342 324.587 14.9161C324.586 14.9161 324.585 14.9161 324.584 14.9161C319.107 14.8249 321.984 15.052 325.261 15.0193C325.337 15.0554 325.411 15.0915 325.488 15.1272C326.954 15.0655 328.307 15.0074 328.241 14.8379ZM110.557 14.5999C110.495 14.56 111.026 14.3086 110.029 14.4249C109.239 14.7927 110.534 14.6116 110.859 14.7537C110.589 14.7887 110.312 14.8228 110.045 14.8579C111.66 14.9635 111.895 14.8764 111.307 14.6067C111.265 14.5886 110.62 14.6396 110.557 14.5999ZM100.395 14.3937C100.286 14.565 100.284 14.6942 100.414 14.7293C100.951 14.7788 101.736 14.6417 101.69 14.534C101.408 14.5267 101.19 14.62 100.891 14.5781C100.703 14.5519 100.602 14.4912 100.414 14.4475C100.403 14.4212 100.402 14.4002 100.395 14.3937ZM158.316 14.6287C158.257 14.6264 157.657 14.4189 157.717 14.5806C158.459 14.9643 159.953 14.7199 159.692 14.5871C159.197 14.5928 158.868 14.6496 158.316 14.6281C158.316 14.6283 158.316 14.6285 158.316 14.6287ZM346.017 10.5778C346.011 10.5808 345.961 10.626 345.884 10.6974C345.673 10.8838 345.414 11.3137 345.419 11.7707C345.414 12.1162 345.415 12.4414 345.434 12.5247C345.484 12.6838 345.537 12.7628 345.588 12.8821C345.571 12.5776 345.566 12.1578 345.559 11.7707C345.549 11.3353 345.765 10.9607 345.951 10.764C346.096 10.5967 346.146 10.5111 346.014 10.58C346.015 10.5793 346.016 10.5785 346.017 10.5778Z" fill="#3D3638"/>
</svg>
