<svg width="204" height="31" viewBox="0 0 204 31" fill="none" xmlns="http://www.w3.org/2000/svg">
<path d="M17.7518 16.597C17.4528 17.1511 18.7931 15.6436 18.038 16.7796C18.2481 16.5953 18.4598 16.4102 18.6698 16.2259C18.6493 16.1053 18.6301 15.9837 18.6096 15.8632C18.324 16.1072 18.0383 16.3513 17.7514 16.5967C17.7515 16.5968 17.7517 16.5969 17.7518 16.597ZM16.5067 16.0751C16.9506 16.0336 17.7753 15.3163 17.128 16.3349C16.9928 16.332 16.8559 16.3308 16.7207 16.3279C16.485 16.6707 16.2476 17.0152 16.0117 17.3576C15.8814 17.4353 15.7512 17.5128 15.6212 17.5907C15.6087 17.8432 15.5978 18.0948 15.5857 18.3475C15.6857 18.2123 15.787 18.0753 15.887 17.9401C16.4493 17.5727 16.8896 17.1857 17.5388 16.5728C17.5118 16.6566 17.4844 16.7403 17.4574 16.8241C17.7294 16.4555 18.0011 16.087 18.2717 15.7198C17.9473 15.9494 17.5849 16.2063 17.284 16.4188C17.5067 15.8199 18.3359 15.2001 18.7523 14.8622C18.9897 14.6696 19.0917 14.5623 19.1608 14.4775C19.138 14.4763 19.1225 14.4551 19.1047 14.4925C19.0996 14.5018 19.1146 14.6021 19.0783 14.6044C19.0365 14.6076 18.9711 14.5806 18.9428 14.5387C19.5083 15.0714 20.0781 15.5377 19.6878 14.9044C19.494 14.7186 19.311 14.5326 19.1346 14.3468C19.1231 14.3098 19.0534 14.2569 18.9788 14.2955C18.5817 14.6568 18.1894 15.0279 17.8057 15.4511C17.8757 15.0027 17.2951 15.4545 16.5067 16.0751ZM36.0644 13.7224C35.6698 13.9332 35.0905 14.5867 34.7366 15.0681C34.7361 15.0686 34.7357 15.069 34.7352 15.0695C34.6573 15.1755 34.5713 15.5057 34.8664 15.2007C35.347 14.7031 35.3912 14.2743 35.7785 14.1481C35.8691 14.0089 35.9681 13.8667 36.0644 13.7224ZM37.1388 12.6707C37.3917 12.3236 37.1108 12.3148 36.7743 12.7297C36.7742 12.7296 36.7741 12.7295 36.7739 12.7294C36.6335 12.9025 37.0558 12.7092 36.3774 13.1553C36.3529 13.3605 36.3221 13.5558 36.2961 13.7568C36.4353 13.6206 36.5632 13.4974 36.7088 13.3542C36.463 13.3027 36.8856 13.0174 37.1388 12.6707ZM20.113 15.4932C20.0265 15.6741 19.8297 15.4757 19.4005 15.232C19.7224 15.5452 20.0448 15.8581 20.3654 16.1699C20.2808 15.9438 20.1975 15.7194 20.113 15.4932ZM13.8473 19.7392C13.8468 19.7397 13.8463 19.7402 13.8459 19.7406C13.7207 19.8236 13.5952 19.9068 13.4717 19.9888C13.4573 20.0987 13.4433 20.2076 13.4288 20.3175C13.0164 20.6403 12.6021 20.9651 12.1894 21.2877C12.3798 21.3888 13.0159 20.7052 13.4814 20.4435C13.978 19.859 14.1539 19.5139 14.0655 19.3553C13.993 19.4828 13.9211 19.6104 13.8473 19.7392ZM104.104 16.3208C104.267 16.2383 104.429 16.1573 104.592 16.0747C104.447 16.2566 104.299 16.4329 104.155 16.619C103.549 16.8745 103.664 17.0704 103.088 17.6244C101.323 19.3223 101.51 18.5902 100.346 20.5533C101.582 19.2789 101.287 19.9491 102.189 19.3368C102.236 19.07 101.237 19.5717 101.694 19.012C102.686 18.2528 103.637 17.5193 104.684 16.6229C104.674 16.6703 104.665 16.7176 104.656 16.765C104.49 16.9071 104.325 17.0478 104.159 17.1899C104.376 17.0746 104.589 16.9626 104.809 16.8452C104.48 16.9431 105.089 16.4635 104.883 16.4035C104.792 16.3768 104.469 16.5353 104.271 16.6207C104.606 16.2237 104.954 15.82 105.294 15.4199C105.055 15.5647 104.816 15.7092 104.579 15.8526C104.421 16.0078 104.264 16.1622 104.106 16.3175C104.105 16.3186 104.104 16.3197 104.104 16.3208ZM189.761 30.1067C189.104 29.9122 187.909 29.88 187.28 30.0965C188.108 30.0998 188.934 30.1034 189.761 30.1067ZM13.9989 19.2181C13.9697 19.2942 13.9418 19.3683 13.9126 19.4443C14.1883 19.2552 14.4651 19.0645 14.7408 18.8754C14.7178 18.7632 14.6958 18.65 14.6744 18.5368C14.4497 18.7633 14.2237 18.9916 13.9989 19.2181ZM29.5507 19.8169C29.3766 19.9828 29.3638 20.0001 29.1617 20.2215C29.1618 20.2212 29.162 20.2209 29.1622 20.2206C29.0819 20.3081 28.419 21.0499 28.5493 21.0237C28.8989 20.6759 29.27 20.3031 29.6268 19.9462C29.6034 19.9012 29.5718 19.8649 29.5507 19.8169ZM23.812 19.0756C23.8114 19.0752 23.8108 19.0749 23.8102 19.0745C23.6754 18.9555 23.5391 18.8514 23.4052 18.7233C23.7948 19.2768 24.0163 19.2043 24.4031 19.6743C24.7896 20.1445 24.9733 20.4903 25.5381 20.6525C25.4331 20.4872 25.3307 20.2985 25.2266 20.1242C24.538 19.5966 24.4499 19.357 24.0415 18.79C23.9649 18.8855 23.8886 18.9801 23.812 19.0756ZM95.328 18.402C95.3113 18.1863 95.084 18.1543 95.0694 18.142C95.0695 18.1424 95.0696 18.1427 95.0697 18.1431C94.1325 17.0215 95.1486 18.3322 94.1615 17.3761C94.2812 17.5455 94.3971 17.714 94.5152 17.8824C94.7848 18.0559 95.0676 18.23 95.328 18.402ZM60.6557 15.7484C60.6173 15.7679 60.5769 15.7857 60.5385 15.8052C61.1291 16.3823 61.1639 16.6453 61.7529 17.0265C61.3874 16.6002 61.0219 16.1741 60.6561 15.7481C60.656 15.7482 60.6558 15.7483 60.6557 15.7484ZM32.2828 16.6633C31.5801 17.2554 31.0768 17.7099 30.5429 18.4194C30.5425 18.42 30.5422 18.4206 30.5418 18.4212C30.5114 18.4624 30.7454 18.3497 30.7139 18.4117C30.5765 18.5309 30.4301 18.6494 30.2897 18.7683C30.3207 18.8344 30.3525 18.8996 30.3832 18.9655C30.7343 18.5868 31.0856 18.208 31.4381 17.828C31.4124 17.9105 31.3852 17.994 31.3595 18.0764C31.685 17.7803 32.0092 17.4852 32.3346 17.1891C32.1469 17.2175 31.9595 17.2458 31.7729 17.2726C31.9426 17.0695 32.1133 16.8667 32.2828 16.6633ZM71.5524 17.0709C71.4812 17.2052 71.7245 17.0681 71.5922 17.2548C71.4596 17.4412 71.1066 17.6762 71.2647 17.6965C71.4915 17.4938 71.7307 17.282 71.9621 17.0758C71.4189 17.9409 70.5708 18.4977 70.7587 18.7073C71.383 17.98 71.9625 17.4483 72.6717 16.8492C72.4869 16.7185 71.6962 17.2364 71.9601 16.6763C71.8257 16.8066 71.6836 16.9427 71.5541 17.0698C71.5535 17.0702 71.553 17.0705 71.5524 17.0709ZM2.56274 26.6978C2.4228 26.8464 2.20576 27.0522 1.96601 27.2827C2.13735 27.1008 2.40391 26.9805 2.66818 26.9861C2.31447 26.9905 1.97427 27.0085 1.7122 27.0561C1.53633 27.0881 0.95041 27.5031 0.953387 27.5578C0.97059 27.742 1.68613 27.7671 0.919775 27.8871C1.17758 27.8884 1.42777 27.8953 1.68368 27.8986C1.63782 28.0224 1.59217 28.1458 1.54822 28.2692C1.23667 28.2505 0.92474 28.2318 0.613193 28.2128C0.597899 28.2538 0.582653 28.2948 0.567359 28.3358C1.68742 28.3367 1.02623 28.4948 1.60729 28.6422C1.07222 28.7167 0.53319 28.7908 3.05176e-05 28.8653C0.30771 28.8562 0.670789 28.8495 0.942183 28.8387C0.9785 29.0486 0.330993 28.9986 0.220036 29.0375C-0.295549 29.2188 1.77973 29.175 2.66818 29.3256C2.92174 29.3575 3.11599 29.3265 3.19747 29.3529C3.03389 29.425 2.85329 29.468 2.66818 29.476C2.27423 29.5016 1.87114 29.5268 1.4759 29.5523C1.62497 29.59 1.776 29.6277 1.92508 29.6653C2.16702 29.6221 2.41498 29.5846 2.66818 29.5512C3.07066 29.5187 3.45318 29.327 3.71149 29.0282C4.18898 28.4419 4.70588 27.8436 5.2216 27.219C5.31551 27.1374 5.40978 27.0557 5.50205 26.9752C5.54339 27.0678 5.58585 27.1589 5.62719 27.2515C5.76755 27.127 5.90949 27.0007 6.04984 26.8762C5.43864 27.046 5.98244 26.5082 6.50056 25.7208C6.07572 25.9905 5.69433 26.466 5.57937 26.2919C6.88248 25.2112 8.12123 23.6582 9.40625 22.6242C9.7251 22.3674 9.91059 22.5547 10.5701 21.8608C10.5267 21.8633 10.4858 21.8302 10.444 21.8182C11.7037 20.737 12.4672 20.0803 13.5925 18.7728C13.5893 18.9101 13.5875 19.0465 13.5842 19.1837C13.2927 19.4085 13.0002 19.6332 12.7101 19.8566C12.645 20.1429 12.9535 19.9321 12.182 20.7012C11.5499 21.3315 11.8768 20.907 11.6724 21.0458C11.3952 21.2335 11.2793 21.5255 10.9793 21.7255C10.7477 21.8804 10.8655 21.58 10.3845 22.1073C10.7055 22.0228 11.0344 21.9381 11.3582 21.8537C11.4545 21.7041 11.5495 21.555 11.6456 21.4051C11.4896 21.4978 11.3362 21.5888 11.1803 21.6816C11.6749 21.3005 12.1422 20.9403 12.6537 20.5464C12.3355 20.5228 12.8675 20.1189 13.1418 19.885C13.5692 19.5208 13.1125 19.7422 13.3915 19.5024C13.6709 19.2628 14.0822 19.1144 14.5231 18.6173C14.1957 18.7926 14.4693 18.3824 14.333 18.3783C14.1966 18.3743 13.685 18.8548 14.0849 18.3015C15.0594 17.4435 14.3326 18.7053 14.9948 18.1297C15.7902 17.4386 15.5311 16.8256 15.2158 16.9535C14.9677 17.054 14.3826 17.6688 14.1334 17.771C15.0753 16.564 15.3464 16.8164 15.5814 16.6838C16.4355 16.2027 15.4894 16.1535 16.4599 15.5429C16.352 15.4647 16.2563 15.393 16.1522 15.3187C16.3055 15.1992 16.4187 15.1312 16.5969 14.9799C16.2922 15.6472 16.6823 15.2416 16.8867 15.0377C17.209 14.7166 16.8006 15.3019 16.9086 15.2396C17.1994 15.0709 17.5351 14.6799 17.392 14.9827C17.4548 14.8455 17.526 14.6998 17.5918 14.5602C18.0139 14.2307 19.2855 13.7359 18.3665 14.498C18.5373 14.5486 18.6962 14.3598 18.8467 14.1634C18.8581 14.1381 18.8718 14.1132 18.889 14.0937C18.9748 14.0126 19.013 14.1421 19.0801 14.1128C19.2327 14.0713 19.3217 14.0673 19.3436 13.9686C19.3703 13.8759 19.2827 13.7289 19.2287 13.6339C19.4692 13.7145 19.5428 13.8393 19.5786 13.9029C19.7632 14.2001 19.4042 13.9276 20.4459 15.0566C20.482 15.2935 19.7225 14.7482 20.2078 15.3495C20.4823 15.2751 21.0076 15.5498 21.8453 16.2716C21.8809 16.3874 21.9159 16.5034 21.9515 16.6192C22.5382 16.8839 22.488 16.4989 23.0763 17.4864C23.0207 16.6961 23.0765 17.2219 23.9315 17.7778C24.1049 17.891 23.8501 17.4837 24.0888 17.6451C24.1969 17.7183 24.3594 17.996 24.6253 18.173C24.7554 18.2592 25.4025 18.623 25.6853 19.0403C25.2505 18.9615 25.7642 19.778 25.0466 19.3549C25.5736 19.8468 25.9982 20.2932 26.1905 20.4626C26.3459 20.5913 26.3707 20.5825 26.2495 20.4036C26.184 20.2854 26.0551 20.082 25.8509 19.7721C26.057 19.9092 26.2632 20.0465 26.4693 20.1838C26.5721 20.2482 26.6833 20.287 26.7922 20.3009C26.9615 20.4338 27.2144 20.5031 27.4735 20.4528C27.4328 20.3035 27.4189 20.2689 27.5987 20.087C27.6986 19.9768 27.8513 19.8276 28.0773 19.6168C27.9019 19.758 27.7267 19.8987 27.5512 20.0395C27.4263 20.1296 27.2802 20.167 27.1435 20.156C27.1293 20.1158 27.0949 20.074 27.1013 20.033C27.1816 20.0554 27.3268 20.0453 27.4542 19.9425C27.9542 19.4986 28.5549 18.9375 28.766 18.7801C29.0725 18.5514 28.5664 19.0788 28.6812 19.0396C29.6344 18.7091 29.3539 18.5303 29.8679 18.1232C30.1698 17.8845 29.5587 18.5642 29.7168 18.4331C30.3024 17.9462 30.3856 17.532 30.859 17.0545C30.784 17.3173 30.7119 17.5802 30.6418 17.8399C31.1356 17.3362 31.6907 16.7794 32.1844 16.346C32.3781 16.1758 32.3105 16.3832 32.3449 16.3581C32.5163 16.2347 33.1544 15.6727 33.2182 15.6095C33.6969 15.1319 33.6138 15.0214 34.0731 14.5515C33.8825 14.7257 33.7036 14.8898 33.5174 15.0603C33.2794 14.9845 33.0399 14.9103 32.8016 14.8342C33.2456 14.3674 33.69 13.9007 34.1353 13.4325C33.8539 13.8187 33.5711 14.2058 33.2897 14.592C33.9381 14.1971 34.5868 13.8024 35.2355 13.4078C35.4293 13.0583 35.622 12.7099 35.8158 12.3604C36.5741 11.6432 36.7416 12.1078 36.8147 11.4809C37.0556 11.2868 37.2965 11.0927 37.5371 10.8983C37.4665 10.8899 37.3962 10.8811 37.3256 10.8726C37.6121 10.6347 37.8983 10.3968 38.1851 10.1592C38.0493 10.5747 37.9263 10.9922 37.7892 11.401C38.3355 10.9154 38.2268 10.7868 38.2741 10.6803C38.3997 10.3977 38.9106 10.0985 39.0002 9.86368C39.0301 9.78394 38.4463 10.2115 38.5305 9.94708C38.5471 9.89557 38.8928 8.88733 39.4012 8.53186C39.4531 8.59998 39.4933 8.70694 39.541 8.78979C40.1584 8.2453 40.1414 7.63582 39.9766 7.62504C40.3476 7.377 40.8051 6.9298 40.9646 6.96228C41.1251 6.80649 41.2842 6.65179 41.4447 6.496C41.0461 6.42693 41.7484 5.81017 41.9927 5.96801C41.726 6.24465 41.4593 6.52186 41.1926 6.79849C41.6445 6.83953 40.9678 7.81381 42.4572 5.8678C42.6574 5.41117 41.8908 6.46905 42.0624 6.10544C42.4714 5.58468 42.9546 5.19501 43.3072 4.66383C43.7456 4.00243 42.9618 4.57172 44.3849 3.4325C41.9146 6.61415 45.0128 3.28517 46.4504 2.06826C46.4519 1.98805 46.4659 1.90136 46.4919 1.80863C46.5027 1.48851 47.2312 0.971105 47.932 1.54943C48.4599 1.99731 49.0547 2.60025 49.6897 3.32751C49.4311 3.26445 48.9959 2.72848 48.6839 2.48089C48.372 2.23335 48.6167 2.594 48.2225 2.2912C48.0748 2.17765 47.8696 2.01134 47.6486 1.83283C47.3393 1.57763 46.8879 1.68726 46.7662 1.85103C46.8364 1.83223 46.9807 1.80525 47.1196 1.84288C47.2603 1.87699 47.3727 1.96939 47.4322 2.04926C47.6404 2.2856 47.7374 2.36922 47.4794 2.00206C47.4648 1.97471 47.4456 1.94437 47.4189 1.91241C47.4535 1.92644 47.4866 1.94353 47.5181 1.96341C48.2533 2.51653 48.6954 2.78059 49.5609 3.61192C49.6787 4.03472 49.5637 4.10968 50.439 4.99381C50.1306 4.26159 51.2776 5.11398 51.2764 4.67496C50.6016 4.10209 50.7375 4.66357 50.2748 4.40463C50.2277 4.37781 49.6997 3.74321 49.5609 3.61192C50.3386 4.00734 50.6125 4.13902 50.4791 3.55072C50.8741 3.98555 51.1608 4.21508 51.09 4.36152C51.2236 4.40088 51.3577 4.44069 51.49 4.4787C51.6238 4.6149 51.741 4.74083 51.885 4.88308C51.5241 4.84976 52.0071 5.13105 52.2044 5.47694C52.4017 5.82295 51.9079 5.5878 52.6522 6.3356C52.3652 6.12526 52.1049 5.93081 51.8281 5.72653C52.267 6.24976 52.7072 6.77476 53.1461 7.29799C52.7081 7.0602 51.8272 6.47666 51.7156 6.62838C51.9869 6.80025 52.6586 7.64672 52.7381 7.7334C53.0463 8.06853 52.954 7.81017 52.9804 7.83245C53.5261 8.29744 53.9141 8.74195 54.2318 8.80798C54.5547 9.2445 54.8735 9.49851 55.273 9.90441C55.4929 10.1278 55.3573 10.1771 55.5046 10.2893C56.4839 11.0344 55.7819 10.0935 57.2178 11.9842C56.952 11.8472 56.6875 11.7144 56.4212 11.578C56.5847 11.7902 56.7471 12.0014 56.9106 12.2136C57.048 12.3275 57.1844 12.4403 57.3218 12.5543C57.4587 12.412 57.5954 12.2688 57.7323 12.1265C57.8777 12.2568 58.0236 12.3878 58.169 12.518C57.9463 12.2678 57.7229 12.0169 57.5001 11.7666C57.5031 11.7205 57.5075 11.6757 57.5105 11.6296C57.8999 11.9429 58.2885 12.2547 58.6782 12.5677C58.6364 12.623 58.5942 12.6786 58.5524 12.7339C59.412 13.4583 59.4719 13.436 60.0909 14.3225C60.6722 14.9009 60.9413 15.5761 61.191 15.9968C61.3385 16.0898 61.4864 16.1826 61.6353 16.277C61.6719 16.3945 61.7095 16.5125 61.7462 16.63C61.9551 16.7265 62.1661 16.8251 62.3747 16.9219C62.3322 17.1345 62.3365 17.2184 61.6958 16.6673C61.7413 17.0301 62.8604 18.0092 63.3407 18.383C63.7051 18.6665 63.478 18.1747 63.5346 18.1992C63.7246 18.2798 64.2114 18.861 64.3326 18.964C64.8447 19.4006 65.1705 19.7396 65.6282 20.1388C65.7175 20.2163 66.0345 20.3656 66.0569 20.3828C66.0884 20.409 66.1289 20.4421 66.174 20.4791C66.4153 20.7138 66.8804 20.7902 66.9372 20.7818C67.4252 20.8233 67.7564 20.6036 67.9399 20.4281C69.0302 19.3927 67.709 21.262 69.4896 19.4144C69.4754 19.5245 69.4659 19.6293 69.4531 19.7381C69.6127 19.5843 69.7739 19.4287 69.9335 19.275C70.0921 19.0362 69.7788 19.2036 70.2322 18.8678C70.1474 18.8344 70.0624 18.801 69.9766 18.7692C70.1801 18.6295 70.3772 18.4957 70.5848 18.3519C70.6553 17.871 71.6153 16.8179 71.3029 16.6485C71.1966 16.5909 70.3989 17.2204 70.6884 16.7558C70.9776 16.4322 70.8681 16.7374 70.9982 16.6176C71.9368 15.7505 71.7471 15.6657 72.1526 15.3334C72.2695 15.3341 72.3906 15.3329 72.5094 15.3329C72.6313 15.1765 72.7536 15.0197 72.8768 14.8619C72.9487 14.869 73.0221 14.8748 73.094 14.8819C72.9656 15.0156 72.8206 15.1659 72.703 15.2888C73.0238 15.2741 74.6328 13.8026 73.915 14.2595C73.6228 14.4457 73.2072 14.9063 73.3032 14.4486C73.6093 14.1789 73.9427 13.8825 74.2726 13.5893C74.4341 13.4428 74.6359 13.3476 74.8391 13.3142C74.8479 13.2558 74.8582 13.1976 74.8733 13.1393C75.4063 13.1111 75.392 13.2624 75.2863 13.2967C75.1753 13.3469 74.9925 13.4383 75.0027 13.4993C75.1733 13.4873 75.348 13.5251 75.496 13.6066C75.5841 13.5925 75.6782 13.5875 75.7789 13.6072C75.7607 13.6322 75.7437 13.677 75.7445 13.7369C75.7489 13.8461 75.8266 14.0135 76.114 14.2349C76.4041 14.4574 76.1519 13.9024 76.6196 14.4121C76.4894 14.4692 76.1988 14.4067 76.713 14.9812C76.8648 14.9376 77.0291 14.9228 77.1737 14.8619C77.7568 15.6328 78.2158 15.7899 78.9012 16.6937C79.3363 17.2669 79.7816 18.2027 80.4852 18.1506C80.8638 18.5094 80.6527 18.4864 80.7407 18.6167C81.1555 19.2318 81.7177 19.4356 81.8242 19.521C82.1201 19.7581 82.3275 19.9558 82.5154 20.1376C82.7075 20.3223 82.9885 20.4101 83.2615 20.2756C83.2582 20.3783 83.2581 20.474 83.2431 20.5741C82.8681 20.5387 82.6531 20.4001 82.4529 20.2002C82.2803 20.0182 82.0714 19.8223 81.78 19.5508C81.9808 19.7796 82.1814 20.0089 82.3822 20.2378C82.2903 20.2595 82.1987 20.2814 82.1084 20.3041C80.3584 18.1088 80.4587 18.9076 82.0227 20.6303C82.0331 20.6414 82.0437 20.6524 82.0545 20.6632C82.3774 20.7649 82.7046 20.7342 82.9336 20.6144C83.2913 20.7249 83.6655 20.6077 83.8984 20.3867C84.4997 19.8352 84.8735 19.2957 85.6565 18.4633C85.7818 18.3305 86.3122 17.9212 86.5171 17.7222C86.5142 17.726 86.5112 17.7297 86.5083 17.7335C86.7331 17.7071 86.6086 17.9229 86.677 18.0319C86.7976 17.9335 86.9182 17.8351 87.0388 17.7368C87.2156 17.4247 87.0741 17.4551 87.5713 16.9902C87.5737 17.1224 87.5771 17.2537 87.5795 17.3859C88.109 16.8611 88.3808 16.443 88.903 15.984C88.7951 16.041 88.6881 16.0969 88.5802 16.1539C89.5829 15.0212 88.3374 15.4751 89.3413 14.8652C89.3581 14.7794 89.3732 14.6945 89.3901 14.6086C89.0492 14.9326 88.7083 15.2569 88.3688 15.5795C88.3132 15.5374 88.2572 15.496 88.203 15.4526C88.573 15.1117 88.9453 14.7697 89.3154 14.4288C89.0231 14.6555 88.7293 14.8837 88.437 15.1104C88.8258 14.6749 89.2146 14.2391 89.6034 13.8036C89.3454 14.421 89.9348 13.8755 90.006 14.1601C90.1207 13.9871 90.2274 13.8183 90.3345 13.6512C90.5981 13.2071 91.3965 12.942 91.9936 13.4878C92.2678 13.7393 92.5543 14.0422 92.8633 14.4279C93.0627 14.6771 92.8165 14.6796 93.6043 15.1648C93.2524 15.2086 93.957 16.0988 93.6663 16.1845C93.4538 15.9539 93.2297 15.7184 93.026 15.4924C93.3359 15.6718 93.556 15.5328 93.2377 15.1079C92.8313 14.5656 92.0149 13.9982 92.2425 13.8272C92.1368 13.7314 92.0359 13.6383 91.9358 13.5457C91.8307 13.4471 91.7087 13.3675 91.5744 13.3125C91.662 13.4289 91.7175 13.5537 91.7462 13.6749C91.2406 13.089 90.5111 13.4296 90.4493 13.766C90.4452 13.7771 90.4413 13.7882 90.4375 13.7994C90.4454 13.7922 90.4533 13.785 90.4612 13.7778C90.8039 13.4558 91.3764 13.5008 91.6527 13.8288C91.8862 14.0846 92.1197 14.3404 92.3534 14.5964C92.2531 14.5131 92.1516 14.4286 92.0516 14.3451C92.396 14.9441 91.7888 14.5781 92.6414 15.4852C92.6943 15.4216 92.7482 15.359 92.8014 15.295C92.966 15.7711 93.8438 16.6473 93.3849 16.5466C93.7048 16.7565 93.7936 16.7757 93.847 17.0222C94.6819 17.5849 95.3028 17.8615 95.2596 17.4073C95.486 17.6998 95.7124 17.9925 95.9374 18.2837C95.7313 18.1899 95.5252 18.0957 95.319 18.0019C95.7739 18.4498 96.2321 18.901 96.6854 19.3479C96.8948 19.2249 95.8669 18.4286 96.2787 18.5431C96.3612 18.5659 96.5402 18.8728 96.6208 18.9198C97.4756 19.411 96.2877 18.4858 96.6254 18.545C97.6713 19.5048 97.1022 18.4689 98.2873 20.0463C98.3718 20.0348 98.46 20.025 98.5414 20.0111C98.559 20.0284 98.5757 20.0452 98.5916 20.0615C98.7416 20.2081 98.8315 20.2655 98.9265 20.3301C99.0218 20.3861 99.1419 20.4548 99.3812 20.3903C99.4952 20.3565 99.5936 20.2572 99.6563 20.1446C99.7991 19.9188 99.9487 19.6784 100.21 19.5805C100.285 19.5536 100.038 20.2658 101.035 19.2478C101.81 18.4577 101.32 18.6188 101.684 18.1378C102.049 17.6565 103.245 16.9167 103.271 16.3731C103.084 16.6289 102.82 16.9296 102.602 17.2036C102.452 17.2533 102.305 17.3009 102.156 17.3495C102.783 16.8522 103.288 16.1945 103.786 15.9361C104.353 15.0024 105.362 14.3338 105.342 14.7681C105.066 14.9852 105.244 14.6262 104.959 15.0267C104.972 15.1101 104.983 15.1952 104.996 15.2787C105.574 14.689 105.981 14.2848 105.567 14.4038C105.654 14.3098 105.74 14.2166 105.828 14.1225C105.95 14.2128 106.072 14.3054 106.194 14.3957C106.314 14.2996 106.435 14.2029 106.555 14.1068C106.652 13.9632 106.749 13.819 106.847 13.6738C106.514 13.6687 106.23 13.9417 107.058 12.9257C107.119 12.9812 107.181 13.0353 107.242 13.0908C107.939 12.2451 107.819 12.0836 108.793 11.12C107.847 11.6611 107.799 12.4263 107.396 12.0179C107.236 12.231 107.075 12.446 106.915 12.6592C106.828 12.6287 106.741 12.5979 106.655 12.5661C107.687 11.5958 109.738 10.3193 110.152 9.39221C110.264 9.34245 110.373 9.28828 110.489 9.23951C110.991 8.42781 111.622 8.49181 112.088 7.62528C112.136 7.53554 111.665 7.35276 112.545 6.49712C112.565 6.56117 112.626 6.64387 112.662 6.71498C112.823 6.50114 112.983 6.28708 113.143 6.074C113.216 6.07943 113.29 6.08319 113.364 6.08891C113.059 6.42445 112.755 6.75934 112.449 7.09488C112.729 6.84219 113.01 6.5878 113.29 6.33511C113.007 6.74644 112.851 6.90375 113.163 6.79713C113.47 6.50188 113.779 6.2066 114.086 5.91135C114.144 5.90662 114.201 5.90241 114.258 5.89768C114.191 6.12207 114.12 6.34621 114.054 6.57178C114.244 6.34766 114.432 6.1349 114.613 5.92921C114.854 5.63018 115.327 5.59375 115.658 5.82352C115.801 5.92628 115.945 6.02177 116.091 6.10861C116.22 6.18527 115.959 5.71982 116.567 6.51186C116.632 6.46855 116.694 6.4434 116.757 6.40552C117.462 7.41403 117.789 7.65026 118.792 8.43415C118.111 7.95785 118.693 8.40754 118.786 8.60959C118.849 8.74825 118.461 8.3487 118.466 8.43276C118.471 8.51657 118.825 9.18689 118.368 8.76824C117.62 7.37049 116.939 7.46627 115.717 5.93168C115.887 6.18573 116.059 6.44141 116.229 6.69546C116.101 6.6239 115.986 6.56017 115.847 6.48225C116.68 7.18762 116.265 6.85493 116.53 7.2209C116.797 7.58722 117.329 8.20452 117.7 8.60347C117.817 8.72912 117.762 8.52834 118.043 8.7954C118.234 8.97721 118.636 9.59483 118.881 9.58525C119.04 9.57945 118.45 8.53256 119.581 9.66523C119.876 9.79712 119.308 9.27954 119.306 9.25808C119.304 9.06282 120.072 9.68618 120.32 10.0816C120.34 10.114 120.011 9.93529 120.257 10.241C120.842 10.9671 121.307 11.2593 121.848 11.5669C121.757 11.7499 122.145 12.4651 122.883 13.101C122.878 13.1753 122.872 13.2484 122.868 13.323C122.782 13.1956 122.696 13.0686 122.61 12.9412C122.469 12.8496 122.328 12.7443 122.186 12.6598C122.843 13.3839 122.751 13.6704 123.013 14.0706C123.911 15.4396 123.723 14.2537 123.605 13.9633C123.423 13.8509 123.241 13.7473 123.059 13.6379C123.123 13.6064 123.187 13.5748 123.25 13.5417C124.945 15.2392 123.818 13.4902 124.768 14.2625C124.754 14.7188 125.364 15.3738 126.319 16.0303C126.407 16.1206 126.496 16.2104 126.584 16.3011C126.564 16.3502 126.512 16.4023 126.513 16.4491C127.444 17.4593 127.978 17.2707 128.104 17.3283C128.664 17.5845 128.772 18.1125 128.891 18.2347C129.39 18.7488 129.631 18.8027 130.073 19.3252C130.549 19.8874 130.122 19.6042 130.216 19.8262C130.251 19.9083 130.356 20.042 130.469 20.1839C130.58 20.3331 130.763 20.438 130.874 20.5005C130.799 20.4215 130.735 20.3308 130.702 20.2414C131.038 20.3698 131.364 20.2419 131.532 20.0203C131.722 19.7966 131.926 19.567 132.165 19.3169C133.17 18.9435 133.224 17.8244 133.418 18.4942C132.869 19.1022 132.595 19.4749 132.395 19.8944C132.789 19.5288 133.183 19.1625 133.576 18.7968C133.64 18.6386 133.672 18.5138 133.755 18.3344C134.139 18.1514 134.754 17.4503 135.042 17.2216C136.39 16.1504 136.188 16.6963 137.003 15.3036C136.179 16.0713 136.04 15.9299 135.27 16.7384C135.341 16.468 135.762 16.0877 135.383 16.2271C136.176 15.4932 136.036 15.8472 136.428 15.6451C136.767 15.4708 137.288 14.9593 137.365 15.095C137.359 14.9837 137.343 14.8861 137.337 14.775C137.691 14.4219 138.045 14.0685 138.399 13.7153C138.535 13.5785 138.713 13.4845 138.903 13.4494C138.703 13.4275 138.478 13.4725 138.276 13.5929C138.186 13.6424 138.096 13.692 138.006 13.7416C138.066 13.6618 138.126 13.5819 138.185 13.5021C138.286 13.3757 138.414 13.2652 138.561 13.1822C139.013 13.0407 139.591 13.1397 139.957 13.5242C141.078 14.6849 142.48 15.8065 141.836 15.9197C142.407 16.5215 142.54 16.5349 142.95 16.7633C142.949 16.8348 142.953 16.8991 142.947 16.9746C143.364 17.315 143.518 17.7417 143.887 18.04C144.256 18.3386 144.468 18.2928 144.3 18.5578C144.578 18.7119 144.845 18.8753 145.117 19.0325C145.198 19.2113 145.279 19.3894 145.358 19.5666C145.587 19.7435 145.815 19.9211 146.044 20.098C146.045 20.1619 146.123 20.2753 146.239 20.414C146.397 20.6052 146.7 20.7754 147.019 20.7979C147.338 20.8283 147.645 20.7181 147.842 20.6113C147.891 20.5515 147.923 20.4905 147.943 20.431C148.036 20.0568 147.851 19.7164 148.594 19.0832C148.661 19.1904 148.727 19.297 148.794 19.4042C148.956 19.2063 149.118 19.0082 149.281 18.8089C149.263 18.7698 149.244 18.732 149.226 18.6929C149.143 18.7935 149.061 18.8929 148.979 18.9939C149.01 18.8661 149.041 18.7402 149.071 18.6138C149.416 18.4106 149.762 18.2071 150.109 18.0025C149.791 18.428 149.473 18.8536 149.156 19.279C149.686 18.8765 149.947 18.4884 150.423 18.154C150.656 17.6813 150.457 17.7424 150.183 17.7554C150.325 17.6355 150.469 17.5137 150.611 17.3937C150.394 17.3499 150.538 17.0507 149.783 17.8273C149.798 17.7375 149.816 17.6484 149.829 17.5584C149.961 17.4386 150.011 17.3257 150.163 17.2022C150.578 16.8657 151.095 16.8064 151.149 16.9123C151.177 16.9682 150.727 17.2583 150.801 17.3028C150.982 17.411 151.767 16.4962 150.687 17.8673C151.186 17.5527 151.207 17.3923 151.629 16.917C151.642 17.0004 151.656 17.0825 151.671 17.1645C151.857 16.9342 152.043 16.7037 152.229 16.4734C151.691 16.5147 153.132 14.8876 151.535 16.0516C151.931 15.6324 152.327 15.2145 152.722 14.7961C152.613 14.8544 152.504 14.913 152.395 14.9713C152.224 15.1686 152.055 15.3645 151.884 15.5615C152.054 15.2988 152.224 15.0359 152.394 14.7732C152.962 14.3201 153.251 14.2085 153.595 14.0841C153.08 14.7586 153.165 14.4552 152.68 14.8968C152.766 14.9499 152.808 15.0351 152.921 15.0674C153.017 14.6844 153.902 14.008 154.09 13.834C154.194 13.7379 154.26 13.6689 154.301 13.618C154.537 13.3864 154.119 13.4885 154.589 13.2237C155.049 13.0185 155.629 13.2032 155.972 13.5094C156.08 13.5949 156.193 13.6644 156.311 13.7079C156.228 13.7809 156.122 13.838 156.029 13.8878C156.578 14.4879 156.556 14.2807 156.628 14.3281C157.774 15.0796 158.122 15.761 159.187 16.8665C159.025 16.7529 158.864 16.6356 158.702 16.5192C159.354 17.5045 158.853 16.902 158.087 16.2461C158.77 16.8958 159.01 17.4191 159.438 17.9316C159.866 18.444 160.746 19.1776 161.097 19.4156C160.514 18.6499 159.727 17.9827 159.003 17.2088C159.168 17.214 159.318 17.2291 159.494 17.2292C159.782 17.8522 160.158 18.004 160.33 18.1318C160.836 18.507 160.678 18.6371 161.099 18.7485C161.035 18.7909 160.982 18.8278 160.922 18.8667C161.853 19.754 162.929 20.641 163.324 21.4296C163.506 21.3558 163.67 21.2733 163.863 21.2049C164.152 21.6864 164.58 21.9176 164.882 22.2644C165.182 22.61 164.956 22.5904 165.296 23.0099C165.359 23.0875 165.57 23.1692 165.695 23.3899C165.822 23.6125 166.109 24.6134 166.498 24.3789C166.825 24.7031 167.145 24.9999 167.469 25.3136C167.176 24.9852 166.882 24.6573 166.59 24.3302C166.93 24.5196 167.269 24.7075 167.609 24.8969C167.576 24.998 167.541 25.1004 167.507 25.1993C168.139 25.9949 168.767 26.4026 169.461 27.149C169.577 27.2737 169.16 27.123 169.727 27.6228C170.103 27.9531 170.511 28.1296 170.98 28.5014C171.118 28.6004 171.285 28.6753 171.497 28.6918C171.595 28.6968 171.698 28.7048 171.806 28.7162C171.871 28.7232 172.251 28.9923 172.712 28.806C172.817 28.7638 172.376 28.7013 172.616 28.6459C172.857 28.5904 173.932 28.5448 174.016 28.4127C174.004 28.4595 173.937 28.5079 173.905 28.5555C174.088 28.5779 174.274 28.6003 174.459 28.6222C174.476 28.5398 174.495 28.4573 174.512 28.3754C175.567 28.567 176.112 28.8797 177.675 28.7762C177.236 28.8959 176.796 29.016 176.358 29.1356C176.238 29.0516 176.117 28.967 175.999 28.8829C175.278 28.9164 174.556 28.9497 173.836 28.9833C173.717 28.8876 173.601 28.7923 173.482 28.6966C173.291 28.7091 173.102 28.7211 172.911 28.7335C172.958 28.8026 173.007 28.8714 173.056 28.9405C172.678 28.9236 172.299 28.9062 171.923 28.8893C172.689 29.2973 174.063 28.8546 173.964 29.1959C174.134 29.1429 174.304 29.0896 174.474 29.0362C174.549 29.2017 174.894 29.1541 175.504 29.128C175.364 29.2096 175.21 29.29 175.082 29.3724C175.675 29.2573 176.726 29.2685 177.339 29.2242C177.609 29.2048 177.34 29.0848 177.42 29.0707C177.831 28.997 178.616 29.2063 178.781 29.1898C179.763 29.0912 180.401 28.6943 181.474 28.9559C180.367 29.0205 180.969 28.9932 180.575 29.1385C180.452 29.1841 179.022 29.2791 180.813 29.2369C181.022 29.2316 184.271 28.9574 183.203 28.7472C183.729 28.8142 184.14 28.8918 184.622 28.963C185.799 28.4091 185.392 28.9294 185.05 29.2159C185.243 29.2171 185.426 29.2201 185.625 29.2201C185.203 28.9191 187.355 28.9004 188.085 29.0523C188.33 29.1028 187.646 29.1992 188.211 29.2447C188.481 29.2236 188.786 29.1963 189.071 29.1727C188.658 29.3631 189.468 29.4365 189.457 29.6302C189.975 29.4576 190.371 29.0917 190.086 28.8934C190.514 28.9737 190.945 29.0539 191.373 29.1346C191.174 29.1806 190.973 29.2261 190.774 29.2721C192.173 29.1504 193.972 29.4273 194.264 29.0204C194.45 29.0233 194.637 29.0258 194.823 29.0287C194.88 29.0974 194.935 29.1662 194.993 29.235C195.832 29.1754 196.669 29.1154 197.507 29.0558C196.761 29.0131 196.583 28.9153 195.799 28.9947C196.101 28.9157 196.409 28.8362 196.705 28.7572C197.884 28.97 198.045 29.1098 199.821 29.0465C199.901 29.0436 201.242 28.8651 201.288 28.8478C201.498 28.7683 201.179 28.6528 201.273 28.6127C201.533 28.5001 203.113 28.2173 203.082 28.1747C202.696 27.6514 197.381 27.6445 195.944 27.6176C187.727 27.4638 179.609 27.5082 171.497 27.5683C171.606 27.5699 171.713 27.6167 171.787 27.6945C167.268 23.2427 162.745 18.7963 158.25 14.2617C158.143 14.1533 158.244 14.1457 158.201 14.0974C157.929 13.7986 157.564 13.6037 157.455 13.5018C157.223 13.2838 157.425 13.3292 157.261 13.1646C157.103 13.0065 156.945 12.8497 156.788 12.6939C155.887 11.7577 154.258 11.7812 153.387 12.7036C152.263 13.8535 151.161 14.9928 149.986 16.1496C149.874 16.2596 150.05 16.2094 149.845 16.3928C149.738 16.4872 149.327 16.7052 149.099 16.9305C148.302 17.7175 147.668 18.4137 146.831 19.2474C146.819 19.2592 146.807 19.2712 146.795 19.2833C146.916 19.1454 147.209 19.1184 147.365 19.2884C147.186 19.1118 147.013 18.9397 146.858 18.783C146.633 18.5568 146.442 18.2776 146.22 18.0532C145.906 17.7349 145.881 17.889 145.827 17.8459C145.589 17.6567 145.658 17.5289 145.453 17.3285C145.071 16.9561 144.985 17.0014 144.512 16.5174C144.174 16.1714 143.444 15.337 143.028 14.8906C142.296 14.2613 141.493 13.464 140.766 12.7152C139.918 11.8316 138.498 11.8157 137.659 12.4503C137.551 12.5278 137.457 12.6094 137.375 12.6913C136.919 13.1454 136.939 13.2843 136.727 13.4951C135.925 14.2934 135.201 14.7832 134.446 15.5307C133.444 16.523 132.638 17.4843 131.677 18.456C131.521 18.6135 131.473 18.4934 131.317 18.6449C131.133 18.8238 130.932 19.018 130.728 19.2165C130.917 19.0025 131.286 19.0279 131.441 19.2118C131.402 19.1738 131.364 19.137 131.327 19.1015C130.749 18.5499 130.418 18.4637 129.89 17.8861C129.736 17.7167 129.795 17.562 129.537 17.2767C129.125 16.8213 128.555 16.4401 128.242 16.148C127.813 15.7471 128.283 15.9988 127.709 15.4539C127.685 15.4315 127.523 15.4258 127.407 15.302C127.067 14.9414 127.164 14.9147 126.646 14.4083C126.596 14.36 125.842 13.7551 125.774 13.6879C125.376 13.2917 124.55 12.5178 124.33 12.2668C123.546 11.3699 124.325 11.9144 123.355 11.4541C123.103 11.077 122.854 10.7016 122.581 10.3073C122.747 10.5865 121.762 9.76409 121.703 9.6953C121.22 9.12741 121.632 9.34131 120.95 8.69149C121.601 9.80025 120.061 7.86147 119.679 7.46772C118.72 6.47906 117.784 5.55985 116.841 4.64014C115.924 3.69034 114.25 3.69165 113.337 4.65359C112.851 5.15019 112.358 5.65159 111.846 6.16194C111.217 6.78978 110.327 7.58355 109.663 8.24958C109.508 8.40462 109.679 8.34169 109.544 8.47928C109.409 8.61615 109.499 8.40438 109.347 8.56293C108.402 9.5503 107.759 10.4222 106.731 11.164C106.708 11.2278 106.726 11.2428 106.678 11.3369C105.825 11.9329 104.602 13.5008 104.102 14.0489C103.318 14.9059 103.022 15.0286 102.444 15.642C101.679 16.4533 100.666 17.806 100.914 16.9976C100.365 17.5293 99.842 18.0472 99.3221 18.6192C99.2643 18.6829 99.3774 18.7122 99.3545 18.738C99.2107 18.9023 99.0968 18.8887 98.9898 18.9898C98.6998 19.2641 99.2366 18.88 98.813 19.2609C98.8058 19.2674 98.7987 19.2737 98.7916 19.2799C98.8519 19.2181 98.9203 18.9759 99.3208 19.1247C99.3658 19.1484 99.4073 19.1795 99.4405 19.2126C97.3162 17.0822 95.0782 14.8561 92.8446 12.6369C91.9238 11.6758 90.2372 11.6812 89.3239 12.6406C88.2702 13.7013 87.222 14.7565 86.1903 15.7935C85.9408 16.0442 86.0366 15.8107 85.7274 16.1287C84.9407 16.9377 83.7462 18.2625 82.7881 19.2763C82.9556 19.1332 83.1623 19.1558 83.288 19.2272C83.3205 19.2449 83.3479 19.2647 83.3699 19.2831C82.6563 18.5199 82.8935 18.5767 82.3849 17.9895C82.2795 17.8678 82.3152 18.0182 82.2116 17.9164C81.5157 17.231 80.6029 16.4972 80.0299 15.9511C79.6509 15.5901 79.7708 15.5295 79.5205 15.2664C79.1474 14.8745 78.6626 14.5721 78.4556 14.3709C77.8096 13.742 77.3341 13.2074 76.8139 12.6676C76.1737 12.0014 75.0758 11.725 74.1198 12.159C74.2206 12.0858 74.2893 12.0346 74.383 11.9783C73.9762 12.0952 73.5964 12.3218 73.3019 12.6185C72.3628 13.5633 71.4246 14.5072 70.4853 15.4522C70.5172 15.384 70.5473 15.3174 70.5788 15.2489C69.3441 16.5036 69.6828 16.5583 69.3769 16.0334C69.2718 16.1093 69.1588 16.1883 69.0589 16.2613C69.308 16.4402 68.7117 17.3497 67.808 18.3623C67.7418 18.4367 67.0616 18.6996 67.3595 18.8947C67.1762 18.9574 67.0613 18.9891 66.9043 19.0402C66.8673 19.1203 66.83 19.2005 66.7926 19.2808C66.9013 19.2768 67.0037 19.3186 67.0518 19.3871C67.077 19.3669 67.1095 19.3523 67.1491 19.3479C67.1754 19.2846 67.1896 19.2143 67.2322 19.1582C67.2849 19.175 67.3466 19.2123 67.3913 19.2618C66.8375 18.7278 66.0288 17.9989 65.7022 17.6621C64.7203 16.6492 63.8354 15.5031 62.9185 14.8684C62.555 14.4761 63.0251 14.7566 62.4511 14.2066C62.3396 14.1911 62.2339 14.1774 62.1182 14.1606C61.8733 13.4868 61.6469 13.5213 60.9726 12.9367C60.5165 12.5414 60.2901 12.2102 59.8745 11.8151C59.7692 11.715 59.7208 11.7925 59.6526 11.7202C59.4237 11.4783 58.8387 10.7201 58.6749 10.5516C57.1922 9.02326 55.8891 7.73961 54.4321 6.32885C54.2757 6.17712 54.5376 6.31477 54.3755 6.15792C54.1148 5.90549 54.1703 6.1519 54.017 6.00795C53.5899 5.60588 53.6874 5.50208 53.1143 4.9185C51.7861 3.56599 50.2706 2.11824 48.7935 0.688006C47.8859 -0.247237 46.2538 -0.216522 45.3864 0.703066C45.1544 0.939778 44.9237 1.1739 44.6947 1.40444C44.6325 1.46661 44.5773 1.40393 44.5091 1.47092C44.0657 1.90852 43.6996 2.43411 43.2987 2.83318C42.634 3.49561 42.0524 3.9115 41.3972 4.56729C40.1163 5.84882 39.0139 7.03598 37.6986 8.35604C36.6221 9.43661 35.6775 10.3654 34.4953 11.5483C31.942 14.1027 29.3169 16.6369 26.6987 19.1869C26.8949 18.9729 27.2657 18.9606 27.4799 19.1731C25.3066 16.9494 23.118 14.7387 20.8919 12.5895C20.7025 12.4024 20.4801 12.2425 20.2385 12.1222C19.7993 11.9268 19.9504 12.0846 19.8178 12.0314C19.173 11.8282 18.7826 11.8842 18.5275 11.9299C18.2715 11.9875 18.1279 12.0727 17.9672 12.2712C17.7252 12.3908 17.528 12.5335 17.3642 12.6809C16.986 12.9749 16.7209 13.0867 16.2325 13.5884C15.9219 13.9072 16.3283 13.8437 15.7075 14.2877C15.1468 14.6886 15.5834 14.0641 14.2497 15.5898C14.2145 15.6303 14.1327 15.9211 13.8082 16.1912C13.4826 16.4629 13.7535 16.0424 13.0119 16.7388C11.2713 18.3742 9.22495 20.6011 7.23481 22.5356C7.11007 22.6569 5.86974 23.7855 5.61016 23.9935C5.10764 24.396 5.12451 24.2238 4.51779 24.7924C4.04903 25.2319 3.76232 25.6946 3.21089 26.2109C3.14657 26.2709 2.95195 26.2846 2.56274 26.6978ZM106.239 14.5365C106.438 14.5145 106.965 14.6412 107.536 13.8717C107.59 13.7988 107.022 13.917 107.357 13.5111C106.971 13.8496 106.61 14.1946 106.238 14.5362C106.238 14.5363 106.239 14.5364 106.239 14.5365ZM0.181331 29.9466C0.890444 29.9234 1.60199 29.9004 2.3111 29.8773C1.82181 29.8214 1.33179 29.7656 0.844402 29.7093C0.622727 29.7883 0.403007 29.8675 0.181331 29.9466ZM63.8654 18.8176C63.8649 18.8171 63.8645 18.8166 63.864 18.8161C64.3489 19.3854 64.8341 19.955 65.319 20.5243C65.2947 20.4378 65.2703 20.3511 65.2459 20.2647C64.8786 19.7996 64.511 19.3344 64.145 18.8707C64.0519 18.8531 63.9586 18.8352 63.8654 18.8176ZM60.0296 14.3248C59.6562 14.0251 59.6764 14.1697 59.4306 14.0451C59.4307 14.045 59.4308 14.0449 59.431 14.0448C59.3663 14.0117 59.1249 13.7979 59.0346 13.7123C59.106 13.7058 59.1863 13.7093 59.2601 13.7058C58.5691 12.8263 56.6985 11.6256 58.5517 13.7486C58.5711 13.6697 58.5916 13.5924 58.6111 13.5135C59.5853 14.5153 60.7933 15.51 60.0296 14.3248ZM114.324 6.73406C114.576 6.56319 114.783 6.42028 114.968 6.28425C115.085 6.29385 115.078 6.31539 115.164 6.31716C115.316 6.44777 115.488 6.59017 115.689 6.75159C115.59 6.56144 115.491 6.37128 115.392 6.18113C115.373 6.17002 115.353 6.15892 115.334 6.14783C115.234 6.13362 115.154 6.17062 115.107 6.22451C115.107 6.22449 115.107 6.22447 115.106 6.22446C115.107 6.15479 115.098 6.08434 115.079 6.01537C114.978 6.03054 114.895 6.08342 114.841 6.15769C114.669 6.34995 114.496 6.5422 114.324 6.73406ZM27.865 20.7823C27.7994 21.0356 27.7014 21.1401 27.7569 21.1433C27.8037 21.1422 28.0051 21.0595 28.2909 20.7792C28.3819 20.6866 28.5025 20.5731 28.6634 20.4435C28.9211 20.2362 28.7508 20.519 28.9048 20.3838C29.7369 19.654 29.5839 19.3761 29.2975 19.4383C28.8991 19.8232 28.4976 20.2122 28.1046 20.5928C28.0324 20.6634 27.9527 20.7267 27.8674 20.7807C27.8666 20.7813 27.8658 20.7818 27.865 20.7823ZM7.01653 25.5425C7.01605 25.543 7.01557 25.5435 7.01509 25.5439C7.07325 25.6426 7.40916 25.3489 7.12843 25.7783C7.39825 25.5079 7.66773 25.2371 7.9389 24.9654C7.85198 25.0377 7.7637 25.112 7.67677 25.1844C7.72012 25.0871 7.76332 24.9894 7.80666 24.8922C7.99276 24.8864 8.02952 24.7448 8.28312 24.4309C8.30103 24.6056 8.31939 24.78 8.33731 24.9547C8.63833 24.5963 8.94044 24.2366 9.24147 23.8783C9.22125 23.8499 9.20108 23.8215 9.18086 23.7932C9.33617 23.6999 9.49057 23.6082 9.64588 23.5149C9.65069 23.4522 9.65453 23.3909 9.65934 23.3282C9.83125 23.2001 10.0034 23.0719 10.1756 22.9441C10.151 22.8283 9.79019 23.1285 10.394 22.5604C10.1422 22.6681 9.89109 22.7757 9.63801 22.8848C8.76404 23.7705 7.89021 24.6565 7.01653 25.5425ZM34.1592 14.7312C33.1768 15.6868 33.5005 15.4647 33.8841 15.3996C33.9753 15.1773 34.0681 14.9535 34.1592 14.7312ZM85.1554 19.4516C85.5451 19.2791 85.9349 19.1043 86.3276 18.9212C86.9613 18.4088 87.3366 17.6376 86.8279 17.9911C86.2158 18.417 85.778 19.0632 85.1554 19.4516ZM97.9226 20.4615C97.1711 19.8107 97.7017 20.5994 97.7846 20.8328C97.7941 20.835 97.8036 20.8374 97.8131 20.84C98.2396 21.0456 98.8893 21.4634 99.8088 21.035C99.1204 21.3973 98.2629 20.9596 98.0441 20.6089C97.9927 20.5382 97.9515 20.486 97.9229 20.4611C97.9228 20.4612 97.9227 20.4613 97.9226 20.4615ZM73.3876 15.4635C73.1034 15.7412 72.7936 15.9904 72.5792 16.2785C72.7588 16.3065 73.1669 15.7095 72.9615 16.2228C73.1438 16.0458 73.3263 15.8684 73.5076 15.6929C73.3304 15.7425 73.4352 15.5424 73.3872 15.4646C73.3874 15.4642 73.3875 15.4639 73.3876 15.4635ZM43.6704 5.46487C44.0989 4.7905 44.256 4.73861 44.8966 4.26831C44.8748 4.08994 44.0448 4.58458 43.593 4.96257C43.6193 5.12944 43.6454 5.29665 43.6704 5.46487ZM179.358 29.6675C179.171 29.4871 177.789 29.4636 177.103 29.5169C177.185 29.5437 177.267 29.5708 177.348 29.598C178.017 29.6212 178.689 29.6444 179.358 29.6675ZM100.192 20.7543C100.074 20.8717 99.9426 20.9654 99.8088 21.035C99.9601 20.9624 100.092 20.8631 100.192 20.7543ZM129.543 19.2175C129.432 18.8662 130.159 19.5125 129.278 18.7258C129.278 18.7257 129.278 18.7255 129.279 18.7254C128.696 18.205 128.566 18.0916 128.046 17.5901C128.075 17.9285 129.056 19.0202 127.596 17.6236C127.577 17.6049 127.706 17.5504 127.466 17.3348C127.391 17.2682 127.09 17.1182 126.725 16.7973C126.608 16.6935 125.752 15.8839 126.885 17.0206C126.744 17.0946 126.696 17.2646 126.589 17.3664C127.001 17.8399 127.553 17.9695 128.016 18.4434C128.704 19.1477 128.845 19.7152 129.259 19.5691C128.742 18.9151 127.739 17.9085 127.44 17.9457C126.871 17.3815 126.847 17.081 127.371 17.4694C129.24 19.5117 128.113 17.8016 129.715 19.624C129.697 19.6832 129.725 19.7955 129.678 19.8214C130.337 20.2071 129.582 19.3429 129.543 19.2175ZM125.156 15.4257C125.411 15.8458 125.665 16.2655 125.919 16.6846C126.053 16.5505 125.988 16.2447 125.531 15.6366C125.406 15.5669 125.28 15.4957 125.156 15.4257ZM154.836 13.7541C154.919 13.8303 155.042 13.9025 155.091 14.0045C155.104 13.9807 155.26 13.948 155.415 14.0664C156.131 14.6975 157.131 15.6137 156.299 14.6965C156.213 14.6008 155.854 14.3045 155.503 13.978C155.291 13.7819 154.999 13.7931 154.836 13.7541ZM39.7319 9.18376C39.9696 8.84836 40.206 8.51403 40.4422 8.17997C39.9723 8.58793 39.5011 8.99545 39.0305 9.40282C39.2647 9.32937 39.4977 9.25722 39.7319 9.18376ZM89.6916 14.6596C89.5733 14.7833 90.0755 14.4816 89.5829 14.9426C89.9968 14.6553 90.3791 14.3803 90.7806 14.0973C90.7835 14.0961 90.7864 14.0948 90.7893 14.0937C90.7885 14.0014 90.8181 13.8997 90.8843 13.8069C90.9657 13.8251 91.0383 13.8595 91.0943 13.9039C91.062 13.8056 91.0157 13.7117 90.9421 13.6238C90.7613 13.7231 90.6707 13.8209 90.5867 13.9034C90.3154 14.1787 90.0576 14.2772 89.6916 14.6596ZM71.4134 16.3975C71.4583 16.6529 72.395 15.8948 71.5853 16.7524C71.8421 16.6929 72.1481 16.4904 72.6448 16.0113C72.6854 15.8953 72.7261 15.7796 72.7667 15.6636C72.8784 15.7537 73.0415 15.6657 73.3876 15.4635C73.3877 15.4632 73.3879 15.4628 73.388 15.4624C74.137 14.728 74.059 14.7387 74.0715 14.3944C73.3799 15.2733 73.2048 15.1451 72.5794 15.5902C72.1498 15.8958 71.698 16.4038 71.4134 16.3975ZM152.298 16.204C152.98 15.7755 152.6 16.392 153.45 15.2722C153.354 15.3035 153.259 15.3354 153.163 15.3667C152.874 15.6455 152.586 15.9247 152.298 16.204ZM69.1875 19.6525C69.0186 19.3566 69.3605 18.6529 69.8279 18.9418C69.3953 19.5283 69.43 19.0652 69.1875 19.6525ZM98.0473 19.8585C97.0567 18.8895 96.9796 19.3371 97.2513 19.8709C97.3611 19.8854 97.471 19.8997 97.5793 19.9131C97.7293 20.1064 97.8792 20.2998 98.0295 20.4928C98.0354 20.2815 98.0415 20.0698 98.0473 19.8585ZM51.0936 5.25824C51.6764 6.17297 50.193 4.54229 50.6125 5.16896C50.9472 5.66942 51.6648 6.05252 51.5615 5.7396C51.4198 5.59205 51.2609 5.42902 51.095 5.25968C51.0945 5.2592 51.0941 5.25872 51.0936 5.25824ZM55.379 9.63855C55.0787 9.69293 55.3076 9.81846 54.7479 9.195C54.5881 9.01698 53.179 7.74112 53.8895 8.15777C54.3692 8.63746 54.8786 9.1417 55.379 9.63855ZM109.844 10.6505C109.776 10.5643 108.573 11.4284 108.483 11.6035C108.482 11.6034 108.482 11.6033 108.482 11.6032C108.24 12.0769 109.347 11.0029 109.032 11.6346C109.94 10.4476 110.591 10.4719 110.073 10.1C109.437 10.6974 109.82 10.497 109.844 10.6505ZM197.496 29.1534C197.497 29.1534 197.498 29.1534 197.498 29.1534C197.4 29.1585 196.591 29.3188 196.69 29.3743C197.662 29.3267 197.489 29.2212 198.395 29.3946C198.444 29.3388 198.487 29.2846 198.54 29.2284C198.181 29.1952 197.982 29.1282 197.496 29.1534ZM157.543 15.5719C157.31 15.299 156.766 14.9215 156.483 14.6286C157.078 15.8663 158.472 16.6616 157.543 15.5719ZM16.5042 16.0769C16.5051 16.0763 16.5059 16.0757 16.5067 16.0751C16.5063 16.0751 16.5059 16.0753 16.5055 16.0753C16.5051 16.0758 16.5046 16.0764 16.5042 16.0769ZM137.367 15.2124C137.379 15.1589 137.379 15.1224 137.37 15.0999C137.368 15.0984 137.367 15.0969 137.365 15.0954C137.367 15.1325 137.368 15.171 137.367 15.2124ZM112.016 8.52539C112.339 7.98714 110.733 9.25041 110.31 9.75514C110.392 9.77188 110.441 9.81138 110.573 9.79225C110.821 9.29055 111.963 8.61516 112.016 8.52539ZM77.9659 16.2635C79.1028 17.3945 78.0523 15.4936 77.6522 15.772C77.6479 15.7809 77.9372 16.2336 77.9659 16.2635ZM103.029 17.4231C102.612 17.5832 103.158 16.9685 102.252 17.9191C102.231 18.0064 102.211 18.0939 102.19 18.1812C102.47 17.9285 102.75 17.6758 103.029 17.4231ZM85.5346 17.8113C87.0334 16.4558 88.5249 15.2174 87.9503 16.5021C87.8309 16.5987 87.7103 16.6972 87.5909 16.7938C87.4015 16.6368 87.0975 17.1299 86.5197 17.719C86.3678 17.7334 86.0283 18.041 85.9092 18.0433C85.6788 18.0477 85.9711 17.5965 85.5346 17.8113ZM24.2041 17.9489C24.1975 18.0015 24.1902 18.0536 24.1839 18.1059C24.3763 18.365 24.5694 18.6245 24.7617 18.8836C24.782 18.7904 24.8022 18.6971 24.8225 18.6039C24.6165 18.3857 24.4116 18.1684 24.2057 17.9502C24.2052 17.9498 24.2046 17.9493 24.2041 17.9489ZM124.13 13.6695C123.935 14.1245 123.542 13.6116 122.787 12.5281C123.234 12.908 123.683 13.2896 124.13 13.6695ZM62.2806 15.7254C62.1584 15.7881 62.037 15.851 61.9135 15.9124C61.5219 15.3282 61.7183 15.3129 62.0745 15.4244C62.1438 15.5252 62.2113 15.6245 62.2806 15.7254ZM55.292 8.65811C55.5137 8.84121 55.3358 8.81258 55.3584 8.83224C55.9099 9.30525 56.0163 9.34316 56.5885 10.0278C56.646 10.1245 56.7011 10.2208 56.7579 10.318C56.2736 10.2212 56.1682 9.90464 55.4396 9.40363C55.6168 9.44801 55.7938 9.49184 55.9713 9.53592C55.6154 9.20811 55.2611 8.88153 54.9052 8.55372C54.8852 8.49269 54.8648 8.43176 54.8448 8.37072C54.9927 8.46598 55.1478 8.56187 55.292 8.65811ZM21.5099 15.4229C21.1699 15.098 20.828 14.772 20.4879 14.4471C20.5234 14.3872 20.5598 14.3275 20.5953 14.2676C20.8998 14.6523 21.2055 15.0383 21.5099 15.4229ZM130.874 20.5005C130.904 20.5316 130.935 20.5612 130.965 20.5892C130.966 20.5591 130.928 20.5322 130.874 20.5005ZM198.737 28.7833C199.27 28.7361 200.038 28.7671 200.623 28.7572C200.577 28.9265 199.091 28.8797 198.569 28.9823C198.485 28.9519 198.511 28.8032 198.737 28.7833ZM96.6814 18.5135C96.6465 18.3592 96.6114 18.2053 96.5779 18.0524C96.343 17.8304 96.1073 17.6083 95.8711 17.385C95.9132 17.3293 95.9559 17.2734 95.998 17.2177C96.9466 18.2933 96.8542 17.919 97.4943 18.2811C97.2229 18.3579 96.9531 18.4364 96.6814 18.5135ZM10.3284 21.1293C11.0926 20.4312 11.4138 20.2336 11.1482 20.7925C10.8565 21.0169 10.5633 21.2428 10.2716 21.4672C10.2909 21.3541 10.3104 21.241 10.3284 21.1293ZM144.842 18.4565C145.399 19.1232 145.606 18.9365 146.094 19.6445C145.738 19.3605 145.381 19.077 145.025 18.7944C144.965 18.6826 144.902 18.5684 144.842 18.4565ZM113.095 5.60387C113.194 5.43208 113.465 5.3072 113.77 5.08685C114.244 4.69279 114.988 4.39435 115.919 4.64399C116.129 4.80591 116.252 4.97383 116.343 5.13871C116.372 5.23204 116.4 5.32362 116.436 5.42404C116.599 5.43414 116.775 5.45502 116.933 5.46165C116.933 5.46213 116.934 5.46261 116.934 5.46309C117.567 6.14705 117.044 5.81612 116.978 5.91207C116.951 5.95266 117.496 6.38497 117.27 6.30547C116.992 6.20701 116.448 5.64056 116.103 5.37883C115.909 5.22006 115.74 5.18455 115.712 5.23754C115.817 5.28016 115.932 5.35107 116.035 5.44693C116.401 5.78163 116.79 6.25731 116.541 6.17659C116.362 6.11891 116.149 5.85201 115.912 5.56944C115.68 5.28115 115.237 5.13546 114.938 5.24405C115.281 5.09935 115.284 5.05209 115.034 5.02383C114.793 4.9977 114.346 5.17519 114.154 5.47111C114.048 5.63769 113.976 5.79511 113.99 5.88288C113.295 6.34146 113.564 5.95065 114.085 5.40131C114.246 5.23165 114.475 5.09114 114.729 5.02859C114.276 5.07625 114.345 5.03868 114.592 4.91857C114.838 4.80174 115.263 4.799 115.403 4.75175C115.072 4.63348 114.332 4.68611 113.854 5.17029C113.291 5.69712 112.738 6.21835 113.095 5.60387ZM80.0669 17.1313C80.5443 17.6272 81.3869 18.3052 81.5986 18.7599C81.7218 19.0248 80.9049 18.3175 81.3192 18.9543C80.8559 18.4693 80.7912 18.3176 80.9697 18.3013C80.8733 18.1815 80.7753 18.0607 80.6787 17.9412C80.6097 17.9102 80.5396 17.8777 80.4706 17.8467C80.454 17.7499 80.4367 17.653 80.4214 17.5575C80.2987 17.4506 80.1746 17.3424 80.0517 17.2358C80.0583 17.2022 80.0529 17.1616 80.0669 17.1313ZM163.011 20.6378C162.877 20.5015 162.744 20.3665 162.611 20.2299C162.649 20.2211 162.692 20.2141 162.733 20.2068C162.765 20.1997 162.796 20.1927 162.828 20.1857C162.681 20.1762 161.923 19.647 161.725 19.3023C161.625 19.1291 162.067 19.3083 161.512 18.7075C161.924 19.1331 162.294 19.539 162.689 19.9568C162.692 19.8814 162.696 19.807 162.699 19.7315C162.699 19.7317 162.699 19.7319 162.7 19.7321C162.843 19.8584 162.989 19.9859 163.133 20.1123C163.093 20.2879 163.051 20.4622 163.011 20.6378ZM62.8595 15.9387C63.244 16.4759 63.3586 16.6699 63.0174 16.5758C63.0169 16.5754 63.0164 16.575 63.0158 16.5746C62.8989 16.3482 62.7819 16.1218 62.665 15.8954C62.7294 15.9095 62.7938 15.9233 62.8595 15.9387ZM134.607 16.5779C136.056 16.0672 133.562 17.9862 133.822 17.4062C133.834 17.38 134.567 16.7216 134.607 16.5779ZM98.3717 19.8942C98.1066 19.6214 97.8404 19.3484 97.5739 19.0743C97.6938 19.0788 97.8149 19.085 97.9347 19.0895C98.0803 19.3575 98.2261 19.6262 98.3717 19.8942ZM13.2987 17.7329C13.453 17.321 14.133 16.5477 14.6282 16.3327C14.458 16.5356 14.2879 16.7386 14.1178 16.9415C14.4864 16.605 14.8528 16.2741 15.2233 15.934C15.4217 16.0945 14.9081 16.3999 14.3413 17.0657C14.2538 17.1691 13.8665 18.0018 13.488 18.0446C13.4111 18.0525 14.0366 17.3801 13.4853 17.7307C13.6746 17.5256 13.8466 17.3572 14.0286 17.1664C13.9994 17.1101 13.97 17.0539 13.9421 16.9963C13.7271 17.2423 13.5138 17.4869 13.2987 17.7329ZM82.8293 19.9149C82.9985 20.023 83.1246 20.0145 83.2152 20.0404C83.3084 20.0604 83.3797 20.0997 83.4871 20.1343C83.2285 20.3006 82.8736 20.2555 82.6769 20.057C82.731 20.0129 82.7811 19.965 82.8293 19.9149ZM20.6538 13.4385C21.0405 13.7837 20.7806 13.7301 20.9083 13.897C21.3913 14.5276 21.8448 14.8336 22.3486 15.4298C22.332 15.3734 22.3171 15.3213 22.3012 15.2668C22.3017 15.2673 22.3022 15.2678 22.3027 15.2683C24.9939 17.7856 23.3921 16.6516 21.8718 15.0553C21.797 15.0571 21.7235 15.0605 21.649 15.062C21.0187 14.2977 20.4401 13.5901 20.6538 13.4385ZM126.497 15.4848C126.55 15.4905 126.45 15.0853 126.853 15.631C127.006 16.2293 126.501 15.5027 126.261 15.4341C126.368 15.5839 126.478 15.736 126.584 15.8844C125.753 15.1797 125.694 15.0147 126.137 15.1317C126.168 15.1408 126.443 15.4789 126.497 15.4848ZM131.126 19.7641C131.185 19.9295 131.145 20.0318 131.03 20.044C130.918 20.0583 130.802 19.9531 130.79 19.8633C130.734 19.7627 130.712 19.6866 130.745 19.6706C130.788 19.7112 130.822 19.7547 130.854 19.7989C130.868 19.8396 130.887 19.8904 130.941 19.8886C131.021 19.8812 131.057 19.7815 131.126 19.7641ZM102.538 16.5558C102.565 16.526 102.712 16.1029 102.792 16.2392C102.695 16.8475 101.819 17.3938 101.855 17.1804C102.094 16.9498 102.289 16.8313 102.538 16.5555C102.538 16.5556 102.538 16.5557 102.538 16.5558ZM8.81222 22.0648C8.81657 22.0421 9.47255 21.2753 9.61583 21.2349C9.74944 21.2172 9.84911 21.2417 9.96585 21.245C9.51829 21.5813 8.76731 22.417 8.81366 22.0633C8.81318 22.0638 8.8127 22.0643 8.81222 22.0648Z" fill="#A1A1A1"/>
<path d="M17.7518 16.597C17.4528 17.1511 18.7931 15.6436 18.038 16.7796C18.2481 16.5953 18.4598 16.4102 18.6698 16.2259C18.6493 16.1053 18.6301 15.9837 18.6096 15.8632C18.324 16.1072 18.0383 16.3513 17.7514 16.5967C17.7515 16.5968 17.7517 16.5969 17.7518 16.597ZM16.5067 16.0751C16.9506 16.0336 17.7753 15.3163 17.128 16.3349C16.9928 16.332 16.8559 16.3308 16.7207 16.3279C16.485 16.6707 16.2476 17.0152 16.0117 17.3576C15.8814 17.4353 15.7512 17.5128 15.6212 17.5907C15.6087 17.8432 15.5978 18.0948 15.5857 18.3475C15.6857 18.2123 15.787 18.0753 15.887 17.9401C16.4493 17.5727 16.8896 17.1857 17.5388 16.5728C17.5118 16.6566 17.4844 16.7403 17.4574 16.8241C17.7294 16.4555 18.0011 16.087 18.2717 15.7198C17.9473 15.9494 17.5849 16.2063 17.284 16.4188C17.5067 15.8199 18.3359 15.2001 18.7523 14.8622C18.9897 14.6696 19.0917 14.5623 19.1608 14.4775C19.138 14.4763 19.1225 14.4551 19.1047 14.4925C19.0996 14.5018 19.1146 14.6021 19.0783 14.6044C19.0365 14.6076 18.9711 14.5806 18.9428 14.5387C19.5083 15.0714 20.0781 15.5377 19.6878 14.9044C19.494 14.7186 19.311 14.5326 19.1346 14.3468C19.1231 14.3098 19.0534 14.2569 18.9788 14.2955C18.5817 14.6568 18.1894 15.0279 17.8057 15.4511C17.8757 15.0027 17.2951 15.4545 16.5067 16.0751ZM36.0644 13.7224C35.6698 13.9332 35.0905 14.5867 34.7366 15.0681C34.7361 15.0686 34.7357 15.069 34.7352 15.0695C34.6573 15.1755 34.5713 15.5057 34.8664 15.2007C35.347 14.7031 35.3912 14.2743 35.7785 14.1481C35.8691 14.0089 35.9681 13.8667 36.0644 13.7224ZM37.1388 12.6707C37.3917 12.3236 37.1108 12.3148 36.7743 12.7297C36.7742 12.7296 36.7741 12.7295 36.7739 12.7294C36.6335 12.9025 37.0558 12.7092 36.3774 13.1553C36.3529 13.3605 36.3221 13.5558 36.2961 13.7568C36.4353 13.6206 36.5632 13.4974 36.7088 13.3542C36.463 13.3027 36.8856 13.0174 37.1388 12.6707ZM20.113 15.4932C20.0265 15.6741 19.8297 15.4757 19.4005 15.232C19.7224 15.5452 20.0448 15.8581 20.3654 16.1699C20.2808 15.9438 20.1975 15.7194 20.113 15.4932ZM13.8473 19.7392C13.8468 19.7397 13.8463 19.7402 13.8459 19.7406C13.7207 19.8236 13.5952 19.9068 13.4717 19.9888C13.4573 20.0987 13.4433 20.2076 13.4288 20.3175C13.0164 20.6403 12.6021 20.9651 12.1894 21.2877C12.3798 21.3888 13.0159 20.7052 13.4814 20.4435C13.978 19.859 14.1539 19.5139 14.0655 19.3553C13.993 19.4828 13.9211 19.6104 13.8473 19.7392ZM104.104 16.3208C104.267 16.2383 104.429 16.1573 104.592 16.0747C104.447 16.2566 104.299 16.4329 104.155 16.619C103.549 16.8745 103.664 17.0704 103.088 17.6244C101.323 19.3223 101.51 18.5902 100.346 20.5533C101.582 19.2789 101.287 19.9491 102.189 19.3368C102.236 19.07 101.237 19.5717 101.694 19.012C102.686 18.2528 103.637 17.5193 104.684 16.6229C104.674 16.6703 104.665 16.7176 104.656 16.765C104.49 16.9071 104.325 17.0478 104.159 17.1899C104.376 17.0746 104.589 16.9626 104.809 16.8452C104.48 16.9431 105.089 16.4635 104.883 16.4035C104.792 16.3768 104.469 16.5353 104.271 16.6207C104.606 16.2237 104.954 15.82 105.294 15.4199C105.055 15.5647 104.816 15.7092 104.579 15.8526C104.421 16.0078 104.264 16.1622 104.106 16.3175C104.105 16.3186 104.104 16.3197 104.104 16.3208ZM189.761 30.1067C189.104 29.9122 187.909 29.88 187.28 30.0965C188.108 30.0998 188.934 30.1034 189.761 30.1067ZM13.9989 19.2181C13.9697 19.2942 13.9418 19.3683 13.9126 19.4443C14.1883 19.2552 14.4651 19.0645 14.7408 18.8754C14.7178 18.7632 14.6958 18.65 14.6744 18.5368C14.4497 18.7633 14.2237 18.9916 13.9989 19.2181ZM29.5507 19.8169C29.3766 19.9828 29.3638 20.0001 29.1617 20.2215C29.1618 20.2212 29.162 20.2209 29.1622 20.2206C29.0819 20.3081 28.419 21.0499 28.5493 21.0237C28.8989 20.6759 29.27 20.3031 29.6268 19.9462C29.6034 19.9012 29.5718 19.8649 29.5507 19.8169ZM23.812 19.0756C23.8114 19.0752 23.8108 19.0749 23.8102 19.0745C23.6754 18.9555 23.5391 18.8514 23.4052 18.7233C23.7948 19.2768 24.0163 19.2043 24.4031 19.6743C24.7896 20.1445 24.9733 20.4903 25.5381 20.6525C25.4331 20.4872 25.3307 20.2985 25.2266 20.1242C24.538 19.5966 24.4499 19.357 24.0415 18.79C23.9649 18.8855 23.8886 18.9801 23.812 19.0756ZM95.328 18.402C95.3113 18.1863 95.084 18.1543 95.0694 18.142C95.0695 18.1424 95.0696 18.1427 95.0697 18.1431C94.1325 17.0215 95.1486 18.3322 94.1615 17.3761C94.2812 17.5455 94.3971 17.714 94.5152 17.8824C94.7848 18.0559 95.0676 18.23 95.328 18.402ZM60.6557 15.7484C60.6173 15.7679 60.5769 15.7857 60.5385 15.8052C61.1291 16.3823 61.1639 16.6453 61.7529 17.0265C61.3874 16.6002 61.0219 16.1741 60.6561 15.7481C60.656 15.7482 60.6558 15.7483 60.6557 15.7484ZM32.2828 16.6633C31.5801 17.2554 31.0768 17.7099 30.5429 18.4194C30.5425 18.42 30.5422 18.4206 30.5418 18.4212C30.5114 18.4624 30.7454 18.3497 30.7139 18.4117C30.5765 18.5309 30.4301 18.6494 30.2897 18.7683C30.3207 18.8344 30.3525 18.8996 30.3832 18.9655C30.7343 18.5868 31.0856 18.208 31.4381 17.828C31.4124 17.9105 31.3852 17.994 31.3595 18.0764C31.685 17.7803 32.0092 17.4852 32.3346 17.1891C32.1469 17.2175 31.9595 17.2458 31.7729 17.2726C31.9426 17.0695 32.1133 16.8667 32.2828 16.6633ZM71.5524 17.0709C71.4812 17.2052 71.7245 17.0681 71.5922 17.2548C71.4596 17.4412 71.1066 17.6762 71.2647 17.6965C71.4915 17.4938 71.7307 17.282 71.9621 17.0758C71.4189 17.9409 70.5708 18.4977 70.7587 18.7073C71.383 17.98 71.9625 17.4483 72.6717 16.8492C72.4869 16.7185 71.6962 17.2364 71.9601 16.6763C71.8257 16.8066 71.6836 16.9427 71.5541 17.0698C71.5535 17.0702 71.553 17.0705 71.5524 17.0709ZM2.56274 26.6978C2.4228 26.8464 2.20576 27.0522 1.96601 27.2827C2.13735 27.1008 2.40391 26.9805 2.66818 26.9861C2.31447 26.9905 1.97427 27.0085 1.7122 27.0561C1.53633 27.0881 0.95041 27.5031 0.953387 27.5578C0.97059 27.742 1.68613 27.7671 0.919775 27.8871C1.17758 27.8884 1.42777 27.8953 1.68368 27.8986C1.63782 28.0224 1.59217 28.1458 1.54822 28.2692C1.23667 28.2505 0.92474 28.2318 0.613193 28.2128C0.597899 28.2538 0.582653 28.2948 0.567359 28.3358C1.68742 28.3367 1.02623 28.4948 1.60729 28.6422C1.07222 28.7167 0.53319 28.7908 3.05176e-05 28.8653C0.30771 28.8562 0.670789 28.8495 0.942183 28.8387C0.9785 29.0486 0.330993 28.9986 0.220036 29.0375C-0.295549 29.2188 1.77973 29.175 2.66818 29.3256C2.92174 29.3575 3.11599 29.3265 3.19747 29.3529C3.03389 29.425 2.85329 29.468 2.66818 29.476C2.27423 29.5016 1.87114 29.5268 1.4759 29.5523C1.62497 29.59 1.776 29.6277 1.92508 29.6653C2.16702 29.6221 2.41498 29.5846 2.66818 29.5512C3.07066 29.5187 3.45318 29.327 3.71149 29.0282C4.18898 28.4419 4.70588 27.8436 5.2216 27.219C5.31551 27.1374 5.40978 27.0557 5.50205 26.9752C5.54339 27.0678 5.58585 27.1589 5.62719 27.2515C5.76755 27.127 5.90949 27.0007 6.04984 26.8762C5.43864 27.046 5.98244 26.5082 6.50056 25.7208C6.07572 25.9905 5.69433 26.466 5.57937 26.2919C6.88248 25.2112 8.12123 23.6582 9.40625 22.6242C9.7251 22.3674 9.91059 22.5547 10.5701 21.8608C10.5267 21.8633 10.4858 21.8302 10.444 21.8182C11.7037 20.737 12.4672 20.0803 13.5925 18.7728C13.5893 18.9101 13.5875 19.0465 13.5842 19.1837C13.2927 19.4085 13.0002 19.6332 12.7101 19.8566C12.645 20.1429 12.9535 19.9321 12.182 20.7012C11.5499 21.3315 11.8768 20.907 11.6724 21.0458C11.3952 21.2335 11.2793 21.5255 10.9793 21.7255C10.7477 21.8804 10.8655 21.58 10.3845 22.1073C10.7055 22.0228 11.0344 21.9381 11.3582 21.8537C11.4545 21.7041 11.5495 21.555 11.6456 21.4051C11.4896 21.4978 11.3362 21.5888 11.1803 21.6816C11.6749 21.3005 12.1422 20.9403 12.6537 20.5464C12.3355 20.5228 12.8675 20.1189 13.1418 19.885C13.5692 19.5208 13.1125 19.7422 13.3915 19.5024C13.6709 19.2628 14.0822 19.1144 14.5231 18.6173C14.1957 18.7926 14.4693 18.3824 14.333 18.3783C14.1966 18.3743 13.685 18.8548 14.0849 18.3015C15.0594 17.4435 14.3326 18.7053 14.9948 18.1297C15.7902 17.4386 15.5311 16.8256 15.2158 16.9535C14.9677 17.054 14.3826 17.6688 14.1334 17.771C15.0753 16.564 15.3464 16.8164 15.5814 16.6838C16.4355 16.2027 15.4894 16.1535 16.4599 15.5429C16.352 15.4647 16.2563 15.393 16.1522 15.3187C16.3055 15.1992 16.4187 15.1312 16.5969 14.9799C16.2922 15.6472 16.6823 15.2416 16.8867 15.0377C17.209 14.7166 16.8006 15.3019 16.9086 15.2396C17.1994 15.0709 17.5351 14.6799 17.392 14.9827C17.4548 14.8455 17.526 14.6998 17.5918 14.5602C18.0139 14.2307 19.2855 13.7359 18.3665 14.498C18.5373 14.5486 18.6962 14.3598 18.8467 14.1634C18.8581 14.1381 18.8718 14.1132 18.889 14.0937C18.9748 14.0126 19.013 14.1421 19.0801 14.1128C19.2327 14.0713 19.3217 14.0673 19.3436 13.9686C19.3703 13.8759 19.2827 13.7289 19.2287 13.6339C19.4692 13.7145 19.5428 13.8393 19.5786 13.9029C19.7632 14.2001 19.4042 13.9276 20.4459 15.0566C20.482 15.2935 19.7225 14.7482 20.2078 15.3495C20.4823 15.2751 21.0076 15.5498 21.8453 16.2716C21.8809 16.3874 21.9159 16.5034 21.9515 16.6192C22.5382 16.8839 22.488 16.4989 23.0763 17.4864C23.0207 16.6961 23.0765 17.2219 23.9315 17.7778C24.1049 17.891 23.8501 17.4837 24.0888 17.6451C24.1969 17.7183 24.3594 17.996 24.6253 18.173C24.7554 18.2592 25.4025 18.623 25.6853 19.0403C25.2505 18.9615 25.7642 19.778 25.0466 19.3549C25.5736 19.8468 25.9982 20.2932 26.1905 20.4626C26.3459 20.5913 26.3707 20.5825 26.2495 20.4036C26.184 20.2854 26.0551 20.082 25.8509 19.7721C26.057 19.9092 26.2632 20.0465 26.4693 20.1838C26.5721 20.2482 26.6833 20.287 26.7922 20.3009C26.9615 20.4338 27.2144 20.5031 27.4735 20.4528C27.4328 20.3035 27.4189 20.2689 27.5987 20.087C27.6986 19.9768 27.8513 19.8276 28.0773 19.6168C27.9019 19.758 27.7267 19.8987 27.5512 20.0395C27.4263 20.1296 27.2802 20.167 27.1435 20.156C27.1293 20.1158 27.0949 20.074 27.1013 20.033C27.1816 20.0554 27.3268 20.0453 27.4542 19.9425C27.9542 19.4986 28.5549 18.9375 28.766 18.7801C29.0725 18.5514 28.5664 19.0788 28.6812 19.0396C29.6344 18.7091 29.3539 18.5303 29.8679 18.1232C30.1698 17.8845 29.5587 18.5642 29.7168 18.4331C30.3024 17.9462 30.3856 17.532 30.859 17.0545C30.784 17.3173 30.7119 17.5802 30.6418 17.8399C31.1356 17.3362 31.6907 16.7794 32.1844 16.346C32.3781 16.1758 32.3105 16.3832 32.3449 16.3581C32.5163 16.2347 33.1544 15.6727 33.2182 15.6095C33.6969 15.1319 33.6138 15.0214 34.0731 14.5515C33.8825 14.7257 33.7036 14.8898 33.5174 15.0603C33.2794 14.9845 33.0399 14.9103 32.8016 14.8342C33.2456 14.3674 33.69 13.9007 34.1353 13.4325C33.8539 13.8187 33.5711 14.2058 33.2897 14.592C33.9381 14.1971 34.5868 13.8024 35.2355 13.4078C35.4293 13.0583 35.622 12.7099 35.8158 12.3604C36.5741 11.6432 36.7416 12.1078 36.8147 11.4809C37.0556 11.2868 37.2965 11.0927 37.5371 10.8983C37.4665 10.8899 37.3962 10.8811 37.3256 10.8726C37.6121 10.6347 37.8983 10.3968 38.1851 10.1592C38.0493 10.5747 37.9263 10.9922 37.7892 11.401C38.3355 10.9154 38.2268 10.7868 38.2741 10.6803C38.3997 10.3977 38.9106 10.0985 39.0002 9.86368C39.0301 9.78394 38.4463 10.2115 38.5305 9.94708C38.5471 9.89557 38.8928 8.88733 39.4012 8.53186C39.4531 8.59998 39.4933 8.70694 39.541 8.78979C40.1584 8.2453 40.1414 7.63582 39.9766 7.62504C40.3476 7.377 40.8051 6.9298 40.9646 6.96228C41.1251 6.80649 41.2842 6.65179 41.4447 6.496C41.0461 6.42693 41.7484 5.81017 41.9927 5.96801C41.726 6.24465 41.4593 6.52186 41.1926 6.79849C41.6445 6.83953 40.9678 7.81381 42.4572 5.8678C42.6574 5.41117 41.8908 6.46905 42.0624 6.10544C42.4714 5.58468 42.9546 5.19501 43.3072 4.66383C43.7456 4.00243 42.9618 4.57172 44.3849 3.4325C41.9146 6.61415 45.0128 3.28517 46.4504 2.06826C46.4519 1.98805 46.4659 1.90136 46.4919 1.80863C46.5027 1.48851 47.2312 0.971105 47.932 1.54943C48.4599 1.99731 49.0547 2.60025 49.6897 3.32751C49.4311 3.26445 48.9959 2.72848 48.6839 2.48089C48.372 2.23335 48.6167 2.594 48.2225 2.2912C48.0748 2.17765 47.8696 2.01134 47.6486 1.83283C47.3393 1.57763 46.8879 1.68726 46.7662 1.85103C46.8364 1.83223 46.9807 1.80525 47.1196 1.84288C47.2603 1.87699 47.3727 1.96939 47.4322 2.04926C47.6404 2.2856 47.7374 2.36922 47.4794 2.00206C47.4648 1.97471 47.4456 1.94437 47.4189 1.91241C47.4535 1.92644 47.4866 1.94353 47.5181 1.96341C48.2533 2.51653 48.6954 2.78059 49.5609 3.61192C49.6787 4.03472 49.5637 4.10968 50.439 4.99381C50.1306 4.26159 51.2776 5.11398 51.2764 4.67496C50.6016 4.10209 50.7375 4.66357 50.2748 4.40463C50.2277 4.37781 49.6997 3.74321 49.5609 3.61192C50.3386 4.00734 50.6125 4.13902 50.4791 3.55072C50.8741 3.98555 51.1608 4.21508 51.09 4.36152C51.2236 4.40088 51.3577 4.44069 51.49 4.4787C51.6238 4.6149 51.741 4.74083 51.885 4.88308C51.5241 4.84976 52.0071 5.13105 52.2044 5.47694C52.4017 5.82295 51.9079 5.5878 52.6522 6.3356C52.3652 6.12526 52.1049 5.93081 51.8281 5.72653C52.267 6.24976 52.7072 6.77476 53.1461 7.29799C52.7081 7.0602 51.8272 6.47666 51.7156 6.62838C51.9869 6.80025 52.6586 7.64672 52.7381 7.7334C53.0463 8.06853 52.954 7.81017 52.9804 7.83245C53.5261 8.29744 53.9141 8.74195 54.2318 8.80798C54.5547 9.2445 54.8735 9.49851 55.273 9.90441C55.4929 10.1278 55.3573 10.1771 55.5046 10.2893C56.4839 11.0344 55.7819 10.0935 57.2178 11.9842C56.952 11.8472 56.6875 11.7144 56.4212 11.578C56.5847 11.7902 56.7471 12.0014 56.9106 12.2136C57.048 12.3275 57.1844 12.4403 57.3218 12.5543C57.4587 12.412 57.5954 12.2688 57.7323 12.1265C57.8777 12.2568 58.0236 12.3878 58.169 12.518C57.9463 12.2678 57.7229 12.0169 57.5001 11.7666C57.5031 11.7205 57.5075 11.6757 57.5105 11.6296C57.8999 11.9429 58.2885 12.2547 58.6782 12.5677C58.6364 12.623 58.5942 12.6786 58.5524 12.7339C59.412 13.4583 59.4719 13.436 60.0909 14.3225C60.6722 14.9009 60.9413 15.5761 61.191 15.9968C61.3385 16.0898 61.4864 16.1826 61.6353 16.277C61.6719 16.3945 61.7095 16.5125 61.7462 16.63C61.9551 16.7265 62.1661 16.8251 62.3747 16.9219C62.3322 17.1345 62.3365 17.2184 61.6958 16.6673C61.7413 17.0301 62.8604 18.0092 63.3407 18.383C63.7051 18.6665 63.478 18.1747 63.5346 18.1992C63.7246 18.2798 64.2114 18.861 64.3326 18.964C64.8447 19.4006 65.1705 19.7396 65.6282 20.1388C65.7175 20.2163 66.0345 20.3656 66.0569 20.3828C66.0884 20.409 66.1289 20.4421 66.174 20.4791C66.4153 20.7138 66.8804 20.7902 66.9372 20.7818C67.4252 20.8233 67.7564 20.6036 67.9399 20.4281C69.0302 19.3927 67.709 21.262 69.4896 19.4144C69.4754 19.5245 69.4659 19.6293 69.4531 19.7381C69.6127 19.5843 69.7739 19.4287 69.9335 19.275C70.0921 19.0362 69.7788 19.2036 70.2322 18.8678C70.1474 18.8344 70.0624 18.801 69.9766 18.7692C70.1801 18.6295 70.3772 18.4957 70.5848 18.3519C70.6553 17.871 71.6153 16.8179 71.3029 16.6485C71.1966 16.5909 70.3989 17.2204 70.6884 16.7558C70.9776 16.4322 70.8681 16.7374 70.9982 16.6176C71.9368 15.7505 71.7471 15.6657 72.1526 15.3334C72.2695 15.3341 72.3906 15.3329 72.5094 15.3329C72.6313 15.1765 72.7536 15.0197 72.8768 14.8619C72.9487 14.869 73.0221 14.8748 73.094 14.8819C72.9656 15.0156 72.8206 15.1659 72.703 15.2888C73.0238 15.2741 74.6328 13.8026 73.915 14.2595C73.6228 14.4457 73.2072 14.9063 73.3032 14.4486C73.6093 14.1789 73.9427 13.8825 74.2726 13.5893C74.4341 13.4428 74.6359 13.3476 74.8391 13.3142C74.8479 13.2558 74.8582 13.1976 74.8733 13.1393C75.4063 13.1111 75.392 13.2624 75.2863 13.2967C75.1753 13.3469 74.9925 13.4383 75.0027 13.4993C75.1733 13.4873 75.348 13.5251 75.496 13.6066C75.5841 13.5925 75.6782 13.5875 75.7789 13.6072C75.7607 13.6322 75.7437 13.677 75.7445 13.7369C75.7489 13.8461 75.8266 14.0135 76.114 14.2349C76.4041 14.4574 76.1519 13.9024 76.6196 14.4121C76.4894 14.4692 76.1988 14.4067 76.713 14.9812C76.8648 14.9376 77.0291 14.9228 77.1737 14.8619C77.7568 15.6328 78.2158 15.7899 78.9012 16.6937C79.3363 17.2669 79.7816 18.2027 80.4852 18.1506C80.8638 18.5094 80.6527 18.4864 80.7407 18.6167C81.1555 19.2318 81.7177 19.4356 81.8242 19.521C82.1201 19.7581 82.3275 19.9558 82.5154 20.1376C82.7075 20.3223 82.9885 20.4101 83.2615 20.2756C83.2582 20.3783 83.2581 20.474 83.2431 20.5741C82.8681 20.5387 82.6531 20.4001 82.4529 20.2002C82.2803 20.0182 82.0714 19.8223 81.78 19.5508C81.9808 19.7796 82.1814 20.0089 82.3822 20.2378C82.2903 20.2595 82.1987 20.2814 82.1084 20.3041C80.3584 18.1088 80.4587 18.9076 82.0227 20.6303C82.0331 20.6414 82.0437 20.6524 82.0545 20.6632C82.3774 20.7649 82.7046 20.7342 82.9336 20.6144C83.2913 20.7249 83.6655 20.6077 83.8984 20.3867C84.4997 19.8352 84.8735 19.2957 85.6565 18.4633C85.7818 18.3305 86.3122 17.9212 86.5171 17.7222C86.5142 17.726 86.5112 17.7297 86.5083 17.7335C86.7331 17.7071 86.6086 17.9229 86.677 18.0319C86.7976 17.9335 86.9182 17.8351 87.0388 17.7368C87.2156 17.4247 87.0741 17.4551 87.5713 16.9902C87.5737 17.1224 87.5771 17.2537 87.5795 17.3859C88.109 16.8611 88.3808 16.443 88.903 15.984C88.7951 16.041 88.6881 16.0969 88.5802 16.1539C89.5829 15.0212 88.3374 15.4751 89.3413 14.8652C89.3581 14.7794 89.3732 14.6945 89.3901 14.6086C89.0492 14.9326 88.7083 15.2569 88.3688 15.5795C88.3132 15.5374 88.2572 15.496 88.203 15.4526C88.573 15.1117 88.9453 14.7697 89.3154 14.4288C89.0231 14.6555 88.7293 14.8837 88.437 15.1104C88.8258 14.6749 89.2146 14.2391 89.6034 13.8036C89.3454 14.421 89.9348 13.8755 90.006 14.1601C90.1207 13.9871 90.2274 13.8183 90.3345 13.6512C90.5981 13.2071 91.3965 12.942 91.9936 13.4878C92.2678 13.7393 92.5543 14.0422 92.8633 14.4279C93.0627 14.6771 92.8165 14.6796 93.6043 15.1648C93.2524 15.2086 93.957 16.0988 93.6663 16.1845C93.4538 15.9539 93.2297 15.7184 93.026 15.4924C93.3359 15.6718 93.556 15.5328 93.2377 15.1079C92.8313 14.5656 92.0149 13.9982 92.2425 13.8272C92.1368 13.7314 92.0359 13.6383 91.9358 13.5457C91.8307 13.4471 91.7087 13.3675 91.5744 13.3125C91.662 13.4289 91.7175 13.5537 91.7462 13.6749C91.2406 13.089 90.5111 13.4296 90.4493 13.766C90.4452 13.7771 90.4413 13.7882 90.4375 13.7994C90.4454 13.7922 90.4533 13.785 90.4612 13.7778C90.8039 13.4558 91.3764 13.5008 91.6527 13.8288C91.8862 14.0846 92.1197 14.3404 92.3534 14.5964C92.2531 14.5131 92.1516 14.4286 92.0516 14.3451C92.396 14.9441 91.7888 14.5781 92.6414 15.4852C92.6943 15.4216 92.7482 15.359 92.8014 15.295C92.966 15.7711 93.8438 16.6473 93.3849 16.5466C93.7048 16.7565 93.7936 16.7757 93.847 17.0222C94.6819 17.5849 95.3028 17.8615 95.2596 17.4073C95.486 17.6998 95.7124 17.9925 95.9374 18.2837C95.7313 18.1899 95.5252 18.0957 95.319 18.0019C95.7739 18.4498 96.2321 18.901 96.6854 19.3479C96.8948 19.2249 95.8669 18.4286 96.2787 18.5431C96.3612 18.5659 96.5402 18.8728 96.6208 18.9198C97.4756 19.411 96.2877 18.4858 96.6254 18.545C97.6713 19.5048 97.1022 18.4689 98.2873 20.0463C98.3718 20.0348 98.46 20.025 98.5414 20.0111C98.559 20.0284 98.5757 20.0452 98.5916 20.0615C98.7416 20.2081 98.8315 20.2655 98.9265 20.3301C99.0218 20.3861 99.1419 20.4548 99.3812 20.3903C99.4952 20.3565 99.5936 20.2572 99.6563 20.1446C99.7991 19.9188 99.9487 19.6784 100.21 19.5805C100.285 19.5536 100.038 20.2658 101.035 19.2478C101.81 18.4577 101.32 18.6188 101.684 18.1378C102.049 17.6565 103.245 16.9167 103.271 16.3731C103.084 16.6289 102.82 16.9296 102.602 17.2036C102.452 17.2533 102.305 17.3009 102.156 17.3495C102.783 16.8522 103.288 16.1945 103.786 15.9361C104.353 15.0024 105.362 14.3338 105.342 14.7681C105.066 14.9852 105.244 14.6262 104.959 15.0267C104.972 15.1101 104.983 15.1952 104.996 15.2787C105.574 14.689 105.981 14.2848 105.567 14.4038C105.654 14.3098 105.74 14.2166 105.828 14.1225C105.95 14.2128 106.072 14.3054 106.194 14.3957C106.314 14.2996 106.435 14.2029 106.555 14.1068C106.652 13.9632 106.749 13.819 106.847 13.6738C106.514 13.6687 106.23 13.9417 107.058 12.9257C107.119 12.9812 107.181 13.0353 107.242 13.0908C107.939 12.2451 107.819 12.0836 108.793 11.12C107.847 11.6611 107.799 12.4263 107.396 12.0179C107.236 12.231 107.075 12.446 106.915 12.6592C106.828 12.6287 106.741 12.5979 106.655 12.5661C107.687 11.5958 109.738 10.3193 110.152 9.39221C110.264 9.34245 110.373 9.28828 110.489 9.23951C110.991 8.42781 111.622 8.49181 112.088 7.62528C112.136 7.53554 111.665 7.35276 112.545 6.49712C112.565 6.56117 112.626 6.64387 112.662 6.71498C112.823 6.50114 112.983 6.28708 113.143 6.074C113.216 6.07943 113.29 6.08319 113.364 6.08891C113.059 6.42445 112.755 6.75934 112.449 7.09488C112.729 6.84219 113.01 6.5878 113.29 6.33511C113.007 6.74644 112.851 6.90375 113.163 6.79713C113.47 6.50188 113.779 6.2066 114.086 5.91135C114.144 5.90662 114.201 5.90241 114.258 5.89768C114.191 6.12207 114.12 6.34621 114.054 6.57178C114.244 6.34766 114.432 6.1349 114.613 5.92921C114.854 5.63018 115.327 5.59375 115.658 5.82352C115.801 5.92628 115.945 6.02177 116.091 6.10861C116.22 6.18527 115.959 5.71982 116.567 6.51186C116.632 6.46855 116.694 6.4434 116.757 6.40552C117.462 7.41403 117.789 7.65026 118.792 8.43415C118.111 7.95785 118.693 8.40754 118.786 8.60959C118.849 8.74825 118.461 8.3487 118.466 8.43276C118.471 8.51657 118.825 9.18689 118.368 8.76824C117.62 7.37049 116.939 7.46627 115.717 5.93168C115.887 6.18573 116.059 6.44141 116.229 6.69546C116.101 6.6239 115.986 6.56017 115.847 6.48225C116.68 7.18762 116.265 6.85493 116.53 7.2209C116.797 7.58722 117.329 8.20452 117.7 8.60347C117.817 8.72912 117.762 8.52834 118.043 8.7954C118.234 8.97721 118.636 9.59483 118.881 9.58525C119.04 9.57945 118.45 8.53256 119.581 9.66523C119.876 9.79712 119.308 9.27954 119.306 9.25808C119.304 9.06282 120.072 9.68618 120.32 10.0816C120.34 10.114 120.011 9.93529 120.257 10.241C120.842 10.9671 121.307 11.2593 121.848 11.5669C121.757 11.7499 122.145 12.4651 122.883 13.101C122.878 13.1753 122.872 13.2484 122.868 13.323C122.782 13.1956 122.696 13.0686 122.61 12.9412C122.469 12.8496 122.328 12.7443 122.186 12.6598C122.843 13.3839 122.751 13.6704 123.013 14.0706C123.911 15.4396 123.723 14.2537 123.605 13.9633C123.423 13.8509 123.241 13.7473 123.059 13.6379C123.123 13.6064 123.187 13.5748 123.25 13.5417C124.945 15.2392 123.818 13.4902 124.768 14.2625C124.754 14.7188 125.364 15.3738 126.319 16.0303C126.407 16.1206 126.496 16.2104 126.584 16.3011C126.564 16.3502 126.512 16.4023 126.513 16.4491C127.444 17.4593 127.978 17.2707 128.104 17.3283C128.664 17.5845 128.772 18.1125 128.891 18.2347C129.39 18.7488 129.631 18.8027 130.073 19.3252C130.549 19.8874 130.122 19.6042 130.216 19.8262C130.251 19.9083 130.356 20.042 130.469 20.1839C130.58 20.3331 130.763 20.438 130.874 20.5005C130.799 20.4215 130.735 20.3308 130.702 20.2414C131.038 20.3698 131.364 20.2419 131.532 20.0203C131.722 19.7966 131.926 19.567 132.165 19.3169C133.17 18.9435 133.224 17.8244 133.418 18.4942C132.869 19.1022 132.595 19.4749 132.395 19.8944C132.789 19.5288 133.183 19.1625 133.576 18.7968C133.64 18.6386 133.672 18.5138 133.755 18.3344C134.139 18.1514 134.754 17.4503 135.042 17.2216C136.39 16.1504 136.188 16.6963 137.003 15.3036C136.179 16.0713 136.04 15.9299 135.27 16.7384C135.341 16.468 135.762 16.0877 135.383 16.2271C136.176 15.4932 136.036 15.8472 136.428 15.6451C136.767 15.4708 137.288 14.9593 137.365 15.095C137.359 14.9837 137.343 14.8861 137.337 14.775C137.691 14.4219 138.045 14.0685 138.399 13.7153C138.535 13.5785 138.713 13.4845 138.903 13.4494C138.703 13.4275 138.478 13.4725 138.276 13.5929C138.186 13.6424 138.096 13.692 138.006 13.7416C138.066 13.6618 138.126 13.5819 138.185 13.5021C138.286 13.3757 138.414 13.2652 138.561 13.1822C139.013 13.0407 139.591 13.1397 139.957 13.5242C141.078 14.6849 142.48 15.8065 141.836 15.9197C142.407 16.5215 142.54 16.5349 142.95 16.7633C142.949 16.8348 142.953 16.8991 142.947 16.9746C143.364 17.315 143.518 17.7417 143.887 18.04C144.256 18.3386 144.468 18.2928 144.3 18.5578C144.578 18.7119 144.845 18.8753 145.117 19.0325C145.198 19.2113 145.279 19.3894 145.358 19.5666C145.587 19.7435 145.815 19.9211 146.044 20.098C146.045 20.1619 146.123 20.2753 146.239 20.414C146.397 20.6052 146.7 20.7754 147.019 20.7979C147.338 20.8283 147.645 20.7181 147.842 20.6113C147.891 20.5515 147.923 20.4905 147.943 20.431C148.036 20.0568 147.851 19.7164 148.594 19.0832C148.661 19.1904 148.727 19.297 148.794 19.4042C148.956 19.2063 149.118 19.0082 149.281 18.8089C149.263 18.7698 149.244 18.732 149.226 18.6929C149.143 18.7935 149.061 18.8929 148.979 18.9939C149.01 18.8661 149.041 18.7402 149.071 18.6138C149.416 18.4106 149.762 18.2071 150.109 18.0025C149.791 18.428 149.473 18.8536 149.156 19.279C149.686 18.8765 149.947 18.4884 150.423 18.154C150.656 17.6813 150.457 17.7424 150.183 17.7554C150.325 17.6355 150.469 17.5137 150.611 17.3937C150.394 17.3499 150.538 17.0507 149.783 17.8273C149.798 17.7375 149.816 17.6484 149.829 17.5584C149.961 17.4386 150.011 17.3257 150.163 17.2022C150.578 16.8657 151.095 16.8064 151.149 16.9123C151.177 16.9682 150.727 17.2583 150.801 17.3028C150.982 17.411 151.767 16.4962 150.687 17.8673C151.186 17.5527 151.207 17.3923 151.629 16.917C151.642 17.0004 151.656 17.0825 151.671 17.1645C151.857 16.9342 152.043 16.7037 152.229 16.4734C151.691 16.5147 153.132 14.8876 151.535 16.0516C151.931 15.6324 152.327 15.2145 152.722 14.7961C152.613 14.8544 152.504 14.913 152.395 14.9713C152.224 15.1686 152.055 15.3645 151.884 15.5615C152.054 15.2988 152.224 15.0359 152.394 14.7732C152.962 14.3201 153.251 14.2085 153.595 14.0841C153.08 14.7586 153.165 14.4552 152.68 14.8968C152.766 14.9499 152.808 15.0351 152.921 15.0674C153.017 14.6844 153.902 14.008 154.09 13.834C154.194 13.7379 154.26 13.6689 154.301 13.618C154.537 13.3864 154.119 13.4885 154.589 13.2237C155.049 13.0185 155.629 13.2032 155.972 13.5094C156.08 13.5949 156.193 13.6644 156.311 13.7079C156.228 13.7809 156.122 13.838 156.029 13.8878C156.578 14.4879 156.556 14.2807 156.628 14.3281C157.774 15.0796 158.122 15.761 159.187 16.8665C159.025 16.7529 158.864 16.6356 158.702 16.5192C159.354 17.5045 158.853 16.902 158.087 16.2461C158.77 16.8958 159.01 17.4191 159.438 17.9316C159.866 18.444 160.746 19.1776 161.097 19.4156C160.514 18.6499 159.727 17.9827 159.003 17.2088C159.168 17.214 159.318 17.2291 159.494 17.2292C159.782 17.8522 160.158 18.004 160.33 18.1318C160.836 18.507 160.678 18.6371 161.099 18.7485C161.035 18.7909 160.982 18.8278 160.922 18.8667C161.853 19.754 162.929 20.641 163.324 21.4296C163.506 21.3558 163.67 21.2733 163.863 21.2049C164.152 21.6864 164.58 21.9176 164.882 22.2644C165.182 22.61 164.956 22.5904 165.296 23.0099C165.359 23.0875 165.57 23.1692 165.695 23.3899C165.822 23.6125 166.109 24.6134 166.498 24.3789C166.825 24.7031 167.145 24.9999 167.469 25.3136C167.176 24.9852 166.882 24.6573 166.59 24.3302C166.93 24.5196 167.269 24.7075 167.609 24.8969C167.576 24.998 167.541 25.1004 167.507 25.1993C168.139 25.9949 168.767 26.4026 169.461 27.149C169.577 27.2737 169.16 27.123 169.727 27.6228C170.103 27.9531 170.511 28.1296 170.98 28.5014C171.118 28.6004 171.285 28.6753 171.497 28.6918C171.595 28.6968 171.698 28.7048 171.806 28.7162C171.871 28.7232 172.251 28.9923 172.712 28.806C172.817 28.7638 172.376 28.7013 172.616 28.6459C172.857 28.5904 173.932 28.5448 174.016 28.4127C174.004 28.4595 173.937 28.5079 173.905 28.5555C174.088 28.5779 174.274 28.6003 174.459 28.6222C174.476 28.5398 174.495 28.4573 174.512 28.3754C175.567 28.567 176.112 28.8797 177.675 28.7762C177.236 28.8959 176.796 29.016 176.358 29.1356C176.238 29.0516 176.117 28.967 175.999 28.8829C175.278 28.9164 174.556 28.9497 173.836 28.9833C173.717 28.8876 173.601 28.7923 173.482 28.6966C173.291 28.7091 173.102 28.7211 172.911 28.7335C172.958 28.8026 173.007 28.8714 173.056 28.9405C172.678 28.9236 172.299 28.9062 171.923 28.8893C172.689 29.2973 174.063 28.8546 173.964 29.1959C174.134 29.1429 174.304 29.0896 174.474 29.0362C174.549 29.2017 174.894 29.1541 175.504 29.128C175.364 29.2096 175.21 29.29 175.082 29.3724C175.675 29.2573 176.726 29.2685 177.339 29.2242C177.609 29.2048 177.34 29.0848 177.42 29.0707C177.831 28.997 178.616 29.2063 178.781 29.1898C179.763 29.0912 180.401 28.6943 181.474 28.9559C180.367 29.0205 180.969 28.9932 180.575 29.1385C180.452 29.1841 179.022 29.2791 180.813 29.2369C181.022 29.2316 184.271 28.9574 183.203 28.7472C183.729 28.8142 184.14 28.8918 184.622 28.963C185.799 28.4091 185.392 28.9294 185.05 29.2159C185.243 29.2171 185.426 29.2201 185.625 29.2201C185.203 28.9191 187.355 28.9004 188.085 29.0523C188.33 29.1028 187.646 29.1992 188.211 29.2447C188.481 29.2236 188.786 29.1963 189.071 29.1727C188.658 29.3631 189.468 29.4365 189.457 29.6302C189.975 29.4576 190.371 29.0917 190.086 28.8934C190.514 28.9737 190.945 29.0539 191.373 29.1346C191.174 29.1806 190.973 29.2261 190.774 29.2721C192.173 29.1504 193.972 29.4273 194.264 29.0204C194.45 29.0233 194.637 29.0258 194.823 29.0287C194.88 29.0974 194.935 29.1662 194.993 29.235C195.832 29.1754 196.669 29.1154 197.507 29.0558C196.761 29.0131 196.583 28.9153 195.799 28.9947C196.101 28.9157 196.409 28.8362 196.705 28.7572C197.884 28.97 198.045 29.1098 199.821 29.0465C199.901 29.0436 201.242 28.8651 201.288 28.8478C201.498 28.7683 201.179 28.6528 201.273 28.6127C201.533 28.5001 203.113 28.2173 203.082 28.1747C202.696 27.6514 197.381 27.6445 195.944 27.6176C187.727 27.4638 179.609 27.5082 171.497 27.5683C171.606 27.5699 171.713 27.6167 171.787 27.6945C167.268 23.2427 162.745 18.7963 158.25 14.2617C158.143 14.1533 158.244 14.1457 158.201 14.0974C157.929 13.7986 157.564 13.6037 157.455 13.5018C157.223 13.2838 157.425 13.3292 157.261 13.1646C157.103 13.0065 156.945 12.8497 156.788 12.6939C155.887 11.7577 154.258 11.7812 153.387 12.7036C152.263 13.8535 151.161 14.9928 149.986 16.1496C149.874 16.2596 150.05 16.2094 149.845 16.3928C149.738 16.4872 149.327 16.7052 149.099 16.9305C148.302 17.7175 147.668 18.4137 146.831 19.2474C146.819 19.2592 146.807 19.2712 146.795 19.2833C146.916 19.1454 147.209 19.1184 147.365 19.2884C147.186 19.1118 147.013 18.9397 146.858 18.783C146.633 18.5568 146.442 18.2776 146.22 18.0532C145.906 17.7349 145.881 17.889 145.827 17.8459C145.589 17.6567 145.658 17.5289 145.453 17.3285C145.071 16.9561 144.985 17.0014 144.512 16.5174C144.174 16.1714 143.444 15.337 143.028 14.8906C142.296 14.2613 141.493 13.464 140.766 12.7152C139.918 11.8316 138.498 11.8157 137.659 12.4503C137.551 12.5278 137.457 12.6094 137.375 12.6913C136.919 13.1454 136.939 13.2843 136.727 13.4951C135.925 14.2934 135.201 14.7832 134.446 15.5307C133.444 16.523 132.638 17.4843 131.677 18.456C131.521 18.6135 131.473 18.4934 131.317 18.6449C131.133 18.8238 130.932 19.018 130.728 19.2165C130.917 19.0025 131.286 19.0279 131.441 19.2118C131.402 19.1738 131.364 19.137 131.327 19.1015C130.749 18.5499 130.418 18.4637 129.89 17.8861C129.736 17.7167 129.795 17.562 129.537 17.2767C129.125 16.8213 128.555 16.4401 128.242 16.148C127.813 15.7471 128.283 15.9988 127.709 15.4539C127.685 15.4315 127.523 15.4258 127.407 15.302C127.067 14.9414 127.164 14.9147 126.646 14.4083C126.596 14.36 125.842 13.7551 125.774 13.6879C125.376 13.2917 124.55 12.5178 124.33 12.2668C123.546 11.3699 124.325 11.9144 123.355 11.4541C123.103 11.077 122.854 10.7016 122.581 10.3073C122.747 10.5865 121.762 9.76409 121.703 9.6953C121.22 9.12741 121.632 9.34131 120.95 8.69149C121.601 9.80025 120.061 7.86147 119.679 7.46772C118.72 6.47906 117.784 5.55985 116.841 4.64014C115.924 3.69034 114.25 3.69165 113.337 4.65359C112.851 5.15019 112.358 5.65159 111.846 6.16194C111.217 6.78978 110.327 7.58355 109.663 8.24958C109.508 8.40462 109.679 8.34169 109.544 8.47928C109.409 8.61615 109.499 8.40438 109.347 8.56293C108.402 9.5503 107.759 10.4222 106.731 11.164C106.708 11.2278 106.726 11.2428 106.678 11.3369C105.825 11.9329 104.602 13.5008 104.102 14.0489C103.318 14.9059 103.022 15.0286 102.444 15.642C101.679 16.4533 100.666 17.806 100.914 16.9976C100.365 17.5293 99.842 18.0472 99.3221 18.6192C99.2643 18.6829 99.3774 18.7122 99.3545 18.738C99.2107 18.9023 99.0968 18.8887 98.9898 18.9898C98.6998 19.2641 99.2366 18.88 98.813 19.2609C98.8058 19.2674 98.7987 19.2737 98.7916 19.2799C98.8519 19.2181 98.9203 18.9759 99.3208 19.1247C99.3658 19.1484 99.4073 19.1795 99.4405 19.2126C97.3162 17.0822 95.0782 14.8561 92.8446 12.6369C91.9238 11.6758 90.2372 11.6812 89.3239 12.6406C88.2702 13.7013 87.222 14.7565 86.1903 15.7935C85.9408 16.0442 86.0366 15.8107 85.7274 16.1287C84.9407 16.9377 83.7462 18.2625 82.7881 19.2763C82.9556 19.1332 83.1623 19.1558 83.288 19.2272C83.3205 19.2449 83.3479 19.2647 83.3699 19.2831C82.6563 18.5199 82.8935 18.5767 82.3849 17.9895C82.2795 17.8678 82.3152 18.0182 82.2116 17.9164C81.5157 17.231 80.6029 16.4972 80.0299 15.9511C79.6509 15.5901 79.7708 15.5295 79.5205 15.2664C79.1474 14.8745 78.6626 14.5721 78.4556 14.3709C77.8096 13.742 77.3341 13.2074 76.8139 12.6676C76.1737 12.0014 75.0758 11.725 74.1198 12.159C74.2206 12.0858 74.2893 12.0346 74.383 11.9783C73.9762 12.0952 73.5964 12.3218 73.3019 12.6185C72.3628 13.5633 71.4246 14.5072 70.4853 15.4522C70.5172 15.384 70.5473 15.3174 70.5788 15.2489C69.3441 16.5036 69.6828 16.5583 69.3769 16.0334C69.2718 16.1093 69.1588 16.1883 69.0589 16.2613C69.308 16.4402 68.7117 17.3497 67.808 18.3623C67.7418 18.4367 67.0616 18.6996 67.3595 18.8947C67.1762 18.9574 67.0613 18.9891 66.9043 19.0402C66.8673 19.1203 66.83 19.2005 66.7926 19.2808C66.9013 19.2768 67.0037 19.3186 67.0518 19.3871C67.077 19.3669 67.1095 19.3523 67.1491 19.3479C67.1754 19.2846 67.1896 19.2143 67.2322 19.1582C67.2849 19.175 67.3466 19.2123 67.3913 19.2618C66.8375 18.7278 66.0288 17.9989 65.7022 17.6621C64.7203 16.6492 63.8354 15.5031 62.9185 14.8684C62.555 14.4761 63.0251 14.7566 62.4511 14.2066C62.3396 14.1911 62.2339 14.1774 62.1182 14.1606C61.8733 13.4868 61.6469 13.5213 60.9726 12.9367C60.5165 12.5414 60.2901 12.2102 59.8745 11.8151C59.7692 11.715 59.7208 11.7925 59.6526 11.7202C59.4237 11.4783 58.8387 10.7201 58.6749 10.5516C57.1922 9.02326 55.8891 7.73961 54.4321 6.32885C54.2757 6.17712 54.5376 6.31477 54.3755 6.15792C54.1148 5.90549 54.1703 6.1519 54.017 6.00795C53.5899 5.60588 53.6874 5.50208 53.1143 4.9185C51.7861 3.56599 50.2706 2.11824 48.7935 0.688006C47.8859 -0.247237 46.2538 -0.216522 45.3864 0.703066C45.1544 0.939778 44.9237 1.1739 44.6947 1.40444C44.6325 1.46661 44.5773 1.40393 44.5091 1.47092C44.0657 1.90852 43.6996 2.43411 43.2987 2.83318C42.634 3.49561 42.0524 3.9115 41.3972 4.56729C40.1163 5.84882 39.0139 7.03598 37.6986 8.35604C36.6221 9.43661 35.6775 10.3654 34.4953 11.5483C31.942 14.1027 29.3169 16.6369 26.6987 19.1869C26.8949 18.9729 27.2657 18.9606 27.4799 19.1731C25.3066 16.9494 23.118 14.7387 20.8919 12.5895C20.7025 12.4024 20.4801 12.2425 20.2385 12.1222C19.7993 11.9268 19.9504 12.0846 19.8178 12.0314C19.173 11.8282 18.7826 11.8842 18.5275 11.9299C18.2715 11.9875 18.1279 12.0727 17.9672 12.2712C17.7252 12.3908 17.528 12.5335 17.3642 12.6809C16.986 12.9749 16.7209 13.0867 16.2325 13.5884C15.9219 13.9072 16.3283 13.8437 15.7075 14.2877C15.1468 14.6886 15.5834 14.0641 14.2497 15.5898C14.2145 15.6303 14.1327 15.9211 13.8082 16.1912C13.4826 16.4629 13.7535 16.0424 13.0119 16.7388C11.2713 18.3742 9.22495 20.6011 7.23481 22.5356C7.11007 22.6569 5.86974 23.7855 5.61016 23.9935C5.10764 24.396 5.12451 24.2238 4.51779 24.7924C4.04903 25.2319 3.76232 25.6946 3.21089 26.2109C3.14657 26.2709 2.95195 26.2846 2.56274 26.6978ZM106.239 14.5365C106.438 14.5145 106.965 14.6412 107.536 13.8717C107.59 13.7988 107.022 13.917 107.357 13.5111C106.971 13.8496 106.61 14.1946 106.238 14.5362C106.238 14.5363 106.239 14.5364 106.239 14.5365ZM0.181331 29.9466C0.890444 29.9234 1.60199 29.9004 2.3111 29.8773C1.82181 29.8214 1.33179 29.7656 0.844402 29.7093C0.622727 29.7883 0.403007 29.8675 0.181331 29.9466ZM63.8654 18.8176C63.8649 18.8171 63.8645 18.8166 63.864 18.8161C64.3489 19.3854 64.8341 19.955 65.319 20.5243C65.2947 20.4378 65.2703 20.3511 65.2459 20.2647C64.8786 19.7996 64.511 19.3344 64.145 18.8707C64.0519 18.8531 63.9586 18.8352 63.8654 18.8176ZM60.0296 14.3248C59.6562 14.0251 59.6764 14.1697 59.4306 14.0451C59.4307 14.045 59.4308 14.0449 59.431 14.0448C59.3663 14.0117 59.1249 13.7979 59.0346 13.7123C59.106 13.7058 59.1863 13.7093 59.2601 13.7058C58.5691 12.8263 56.6985 11.6256 58.5517 13.7486C58.5711 13.6697 58.5916 13.5924 58.6111 13.5135C59.5853 14.5153 60.7933 15.51 60.0296 14.3248ZM114.324 6.73406C114.576 6.56319 114.783 6.42028 114.968 6.28425C115.085 6.29385 115.078 6.31539 115.164 6.31716C115.316 6.44777 115.488 6.59017 115.689 6.75159C115.59 6.56144 115.491 6.37128 115.392 6.18113C115.373 6.17002 115.353 6.15892 115.334 6.14783C115.234 6.13362 115.154 6.17062 115.107 6.22451C115.107 6.22449 115.107 6.22447 115.106 6.22446C115.107 6.15479 115.098 6.08434 115.079 6.01537C114.978 6.03054 114.895 6.08342 114.841 6.15769C114.669 6.34995 114.496 6.5422 114.324 6.73406ZM27.865 20.7823C27.7994 21.0356 27.7014 21.1401 27.7569 21.1433C27.8037 21.1422 28.0051 21.0595 28.2909 20.7792C28.3819 20.6866 28.5025 20.5731 28.6634 20.4435C28.9211 20.2362 28.7508 20.519 28.9048 20.3838C29.7369 19.654 29.5839 19.3761 29.2975 19.4383C28.8991 19.8232 28.4976 20.2122 28.1046 20.5928C28.0324 20.6634 27.9527 20.7267 27.8674 20.7807C27.8666 20.7813 27.8658 20.7818 27.865 20.7823ZM7.01653 25.5425C7.01605 25.543 7.01557 25.5435 7.01509 25.5439C7.07325 25.6426 7.40916 25.3489 7.12843 25.7783C7.39825 25.5079 7.66773 25.2371 7.9389 24.9654C7.85198 25.0377 7.7637 25.112 7.67677 25.1844C7.72012 25.0871 7.76332 24.9894 7.80666 24.8922C7.99276 24.8864 8.02952 24.7448 8.28312 24.4309C8.30103 24.6056 8.31939 24.78 8.33731 24.9547C8.63833 24.5963 8.94044 24.2366 9.24147 23.8783C9.22125 23.8499 9.20108 23.8215 9.18086 23.7932C9.33617 23.6999 9.49057 23.6082 9.64588 23.5149C9.65069 23.4522 9.65453 23.3909 9.65934 23.3282C9.83125 23.2001 10.0034 23.0719 10.1756 22.9441C10.151 22.8283 9.79019 23.1285 10.394 22.5604C10.1422 22.6681 9.89109 22.7757 9.63801 22.8848C8.76404 23.7705 7.89021 24.6565 7.01653 25.5425ZM34.1592 14.7312C33.1768 15.6868 33.5005 15.4647 33.8841 15.3996C33.9753 15.1773 34.0681 14.9535 34.1592 14.7312ZM85.1554 19.4516C85.5451 19.2791 85.9349 19.1043 86.3276 18.9212C86.9613 18.4088 87.3366 17.6376 86.8279 17.9911C86.2158 18.417 85.778 19.0632 85.1554 19.4516ZM97.9226 20.4615C97.1711 19.8107 97.7017 20.5994 97.7846 20.8328C97.7941 20.835 97.8036 20.8374 97.8131 20.84C98.2396 21.0456 98.8893 21.4634 99.8088 21.035C99.1204 21.3973 98.2629 20.9596 98.0441 20.6089C97.9927 20.5382 97.9515 20.486 97.9229 20.4611C97.9228 20.4612 97.9227 20.4613 97.9226 20.4615ZM73.3876 15.4635C73.1034 15.7412 72.7936 15.9904 72.5792 16.2785C72.7588 16.3065 73.1669 15.7095 72.9615 16.2228C73.1438 16.0458 73.3263 15.8684 73.5076 15.6929C73.3304 15.7425 73.4352 15.5424 73.3872 15.4646C73.3874 15.4642 73.3875 15.4639 73.3876 15.4635ZM43.6704 5.46487C44.0989 4.7905 44.256 4.73861 44.8966 4.26831C44.8748 4.08994 44.0448 4.58458 43.593 4.96257C43.6193 5.12944 43.6454 5.29665 43.6704 5.46487ZM179.358 29.6675C179.171 29.4871 177.789 29.4636 177.103 29.5169C177.185 29.5437 177.267 29.5708 177.348 29.598C178.017 29.6212 178.689 29.6444 179.358 29.6675ZM100.192 20.7543C100.074 20.8717 99.9426 20.9654 99.8088 21.035C99.9601 20.9624 100.092 20.8631 100.192 20.7543ZM129.543 19.2175C129.432 18.8662 130.159 19.5125 129.278 18.7258C129.278 18.7257 129.278 18.7255 129.279 18.7254C128.696 18.205 128.566 18.0916 128.046 17.5901C128.075 17.9285 129.056 19.0202 127.596 17.6236C127.577 17.6049 127.706 17.5504 127.466 17.3348C127.391 17.2682 127.09 17.1182 126.725 16.7973C126.608 16.6935 125.752 15.8839 126.885 17.0206C126.744 17.0946 126.696 17.2646 126.589 17.3664C127.001 17.8399 127.553 17.9695 128.016 18.4434C128.704 19.1477 128.845 19.7152 129.259 19.5691C128.742 18.9151 127.739 17.9085 127.44 17.9457C126.871 17.3815 126.847 17.081 127.371 17.4694C129.24 19.5117 128.113 17.8016 129.715 19.624C129.697 19.6832 129.725 19.7955 129.678 19.8214C130.337 20.2071 129.582 19.3429 129.543 19.2175ZM125.156 15.4257C125.411 15.8458 125.665 16.2655 125.919 16.6846C126.053 16.5505 125.988 16.2447 125.531 15.6366C125.406 15.5669 125.28 15.4957 125.156 15.4257ZM154.836 13.7541C154.919 13.8303 155.042 13.9025 155.091 14.0045C155.104 13.9807 155.26 13.948 155.415 14.0664C156.131 14.6975 157.131 15.6137 156.299 14.6965C156.213 14.6008 155.854 14.3045 155.503 13.978C155.291 13.7819 154.999 13.7931 154.836 13.7541ZM39.7319 9.18376C39.9696 8.84836 40.206 8.51403 40.4422 8.17997C39.9723 8.58793 39.5011 8.99545 39.0305 9.40282C39.2647 9.32937 39.4977 9.25722 39.7319 9.18376ZM89.6916 14.6596C89.5733 14.7833 90.0755 14.4816 89.5829 14.9426C89.9968 14.6553 90.3791 14.3803 90.7806 14.0973C90.7835 14.0961 90.7864 14.0948 90.7893 14.0937C90.7885 14.0014 90.8181 13.8997 90.8843 13.8069C90.9657 13.8251 91.0383 13.8595 91.0943 13.9039C91.062 13.8056 91.0157 13.7117 90.9421 13.6238C90.7613 13.7231 90.6707 13.8209 90.5867 13.9034C90.3154 14.1787 90.0576 14.2772 89.6916 14.6596ZM71.4134 16.3975C71.4583 16.6529 72.395 15.8948 71.5853 16.7524C71.8421 16.6929 72.1481 16.4904 72.6448 16.0113C72.6854 15.8953 72.7261 15.7796 72.7667 15.6636C72.8784 15.7537 73.0415 15.6657 73.3876 15.4635C73.3877 15.4632 73.3879 15.4628 73.388 15.4624C74.137 14.728 74.059 14.7387 74.0715 14.3944C73.3799 15.2733 73.2048 15.1451 72.5794 15.5902C72.1498 15.8958 71.698 16.4038 71.4134 16.3975ZM152.298 16.204C152.98 15.7755 152.6 16.392 153.45 15.2722C153.354 15.3035 153.259 15.3354 153.163 15.3667C152.874 15.6455 152.586 15.9247 152.298 16.204ZM69.1875 19.6525C69.0186 19.3566 69.3605 18.6529 69.8279 18.9418C69.3953 19.5283 69.43 19.0652 69.1875 19.6525ZM98.0473 19.8585C97.0567 18.8895 96.9796 19.3371 97.2513 19.8709C97.3611 19.8854 97.471 19.8997 97.5793 19.9131C97.7293 20.1064 97.8792 20.2998 98.0295 20.4928C98.0354 20.2815 98.0415 20.0698 98.0473 19.8585ZM51.0936 5.25824C51.6764 6.17297 50.193 4.54229 50.6125 5.16896C50.9472 5.66942 51.6648 6.05252 51.5615 5.7396C51.4198 5.59205 51.2609 5.42902 51.095 5.25968C51.0945 5.2592 51.0941 5.25872 51.0936 5.25824ZM55.379 9.63855C55.0787 9.69293 55.3076 9.81846 54.7479 9.195C54.5881 9.01698 53.179 7.74112 53.8895 8.15777C54.3692 8.63746 54.8786 9.1417 55.379 9.63855ZM109.844 10.6505C109.776 10.5643 108.573 11.4284 108.483 11.6035C108.482 11.6034 108.482 11.6033 108.482 11.6032C108.24 12.0769 109.347 11.0029 109.032 11.6346C109.94 10.4476 110.591 10.4719 110.073 10.1C109.437 10.6974 109.82 10.497 109.844 10.6505ZM197.496 29.1534C197.497 29.1534 197.498 29.1534 197.498 29.1534C197.4 29.1585 196.591 29.3188 196.69 29.3743C197.662 29.3267 197.489 29.2212 198.395 29.3946C198.444 29.3388 198.487 29.2846 198.54 29.2284C198.181 29.1952 197.982 29.1282 197.496 29.1534ZM157.543 15.5719C157.31 15.299 156.766 14.9215 156.483 14.6286C157.078 15.8663 158.472 16.6616 157.543 15.5719ZM16.5042 16.0769C16.5051 16.0763 16.5059 16.0757 16.5067 16.0751C16.5063 16.0751 16.5059 16.0753 16.5055 16.0753C16.5051 16.0758 16.5046 16.0764 16.5042 16.0769ZM137.367 15.2124C137.379 15.1589 137.379 15.1224 137.37 15.0999C137.368 15.0984 137.367 15.0969 137.365 15.0954C137.367 15.1325 137.368 15.171 137.367 15.2124ZM112.016 8.52539C112.339 7.98714 110.733 9.25041 110.31 9.75514C110.392 9.77188 110.441 9.81138 110.573 9.79225C110.821 9.29055 111.963 8.61516 112.016 8.52539ZM77.9659 16.2635C79.1028 17.3945 78.0523 15.4936 77.6522 15.772C77.6479 15.7809 77.9372 16.2336 77.9659 16.2635ZM103.029 17.4231C102.612 17.5832 103.158 16.9685 102.252 17.9191C102.231 18.0064 102.211 18.0939 102.19 18.1812C102.47 17.9285 102.75 17.6758 103.029 17.4231ZM85.5346 17.8113C87.0334 16.4558 88.5249 15.2174 87.9503 16.5021C87.8309 16.5987 87.7103 16.6972 87.5909 16.7938C87.4015 16.6368 87.0975 17.1299 86.5197 17.719C86.3678 17.7334 86.0283 18.041 85.9092 18.0433C85.6788 18.0477 85.9711 17.5965 85.5346 17.8113ZM24.2041 17.9489C24.1975 18.0015 24.1902 18.0536 24.1839 18.1059C24.3763 18.365 24.5694 18.6245 24.7617 18.8836C24.782 18.7904 24.8022 18.6971 24.8225 18.6039C24.6165 18.3857 24.4116 18.1684 24.2057 17.9502C24.2052 17.9498 24.2046 17.9493 24.2041 17.9489ZM124.13 13.6695C123.935 14.1245 123.542 13.6116 122.787 12.5281C123.234 12.908 123.683 13.2896 124.13 13.6695ZM62.2806 15.7254C62.1584 15.7881 62.037 15.851 61.9135 15.9124C61.5219 15.3282 61.7183 15.3129 62.0745 15.4244C62.1438 15.5252 62.2113 15.6245 62.2806 15.7254ZM55.292 8.65811C55.5137 8.84121 55.3358 8.81258 55.3584 8.83224C55.9099 9.30525 56.0163 9.34316 56.5885 10.0278C56.646 10.1245 56.7011 10.2208 56.7579 10.318C56.2736 10.2212 56.1682 9.90464 55.4396 9.40363C55.6168 9.44801 55.7938 9.49184 55.9713 9.53592C55.6154 9.20811 55.2611 8.88153 54.9052 8.55372C54.8852 8.49269 54.8648 8.43176 54.8448 8.37072C54.9927 8.46598 55.1478 8.56187 55.292 8.65811ZM21.5099 15.4229C21.1699 15.098 20.828 14.772 20.4879 14.4471C20.5234 14.3872 20.5598 14.3275 20.5953 14.2676C20.8998 14.6523 21.2055 15.0383 21.5099 15.4229ZM130.874 20.5005C130.904 20.5316 130.935 20.5612 130.965 20.5892C130.966 20.5591 130.928 20.5322 130.874 20.5005ZM198.737 28.7833C199.27 28.7361 200.038 28.7671 200.623 28.7572C200.577 28.9265 199.091 28.8797 198.569 28.9823C198.485 28.9519 198.511 28.8032 198.737 28.7833ZM96.6814 18.5135C96.6465 18.3592 96.6114 18.2053 96.5779 18.0524C96.343 17.8304 96.1073 17.6083 95.8711 17.385C95.9132 17.3293 95.9559 17.2734 95.998 17.2177C96.9466 18.2933 96.8542 17.919 97.4943 18.2811C97.2229 18.3579 96.9531 18.4364 96.6814 18.5135ZM10.3284 21.1293C11.0926 20.4312 11.4138 20.2336 11.1482 20.7925C10.8565 21.0169 10.5633 21.2428 10.2716 21.4672C10.2909 21.3541 10.3104 21.241 10.3284 21.1293ZM144.842 18.4565C145.399 19.1232 145.606 18.9365 146.094 19.6445C145.738 19.3605 145.381 19.077 145.025 18.7944C144.965 18.6826 144.902 18.5684 144.842 18.4565ZM113.095 5.60387C113.194 5.43208 113.465 5.3072 113.77 5.08685C114.244 4.69279 114.988 4.39435 115.919 4.64399C116.129 4.80591 116.252 4.97383 116.343 5.13871C116.372 5.23204 116.4 5.32362 116.436 5.42404C116.599 5.43414 116.775 5.45502 116.933 5.46165C116.933 5.46213 116.934 5.46261 116.934 5.46309C117.567 6.14705 117.044 5.81612 116.978 5.91207C116.951 5.95266 117.496 6.38497 117.27 6.30547C116.992 6.20701 116.448 5.64056 116.103 5.37883C115.909 5.22006 115.74 5.18455 115.712 5.23754C115.817 5.28016 115.932 5.35107 116.035 5.44693C116.401 5.78163 116.79 6.25731 116.541 6.17659C116.362 6.11891 116.149 5.85201 115.912 5.56944C115.68 5.28115 115.237 5.13546 114.938 5.24405C115.281 5.09935 115.284 5.05209 115.034 5.02383C114.793 4.9977 114.346 5.17519 114.154 5.47111C114.048 5.63769 113.976 5.79511 113.99 5.88288C113.295 6.34146 113.564 5.95065 114.085 5.40131C114.246 5.23165 114.475 5.09114 114.729 5.02859C114.276 5.07625 114.345 5.03868 114.592 4.91857C114.838 4.80174 115.263 4.799 115.403 4.75175C115.072 4.63348 114.332 4.68611 113.854 5.17029C113.291 5.69712 112.738 6.21835 113.095 5.60387ZM80.0669 17.1313C80.5443 17.6272 81.3869 18.3052 81.5986 18.7599C81.7218 19.0248 80.9049 18.3175 81.3192 18.9543C80.8559 18.4693 80.7912 18.3176 80.9697 18.3013C80.8733 18.1815 80.7753 18.0607 80.6787 17.9412C80.6097 17.9102 80.5396 17.8777 80.4706 17.8467C80.454 17.7499 80.4367 17.653 80.4214 17.5575C80.2987 17.4506 80.1746 17.3424 80.0517 17.2358C80.0583 17.2022 80.0529 17.1616 80.0669 17.1313ZM163.011 20.6378C162.877 20.5015 162.744 20.3665 162.611 20.2299C162.649 20.2211 162.692 20.2141 162.733 20.2068C162.765 20.1997 162.796 20.1927 162.828 20.1857C162.681 20.1762 161.923 19.647 161.725 19.3023C161.625 19.1291 162.067 19.3083 161.512 18.7075C161.924 19.1331 162.294 19.539 162.689 19.9568C162.692 19.8814 162.696 19.807 162.699 19.7315C162.699 19.7317 162.699 19.7319 162.7 19.7321C162.843 19.8584 162.989 19.9859 163.133 20.1123C163.093 20.2879 163.051 20.4622 163.011 20.6378ZM62.8595 15.9387C63.244 16.4759 63.3586 16.6699 63.0174 16.5758C63.0169 16.5754 63.0164 16.575 63.0158 16.5746C62.8989 16.3482 62.7819 16.1218 62.665 15.8954C62.7294 15.9095 62.7938 15.9233 62.8595 15.9387ZM134.607 16.5779C136.056 16.0672 133.562 17.9862 133.822 17.4062C133.834 17.38 134.567 16.7216 134.607 16.5779ZM98.3717 19.8942C98.1066 19.6214 97.8404 19.3484 97.5739 19.0743C97.6938 19.0788 97.8149 19.085 97.9347 19.0895C98.0803 19.3575 98.2261 19.6262 98.3717 19.8942ZM13.2987 17.7329C13.453 17.321 14.133 16.5477 14.6282 16.3327C14.458 16.5356 14.2879 16.7386 14.1178 16.9415C14.4864 16.605 14.8528 16.2741 15.2233 15.934C15.4217 16.0945 14.9081 16.3999 14.3413 17.0657C14.2538 17.1691 13.8665 18.0018 13.488 18.0446C13.4111 18.0525 14.0366 17.3801 13.4853 17.7307C13.6746 17.5256 13.8466 17.3572 14.0286 17.1664C13.9994 17.1101 13.97 17.0539 13.9421 16.9963C13.7271 17.2423 13.5138 17.4869 13.2987 17.7329ZM82.8293 19.9149C82.9985 20.023 83.1246 20.0145 83.2152 20.0404C83.3084 20.0604 83.3797 20.0997 83.4871 20.1343C83.2285 20.3006 82.8736 20.2555 82.6769 20.057C82.731 20.0129 82.7811 19.965 82.8293 19.9149ZM20.6538 13.4385C21.0405 13.7837 20.7806 13.7301 20.9083 13.897C21.3913 14.5276 21.8448 14.8336 22.3486 15.4298C22.332 15.3734 22.3171 15.3213 22.3012 15.2668C22.3017 15.2673 22.3022 15.2678 22.3027 15.2683C24.9939 17.7856 23.3921 16.6516 21.8718 15.0553C21.797 15.0571 21.7235 15.0605 21.649 15.062C21.0187 14.2977 20.4401 13.5901 20.6538 13.4385ZM126.497 15.4848C126.55 15.4905 126.45 15.0853 126.853 15.631C127.006 16.2293 126.501 15.5027 126.261 15.4341C126.368 15.5839 126.478 15.736 126.584 15.8844C125.753 15.1797 125.694 15.0147 126.137 15.1317C126.168 15.1408 126.443 15.4789 126.497 15.4848ZM131.126 19.7641C131.185 19.9295 131.145 20.0318 131.03 20.044C130.918 20.0583 130.802 19.9531 130.79 19.8633C130.734 19.7627 130.712 19.6866 130.745 19.6706C130.788 19.7112 130.822 19.7547 130.854 19.7989C130.868 19.8396 130.887 19.8904 130.941 19.8886C131.021 19.8812 131.057 19.7815 131.126 19.7641ZM102.538 16.5558C102.565 16.526 102.712 16.1029 102.792 16.2392C102.695 16.8475 101.819 17.3938 101.855 17.1804C102.094 16.9498 102.289 16.8313 102.538 16.5555C102.538 16.5556 102.538 16.5557 102.538 16.5558ZM8.81222 22.0648C8.81657 22.0421 9.47255 21.2753 9.61583 21.2349C9.74944 21.2172 9.84911 21.2417 9.96585 21.245C9.51829 21.5813 8.76731 22.417 8.81366 22.0633C8.81318 22.0638 8.8127 22.0643 8.81222 22.0648Z" fill="#3D3638"/>
</svg>
