<svg width="204" height="31" viewBox="0 0 204 31" fill="none" xmlns="http://www.w3.org/2000/svg">
<path d="M185.331 16.597C185.63 17.1511 184.289 15.6436 185.044 16.7796C184.834 16.5953 184.623 16.4102 184.413 16.2259C184.433 16.1053 184.452 15.9837 184.473 15.8632C184.758 16.1072 185.044 16.3513 185.331 16.5967C185.331 16.5968 185.331 16.5969 185.331 16.597ZM186.576 16.0751C186.132 16.0336 185.307 15.3163 185.954 16.3349C186.09 16.332 186.226 16.3308 186.362 16.3279C186.597 16.6707 186.835 17.0152 187.071 17.3576C187.201 17.4353 187.331 17.5128 187.461 17.5907C187.474 17.8432 187.485 18.0948 187.497 18.3475C187.397 18.2123 187.295 18.0753 187.195 17.9401C186.633 17.5727 186.193 17.1857 185.544 16.5728C185.571 16.6566 185.598 16.7403 185.625 16.8241C185.353 16.4555 185.081 16.087 184.811 15.7198C185.135 15.9494 185.497 16.2063 185.798 16.4188C185.576 15.8199 184.746 15.2001 184.33 14.8622C184.093 14.6696 183.991 14.5623 183.922 14.4775C183.944 14.4763 183.96 14.4551 183.978 14.4925C183.983 14.5018 183.968 14.6021 184.004 14.6044C184.046 14.6076 184.111 14.5806 184.14 14.5387C183.574 15.0714 183.004 15.5377 183.395 14.9044C183.588 14.7186 183.771 14.5326 183.948 14.3468C183.959 14.3098 184.029 14.2569 184.104 14.2955C184.501 14.6568 184.893 15.0279 185.277 15.4511C185.207 15.0027 185.787 15.4545 186.576 16.0751ZM167.018 13.7224C167.413 13.9332 167.992 14.5867 168.346 15.0681C168.346 15.0686 168.347 15.069 168.347 15.0695C168.425 15.1755 168.511 15.5057 168.216 15.2007C167.735 14.7031 167.691 14.2743 167.304 14.1481C167.213 14.0089 167.114 13.8667 167.018 13.7224ZM165.944 12.6707C165.691 12.3236 165.972 12.3148 166.308 12.7297C166.308 12.7296 166.308 12.7295 166.308 12.7294C166.449 12.9025 166.027 12.7092 166.705 13.1553C166.729 13.3605 166.76 13.5558 166.786 13.7568C166.647 13.6206 166.519 13.4974 166.374 13.3542C166.619 13.3027 166.197 13.0174 165.944 12.6707ZM182.969 15.4932C183.056 15.6741 183.253 15.4757 183.682 15.232C183.36 15.5452 183.038 15.8581 182.717 16.1699C182.802 15.9438 182.885 15.7194 182.969 15.4932ZM189.235 19.7392C189.236 19.7397 189.236 19.7402 189.237 19.7406C189.362 19.8236 189.487 19.9068 189.611 19.9888C189.625 20.0987 189.639 20.2076 189.654 20.3175C190.066 20.6403 190.48 20.9651 190.893 21.2877C190.703 21.3888 190.066 20.7052 189.601 20.4435C189.104 19.859 188.929 19.5139 189.017 19.3553C189.089 19.4828 189.161 19.6104 189.235 19.7392ZM98.9789 16.3208C98.8155 16.2383 98.6537 16.1573 98.4904 16.0747C98.6354 16.2566 98.7835 16.4329 98.927 16.619C99.5337 16.8745 99.4188 17.0704 99.9944 17.6244C101.759 19.3223 101.573 18.5902 102.737 20.5533C101.5 19.2789 101.795 19.9491 100.893 19.3368C100.847 19.07 101.845 19.5717 101.388 19.012C100.396 18.2528 99.4456 17.5193 98.3988 16.6229C98.4081 16.6703 98.4173 16.7176 98.4266 16.765C98.5927 16.9071 98.7576 17.0478 98.9237 17.1899C98.7065 17.0746 98.4935 16.9626 98.273 16.8452C98.6022 16.9431 97.9934 16.4635 98.1991 16.4035C98.2906 16.3768 98.6131 16.5353 98.8116 16.6207C98.4761 16.2237 98.1287 15.82 97.7883 15.4199C98.0272 15.5647 98.2661 15.7092 98.5037 15.8526C98.6618 16.0078 98.8184 16.1622 98.9765 16.3175C98.9773 16.3186 98.9781 16.3197 98.9789 16.3208ZM13.3209 30.1067C13.9785 29.9122 15.1733 29.88 15.8021 30.0965C14.9745 30.0998 14.1485 30.1034 13.3209 30.1067ZM189.083 19.2181C189.113 19.2942 189.141 19.3683 189.17 19.4443C188.894 19.2552 188.617 19.0645 188.342 18.8754C188.365 18.7632 188.387 18.65 188.408 18.5368C188.633 18.7633 188.859 18.9916 189.083 19.2181ZM173.532 19.8169C173.706 19.9828 173.719 20.0001 173.921 20.2215C173.921 20.2212 173.92 20.2209 173.92 20.2206C174.001 20.3081 174.663 21.0499 174.533 21.0237C174.183 20.6759 173.812 20.3031 173.456 19.9462C173.479 19.9012 173.511 19.8649 173.532 19.8169ZM179.27 19.0756C179.271 19.0752 179.272 19.0749 179.272 19.0745C179.407 18.9555 179.543 18.8514 179.677 18.7233C179.288 19.2768 179.066 19.2043 178.679 19.6743C178.293 20.1445 178.109 20.4903 177.544 20.6525C177.649 20.4872 177.752 20.2985 177.856 20.1242C178.544 19.5966 178.632 19.357 179.041 18.79C179.117 18.8855 179.194 18.9801 179.27 19.0756ZM107.754 18.402C107.771 18.1863 107.998 18.1543 108.013 18.142C108.013 18.1424 108.013 18.1427 108.013 18.1431C108.95 17.0215 107.934 18.3322 108.921 17.3761C108.801 17.5455 108.685 17.714 108.567 17.8824C108.298 18.0559 108.015 18.23 107.754 18.402ZM142.427 15.7484C142.465 15.7679 142.505 15.7857 142.544 15.8052C141.953 16.3823 141.919 16.6453 141.329 17.0265C141.695 16.6002 142.061 16.1741 142.426 15.7481C142.426 15.7482 142.427 15.7483 142.427 15.7484ZM170.8 16.6633C171.502 17.2554 172.006 17.7099 172.539 18.4194C172.54 18.42 172.54 18.4206 172.541 18.4212C172.571 18.4624 172.337 18.3497 172.369 18.4117C172.506 18.5309 172.652 18.6494 172.793 18.7683C172.762 18.8344 172.73 18.8996 172.699 18.9655C172.348 18.5868 171.997 18.208 171.644 17.828C171.67 17.9105 171.697 17.994 171.723 18.0764C171.397 17.7803 171.073 17.4852 170.748 17.1891C170.935 17.2175 171.123 17.2458 171.31 17.2726C171.14 17.0695 170.969 16.8667 170.8 16.6633ZM131.53 17.0709C131.601 17.2052 131.358 17.0681 131.49 17.2548C131.623 17.4412 131.976 17.6762 131.818 17.6965C131.591 17.4938 131.352 17.282 131.12 17.0758C131.664 17.9409 132.512 18.4977 132.324 18.7073C131.699 17.98 131.12 17.4483 130.411 16.8492C130.595 16.7185 131.386 17.2364 131.122 16.6763C131.257 16.8066 131.399 16.9427 131.528 17.0698C131.529 17.0702 131.529 17.0705 131.53 17.0709ZM200.52 26.6978C200.66 26.8464 200.877 27.0522 201.116 27.2827C200.945 27.1008 200.678 26.9805 200.414 26.9861C200.768 26.9905 201.108 27.0085 201.37 27.0561C201.546 27.0881 202.132 27.5031 202.129 27.5578C202.112 27.742 201.396 27.7671 202.163 27.8871C201.905 27.8884 201.655 27.8953 201.399 27.8986C201.445 28.0224 201.49 28.1458 201.534 28.2692C201.846 28.2505 202.158 28.2318 202.469 28.2128C202.484 28.2538 202.5 28.2948 202.515 28.3358C201.395 28.3367 202.056 28.4948 201.475 28.6422C202.01 28.7167 202.549 28.7908 203.082 28.8653C202.775 28.8562 202.412 28.8495 202.14 28.8387C202.104 29.0486 202.751 28.9986 202.862 29.0375C203.378 29.2188 201.303 29.175 200.414 29.3256C200.161 29.3575 199.966 29.3265 199.885 29.3529C200.049 29.425 200.229 29.468 200.414 29.476C200.808 29.5016 201.211 29.5268 201.606 29.5523C201.457 29.59 201.306 29.6277 201.157 29.6653C200.915 29.6221 200.667 29.5846 200.414 29.5512C200.012 29.5187 199.629 29.327 199.371 29.0282C198.893 28.4419 198.377 27.8436 197.861 27.219C197.767 27.1374 197.673 27.0557 197.58 26.9752C197.539 27.0678 197.497 27.1589 197.455 27.2515C197.315 27.127 197.173 27.0007 197.033 26.8762C197.644 27.046 197.1 26.5082 196.582 25.7208C197.007 25.9905 197.388 26.466 197.503 26.2919C196.2 25.2112 194.961 23.6582 193.676 22.6242C193.357 22.3674 193.172 22.5547 192.512 21.8608C192.556 21.8633 192.597 21.8302 192.638 21.8182C191.379 20.737 190.615 20.0803 189.49 18.7728C189.493 18.9101 189.495 19.0465 189.498 19.1837C189.79 19.4085 190.082 19.6332 190.372 19.8566C190.437 20.1429 190.129 19.9321 190.9 20.7012C191.532 21.3315 191.206 20.907 191.41 21.0458C191.687 21.2335 191.803 21.5255 192.103 21.7255C192.335 21.8804 192.217 21.58 192.698 22.1073C192.377 22.0228 192.048 21.9381 191.724 21.8537C191.628 21.7041 191.533 21.555 191.437 21.4051C191.593 21.4978 191.746 21.5888 191.902 21.6816C191.407 21.3005 190.94 20.9403 190.429 20.5464C190.747 20.5228 190.215 20.1189 189.941 19.885C189.513 19.5208 189.97 19.7422 189.691 19.5024C189.411 19.2628 189 19.1144 188.559 18.6173C188.887 18.7926 188.613 18.3824 188.749 18.3783C188.886 18.3743 189.397 18.8548 188.998 18.3015C188.023 17.4435 188.75 18.7053 188.088 18.1297C187.292 17.4386 187.551 16.8256 187.867 16.9535C188.115 17.054 188.7 17.6688 188.949 17.771C188.007 16.564 187.736 16.8164 187.501 16.6838C186.647 16.2027 187.593 16.1535 186.622 15.5429C186.73 15.4647 186.826 15.393 186.93 15.3187C186.777 15.1992 186.664 15.1312 186.485 14.9799C186.79 15.6472 186.4 15.2416 186.196 15.0377C185.873 14.7166 186.282 15.3019 186.174 15.2396C185.883 15.0709 185.547 14.6799 185.69 14.9827C185.628 14.8455 185.556 14.6998 185.491 14.5602C185.068 14.2307 183.797 13.7359 184.716 14.498C184.545 14.5486 184.386 14.3598 184.236 14.1634C184.224 14.1381 184.211 14.1132 184.193 14.0937C184.108 14.0126 184.069 14.1421 184.002 14.1128C183.85 14.0713 183.761 14.0673 183.739 13.9686C183.712 13.8759 183.8 13.7289 183.854 13.6339C183.613 13.7145 183.54 13.8393 183.504 13.9029C183.319 14.2001 183.678 13.9276 182.637 15.0566C182.6 15.2935 183.36 14.7482 182.875 15.3495C182.6 15.2751 182.075 15.5498 181.237 16.2716C181.202 16.3874 181.167 16.5034 181.131 16.6192C180.544 16.8839 180.594 16.4989 180.006 17.4864C180.062 16.6961 180.006 17.2219 179.151 17.7778C178.977 17.891 179.232 17.4837 178.994 17.6451C178.886 17.7183 178.723 17.996 178.457 18.173C178.327 18.2592 177.68 18.623 177.397 19.0403C177.832 18.9615 177.318 19.778 178.036 19.3549C177.509 19.8468 177.084 20.2932 176.892 20.4626C176.737 20.5913 176.712 20.5825 176.833 20.4036C176.898 20.2854 177.027 20.082 177.232 19.7721C177.025 19.9092 176.819 20.0465 176.613 20.1838C176.51 20.2482 176.399 20.287 176.29 20.3009C176.121 20.4338 175.868 20.5031 175.609 20.4528C175.65 20.3035 175.663 20.2689 175.484 20.087C175.384 19.9768 175.231 19.8276 175.005 19.6168C175.18 19.758 175.356 19.8987 175.531 20.0395C175.656 20.1296 175.802 20.167 175.939 20.156C175.953 20.1158 175.988 20.074 175.981 20.033C175.901 20.0554 175.756 20.0453 175.628 19.9425C175.128 19.4986 174.527 18.9375 174.316 18.7801C174.01 18.5514 174.516 19.0788 174.401 19.0396C173.448 18.7091 173.729 18.5303 173.215 18.1232C172.913 17.8845 173.524 18.5642 173.366 18.4331C172.78 17.9462 172.697 17.532 172.223 17.0545C172.298 17.3173 172.371 17.5802 172.441 17.8399C171.947 17.3362 171.392 16.7794 170.898 16.346C170.704 16.1758 170.772 16.3832 170.738 16.3581C170.566 16.2347 169.928 15.6727 169.864 15.6095C169.385 15.1319 169.469 15.0214 169.009 14.5515C169.2 14.7257 169.379 14.8898 169.565 15.0603C169.803 14.9845 170.043 14.9103 170.281 14.8342C169.837 14.3674 169.392 13.9007 168.947 13.4325C169.228 13.8187 169.511 14.2058 169.793 14.592C169.144 14.1971 168.496 13.8024 167.847 13.4078C167.653 13.0583 167.46 12.7099 167.267 12.3604C166.508 11.6432 166.341 12.1078 166.268 11.4809C166.027 11.2868 165.786 11.0927 165.545 10.8983C165.616 10.8899 165.686 10.8811 165.757 10.8726C165.47 10.6347 165.184 10.3968 164.897 10.1592C165.033 10.5747 165.156 10.9922 165.293 11.401C164.747 10.9154 164.856 10.7868 164.808 10.6803C164.683 10.3977 164.172 10.0985 164.082 9.86368C164.052 9.78394 164.636 10.2115 164.552 9.94708C164.535 9.89557 164.19 8.88733 163.681 8.53186C163.629 8.59998 163.589 8.70694 163.541 8.78979C162.924 8.2453 162.941 7.63582 163.106 7.62504C162.735 7.377 162.277 6.9298 162.118 6.96228C161.957 6.80649 161.798 6.65179 161.638 6.496C162.036 6.42693 161.334 5.81017 161.09 5.96801C161.356 6.24465 161.623 6.52186 161.89 6.79849C161.438 6.83953 162.115 7.81381 160.625 5.8678C160.425 5.41117 161.192 6.46905 161.02 6.10544C160.611 5.58468 160.128 5.19501 159.775 4.66383C159.337 4.00243 160.121 4.57172 158.697 3.4325C161.168 6.61415 158.07 3.28517 156.632 2.06826C156.63 1.98805 156.616 1.90136 156.59 1.80863C156.58 1.48851 155.851 0.971105 155.15 1.54943C154.622 1.99731 154.028 2.60025 153.393 3.32751C153.651 3.26445 154.087 2.72848 154.398 2.48089C154.71 2.23335 154.466 2.594 154.86 2.2912C155.008 2.17765 155.213 2.01134 155.434 1.83283C155.743 1.57763 156.194 1.68726 156.316 1.85103C156.246 1.83223 156.102 1.80525 155.963 1.84288C155.822 1.87699 155.71 1.96939 155.65 2.04926C155.442 2.2856 155.345 2.36922 155.603 2.00206C155.618 1.97471 155.637 1.94437 155.664 1.91241C155.629 1.92644 155.596 1.94353 155.564 1.96341C154.829 2.51653 154.387 2.78059 153.522 3.61192C153.404 4.03472 153.519 4.10968 152.643 4.99381C152.952 4.26159 151.805 5.11398 151.806 4.67496C152.481 4.10209 152.345 4.66357 152.808 4.40463C152.855 4.37781 153.383 3.74321 153.522 3.61192C152.744 4.00734 152.47 4.13902 152.603 3.55072C152.208 3.98555 151.922 4.21508 151.992 4.36152C151.859 4.40088 151.725 4.44069 151.592 4.4787C151.459 4.6149 151.341 4.74083 151.197 4.88308C151.558 4.84976 151.075 5.13105 150.878 5.47694C150.681 5.82295 151.174 5.5878 150.43 6.3356C150.717 6.12526 150.977 5.93081 151.254 5.72653C150.815 6.24976 150.375 6.77476 149.936 7.29799C150.374 7.0602 151.255 6.47666 151.367 6.62838C151.096 6.80025 150.424 7.64672 150.344 7.7334C150.036 8.06853 150.128 7.81017 150.102 7.83245C149.556 8.29744 149.168 8.74195 148.851 8.80798C148.528 9.2445 148.209 9.49851 147.809 9.90441C147.59 10.1278 147.725 10.1771 147.578 10.2893C146.599 11.0344 147.301 10.0935 145.865 11.9842C146.13 11.8472 146.395 11.7144 146.661 11.578C146.498 11.7902 146.335 12.0014 146.172 12.2136C146.034 12.3275 145.898 12.4403 145.761 12.5543C145.624 12.412 145.487 12.2688 145.35 12.1265C145.205 12.2568 145.059 12.3878 144.913 12.518C145.136 12.2678 145.359 12.0169 145.582 11.7666C145.579 11.7205 145.575 11.6757 145.572 11.6296C145.182 11.9429 144.794 12.2547 144.404 12.5677C144.446 12.623 144.488 12.6786 144.53 12.7339C143.67 13.4583 143.61 13.436 142.991 14.3225C142.41 14.9009 142.141 15.5761 141.891 15.9968C141.744 16.0898 141.596 16.1826 141.447 16.277C141.411 16.3945 141.373 16.5125 141.336 16.63C141.127 16.7265 140.916 16.8251 140.708 16.9219C140.75 17.1345 140.746 17.2184 141.387 16.6673C141.341 17.0301 140.222 18.0092 139.742 18.383C139.377 18.6665 139.604 18.1747 139.548 18.1992C139.358 18.2798 138.871 18.861 138.75 18.964C138.238 19.4006 137.912 19.7396 137.454 20.1388C137.365 20.2163 137.048 20.3656 137.026 20.3828C136.994 20.409 136.954 20.4421 136.908 20.4791C136.667 20.7138 136.202 20.7902 136.145 20.7818C135.657 20.8233 135.326 20.6036 135.143 20.4281C134.052 19.3927 135.373 21.262 133.593 19.4144C133.607 19.5245 133.616 19.6293 133.629 19.7381C133.47 19.5843 133.309 19.4287 133.149 19.275C132.99 19.0362 133.304 19.2036 132.85 18.8678C132.935 18.8344 133.02 18.801 133.106 18.7692C132.902 18.6295 132.705 18.4957 132.498 18.3519C132.427 17.871 131.467 16.8179 131.78 16.6485C131.886 16.5909 132.684 17.2204 132.394 16.7558C132.105 16.4322 132.214 16.7374 132.084 16.6176C131.146 15.7505 131.335 15.6657 130.93 15.3334C130.813 15.3341 130.692 15.3329 130.573 15.3329C130.451 15.1765 130.329 15.0197 130.206 14.8619C130.134 14.869 130.06 14.8748 129.988 14.8819C130.117 15.0156 130.262 15.1659 130.379 15.2888C130.059 15.2741 128.45 13.8026 129.167 14.2595C129.46 14.4457 129.875 14.9063 129.779 14.4486C129.473 14.1789 129.14 13.8825 128.81 13.5893C128.648 13.4428 128.446 13.3476 128.243 13.3142C128.235 13.2558 128.224 13.1976 128.209 13.1393C127.676 13.1111 127.69 13.2624 127.796 13.2967C127.907 13.3469 128.09 13.4383 128.08 13.4993C127.909 13.4873 127.734 13.5251 127.586 13.6066C127.498 13.5925 127.404 13.5875 127.303 13.6072C127.322 13.6322 127.339 13.677 127.338 13.7369C127.333 13.8461 127.256 14.0135 126.968 14.2349C126.678 14.4574 126.93 13.9024 126.463 14.4121C126.593 14.4692 126.884 14.4067 126.369 14.9812C126.218 14.9376 126.053 14.9228 125.909 14.8619C125.326 15.6328 124.867 15.7899 124.181 16.6937C123.746 17.2669 123.301 18.2027 122.597 18.1506C122.219 18.5094 122.43 18.4864 122.342 18.6167C121.927 19.2318 121.365 19.4356 121.258 19.521C120.962 19.7581 120.755 19.9558 120.567 20.1376C120.375 20.3223 120.094 20.4101 119.821 20.2756C119.824 20.3783 119.824 20.474 119.839 20.5741C120.214 20.5387 120.429 20.4001 120.63 20.2002C120.802 20.0182 121.011 19.8223 121.302 19.5508C121.102 19.7796 120.901 20.0089 120.7 20.2378C120.792 20.2595 120.884 20.2814 120.974 20.3041C122.724 18.1088 122.624 18.9076 121.06 20.6303C121.049 20.6414 121.039 20.6524 121.028 20.6632C120.705 20.7649 120.378 20.7342 120.149 20.6144C119.791 20.7249 119.417 20.6077 119.184 20.3867C118.583 19.8352 118.209 19.2957 117.426 18.4633C117.301 18.3305 116.77 17.9212 116.565 17.7222C116.568 17.726 116.571 17.7297 116.574 17.7335C116.349 17.7071 116.474 17.9229 116.405 18.0319C116.285 17.9335 116.164 17.8351 116.044 17.7368C115.867 17.4247 116.008 17.4551 115.511 16.9902C115.509 17.1224 115.505 17.2537 115.503 17.3859C114.973 16.8611 114.702 16.443 114.179 15.984C114.287 16.041 114.394 16.0969 114.502 16.1539C113.499 15.0212 114.745 15.4751 113.741 14.8652C113.724 14.7794 113.709 14.6945 113.692 14.6086C114.033 14.9326 114.374 15.2569 114.714 15.5795C114.769 15.5374 114.825 15.496 114.879 15.4526C114.509 15.1117 114.137 14.7697 113.767 14.4288C114.059 14.6555 114.353 14.8837 114.645 15.1104C114.257 14.6749 113.868 14.2391 113.479 13.8036C113.737 14.421 113.148 13.8755 113.076 14.1601C112.962 13.9871 112.855 13.8183 112.748 13.6512C112.484 13.2071 111.686 12.942 111.089 13.4878C110.815 13.7393 110.528 14.0422 110.219 14.4279C110.02 14.6771 110.266 14.6796 109.478 15.1648C109.83 15.2086 109.125 16.0988 109.416 16.1845C109.629 15.9539 109.853 15.7184 110.056 15.4924C109.746 15.6718 109.526 15.5328 109.845 15.1079C110.251 14.5656 111.067 13.9982 110.84 13.8272C110.946 13.7314 111.046 13.6383 111.147 13.5457C111.252 13.4471 111.374 13.3675 111.508 13.3125C111.42 13.4289 111.365 13.5537 111.336 13.6749C111.842 13.089 112.571 13.4296 112.633 13.766C112.637 13.7771 112.641 13.7882 112.645 13.7994C112.637 13.7922 112.629 13.785 112.621 13.7778C112.278 13.4558 111.706 13.5008 111.43 13.8288C111.196 14.0846 110.963 14.3404 110.729 14.5964C110.829 14.5131 110.931 14.4286 111.031 14.3451C110.686 14.9441 111.294 14.5781 110.441 15.4852C110.388 15.4216 110.334 15.359 110.281 15.295C110.116 15.7711 109.239 16.6473 109.698 16.5466C109.378 16.7565 109.289 16.7757 109.235 17.0222C108.401 17.5849 107.78 17.8615 107.823 17.4073C107.596 17.6998 107.37 17.9925 107.145 18.2837C107.351 18.1899 107.557 18.0957 107.763 18.0019C107.308 18.4498 106.85 18.901 106.397 19.3479C106.188 19.2249 107.215 18.4286 106.804 18.5431C106.721 18.5659 106.542 18.8728 106.462 18.9198C105.607 19.411 106.795 18.4858 106.457 18.545C105.411 19.5048 105.98 18.4689 104.795 20.0463C104.711 20.0348 104.622 20.025 104.541 20.0111C104.523 20.0284 104.507 20.0452 104.491 20.0615C104.341 20.2081 104.251 20.2655 104.156 20.3301C104.061 20.3861 103.94 20.4548 103.701 20.3903C103.587 20.3565 103.489 20.2572 103.426 20.1446C103.283 19.9188 103.134 19.6784 102.872 19.5805C102.798 19.5536 103.045 20.2658 102.047 19.2478C101.273 18.4577 101.763 18.6188 101.398 18.1378C101.033 17.6565 99.8377 16.9167 99.811 16.3731C99.9984 16.6289 100.262 16.9296 100.48 17.2036C100.63 17.2533 100.777 17.3009 100.926 17.3495C100.299 16.8522 99.7944 16.1945 99.296 15.9361C98.7294 15.0024 97.7202 14.3338 97.74 14.7681C98.0168 14.9852 97.8385 14.6262 98.1239 15.0267C98.1107 15.1101 98.0997 15.1952 98.0865 15.2787C97.5085 14.689 97.1017 14.2848 97.5152 14.4038C97.4281 14.3098 97.3419 14.2166 97.2549 14.1225C97.1321 14.2128 97.0108 14.3054 96.888 14.3957C96.7679 14.2996 96.6474 14.2029 96.5273 14.1068C96.4305 13.9632 96.3337 13.819 96.2358 13.6738C96.568 13.6687 96.8521 13.9417 96.0246 12.9257C95.9636 12.9812 95.9016 13.0353 95.8407 13.0908C95.1431 12.2451 95.2638 12.0836 94.2897 11.12C95.2352 11.6611 95.2834 12.4263 95.6864 12.0179C95.8463 12.231 96.0073 12.446 96.1672 12.6592C96.2544 12.6287 96.3415 12.5979 96.4273 12.5661C95.3949 11.5958 93.3445 10.3193 92.9306 9.39221C92.8182 9.34245 92.7096 9.28828 92.5935 9.23951C92.0915 8.42781 91.4602 8.49181 90.9942 7.62528C90.9464 7.53554 91.4169 7.35276 90.5378 6.49712C90.517 6.56117 90.4568 6.64387 90.4208 6.71498C90.2591 6.50114 90.0995 6.28708 89.9397 6.074C89.8667 6.07943 89.7921 6.08319 89.7188 6.08891C90.0239 6.42445 90.3278 6.75934 90.6329 7.09488C90.3533 6.84219 90.072 6.5878 89.7924 6.33511C90.0755 6.74644 90.2315 6.90375 89.9195 6.79713C89.612 6.50188 89.3036 6.2066 88.9961 5.91135C88.9387 5.90662 88.8813 5.90241 88.8239 5.89768C88.8915 6.12207 88.9622 6.34621 89.0285 6.57178C88.8382 6.34766 88.6509 6.1349 88.4699 5.92921C88.2284 5.63018 87.7556 5.59375 87.4244 5.82352C87.2815 5.92628 87.1376 6.02177 86.991 6.10861C86.8623 6.18527 87.1233 5.71982 86.5156 6.51186C86.4507 6.46855 86.3879 6.4434 86.3257 6.40552C85.6205 7.41403 85.2937 7.65026 84.2909 8.43415C84.9715 7.95785 84.3889 8.40754 84.2963 8.60959C84.2331 8.74825 84.6215 8.3487 84.6165 8.43276C84.6111 8.51657 84.2575 9.18689 84.7143 8.76824C85.4628 7.37049 86.1432 7.46627 87.3658 5.93168C87.1954 6.18573 87.0237 6.44141 86.8533 6.69546C86.9816 6.6239 87.0968 6.56017 87.235 6.48225C86.4026 7.18762 86.8178 6.85493 86.552 7.2209C86.2858 7.58722 85.7535 8.20452 85.3821 8.60347C85.2651 8.72912 85.3202 8.52834 85.0396 8.7954C84.8484 8.97721 84.4467 9.59483 84.2018 9.58525C84.0419 9.57945 84.6326 8.53256 83.501 9.66523C83.2067 9.79712 83.7747 9.27954 83.7766 9.25808C83.7787 9.06282 83.0101 9.68618 82.7622 10.0816C82.7425 10.114 83.0718 9.93529 82.8251 10.241C82.2401 10.9671 81.7753 11.2593 81.2341 11.5669C81.3251 11.7499 80.9371 12.4651 80.1999 13.101C80.204 13.1753 80.2101 13.2484 80.2144 13.323C80.3003 13.1956 80.3864 13.0686 80.4722 12.9412C80.613 12.8496 80.7541 12.7443 80.8966 12.6598C80.2398 13.3839 80.331 13.6704 80.0689 14.0706C79.1719 15.4396 79.3594 14.2537 79.4777 13.9633C79.6599 13.8509 79.8412 13.7473 80.0238 13.6379C79.9598 13.6064 79.8953 13.5748 79.8324 13.5417C78.1378 15.2392 79.2644 13.4902 78.3148 14.2625C78.3279 14.7188 77.7182 15.3738 76.7638 16.0303C76.6758 16.1206 76.5866 16.2104 76.4988 16.3011C76.5182 16.3502 76.5708 16.4023 76.5691 16.4491C75.6385 17.4593 75.1041 17.2707 74.9779 17.3283C74.4179 17.5845 74.3103 18.1125 74.1917 18.2347C73.6923 18.7488 73.4517 18.8027 73.0093 19.3252C72.5338 19.8874 72.9601 19.6042 72.8664 19.8262C72.8314 19.9083 72.7269 20.042 72.6132 20.1839C72.502 20.3331 72.3198 20.438 72.2082 20.5005C72.2837 20.4215 72.3472 20.3308 72.3799 20.2414C72.0449 20.3698 71.7189 20.2419 71.5504 20.0203C71.3604 19.7966 71.1561 19.567 70.9175 19.3169C69.9125 18.9435 69.8587 17.8244 69.6645 18.4942C70.2134 19.1022 70.4877 19.4749 70.6871 19.8944C70.2934 19.5288 69.8997 19.1625 69.5059 18.7968C69.4426 18.6386 69.4101 18.5138 69.3273 18.3344C68.9429 18.1514 68.3282 17.4503 68.0405 17.2216C66.6924 16.1504 66.8949 16.6963 66.0793 15.3036C66.9033 16.0713 67.0422 15.9299 67.8121 16.7384C67.7419 16.468 67.3201 16.0877 67.6996 16.2271C66.9065 15.4932 67.0462 15.8472 66.6539 15.6451C66.3156 15.4708 65.7949 14.9593 65.7175 15.095C65.7233 14.9837 65.7392 14.8861 65.7451 14.775C65.3912 14.4219 65.0375 14.0685 64.6838 13.7153C64.5475 13.5785 64.3695 13.4845 64.1798 13.4494C64.3797 13.4275 64.6047 13.4725 64.8062 13.5929C64.8961 13.6424 64.986 13.692 65.0759 13.7416C65.0163 13.6618 64.9567 13.5819 64.897 13.5021C64.7968 13.3757 64.6688 13.2652 64.5215 13.1822C64.069 13.0407 63.491 13.1397 63.1251 13.5242C62.0046 14.6849 60.6022 15.8065 61.2465 15.9197C60.6752 16.5215 60.5419 16.5349 60.1326 16.7633C60.1337 16.8348 60.1298 16.8991 60.135 16.9746C59.7187 17.315 59.5645 17.7417 59.1953 18.04C58.8264 18.3386 58.6149 18.2928 58.7825 18.5578C58.5042 18.7119 58.2378 18.8753 57.9652 19.0325C57.8847 19.2113 57.8038 19.3894 57.7243 19.5666C57.4958 19.7435 57.267 19.9211 57.0386 20.098C57.037 20.1619 56.9591 20.2753 56.8433 20.414C56.6855 20.6052 56.3822 20.7754 56.0635 20.7979C55.7442 20.8283 55.4376 20.7181 55.2401 20.6113C55.1913 20.5515 55.1598 20.4905 55.1396 20.431C55.0465 20.0568 55.2317 19.7164 54.4883 19.0832C54.4217 19.1904 54.355 19.297 54.2883 19.4042C54.1268 19.2063 53.9648 19.0082 53.8018 18.8089C53.8194 18.7698 53.8384 18.732 53.856 18.6929C53.9391 18.7935 54.021 18.8929 54.1038 18.9939C54.0721 18.8661 54.0417 18.7402 54.0114 18.6138C53.6659 18.4106 53.3201 18.2071 52.9733 18.0025C53.2911 18.428 53.6089 18.8536 53.9267 19.279C53.3966 18.8765 53.1357 18.4884 52.6591 18.154C52.4264 17.6813 52.6258 17.7424 52.8992 17.7554C52.7571 17.6355 52.6137 17.5137 52.4716 17.3937C52.6883 17.3499 52.5442 17.0507 53.2998 17.8273C53.2843 17.7375 53.2659 17.6484 53.2532 17.5584C53.1217 17.4386 53.0716 17.3257 52.9195 17.2022C52.5045 16.8657 51.9877 16.8064 51.9332 16.9123C51.905 16.9682 52.3558 17.2583 52.2816 17.3028C52.1001 17.411 51.3153 16.4962 52.3955 17.8673C51.8965 17.5527 51.8752 17.3923 51.4531 16.917C51.44 17.0004 51.4261 17.0825 51.4116 17.1645C51.2258 16.9342 51.0397 16.7037 50.8538 16.4734C51.391 16.5147 49.9501 14.8876 51.5479 16.0516C51.1509 15.6324 50.7554 15.2145 50.3604 14.7961C50.4696 14.8544 50.5787 14.913 50.6879 14.9713C50.8582 15.1686 51.0276 15.3645 51.1983 15.5615C51.0286 15.2988 50.8583 15.0359 50.6887 14.7732C50.1201 14.3201 49.8312 14.2085 49.4879 14.0841C50.0025 14.7586 49.9174 14.4552 50.4024 14.8968C50.3168 14.9499 50.2745 15.0351 50.1611 15.0674C50.0654 14.6844 49.18 14.008 48.9919 13.834C48.8881 13.7379 48.822 13.6689 48.7811 13.618C48.5451 13.3864 48.9637 13.4885 48.4936 13.2237C48.0336 13.0185 47.4532 13.2032 47.1103 13.5094C47.0023 13.5949 46.8899 13.6644 46.7709 13.7079C46.8548 13.7809 46.96 13.838 47.0531 13.8878C46.5044 14.4879 46.5264 14.2807 46.4549 14.3281C45.3088 15.0796 44.9606 15.761 43.8955 16.8665C44.0576 16.7529 44.2188 16.6356 44.3808 16.5192C43.7286 17.5045 44.2292 16.902 44.995 16.2461C44.3121 16.8958 44.0723 17.4191 43.6441 17.9316C43.2159 18.444 42.3366 19.1776 41.9851 19.4156C42.5682 18.6499 43.3558 17.9827 44.0794 17.2088C43.9143 17.214 43.764 17.2291 43.5884 17.2292C43.3007 17.8522 42.9247 18.004 42.7524 18.1318C42.2467 18.507 42.4044 18.6371 41.9834 18.7485C42.0475 18.7909 42.1002 18.8278 42.1607 18.8667C41.2289 19.754 40.1537 20.641 39.7584 21.4296C39.5764 21.3558 39.4124 21.2733 39.2197 21.2049C38.9309 21.6864 38.5025 21.9176 38.2006 22.2644C37.9002 22.61 38.1265 22.5904 37.7866 23.0099C37.7236 23.0875 37.5126 23.1692 37.3873 23.3899C37.2606 23.6125 36.973 24.6134 36.5844 24.3789C36.2572 24.7031 35.9376 24.9999 35.6134 25.3136C35.9067 24.9852 36.2006 24.6573 36.4925 24.3302C36.1521 24.5196 35.8136 24.7075 35.4732 24.8969C35.5068 24.998 35.5414 25.1004 35.5754 25.1993C34.9438 25.9949 34.3159 26.4026 33.6216 27.149C33.5057 27.2737 33.9226 27.123 33.355 27.6228C32.9798 27.9531 32.5711 28.1296 32.1023 28.5014C31.9646 28.6004 31.7971 28.6753 31.5858 28.6918C31.4875 28.6968 31.3847 28.7048 31.2768 28.7162C31.2118 28.7232 30.831 28.9923 30.3703 28.806C30.2655 28.7638 30.7067 28.7013 30.4661 28.6459C30.2252 28.5904 29.1507 28.5448 29.0666 28.4127C29.0781 28.4595 29.1451 28.5079 29.1776 28.5555C28.9942 28.5779 28.8089 28.6003 28.6235 28.6222C28.6063 28.5398 28.5878 28.4573 28.5706 28.3754C27.5155 28.567 26.9703 28.8797 25.407 28.7762C25.8465 28.8959 26.2863 29.016 26.7239 29.1356C26.8444 29.0516 26.965 28.967 27.0835 28.8829C27.804 28.9164 28.5264 28.9497 29.2469 28.9833C29.3654 28.8876 29.4818 28.7923 29.6003 28.6966C29.7914 28.7091 29.9806 28.7211 30.1717 28.7335C30.1239 28.8026 30.0758 28.8714 30.0261 28.9405C30.4044 28.9236 30.7833 28.9062 31.1597 28.8893C30.3933 29.2973 29.0194 28.8546 29.1185 29.1959C28.9485 29.1429 28.7783 29.0896 28.6082 29.0362C28.5337 29.2017 28.1879 29.1541 27.5785 29.128C27.718 29.2096 27.8721 29.29 28.0002 29.3724C27.4077 29.2573 26.3566 29.2685 25.7431 29.2242C25.4736 29.2048 25.7428 29.0848 25.6626 29.0707C25.2517 28.997 24.4662 29.2063 24.3019 29.1898C23.3195 29.0912 22.6811 28.6943 21.6088 28.9559C22.7155 29.0205 22.1134 28.9932 22.5072 29.1385C22.6304 29.1841 24.0601 29.2791 22.2699 29.2369C22.06 29.2316 18.8115 28.9574 19.8793 28.7472C19.3537 28.8142 18.9422 28.8918 18.4605 28.963C17.2831 28.4091 17.6906 28.9294 18.0327 29.2159C17.8397 29.2171 17.656 29.2201 17.4572 29.2201C17.8797 28.9191 15.7276 28.9004 14.9975 29.0523C14.7528 29.1028 15.4369 29.1992 14.8712 29.2447C14.6018 29.2236 14.2962 29.1963 14.0115 29.1727C14.4243 29.3631 13.6141 29.4365 13.6255 29.6302C13.1076 29.4576 12.7114 29.0917 12.996 28.8934C12.568 28.9737 12.1377 29.0539 11.7096 29.1346C11.9084 29.1806 12.1097 29.2261 12.3085 29.2721C10.9094 29.1504 9.1104 29.4273 8.81796 29.0204C8.63257 29.0233 8.4452 29.0258 8.2598 29.0287C8.20246 29.0974 8.14704 29.1662 8.0897 29.235C7.25081 29.1754 6.41381 29.1154 5.57492 29.0558C6.32188 29.0131 6.49969 28.9153 7.28302 28.9947C6.98115 28.9157 6.67367 28.8362 6.37753 28.7572C5.19825 28.97 5.03737 29.1098 3.26181 29.0465C3.18153 29.0436 1.83996 28.8651 1.79409 28.8478C1.58393 28.7683 1.90295 28.6528 1.80937 28.6127C1.54942 28.5001 -0.0301437 28.2173 0.000438177 28.1747C0.386539 27.6514 5.70104 27.6445 7.13839 27.6176C15.3558 27.4638 23.4735 27.5082 31.5858 27.5683C31.4765 27.5699 31.3699 27.6167 31.2954 27.6945C35.8146 23.2427 40.3369 18.7963 44.8327 14.2617C44.9397 14.1533 44.8381 14.1457 44.8817 14.0974C45.1531 13.7986 45.5182 13.6037 45.6271 13.5018C45.8596 13.2838 45.6569 13.3292 45.8214 13.1646C45.9796 13.0065 46.1374 12.8497 46.2948 12.6939C47.1957 11.7577 48.8246 11.7812 49.6955 12.7036C50.8194 13.8535 51.921 14.9928 53.0963 16.1496C53.208 16.2596 53.0319 16.2094 53.2377 16.3928C53.3442 16.4872 53.7553 16.7052 53.9835 16.9305C54.7804 17.7175 55.4147 18.4137 56.2514 19.2474C56.2633 19.2592 56.2752 19.2712 56.2874 19.2833C56.166 19.1454 55.8731 19.1184 55.7177 19.2884C55.8959 19.1118 56.069 18.9397 56.2248 18.783C56.4498 18.5568 56.6406 18.2776 56.862 18.0532C57.1762 17.7349 57.2012 17.889 57.2554 17.8459C57.4932 17.6567 57.4245 17.5289 57.6296 17.3285C58.0113 16.9561 58.0972 17.0014 58.5701 16.5174C58.9079 16.1714 59.6387 15.337 60.0546 14.8906C60.7867 14.2613 61.5898 13.464 62.3161 12.7152C63.164 11.8316 64.584 11.8157 65.4231 12.4503C65.5316 12.5278 65.6258 12.6094 65.7078 12.6913C66.1637 13.1454 66.1437 13.2843 66.3552 13.4951C67.1569 14.2934 67.8814 14.7832 68.6366 15.5307C69.6387 16.523 70.4449 17.4843 71.4054 18.456C71.5612 18.6135 71.6094 18.4934 71.7652 18.6449C71.9492 18.8238 72.1499 19.018 72.3542 19.2165C72.1649 19.0025 71.7966 19.0279 71.6411 19.2118C71.6802 19.1738 71.7185 19.137 71.7557 19.1015C72.3337 18.5499 72.6642 18.4637 73.1921 17.8861C73.3468 17.7167 73.2871 17.562 73.5449 17.2767C73.9571 16.8213 74.5272 16.4401 74.8405 16.148C75.2694 15.7471 74.7995 15.9988 75.3736 15.4539C75.3973 15.4315 75.559 15.4258 75.6754 15.302C76.0149 14.9414 75.9188 14.9147 76.4368 14.4083C76.4868 14.36 77.2403 13.7551 77.3081 13.6879C77.7066 13.2917 78.5326 12.5178 78.752 12.2668C79.5365 11.3699 78.7573 11.9144 79.7269 11.4541C79.9794 11.077 80.2285 10.7016 80.5016 10.3073C80.3354 10.5865 81.3208 9.76409 81.3791 9.6953C81.8621 9.12741 81.45 9.34131 82.1326 8.69149C81.4817 9.80025 83.0216 7.86147 83.4037 7.46772C84.3627 6.47906 85.2988 5.55985 86.2411 4.64014C87.158 3.69034 88.8325 3.69165 89.7455 4.65359C90.2313 5.15019 90.7249 5.65159 91.236 6.16194C91.865 6.78978 92.7556 7.58355 93.4193 8.24958C93.5742 8.40462 93.4029 8.34169 93.5382 8.47928C93.6734 8.61615 93.5833 8.40438 93.7354 8.56293C94.6806 9.5503 95.323 10.4222 96.3516 11.164C96.374 11.2278 96.3562 11.2428 96.4048 11.3369C97.2577 11.9329 98.48 13.5008 98.9807 14.0489C99.764 14.9059 100.06 15.0286 100.639 15.642C101.403 16.4533 102.417 17.806 102.168 16.9976C102.718 17.5293 103.24 18.0472 103.76 18.6192C103.818 18.6829 103.705 18.7122 103.728 18.738C103.872 18.9023 103.986 18.8887 104.093 18.9898C104.383 19.2641 103.846 18.88 104.269 19.2609C104.277 19.2674 104.284 19.2737 104.291 19.2799C104.23 19.2181 104.162 18.9759 103.762 19.1247C103.717 19.1484 103.675 19.1795 103.642 19.2126C105.766 17.0822 108.004 14.8561 110.238 12.6369C111.159 11.6758 112.845 11.6812 113.759 12.6406C114.812 13.7013 115.86 14.7565 116.892 15.7935C117.142 16.0442 117.046 15.8107 117.355 16.1287C118.142 16.9377 119.336 18.2625 120.294 19.2763C120.127 19.1332 119.92 19.1558 119.794 19.2272C119.762 19.2449 119.734 19.2647 119.712 19.2831C120.426 18.5199 120.189 18.5767 120.698 17.9895C120.803 17.8678 120.767 18.0182 120.871 17.9164C121.567 17.231 122.48 16.4972 123.053 15.9511C123.432 15.5901 123.312 15.5295 123.562 15.2664C123.935 14.8745 124.42 14.5721 124.627 14.3709C125.273 13.742 125.748 13.2074 126.269 12.6676C126.909 12.0014 128.007 11.725 128.963 12.159C128.862 12.0858 128.793 12.0346 128.699 11.9783C129.106 12.0952 129.486 12.3218 129.781 12.6185C130.72 13.5633 131.658 14.5072 132.597 15.4522C132.565 15.384 132.535 15.3174 132.504 15.2489C133.738 16.5036 133.4 16.5583 133.705 16.0334C133.811 16.1093 133.924 16.1883 134.023 16.2613C133.774 16.4402 134.371 17.3497 135.274 18.3623C135.341 18.4367 136.021 18.6996 135.723 18.8947C135.906 18.9574 136.021 18.9891 136.178 19.0402C136.215 19.1203 136.252 19.2005 136.29 19.2808C136.181 19.2768 136.079 19.3186 136.031 19.3871C136.005 19.3669 135.973 19.3523 135.933 19.3479C135.907 19.2846 135.893 19.2143 135.85 19.1582C135.797 19.175 135.736 19.2123 135.691 19.2618C136.245 18.7278 137.054 17.9989 137.38 17.6621C138.362 16.6492 139.247 15.5031 140.164 14.8684C140.527 14.4761 140.057 14.7566 140.631 14.2066C140.743 14.1911 140.849 14.1774 140.964 14.1606C141.209 13.4868 141.435 13.5213 142.11 12.9367C142.566 12.5414 142.792 12.2102 143.208 11.8151C143.313 11.715 143.362 11.7925 143.43 11.7202C143.659 11.4783 144.244 10.7201 144.408 10.5516C145.89 9.02326 147.193 7.73961 148.65 6.32885C148.807 6.17712 148.545 6.31477 148.707 6.15792C148.968 5.90549 148.912 6.1519 149.065 6.00795C149.493 5.60588 149.395 5.50208 149.968 4.9185C151.296 3.56599 152.812 2.11824 154.289 0.688006C155.196 -0.247237 156.829 -0.216522 157.696 0.703066C157.928 0.939778 158.159 1.1739 158.388 1.40444C158.45 1.46661 158.505 1.40393 158.573 1.47092C159.017 1.90852 159.383 2.43411 159.784 2.83318C160.448 3.49561 161.03 3.9115 161.685 4.56729C162.966 5.84882 164.068 7.03598 165.384 8.35604C166.46 9.43661 167.405 10.3654 168.587 11.5483C171.14 14.1027 173.765 16.6369 176.384 19.1869C176.187 18.9729 175.817 18.9606 175.602 19.1731C177.776 16.9494 179.964 14.7387 182.19 12.5895C182.38 12.4024 182.602 12.2425 182.844 12.1222C183.283 11.9268 183.132 12.0846 183.265 12.0314C183.909 11.8282 184.3 11.8842 184.555 11.9299C184.811 11.9875 184.954 12.0727 185.115 12.2712C185.357 12.3908 185.554 12.5335 185.718 12.6809C186.096 12.9749 186.361 13.0867 186.85 13.5884C187.16 13.9072 186.754 13.8437 187.375 14.2877C187.936 14.6886 187.499 14.0641 188.833 15.5898C188.868 15.6303 188.95 15.9211 189.274 16.1912C189.6 16.4629 189.329 16.0424 190.07 16.7388C191.811 18.3742 193.857 20.6011 195.848 22.5356C195.972 22.6569 197.213 23.7855 197.472 23.9935C197.975 24.396 197.958 24.2238 198.565 24.7924C199.033 25.2319 199.32 25.6946 199.872 26.2109C199.936 26.2709 200.13 26.2846 200.52 26.6978ZM96.8438 14.5365C96.6442 14.5145 96.1174 14.6412 95.5467 13.8717C95.4926 13.7988 96.0602 13.917 95.7258 13.5111C96.1117 13.8496 96.4721 14.1946 96.8441 14.5362C96.844 14.5363 96.8439 14.5364 96.8438 14.5365ZM202.901 29.9466C202.192 29.9234 201.48 29.9004 200.771 29.8773C201.261 29.8214 201.751 29.7656 202.238 29.7093C202.46 29.7883 202.679 29.8675 202.901 29.9466ZM139.217 18.8176C139.217 18.8171 139.218 18.8166 139.218 18.8161C138.733 19.3854 138.248 19.955 137.763 20.5243C137.788 20.4378 137.812 20.3511 137.837 20.2647C138.204 19.7996 138.571 19.3344 138.937 18.8707C139.031 18.8531 139.124 18.8352 139.217 18.8176ZM143.053 14.3248C143.426 14.0251 143.406 14.1697 143.652 14.0451C143.652 14.045 143.652 14.0449 143.651 14.0448C143.716 14.0117 143.957 13.7979 144.048 13.7123C143.976 13.7058 143.896 13.7093 143.822 13.7058C144.513 12.8263 146.384 11.6256 144.531 13.7486C144.511 13.6697 144.491 13.5924 144.471 13.5135C143.497 14.5153 142.289 15.51 143.053 14.3248ZM88.7582 6.73406C88.5067 6.56319 88.2991 6.42028 88.1148 6.28425C87.9971 6.29385 88.0045 6.31539 87.9181 6.31716C87.7663 6.44777 87.5939 6.59017 87.3935 6.75159C87.4923 6.56144 87.5912 6.37128 87.6901 6.18113C87.7097 6.17002 87.7292 6.15892 87.7488 6.14783C87.8479 6.13362 87.9289 6.17062 87.9756 6.22451C87.9757 6.22449 87.9758 6.22447 87.976 6.22446C87.9753 6.15479 87.9848 6.08434 88.0032 6.01537C88.1046 6.03054 88.1873 6.08342 88.2414 6.15769C88.4138 6.34995 88.5862 6.5422 88.7582 6.73406ZM175.217 20.7823C175.283 21.0356 175.381 21.1401 175.326 21.1433C175.279 21.1422 175.077 21.0595 174.791 20.7792C174.7 20.6866 174.58 20.5731 174.419 20.4435C174.161 20.2362 174.332 20.519 174.178 20.3838C173.346 19.654 173.499 19.3761 173.785 19.4383C174.183 19.8232 174.585 20.2122 174.978 20.5928C175.05 20.6634 175.13 20.7267 175.215 20.7807C175.216 20.7813 175.217 20.7818 175.217 20.7823ZM196.066 25.5425C196.066 25.543 196.067 25.5435 196.067 25.5439C196.009 25.6426 195.673 25.3489 195.954 25.7783C195.684 25.5079 195.415 25.2371 195.143 24.9654C195.23 25.0377 195.319 25.112 195.406 25.1844C195.362 25.0871 195.319 24.9894 195.276 24.8922C195.09 24.8864 195.053 24.7448 194.799 24.4309C194.781 24.6056 194.763 24.78 194.745 24.9547C194.444 24.5963 194.142 24.2366 193.841 23.8783C193.861 23.8499 193.881 23.8215 193.902 23.7932C193.746 23.6999 193.592 23.6082 193.437 23.5149C193.432 23.4522 193.428 23.3909 193.423 23.3282C193.251 23.2001 193.079 23.0719 192.907 22.9441C192.931 22.8283 193.292 23.1285 192.688 22.5604C192.94 22.6681 193.191 22.7757 193.444 22.8848C194.318 23.7705 195.192 24.6565 196.066 25.5425ZM168.923 14.7312C169.906 15.6868 169.582 15.4647 169.198 15.3996C169.107 15.1773 169.014 14.9535 168.923 14.7312ZM117.927 19.4516C117.537 19.2791 117.147 19.1043 116.755 18.9212C116.121 18.4088 115.746 17.6376 116.255 17.9911C116.867 18.417 117.304 19.0632 117.927 19.4516ZM105.16 20.4615C105.911 19.8107 105.381 20.5994 105.298 20.8328C105.288 20.835 105.279 20.8374 105.269 20.84C104.843 21.0456 104.193 21.4634 103.274 21.035C103.962 21.3973 104.82 20.9596 105.038 20.6089C105.09 20.5382 105.131 20.486 105.159 20.4611C105.16 20.4612 105.16 20.4613 105.16 20.4615ZM129.695 15.4635C129.979 15.7412 130.289 15.9904 130.503 16.2785C130.324 16.3065 129.915 15.7095 130.121 16.2228C129.939 16.0458 129.756 15.8684 129.575 15.6929C129.752 15.7425 129.647 15.5424 129.695 15.4646C129.695 15.4642 129.695 15.4639 129.695 15.4635ZM159.412 5.46487C158.984 4.7905 158.826 4.73861 158.186 4.26831C158.208 4.08994 159.038 4.58458 159.489 4.96257C159.463 5.12944 159.437 5.29665 159.412 5.46487ZM23.7243 29.6675C23.9116 29.4871 25.293 29.4636 25.9794 29.5169C25.8977 29.5437 25.8156 29.5708 25.7339 29.598C25.0649 29.6212 24.3933 29.6444 23.7243 29.6675ZM102.891 20.7543C103.008 20.8717 103.14 20.9654 103.274 21.035C103.122 20.9624 102.99 20.8631 102.891 20.7543ZM73.5397 19.2175C73.6504 18.8662 72.9233 19.5125 73.8042 18.7258C73.8041 18.7257 73.804 18.7255 73.8038 18.7254C74.3863 18.205 74.5163 18.0916 75.0366 17.5901C75.0072 17.9285 74.026 19.0202 75.4864 17.6236C75.5053 17.6049 75.3759 17.5504 75.6167 17.3348C75.6911 17.2682 75.992 17.1182 76.3569 16.7973C76.4747 16.6935 77.3308 15.8839 76.1971 17.0206C76.3386 17.0946 76.3866 17.2646 76.4939 17.3664C76.0811 17.8399 75.5296 17.9695 75.066 18.4434C74.3782 19.1477 74.2373 19.7152 73.8236 19.5691C74.3401 18.9151 75.3435 17.9085 75.6428 17.9457C76.2111 17.3815 76.2358 17.081 75.711 17.4694C73.842 19.5117 74.9695 17.8016 73.3672 19.624C73.3858 19.6832 73.3573 19.7955 73.4046 19.8214C72.745 20.2071 73.5003 19.3429 73.5397 19.2175ZM77.9267 15.4257C77.671 15.8458 77.4172 16.2655 77.1632 16.6846C77.0292 16.5505 77.0944 16.2447 77.5514 15.6366C77.6761 15.5669 77.8022 15.4957 77.9267 15.4257ZM48.2467 13.7541C48.1638 13.8303 48.0407 13.9025 47.9917 14.0045C47.9784 13.9807 47.8225 13.948 47.6673 14.0664C46.951 14.6975 45.9509 15.6137 46.7829 14.6965C46.8697 14.6008 47.2279 14.3045 47.5789 13.978C47.7917 13.7819 48.0829 13.7931 48.2467 13.7541ZM163.35 9.18376C163.113 8.84836 162.876 8.51403 162.64 8.17997C163.11 8.58793 163.581 8.99545 164.052 9.40282C163.818 9.32937 163.585 9.25722 163.35 9.18376ZM113.391 14.6596C113.509 14.7833 113.007 14.4816 113.499 14.9426C113.086 14.6553 112.703 14.3803 112.302 14.0973C112.299 14.0961 112.296 14.0948 112.293 14.0937C112.294 14.0014 112.264 13.8997 112.198 13.8069C112.117 13.8251 112.044 13.8595 111.988 13.9039C112.02 13.8056 112.067 13.7117 112.14 13.6238C112.321 13.7231 112.412 13.8209 112.496 13.9034C112.767 14.1787 113.025 14.2772 113.391 14.6596ZM131.669 16.3975C131.624 16.6529 130.687 15.8948 131.497 16.7524C131.24 16.6929 130.934 16.4904 130.438 16.0113C130.397 15.8953 130.356 15.7796 130.316 15.6636C130.204 15.7537 130.041 15.6657 129.695 15.4635C129.695 15.4632 129.695 15.4628 129.694 15.4624C128.945 14.728 129.023 14.7387 129.011 14.3944C129.703 15.2733 129.878 15.1451 130.503 15.5902C130.933 15.8958 131.384 16.4038 131.669 16.3975ZM50.7847 16.204C50.1027 15.7755 50.4828 16.392 49.6323 15.2722C49.728 15.3035 49.8237 15.3354 49.9194 15.3667C50.2082 15.6455 50.4966 15.9247 50.7847 16.204ZM133.895 19.6525C134.064 19.3566 133.722 18.6529 133.255 18.9418C133.687 19.5283 133.652 19.0652 133.895 19.6525ZM105.035 19.8585C106.026 18.8895 106.103 19.3371 105.831 19.8709C105.721 19.8854 105.611 19.8997 105.503 19.9131C105.353 20.1064 105.203 20.2998 105.053 20.4928C105.047 20.2815 105.041 20.0698 105.035 19.8585ZM151.989 5.25824C151.406 6.17297 152.889 4.54229 152.47 5.16896C152.135 5.66942 151.418 6.05252 151.521 5.7396C151.663 5.59205 151.822 5.42902 151.987 5.25968C151.988 5.2592 151.988 5.25872 151.989 5.25824ZM147.703 9.63855C148.004 9.69293 147.775 9.81846 148.334 9.195C148.494 9.01698 149.903 7.74112 149.193 8.15777C148.713 8.63746 148.204 9.1417 147.703 9.63855ZM93.2381 10.6505C93.3063 10.5643 94.5096 11.4284 94.5999 11.6035C94.6 11.6034 94.6001 11.6033 94.6002 11.6032C94.8427 12.0769 93.7359 11.0029 94.0502 11.6346C93.1424 10.4476 92.4914 10.4719 93.0093 10.1C93.6458 10.6974 93.262 10.497 93.2381 10.6505ZM5.58613 29.1534C5.58545 29.1534 5.58477 29.1534 5.58409 29.1534C5.68226 29.1585 6.49118 29.3188 6.39281 29.3743C5.42004 29.3267 5.5934 29.2212 4.68777 29.3946C4.63812 29.3388 4.59559 29.2846 4.54212 29.2284C4.90146 29.1952 5.10064 29.1282 5.58613 29.1534ZM45.5394 15.5719C45.772 15.299 46.3169 14.9215 46.5998 14.6286C46.0049 15.8663 44.6102 16.6616 45.5394 15.5719ZM186.578 16.0769C186.577 16.0763 186.577 16.0757 186.576 16.0751C186.576 16.0751 186.577 16.0753 186.577 16.0753C186.577 16.0758 186.578 16.0764 186.578 16.0769ZM65.7154 15.2124C65.7036 15.1589 65.7033 15.1224 65.7126 15.0999C65.7141 15.0984 65.7156 15.0969 65.7171 15.0954C65.7152 15.1325 65.7142 15.171 65.7154 15.2124ZM91.0664 8.52539C90.7435 7.98714 92.3492 9.25041 92.7722 9.75514C92.6906 9.77188 92.641 9.81138 92.509 9.79225C92.2618 9.29055 91.1198 8.61516 91.0664 8.52539ZM125.116 16.2635C123.98 17.3945 125.03 15.4936 125.43 15.772C125.434 15.7809 125.145 16.2336 125.116 16.2635ZM100.053 17.4231C100.471 17.5832 99.9244 16.9685 100.83 17.9191C100.851 18.0064 100.872 18.0939 100.892 18.1812C100.613 17.9285 100.333 17.6758 100.053 17.4231ZM117.548 17.8113C116.049 16.4558 114.558 15.2174 115.132 16.5021C115.252 16.5987 115.372 16.6972 115.491 16.7938C115.681 16.6368 115.985 17.1299 116.563 17.719C116.715 17.7334 117.054 18.041 117.173 18.0433C117.404 18.0477 117.111 17.5965 117.548 17.8113ZM178.878 17.9489C178.885 18.0015 178.892 18.0536 178.898 18.1059C178.706 18.365 178.513 18.6245 178.321 18.8836C178.3 18.7904 178.28 18.6971 178.26 18.6039C178.466 18.3857 178.671 18.1684 178.877 17.9502C178.877 17.9498 178.878 17.9493 178.878 17.9489ZM78.952 13.6695C79.1477 14.1245 79.5409 13.6116 80.2953 12.5281C79.8481 12.908 79.3992 13.2896 78.952 13.6695ZM140.802 15.7254C140.924 15.7881 141.045 15.851 141.169 15.9124C141.561 15.3282 141.364 15.3129 141.008 15.4244C140.939 15.5252 140.871 15.6245 140.802 15.7254ZM147.79 8.65811C147.569 8.84121 147.747 8.81258 147.724 8.83224C147.173 9.30525 147.066 9.34316 146.494 10.0278C146.436 10.1245 146.381 10.2208 146.325 10.318C146.809 10.2212 146.914 9.90464 147.643 9.40363C147.466 9.44801 147.289 9.49184 147.111 9.53592C147.467 9.20811 147.821 8.88153 148.177 8.55372C148.197 8.49269 148.218 8.43176 148.238 8.37072C148.09 8.46598 147.935 8.56187 147.79 8.65811ZM181.572 15.4229C181.913 15.098 182.254 14.772 182.595 14.4471C182.559 14.3872 182.523 14.3275 182.487 14.2676C182.183 14.6523 181.877 15.0383 181.572 15.4229ZM72.2082 20.5005C72.1788 20.5316 72.1471 20.5612 72.1169 20.5892C72.1168 20.5591 72.1548 20.5322 72.2082 20.5005ZM4.34554 28.7833C3.81237 28.7361 3.04404 28.7671 2.4592 28.7572C2.50518 28.9265 3.99163 28.8797 4.5136 28.9823C4.59748 28.9519 4.57092 28.8032 4.34554 28.7833ZM106.401 18.5135C106.436 18.3592 106.471 18.2053 106.505 18.0524C106.739 17.8304 106.975 17.6083 107.211 17.385C107.169 17.3293 107.127 17.2734 107.084 17.2177C106.136 18.2933 106.228 17.919 105.588 18.2811C105.86 18.3579 106.129 18.4364 106.401 18.5135ZM192.754 21.1293C191.99 20.4312 191.669 20.2336 191.934 20.7925C192.226 21.0169 192.519 21.2428 192.811 21.4672C192.791 21.3541 192.772 21.241 192.754 21.1293ZM58.2405 18.4565C57.6835 19.1232 57.4765 18.9365 56.9884 19.6445C57.3449 19.3605 57.7018 19.077 58.057 18.7944C58.1175 18.6826 58.18 18.5684 58.2405 18.4565ZM89.9878 5.60387C89.888 5.43208 89.6172 5.3072 89.3122 5.08685C88.8381 4.69279 88.0947 4.39435 87.163 4.64399C86.9538 4.80591 86.8305 4.97383 86.7396 5.13871C86.7102 5.23204 86.6824 5.32362 86.6464 5.42404C86.4835 5.43414 86.3079 5.45502 86.1496 5.46165C86.1491 5.46213 86.1486 5.46261 86.1482 5.46309C85.5157 6.14705 86.0383 5.81612 86.1045 5.91207C86.1311 5.95266 85.5865 6.38497 85.8123 6.30547C86.09 6.20701 86.6342 5.64056 86.9798 5.37883C87.1739 5.22006 87.3422 5.18455 87.3699 5.23754C87.2651 5.28016 87.15 5.35107 87.0479 5.44693C86.6817 5.78163 86.2924 6.25731 86.5419 6.17659C86.7206 6.11891 86.9337 5.85201 87.1704 5.56944C87.4026 5.28115 87.845 5.13546 88.1442 5.24405C87.801 5.09935 87.7986 5.05209 88.0484 5.02383C88.2896 4.9977 88.7362 5.17519 88.928 5.47111C89.034 5.63769 89.1062 5.79511 89.0923 5.88288C89.7872 6.34146 89.5182 5.95065 88.9978 5.40131C88.8361 5.23165 88.6076 5.09114 88.3534 5.02859C88.8068 5.07625 88.737 5.03868 88.4908 4.91857C88.2446 4.80174 87.8198 4.799 87.6796 4.75175C88.0107 4.63348 88.7501 4.68611 89.2288 5.17029C89.7915 5.69712 90.3442 6.21835 89.9878 5.60387ZM123.015 17.1313C122.538 17.6272 121.695 18.3052 121.484 18.7599C121.361 19.0248 122.177 18.3175 121.763 18.9543C122.226 18.4693 122.291 18.3176 122.113 18.3013C122.209 18.1815 122.307 18.0607 122.404 17.9412C122.473 17.9102 122.543 17.8777 122.612 17.8467C122.628 17.7499 122.646 17.653 122.661 17.5575C122.784 17.4506 122.908 17.3424 123.031 17.2358C123.024 17.2022 123.03 17.1616 123.015 17.1313ZM40.0714 20.6378C40.2053 20.5015 40.338 20.3665 40.4716 20.2299C40.433 20.2211 40.3906 20.2141 40.3491 20.2068C40.3176 20.1997 40.286 20.1927 40.2545 20.1857C40.4017 20.1762 41.1599 19.647 41.3575 19.3023C41.4569 19.1291 41.0157 19.3083 41.5708 18.7075C41.1587 19.1331 40.7885 19.539 40.393 19.9568C40.3905 19.8814 40.3862 19.807 40.3838 19.7315C40.3835 19.7317 40.3832 19.7319 40.3829 19.7321C40.239 19.8584 40.0931 19.9859 39.9492 20.1123C39.9896 20.2879 40.0309 20.4622 40.0714 20.6378ZM140.223 15.9387C139.838 16.4759 139.724 16.6699 140.065 16.5758C140.065 16.5754 140.066 16.575 140.067 16.5746C140.183 16.3482 140.3 16.1218 140.417 15.8954C140.353 15.9095 140.289 15.9233 140.223 15.9387ZM68.4753 16.5779C67.0263 16.0672 69.5205 17.9862 69.2602 17.4062C69.2486 17.38 68.5154 16.7216 68.4753 16.5779ZM104.711 19.8942C104.976 19.6214 105.242 19.3484 105.508 19.0743C105.389 19.0788 105.268 19.085 105.148 19.0895C105.002 19.3575 104.856 19.6262 104.711 19.8942ZM189.784 17.7329C189.629 17.321 188.949 16.5477 188.454 16.3327C188.624 16.5356 188.795 16.7386 188.965 16.9415C188.596 16.605 188.23 16.2741 187.859 15.934C187.661 16.0945 188.174 16.3999 188.741 17.0657C188.829 17.1691 189.216 18.0018 189.594 18.0446C189.671 18.0525 189.046 17.3801 189.597 17.7307C189.408 17.5256 189.236 17.3572 189.054 17.1664C189.083 17.1101 189.112 17.0539 189.14 16.9963C189.355 17.2423 189.569 17.4869 189.784 17.7329ZM120.253 19.9149C120.084 20.023 119.958 20.0145 119.867 20.0404C119.774 20.0604 119.703 20.0997 119.595 20.1343C119.854 20.3006 120.209 20.2555 120.406 20.057C120.351 20.0129 120.301 19.965 120.253 19.9149ZM182.429 13.4385C182.042 13.7837 182.302 13.7301 182.174 13.897C181.691 14.5276 181.238 14.8336 180.734 15.4298C180.75 15.3734 180.765 15.3213 180.781 15.2668C180.781 15.2673 180.78 15.2678 180.78 15.2683C178.089 17.7856 179.69 16.6516 181.211 15.0553C181.285 15.0571 181.359 15.0605 181.433 15.062C182.064 14.2977 182.642 13.5901 182.429 13.4385ZM76.5857 15.4848C76.5319 15.4905 76.6321 15.0853 76.2292 15.631C76.0762 16.2293 76.5818 15.5027 76.8217 15.4341C76.7147 15.5839 76.6041 15.736 76.4985 15.8844C77.3291 15.1797 77.3881 15.0147 76.9456 15.1317C76.9147 15.1408 76.6394 15.4789 76.5857 15.4848ZM71.9564 19.7641C71.8979 19.9295 71.9374 20.0318 72.0524 20.044C72.1649 20.0583 72.2809 19.9531 72.2927 19.8633C72.3484 19.7627 72.3705 19.6866 72.3377 19.6706C72.2946 19.7112 72.2602 19.7547 72.2282 19.7989C72.2146 19.8396 72.1954 19.8904 72.1409 19.8886C72.0612 19.8812 72.025 19.7815 71.9564 19.7641ZM100.544 16.5558C100.518 16.526 100.37 16.1029 100.291 16.2392C100.388 16.8475 101.263 17.3938 101.228 17.1804C100.988 16.9498 100.793 16.8313 100.545 16.5555C100.545 16.5556 100.545 16.5557 100.544 16.5558ZM194.27 22.0648C194.266 22.0421 193.61 21.2753 193.467 21.2349C193.333 21.2172 193.233 21.2417 193.117 21.245C193.564 21.5813 194.315 22.417 194.269 22.0633C194.269 22.0638 194.27 22.0643 194.27 22.0648Z" fill="#A1A1A1"/>
<path d="M185.331 16.597C185.63 17.1511 184.289 15.6436 185.044 16.7796C184.834 16.5953 184.623 16.4102 184.413 16.2259C184.433 16.1053 184.452 15.9837 184.473 15.8632C184.758 16.1072 185.044 16.3513 185.331 16.5967C185.331 16.5968 185.331 16.5969 185.331 16.597ZM186.576 16.0751C186.132 16.0336 185.307 15.3163 185.954 16.3349C186.09 16.332 186.226 16.3308 186.362 16.3279C186.597 16.6707 186.835 17.0152 187.071 17.3576C187.201 17.4353 187.331 17.5128 187.461 17.5907C187.474 17.8432 187.485 18.0948 187.497 18.3475C187.397 18.2123 187.295 18.0753 187.195 17.9401C186.633 17.5727 186.193 17.1857 185.544 16.5728C185.571 16.6566 185.598 16.7403 185.625 16.8241C185.353 16.4555 185.081 16.087 184.811 15.7198C185.135 15.9494 185.497 16.2063 185.798 16.4188C185.576 15.8199 184.746 15.2001 184.33 14.8622C184.093 14.6696 183.991 14.5623 183.922 14.4775C183.944 14.4763 183.96 14.4551 183.978 14.4925C183.983 14.5018 183.968 14.6021 184.004 14.6044C184.046 14.6076 184.111 14.5806 184.14 14.5387C183.574 15.0714 183.004 15.5377 183.395 14.9044C183.588 14.7186 183.771 14.5326 183.948 14.3468C183.959 14.3098 184.029 14.2569 184.104 14.2955C184.501 14.6568 184.893 15.0279 185.277 15.4511C185.207 15.0027 185.787 15.4545 186.576 16.0751ZM167.018 13.7224C167.413 13.9332 167.992 14.5867 168.346 15.0681C168.346 15.0686 168.347 15.069 168.347 15.0695C168.425 15.1755 168.511 15.5057 168.216 15.2007C167.735 14.7031 167.691 14.2743 167.304 14.1481C167.213 14.0089 167.114 13.8667 167.018 13.7224ZM165.944 12.6707C165.691 12.3236 165.972 12.3148 166.308 12.7297C166.308 12.7296 166.308 12.7295 166.308 12.7294C166.449 12.9025 166.027 12.7092 166.705 13.1553C166.729 13.3605 166.76 13.5558 166.786 13.7568C166.647 13.6206 166.519 13.4974 166.374 13.3542C166.619 13.3027 166.197 13.0174 165.944 12.6707ZM182.969 15.4932C183.056 15.6741 183.253 15.4757 183.682 15.232C183.36 15.5452 183.038 15.8581 182.717 16.1699C182.802 15.9438 182.885 15.7194 182.969 15.4932ZM189.235 19.7392C189.236 19.7397 189.236 19.7402 189.237 19.7406C189.362 19.8236 189.487 19.9068 189.611 19.9888C189.625 20.0987 189.639 20.2076 189.654 20.3175C190.066 20.6403 190.48 20.9651 190.893 21.2877C190.703 21.3888 190.066 20.7052 189.601 20.4435C189.104 19.859 188.929 19.5139 189.017 19.3553C189.089 19.4828 189.161 19.6104 189.235 19.7392ZM98.9789 16.3208C98.8155 16.2383 98.6537 16.1573 98.4904 16.0747C98.6354 16.2566 98.7835 16.4329 98.927 16.619C99.5337 16.8745 99.4188 17.0704 99.9944 17.6244C101.759 19.3223 101.573 18.5902 102.737 20.5533C101.5 19.2789 101.795 19.9491 100.893 19.3368C100.847 19.07 101.845 19.5717 101.388 19.012C100.396 18.2528 99.4456 17.5193 98.3988 16.6229C98.4081 16.6703 98.4173 16.7176 98.4266 16.765C98.5927 16.9071 98.7576 17.0478 98.9237 17.1899C98.7065 17.0746 98.4935 16.9626 98.273 16.8452C98.6022 16.9431 97.9934 16.4635 98.1991 16.4035C98.2906 16.3768 98.6131 16.5353 98.8116 16.6207C98.4761 16.2237 98.1287 15.82 97.7883 15.4199C98.0272 15.5647 98.2661 15.7092 98.5037 15.8526C98.6618 16.0078 98.8184 16.1622 98.9765 16.3175C98.9773 16.3186 98.9781 16.3197 98.9789 16.3208ZM13.3209 30.1067C13.9785 29.9122 15.1733 29.88 15.8021 30.0965C14.9745 30.0998 14.1485 30.1034 13.3209 30.1067ZM189.083 19.2181C189.113 19.2942 189.141 19.3683 189.17 19.4443C188.894 19.2552 188.617 19.0645 188.342 18.8754C188.365 18.7632 188.387 18.65 188.408 18.5368C188.633 18.7633 188.859 18.9916 189.083 19.2181ZM173.532 19.8169C173.706 19.9828 173.719 20.0001 173.921 20.2215C173.921 20.2212 173.92 20.2209 173.92 20.2206C174.001 20.3081 174.663 21.0499 174.533 21.0237C174.183 20.6759 173.812 20.3031 173.456 19.9462C173.479 19.9012 173.511 19.8649 173.532 19.8169ZM179.27 19.0756C179.271 19.0752 179.272 19.0749 179.272 19.0745C179.407 18.9555 179.543 18.8514 179.677 18.7233C179.288 19.2768 179.066 19.2043 178.679 19.6743C178.293 20.1445 178.109 20.4903 177.544 20.6525C177.649 20.4872 177.752 20.2985 177.856 20.1242C178.544 19.5966 178.632 19.357 179.041 18.79C179.117 18.8855 179.194 18.9801 179.27 19.0756ZM107.754 18.402C107.771 18.1863 107.998 18.1543 108.013 18.142C108.013 18.1424 108.013 18.1427 108.013 18.1431C108.95 17.0215 107.934 18.3322 108.921 17.3761C108.801 17.5455 108.685 17.714 108.567 17.8824C108.298 18.0559 108.015 18.23 107.754 18.402ZM142.427 15.7484C142.465 15.7679 142.505 15.7857 142.544 15.8052C141.953 16.3823 141.919 16.6453 141.329 17.0265C141.695 16.6002 142.061 16.1741 142.426 15.7481C142.426 15.7482 142.427 15.7483 142.427 15.7484ZM170.8 16.6633C171.502 17.2554 172.006 17.7099 172.539 18.4194C172.54 18.42 172.54 18.4206 172.541 18.4212C172.571 18.4624 172.337 18.3497 172.369 18.4117C172.506 18.5309 172.652 18.6494 172.793 18.7683C172.762 18.8344 172.73 18.8996 172.699 18.9655C172.348 18.5868 171.997 18.208 171.644 17.828C171.67 17.9105 171.697 17.994 171.723 18.0764C171.397 17.7803 171.073 17.4852 170.748 17.1891C170.935 17.2175 171.123 17.2458 171.31 17.2726C171.14 17.0695 170.969 16.8667 170.8 16.6633ZM131.53 17.0709C131.601 17.2052 131.358 17.0681 131.49 17.2548C131.623 17.4412 131.976 17.6762 131.818 17.6965C131.591 17.4938 131.352 17.282 131.12 17.0758C131.664 17.9409 132.512 18.4977 132.324 18.7073C131.699 17.98 131.12 17.4483 130.411 16.8492C130.595 16.7185 131.386 17.2364 131.122 16.6763C131.257 16.8066 131.399 16.9427 131.528 17.0698C131.529 17.0702 131.529 17.0705 131.53 17.0709ZM200.52 26.6978C200.66 26.8464 200.877 27.0522 201.116 27.2827C200.945 27.1008 200.678 26.9805 200.414 26.9861C200.768 26.9905 201.108 27.0085 201.37 27.0561C201.546 27.0881 202.132 27.5031 202.129 27.5578C202.112 27.742 201.396 27.7671 202.163 27.8871C201.905 27.8884 201.655 27.8953 201.399 27.8986C201.445 28.0224 201.49 28.1458 201.534 28.2692C201.846 28.2505 202.158 28.2318 202.469 28.2128C202.484 28.2538 202.5 28.2948 202.515 28.3358C201.395 28.3367 202.056 28.4948 201.475 28.6422C202.01 28.7167 202.549 28.7908 203.082 28.8653C202.775 28.8562 202.412 28.8495 202.14 28.8387C202.104 29.0486 202.751 28.9986 202.862 29.0375C203.378 29.2188 201.303 29.175 200.414 29.3256C200.161 29.3575 199.966 29.3265 199.885 29.3529C200.049 29.425 200.229 29.468 200.414 29.476C200.808 29.5016 201.211 29.5268 201.606 29.5523C201.457 29.59 201.306 29.6277 201.157 29.6653C200.915 29.6221 200.667 29.5846 200.414 29.5512C200.012 29.5187 199.629 29.327 199.371 29.0282C198.893 28.4419 198.377 27.8436 197.861 27.219C197.767 27.1374 197.673 27.0557 197.58 26.9752C197.539 27.0678 197.497 27.1589 197.455 27.2515C197.315 27.127 197.173 27.0007 197.033 26.8762C197.644 27.046 197.1 26.5082 196.582 25.7208C197.007 25.9905 197.388 26.466 197.503 26.2919C196.2 25.2112 194.961 23.6582 193.676 22.6242C193.357 22.3674 193.172 22.5547 192.512 21.8608C192.556 21.8633 192.597 21.8302 192.638 21.8182C191.379 20.737 190.615 20.0803 189.49 18.7728C189.493 18.9101 189.495 19.0465 189.498 19.1837C189.79 19.4085 190.082 19.6332 190.372 19.8566C190.437 20.1429 190.129 19.9321 190.9 20.7012C191.532 21.3315 191.206 20.907 191.41 21.0458C191.687 21.2335 191.803 21.5255 192.103 21.7255C192.335 21.8804 192.217 21.58 192.698 22.1073C192.377 22.0228 192.048 21.9381 191.724 21.8537C191.628 21.7041 191.533 21.555 191.437 21.4051C191.593 21.4978 191.746 21.5888 191.902 21.6816C191.407 21.3005 190.94 20.9403 190.429 20.5464C190.747 20.5228 190.215 20.1189 189.941 19.885C189.513 19.5208 189.97 19.7422 189.691 19.5024C189.411 19.2628 189 19.1144 188.559 18.6173C188.887 18.7926 188.613 18.3824 188.749 18.3783C188.886 18.3743 189.397 18.8548 188.998 18.3015C188.023 17.4435 188.75 18.7053 188.088 18.1297C187.292 17.4386 187.551 16.8256 187.867 16.9535C188.115 17.054 188.7 17.6688 188.949 17.771C188.007 16.564 187.736 16.8164 187.501 16.6838C186.647 16.2027 187.593 16.1535 186.622 15.5429C186.73 15.4647 186.826 15.393 186.93 15.3187C186.777 15.1992 186.664 15.1312 186.485 14.9799C186.79 15.6472 186.4 15.2416 186.196 15.0377C185.873 14.7166 186.282 15.3019 186.174 15.2396C185.883 15.0709 185.547 14.6799 185.69 14.9827C185.628 14.8455 185.556 14.6998 185.491 14.5602C185.068 14.2307 183.797 13.7359 184.716 14.498C184.545 14.5486 184.386 14.3598 184.236 14.1634C184.224 14.1381 184.211 14.1132 184.193 14.0937C184.108 14.0126 184.069 14.1421 184.002 14.1128C183.85 14.0713 183.761 14.0673 183.739 13.9686C183.712 13.8759 183.8 13.7289 183.854 13.6339C183.613 13.7145 183.54 13.8393 183.504 13.9029C183.319 14.2001 183.678 13.9276 182.637 15.0566C182.6 15.2935 183.36 14.7482 182.875 15.3495C182.6 15.2751 182.075 15.5498 181.237 16.2716C181.202 16.3874 181.167 16.5034 181.131 16.6192C180.544 16.8839 180.594 16.4989 180.006 17.4864C180.062 16.6961 180.006 17.2219 179.151 17.7778C178.977 17.891 179.232 17.4837 178.994 17.6451C178.886 17.7183 178.723 17.996 178.457 18.173C178.327 18.2592 177.68 18.623 177.397 19.0403C177.832 18.9615 177.318 19.778 178.036 19.3549C177.509 19.8468 177.084 20.2932 176.892 20.4626C176.737 20.5913 176.712 20.5825 176.833 20.4036C176.898 20.2854 177.027 20.082 177.232 19.7721C177.025 19.9092 176.819 20.0465 176.613 20.1838C176.51 20.2482 176.399 20.287 176.29 20.3009C176.121 20.4338 175.868 20.5031 175.609 20.4528C175.65 20.3035 175.663 20.2689 175.484 20.087C175.384 19.9768 175.231 19.8276 175.005 19.6168C175.18 19.758 175.356 19.8987 175.531 20.0395C175.656 20.1296 175.802 20.167 175.939 20.156C175.953 20.1158 175.988 20.074 175.981 20.033C175.901 20.0554 175.756 20.0453 175.628 19.9425C175.128 19.4986 174.527 18.9375 174.316 18.7801C174.01 18.5514 174.516 19.0788 174.401 19.0396C173.448 18.7091 173.729 18.5303 173.215 18.1232C172.913 17.8845 173.524 18.5642 173.366 18.4331C172.78 17.9462 172.697 17.532 172.223 17.0545C172.298 17.3173 172.371 17.5802 172.441 17.8399C171.947 17.3362 171.392 16.7794 170.898 16.346C170.704 16.1758 170.772 16.3832 170.738 16.3581C170.566 16.2347 169.928 15.6727 169.864 15.6095C169.385 15.1319 169.469 15.0214 169.009 14.5515C169.2 14.7257 169.379 14.8898 169.565 15.0603C169.803 14.9845 170.043 14.9103 170.281 14.8342C169.837 14.3674 169.392 13.9007 168.947 13.4325C169.228 13.8187 169.511 14.2058 169.793 14.592C169.144 14.1971 168.496 13.8024 167.847 13.4078C167.653 13.0583 167.46 12.7099 167.267 12.3604C166.508 11.6432 166.341 12.1078 166.268 11.4809C166.027 11.2868 165.786 11.0927 165.545 10.8983C165.616 10.8899 165.686 10.8811 165.757 10.8726C165.47 10.6347 165.184 10.3968 164.897 10.1592C165.033 10.5747 165.156 10.9922 165.293 11.401C164.747 10.9154 164.856 10.7868 164.808 10.6803C164.683 10.3977 164.172 10.0985 164.082 9.86368C164.052 9.78394 164.636 10.2115 164.552 9.94708C164.535 9.89557 164.19 8.88733 163.681 8.53186C163.629 8.59998 163.589 8.70694 163.541 8.78979C162.924 8.2453 162.941 7.63582 163.106 7.62504C162.735 7.377 162.277 6.9298 162.118 6.96228C161.957 6.80649 161.798 6.65179 161.638 6.496C162.036 6.42693 161.334 5.81017 161.09 5.96801C161.356 6.24465 161.623 6.52186 161.89 6.79849C161.438 6.83953 162.115 7.81381 160.625 5.8678C160.425 5.41117 161.192 6.46905 161.02 6.10544C160.611 5.58468 160.128 5.19501 159.775 4.66383C159.337 4.00243 160.121 4.57172 158.697 3.4325C161.168 6.61415 158.07 3.28517 156.632 2.06826C156.63 1.98805 156.616 1.90136 156.59 1.80863C156.58 1.48851 155.851 0.971105 155.15 1.54943C154.622 1.99731 154.028 2.60025 153.393 3.32751C153.651 3.26445 154.087 2.72848 154.398 2.48089C154.71 2.23335 154.466 2.594 154.86 2.2912C155.008 2.17765 155.213 2.01134 155.434 1.83283C155.743 1.57763 156.194 1.68726 156.316 1.85103C156.246 1.83223 156.102 1.80525 155.963 1.84288C155.822 1.87699 155.71 1.96939 155.65 2.04926C155.442 2.2856 155.345 2.36922 155.603 2.00206C155.618 1.97471 155.637 1.94437 155.664 1.91241C155.629 1.92644 155.596 1.94353 155.564 1.96341C154.829 2.51653 154.387 2.78059 153.522 3.61192C153.404 4.03472 153.519 4.10968 152.643 4.99381C152.952 4.26159 151.805 5.11398 151.806 4.67496C152.481 4.10209 152.345 4.66357 152.808 4.40463C152.855 4.37781 153.383 3.74321 153.522 3.61192C152.744 4.00734 152.47 4.13902 152.603 3.55072C152.208 3.98555 151.922 4.21508 151.992 4.36152C151.859 4.40088 151.725 4.44069 151.592 4.4787C151.459 4.6149 151.341 4.74083 151.197 4.88308C151.558 4.84976 151.075 5.13105 150.878 5.47694C150.681 5.82295 151.174 5.5878 150.43 6.3356C150.717 6.12526 150.977 5.93081 151.254 5.72653C150.815 6.24976 150.375 6.77476 149.936 7.29799C150.374 7.0602 151.255 6.47666 151.367 6.62838C151.096 6.80025 150.424 7.64672 150.344 7.7334C150.036 8.06853 150.128 7.81017 150.102 7.83245C149.556 8.29744 149.168 8.74195 148.851 8.80798C148.528 9.2445 148.209 9.49851 147.809 9.90441C147.59 10.1278 147.725 10.1771 147.578 10.2893C146.599 11.0344 147.301 10.0935 145.865 11.9842C146.13 11.8472 146.395 11.7144 146.661 11.578C146.498 11.7902 146.335 12.0014 146.172 12.2136C146.034 12.3275 145.898 12.4403 145.761 12.5543C145.624 12.412 145.487 12.2688 145.35 12.1265C145.205 12.2568 145.059 12.3878 144.913 12.518C145.136 12.2678 145.359 12.0169 145.582 11.7666C145.579 11.7205 145.575 11.6757 145.572 11.6296C145.182 11.9429 144.794 12.2547 144.404 12.5677C144.446 12.623 144.488 12.6786 144.53 12.7339C143.67 13.4583 143.61 13.436 142.991 14.3225C142.41 14.9009 142.141 15.5761 141.891 15.9968C141.744 16.0898 141.596 16.1826 141.447 16.277C141.411 16.3945 141.373 16.5125 141.336 16.63C141.127 16.7265 140.916 16.8251 140.708 16.9219C140.75 17.1345 140.746 17.2184 141.387 16.6673C141.341 17.0301 140.222 18.0092 139.742 18.383C139.377 18.6665 139.604 18.1747 139.548 18.1992C139.358 18.2798 138.871 18.861 138.75 18.964C138.238 19.4006 137.912 19.7396 137.454 20.1388C137.365 20.2163 137.048 20.3656 137.026 20.3828C136.994 20.409 136.954 20.4421 136.908 20.4791C136.667 20.7138 136.202 20.7902 136.145 20.7818C135.657 20.8233 135.326 20.6036 135.143 20.4281C134.052 19.3927 135.373 21.262 133.593 19.4144C133.607 19.5245 133.616 19.6293 133.629 19.7381C133.47 19.5843 133.309 19.4287 133.149 19.275C132.99 19.0362 133.304 19.2036 132.85 18.8678C132.935 18.8344 133.02 18.801 133.106 18.7692C132.902 18.6295 132.705 18.4957 132.498 18.3519C132.427 17.871 131.467 16.8179 131.78 16.6485C131.886 16.5909 132.684 17.2204 132.394 16.7558C132.105 16.4322 132.214 16.7374 132.084 16.6176C131.146 15.7505 131.335 15.6657 130.93 15.3334C130.813 15.3341 130.692 15.3329 130.573 15.3329C130.451 15.1765 130.329 15.0197 130.206 14.8619C130.134 14.869 130.06 14.8748 129.988 14.8819C130.117 15.0156 130.262 15.1659 130.379 15.2888C130.059 15.2741 128.45 13.8026 129.167 14.2595C129.46 14.4457 129.875 14.9063 129.779 14.4486C129.473 14.1789 129.14 13.8825 128.81 13.5893C128.648 13.4428 128.446 13.3476 128.243 13.3142C128.235 13.2558 128.224 13.1976 128.209 13.1393C127.676 13.1111 127.69 13.2624 127.796 13.2967C127.907 13.3469 128.09 13.4383 128.08 13.4993C127.909 13.4873 127.734 13.5251 127.586 13.6066C127.498 13.5925 127.404 13.5875 127.303 13.6072C127.322 13.6322 127.339 13.677 127.338 13.7369C127.333 13.8461 127.256 14.0135 126.968 14.2349C126.678 14.4574 126.93 13.9024 126.463 14.4121C126.593 14.4692 126.884 14.4067 126.369 14.9812C126.218 14.9376 126.053 14.9228 125.909 14.8619C125.326 15.6328 124.867 15.7899 124.181 16.6937C123.746 17.2669 123.301 18.2027 122.597 18.1506C122.219 18.5094 122.43 18.4864 122.342 18.6167C121.927 19.2318 121.365 19.4356 121.258 19.521C120.962 19.7581 120.755 19.9558 120.567 20.1376C120.375 20.3223 120.094 20.4101 119.821 20.2756C119.824 20.3783 119.824 20.474 119.839 20.5741C120.214 20.5387 120.429 20.4001 120.63 20.2002C120.802 20.0182 121.011 19.8223 121.302 19.5508C121.102 19.7796 120.901 20.0089 120.7 20.2378C120.792 20.2595 120.884 20.2814 120.974 20.3041C122.724 18.1088 122.624 18.9076 121.06 20.6303C121.049 20.6414 121.039 20.6524 121.028 20.6632C120.705 20.7649 120.378 20.7342 120.149 20.6144C119.791 20.7249 119.417 20.6077 119.184 20.3867C118.583 19.8352 118.209 19.2957 117.426 18.4633C117.301 18.3305 116.77 17.9212 116.565 17.7222C116.568 17.726 116.571 17.7297 116.574 17.7335C116.349 17.7071 116.474 17.9229 116.405 18.0319C116.285 17.9335 116.164 17.8351 116.044 17.7368C115.867 17.4247 116.008 17.4551 115.511 16.9902C115.509 17.1224 115.505 17.2537 115.503 17.3859C114.973 16.8611 114.702 16.443 114.179 15.984C114.287 16.041 114.394 16.0969 114.502 16.1539C113.499 15.0212 114.745 15.4751 113.741 14.8652C113.724 14.7794 113.709 14.6945 113.692 14.6086C114.033 14.9326 114.374 15.2569 114.714 15.5795C114.769 15.5374 114.825 15.496 114.879 15.4526C114.509 15.1117 114.137 14.7697 113.767 14.4288C114.059 14.6555 114.353 14.8837 114.645 15.1104C114.257 14.6749 113.868 14.2391 113.479 13.8036C113.737 14.421 113.148 13.8755 113.076 14.1601C112.962 13.9871 112.855 13.8183 112.748 13.6512C112.484 13.2071 111.686 12.942 111.089 13.4878C110.815 13.7393 110.528 14.0422 110.219 14.4279C110.02 14.6771 110.266 14.6796 109.478 15.1648C109.83 15.2086 109.125 16.0988 109.416 16.1845C109.629 15.9539 109.853 15.7184 110.056 15.4924C109.746 15.6718 109.526 15.5328 109.845 15.1079C110.251 14.5656 111.067 13.9982 110.84 13.8272C110.946 13.7314 111.046 13.6383 111.147 13.5457C111.252 13.4471 111.374 13.3675 111.508 13.3125C111.42 13.4289 111.365 13.5537 111.336 13.6749C111.842 13.089 112.571 13.4296 112.633 13.766C112.637 13.7771 112.641 13.7882 112.645 13.7994C112.637 13.7922 112.629 13.785 112.621 13.7778C112.278 13.4558 111.706 13.5008 111.43 13.8288C111.196 14.0846 110.963 14.3404 110.729 14.5964C110.829 14.5131 110.931 14.4286 111.031 14.3451C110.686 14.9441 111.294 14.5781 110.441 15.4852C110.388 15.4216 110.334 15.359 110.281 15.295C110.116 15.7711 109.239 16.6473 109.698 16.5466C109.378 16.7565 109.289 16.7757 109.235 17.0222C108.401 17.5849 107.78 17.8615 107.823 17.4073C107.596 17.6998 107.37 17.9925 107.145 18.2837C107.351 18.1899 107.557 18.0957 107.763 18.0019C107.308 18.4498 106.85 18.901 106.397 19.3479C106.188 19.2249 107.215 18.4286 106.804 18.5431C106.721 18.5659 106.542 18.8728 106.462 18.9198C105.607 19.411 106.795 18.4858 106.457 18.545C105.411 19.5048 105.98 18.4689 104.795 20.0463C104.711 20.0348 104.622 20.025 104.541 20.0111C104.523 20.0284 104.507 20.0452 104.491 20.0615C104.341 20.2081 104.251 20.2655 104.156 20.3301C104.061 20.3861 103.94 20.4548 103.701 20.3903C103.587 20.3565 103.489 20.2572 103.426 20.1446C103.283 19.9188 103.134 19.6784 102.872 19.5805C102.798 19.5536 103.045 20.2658 102.047 19.2478C101.273 18.4577 101.763 18.6188 101.398 18.1378C101.033 17.6565 99.8377 16.9167 99.811 16.3731C99.9984 16.6289 100.262 16.9296 100.48 17.2036C100.63 17.2533 100.777 17.3009 100.926 17.3495C100.299 16.8522 99.7944 16.1945 99.296 15.9361C98.7294 15.0024 97.7202 14.3338 97.74 14.7681C98.0168 14.9852 97.8385 14.6262 98.1239 15.0267C98.1107 15.1101 98.0997 15.1952 98.0865 15.2787C97.5085 14.689 97.1017 14.2848 97.5152 14.4038C97.4281 14.3098 97.3419 14.2166 97.2549 14.1225C97.1321 14.2128 97.0108 14.3054 96.888 14.3957C96.7679 14.2996 96.6474 14.2029 96.5273 14.1068C96.4305 13.9632 96.3337 13.819 96.2358 13.6738C96.568 13.6687 96.8521 13.9417 96.0246 12.9257C95.9636 12.9812 95.9016 13.0353 95.8407 13.0908C95.1431 12.2451 95.2638 12.0836 94.2897 11.12C95.2352 11.6611 95.2834 12.4263 95.6864 12.0179C95.8463 12.231 96.0073 12.446 96.1672 12.6592C96.2544 12.6287 96.3415 12.5979 96.4273 12.5661C95.3949 11.5958 93.3445 10.3193 92.9306 9.39221C92.8182 9.34245 92.7096 9.28828 92.5935 9.23951C92.0915 8.42781 91.4602 8.49181 90.9942 7.62528C90.9464 7.53554 91.4169 7.35276 90.5378 6.49712C90.517 6.56117 90.4568 6.64387 90.4208 6.71498C90.2591 6.50114 90.0995 6.28708 89.9397 6.074C89.8667 6.07943 89.7921 6.08319 89.7188 6.08891C90.0239 6.42445 90.3278 6.75934 90.6329 7.09488C90.3533 6.84219 90.072 6.5878 89.7924 6.33511C90.0755 6.74644 90.2315 6.90375 89.9195 6.79713C89.612 6.50188 89.3036 6.2066 88.9961 5.91135C88.9387 5.90662 88.8813 5.90241 88.8239 5.89768C88.8915 6.12207 88.9622 6.34621 89.0285 6.57178C88.8382 6.34766 88.6509 6.1349 88.4699 5.92921C88.2284 5.63018 87.7556 5.59375 87.4244 5.82352C87.2815 5.92628 87.1376 6.02177 86.991 6.10861C86.8623 6.18527 87.1233 5.71982 86.5156 6.51186C86.4507 6.46855 86.3879 6.4434 86.3257 6.40552C85.6205 7.41403 85.2937 7.65026 84.2909 8.43415C84.9715 7.95785 84.3889 8.40754 84.2963 8.60959C84.2331 8.74825 84.6215 8.3487 84.6165 8.43276C84.6111 8.51657 84.2575 9.18689 84.7143 8.76824C85.4628 7.37049 86.1432 7.46627 87.3658 5.93168C87.1954 6.18573 87.0237 6.44141 86.8533 6.69546C86.9816 6.6239 87.0968 6.56017 87.235 6.48225C86.4026 7.18762 86.8178 6.85493 86.552 7.2209C86.2858 7.58722 85.7535 8.20452 85.3821 8.60347C85.2651 8.72912 85.3202 8.52834 85.0396 8.7954C84.8484 8.97721 84.4467 9.59483 84.2018 9.58525C84.0419 9.57945 84.6326 8.53256 83.501 9.66523C83.2067 9.79712 83.7747 9.27954 83.7766 9.25808C83.7787 9.06282 83.0101 9.68618 82.7622 10.0816C82.7425 10.114 83.0718 9.93529 82.8251 10.241C82.2401 10.9671 81.7753 11.2593 81.2341 11.5669C81.3251 11.7499 80.9371 12.4651 80.1999 13.101C80.204 13.1753 80.2101 13.2484 80.2144 13.323C80.3003 13.1956 80.3864 13.0686 80.4722 12.9412C80.613 12.8496 80.7541 12.7443 80.8966 12.6598C80.2398 13.3839 80.331 13.6704 80.0689 14.0706C79.1719 15.4396 79.3594 14.2537 79.4777 13.9633C79.6599 13.8509 79.8412 13.7473 80.0238 13.6379C79.9598 13.6064 79.8953 13.5748 79.8324 13.5417C78.1378 15.2392 79.2644 13.4902 78.3148 14.2625C78.3279 14.7188 77.7182 15.3738 76.7638 16.0303C76.6758 16.1206 76.5866 16.2104 76.4988 16.3011C76.5182 16.3502 76.5708 16.4023 76.5691 16.4491C75.6385 17.4593 75.1041 17.2707 74.9779 17.3283C74.4179 17.5845 74.3103 18.1125 74.1917 18.2347C73.6923 18.7488 73.4517 18.8027 73.0093 19.3252C72.5338 19.8874 72.9601 19.6042 72.8664 19.8262C72.8314 19.9083 72.7269 20.042 72.6132 20.1839C72.502 20.3331 72.3198 20.438 72.2082 20.5005C72.2837 20.4215 72.3472 20.3308 72.3799 20.2414C72.0449 20.3698 71.7189 20.2419 71.5504 20.0203C71.3604 19.7966 71.1561 19.567 70.9175 19.3169C69.9125 18.9435 69.8587 17.8244 69.6645 18.4942C70.2134 19.1022 70.4877 19.4749 70.6871 19.8944C70.2934 19.5288 69.8997 19.1625 69.5059 18.7968C69.4426 18.6386 69.4101 18.5138 69.3273 18.3344C68.9429 18.1514 68.3282 17.4503 68.0405 17.2216C66.6924 16.1504 66.8949 16.6963 66.0793 15.3036C66.9033 16.0713 67.0422 15.9299 67.8121 16.7384C67.7419 16.468 67.3201 16.0877 67.6996 16.2271C66.9065 15.4932 67.0462 15.8472 66.6539 15.6451C66.3156 15.4708 65.7949 14.9593 65.7175 15.095C65.7233 14.9837 65.7392 14.8861 65.7451 14.775C65.3912 14.4219 65.0375 14.0685 64.6838 13.7153C64.5475 13.5785 64.3695 13.4845 64.1798 13.4494C64.3797 13.4275 64.6047 13.4725 64.8062 13.5929C64.8961 13.6424 64.986 13.692 65.0759 13.7416C65.0163 13.6618 64.9567 13.5819 64.897 13.5021C64.7968 13.3757 64.6688 13.2652 64.5215 13.1822C64.069 13.0407 63.491 13.1397 63.1251 13.5242C62.0046 14.6849 60.6022 15.8065 61.2465 15.9197C60.6752 16.5215 60.5419 16.5349 60.1326 16.7633C60.1337 16.8348 60.1298 16.8991 60.135 16.9746C59.7187 17.315 59.5645 17.7417 59.1953 18.04C58.8264 18.3386 58.6149 18.2928 58.7825 18.5578C58.5042 18.7119 58.2378 18.8753 57.9652 19.0325C57.8847 19.2113 57.8038 19.3894 57.7243 19.5666C57.4958 19.7435 57.267 19.9211 57.0386 20.098C57.037 20.1619 56.9591 20.2753 56.8433 20.414C56.6855 20.6052 56.3822 20.7754 56.0635 20.7979C55.7442 20.8283 55.4376 20.7181 55.2401 20.6113C55.1913 20.5515 55.1598 20.4905 55.1396 20.431C55.0465 20.0568 55.2317 19.7164 54.4883 19.0832C54.4217 19.1904 54.355 19.297 54.2883 19.4042C54.1268 19.2063 53.9648 19.0082 53.8018 18.8089C53.8194 18.7698 53.8384 18.732 53.856 18.6929C53.9391 18.7935 54.021 18.8929 54.1038 18.9939C54.0721 18.8661 54.0417 18.7402 54.0114 18.6138C53.6659 18.4106 53.3201 18.2071 52.9733 18.0025C53.2911 18.428 53.6089 18.8536 53.9267 19.279C53.3966 18.8765 53.1357 18.4884 52.6591 18.154C52.4264 17.6813 52.6258 17.7424 52.8992 17.7554C52.7571 17.6355 52.6137 17.5137 52.4716 17.3937C52.6883 17.3499 52.5442 17.0507 53.2998 17.8273C53.2843 17.7375 53.2659 17.6484 53.2532 17.5584C53.1217 17.4386 53.0716 17.3257 52.9195 17.2022C52.5045 16.8657 51.9877 16.8064 51.9332 16.9123C51.905 16.9682 52.3558 17.2583 52.2816 17.3028C52.1001 17.411 51.3153 16.4962 52.3955 17.8673C51.8965 17.5527 51.8752 17.3923 51.4531 16.917C51.44 17.0004 51.4261 17.0825 51.4116 17.1645C51.2258 16.9342 51.0397 16.7037 50.8538 16.4734C51.391 16.5147 49.9501 14.8876 51.5479 16.0516C51.1509 15.6324 50.7554 15.2145 50.3604 14.7961C50.4696 14.8544 50.5787 14.913 50.6879 14.9713C50.8582 15.1686 51.0276 15.3645 51.1983 15.5615C51.0286 15.2988 50.8583 15.0359 50.6887 14.7732C50.1201 14.3201 49.8312 14.2085 49.4879 14.0841C50.0025 14.7586 49.9174 14.4552 50.4024 14.8968C50.3168 14.9499 50.2745 15.0351 50.1611 15.0674C50.0654 14.6844 49.18 14.008 48.9919 13.834C48.8881 13.7379 48.822 13.6689 48.7811 13.618C48.5451 13.3864 48.9637 13.4885 48.4936 13.2237C48.0336 13.0185 47.4532 13.2032 47.1103 13.5094C47.0023 13.5949 46.8899 13.6644 46.7709 13.7079C46.8548 13.7809 46.96 13.838 47.0531 13.8878C46.5044 14.4879 46.5264 14.2807 46.4549 14.3281C45.3088 15.0796 44.9606 15.761 43.8955 16.8665C44.0576 16.7529 44.2188 16.6356 44.3808 16.5192C43.7286 17.5045 44.2292 16.902 44.995 16.2461C44.3121 16.8958 44.0723 17.4191 43.6441 17.9316C43.2159 18.444 42.3366 19.1776 41.9851 19.4156C42.5682 18.6499 43.3558 17.9827 44.0794 17.2088C43.9143 17.214 43.764 17.2291 43.5884 17.2292C43.3007 17.8522 42.9247 18.004 42.7524 18.1318C42.2467 18.507 42.4044 18.6371 41.9834 18.7485C42.0475 18.7909 42.1002 18.8278 42.1607 18.8667C41.2289 19.754 40.1537 20.641 39.7584 21.4296C39.5764 21.3558 39.4124 21.2733 39.2197 21.2049C38.9309 21.6864 38.5025 21.9176 38.2006 22.2644C37.9002 22.61 38.1265 22.5904 37.7866 23.0099C37.7236 23.0875 37.5126 23.1692 37.3873 23.3899C37.2606 23.6125 36.973 24.6134 36.5844 24.3789C36.2572 24.7031 35.9376 24.9999 35.6134 25.3136C35.9067 24.9852 36.2006 24.6573 36.4925 24.3302C36.1521 24.5196 35.8136 24.7075 35.4732 24.8969C35.5068 24.998 35.5414 25.1004 35.5754 25.1993C34.9438 25.9949 34.3159 26.4026 33.6216 27.149C33.5057 27.2737 33.9226 27.123 33.355 27.6228C32.9798 27.9531 32.5711 28.1296 32.1023 28.5014C31.9646 28.6004 31.7971 28.6753 31.5858 28.6918C31.4875 28.6968 31.3847 28.7048 31.2768 28.7162C31.2118 28.7232 30.831 28.9923 30.3703 28.806C30.2655 28.7638 30.7067 28.7013 30.4661 28.6459C30.2252 28.5904 29.1507 28.5448 29.0666 28.4127C29.0781 28.4595 29.1451 28.5079 29.1776 28.5555C28.9942 28.5779 28.8089 28.6003 28.6235 28.6222C28.6063 28.5398 28.5878 28.4573 28.5706 28.3754C27.5155 28.567 26.9703 28.8797 25.407 28.7762C25.8465 28.8959 26.2863 29.016 26.7239 29.1356C26.8444 29.0516 26.965 28.967 27.0835 28.8829C27.804 28.9164 28.5264 28.9497 29.2469 28.9833C29.3654 28.8876 29.4818 28.7923 29.6003 28.6966C29.7914 28.7091 29.9806 28.7211 30.1717 28.7335C30.1239 28.8026 30.0758 28.8714 30.0261 28.9405C30.4044 28.9236 30.7833 28.9062 31.1597 28.8893C30.3933 29.2973 29.0194 28.8546 29.1185 29.1959C28.9485 29.1429 28.7783 29.0896 28.6082 29.0362C28.5337 29.2017 28.1879 29.1541 27.5785 29.128C27.718 29.2096 27.8721 29.29 28.0002 29.3724C27.4077 29.2573 26.3566 29.2685 25.7431 29.2242C25.4736 29.2048 25.7428 29.0848 25.6626 29.0707C25.2517 28.997 24.4662 29.2063 24.3019 29.1898C23.3195 29.0912 22.6811 28.6943 21.6088 28.9559C22.7155 29.0205 22.1134 28.9932 22.5072 29.1385C22.6304 29.1841 24.0601 29.2791 22.2699 29.2369C22.06 29.2316 18.8115 28.9574 19.8793 28.7472C19.3537 28.8142 18.9422 28.8918 18.4605 28.963C17.2831 28.4091 17.6906 28.9294 18.0327 29.2159C17.8397 29.2171 17.656 29.2201 17.4572 29.2201C17.8797 28.9191 15.7276 28.9004 14.9975 29.0523C14.7528 29.1028 15.4369 29.1992 14.8712 29.2447C14.6018 29.2236 14.2962 29.1963 14.0115 29.1727C14.4243 29.3631 13.6141 29.4365 13.6255 29.6302C13.1076 29.4576 12.7114 29.0917 12.996 28.8934C12.568 28.9737 12.1377 29.0539 11.7096 29.1346C11.9084 29.1806 12.1097 29.2261 12.3085 29.2721C10.9094 29.1504 9.1104 29.4273 8.81796 29.0204C8.63257 29.0233 8.4452 29.0258 8.2598 29.0287C8.20246 29.0974 8.14704 29.1662 8.0897 29.235C7.25081 29.1754 6.41381 29.1154 5.57492 29.0558C6.32188 29.0131 6.49969 28.9153 7.28302 28.9947C6.98115 28.9157 6.67367 28.8362 6.37753 28.7572C5.19825 28.97 5.03737 29.1098 3.26181 29.0465C3.18153 29.0436 1.83996 28.8651 1.79409 28.8478C1.58393 28.7683 1.90295 28.6528 1.80937 28.6127C1.54942 28.5001 -0.0301437 28.2173 0.000438177 28.1747C0.386539 27.6514 5.70104 27.6445 7.13839 27.6176C15.3558 27.4638 23.4735 27.5082 31.5858 27.5683C31.4765 27.5699 31.3699 27.6167 31.2954 27.6945C35.8146 23.2427 40.3369 18.7963 44.8327 14.2617C44.9397 14.1533 44.8381 14.1457 44.8817 14.0974C45.1531 13.7986 45.5182 13.6037 45.6271 13.5018C45.8596 13.2838 45.6569 13.3292 45.8214 13.1646C45.9796 13.0065 46.1374 12.8497 46.2948 12.6939C47.1957 11.7577 48.8246 11.7812 49.6955 12.7036C50.8194 13.8535 51.921 14.9928 53.0963 16.1496C53.208 16.2596 53.0319 16.2094 53.2377 16.3928C53.3442 16.4872 53.7553 16.7052 53.9835 16.9305C54.7804 17.7175 55.4147 18.4137 56.2514 19.2474C56.2633 19.2592 56.2752 19.2712 56.2874 19.2833C56.166 19.1454 55.8731 19.1184 55.7177 19.2884C55.8959 19.1118 56.069 18.9397 56.2248 18.783C56.4498 18.5568 56.6406 18.2776 56.862 18.0532C57.1762 17.7349 57.2012 17.889 57.2554 17.8459C57.4932 17.6567 57.4245 17.5289 57.6296 17.3285C58.0113 16.9561 58.0972 17.0014 58.5701 16.5174C58.9079 16.1714 59.6387 15.337 60.0546 14.8906C60.7867 14.2613 61.5898 13.464 62.3161 12.7152C63.164 11.8316 64.584 11.8157 65.4231 12.4503C65.5316 12.5278 65.6258 12.6094 65.7078 12.6913C66.1637 13.1454 66.1437 13.2843 66.3552 13.4951C67.1569 14.2934 67.8814 14.7832 68.6366 15.5307C69.6387 16.523 70.4449 17.4843 71.4054 18.456C71.5612 18.6135 71.6094 18.4934 71.7652 18.6449C71.9492 18.8238 72.1499 19.018 72.3542 19.2165C72.1649 19.0025 71.7966 19.0279 71.6411 19.2118C71.6802 19.1738 71.7185 19.137 71.7557 19.1015C72.3337 18.5499 72.6642 18.4637 73.1921 17.8861C73.3468 17.7167 73.2871 17.562 73.5449 17.2767C73.9571 16.8213 74.5272 16.4401 74.8405 16.148C75.2694 15.7471 74.7995 15.9988 75.3736 15.4539C75.3973 15.4315 75.559 15.4258 75.6754 15.302C76.0149 14.9414 75.9188 14.9147 76.4368 14.4083C76.4868 14.36 77.2403 13.7551 77.3081 13.6879C77.7066 13.2917 78.5326 12.5178 78.752 12.2668C79.5365 11.3699 78.7573 11.9144 79.7269 11.4541C79.9794 11.077 80.2285 10.7016 80.5016 10.3073C80.3354 10.5865 81.3208 9.76409 81.3791 9.6953C81.8621 9.12741 81.45 9.34131 82.1326 8.69149C81.4817 9.80025 83.0216 7.86147 83.4037 7.46772C84.3627 6.47906 85.2988 5.55985 86.2411 4.64014C87.158 3.69034 88.8325 3.69165 89.7455 4.65359C90.2313 5.15019 90.7249 5.65159 91.236 6.16194C91.865 6.78978 92.7556 7.58355 93.4193 8.24958C93.5742 8.40462 93.4029 8.34169 93.5382 8.47928C93.6734 8.61615 93.5833 8.40438 93.7354 8.56293C94.6806 9.5503 95.323 10.4222 96.3516 11.164C96.374 11.2278 96.3562 11.2428 96.4048 11.3369C97.2577 11.9329 98.48 13.5008 98.9807 14.0489C99.764 14.9059 100.06 15.0286 100.639 15.642C101.403 16.4533 102.417 17.806 102.168 16.9976C102.718 17.5293 103.24 18.0472 103.76 18.6192C103.818 18.6829 103.705 18.7122 103.728 18.738C103.872 18.9023 103.986 18.8887 104.093 18.9898C104.383 19.2641 103.846 18.88 104.269 19.2609C104.277 19.2674 104.284 19.2737 104.291 19.2799C104.23 19.2181 104.162 18.9759 103.762 19.1247C103.717 19.1484 103.675 19.1795 103.642 19.2126C105.766 17.0822 108.004 14.8561 110.238 12.6369C111.159 11.6758 112.845 11.6812 113.759 12.6406C114.812 13.7013 115.86 14.7565 116.892 15.7935C117.142 16.0442 117.046 15.8107 117.355 16.1287C118.142 16.9377 119.336 18.2625 120.294 19.2763C120.127 19.1332 119.92 19.1558 119.794 19.2272C119.762 19.2449 119.734 19.2647 119.712 19.2831C120.426 18.5199 120.189 18.5767 120.698 17.9895C120.803 17.8678 120.767 18.0182 120.871 17.9164C121.567 17.231 122.48 16.4972 123.053 15.9511C123.432 15.5901 123.312 15.5295 123.562 15.2664C123.935 14.8745 124.42 14.5721 124.627 14.3709C125.273 13.742 125.748 13.2074 126.269 12.6676C126.909 12.0014 128.007 11.725 128.963 12.159C128.862 12.0858 128.793 12.0346 128.699 11.9783C129.106 12.0952 129.486 12.3218 129.781 12.6185C130.72 13.5633 131.658 14.5072 132.597 15.4522C132.565 15.384 132.535 15.3174 132.504 15.2489C133.738 16.5036 133.4 16.5583 133.705 16.0334C133.811 16.1093 133.924 16.1883 134.023 16.2613C133.774 16.4402 134.371 17.3497 135.274 18.3623C135.341 18.4367 136.021 18.6996 135.723 18.8947C135.906 18.9574 136.021 18.9891 136.178 19.0402C136.215 19.1203 136.252 19.2005 136.29 19.2808C136.181 19.2768 136.079 19.3186 136.031 19.3871C136.005 19.3669 135.973 19.3523 135.933 19.3479C135.907 19.2846 135.893 19.2143 135.85 19.1582C135.797 19.175 135.736 19.2123 135.691 19.2618C136.245 18.7278 137.054 17.9989 137.38 17.6621C138.362 16.6492 139.247 15.5031 140.164 14.8684C140.527 14.4761 140.057 14.7566 140.631 14.2066C140.743 14.1911 140.849 14.1774 140.964 14.1606C141.209 13.4868 141.435 13.5213 142.11 12.9367C142.566 12.5414 142.792 12.2102 143.208 11.8151C143.313 11.715 143.362 11.7925 143.43 11.7202C143.659 11.4783 144.244 10.7201 144.408 10.5516C145.89 9.02326 147.193 7.73961 148.65 6.32885C148.807 6.17712 148.545 6.31477 148.707 6.15792C148.968 5.90549 148.912 6.1519 149.065 6.00795C149.493 5.60588 149.395 5.50208 149.968 4.9185C151.296 3.56599 152.812 2.11824 154.289 0.688006C155.196 -0.247237 156.829 -0.216522 157.696 0.703066C157.928 0.939778 158.159 1.1739 158.388 1.40444C158.45 1.46661 158.505 1.40393 158.573 1.47092C159.017 1.90852 159.383 2.43411 159.784 2.83318C160.448 3.49561 161.03 3.9115 161.685 4.56729C162.966 5.84882 164.068 7.03598 165.384 8.35604C166.46 9.43661 167.405 10.3654 168.587 11.5483C171.14 14.1027 173.765 16.6369 176.384 19.1869C176.187 18.9729 175.817 18.9606 175.602 19.1731C177.776 16.9494 179.964 14.7387 182.19 12.5895C182.38 12.4024 182.602 12.2425 182.844 12.1222C183.283 11.9268 183.132 12.0846 183.265 12.0314C183.909 11.8282 184.3 11.8842 184.555 11.9299C184.811 11.9875 184.954 12.0727 185.115 12.2712C185.357 12.3908 185.554 12.5335 185.718 12.6809C186.096 12.9749 186.361 13.0867 186.85 13.5884C187.16 13.9072 186.754 13.8437 187.375 14.2877C187.936 14.6886 187.499 14.0641 188.833 15.5898C188.868 15.6303 188.95 15.9211 189.274 16.1912C189.6 16.4629 189.329 16.0424 190.07 16.7388C191.811 18.3742 193.857 20.6011 195.848 22.5356C195.972 22.6569 197.213 23.7855 197.472 23.9935C197.975 24.396 197.958 24.2238 198.565 24.7924C199.033 25.2319 199.32 25.6946 199.872 26.2109C199.936 26.2709 200.13 26.2846 200.52 26.6978ZM96.8438 14.5365C96.6442 14.5145 96.1174 14.6412 95.5467 13.8717C95.4926 13.7988 96.0602 13.917 95.7258 13.5111C96.1117 13.8496 96.4721 14.1946 96.8441 14.5362C96.844 14.5363 96.8439 14.5364 96.8438 14.5365ZM202.901 29.9466C202.192 29.9234 201.48 29.9004 200.771 29.8773C201.261 29.8214 201.751 29.7656 202.238 29.7093C202.46 29.7883 202.679 29.8675 202.901 29.9466ZM139.217 18.8176C139.217 18.8171 139.218 18.8166 139.218 18.8161C138.733 19.3854 138.248 19.955 137.763 20.5243C137.788 20.4378 137.812 20.3511 137.837 20.2647C138.204 19.7996 138.571 19.3344 138.937 18.8707C139.031 18.8531 139.124 18.8352 139.217 18.8176ZM143.053 14.3248C143.426 14.0251 143.406 14.1697 143.652 14.0451C143.652 14.045 143.652 14.0449 143.651 14.0448C143.716 14.0117 143.957 13.7979 144.048 13.7123C143.976 13.7058 143.896 13.7093 143.822 13.7058C144.513 12.8263 146.384 11.6256 144.531 13.7486C144.511 13.6697 144.491 13.5924 144.471 13.5135C143.497 14.5153 142.289 15.51 143.053 14.3248ZM88.7582 6.73406C88.5067 6.56319 88.2991 6.42028 88.1148 6.28425C87.9971 6.29385 88.0045 6.31539 87.9181 6.31716C87.7663 6.44777 87.5939 6.59017 87.3935 6.75159C87.4923 6.56144 87.5912 6.37128 87.6901 6.18113C87.7097 6.17002 87.7292 6.15892 87.7488 6.14783C87.8479 6.13362 87.9289 6.17062 87.9756 6.22451C87.9757 6.22449 87.9758 6.22447 87.976 6.22446C87.9753 6.15479 87.9848 6.08434 88.0032 6.01537C88.1046 6.03054 88.1873 6.08342 88.2414 6.15769C88.4138 6.34995 88.5862 6.5422 88.7582 6.73406ZM175.217 20.7823C175.283 21.0356 175.381 21.1401 175.326 21.1433C175.279 21.1422 175.077 21.0595 174.791 20.7792C174.7 20.6866 174.58 20.5731 174.419 20.4435C174.161 20.2362 174.332 20.519 174.178 20.3838C173.346 19.654 173.499 19.3761 173.785 19.4383C174.183 19.8232 174.585 20.2122 174.978 20.5928C175.05 20.6634 175.13 20.7267 175.215 20.7807C175.216 20.7813 175.217 20.7818 175.217 20.7823ZM196.066 25.5425C196.066 25.543 196.067 25.5435 196.067 25.5439C196.009 25.6426 195.673 25.3489 195.954 25.7783C195.684 25.5079 195.415 25.2371 195.143 24.9654C195.23 25.0377 195.319 25.112 195.406 25.1844C195.362 25.0871 195.319 24.9894 195.276 24.8922C195.09 24.8864 195.053 24.7448 194.799 24.4309C194.781 24.6056 194.763 24.78 194.745 24.9547C194.444 24.5963 194.142 24.2366 193.841 23.8783C193.861 23.8499 193.881 23.8215 193.902 23.7932C193.746 23.6999 193.592 23.6082 193.437 23.5149C193.432 23.4522 193.428 23.3909 193.423 23.3282C193.251 23.2001 193.079 23.0719 192.907 22.9441C192.931 22.8283 193.292 23.1285 192.688 22.5604C192.94 22.6681 193.191 22.7757 193.444 22.8848C194.318 23.7705 195.192 24.6565 196.066 25.5425ZM168.923 14.7312C169.906 15.6868 169.582 15.4647 169.198 15.3996C169.107 15.1773 169.014 14.9535 168.923 14.7312ZM117.927 19.4516C117.537 19.2791 117.147 19.1043 116.755 18.9212C116.121 18.4088 115.746 17.6376 116.255 17.9911C116.867 18.417 117.304 19.0632 117.927 19.4516ZM105.16 20.4615C105.911 19.8107 105.381 20.5994 105.298 20.8328C105.288 20.835 105.279 20.8374 105.269 20.84C104.843 21.0456 104.193 21.4634 103.274 21.035C103.962 21.3973 104.82 20.9596 105.038 20.6089C105.09 20.5382 105.131 20.486 105.159 20.4611C105.16 20.4612 105.16 20.4613 105.16 20.4615ZM129.695 15.4635C129.979 15.7412 130.289 15.9904 130.503 16.2785C130.324 16.3065 129.915 15.7095 130.121 16.2228C129.939 16.0458 129.756 15.8684 129.575 15.6929C129.752 15.7425 129.647 15.5424 129.695 15.4646C129.695 15.4642 129.695 15.4639 129.695 15.4635ZM159.412 5.46487C158.984 4.7905 158.826 4.73861 158.186 4.26831C158.208 4.08994 159.038 4.58458 159.489 4.96257C159.463 5.12944 159.437 5.29665 159.412 5.46487ZM23.7243 29.6675C23.9116 29.4871 25.293 29.4636 25.9794 29.5169C25.8977 29.5437 25.8156 29.5708 25.7339 29.598C25.0649 29.6212 24.3933 29.6444 23.7243 29.6675ZM102.891 20.7543C103.008 20.8717 103.14 20.9654 103.274 21.035C103.122 20.9624 102.99 20.8631 102.891 20.7543ZM73.5397 19.2175C73.6504 18.8662 72.9233 19.5125 73.8042 18.7258C73.8041 18.7257 73.804 18.7255 73.8038 18.7254C74.3863 18.205 74.5163 18.0916 75.0366 17.5901C75.0072 17.9285 74.026 19.0202 75.4864 17.6236C75.5053 17.6049 75.3759 17.5504 75.6167 17.3348C75.6911 17.2682 75.992 17.1182 76.3569 16.7973C76.4747 16.6935 77.3308 15.8839 76.1971 17.0206C76.3386 17.0946 76.3866 17.2646 76.4939 17.3664C76.0811 17.8399 75.5296 17.9695 75.066 18.4434C74.3782 19.1477 74.2373 19.7152 73.8236 19.5691C74.3401 18.9151 75.3435 17.9085 75.6428 17.9457C76.2111 17.3815 76.2358 17.081 75.711 17.4694C73.842 19.5117 74.9695 17.8016 73.3672 19.624C73.3858 19.6832 73.3573 19.7955 73.4046 19.8214C72.745 20.2071 73.5003 19.3429 73.5397 19.2175ZM77.9267 15.4257C77.671 15.8458 77.4172 16.2655 77.1632 16.6846C77.0292 16.5505 77.0944 16.2447 77.5514 15.6366C77.6761 15.5669 77.8022 15.4957 77.9267 15.4257ZM48.2467 13.7541C48.1638 13.8303 48.0407 13.9025 47.9917 14.0045C47.9784 13.9807 47.8225 13.948 47.6673 14.0664C46.951 14.6975 45.9509 15.6137 46.7829 14.6965C46.8697 14.6008 47.2279 14.3045 47.5789 13.978C47.7917 13.7819 48.0829 13.7931 48.2467 13.7541ZM163.35 9.18376C163.113 8.84836 162.876 8.51403 162.64 8.17997C163.11 8.58793 163.581 8.99545 164.052 9.40282C163.818 9.32937 163.585 9.25722 163.35 9.18376ZM113.391 14.6596C113.509 14.7833 113.007 14.4816 113.499 14.9426C113.086 14.6553 112.703 14.3803 112.302 14.0973C112.299 14.0961 112.296 14.0948 112.293 14.0937C112.294 14.0014 112.264 13.8997 112.198 13.8069C112.117 13.8251 112.044 13.8595 111.988 13.9039C112.02 13.8056 112.067 13.7117 112.14 13.6238C112.321 13.7231 112.412 13.8209 112.496 13.9034C112.767 14.1787 113.025 14.2772 113.391 14.6596ZM131.669 16.3975C131.624 16.6529 130.687 15.8948 131.497 16.7524C131.24 16.6929 130.934 16.4904 130.438 16.0113C130.397 15.8953 130.356 15.7796 130.316 15.6636C130.204 15.7537 130.041 15.6657 129.695 15.4635C129.695 15.4632 129.695 15.4628 129.694 15.4624C128.945 14.728 129.023 14.7387 129.011 14.3944C129.703 15.2733 129.878 15.1451 130.503 15.5902C130.933 15.8958 131.384 16.4038 131.669 16.3975ZM50.7847 16.204C50.1027 15.7755 50.4828 16.392 49.6323 15.2722C49.728 15.3035 49.8237 15.3354 49.9194 15.3667C50.2082 15.6455 50.4966 15.9247 50.7847 16.204ZM133.895 19.6525C134.064 19.3566 133.722 18.6529 133.255 18.9418C133.687 19.5283 133.652 19.0652 133.895 19.6525ZM105.035 19.8585C106.026 18.8895 106.103 19.3371 105.831 19.8709C105.721 19.8854 105.611 19.8997 105.503 19.9131C105.353 20.1064 105.203 20.2998 105.053 20.4928C105.047 20.2815 105.041 20.0698 105.035 19.8585ZM151.989 5.25824C151.406 6.17297 152.889 4.54229 152.47 5.16896C152.135 5.66942 151.418 6.05252 151.521 5.7396C151.663 5.59205 151.822 5.42902 151.987 5.25968C151.988 5.2592 151.988 5.25872 151.989 5.25824ZM147.703 9.63855C148.004 9.69293 147.775 9.81846 148.334 9.195C148.494 9.01698 149.903 7.74112 149.193 8.15777C148.713 8.63746 148.204 9.1417 147.703 9.63855ZM93.2381 10.6505C93.3063 10.5643 94.5096 11.4284 94.5999 11.6035C94.6 11.6034 94.6001 11.6033 94.6002 11.6032C94.8427 12.0769 93.7359 11.0029 94.0502 11.6346C93.1424 10.4476 92.4914 10.4719 93.0093 10.1C93.6458 10.6974 93.262 10.497 93.2381 10.6505ZM5.58613 29.1534C5.58545 29.1534 5.58477 29.1534 5.58409 29.1534C5.68226 29.1585 6.49118 29.3188 6.39281 29.3743C5.42004 29.3267 5.5934 29.2212 4.68777 29.3946C4.63812 29.3388 4.59559 29.2846 4.54212 29.2284C4.90146 29.1952 5.10064 29.1282 5.58613 29.1534ZM45.5394 15.5719C45.772 15.299 46.3169 14.9215 46.5998 14.6286C46.0049 15.8663 44.6102 16.6616 45.5394 15.5719ZM186.578 16.0769C186.577 16.0763 186.577 16.0757 186.576 16.0751C186.576 16.0751 186.577 16.0753 186.577 16.0753C186.577 16.0758 186.578 16.0764 186.578 16.0769ZM65.7154 15.2124C65.7036 15.1589 65.7033 15.1224 65.7126 15.0999C65.7141 15.0984 65.7156 15.0969 65.7171 15.0954C65.7152 15.1325 65.7142 15.171 65.7154 15.2124ZM91.0664 8.52539C90.7435 7.98714 92.3492 9.25041 92.7722 9.75514C92.6906 9.77188 92.641 9.81138 92.509 9.79225C92.2618 9.29055 91.1198 8.61516 91.0664 8.52539ZM125.116 16.2635C123.98 17.3945 125.03 15.4936 125.43 15.772C125.434 15.7809 125.145 16.2336 125.116 16.2635ZM100.053 17.4231C100.471 17.5832 99.9244 16.9685 100.83 17.9191C100.851 18.0064 100.872 18.0939 100.892 18.1812C100.613 17.9285 100.333 17.6758 100.053 17.4231ZM117.548 17.8113C116.049 16.4558 114.558 15.2174 115.132 16.5021C115.252 16.5987 115.372 16.6972 115.491 16.7938C115.681 16.6368 115.985 17.1299 116.563 17.719C116.715 17.7334 117.054 18.041 117.173 18.0433C117.404 18.0477 117.111 17.5965 117.548 17.8113ZM178.878 17.9489C178.885 18.0015 178.892 18.0536 178.898 18.1059C178.706 18.365 178.513 18.6245 178.321 18.8836C178.3 18.7904 178.28 18.6971 178.26 18.6039C178.466 18.3857 178.671 18.1684 178.877 17.9502C178.877 17.9498 178.878 17.9493 178.878 17.9489ZM78.952 13.6695C79.1477 14.1245 79.5409 13.6116 80.2953 12.5281C79.8481 12.908 79.3992 13.2896 78.952 13.6695ZM140.802 15.7254C140.924 15.7881 141.045 15.851 141.169 15.9124C141.561 15.3282 141.364 15.3129 141.008 15.4244C140.939 15.5252 140.871 15.6245 140.802 15.7254ZM147.79 8.65811C147.569 8.84121 147.747 8.81258 147.724 8.83224C147.173 9.30525 147.066 9.34316 146.494 10.0278C146.436 10.1245 146.381 10.2208 146.325 10.318C146.809 10.2212 146.914 9.90464 147.643 9.40363C147.466 9.44801 147.289 9.49184 147.111 9.53592C147.467 9.20811 147.821 8.88153 148.177 8.55372C148.197 8.49269 148.218 8.43176 148.238 8.37072C148.09 8.46598 147.935 8.56187 147.79 8.65811ZM181.572 15.4229C181.913 15.098 182.254 14.772 182.595 14.4471C182.559 14.3872 182.523 14.3275 182.487 14.2676C182.183 14.6523 181.877 15.0383 181.572 15.4229ZM72.2082 20.5005C72.1788 20.5316 72.1471 20.5612 72.1169 20.5892C72.1168 20.5591 72.1548 20.5322 72.2082 20.5005ZM4.34554 28.7833C3.81237 28.7361 3.04404 28.7671 2.4592 28.7572C2.50518 28.9265 3.99163 28.8797 4.5136 28.9823C4.59748 28.9519 4.57092 28.8032 4.34554 28.7833ZM106.401 18.5135C106.436 18.3592 106.471 18.2053 106.505 18.0524C106.739 17.8304 106.975 17.6083 107.211 17.385C107.169 17.3293 107.127 17.2734 107.084 17.2177C106.136 18.2933 106.228 17.919 105.588 18.2811C105.86 18.3579 106.129 18.4364 106.401 18.5135ZM192.754 21.1293C191.99 20.4312 191.669 20.2336 191.934 20.7925C192.226 21.0169 192.519 21.2428 192.811 21.4672C192.791 21.3541 192.772 21.241 192.754 21.1293ZM58.2405 18.4565C57.6835 19.1232 57.4765 18.9365 56.9884 19.6445C57.3449 19.3605 57.7018 19.077 58.057 18.7944C58.1175 18.6826 58.18 18.5684 58.2405 18.4565ZM89.9878 5.60387C89.888 5.43208 89.6172 5.3072 89.3122 5.08685C88.8381 4.69279 88.0947 4.39435 87.163 4.64399C86.9538 4.80591 86.8305 4.97383 86.7396 5.13871C86.7102 5.23204 86.6824 5.32362 86.6464 5.42404C86.4835 5.43414 86.3079 5.45502 86.1496 5.46165C86.1491 5.46213 86.1486 5.46261 86.1482 5.46309C85.5157 6.14705 86.0383 5.81612 86.1045 5.91207C86.1311 5.95266 85.5865 6.38497 85.8123 6.30547C86.09 6.20701 86.6342 5.64056 86.9798 5.37883C87.1739 5.22006 87.3422 5.18455 87.3699 5.23754C87.2651 5.28016 87.15 5.35107 87.0479 5.44693C86.6817 5.78163 86.2924 6.25731 86.5419 6.17659C86.7206 6.11891 86.9337 5.85201 87.1704 5.56944C87.4026 5.28115 87.845 5.13546 88.1442 5.24405C87.801 5.09935 87.7986 5.05209 88.0484 5.02383C88.2896 4.9977 88.7362 5.17519 88.928 5.47111C89.034 5.63769 89.1062 5.79511 89.0923 5.88288C89.7872 6.34146 89.5182 5.95065 88.9978 5.40131C88.8361 5.23165 88.6076 5.09114 88.3534 5.02859C88.8068 5.07625 88.737 5.03868 88.4908 4.91857C88.2446 4.80174 87.8198 4.799 87.6796 4.75175C88.0107 4.63348 88.7501 4.68611 89.2288 5.17029C89.7915 5.69712 90.3442 6.21835 89.9878 5.60387ZM123.015 17.1313C122.538 17.6272 121.695 18.3052 121.484 18.7599C121.361 19.0248 122.177 18.3175 121.763 18.9543C122.226 18.4693 122.291 18.3176 122.113 18.3013C122.209 18.1815 122.307 18.0607 122.404 17.9412C122.473 17.9102 122.543 17.8777 122.612 17.8467C122.628 17.7499 122.646 17.653 122.661 17.5575C122.784 17.4506 122.908 17.3424 123.031 17.2358C123.024 17.2022 123.03 17.1616 123.015 17.1313ZM40.0714 20.6378C40.2053 20.5015 40.338 20.3665 40.4716 20.2299C40.433 20.2211 40.3906 20.2141 40.3491 20.2068C40.3176 20.1997 40.286 20.1927 40.2545 20.1857C40.4017 20.1762 41.1599 19.647 41.3575 19.3023C41.4569 19.1291 41.0157 19.3083 41.5708 18.7075C41.1587 19.1331 40.7885 19.539 40.393 19.9568C40.3905 19.8814 40.3862 19.807 40.3838 19.7315C40.3835 19.7317 40.3832 19.7319 40.3829 19.7321C40.239 19.8584 40.0931 19.9859 39.9492 20.1123C39.9896 20.2879 40.0309 20.4622 40.0714 20.6378ZM140.223 15.9387C139.838 16.4759 139.724 16.6699 140.065 16.5758C140.065 16.5754 140.066 16.575 140.067 16.5746C140.183 16.3482 140.3 16.1218 140.417 15.8954C140.353 15.9095 140.289 15.9233 140.223 15.9387ZM68.4753 16.5779C67.0263 16.0672 69.5205 17.9862 69.2602 17.4062C69.2486 17.38 68.5154 16.7216 68.4753 16.5779ZM104.711 19.8942C104.976 19.6214 105.242 19.3484 105.508 19.0743C105.389 19.0788 105.268 19.085 105.148 19.0895C105.002 19.3575 104.856 19.6262 104.711 19.8942ZM189.784 17.7329C189.629 17.321 188.949 16.5477 188.454 16.3327C188.624 16.5356 188.795 16.7386 188.965 16.9415C188.596 16.605 188.23 16.2741 187.859 15.934C187.661 16.0945 188.174 16.3999 188.741 17.0657C188.829 17.1691 189.216 18.0018 189.594 18.0446C189.671 18.0525 189.046 17.3801 189.597 17.7307C189.408 17.5256 189.236 17.3572 189.054 17.1664C189.083 17.1101 189.112 17.0539 189.14 16.9963C189.355 17.2423 189.569 17.4869 189.784 17.7329ZM120.253 19.9149C120.084 20.023 119.958 20.0145 119.867 20.0404C119.774 20.0604 119.703 20.0997 119.595 20.1343C119.854 20.3006 120.209 20.2555 120.406 20.057C120.351 20.0129 120.301 19.965 120.253 19.9149ZM182.429 13.4385C182.042 13.7837 182.302 13.7301 182.174 13.897C181.691 14.5276 181.238 14.8336 180.734 15.4298C180.75 15.3734 180.765 15.3213 180.781 15.2668C180.781 15.2673 180.78 15.2678 180.78 15.2683C178.089 17.7856 179.69 16.6516 181.211 15.0553C181.285 15.0571 181.359 15.0605 181.433 15.062C182.064 14.2977 182.642 13.5901 182.429 13.4385ZM76.5857 15.4848C76.5319 15.4905 76.6321 15.0853 76.2292 15.631C76.0762 16.2293 76.5818 15.5027 76.8217 15.4341C76.7147 15.5839 76.6041 15.736 76.4985 15.8844C77.3291 15.1797 77.3881 15.0147 76.9456 15.1317C76.9147 15.1408 76.6394 15.4789 76.5857 15.4848ZM71.9564 19.7641C71.8979 19.9295 71.9374 20.0318 72.0524 20.044C72.1649 20.0583 72.2809 19.9531 72.2927 19.8633C72.3484 19.7627 72.3705 19.6866 72.3377 19.6706C72.2946 19.7112 72.2602 19.7547 72.2282 19.7989C72.2146 19.8396 72.1954 19.8904 72.1409 19.8886C72.0612 19.8812 72.025 19.7815 71.9564 19.7641ZM100.544 16.5558C100.518 16.526 100.37 16.1029 100.291 16.2392C100.388 16.8475 101.263 17.3938 101.228 17.1804C100.988 16.9498 100.793 16.8313 100.545 16.5555C100.545 16.5556 100.545 16.5557 100.544 16.5558ZM194.27 22.0648C194.266 22.0421 193.61 21.2753 193.467 21.2349C193.333 21.2172 193.233 21.2417 193.117 21.245C193.564 21.5813 194.315 22.417 194.269 22.0633C194.269 22.0638 194.27 22.0643 194.27 22.0648Z" fill="#3D3638"/>
</svg>
