<svg width="429" height="3" viewBox="0 0 429 3" fill="none" xmlns="http://www.w3.org/2000/svg">
<path d="M35.5794 1.51092C34.6114 1.52189 37.843 1.52555 35.6971 1.53898C36.1446 1.54253 36.5948 1.5462 37.0423 1.54986C37.1559 1.54176 37.272 1.53362 37.3856 1.52537C36.7846 1.52042 36.1834 1.51559 35.5794 1.51088C35.5794 1.51089 35.5794 1.51091 35.5794 1.51092ZM34.7589 1.40647C35.3096 1.4297 37.0594 1.44025 35.1692 1.45796C35.0189 1.44959 34.8651 1.44133 34.7148 1.43317C34.0586 1.43825 33.3982 1.44296 32.742 1.44731C32.506 1.44396 32.2703 1.44066 32.0342 1.43747C31.7338 1.44959 31.4358 1.46139 31.1353 1.47283C31.4022 1.47184 31.6726 1.47079 31.9394 1.46972C32.9944 1.4831 33.9331 1.48936 35.3653 1.49627C35.2396 1.49916 35.1135 1.50198 34.9878 1.5048C35.7147 1.50188 36.4411 1.4986 37.1649 1.49497C36.5363 1.48715 35.8334 1.47881 35.2509 1.4721C36.1831 1.45254 37.8274 1.46824 38.6833 1.47573C39.8488 1.48567 39.5855 1.47332 40.4502 1.48044C40.5883 1.48158 40.6039 1.49101 40.8768 1.49195C42.254 1.49681 44.9287 1.49841 43.3645 1.471C41.0978 1.46867 39.1647 1.44755 36.941 1.44947C37.5293 1.42735 36.3577 1.41739 34.7589 1.40647ZM76.399 1.59375C75.7122 1.56864 74.3132 1.57466 73.3655 1.58731C73.3643 1.58731 73.3632 1.58731 73.3622 1.5873C73.1536 1.59017 72.6812 1.61802 73.3622 1.61907C74.4722 1.62089 75.0089 1.57472 75.5916 1.6089C75.8523 1.60364 76.1261 1.59903 76.399 1.59375ZM78.8115 1.60356C79.4924 1.59322 79.1836 1.5544 78.331 1.56268C78.331 1.56265 78.331 1.56262 78.331 1.56259C77.9753 1.566 78.6736 1.59713 77.3977 1.56413C77.1372 1.58659 76.8805 1.60676 76.623 1.62804C76.9354 1.62944 77.2203 1.63098 77.5481 1.63236C77.3276 1.59365 78.1309 1.61369 78.8115 1.60356ZM44.5152 1.48552C44.6223 1.50543 44.1739 1.50423 43.4102 1.51515C44.131 1.51682 44.8518 1.51841 45.5694 1.52C45.2168 1.50824 44.8678 1.49678 44.5152 1.48552ZM27.5836 1.44611C27.5824 1.44611 27.5813 1.44611 27.5803 1.4461C27.3441 1.44359 27.1073 1.44112 26.8742 1.43874C26.7331 1.44265 26.5936 1.44648 26.4525 1.45025C25.6182 1.44403 24.7794 1.43817 23.9452 1.43266C24.0465 1.4444 25.5441 1.44647 26.3691 1.45779C27.5959 1.45777 28.187 1.45147 28.2668 1.44009C28.0399 1.44215 27.8135 1.44418 27.5836 1.44611ZM228.223 1.51146C228.502 1.54205 228.778 1.57276 229.057 1.60357C228.686 1.61713 228.318 1.62735 227.943 1.64299C226.965 1.51 226.873 1.62673 225.591 1.61711C221.662 1.58724 222.705 1.39168 219.156 1.67781C222.005 1.66791 220.911 1.80278 222.628 1.9128C222.984 1.83231 221.282 1.64777 222.435 1.61147C224.423 1.69907 226.333 1.78308 228.538 1.84434C228.474 1.85856 228.41 1.87282 228.346 1.88701C227.996 1.87719 227.649 1.86735 227.3 1.85761C227.677 1.89662 228.046 1.93547 228.429 1.97531C227.944 1.88697 229.179 1.93869 229.014 1.83788C228.94 1.793 228.395 1.73012 228.073 1.68719C228.904 1.66519 229.756 1.64491 230.596 1.62309C230.161 1.58677 229.726 1.55062 229.294 1.5147C228.938 1.51338 228.585 1.51239 228.23 1.51107C228.227 1.5112 228.225 1.51133 228.223 1.51146ZM407.094 2.44285C406.039 2.25511 404.122 2.22174 403.113 2.42278C404.441 2.42934 405.766 2.43623 407.094 2.44285ZM28.3469 1.43074C28.2274 1.4327 28.1116 1.43462 27.9922 1.43653C28.5196 1.44165 29.0502 1.44698 29.5776 1.45256C29.6788 1.44622 29.7823 1.43982 29.8865 1.43338C29.3744 1.4325 28.8589 1.43163 28.3469 1.43074ZM62.0924 1.5102C61.7066 1.50854 61.6723 1.50893 61.1918 1.50984C61.1924 1.50983 61.1929 1.50982 61.1935 1.50981C61.0029 1.51018 59.4091 1.51445 59.5867 1.52503C60.3781 1.52717 61.2222 1.52909 62.0319 1.5311C62.0565 1.52415 62.0618 1.51721 62.0924 1.5102ZM52.7775 1.4955C52.7764 1.49552 52.7753 1.49554 52.7742 1.49556C52.4863 1.49629 52.2133 1.49844 51.9161 1.49824C52.9862 1.51499 53.1554 1.48977 54.1276 1.49922C55.0997 1.50875 55.7004 1.52575 56.5254 1.49001C56.2186 1.48377 55.8884 1.47518 55.5724 1.46822C54.1924 1.48058 53.8207 1.46586 52.7137 1.45055C52.7352 1.46555 52.756 1.48047 52.7775 1.4955ZM210.731 1.78439C210.467 1.71472 210.173 1.78206 210.142 1.78277C210.143 1.78285 210.143 1.78294 210.144 1.78302C207.808 1.71481 210.448 1.82187 208.243 1.82787C208.571 1.84568 208.894 1.86451 209.219 1.88267C209.722 1.85075 210.24 1.81418 210.731 1.78439ZM134.82 1.64177C134.799 1.65462 134.773 1.66749 134.752 1.68033C136.077 1.68014 136.415 1.73258 137.516 1.68812C136.617 1.67227 135.719 1.65679 134.82 1.64162C134.82 1.64167 134.82 1.64172 134.82 1.64177ZM68.7709 1.47669C67.3017 1.46195 66.2149 1.45589 64.804 1.47267C64.8029 1.4727 64.8018 1.47272 64.8007 1.47274C64.7194 1.47376 65.1129 1.48738 65.0067 1.49049C64.7156 1.48804 64.415 1.48455 64.1208 1.48178C64.081 1.49199 64.043 1.50219 64.0031 1.5123C64.8312 1.51114 65.6597 1.50988 66.4908 1.5085C66.3681 1.51449 66.2425 1.52038 66.1198 1.5263C66.8251 1.53109 67.5278 1.53596 68.2331 1.54095C67.9879 1.52244 67.7431 1.50411 67.5009 1.48593C67.9239 1.48289 68.3478 1.47993 68.7709 1.47669ZM156.879 1.5209C156.646 1.53702 157.078 1.56497 156.716 1.57861C156.354 1.59201 155.687 1.56075 155.843 1.60688C156.33 1.61376 156.842 1.62166 157.339 1.62899C155.741 1.70952 154.147 1.63152 154.122 1.73272C155.656 1.71001 156.917 1.72459 158.401 1.75695C158.34 1.67398 156.855 1.60106 157.79 1.52515C157.489 1.5238 157.174 1.52195 156.883 1.52108C156.882 1.52102 156.88 1.52096 156.879 1.5209ZM6.88282 1.34507C5.97492 1.34935 3.89471 1.35842 2.74755 1.36458C2.46533 1.36632 1.5251 1.3719 1.52988 1.37186C1.55744 1.37228 2.70576 1.36945 1.47594 1.37317C1.88965 1.37211 2.29119 1.37112 2.70181 1.3701C2.62818 1.37107 2.55494 1.37197 2.48439 1.3728C1.98449 1.37353 1.48388 1.37432 0.983935 1.37518C0.959472 1.37532 0.934918 1.37545 0.910409 1.37557C2.70782 1.37289 1.64677 1.37497 2.57922 1.37489C1.72057 1.37603 0.855563 1.37671 0 1.37695C0.493797 1.37681 1.0764 1.37662 1.5119 1.37644C1.57017 1.37722 0.531095 1.37696 0.353049 1.377C-0.649876 1.37685 4.45621 1.37816 4.87401 1.38226C4.05841 1.38176 3.20245 1.38101 2.36837 1.38009C2.60755 1.38061 2.85 1.38121 3.08918 1.38186C4.98141 1.3832 7.10337 1.38401 9.30837 1.38269C9.50761 1.383 9.70716 1.38333 9.90335 1.38365C9.8451 1.3858 9.78989 1.38791 9.73173 1.38999C10.0322 1.39064 10.3367 1.39133 10.6372 1.39203C9.75103 1.38328 10.9783 1.38523 12.4597 1.38012C11.6716 1.37682 10.6993 1.37861 10.7664 1.37347C13.4714 1.3775 16.6391 1.36889 19.2706 1.37578C19.9238 1.37768 19.9217 1.38996 21.4575 1.38983C21.4054 1.38835 21.3964 1.38573 21.3627 1.38382C24.0189 1.39089 25.6305 1.39788 28.391 1.39092C28.2315 1.39712 28.0748 1.40324 27.9153 1.40923C27.3295 1.40548 26.7427 1.40187 26.1599 1.39851C25.7613 1.40764 26.3504 1.41254 24.6023 1.41008C23.1699 1.40808 24.0226 1.40537 23.633 1.40234C23.1056 1.39837 22.6426 1.40451 22.0753 1.40018C21.6367 1.39696 22.1112 1.39079 20.9672 1.39164C21.4273 1.40014 21.8966 1.40948 22.3597 1.41919C22.6389 1.41775 22.9159 1.41621 23.1949 1.4146C22.9128 1.41172 22.6354 1.40897 22.3532 1.40626C23.3468 1.41177 24.2858 1.41745 25.3133 1.42428C24.9789 1.40951 26.0409 1.41637 26.6176 1.41911C27.5158 1.42334 26.7463 1.41167 27.3351 1.41425C27.9239 1.41674 28.5591 1.43013 29.6234 1.42942C29.053 1.42107 29.8289 1.41564 29.679 1.4085C29.5287 1.40137 28.4029 1.39924 29.4845 1.39248C31.5639 1.39968 29.3075 1.42418 30.7119 1.43054C32.3988 1.43944 32.8002 1.39256 32.2974 1.38239C31.9018 1.37448 30.5402 1.37608 30.1415 1.36885C32.5799 1.35429 32.601 1.38184 33.0182 1.38774C34.5334 1.40909 33.5155 1.35306 35.3098 1.3732C35.2761 1.36236 35.2486 1.35263 35.215 1.34229C35.5245 1.34396 35.7301 1.34643 36.1041 1.34773C35.0011 1.3699 35.904 1.36836 36.3672 1.36838C37.0973 1.36833 35.9697 1.37912 36.163 1.38178C36.6844 1.38916 37.509 1.38617 37.0031 1.39573C37.23 1.3913 37.4761 1.38678 37.7092 1.38223C38.562 1.38735 40.5664 1.44047 38.6588 1.42782C38.8367 1.44648 39.4538 1.43873 39.9353 1.43649C40.4167 1.43428 40.4078 1.44652 40.831 1.44496C42.5147 1.43849 41.4133 1.41479 41.1465 1.39818C43.3701 1.4113 41.1931 1.41715 44.3975 1.42885C44.7073 1.44418 43.2267 1.45704 44.4596 1.46788C44.6867 1.44282 45.5945 1.42552 47.3641 1.4179C47.5359 1.42432 47.7072 1.43086 47.8789 1.43742C48.8451 1.41317 48.3512 1.38491 50.1394 1.41896C49.1793 1.35782 49.8395 1.39736 51.4405 1.37219C51.7656 1.36697 51.0143 1.35431 51.4683 1.34755C51.674 1.34443 52.1736 1.35408 52.6762 1.34611C52.9215 1.34233 54.0687 1.31613 54.8631 1.32739C54.2804 1.35965 55.7896 1.38738 54.4953 1.41345C56.8877 1.40858 58.5621 1.42452 55.8814 1.37869C56.4887 1.36877 57.0965 1.35857 57.7038 1.34807C58.127 1.35594 58.554 1.36392 58.9803 1.37209C59.0447 1.34363 58.98 1.33558 60.6475 1.33961C59.924 1.33315 59.2035 1.32681 58.4769 1.32079C58.4524 1.31511 58.3513 1.30931 58.3756 1.30376C59.2655 1.31341 61.7712 1.31577 62.3784 1.3233C62.9857 1.33085 61.813 1.33393 61.9878 1.34151C63.4444 1.4051 63.329 1.35804 64.3741 1.36886C64.9876 1.37558 63.5229 1.38284 63.8511 1.38566C65.068 1.39645 65.6324 1.36094 66.7115 1.36002C66.3282 1.3808 65.948 1.40154 65.5739 1.4218C66.7057 1.42152 67.9673 1.42205 69.0194 1.4297C69.4323 1.43271 69.1202 1.44842 69.1877 1.44954C69.5223 1.45532 70.884 1.4658 71.0281 1.46608C72.1134 1.46762 72.1442 1.44464 73.1987 1.44428C72.7848 1.44192 72.3956 1.43981 71.9909 1.43759C71.8068 1.40016 71.6191 1.36302 71.4351 1.32609C72.4686 1.32267 73.5024 1.31918 74.539 1.31552C73.7815 1.32903 73.0213 1.34209 72.2638 1.35482C73.4477 1.38469 74.6317 1.41611 75.8155 1.44902C76.432 1.43013 77.046 1.41076 77.6625 1.39091C79.3367 1.39623 78.9996 1.47935 79.7938 1.40702C80.2874 1.41337 80.7811 1.41984 81.2747 1.42634C81.2042 1.4157 81.1344 1.40506 81.0638 1.39448C81.659 1.40111 82.2536 1.40783 82.8487 1.41483C82.2231 1.45281 81.6098 1.49189 80.9903 1.52704C82.1613 1.53745 82.1837 1.50534 82.3584 1.49752C82.8215 1.47675 83.7409 1.50709 84.1089 1.48753C84.2333 1.48068 83.0858 1.45789 83.4813 1.43348C83.5585 1.42917 85.0948 1.33697 86.0752 1.3579C86.0568 1.37495 85.981 1.39584 85.9412 1.41433C87.2595 1.42569 87.9319 1.33501 87.7571 1.30952C88.4595 1.32681 89.486 1.32781 89.6302 1.35619C89.989 1.3568 90.3452 1.35738 90.704 1.35801C90.3301 1.28837 91.8268 1.29963 91.925 1.36079C91.3085 1.36241 90.6913 1.36408 90.0748 1.36563C90.541 1.43894 88.6675 1.48302 92.5657 1.41632C93.3111 1.37737 91.2409 1.4212 91.8482 1.3922C92.9032 1.37528 93.8937 1.38986 94.8965 1.36189C96.1444 1.32665 94.609 1.29284 97.5166 1.33675C91.1032 1.45019 98.3962 1.41304 101.408 1.45249C102.236 1.33619 104.78 1.29436 108.283 1.32966C107.918 1.36471 106.816 1.34698 106.181 1.35847C105.546 1.36979 106.233 1.39012 105.442 1.40587C104.651 1.42161 102.971 1.44206 102.17 1.46459C102.848 1.48353 106.196 1.53271 103.983 1.4761C105.635 1.44439 106.411 1.40958 108.459 1.40355C109.073 1.45839 109.027 1.49267 111.024 1.49647C109.843 1.41829 112.112 1.36509 111.612 1.28413C110.197 1.30397 110.988 1.38132 110.169 1.41828C110.085 1.4219 108.766 1.4022 108.459 1.40355C109.791 1.33538 110.251 1.30805 109.432 1.2269C110.374 1.23285 110.959 1.2216 111.045 1.26132C111.241 1.24385 111.439 1.22627 111.632 1.20862C111.938 1.20859 112.214 1.20979 112.539 1.20898C112.092 1.2704 112.959 1.23177 113.575 1.25888C114.192 1.28625 113.365 1.33529 115.058 1.33535C114.493 1.35011 113.978 1.36261 113.432 1.3762C114.523 1.39198 115.619 1.40831 116.71 1.42499C115.944 1.46348 114.282 1.51806 114.327 1.56758C114.83 1.54953 116.553 1.58563 116.741 1.5875C117.471 1.59403 117.073 1.56119 117.129 1.5605C118.276 1.54659 119.22 1.55916 119.656 1.50999C120.517 1.53344 121.167 1.52149 122.081 1.52382C122.584 1.52511 122.486 1.56239 122.781 1.55572C124.738 1.51111 122.873 1.45829 126.648 1.55753C126.191 1.58379 125.74 1.61039 125.283 1.63631C125.71 1.64724 126.133 1.65832 126.56 1.66946C126.845 1.66523 127.128 1.66092 127.413 1.65662C127.407 1.59789 127.399 1.53905 127.393 1.48034C127.706 1.4774 128.02 1.47452 128.333 1.47153C127.796 1.4653 127.258 1.45916 126.722 1.45308C126.672 1.44278 126.627 1.43248 126.578 1.4222C127.375 1.40659 128.17 1.39053 128.967 1.37419C128.983 1.39486 128.998 1.41569 129.013 1.43638C130.81 1.40843 130.853 1.38974 132.562 1.44896C133.877 1.44878 134.949 1.53963 135.71 1.57926C135.982 1.56748 136.256 1.55546 136.532 1.54354C136.707 1.56195 136.883 1.58036 137.058 1.59892C137.405 1.57406 137.756 1.54901 138.102 1.52389C138.296 1.58222 138.396 1.60083 137.043 1.61873C137.506 1.69129 139.887 1.66509 140.857 1.64191C141.592 1.62441 140.776 1.56138 140.868 1.55412C141.175 1.52905 142.387 1.55246 142.641 1.54855C143.718 1.53201 144.472 1.53594 145.445 1.52292C145.634 1.52034 146.163 1.48039 146.208 1.47912C146.557 1.47248 147.421 1.45318 147.519 1.45263C152.581 1.42477 147.172 1.59965 151.879 1.58666C151.738 1.61052 151.609 1.63417 151.471 1.6579C151.826 1.66003 152.186 1.66209 152.541 1.66424C152.992 1.64487 152.447 1.60709 153.342 1.63831C153.284 1.60829 153.226 1.57828 153.164 1.54847C153.554 1.56504 153.929 1.58158 154.328 1.5984C154.954 1.49496 157.238 1.47209 157.076 1.34692C157.02 1.30423 155.401 1.26209 156.257 1.21629C156.952 1.20667 156.481 1.25774 156.765 1.26016C158.814 1.27735 158.695 1.20556 159.532 1.22392C159.664 1.25476 159.803 1.28627 159.937 1.31758C160.253 1.30835 160.57 1.29906 160.889 1.28972C160.962 1.31067 161.039 1.33166 161.113 1.35266C160.815 1.35411 160.48 1.35557 160.207 1.357C160.588 1.43753 164.083 1.47648 162.75 1.40574C162.208 1.37716 161.213 1.38942 161.842 1.29271C162.777 1.30613 163.838 1.32006 164.823 1.33398C164.854 1.31279 164.882 1.29156 164.913 1.27034C166.24 1.28328 165.033 1.36901 165.035 1.41423C165.339 1.41557 165.646 1.41676 165.949 1.41812C166.078 1.39749 166.2 1.37585 166.335 1.35576C166.347 1.38867 166.517 1.46544 167.422 1.43728C168.003 1.41876 167.087 1.33497 168.197 1.34642C168.114 1.39851 167.713 1.46137 168.948 1.47893C169.071 1.42451 169.241 1.37453 169.336 1.31708C170.872 1.36945 171.571 1.28382 173.375 1.34548C174.519 1.38422 176.086 1.52827 176.825 1.30778C177.662 1.30162 177.396 1.35683 177.644 1.3692C178.812 1.42817 179.682 1.32244 179.899 1.3159C181.288 1.27511 181.911 1.31202 183.043 1.2604C182.981 1.3027 182.948 1.3427 182.899 1.38387C181.862 1.32065 181.337 1.32418 179.883 1.33784C180.371 1.34608 180.858 1.35457 181.346 1.36294C181.266 1.39693 181.187 1.43088 181.111 1.4646C176.614 1.33097 177.663 1.53781 181.433 1.58871C181.758 1.52617 182.095 1.46346 182.417 1.40007C184.594 1.49673 185.619 1.414 188.082 1.39329C188.374 1.39091 189.441 1.42881 189.899 1.43088C189.892 1.43113 189.884 1.43138 189.876 1.43163C190.162 1.49395 189.775 1.52241 189.729 1.57785C189.978 1.58508 190.226 1.5923 190.475 1.59958C191.029 1.5577 190.834 1.52242 191.926 1.53348C191.779 1.57601 191.633 1.61844 191.486 1.66077C192.683 1.66413 193.465 1.61849 194.579 1.64019C194.392 1.62358 194.207 1.60698 194.02 1.59046C196.443 1.5513 194.514 1.29426 196.346 1.42208C196.462 1.39973 196.576 1.37713 196.692 1.3547C195.938 1.34927 195.183 1.34408 194.432 1.33878C194.416 1.30742 194.4 1.27621 194.388 1.24487C195.194 1.25371 196.005 1.26296 196.811 1.27204C196.223 1.25106 195.63 1.23024 195.041 1.20964C195.977 1.19376 196.912 1.17766 197.848 1.16135C196.854 1.27942 198.142 1.29278 197.9 1.40925C199.556 1.31312 200.857 1.18163 203.425 1.26353C203.934 1.27987 203.657 1.3641 205.102 1.26119C204.752 1.39494 206.562 1.45834 206.329 1.58661C205.826 1.57992 205.305 1.57554 204.817 1.56757C205.372 1.52402 205.464 1.40194 204.621 1.36604C203.545 1.3205 201.974 1.40391 202.039 1.27098C201.609 1.27745 201.21 1.28131 200.793 1.28673C200.965 1.31942 201.133 1.3524 201.301 1.38526C200.115 1.33377 199.369 1.35104 198.799 1.43261C200.213 1.45183 201.623 1.47125 203.037 1.49106C202.829 1.49663 202.618 1.50222 202.41 1.50755C203.48 1.59362 202.376 1.67308 204.373 1.69443C204.36 1.65513 204.35 1.61581 204.338 1.57632C205.065 1.68199 207.055 1.68496 206.421 1.80593C207.022 1.76969 207.144 1.74593 207.485 1.81275C209.07 1.72304 210.089 1.60429 209.524 1.46176C210.113 1.48487 210.702 1.5082 211.288 1.5317C210.948 1.57063 210.607 1.6092 210.267 1.64776C211.291 1.64664 212.323 1.64553 213.344 1.64455C213.442 1.52757 211.372 1.60708 211.97 1.50357C212.089 1.48275 212.64 1.52786 212.785 1.51618C214.313 1.3891 211.915 1.48039 212.365 1.38293C214.641 1.35289 212.82 1.18766 215.955 1.32582C216.037 1.29159 216.126 1.25662 216.203 1.22253C217.291 1.21965 217.203 1.29739 218.138 1.31188C218.724 1.32109 219.459 1.18276 220.106 1.27643C220.221 1.29396 219.133 1.4624 221.42 1.45585C223.195 1.45069 222.456 1.32972 223.416 1.2865C224.376 1.24253 226.572 1.41234 227.219 1.21841C226.717 1.24444 226.076 1.25859 225.518 1.27974C225.291 1.24236 225.07 1.2055 224.846 1.16857C226.122 1.21585 227.441 1.1573 228.3 1.24706C230.002 1.10714 231.906 1.2345 231.391 1.39349C230.83 1.37065 231.44 1.30172 230.662 1.34573C230.582 1.38251 230.498 1.41907 230.418 1.45578C231.743 1.45182 232.663 1.45298 232.059 1.34012C232.265 1.33739 232.468 1.33467 232.674 1.33193C232.71 1.41375 232.743 1.49591 232.78 1.57781C233.025 1.58724 233.272 1.59663 233.517 1.60612C233.79 1.58835 234.063 1.57031 234.339 1.55218C233.968 1.42141 233.336 1.41774 235.428 1.34441C235.434 1.38968 235.443 1.43476 235.449 1.48004C237.2 1.42323 237.247 1.3124 239.445 1.31589C237.758 1.15737 236.835 1.4389 236.842 1.12156C236.418 1.14284 235.992 1.16429 235.568 1.18534C235.504 1.13965 235.44 1.09393 235.379 1.0483C237.651 1.06742 241.426 1.37296 242.948 1.16716C243.132 1.19211 243.317 1.21382 243.504 1.24077C244.994 1.11468 245.638 1.39605 247.15 1.23267C247.306 1.21534 246.98 0.949603 248.948 0.955597C248.899 0.99056 248.874 1.04929 248.834 1.09331C249.26 1.07144 249.684 1.04846 250.107 1.02588C250.184 1.05814 250.264 1.09042 250.341 1.12298C249.614 1.13629 248.889 1.1497 248.162 1.1628C248.766 1.1733 249.374 1.18389 249.978 1.19456C249.19 1.24799 248.834 1.24847 249.309 1.33283C249.993 1.33777 250.678 1.34306 251.362 1.34808C251.433 1.3699 251.503 1.39199 251.573 1.41385C251.242 1.47893 250.907 1.54233 250.576 1.60787C252.358 1.55629 253.907 1.55482 255.275 1.4253C255.508 1.40339 254.684 1.31714 256.272 1.39497C256.297 1.34919 256.34 1.312 256.367 1.26965C258.312 1.39737 258.951 1.36023 260.978 1.26505C259.665 1.35341 260.837 1.29579 261.171 1.34294C261.4 1.37544 260.506 1.37067 260.607 1.40463C260.708 1.43819 261.87 1.57553 260.877 1.5912C258.441 1.31137 257.778 1.6428 254.649 1.50832C255.131 1.54375 255.616 1.57946 256.097 1.61529C255.871 1.63906 255.668 1.66058 255.422 1.68568C257.167 1.6341 256.319 1.66785 257.036 1.71121C257.753 1.75457 259.058 1.79293 259.932 1.80621C260.207 1.81036 259.917 1.74744 260.538 1.74249C260.962 1.73891 262.118 1.83408 262.385 1.7243C262.56 1.65235 260.702 1.45452 263.271 1.45577C263.755 1.38526 262.523 1.40703 262.496 1.39855C262.273 1.31507 263.852 1.25123 264.582 1.31536C264.641 1.32095 264.065 1.38661 264.692 1.41246C266.179 1.47443 267.038 1.39931 268.001 1.29563C268.106 1.41649 269.358 1.56238 270.916 1.51825C270.995 1.55335 271.071 1.58878 271.151 1.6242C270.909 1.60541 270.667 1.58692 270.425 1.56823C270.162 1.58999 269.882 1.60571 269.624 1.63126C271.191 1.66262 271.413 1.83208 272.164 1.89557C274.736 2.11353 273.177 1.65956 272.714 1.58228C272.379 1.61338 272.056 1.64802 271.725 1.68046C271.762 1.63771 271.799 1.59462 271.833 1.55157C275.682 1.55511 272.419 1.27313 274.373 1.19239C274.876 1.40438 276.311 1.42653 278.138 1.28938C278.341 1.29039 278.544 1.29061 278.746 1.29189C278.78 1.32337 278.78 1.37151 278.835 1.39227C281.037 1.42966 281.429 1.09375 281.638 1.06154C282.564 0.918976 283.285 1.11395 283.558 1.11561C284.709 1.12151 285.043 1.03331 286.138 1.06987C287.315 1.1096 286.51 1.17818 286.868 1.23858C287.156 1.28663 288.085 1.29494 288.468 1.34513C288.316 1.30407 288.146 1.26386 287.994 1.22278C289.215 1.16622 290.212 1.11041 291.598 1.09524C293.163 1.39888 294.493 0.882455 293.954 1.30165C292.641 1.33065 291.907 1.37832 291.205 1.48387C292.066 1.49769 292.929 1.51127 293.79 1.52533C294.042 1.47948 294.22 1.43468 294.518 1.38776C295.162 1.48572 296.655 1.44416 297.241 1.47322C299.986 1.60997 299.137 1.78161 301.642 1.49613C299.836 1.46734 299.839 1.32885 298.048 1.34815C298.435 1.24965 299.345 1.26949 298.756 1.15148C300.489 1.17937 299.928 1.28587 300.603 1.38011C301.184 1.46148 302.356 1.46652 302.29 1.57285C302.409 1.51447 302.502 1.45788 302.621 1.39944C303.744 1.40011 304.866 1.40023 305.988 1.40091C305.51 1.33909 305.032 1.27746 304.553 1.21651C304.915 1.1931 305.277 1.16969 305.639 1.14611C308.399 1.33785 313.159 0.977589 312.399 1.47047C313.73 1.4866 313.896 1.42477 314.62 1.33078C314.7 1.36845 314.777 1.3998 314.857 1.44179C315.716 1.40232 316.375 1.54463 317.132 1.50803C317.89 1.47161 318.078 1.33635 318.188 1.56358C318.679 1.4987 319.167 1.44458 319.654 1.38377C319.949 1.43562 320.243 1.48701 320.534 1.53884C320.994 1.51182 321.455 1.4848 321.915 1.45755C322.161 1.56735 323.97 1.5208 324.767 1.59556C325.524 1.47682 325.503 1.10003 327.284 1.16631C327.238 1.26023 327.193 1.35383 327.147 1.44767C327.555 1.42817 327.963 1.40865 328.374 1.389C328.399 1.35826 328.42 1.32751 328.445 1.29675C328.236 1.30632 328.03 1.31582 327.822 1.32566C328.003 1.27369 328.18 1.22188 328.358 1.16974C328.981 1.24642 329.604 1.32355 330.229 1.40111C329.386 1.45974 328.543 1.51796 327.699 1.57569C328.757 1.64551 329.494 1.57689 330.414 1.65509C331.215 1.52481 330.919 1.44874 330.594 1.30677C330.891 1.31884 331.192 1.33052 331.49 1.34266C331.293 1.20026 331.797 1.11501 330.058 1.12786C330.177 1.0873 330.299 1.04858 330.416 1.00635C330.701 1.01242 330.886 0.977919 331.199 0.993202C332.051 1.0349 332.705 1.28564 332.647 1.37381C332.615 1.4199 331.775 1.33181 331.808 1.39688C331.892 1.55529 333.82 1.48568 331.039 1.64298C331.962 1.74458 332.168 1.66889 333.186 1.64034C333.107 1.69335 333.029 1.74599 332.953 1.79893C333.425 1.7751 333.897 1.75124 334.37 1.72719C333.713 1.4541 337.195 1.34966 334.061 1.1117C334.987 1.0987 335.91 1.08554 336.833 1.07169C336.643 1.04356 336.452 1.01576 336.262 0.987718C335.845 1.00314 335.431 1.01827 335.014 1.03326C335.504 0.981305 335.996 0.929431 336.486 0.877029C337.646 0.939365 338.1 1.03779 338.631 1.15978C337.281 1.24977 337.722 1.12766 336.671 1.10445C336.708 1.18147 336.659 1.25235 336.751 1.33328C337.294 1.17348 339.066 1.28895 339.477 1.29695C340.728 1.32058 339.747 1.16255 340.584 1.15872C341.421 1.15473 342.409 1.24935 343.093 1.09045C343.081 1.17928 343.026 1.27118 342.977 1.35202C344.28 1.38117 344.02 1.27599 344.155 1.26232C346.308 1.03685 347.477 1.22526 349.94 1.24823C349.627 1.2764 349.311 1.30178 348.995 1.32812C350.853 1.5201 349.601 1.46163 347.988 1.52415C349.5 1.50543 350.366 1.66956 351.434 1.71964C352.501 1.76961 354.331 1.68679 355 1.62057C353.47 1.51273 351.819 1.58236 350.12 1.55218C350.313 1.45995 350.5 1.38178 350.7 1.28012C351.733 1.47419 352.332 1.34448 352.673 1.31836C353.672 1.24205 353.641 1.41016 354.245 1.22909C354.22 1.29136 354.202 1.34371 354.178 1.40186C356.242 1.3764 358.469 1.26383 359.812 1.49758C359.935 1.34571 360.027 1.19928 360.168 1.04398C361.042 1.15779 361.791 1.03981 362.527 1.06596C363.26 1.09233 362.981 1.21634 363.843 1.26385C364.002 1.27262 364.334 1.19468 364.727 1.25194C365.123 1.30899 366.585 1.74081 366.76 1.36387C367.499 1.36208 368.199 1.34822 368.923 1.34173C368.217 1.32041 367.512 1.29988 366.809 1.27881C367.41 1.18723 368.008 1.09547 368.609 1.00299C368.685 1.08482 368.762 1.16819 368.836 1.24906C370.455 1.34858 371.631 1.21376 373.265 1.24497C373.538 1.25032 372.894 1.41439 374.106 1.37256C375.317 1.33101 376.216 1.02181 378.28 1.13974C378.384 1.14574 378.996 1.38362 379.735 1.21845C379.903 1.18092 379.195 1.12602 379.581 1.07664C379.968 1.02724 381.692 0.985064 381.827 0.867099C381.808 0.908801 381.701 0.952104 381.649 0.994546C381.943 1.01416 382.24 1.03383 382.538 1.05316C382.565 0.979595 382.595 0.905906 382.623 0.832681C384.316 1.00121 385.191 1.28253 387.7 1.18817C386.994 1.29676 386.288 1.40519 385.586 1.51259C385.393 1.4369 385.199 1.36081 385.009 1.28535C383.853 1.31575 382.694 1.34566 381.538 1.37552C381.347 1.29037 381.161 1.20559 380.97 1.12069C380.664 1.13193 380.36 1.14281 380.053 1.154C380.13 1.21528 380.207 1.27626 380.287 1.33761C379.68 1.32261 379.072 1.30736 378.468 1.29251C379.698 1.6535 381.903 1.26132 381.743 1.56497C382.016 1.51792 382.29 1.47044 382.562 1.42282C382.682 1.57058 383.237 1.52841 384.215 1.50533C383.991 1.57838 383.744 1.65029 383.538 1.72384C384.489 1.62165 386.176 1.63262 387.16 1.59322C387.593 1.57587 387.161 1.46719 387.289 1.4545C387.949 1.38782 389.209 1.57797 389.473 1.56322C391.049 1.47493 392.074 1.11067 393.795 1.35034C392.019 1.40967 392.985 1.38467 392.353 1.51766C392.155 1.55943 389.861 1.64483 392.734 1.60797C393.071 1.60427 398.283 1.35186 396.57 1.15697C397.413 1.21857 398.074 1.29036 398.847 1.35659C400.736 0.83957 400.082 1.32542 399.533 1.59239C399.843 1.59372 400.138 1.59659 400.457 1.59677C399.779 1.31583 403.232 1.2971 404.404 1.44064C404.797 1.48847 403.699 1.57887 404.607 1.62233C405.039 1.60267 405.529 1.57708 405.986 1.55493C405.324 1.73484 406.624 1.80537 406.606 1.98935C407.437 1.82701 408.073 1.47862 407.616 1.28996C408.303 1.36619 408.993 1.44273 409.68 1.52014C409.361 1.56396 409.038 1.60729 408.719 1.65091C410.964 1.53543 413.851 1.80446 414.32 1.41128C414.618 1.41411 414.919 1.41656 415.216 1.4194C415.308 1.486 415.397 1.55277 415.489 1.61946C416.835 1.56246 418.178 1.5045 419.525 1.44637C418.326 1.40436 418.041 1.30921 416.784 1.38655C417.268 1.30968 417.761 1.23212 418.237 1.15472C420.129 1.36154 420.387 1.49981 423.237 1.43782C423.365 1.43519 425.518 1.25829 425.592 1.24077C425.929 1.16167 425.417 1.04725 425.567 1.00728C425.984 0.895582 428.519 0.609726 428.47 0.566791C427.851 0.0432435 419.322 0.065341 417.016 0.0462424C393.092 -0.137605 369.694 0.286317 345.921 0.297746C345.676 0.29771 345.783 0.235045 345.679 0.232717C345.032 0.219283 344.396 0.31819 344.157 0.322857C343.646 0.332637 343.927 0.2425 343.554 0.243666C339.695 0.257633 336.054 0.32075 332.192 0.318052C331.941 0.317887 332.198 0.38606 331.756 0.375205C331.528 0.369162 330.814 0.265907 330.3 0.266121C328.502 0.266813 326.993 0.305341 325.097 0.309921C324.06 0.312401 322.505 0.326243 321.346 0.328458C320.834 0.32944 320.301 0.284489 319.795 0.284687C319.077 0.285001 319.224 0.378805 319.113 0.385016C318.629 0.412065 318.562 0.308917 318.102 0.312945C317.246 0.32075 317.2 0.389576 316.114 0.387134C315.338 0.385209 313.562 0.337132 312.584 0.324812C310.295 0.410878 307.412 0.388416 305.277 0.370277C304.014 0.359496 303.897 0.452037 303.381 0.453277C301.566 0.456804 300.188 0.344759 298.483 0.347104C296.22 0.350231 294.214 0.432592 292.022 0.444769C291.666 0.446741 291.748 0.36543 291.399 0.364572C290.108 0.361424 288.456 0.352705 287.306 0.368151C286.024 0.385278 285.552 0.50192 284.297 0.482386C283.929 0.476594 283.822 0.376555 283.205 0.36593C282.221 0.34936 281.142 0.441026 280.455 0.452931C279.513 0.469033 280.332 0.365391 279.062 0.383425C279.01 0.384205 278.82 0.456679 278.547 0.454137C277.753 0.44707 277.832 0.390498 276.669 0.399984C276.558 0.401209 275.016 0.47412 274.863 0.474799C273.961 0.478875 272.146 0.508152 271.612 0.495683C269.704 0.451498 271.206 0.342445 269.584 0.574457C268.869 0.521121 268.161 0.467451 267.403 0.416706C267.909 0.464957 265.857 0.543505 265.713 0.539197C264.521 0.505787 265.231 0.416861 263.719 0.436547C265.716 0.629346 261.768 0.468439 260.888 0.467006C256.649 0.457715 252.797 0.519548 248.536 0.532462C247.11 0.536712 245.199 0.504056 243.69 0.510468C243.338 0.511772 243.604 0.554384 243.295 0.556372C242.986 0.558065 243.328 0.508069 242.976 0.5119C240.783 0.537027 239.065 0.632483 237.056 0.527034C236.958 0.543607 236.961 0.556417 236.799 0.574772C235.155 0.480482 231.989 0.625753 230.799 0.64691C228.938 0.680683 228.462 0.616538 227.11 0.634251C225.322 0.658011 222.637 0.791238 223.836 0.58068C222.609 0.578542 221.428 0.581147 220.19 0.604442C220.052 0.607071 220.147 0.658464 220.091 0.659711C219.742 0.668256 219.628 0.622408 219.392 0.621115C218.752 0.617599 219.796 0.669324 218.884 0.656913C218.402 0.650235 218.129 0.611101 216.791 0.615005C208.731 0.639126 199.98 0.68363 191.717 0.717771C191.149 0.720093 191.523 0.675289 190.811 0.680659C188.339 0.699824 183.914 0.785782 181.782 0.782794C179.651 0.78028 180.132 0.718822 178.798 0.698927C178.54 0.695068 178.751 0.728119 178.518 0.729484C176.951 0.738457 175.082 0.796937 173.813 0.808645C172.973 0.816527 173.04 0.764738 172.458 0.763159C171.59 0.761023 170.696 0.815621 170.233 0.8187C168.056 0.832837 166.559 0.79746 164.526 0.824856C164.605 0.8138 164.658 0.803625 164.725 0.792745C162.317 0.803034 159.913 0.81324 157.505 0.823375C157.619 0.813541 157.729 0.80362 157.842 0.793593C155.017 0.809326 155.34 0.908908 155.588 0.694747C155.383 0.688132 155.165 0.680412 154.969 0.674418C155.048 0.783831 153.34 0.870032 151.165 0.90371C151.006 0.90606 149.936 0.806271 150.052 0.927969C149.773 0.898952 149.607 0.878971 149.371 0.853668C148.911 0.892069 148.444 0.929715 147.985 0.967293C147.736 0.962549 147.484 0.958031 147.236 0.953342C147.199 0.929981 147.227 0.905519 147.148 0.882751C145.994 0.883217 143.629 0.919524 142.718 0.91942C140.455 0.918859 138.15 0.867846 136.389 0.937456C135.532 0.933784 136.384 0.888363 135.108 0.898245C134.964 0.920157 134.828 0.941089 134.678 0.963535C133.636 0.871689 133.418 0.930793 131.989 0.954718C131.023 0.97099 130.391 0.950335 129.471 0.957759C129.238 0.959644 129.271 0.986387 129.111 0.985994C128.577 0.984721 127.053 0.953059 126.676 0.953456C123.259 0.95538 120.324 0.969766 117.07 0.989438C116.72 0.99151 117.174 0.965991 116.812 0.968263C116.229 0.971893 116.572 1.00741 116.235 1.01028C115.294 1.018 115.287 0.979656 113.974 0.982282C109.653 0.991216 104.684 1.03519 100.169 1.0516C100.028 1.05206 100.037 1.03256 99.8833 1.0329C98.8837 1.03549 97.8717 1.06474 96.9641 1.06726C95.4581 1.07157 94.3263 1.0494 92.8387 1.05478C89.9309 1.0651 87.3332 1.08636 84.3426 1.09681C81.895 1.10548 79.7693 1.11044 77.0855 1.11951C65.3626 1.15547 53.4002 1.16622 41.5976 1.22615C41.2972 1.22761 41.4195 1.23428 41.3279 1.23429C40.4569 1.23419 40.3791 1.2253 40.0694 1.24583C38.9597 1.24556 38.6096 1.23275 37.2695 1.23879C36.5553 1.24197 37.0885 1.26078 35.8802 1.25426C34.7891 1.24856 35.9932 1.23378 32.7485 1.25655C32.6626 1.2572 32.2398 1.26985 31.5652 1.26923C30.8873 1.26882 31.6719 1.25815 30.0402 1.26211C26.2094 1.2722 21.3605 1.29827 16.9071 1.31287C16.628 1.31372 13.94 1.32127 13.4093 1.32244C12.3825 1.32445 12.597 1.32037 11.2632 1.32571C10.2326 1.32997 9.38234 1.3366 8.17077 1.34128C8.02962 1.34182 7.79331 1.34051 6.88282 1.34507ZM232.67 1.64877C232.922 1.71702 233.376 1.96963 234.897 1.89643C235.041 1.88933 234.263 1.71406 235.103 1.68751C234.281 1.66804 233.48 1.66115 232.67 1.64851C232.67 1.64859 232.67 1.64868 232.67 1.64877ZM0.290913 1.37761C1.42886 1.38014 2.5707 1.38251 3.70865 1.38468C2.92346 1.38256 2.13709 1.38074 1.35499 1.37924C0.999276 1.37889 0.646717 1.37835 0.290913 1.37761ZM141.945 1.62285C141.944 1.62285 141.943 1.62284 141.942 1.62284C143.138 1.64466 144.335 1.66702 145.531 1.68984C145.405 1.67466 145.279 1.65947 145.154 1.64437C144.209 1.61921 143.264 1.59454 142.323 1.57031C142.197 1.58787 142.071 1.60538 141.945 1.62285ZM132.495 1.46282C131.731 1.47842 131.918 1.50562 131.498 1.53147C131.498 1.53142 131.498 1.53137 131.498 1.53132C131.387 1.53805 130.87 1.54337 130.67 1.54413C130.744 1.52743 130.839 1.51094 130.919 1.49432C129.137 1.4537 125.652 1.58858 130.164 1.65502C130.096 1.63375 130.032 1.61263 129.964 1.59143C132.206 1.60165 134.706 1.55736 132.495 1.46282ZM250.699 1.78696C252.613 1.92342 253.226 1.95473 255.548 1.86624C255.22 1.82712 254.892 1.78816 254.564 1.74934C254.181 1.78788 253.8 1.82599 253.417 1.86418C253.416 1.86418 253.415 1.86417 253.414 1.86417C253.337 1.82314 253.26 1.78207 253.186 1.74112C252.358 1.75656 251.527 1.77185 250.699 1.78696ZM59.2304 1.43808C58.697 1.50016 58.8508 1.46368 60.3746 1.48054C60.9021 1.4865 60.388 1.49681 60.7162 1.49933C62.4884 1.51353 62.6302 1.46915 62.2346 1.44562C61.2317 1.44295 60.2182 1.44048 59.2337 1.43809C59.2326 1.43809 59.2315 1.43808 59.2304 1.43808ZM13.2475 1.3877C13.2464 1.3877 13.2453 1.3877 13.2442 1.3877C13.1982 1.39102 13.9127 1.39291 13.1069 1.39511C13.7199 1.39595 14.3329 1.39677 14.949 1.3976C14.7683 1.39699 14.5838 1.39641 14.4031 1.39582C14.5626 1.39475 14.7225 1.39362 14.882 1.39247C15.0997 1.39713 15.3021 1.39489 15.946 1.39397C15.7681 1.39885 15.5911 1.40357 15.4132 1.40811C16.1614 1.40816 16.9124 1.408 17.6606 1.40763C17.6698 1.40623 17.6792 1.40483 17.6884 1.40342C17.9705 1.40566 18.2497 1.40799 18.5318 1.4104C18.6085 1.40876 18.6823 1.40712 18.759 1.40544C19.0993 1.40732 19.4401 1.40927 19.7805 1.41131C19.8841 1.40687 19.134 1.4038 20.4637 1.40691C20.0558 1.40145 19.6488 1.3963 19.2379 1.39142C17.2412 1.39029 15.2442 1.38906 13.2475 1.3877ZM73.0925 1.47625C70.8935 1.47016 71.5127 1.48269 72.0219 1.52154C72.3776 1.50667 72.7368 1.49158 73.0925 1.47625ZM186.392 1.54299C187.03 1.61037 187.67 1.67777 188.324 1.74418C189.624 1.78483 190.925 1.66273 189.947 1.6126C188.769 1.5531 187.539 1.61634 186.392 1.54299ZM216.012 1.60383C214.421 1.63792 215.918 1.73124 216.277 1.78587C216.717 1.70037 217.33 1.70878 218.316 1.70017C217.391 1.69298 216.275 1.5979 216.012 1.60359C216.012 1.60367 216.012 1.60375 216.012 1.60383ZM160.786 1.58495C160.148 1.58236 159.514 1.56566 158.944 1.58428C159.116 1.63898 160.256 1.59118 159.441 1.67087C159.848 1.67301 160.257 1.67511 160.662 1.67742C160.404 1.64316 160.75 1.6185 160.784 1.58513C160.785 1.58507 160.785 1.58501 160.786 1.58495ZM94.3996 1.54333C95.6511 1.50709 95.8882 1.52333 97.1488 1.55294C97.3264 1.52092 95.8233 1.46546 94.8818 1.45342C94.7223 1.48354 94.5621 1.51353 94.3996 1.54333ZM390.4 1.99898C390.099 1.83392 387.882 1.81045 386.781 1.85724C386.912 1.88156 387.044 1.90623 387.175 1.93097C388.248 1.95345 389.326 1.97614 390.4 1.99898ZM218.785 1.69463C218.62 1.69709 218.464 1.69887 218.316 1.70017C218.481 1.70141 218.639 1.70008 218.785 1.69463ZM285.414 1.26969C284.889 1.15673 286.448 1.11753 284.555 1.16333C284.555 1.16322 284.555 1.16312 284.555 1.16301C283.304 1.19305 283.028 1.20089 281.868 1.21032C282.286 1.35356 284.638 1.40601 281.396 1.43506C281.353 1.43518 281.438 1.34977 280.92 1.36149C280.76 1.36515 280.249 1.43505 279.471 1.45504C279.219 1.4615 277.329 1.48217 279.905 1.48451C279.829 1.58397 279.967 1.6848 279.961 1.78138C280.967 1.81115 281.739 1.61628 282.803 1.62178C284.383 1.63045 285.187 1.83252 285.49 1.56912C284.162 1.50341 281.881 1.50157 281.584 1.65746C280.299 1.6579 279.93 1.5305 280.966 1.46763C285.404 1.5501 282.184 1.27665 286.071 1.37995C286.117 1.41669 286.276 1.4563 286.252 1.49086C287.438 1.36157 285.601 1.30996 285.414 1.26969ZM276.133 1.54442C276.9 1.61985 277.664 1.69651 278.428 1.77346C278.428 1.65025 278.007 1.53912 276.798 1.46975C276.578 1.49479 276.354 1.51976 276.133 1.54442ZM340.636 1.62313C340.747 1.70514 341.041 1.78059 341.256 1.85904C341.489 1.79064 347.01 1.72917 344.201 1.65787C343.793 1.64791 341.305 1.79068 340.636 1.62313ZM85.7107 1.49696C86.3609 1.48404 87.0086 1.47078 87.6557 1.45723C86.6596 1.44735 85.6624 1.43754 84.6663 1.42811C85.0153 1.45078 85.3616 1.47374 85.7107 1.49696ZM196.977 1.46925C196.702 1.47085 197.614 1.53667 196.532 1.52559C197.339 1.5678 198.094 1.60402 198.882 1.64465C199.119 1.61384 199.357 1.58305 199.593 1.55202C199.777 1.57223 199.965 1.59239 200.149 1.61272C200.039 1.56695 199.94 1.52233 199.824 1.47594C198.496 1.57261 198.191 1.46195 196.977 1.46925ZM157.486 1.31032C157.247 1.38812 159.17 1.43543 157.278 1.44716C157.637 1.49851 158.214 1.52605 159.321 1.53176C159.499 1.5121 159.676 1.49251 159.854 1.47271C159.879 1.526 160.164 1.54597 160.786 1.58495C160.786 1.58489 160.787 1.58483 160.787 1.58476C162.471 1.59083 162.37 1.57284 162.775 1.48402C160.993 1.5329 160.94 1.45161 159.725 1.40393C158.891 1.3712 157.802 1.38581 157.486 1.31032ZM334.754 1.61697C336.014 1.75805 334.883 1.88841 337.119 1.74141C336.975 1.70542 336.83 1.66979 336.686 1.63389C336.042 1.62787 335.398 1.62228 334.754 1.61697ZM151.267 1.56987C151.411 1.45439 152.597 1.36314 152.8 1.55407C151.643 1.59132 152.208 1.48472 151.267 1.56987ZM215.469 1.34447C213.246 1.35282 213.666 1.53683 214.58 1.63094C214.721 1.59731 214.862 1.56356 215 1.53001C215.39 1.54565 215.779 1.56142 216.169 1.57702C215.936 1.49932 215.702 1.42167 215.469 1.34447ZM112.067 1.42544C113.766 1.48811 110.233 1.45811 111.419 1.49722C112.367 1.52902 113.616 1.46807 113.144 1.42842C112.816 1.42718 112.45 1.42626 112.07 1.42544C112.069 1.42544 112.068 1.42544 112.067 1.42544ZM121.9 1.4488C121.621 1.51993 122.023 1.49935 120.68 1.48542C120.297 1.48155 117.25 1.50486 118.529 1.4485C119.618 1.44916 120.768 1.44884 121.9 1.4488ZM241.171 1.54712C241.192 1.48525 238.846 1.35068 238.545 1.38435C238.545 1.38426 238.545 1.38417 238.545 1.38408C237.732 1.47473 240.207 1.48892 239.133 1.61354C241.51 1.50479 242.221 1.77471 242.056 1.41921C240.655 1.40344 241.318 1.47655 241.171 1.54712ZM419.507 1.54197C419.508 1.54198 419.509 1.54198 419.51 1.54198C419.352 1.54707 418.054 1.70292 418.212 1.75711C419.773 1.71214 419.495 1.60802 420.948 1.77951C421.028 1.72472 421.096 1.67155 421.182 1.61631C420.605 1.5834 420.286 1.51752 419.507 1.54197ZM346.605 1.44931C346.032 1.42618 344.985 1.52137 344.332 1.51535C346.411 1.88292 348.896 1.54252 346.605 1.44931ZM34.754 1.40643C34.7557 1.40644 34.7573 1.40646 34.7589 1.40647C34.7585 1.40645 34.7578 1.40643 34.7573 1.40641C34.7561 1.40641 34.7551 1.40642 34.754 1.40643ZM302.159 1.63234C302.233 1.61159 302.275 1.59354 302.29 1.57768C302.29 1.57618 302.29 1.57469 302.29 1.5732C302.25 1.59266 302.207 1.61234 302.159 1.63234ZM246.047 1.56949C247.024 1.48211 243.769 1.34287 242.716 1.37618C242.79 1.41557 242.801 1.45126 242.973 1.49662C243.822 1.39448 245.884 1.58366 246.047 1.56949ZM171.825 1.48899C174.398 1.48834 171.049 1.24621 170.911 1.43824C170.917 1.4419 171.759 1.48856 171.825 1.48899ZM225.753 1.52042C225.098 1.42426 226.415 1.39919 224.308 1.41535C224.186 1.44001 224.063 1.4647 223.941 1.48929C224.545 1.49954 225.149 1.51001 225.753 1.52042ZM188.683 1.15231C191.922 1.19234 195.02 1.27333 192.91 1.49955C192.665 1.49213 192.416 1.48498 192.171 1.47762C192.134 1.3677 191.23 1.42764 189.906 1.43067C189.717 1.38749 188.983 1.37755 188.845 1.34117C188.579 1.27098 189.422 1.22069 188.683 1.15231ZM51.9439 1.36344C51.996 1.3685 52.047 1.37359 52.0992 1.37863C52.6113 1.38438 53.1251 1.39028 53.6372 1.39637C53.5545 1.3863 53.4715 1.37627 53.3888 1.36629C52.9075 1.3653 52.4285 1.36434 51.9472 1.36341C51.9461 1.36342 51.9449 1.36343 51.9439 1.36344ZM272.977 1.21324C273.271 1.50677 272.243 1.45136 270.157 1.30498C271.096 1.27471 272.038 1.24413 272.977 1.21324ZM136.638 1.27375C136.57 1.3155 136.504 1.35705 136.434 1.39867C135.326 1.35517 135.532 1.30835 136.063 1.25287C136.256 1.25978 136.445 1.26678 136.638 1.27375ZM120.689 1.27012C121.148 1.26201 120.914 1.29202 120.962 1.29138C122.124 1.27492 122.288 1.26062 123.714 1.28239C123.889 1.29026 124.061 1.29858 124.235 1.30676C123.576 1.38632 123.097 1.3434 121.702 1.38932C121.954 1.36266 122.204 1.33579 122.456 1.30868C121.68 1.31479 120.907 1.32071 120.131 1.3266C120.039 1.31852 119.947 1.31053 119.855 1.30248C120.131 1.29189 120.416 1.27992 120.689 1.27012ZM46.0206 1.37775C45.266 1.37889 44.508 1.38002 43.7535 1.38105C43.7259 1.37416 43.6994 1.36723 43.6718 1.36037C44.4537 1.36585 45.2386 1.37165 46.0206 1.37775ZM288.468 1.34513C288.528 1.36124 288.587 1.37746 288.638 1.39396C288.633 1.37385 288.568 1.35816 288.468 1.34513ZM421.497 1.17868C422.353 1.13182 423.586 1.16165 424.524 1.15138C424.451 1.31916 422.065 1.27345 421.228 1.37441C421.093 1.34455 421.136 1.19841 421.497 1.17868ZM212.393 1.35232C212.178 1.31048 211.964 1.26898 211.752 1.2274C211.234 1.23226 210.714 1.23735 210.193 1.24215C210.178 1.20825 210.163 1.17406 210.147 1.14017C212.444 1.18185 211.915 1.08439 213.052 0.984671C212.831 1.10753 212.614 1.23001 212.393 1.35232ZM22.0132 1.35481C23.6725 1.35543 24.2611 1.36042 23.3257 1.37208C22.7401 1.36961 22.151 1.36734 21.5654 1.36526C21.7156 1.36185 21.866 1.35836 22.0132 1.35481ZM318.688 1.22559C320.077 1.28287 320.1 1.07473 321.457 1.19021C320.73 1.22913 320.004 1.26823 319.28 1.30663C319.085 1.27963 318.884 1.25249 318.688 1.22559ZM250.586 0.810906C251.172 0.752371 252.267 1.02149 253.914 0.817422C254.306 0.87666 254.552 0.933732 254.89 0.992304C255.086 0.927736 255.309 0.862138 255.496 0.797777C255.497 0.797774 255.498 0.797772 255.499 0.797769C256.993 0.816151 256.024 0.89945 256.058 0.967781C256.074 0.996187 257.183 0.946871 256.836 1.00941C256.238 1.11661 254.003 1.05821 253.997 1.18656C254.782 1.14393 256.316 1.17781 255.862 1.26447C255.365 1.35908 253.92 1.20174 253 1.28014C254.319 1.07458 251.595 1.14068 251.286 1.2964C249.688 1.17764 251.156 1.12824 252.794 1.13201C251.794 1.01303 253.266 1.07632 253.508 0.975756C252.477 0.916946 248.939 0.973571 250.586 0.810906ZM175.194 1.13463C176.298 1.1387 178.024 1.08764 178.78 1.1583C179.22 1.19977 177.491 1.23334 178.683 1.29809C177.607 1.29214 177.362 1.26693 177.546 1.20968C177.301 1.20305 177.052 1.19662 176.807 1.19022C176.694 1.20144 176.577 1.21249 176.464 1.22367C176.335 1.20042 176.205 1.17742 176.08 1.15427C175.819 1.15919 175.556 1.1641 175.295 1.16915C175.265 1.15752 175.212 1.14744 175.194 1.13463ZM358.558 1.2138C358.252 1.21256 357.948 1.21132 357.641 1.20974C357.675 1.1817 357.715 1.1525 357.754 1.12367C357.782 1.10089 357.81 1.0781 357.838 1.05531C357.66 1.13702 356.199 1.27232 355.584 1.18619C355.274 1.14315 355.978 0.988648 354.667 0.963383C355.617 0.970151 356.498 0.990166 357.421 1.00233C357.338 0.956485 357.258 0.91018 357.176 0.864402C357.176 0.864334 357.177 0.864265 357.177 0.864196C357.484 0.853407 357.794 0.842089 358.101 0.831245C358.254 0.958679 358.405 1.08604 358.558 1.2138ZM137.537 1.19009C138.583 1.22336 138.933 1.24157 138.439 1.29834C138.438 1.29837 138.437 1.2984 138.436 1.29842C138.046 1.27364 137.657 1.24907 137.267 1.22471C137.356 1.21321 137.445 1.20164 137.537 1.19009ZM297.478 0.943798C299.701 1.40297 294.694 1.12376 295.647 0.967688C295.69 0.960435 297.269 0.994954 297.478 0.943798ZM215.878 1.24158C215.267 1.23925 214.656 1.23721 214.042 1.23493C214.183 1.19409 214.328 1.15332 214.469 1.11232C214.938 1.15505 215.408 1.19828 215.878 1.24158ZM29.2376 1.32698C29.8801 1.31363 31.5291 1.30446 32.335 1.31791C31.9118 1.32044 31.4882 1.32289 31.065 1.32528C31.8652 1.32559 32.6564 1.32623 33.4628 1.3267C33.5057 1.34646 32.5765 1.33615 31.1778 1.34298C30.9613 1.34436 29.5767 1.36724 29.0987 1.35128C29.0025 1.34815 30.4753 1.34411 29.4518 1.33558C29.8994 1.33418 30.2856 1.3338 30.7087 1.33275C30.7393 1.32837 30.7698 1.32398 30.8035 1.31957C30.2804 1.32212 29.7608 1.3246 29.2376 1.32698ZM181.624 1.13412C183.141 1.12609 183.328 1.16911 183.644 1.24568C182.939 1.23749 182.233 1.22953 181.527 1.22154C181.561 1.19248 181.59 1.16339 181.624 1.13412ZM42.7973 1.29801C43.6278 1.29351 43.2722 1.3089 43.6064 1.3112C44.8699 1.32011 45.7319 1.308 46.98 1.31328C46.8971 1.31031 46.8211 1.30754 46.7413 1.30469C46.7424 1.30468 46.7435 1.30468 46.7446 1.30468C52.6548 1.2812 49.5504 1.32487 46.014 1.32235C45.9312 1.32828 45.8516 1.33417 45.7688 1.33999C44.1862 1.33109 42.7268 1.32377 42.7973 1.29801ZM277.722 0.957849C277.789 0.935703 277.216 0.796965 278.292 0.860424C279.145 1.06371 277.746 0.964333 277.396 1.04321C277.688 1.06243 277.986 1.08116 278.274 1.1005C276.532 1.15978 276.278 1.11172 276.913 0.962225C276.958 0.952144 277.654 0.979872 277.722 0.957849ZM289.171 0.835783C289.411 1.14879 287.212 1.01028 287.292 0.913943C287.595 0.909579 287.831 0.961998 288.153 0.938167C288.478 0.914295 288.561 0.841159 289.171 0.835783ZM226.18 1.01359C226.244 1.01247 226.891 0.908113 226.827 0.989031C226.027 1.18141 224.414 1.06026 224.696 0.994213C225.229 0.996545 225.585 1.02453 226.18 1.01333C226.18 1.01342 226.18 1.01351 226.18 1.01359ZM19.2313 1.33918C19.262 1.33862 20.8765 1.3315 21.0849 1.33462C21.2565 1.33831 21.3418 1.34254 21.4706 1.34661C20.5811 1.34399 18.7807 1.34966 19.2346 1.33917C19.2335 1.33917 19.2325 1.33917 19.2313 1.33918Z" fill="#A1A1A1"/>
<path d="M35.5794 1.51092C34.6114 1.52189 37.843 1.52555 35.6971 1.53898C36.1446 1.54253 36.5948 1.5462 37.0423 1.54986C37.1559 1.54176 37.272 1.53362 37.3856 1.52537C36.7846 1.52042 36.1834 1.51559 35.5794 1.51088C35.5794 1.51089 35.5794 1.51091 35.5794 1.51092ZM34.7589 1.40647C35.3096 1.4297 37.0594 1.44025 35.1692 1.45796C35.0189 1.44959 34.8651 1.44133 34.7148 1.43317C34.0586 1.43825 33.3982 1.44296 32.742 1.44731C32.506 1.44396 32.2703 1.44066 32.0342 1.43747C31.7338 1.44959 31.4358 1.46139 31.1353 1.47283C31.4022 1.47184 31.6726 1.47079 31.9394 1.46972C32.9944 1.4831 33.9331 1.48936 35.3653 1.49627C35.2396 1.49916 35.1135 1.50198 34.9878 1.5048C35.7147 1.50188 36.4411 1.4986 37.1649 1.49497C36.5363 1.48715 35.8334 1.47881 35.2509 1.4721C36.1831 1.45254 37.8274 1.46824 38.6833 1.47573C39.8488 1.48567 39.5855 1.47332 40.4502 1.48044C40.5883 1.48158 40.6039 1.49101 40.8768 1.49195C42.254 1.49681 44.9287 1.49841 43.3645 1.471C41.0978 1.46867 39.1647 1.44755 36.941 1.44947C37.5293 1.42735 36.3577 1.41739 34.7589 1.40647ZM76.399 1.59375C75.7122 1.56864 74.3132 1.57466 73.3655 1.58731C73.3643 1.58731 73.3632 1.58731 73.3622 1.5873C73.1536 1.59017 72.6812 1.61802 73.3622 1.61907C74.4722 1.62089 75.0089 1.57472 75.5916 1.6089C75.8523 1.60364 76.1261 1.59903 76.399 1.59375ZM78.8115 1.60356C79.4924 1.59322 79.1836 1.5544 78.331 1.56268C78.331 1.56265 78.331 1.56262 78.331 1.56259C77.9753 1.566 78.6736 1.59713 77.3977 1.56413C77.1372 1.58659 76.8805 1.60676 76.623 1.62804C76.9354 1.62944 77.2203 1.63098 77.5481 1.63236C77.3276 1.59365 78.1309 1.61369 78.8115 1.60356ZM44.5152 1.48552C44.6223 1.50543 44.1739 1.50423 43.4102 1.51515C44.131 1.51682 44.8518 1.51841 45.5694 1.52C45.2168 1.50824 44.8678 1.49678 44.5152 1.48552ZM27.5836 1.44611C27.5824 1.44611 27.5813 1.44611 27.5803 1.4461C27.3441 1.44359 27.1073 1.44112 26.8742 1.43874C26.7331 1.44265 26.5936 1.44648 26.4525 1.45025C25.6182 1.44403 24.7794 1.43817 23.9452 1.43266C24.0465 1.4444 25.5441 1.44647 26.3691 1.45779C27.5959 1.45777 28.187 1.45147 28.2668 1.44009C28.0399 1.44215 27.8135 1.44418 27.5836 1.44611ZM228.223 1.51146C228.502 1.54205 228.778 1.57276 229.057 1.60357C228.686 1.61713 228.318 1.62735 227.943 1.64299C226.965 1.51 226.873 1.62673 225.591 1.61711C221.662 1.58724 222.705 1.39168 219.156 1.67781C222.005 1.66791 220.911 1.80278 222.628 1.9128C222.984 1.83231 221.282 1.64777 222.435 1.61147C224.423 1.69907 226.333 1.78308 228.538 1.84434C228.474 1.85856 228.41 1.87282 228.346 1.88701C227.996 1.87719 227.649 1.86735 227.3 1.85761C227.677 1.89662 228.046 1.93547 228.429 1.97531C227.944 1.88697 229.179 1.93869 229.014 1.83788C228.94 1.793 228.395 1.73012 228.073 1.68719C228.904 1.66519 229.756 1.64491 230.596 1.62309C230.161 1.58677 229.726 1.55062 229.294 1.5147C228.938 1.51338 228.585 1.51239 228.23 1.51107C228.227 1.5112 228.225 1.51133 228.223 1.51146ZM407.094 2.44285C406.039 2.25511 404.122 2.22174 403.113 2.42278C404.441 2.42934 405.766 2.43623 407.094 2.44285ZM28.3469 1.43074C28.2274 1.4327 28.1116 1.43462 27.9922 1.43653C28.5196 1.44165 29.0502 1.44698 29.5776 1.45256C29.6788 1.44622 29.7823 1.43982 29.8865 1.43338C29.3744 1.4325 28.8589 1.43163 28.3469 1.43074ZM62.0924 1.5102C61.7066 1.50854 61.6723 1.50893 61.1918 1.50984C61.1924 1.50983 61.1929 1.50982 61.1935 1.50981C61.0029 1.51018 59.4091 1.51445 59.5867 1.52503C60.3781 1.52717 61.2222 1.52909 62.0319 1.5311C62.0565 1.52415 62.0618 1.51721 62.0924 1.5102ZM52.7775 1.4955C52.7764 1.49552 52.7753 1.49554 52.7742 1.49556C52.4863 1.49629 52.2133 1.49844 51.9161 1.49824C52.9862 1.51499 53.1554 1.48977 54.1276 1.49922C55.0997 1.50875 55.7004 1.52575 56.5254 1.49001C56.2186 1.48377 55.8884 1.47518 55.5724 1.46822C54.1924 1.48058 53.8207 1.46586 52.7137 1.45055C52.7352 1.46555 52.756 1.48047 52.7775 1.4955ZM210.731 1.78439C210.467 1.71472 210.173 1.78206 210.142 1.78277C210.143 1.78285 210.143 1.78294 210.144 1.78302C207.808 1.71481 210.448 1.82187 208.243 1.82787C208.571 1.84568 208.894 1.86451 209.219 1.88267C209.722 1.85075 210.24 1.81418 210.731 1.78439ZM134.82 1.64177C134.799 1.65462 134.773 1.66749 134.752 1.68033C136.077 1.68014 136.415 1.73258 137.516 1.68812C136.617 1.67227 135.719 1.65679 134.82 1.64162C134.82 1.64167 134.82 1.64172 134.82 1.64177ZM68.7709 1.47669C67.3017 1.46195 66.2149 1.45589 64.804 1.47267C64.8029 1.4727 64.8018 1.47272 64.8007 1.47274C64.7194 1.47376 65.1129 1.48738 65.0067 1.49049C64.7156 1.48804 64.415 1.48455 64.1208 1.48178C64.081 1.49199 64.043 1.50219 64.0031 1.5123C64.8312 1.51114 65.6597 1.50988 66.4908 1.5085C66.3681 1.51449 66.2425 1.52038 66.1198 1.5263C66.8251 1.53109 67.5278 1.53596 68.2331 1.54095C67.9879 1.52244 67.7431 1.50411 67.5009 1.48593C67.9239 1.48289 68.3478 1.47993 68.7709 1.47669ZM156.879 1.5209C156.646 1.53702 157.078 1.56497 156.716 1.57861C156.354 1.59201 155.687 1.56075 155.843 1.60688C156.33 1.61376 156.842 1.62166 157.339 1.62899C155.741 1.70952 154.147 1.63152 154.122 1.73272C155.656 1.71001 156.917 1.72459 158.401 1.75695C158.34 1.67398 156.855 1.60106 157.79 1.52515C157.489 1.5238 157.174 1.52195 156.883 1.52108C156.882 1.52102 156.88 1.52096 156.879 1.5209ZM6.88282 1.34507C5.97492 1.34935 3.89471 1.35842 2.74755 1.36458C2.46533 1.36632 1.5251 1.3719 1.52988 1.37186C1.55744 1.37228 2.70576 1.36945 1.47594 1.37317C1.88965 1.37211 2.29119 1.37112 2.70181 1.3701C2.62818 1.37107 2.55494 1.37197 2.48439 1.3728C1.98449 1.37353 1.48388 1.37432 0.983935 1.37518C0.959472 1.37532 0.934918 1.37545 0.910409 1.37557C2.70782 1.37289 1.64677 1.37497 2.57922 1.37489C1.72057 1.37603 0.855563 1.37671 0 1.37695C0.493797 1.37681 1.0764 1.37662 1.5119 1.37644C1.57017 1.37722 0.531095 1.37696 0.353049 1.377C-0.649876 1.37685 4.45621 1.37816 4.87401 1.38226C4.05841 1.38176 3.20245 1.38101 2.36837 1.38009C2.60755 1.38061 2.85 1.38121 3.08918 1.38186C4.98141 1.3832 7.10337 1.38401 9.30837 1.38269C9.50761 1.383 9.70716 1.38333 9.90335 1.38365C9.8451 1.3858 9.78989 1.38791 9.73173 1.38999C10.0322 1.39064 10.3367 1.39133 10.6372 1.39203C9.75103 1.38328 10.9783 1.38523 12.4597 1.38012C11.6716 1.37682 10.6993 1.37861 10.7664 1.37347C13.4714 1.3775 16.6391 1.36889 19.2706 1.37578C19.9238 1.37768 19.9217 1.38996 21.4575 1.38983C21.4054 1.38835 21.3964 1.38573 21.3627 1.38382C24.0189 1.39089 25.6305 1.39788 28.391 1.39092C28.2315 1.39712 28.0748 1.40324 27.9153 1.40923C27.3295 1.40548 26.7427 1.40187 26.1599 1.39851C25.7613 1.40764 26.3504 1.41254 24.6023 1.41008C23.1699 1.40808 24.0226 1.40537 23.633 1.40234C23.1056 1.39837 22.6426 1.40451 22.0753 1.40018C21.6367 1.39696 22.1112 1.39079 20.9672 1.39164C21.4273 1.40014 21.8966 1.40948 22.3597 1.41919C22.6389 1.41775 22.9159 1.41621 23.1949 1.4146C22.9128 1.41172 22.6354 1.40897 22.3532 1.40626C23.3468 1.41177 24.2858 1.41745 25.3133 1.42428C24.9789 1.40951 26.0409 1.41637 26.6176 1.41911C27.5158 1.42334 26.7463 1.41167 27.3351 1.41425C27.9239 1.41674 28.5591 1.43013 29.6234 1.42942C29.053 1.42107 29.8289 1.41564 29.679 1.4085C29.5287 1.40137 28.4029 1.39924 29.4845 1.39248C31.5639 1.39968 29.3075 1.42418 30.7119 1.43054C32.3988 1.43944 32.8002 1.39256 32.2974 1.38239C31.9018 1.37448 30.5402 1.37608 30.1415 1.36885C32.5799 1.35429 32.601 1.38184 33.0182 1.38774C34.5334 1.40909 33.5155 1.35306 35.3098 1.3732C35.2761 1.36236 35.2486 1.35263 35.215 1.34229C35.5245 1.34396 35.7301 1.34643 36.1041 1.34773C35.0011 1.3699 35.904 1.36836 36.3672 1.36838C37.0973 1.36833 35.9697 1.37912 36.163 1.38178C36.6844 1.38916 37.509 1.38617 37.0031 1.39573C37.23 1.3913 37.4761 1.38678 37.7092 1.38223C38.562 1.38735 40.5664 1.44047 38.6588 1.42782C38.8367 1.44648 39.4538 1.43873 39.9353 1.43649C40.4167 1.43428 40.4078 1.44652 40.831 1.44496C42.5147 1.43849 41.4133 1.41479 41.1465 1.39818C43.3701 1.4113 41.1931 1.41715 44.3975 1.42885C44.7073 1.44418 43.2267 1.45704 44.4596 1.46788C44.6867 1.44282 45.5945 1.42552 47.3641 1.4179C47.5359 1.42432 47.7072 1.43086 47.8789 1.43742C48.8451 1.41317 48.3512 1.38491 50.1394 1.41896C49.1793 1.35782 49.8395 1.39736 51.4405 1.37219C51.7656 1.36697 51.0143 1.35431 51.4683 1.34755C51.674 1.34443 52.1736 1.35408 52.6762 1.34611C52.9215 1.34233 54.0687 1.31613 54.8631 1.32739C54.2804 1.35965 55.7896 1.38738 54.4953 1.41345C56.8877 1.40858 58.5621 1.42452 55.8814 1.37869C56.4887 1.36877 57.0965 1.35857 57.7038 1.34807C58.127 1.35594 58.554 1.36392 58.9803 1.37209C59.0447 1.34363 58.98 1.33558 60.6475 1.33961C59.924 1.33315 59.2035 1.32681 58.4769 1.32079C58.4524 1.31511 58.3513 1.30931 58.3756 1.30376C59.2655 1.31341 61.7712 1.31577 62.3784 1.3233C62.9857 1.33085 61.813 1.33393 61.9878 1.34151C63.4444 1.4051 63.329 1.35804 64.3741 1.36886C64.9876 1.37558 63.5229 1.38284 63.8511 1.38566C65.068 1.39645 65.6324 1.36094 66.7115 1.36002C66.3282 1.3808 65.948 1.40154 65.5739 1.4218C66.7057 1.42152 67.9673 1.42205 69.0194 1.4297C69.4323 1.43271 69.1202 1.44842 69.1877 1.44954C69.5223 1.45532 70.884 1.4658 71.0281 1.46608C72.1134 1.46762 72.1442 1.44464 73.1987 1.44428C72.7848 1.44192 72.3956 1.43981 71.9909 1.43759C71.8068 1.40016 71.6191 1.36302 71.4351 1.32609C72.4686 1.32267 73.5024 1.31918 74.539 1.31552C73.7815 1.32903 73.0213 1.34209 72.2638 1.35482C73.4477 1.38469 74.6317 1.41611 75.8155 1.44902C76.432 1.43013 77.046 1.41076 77.6625 1.39091C79.3367 1.39623 78.9996 1.47935 79.7938 1.40702C80.2874 1.41337 80.7811 1.41984 81.2747 1.42634C81.2042 1.4157 81.1344 1.40506 81.0638 1.39448C81.659 1.40111 82.2536 1.40783 82.8487 1.41483C82.2231 1.45281 81.6098 1.49189 80.9903 1.52704C82.1613 1.53745 82.1837 1.50534 82.3584 1.49752C82.8215 1.47675 83.7409 1.50709 84.1089 1.48753C84.2333 1.48068 83.0858 1.45789 83.4813 1.43348C83.5585 1.42917 85.0948 1.33697 86.0752 1.3579C86.0568 1.37495 85.981 1.39584 85.9412 1.41433C87.2595 1.42569 87.9319 1.33501 87.7571 1.30952C88.4595 1.32681 89.486 1.32781 89.6302 1.35619C89.989 1.3568 90.3452 1.35738 90.704 1.35801C90.3301 1.28837 91.8268 1.29963 91.925 1.36079C91.3085 1.36241 90.6913 1.36408 90.0748 1.36563C90.541 1.43894 88.6675 1.48302 92.5657 1.41632C93.3111 1.37737 91.2409 1.4212 91.8482 1.3922C92.9032 1.37528 93.8937 1.38986 94.8965 1.36189C96.1444 1.32665 94.609 1.29284 97.5166 1.33675C91.1032 1.45019 98.3962 1.41304 101.408 1.45249C102.236 1.33619 104.78 1.29436 108.283 1.32966C107.918 1.36471 106.816 1.34698 106.181 1.35847C105.546 1.36979 106.233 1.39012 105.442 1.40587C104.651 1.42161 102.971 1.44206 102.17 1.46459C102.848 1.48353 106.196 1.53271 103.983 1.4761C105.635 1.44439 106.411 1.40958 108.459 1.40355C109.073 1.45839 109.027 1.49267 111.024 1.49647C109.843 1.41829 112.112 1.36509 111.612 1.28413C110.197 1.30397 110.988 1.38132 110.169 1.41828C110.085 1.4219 108.766 1.4022 108.459 1.40355C109.791 1.33538 110.251 1.30805 109.432 1.2269C110.374 1.23285 110.959 1.2216 111.045 1.26132C111.241 1.24385 111.439 1.22627 111.632 1.20862C111.938 1.20859 112.214 1.20979 112.539 1.20898C112.092 1.2704 112.959 1.23177 113.575 1.25888C114.192 1.28625 113.365 1.33529 115.058 1.33535C114.493 1.35011 113.978 1.36261 113.432 1.3762C114.523 1.39198 115.619 1.40831 116.71 1.42499C115.944 1.46348 114.282 1.51806 114.327 1.56758C114.83 1.54953 116.553 1.58563 116.741 1.5875C117.471 1.59403 117.073 1.56119 117.129 1.5605C118.276 1.54659 119.22 1.55916 119.656 1.50999C120.517 1.53344 121.167 1.52149 122.081 1.52382C122.584 1.52511 122.486 1.56239 122.781 1.55572C124.738 1.51111 122.873 1.45829 126.648 1.55753C126.191 1.58379 125.74 1.61039 125.283 1.63631C125.71 1.64724 126.133 1.65832 126.56 1.66946C126.845 1.66523 127.128 1.66092 127.413 1.65662C127.407 1.59789 127.399 1.53905 127.393 1.48034C127.706 1.4774 128.02 1.47452 128.333 1.47153C127.796 1.4653 127.258 1.45916 126.722 1.45308C126.672 1.44278 126.627 1.43248 126.578 1.4222C127.375 1.40659 128.17 1.39053 128.967 1.37419C128.983 1.39486 128.998 1.41569 129.013 1.43638C130.81 1.40843 130.853 1.38974 132.562 1.44896C133.877 1.44878 134.949 1.53963 135.71 1.57926C135.982 1.56748 136.256 1.55546 136.532 1.54354C136.707 1.56195 136.883 1.58036 137.058 1.59892C137.405 1.57406 137.756 1.54901 138.102 1.52389C138.296 1.58222 138.396 1.60083 137.043 1.61873C137.506 1.69129 139.887 1.66509 140.857 1.64191C141.592 1.62441 140.776 1.56138 140.868 1.55412C141.175 1.52905 142.387 1.55246 142.641 1.54855C143.718 1.53201 144.472 1.53594 145.445 1.52292C145.634 1.52034 146.163 1.48039 146.208 1.47912C146.557 1.47248 147.421 1.45318 147.519 1.45263C152.581 1.42477 147.172 1.59965 151.879 1.58666C151.738 1.61052 151.609 1.63417 151.471 1.6579C151.826 1.66003 152.186 1.66209 152.541 1.66424C152.992 1.64487 152.447 1.60709 153.342 1.63831C153.284 1.60829 153.226 1.57828 153.164 1.54847C153.554 1.56504 153.929 1.58158 154.328 1.5984C154.954 1.49496 157.238 1.47209 157.076 1.34692C157.02 1.30423 155.401 1.26209 156.257 1.21629C156.952 1.20667 156.481 1.25774 156.765 1.26016C158.814 1.27735 158.695 1.20556 159.532 1.22392C159.664 1.25476 159.803 1.28627 159.937 1.31758C160.253 1.30835 160.57 1.29906 160.889 1.28972C160.962 1.31067 161.039 1.33166 161.113 1.35266C160.815 1.35411 160.48 1.35557 160.207 1.357C160.588 1.43753 164.083 1.47648 162.75 1.40574C162.208 1.37716 161.213 1.38942 161.842 1.29271C162.777 1.30613 163.838 1.32006 164.823 1.33398C164.854 1.31279 164.882 1.29156 164.913 1.27034C166.24 1.28328 165.033 1.36901 165.035 1.41423C165.339 1.41557 165.646 1.41676 165.949 1.41812C166.078 1.39749 166.2 1.37585 166.335 1.35576C166.347 1.38867 166.517 1.46544 167.422 1.43728C168.003 1.41876 167.087 1.33497 168.197 1.34642C168.114 1.39851 167.713 1.46137 168.948 1.47893C169.071 1.42451 169.241 1.37453 169.336 1.31708C170.872 1.36945 171.571 1.28382 173.375 1.34548C174.519 1.38422 176.086 1.52827 176.825 1.30778C177.662 1.30162 177.396 1.35683 177.644 1.3692C178.812 1.42817 179.682 1.32244 179.899 1.3159C181.288 1.27511 181.911 1.31202 183.043 1.2604C182.981 1.3027 182.948 1.3427 182.899 1.38387C181.862 1.32065 181.337 1.32418 179.883 1.33784C180.371 1.34608 180.858 1.35457 181.346 1.36294C181.266 1.39693 181.187 1.43088 181.111 1.4646C176.614 1.33097 177.663 1.53781 181.433 1.58871C181.758 1.52617 182.095 1.46346 182.417 1.40007C184.594 1.49673 185.619 1.414 188.082 1.39329C188.374 1.39091 189.441 1.42881 189.899 1.43088C189.892 1.43113 189.884 1.43138 189.876 1.43163C190.162 1.49395 189.775 1.52241 189.729 1.57785C189.978 1.58508 190.226 1.5923 190.475 1.59958C191.029 1.5577 190.834 1.52242 191.926 1.53348C191.779 1.57601 191.633 1.61844 191.486 1.66077C192.683 1.66413 193.465 1.61849 194.579 1.64019C194.392 1.62358 194.207 1.60698 194.02 1.59046C196.443 1.5513 194.514 1.29426 196.346 1.42208C196.462 1.39973 196.576 1.37713 196.692 1.3547C195.938 1.34927 195.183 1.34408 194.432 1.33878C194.416 1.30742 194.4 1.27621 194.388 1.24487C195.194 1.25371 196.005 1.26296 196.811 1.27204C196.223 1.25106 195.63 1.23024 195.041 1.20964C195.977 1.19376 196.912 1.17766 197.848 1.16135C196.854 1.27942 198.142 1.29278 197.9 1.40925C199.556 1.31312 200.857 1.18163 203.425 1.26353C203.934 1.27987 203.657 1.3641 205.102 1.26119C204.752 1.39494 206.562 1.45834 206.329 1.58661C205.826 1.57992 205.305 1.57554 204.817 1.56757C205.372 1.52402 205.464 1.40194 204.621 1.36604C203.545 1.3205 201.974 1.40391 202.039 1.27098C201.609 1.27745 201.21 1.28131 200.793 1.28673C200.965 1.31942 201.133 1.3524 201.301 1.38526C200.115 1.33377 199.369 1.35104 198.799 1.43261C200.213 1.45183 201.623 1.47125 203.037 1.49106C202.829 1.49663 202.618 1.50222 202.41 1.50755C203.48 1.59362 202.376 1.67308 204.373 1.69443C204.36 1.65513 204.35 1.61581 204.338 1.57632C205.065 1.68199 207.055 1.68496 206.421 1.80593C207.022 1.76969 207.144 1.74593 207.485 1.81275C209.07 1.72304 210.089 1.60429 209.524 1.46176C210.113 1.48487 210.702 1.5082 211.288 1.5317C210.948 1.57063 210.607 1.6092 210.267 1.64776C211.291 1.64664 212.323 1.64553 213.344 1.64455C213.442 1.52757 211.372 1.60708 211.97 1.50357C212.089 1.48275 212.64 1.52786 212.785 1.51618C214.313 1.3891 211.915 1.48039 212.365 1.38293C214.641 1.35289 212.82 1.18766 215.955 1.32582C216.037 1.29159 216.126 1.25662 216.203 1.22253C217.291 1.21965 217.203 1.29739 218.138 1.31188C218.724 1.32109 219.459 1.18276 220.106 1.27643C220.221 1.29396 219.133 1.4624 221.42 1.45585C223.195 1.45069 222.456 1.32972 223.416 1.2865C224.376 1.24253 226.572 1.41234 227.219 1.21841C226.717 1.24444 226.076 1.25859 225.518 1.27974C225.291 1.24236 225.07 1.2055 224.846 1.16857C226.122 1.21585 227.441 1.1573 228.3 1.24706C230.002 1.10714 231.906 1.2345 231.391 1.39349C230.83 1.37065 231.44 1.30172 230.662 1.34573C230.582 1.38251 230.498 1.41907 230.418 1.45578C231.743 1.45182 232.663 1.45298 232.059 1.34012C232.265 1.33739 232.468 1.33467 232.674 1.33193C232.71 1.41375 232.743 1.49591 232.78 1.57781C233.025 1.58724 233.272 1.59663 233.517 1.60612C233.79 1.58835 234.063 1.57031 234.339 1.55218C233.968 1.42141 233.336 1.41774 235.428 1.34441C235.434 1.38968 235.443 1.43476 235.449 1.48004C237.2 1.42323 237.247 1.3124 239.445 1.31589C237.758 1.15737 236.835 1.4389 236.842 1.12156C236.418 1.14284 235.992 1.16429 235.568 1.18534C235.504 1.13965 235.44 1.09393 235.379 1.0483C237.651 1.06742 241.426 1.37296 242.948 1.16716C243.132 1.19211 243.317 1.21382 243.504 1.24077C244.994 1.11468 245.638 1.39605 247.15 1.23267C247.306 1.21534 246.98 0.949603 248.948 0.955597C248.899 0.99056 248.874 1.04929 248.834 1.09331C249.26 1.07144 249.684 1.04846 250.107 1.02588C250.184 1.05814 250.264 1.09042 250.341 1.12298C249.614 1.13629 248.889 1.1497 248.162 1.1628C248.766 1.1733 249.374 1.18389 249.978 1.19456C249.19 1.24799 248.834 1.24847 249.309 1.33283C249.993 1.33777 250.678 1.34306 251.362 1.34808C251.433 1.3699 251.503 1.39199 251.573 1.41385C251.242 1.47893 250.907 1.54233 250.576 1.60787C252.358 1.55629 253.907 1.55482 255.275 1.4253C255.508 1.40339 254.684 1.31714 256.272 1.39497C256.297 1.34919 256.34 1.312 256.367 1.26965C258.312 1.39737 258.951 1.36023 260.978 1.26505C259.665 1.35341 260.837 1.29579 261.171 1.34294C261.4 1.37544 260.506 1.37067 260.607 1.40463C260.708 1.43819 261.87 1.57553 260.877 1.5912C258.441 1.31137 257.778 1.6428 254.649 1.50832C255.131 1.54375 255.616 1.57946 256.097 1.61529C255.871 1.63906 255.668 1.66058 255.422 1.68568C257.167 1.6341 256.319 1.66785 257.036 1.71121C257.753 1.75457 259.058 1.79293 259.932 1.80621C260.207 1.81036 259.917 1.74744 260.538 1.74249C260.962 1.73891 262.118 1.83408 262.385 1.7243C262.56 1.65235 260.702 1.45452 263.271 1.45577C263.755 1.38526 262.523 1.40703 262.496 1.39855C262.273 1.31507 263.852 1.25123 264.582 1.31536C264.641 1.32095 264.065 1.38661 264.692 1.41246C266.179 1.47443 267.038 1.39931 268.001 1.29563C268.106 1.41649 269.358 1.56238 270.916 1.51825C270.995 1.55335 271.071 1.58878 271.151 1.6242C270.909 1.60541 270.667 1.58692 270.425 1.56823C270.162 1.58999 269.882 1.60571 269.624 1.63126C271.191 1.66262 271.413 1.83208 272.164 1.89557C274.736 2.11353 273.177 1.65956 272.714 1.58228C272.379 1.61338 272.056 1.64802 271.725 1.68046C271.762 1.63771 271.799 1.59462 271.833 1.55157C275.682 1.55511 272.419 1.27313 274.373 1.19239C274.876 1.40438 276.311 1.42653 278.138 1.28938C278.341 1.29039 278.544 1.29061 278.746 1.29189C278.78 1.32337 278.78 1.37151 278.835 1.39227C281.037 1.42966 281.429 1.09375 281.638 1.06154C282.564 0.918976 283.285 1.11395 283.558 1.11561C284.709 1.12151 285.043 1.03331 286.138 1.06987C287.315 1.1096 286.51 1.17818 286.868 1.23858C287.156 1.28663 288.085 1.29494 288.468 1.34513C288.316 1.30407 288.146 1.26386 287.994 1.22278C289.215 1.16622 290.212 1.11041 291.598 1.09524C293.163 1.39888 294.493 0.882455 293.954 1.30165C292.641 1.33065 291.907 1.37832 291.205 1.48387C292.066 1.49769 292.929 1.51127 293.79 1.52533C294.042 1.47948 294.22 1.43468 294.518 1.38776C295.162 1.48572 296.655 1.44416 297.241 1.47322C299.986 1.60997 299.137 1.78161 301.642 1.49613C299.836 1.46734 299.839 1.32885 298.048 1.34815C298.435 1.24965 299.345 1.26949 298.756 1.15148C300.489 1.17937 299.928 1.28587 300.603 1.38011C301.184 1.46148 302.356 1.46652 302.29 1.57285C302.409 1.51447 302.502 1.45788 302.621 1.39944C303.744 1.40011 304.866 1.40023 305.988 1.40091C305.51 1.33909 305.032 1.27746 304.553 1.21651C304.915 1.1931 305.277 1.16969 305.639 1.14611C308.399 1.33785 313.159 0.977589 312.399 1.47047C313.73 1.4866 313.896 1.42477 314.62 1.33078C314.7 1.36845 314.777 1.3998 314.857 1.44179C315.716 1.40232 316.375 1.54463 317.132 1.50803C317.89 1.47161 318.078 1.33635 318.188 1.56358C318.679 1.4987 319.167 1.44458 319.654 1.38377C319.949 1.43562 320.243 1.48701 320.534 1.53884C320.994 1.51182 321.455 1.4848 321.915 1.45755C322.161 1.56735 323.97 1.5208 324.767 1.59556C325.524 1.47682 325.503 1.10003 327.284 1.16631C327.238 1.26023 327.193 1.35383 327.147 1.44767C327.555 1.42817 327.963 1.40865 328.374 1.389C328.399 1.35826 328.42 1.32751 328.445 1.29675C328.236 1.30632 328.03 1.31582 327.822 1.32566C328.003 1.27369 328.18 1.22188 328.358 1.16974C328.981 1.24642 329.604 1.32355 330.229 1.40111C329.386 1.45974 328.543 1.51796 327.699 1.57569C328.757 1.64551 329.494 1.57689 330.414 1.65509C331.215 1.52481 330.919 1.44874 330.594 1.30677C330.891 1.31884 331.192 1.33052 331.49 1.34266C331.293 1.20026 331.797 1.11501 330.058 1.12786C330.177 1.0873 330.299 1.04858 330.416 1.00635C330.701 1.01242 330.886 0.977919 331.199 0.993202C332.051 1.0349 332.705 1.28564 332.647 1.37381C332.615 1.4199 331.775 1.33181 331.808 1.39688C331.892 1.55529 333.82 1.48568 331.039 1.64298C331.962 1.74458 332.168 1.66889 333.186 1.64034C333.107 1.69335 333.029 1.74599 332.953 1.79893C333.425 1.7751 333.897 1.75124 334.37 1.72719C333.713 1.4541 337.195 1.34966 334.061 1.1117C334.987 1.0987 335.91 1.08554 336.833 1.07169C336.643 1.04356 336.452 1.01576 336.262 0.987718C335.845 1.00314 335.431 1.01827 335.014 1.03326C335.504 0.981305 335.996 0.929431 336.486 0.877029C337.646 0.939365 338.1 1.03779 338.631 1.15978C337.281 1.24977 337.722 1.12766 336.671 1.10445C336.708 1.18147 336.659 1.25235 336.751 1.33328C337.294 1.17348 339.066 1.28895 339.477 1.29695C340.728 1.32058 339.747 1.16255 340.584 1.15872C341.421 1.15473 342.409 1.24935 343.093 1.09045C343.081 1.17928 343.026 1.27118 342.977 1.35202C344.28 1.38117 344.02 1.27599 344.155 1.26232C346.308 1.03685 347.477 1.22526 349.94 1.24823C349.627 1.2764 349.311 1.30178 348.995 1.32812C350.853 1.5201 349.601 1.46163 347.988 1.52415C349.5 1.50543 350.366 1.66956 351.434 1.71964C352.501 1.76961 354.331 1.68679 355 1.62057C353.47 1.51273 351.819 1.58236 350.12 1.55218C350.313 1.45995 350.5 1.38178 350.7 1.28012C351.733 1.47419 352.332 1.34448 352.673 1.31836C353.672 1.24205 353.641 1.41016 354.245 1.22909C354.22 1.29136 354.202 1.34371 354.178 1.40186C356.242 1.3764 358.469 1.26383 359.812 1.49758C359.935 1.34571 360.027 1.19928 360.168 1.04398C361.042 1.15779 361.791 1.03981 362.527 1.06596C363.26 1.09233 362.981 1.21634 363.843 1.26385C364.002 1.27262 364.334 1.19468 364.727 1.25194C365.123 1.30899 366.585 1.74081 366.76 1.36387C367.499 1.36208 368.199 1.34822 368.923 1.34173C368.217 1.32041 367.512 1.29988 366.809 1.27881C367.41 1.18723 368.008 1.09547 368.609 1.00299C368.685 1.08482 368.762 1.16819 368.836 1.24906C370.455 1.34858 371.631 1.21376 373.265 1.24497C373.538 1.25032 372.894 1.41439 374.106 1.37256C375.317 1.33101 376.216 1.02181 378.28 1.13974C378.384 1.14574 378.996 1.38362 379.735 1.21845C379.903 1.18092 379.195 1.12602 379.581 1.07664C379.968 1.02724 381.692 0.985064 381.827 0.867099C381.808 0.908801 381.701 0.952104 381.649 0.994546C381.943 1.01416 382.24 1.03383 382.538 1.05316C382.565 0.979595 382.595 0.905906 382.623 0.832681C384.316 1.00121 385.191 1.28253 387.7 1.18817C386.994 1.29676 386.288 1.40519 385.586 1.51259C385.393 1.4369 385.199 1.36081 385.009 1.28535C383.853 1.31575 382.694 1.34566 381.538 1.37552C381.347 1.29037 381.161 1.20559 380.97 1.12069C380.664 1.13193 380.36 1.14281 380.053 1.154C380.13 1.21528 380.207 1.27626 380.287 1.33761C379.68 1.32261 379.072 1.30736 378.468 1.29251C379.698 1.6535 381.903 1.26132 381.743 1.56497C382.016 1.51792 382.29 1.47044 382.562 1.42282C382.682 1.57058 383.237 1.52841 384.215 1.50533C383.991 1.57838 383.744 1.65029 383.538 1.72384C384.489 1.62165 386.176 1.63262 387.16 1.59322C387.593 1.57587 387.161 1.46719 387.289 1.4545C387.949 1.38782 389.209 1.57797 389.473 1.56322C391.049 1.47493 392.074 1.11067 393.795 1.35034C392.019 1.40967 392.985 1.38467 392.353 1.51766C392.155 1.55943 389.861 1.64483 392.734 1.60797C393.071 1.60427 398.283 1.35186 396.57 1.15697C397.413 1.21857 398.074 1.29036 398.847 1.35659C400.736 0.83957 400.082 1.32542 399.533 1.59239C399.843 1.59372 400.138 1.59659 400.457 1.59677C399.779 1.31583 403.232 1.2971 404.404 1.44064C404.797 1.48847 403.699 1.57887 404.607 1.62233C405.039 1.60267 405.529 1.57708 405.986 1.55493C405.324 1.73484 406.624 1.80537 406.606 1.98935C407.437 1.82701 408.073 1.47862 407.616 1.28996C408.303 1.36619 408.993 1.44273 409.68 1.52014C409.361 1.56396 409.038 1.60729 408.719 1.65091C410.964 1.53543 413.851 1.80446 414.32 1.41128C414.618 1.41411 414.919 1.41656 415.216 1.4194C415.308 1.486 415.397 1.55277 415.489 1.61946C416.835 1.56246 418.178 1.5045 419.525 1.44637C418.326 1.40436 418.041 1.30921 416.784 1.38655C417.268 1.30968 417.761 1.23212 418.237 1.15472C420.129 1.36154 420.387 1.49981 423.237 1.43782C423.365 1.43519 425.518 1.25829 425.592 1.24077C425.929 1.16167 425.417 1.04725 425.567 1.00728C425.984 0.895582 428.519 0.609726 428.47 0.566791C427.851 0.0432435 419.322 0.065341 417.016 0.0462424C393.092 -0.137605 369.694 0.286317 345.921 0.297746C345.676 0.29771 345.783 0.235045 345.679 0.232717C345.032 0.219283 344.396 0.31819 344.157 0.322857C343.646 0.332637 343.927 0.2425 343.554 0.243666C339.695 0.257633 336.054 0.32075 332.192 0.318052C331.941 0.317887 332.198 0.38606 331.756 0.375205C331.528 0.369162 330.814 0.265907 330.3 0.266121C328.502 0.266813 326.993 0.305341 325.097 0.309921C324.06 0.312401 322.505 0.326243 321.346 0.328458C320.834 0.32944 320.301 0.284489 319.795 0.284687C319.077 0.285001 319.224 0.378805 319.113 0.385016C318.629 0.412065 318.562 0.308917 318.102 0.312945C317.246 0.32075 317.2 0.389576 316.114 0.387134C315.338 0.385209 313.562 0.337132 312.584 0.324812C310.295 0.410878 307.412 0.388416 305.277 0.370277C304.014 0.359496 303.897 0.452037 303.381 0.453277C301.566 0.456804 300.188 0.344759 298.483 0.347104C296.22 0.350231 294.214 0.432592 292.022 0.444769C291.666 0.446741 291.748 0.36543 291.399 0.364572C290.108 0.361424 288.456 0.352705 287.306 0.368151C286.024 0.385278 285.552 0.50192 284.297 0.482386C283.929 0.476594 283.822 0.376555 283.205 0.36593C282.221 0.34936 281.142 0.441026 280.455 0.452931C279.513 0.469033 280.332 0.365391 279.062 0.383425C279.01 0.384205 278.82 0.456679 278.547 0.454137C277.753 0.44707 277.832 0.390498 276.669 0.399984C276.558 0.401209 275.016 0.47412 274.863 0.474799C273.961 0.478875 272.146 0.508152 271.612 0.495683C269.704 0.451498 271.206 0.342445 269.584 0.574457C268.869 0.521121 268.161 0.467451 267.403 0.416706C267.909 0.464957 265.857 0.543505 265.713 0.539197C264.521 0.505787 265.231 0.416861 263.719 0.436547C265.716 0.629346 261.768 0.468439 260.888 0.467006C256.649 0.457715 252.797 0.519548 248.536 0.532462C247.11 0.536712 245.199 0.504056 243.69 0.510468C243.338 0.511772 243.604 0.554384 243.295 0.556372C242.986 0.558065 243.328 0.508069 242.976 0.5119C240.783 0.537027 239.065 0.632483 237.056 0.527034C236.958 0.543607 236.961 0.556417 236.799 0.574772C235.155 0.480482 231.989 0.625753 230.799 0.64691C228.938 0.680683 228.462 0.616538 227.11 0.634251C225.322 0.658011 222.637 0.791238 223.836 0.58068C222.609 0.578542 221.428 0.581147 220.19 0.604442C220.052 0.607071 220.147 0.658464 220.091 0.659711C219.742 0.668256 219.628 0.622408 219.392 0.621115C218.752 0.617599 219.796 0.669324 218.884 0.656913C218.402 0.650235 218.129 0.611101 216.791 0.615005C208.731 0.639126 199.98 0.68363 191.717 0.717771C191.149 0.720093 191.523 0.675289 190.811 0.680659C188.339 0.699824 183.914 0.785782 181.782 0.782794C179.651 0.78028 180.132 0.718822 178.798 0.698927C178.54 0.695068 178.751 0.728119 178.518 0.729484C176.951 0.738457 175.082 0.796937 173.813 0.808645C172.973 0.816527 173.04 0.764738 172.458 0.763159C171.59 0.761023 170.696 0.815621 170.233 0.8187C168.056 0.832837 166.559 0.79746 164.526 0.824856C164.605 0.8138 164.658 0.803625 164.725 0.792745C162.317 0.803034 159.913 0.81324 157.505 0.823375C157.619 0.813541 157.729 0.80362 157.842 0.793593C155.017 0.809326 155.34 0.908908 155.588 0.694747C155.383 0.688132 155.165 0.680412 154.969 0.674418C155.048 0.783831 153.34 0.870032 151.165 0.90371C151.006 0.90606 149.936 0.806271 150.052 0.927969C149.773 0.898952 149.607 0.878971 149.371 0.853668C148.911 0.892069 148.444 0.929715 147.985 0.967293C147.736 0.962549 147.484 0.958031 147.236 0.953342C147.199 0.929981 147.227 0.905519 147.148 0.882751C145.994 0.883217 143.629 0.919524 142.718 0.91942C140.455 0.918859 138.15 0.867846 136.389 0.937456C135.532 0.933784 136.384 0.888363 135.108 0.898245C134.964 0.920157 134.828 0.941089 134.678 0.963535C133.636 0.871689 133.418 0.930793 131.989 0.954718C131.023 0.97099 130.391 0.950335 129.471 0.957759C129.238 0.959644 129.271 0.986387 129.111 0.985994C128.577 0.984721 127.053 0.953059 126.676 0.953456C123.259 0.95538 120.324 0.969766 117.07 0.989438C116.72 0.99151 117.174 0.965991 116.812 0.968263C116.229 0.971893 116.572 1.00741 116.235 1.01028C115.294 1.018 115.287 0.979656 113.974 0.982282C109.653 0.991216 104.684 1.03519 100.169 1.0516C100.028 1.05206 100.037 1.03256 99.8833 1.0329C98.8837 1.03549 97.8717 1.06474 96.9641 1.06726C95.4581 1.07157 94.3263 1.0494 92.8387 1.05478C89.9309 1.0651 87.3332 1.08636 84.3426 1.09681C81.895 1.10548 79.7693 1.11044 77.0855 1.11951C65.3626 1.15547 53.4002 1.16622 41.5976 1.22615C41.2972 1.22761 41.4195 1.23428 41.3279 1.23429C40.4569 1.23419 40.3791 1.2253 40.0694 1.24583C38.9597 1.24556 38.6096 1.23275 37.2695 1.23879C36.5553 1.24197 37.0885 1.26078 35.8802 1.25426C34.7891 1.24856 35.9932 1.23378 32.7485 1.25655C32.6626 1.2572 32.2398 1.26985 31.5652 1.26923C30.8873 1.26882 31.6719 1.25815 30.0402 1.26211C26.2094 1.2722 21.3605 1.29827 16.9071 1.31287C16.628 1.31372 13.94 1.32127 13.4093 1.32244C12.3825 1.32445 12.597 1.32037 11.2632 1.32571C10.2326 1.32997 9.38234 1.3366 8.17077 1.34128C8.02962 1.34182 7.79331 1.34051 6.88282 1.34507ZM232.67 1.64877C232.922 1.71702 233.376 1.96963 234.897 1.89643C235.041 1.88933 234.263 1.71406 235.103 1.68751C234.281 1.66804 233.48 1.66115 232.67 1.64851C232.67 1.64859 232.67 1.64868 232.67 1.64877ZM0.290913 1.37761C1.42886 1.38014 2.5707 1.38251 3.70865 1.38468C2.92346 1.38256 2.13709 1.38074 1.35499 1.37924C0.999276 1.37889 0.646717 1.37835 0.290913 1.37761ZM141.945 1.62285C141.944 1.62285 141.943 1.62284 141.942 1.62284C143.138 1.64466 144.335 1.66702 145.531 1.68984C145.405 1.67466 145.279 1.65947 145.154 1.64437C144.209 1.61921 143.264 1.59454 142.323 1.57031C142.197 1.58787 142.071 1.60538 141.945 1.62285ZM132.495 1.46282C131.731 1.47842 131.918 1.50562 131.498 1.53147C131.498 1.53142 131.498 1.53137 131.498 1.53132C131.387 1.53805 130.87 1.54337 130.67 1.54413C130.744 1.52743 130.839 1.51094 130.919 1.49432C129.137 1.4537 125.652 1.58858 130.164 1.65502C130.096 1.63375 130.032 1.61263 129.964 1.59143C132.206 1.60165 134.706 1.55736 132.495 1.46282ZM250.699 1.78696C252.613 1.92342 253.226 1.95473 255.548 1.86624C255.22 1.82712 254.892 1.78816 254.564 1.74934C254.181 1.78788 253.8 1.82599 253.417 1.86418C253.416 1.86418 253.415 1.86417 253.414 1.86417C253.337 1.82314 253.26 1.78207 253.186 1.74112C252.358 1.75656 251.527 1.77185 250.699 1.78696ZM59.2304 1.43808C58.697 1.50016 58.8508 1.46368 60.3746 1.48054C60.9021 1.4865 60.388 1.49681 60.7162 1.49933C62.4884 1.51353 62.6302 1.46915 62.2346 1.44562C61.2317 1.44295 60.2182 1.44048 59.2337 1.43809C59.2326 1.43809 59.2315 1.43808 59.2304 1.43808ZM13.2475 1.3877C13.2464 1.3877 13.2453 1.3877 13.2442 1.3877C13.1982 1.39102 13.9127 1.39291 13.1069 1.39511C13.7199 1.39595 14.3329 1.39677 14.949 1.3976C14.7683 1.39699 14.5838 1.39641 14.4031 1.39582C14.5626 1.39475 14.7225 1.39362 14.882 1.39247C15.0997 1.39713 15.3021 1.39489 15.946 1.39397C15.7681 1.39885 15.5911 1.40357 15.4132 1.40811C16.1614 1.40816 16.9124 1.408 17.6606 1.40763C17.6698 1.40623 17.6792 1.40483 17.6884 1.40342C17.9705 1.40566 18.2497 1.40799 18.5318 1.4104C18.6085 1.40876 18.6823 1.40712 18.759 1.40544C19.0993 1.40732 19.4401 1.40927 19.7805 1.41131C19.8841 1.40687 19.134 1.4038 20.4637 1.40691C20.0558 1.40145 19.6488 1.3963 19.2379 1.39142C17.2412 1.39029 15.2442 1.38906 13.2475 1.3877ZM73.0925 1.47625C70.8935 1.47016 71.5127 1.48269 72.0219 1.52154C72.3776 1.50667 72.7368 1.49158 73.0925 1.47625ZM186.392 1.54299C187.03 1.61037 187.67 1.67777 188.324 1.74418C189.624 1.78483 190.925 1.66273 189.947 1.6126C188.769 1.5531 187.539 1.61634 186.392 1.54299ZM216.012 1.60383C214.421 1.63792 215.918 1.73124 216.277 1.78587C216.717 1.70037 217.33 1.70878 218.316 1.70017C217.391 1.69298 216.275 1.5979 216.012 1.60359C216.012 1.60367 216.012 1.60375 216.012 1.60383ZM160.786 1.58495C160.148 1.58236 159.514 1.56566 158.944 1.58428C159.116 1.63898 160.256 1.59118 159.441 1.67087C159.848 1.67301 160.257 1.67511 160.662 1.67742C160.404 1.64316 160.75 1.6185 160.784 1.58513C160.785 1.58507 160.785 1.58501 160.786 1.58495ZM94.3996 1.54333C95.6511 1.50709 95.8882 1.52333 97.1488 1.55294C97.3264 1.52092 95.8233 1.46546 94.8818 1.45342C94.7223 1.48354 94.5621 1.51353 94.3996 1.54333ZM390.4 1.99898C390.099 1.83392 387.882 1.81045 386.781 1.85724C386.912 1.88156 387.044 1.90623 387.175 1.93097C388.248 1.95345 389.326 1.97614 390.4 1.99898ZM218.785 1.69463C218.62 1.69709 218.464 1.69887 218.316 1.70017C218.481 1.70141 218.639 1.70008 218.785 1.69463ZM285.414 1.26969C284.889 1.15673 286.448 1.11753 284.555 1.16333C284.555 1.16322 284.555 1.16312 284.555 1.16301C283.304 1.19305 283.028 1.20089 281.868 1.21032C282.286 1.35356 284.638 1.40601 281.396 1.43506C281.353 1.43518 281.438 1.34977 280.92 1.36149C280.76 1.36515 280.249 1.43505 279.471 1.45504C279.219 1.4615 277.329 1.48217 279.905 1.48451C279.829 1.58397 279.967 1.6848 279.961 1.78138C280.967 1.81115 281.739 1.61628 282.803 1.62178C284.383 1.63045 285.187 1.83252 285.49 1.56912C284.162 1.50341 281.881 1.50157 281.584 1.65746C280.299 1.6579 279.93 1.5305 280.966 1.46763C285.404 1.5501 282.184 1.27665 286.071 1.37995C286.117 1.41669 286.276 1.4563 286.252 1.49086C287.438 1.36157 285.601 1.30996 285.414 1.26969ZM276.133 1.54442C276.9 1.61985 277.664 1.69651 278.428 1.77346C278.428 1.65025 278.007 1.53912 276.798 1.46975C276.578 1.49479 276.354 1.51976 276.133 1.54442ZM340.636 1.62313C340.747 1.70514 341.041 1.78059 341.256 1.85904C341.489 1.79064 347.01 1.72917 344.201 1.65787C343.793 1.64791 341.305 1.79068 340.636 1.62313ZM85.7107 1.49696C86.3609 1.48404 87.0086 1.47078 87.6557 1.45723C86.6596 1.44735 85.6624 1.43754 84.6663 1.42811C85.0153 1.45078 85.3616 1.47374 85.7107 1.49696ZM196.977 1.46925C196.702 1.47085 197.614 1.53667 196.532 1.52559C197.339 1.5678 198.094 1.60402 198.882 1.64465C199.119 1.61384 199.357 1.58305 199.593 1.55202C199.777 1.57223 199.965 1.59239 200.149 1.61272C200.039 1.56695 199.94 1.52233 199.824 1.47594C198.496 1.57261 198.191 1.46195 196.977 1.46925ZM157.486 1.31032C157.247 1.38812 159.17 1.43543 157.278 1.44716C157.637 1.49851 158.214 1.52605 159.321 1.53176C159.499 1.5121 159.676 1.49251 159.854 1.47271C159.879 1.526 160.164 1.54597 160.786 1.58495C160.786 1.58489 160.787 1.58483 160.787 1.58476C162.471 1.59083 162.37 1.57284 162.775 1.48402C160.993 1.5329 160.94 1.45161 159.725 1.40393C158.891 1.3712 157.802 1.38581 157.486 1.31032ZM334.754 1.61697C336.014 1.75805 334.883 1.88841 337.119 1.74141C336.975 1.70542 336.83 1.66979 336.686 1.63389C336.042 1.62787 335.398 1.62228 334.754 1.61697ZM151.267 1.56987C151.411 1.45439 152.597 1.36314 152.8 1.55407C151.643 1.59132 152.208 1.48472 151.267 1.56987ZM215.469 1.34447C213.246 1.35282 213.666 1.53683 214.58 1.63094C214.721 1.59731 214.862 1.56356 215 1.53001C215.39 1.54565 215.779 1.56142 216.169 1.57702C215.936 1.49932 215.702 1.42167 215.469 1.34447ZM112.067 1.42544C113.766 1.48811 110.233 1.45811 111.419 1.49722C112.367 1.52902 113.616 1.46807 113.144 1.42842C112.816 1.42718 112.45 1.42626 112.07 1.42544C112.069 1.42544 112.068 1.42544 112.067 1.42544ZM121.9 1.4488C121.621 1.51993 122.023 1.49935 120.68 1.48542C120.297 1.48155 117.25 1.50486 118.529 1.4485C119.618 1.44916 120.768 1.44884 121.9 1.4488ZM241.171 1.54712C241.192 1.48525 238.846 1.35068 238.545 1.38435C238.545 1.38426 238.545 1.38417 238.545 1.38408C237.732 1.47473 240.207 1.48892 239.133 1.61354C241.51 1.50479 242.221 1.77471 242.056 1.41921C240.655 1.40344 241.318 1.47655 241.171 1.54712ZM419.507 1.54197C419.508 1.54198 419.509 1.54198 419.51 1.54198C419.352 1.54707 418.054 1.70292 418.212 1.75711C419.773 1.71214 419.495 1.60802 420.948 1.77951C421.028 1.72472 421.096 1.67155 421.182 1.61631C420.605 1.5834 420.286 1.51752 419.507 1.54197ZM346.605 1.44931C346.032 1.42618 344.985 1.52137 344.332 1.51535C346.411 1.88292 348.896 1.54252 346.605 1.44931ZM34.754 1.40643C34.7557 1.40644 34.7573 1.40646 34.7589 1.40647C34.7585 1.40645 34.7578 1.40643 34.7573 1.40641C34.7561 1.40641 34.7551 1.40642 34.754 1.40643ZM302.159 1.63234C302.233 1.61159 302.275 1.59354 302.29 1.57768C302.29 1.57618 302.29 1.57469 302.29 1.5732C302.25 1.59266 302.207 1.61234 302.159 1.63234ZM246.047 1.56949C247.024 1.48211 243.769 1.34287 242.716 1.37618C242.79 1.41557 242.801 1.45126 242.973 1.49662C243.822 1.39448 245.884 1.58366 246.047 1.56949ZM171.825 1.48899C174.398 1.48834 171.049 1.24621 170.911 1.43824C170.917 1.4419 171.759 1.48856 171.825 1.48899ZM225.753 1.52042C225.098 1.42426 226.415 1.39919 224.308 1.41535C224.186 1.44001 224.063 1.4647 223.941 1.48929C224.545 1.49954 225.149 1.51001 225.753 1.52042ZM188.683 1.15231C191.922 1.19234 195.02 1.27333 192.91 1.49955C192.665 1.49213 192.416 1.48498 192.171 1.47762C192.134 1.3677 191.23 1.42764 189.906 1.43067C189.717 1.38749 188.983 1.37755 188.845 1.34117C188.579 1.27098 189.422 1.22069 188.683 1.15231ZM51.9439 1.36344C51.996 1.3685 52.047 1.37359 52.0992 1.37863C52.6113 1.38438 53.1251 1.39028 53.6372 1.39637C53.5545 1.3863 53.4715 1.37627 53.3888 1.36629C52.9075 1.3653 52.4285 1.36434 51.9472 1.36341C51.9461 1.36342 51.9449 1.36343 51.9439 1.36344ZM272.977 1.21324C273.271 1.50677 272.243 1.45136 270.157 1.30498C271.096 1.27471 272.038 1.24413 272.977 1.21324ZM136.638 1.27375C136.57 1.3155 136.504 1.35705 136.434 1.39867C135.326 1.35517 135.532 1.30835 136.063 1.25287C136.256 1.25978 136.445 1.26678 136.638 1.27375ZM120.689 1.27012C121.148 1.26201 120.914 1.29202 120.962 1.29138C122.124 1.27492 122.288 1.26062 123.714 1.28239C123.889 1.29026 124.061 1.29858 124.235 1.30676C123.576 1.38632 123.097 1.3434 121.702 1.38932C121.954 1.36266 122.204 1.33579 122.456 1.30868C121.68 1.31479 120.907 1.32071 120.131 1.3266C120.039 1.31852 119.947 1.31053 119.855 1.30248C120.131 1.29189 120.416 1.27992 120.689 1.27012ZM46.0206 1.37775C45.266 1.37889 44.508 1.38002 43.7535 1.38105C43.7259 1.37416 43.6994 1.36723 43.6718 1.36037C44.4537 1.36585 45.2386 1.37165 46.0206 1.37775ZM288.468 1.34513C288.528 1.36124 288.587 1.37746 288.638 1.39396C288.633 1.37385 288.568 1.35816 288.468 1.34513ZM421.497 1.17868C422.353 1.13182 423.586 1.16165 424.524 1.15138C424.451 1.31916 422.065 1.27345 421.228 1.37441C421.093 1.34455 421.136 1.19841 421.497 1.17868ZM212.393 1.35232C212.178 1.31048 211.964 1.26898 211.752 1.2274C211.234 1.23226 210.714 1.23735 210.193 1.24215C210.178 1.20825 210.163 1.17406 210.147 1.14017C212.444 1.18185 211.915 1.08439 213.052 0.984671C212.831 1.10753 212.614 1.23001 212.393 1.35232ZM22.0132 1.35481C23.6725 1.35543 24.2611 1.36042 23.3257 1.37208C22.7401 1.36961 22.151 1.36734 21.5654 1.36526C21.7156 1.36185 21.866 1.35836 22.0132 1.35481ZM318.688 1.22559C320.077 1.28287 320.1 1.07473 321.457 1.19021C320.73 1.22913 320.004 1.26823 319.28 1.30663C319.085 1.27963 318.884 1.25249 318.688 1.22559ZM250.586 0.810906C251.172 0.752371 252.267 1.02149 253.914 0.817422C254.306 0.87666 254.552 0.933732 254.89 0.992304C255.086 0.927736 255.309 0.862138 255.496 0.797777C255.497 0.797774 255.498 0.797772 255.499 0.797769C256.993 0.816151 256.024 0.89945 256.058 0.967781C256.074 0.996187 257.183 0.946871 256.836 1.00941C256.238 1.11661 254.003 1.05821 253.997 1.18656C254.782 1.14393 256.316 1.17781 255.862 1.26447C255.365 1.35908 253.92 1.20174 253 1.28014C254.319 1.07458 251.595 1.14068 251.286 1.2964C249.688 1.17764 251.156 1.12824 252.794 1.13201C251.794 1.01303 253.266 1.07632 253.508 0.975756C252.477 0.916946 248.939 0.973571 250.586 0.810906ZM175.194 1.13463C176.298 1.1387 178.024 1.08764 178.78 1.1583C179.22 1.19977 177.491 1.23334 178.683 1.29809C177.607 1.29214 177.362 1.26693 177.546 1.20968C177.301 1.20305 177.052 1.19662 176.807 1.19022C176.694 1.20144 176.577 1.21249 176.464 1.22367C176.335 1.20042 176.205 1.17742 176.08 1.15427C175.819 1.15919 175.556 1.1641 175.295 1.16915C175.265 1.15752 175.212 1.14744 175.194 1.13463ZM358.558 1.2138C358.252 1.21256 357.948 1.21132 357.641 1.20974C357.675 1.1817 357.715 1.1525 357.754 1.12367C357.782 1.10089 357.81 1.0781 357.838 1.05531C357.66 1.13702 356.199 1.27232 355.584 1.18619C355.274 1.14315 355.978 0.988648 354.667 0.963383C355.617 0.970151 356.498 0.990166 357.421 1.00233C357.338 0.956485 357.258 0.91018 357.176 0.864402C357.176 0.864334 357.177 0.864265 357.177 0.864196C357.484 0.853407 357.794 0.842089 358.101 0.831245C358.254 0.958679 358.405 1.08604 358.558 1.2138ZM137.537 1.19009C138.583 1.22336 138.933 1.24157 138.439 1.29834C138.438 1.29837 138.437 1.2984 138.436 1.29842C138.046 1.27364 137.657 1.24907 137.267 1.22471C137.356 1.21321 137.445 1.20164 137.537 1.19009ZM297.478 0.943798C299.701 1.40297 294.694 1.12376 295.647 0.967688C295.69 0.960435 297.269 0.994954 297.478 0.943798ZM215.878 1.24158C215.267 1.23925 214.656 1.23721 214.042 1.23493C214.183 1.19409 214.328 1.15332 214.469 1.11232C214.938 1.15505 215.408 1.19828 215.878 1.24158ZM29.2376 1.32698C29.8801 1.31363 31.5291 1.30446 32.335 1.31791C31.9118 1.32044 31.4882 1.32289 31.065 1.32528C31.8652 1.32559 32.6564 1.32623 33.4628 1.3267C33.5057 1.34646 32.5765 1.33615 31.1778 1.34298C30.9613 1.34436 29.5767 1.36724 29.0987 1.35128C29.0025 1.34815 30.4753 1.34411 29.4518 1.33558C29.8994 1.33418 30.2856 1.3338 30.7087 1.33275C30.7393 1.32837 30.7698 1.32398 30.8035 1.31957C30.2804 1.32212 29.7608 1.3246 29.2376 1.32698ZM181.624 1.13412C183.141 1.12609 183.328 1.16911 183.644 1.24568C182.939 1.23749 182.233 1.22953 181.527 1.22154C181.561 1.19248 181.59 1.16339 181.624 1.13412ZM42.7973 1.29801C43.6278 1.29351 43.2722 1.3089 43.6064 1.3112C44.8699 1.32011 45.7319 1.308 46.98 1.31328C46.8971 1.31031 46.8211 1.30754 46.7413 1.30469C46.7424 1.30468 46.7435 1.30468 46.7446 1.30468C52.6548 1.2812 49.5504 1.32487 46.014 1.32235C45.9312 1.32828 45.8516 1.33417 45.7688 1.33999C44.1862 1.33109 42.7268 1.32377 42.7973 1.29801ZM277.722 0.957849C277.789 0.935703 277.216 0.796965 278.292 0.860424C279.145 1.06371 277.746 0.964333 277.396 1.04321C277.688 1.06243 277.986 1.08116 278.274 1.1005C276.532 1.15978 276.278 1.11172 276.913 0.962225C276.958 0.952144 277.654 0.979872 277.722 0.957849ZM289.171 0.835783C289.411 1.14879 287.212 1.01028 287.292 0.913943C287.595 0.909579 287.831 0.961998 288.153 0.938167C288.478 0.914295 288.561 0.841159 289.171 0.835783ZM226.18 1.01359C226.244 1.01247 226.891 0.908113 226.827 0.989031C226.027 1.18141 224.414 1.06026 224.696 0.994213C225.229 0.996545 225.585 1.02453 226.18 1.01333C226.18 1.01342 226.18 1.01351 226.18 1.01359ZM19.2313 1.33918C19.262 1.33862 20.8765 1.3315 21.0849 1.33462C21.2565 1.33831 21.3418 1.34254 21.4706 1.34661C20.5811 1.34399 18.7807 1.34966 19.2346 1.33917C19.2335 1.33917 19.2325 1.33917 19.2313 1.33918Z" fill="#3D3638"/>
</svg>
